G04*
G04 #@! TF.GenerationSoftware,Altium Limited,Altium Designer,19.0.10 (269)*
G04*
G04 Layer_Color=16711935*
%FSLAX44Y44*%
%MOMM*%
G71*
G01*
G75*
%ADD14C,0.2000*%
%ADD16C,1.7000*%
%ADD17C,1.4000*%
%ADD19C,1.5000*%
%ADD20C,0.8000*%
%ADD21O,1.2000X2.0000*%
%ADD22C,1.0160*%
%ADD23C,2.5000*%
%ADD24C,3.0000*%
%ADD29O,1.8000X1.4000*%
G04:AMPARAMS|DCode=43|XSize=1.1mm|YSize=1.35mm|CornerRadius=0.1375mm|HoleSize=0mm|Usage=FLASHONLY|Rotation=180.000|XOffset=0mm|YOffset=0mm|HoleType=Round|Shape=RoundedRectangle|*
%AMROUNDEDRECTD43*
21,1,1.1000,1.0750,0,0,180.0*
21,1,0.8250,1.3500,0,0,180.0*
1,1,0.2750,-0.4125,0.5375*
1,1,0.2750,0.4125,0.5375*
1,1,0.2750,0.4125,-0.5375*
1,1,0.2750,-0.4125,-0.5375*
%
%ADD43ROUNDEDRECTD43*%
G04:AMPARAMS|DCode=44|XSize=0.75mm|YSize=0.9mm|CornerRadius=0.0938mm|HoleSize=0mm|Usage=FLASHONLY|Rotation=180.000|XOffset=0mm|YOffset=0mm|HoleType=Round|Shape=RoundedRectangle|*
%AMROUNDEDRECTD44*
21,1,0.7500,0.7125,0,0,180.0*
21,1,0.5625,0.9000,0,0,180.0*
1,1,0.1875,-0.2813,0.3563*
1,1,0.1875,0.2813,0.3563*
1,1,0.1875,0.2813,-0.3563*
1,1,0.1875,-0.2813,-0.3563*
%
%ADD44ROUNDEDRECTD44*%
G04:AMPARAMS|DCode=45|XSize=0.8mm|YSize=1.3mm|CornerRadius=0.1mm|HoleSize=0mm|Usage=FLASHONLY|Rotation=0.000|XOffset=0mm|YOffset=0mm|HoleType=Round|Shape=RoundedRectangle|*
%AMROUNDEDRECTD45*
21,1,0.8000,1.1000,0,0,0.0*
21,1,0.6000,1.3000,0,0,0.0*
1,1,0.2000,0.3000,-0.5500*
1,1,0.2000,-0.3000,-0.5500*
1,1,0.2000,-0.3000,0.5500*
1,1,0.2000,0.3000,0.5500*
%
%ADD45ROUNDEDRECTD45*%
G04:AMPARAMS|DCode=46|XSize=0.6mm|YSize=0.6mm|CornerRadius=0.075mm|HoleSize=0mm|Usage=FLASHONLY|Rotation=0.000|XOffset=0mm|YOffset=0mm|HoleType=Round|Shape=RoundedRectangle|*
%AMROUNDEDRECTD46*
21,1,0.6000,0.4500,0,0,0.0*
21,1,0.4500,0.6000,0,0,0.0*
1,1,0.1500,0.2250,-0.2250*
1,1,0.1500,-0.2250,-0.2250*
1,1,0.1500,-0.2250,0.2250*
1,1,0.1500,0.2250,0.2250*
%
%ADD46ROUNDEDRECTD46*%
G04:AMPARAMS|DCode=47|XSize=0.8mm|YSize=1.7mm|CornerRadius=0.1mm|HoleSize=0mm|Usage=FLASHONLY|Rotation=0.000|XOffset=0mm|YOffset=0mm|HoleType=Round|Shape=RoundedRectangle|*
%AMROUNDEDRECTD47*
21,1,0.8000,1.5000,0,0,0.0*
21,1,0.6000,1.7000,0,0,0.0*
1,1,0.2000,0.3000,-0.7500*
1,1,0.2000,-0.3000,-0.7500*
1,1,0.2000,-0.3000,0.7500*
1,1,0.2000,0.3000,0.7500*
%
%ADD47ROUNDEDRECTD47*%
G04:AMPARAMS|DCode=48|XSize=0.6mm|YSize=2.5mm|CornerRadius=0.075mm|HoleSize=0mm|Usage=FLASHONLY|Rotation=180.000|XOffset=0mm|YOffset=0mm|HoleType=Round|Shape=RoundedRectangle|*
%AMROUNDEDRECTD48*
21,1,0.6000,2.3500,0,0,180.0*
21,1,0.4500,2.5000,0,0,180.0*
1,1,0.1500,-0.2250,1.1750*
1,1,0.1500,0.2250,1.1750*
1,1,0.1500,0.2250,-1.1750*
1,1,0.1500,-0.2250,-1.1750*
%
%ADD48ROUNDEDRECTD48*%
G04:AMPARAMS|DCode=49|XSize=2.92mm|YSize=1.27mm|CornerRadius=0.1588mm|HoleSize=0mm|Usage=FLASHONLY|Rotation=180.000|XOffset=0mm|YOffset=0mm|HoleType=Round|Shape=RoundedRectangle|*
%AMROUNDEDRECTD49*
21,1,2.9200,0.9525,0,0,180.0*
21,1,2.6025,1.2700,0,0,180.0*
1,1,0.3175,-1.3013,0.4763*
1,1,0.3175,1.3013,0.4763*
1,1,0.3175,1.3013,-0.4763*
1,1,0.3175,-1.3013,-0.4763*
%
%ADD49ROUNDEDRECTD49*%
G04:AMPARAMS|DCode=50|XSize=3.43mm|YSize=1.65mm|CornerRadius=0.2063mm|HoleSize=0mm|Usage=FLASHONLY|Rotation=270.000|XOffset=0mm|YOffset=0mm|HoleType=Round|Shape=RoundedRectangle|*
%AMROUNDEDRECTD50*
21,1,3.4300,1.2375,0,0,270.0*
21,1,3.0175,1.6500,0,0,270.0*
1,1,0.4125,-0.6188,-1.5088*
1,1,0.4125,-0.6188,1.5088*
1,1,0.4125,0.6188,1.5088*
1,1,0.4125,0.6188,-1.5088*
%
%ADD50ROUNDEDRECTD50*%
G04:AMPARAMS|DCode=51|XSize=0.75mm|YSize=0.9mm|CornerRadius=0.0938mm|HoleSize=0mm|Usage=FLASHONLY|Rotation=90.000|XOffset=0mm|YOffset=0mm|HoleType=Round|Shape=RoundedRectangle|*
%AMROUNDEDRECTD51*
21,1,0.7500,0.7125,0,0,90.0*
21,1,0.5625,0.9000,0,0,90.0*
1,1,0.1875,0.3563,0.2813*
1,1,0.1875,0.3563,-0.2813*
1,1,0.1875,-0.3563,-0.2813*
1,1,0.1875,-0.3563,0.2813*
%
%ADD51ROUNDEDRECTD51*%
G04:AMPARAMS|DCode=52|XSize=0.6mm|YSize=0.5mm|CornerRadius=0.0625mm|HoleSize=0mm|Usage=FLASHONLY|Rotation=180.000|XOffset=0mm|YOffset=0mm|HoleType=Round|Shape=RoundedRectangle|*
%AMROUNDEDRECTD52*
21,1,0.6000,0.3750,0,0,180.0*
21,1,0.4750,0.5000,0,0,180.0*
1,1,0.1250,-0.2375,0.1875*
1,1,0.1250,0.2375,0.1875*
1,1,0.1250,0.2375,-0.1875*
1,1,0.1250,-0.2375,-0.1875*
%
%ADD52ROUNDEDRECTD52*%
G04:AMPARAMS|DCode=53|XSize=1.75mm|YSize=2.5mm|CornerRadius=0.2188mm|HoleSize=0mm|Usage=FLASHONLY|Rotation=0.000|XOffset=0mm|YOffset=0mm|HoleType=Round|Shape=RoundedRectangle|*
%AMROUNDEDRECTD53*
21,1,1.7500,2.0625,0,0,0.0*
21,1,1.3125,2.5000,0,0,0.0*
1,1,0.4375,0.6563,-1.0313*
1,1,0.4375,-0.6563,-1.0313*
1,1,0.4375,-0.6563,1.0313*
1,1,0.4375,0.6563,1.0313*
%
%ADD53ROUNDEDRECTD53*%
G04:AMPARAMS|DCode=54|XSize=1.3mm|YSize=3mm|CornerRadius=0.1625mm|HoleSize=0mm|Usage=FLASHONLY|Rotation=270.000|XOffset=0mm|YOffset=0mm|HoleType=Round|Shape=RoundedRectangle|*
%AMROUNDEDRECTD54*
21,1,1.3000,2.6750,0,0,270.0*
21,1,0.9750,3.0000,0,0,270.0*
1,1,0.3250,-1.3375,-0.4875*
1,1,0.3250,-1.3375,0.4875*
1,1,0.3250,1.3375,0.4875*
1,1,0.3250,1.3375,-0.4875*
%
%ADD54ROUNDEDRECTD54*%
G04:AMPARAMS|DCode=55|XSize=1.35mm|YSize=0.4mm|CornerRadius=0.05mm|HoleSize=0mm|Usage=FLASHONLY|Rotation=270.000|XOffset=0mm|YOffset=0mm|HoleType=Round|Shape=RoundedRectangle|*
%AMROUNDEDRECTD55*
21,1,1.3500,0.3000,0,0,270.0*
21,1,1.2500,0.4000,0,0,270.0*
1,1,0.1000,-0.1500,-0.6250*
1,1,0.1000,-0.1500,0.6250*
1,1,0.1000,0.1500,0.6250*
1,1,0.1000,0.1500,-0.6250*
%
%ADD55ROUNDEDRECTD55*%
G04:AMPARAMS|DCode=56|XSize=0.6mm|YSize=1.45mm|CornerRadius=0.075mm|HoleSize=0mm|Usage=FLASHONLY|Rotation=90.000|XOffset=0mm|YOffset=0mm|HoleType=Round|Shape=RoundedRectangle|*
%AMROUNDEDRECTD56*
21,1,0.6000,1.3000,0,0,90.0*
21,1,0.4500,1.4500,0,0,90.0*
1,1,0.1500,0.6500,0.2250*
1,1,0.1500,0.6500,-0.2250*
1,1,0.1500,-0.6500,-0.2250*
1,1,0.1500,-0.6500,0.2250*
%
%ADD56ROUNDEDRECTD56*%
G04:AMPARAMS|DCode=57|XSize=0.6mm|YSize=0.6mm|CornerRadius=0.075mm|HoleSize=0mm|Usage=FLASHONLY|Rotation=270.000|XOffset=0mm|YOffset=0mm|HoleType=Round|Shape=RoundedRectangle|*
%AMROUNDEDRECTD57*
21,1,0.6000,0.4500,0,0,270.0*
21,1,0.4500,0.6000,0,0,270.0*
1,1,0.1500,-0.2250,-0.2250*
1,1,0.1500,-0.2250,0.2250*
1,1,0.1500,0.2250,0.2250*
1,1,0.1500,0.2250,-0.2250*
%
%ADD57ROUNDEDRECTD57*%
G04:AMPARAMS|DCode=58|XSize=0.95mm|YSize=0.85mm|CornerRadius=0.1063mm|HoleSize=0mm|Usage=FLASHONLY|Rotation=0.000|XOffset=0mm|YOffset=0mm|HoleType=Round|Shape=RoundedRectangle|*
%AMROUNDEDRECTD58*
21,1,0.9500,0.6375,0,0,0.0*
21,1,0.7375,0.8500,0,0,0.0*
1,1,0.2125,0.3688,-0.3188*
1,1,0.2125,-0.3688,-0.3188*
1,1,0.2125,-0.3688,0.3188*
1,1,0.2125,0.3688,0.3188*
%
%ADD58ROUNDEDRECTD58*%
G04:AMPARAMS|DCode=59|XSize=1.3mm|YSize=3.7mm|CornerRadius=0.1625mm|HoleSize=0mm|Usage=FLASHONLY|Rotation=180.000|XOffset=0mm|YOffset=0mm|HoleType=Round|Shape=RoundedRectangle|*
%AMROUNDEDRECTD59*
21,1,1.3000,3.3750,0,0,180.0*
21,1,0.9750,3.7000,0,0,180.0*
1,1,0.3250,-0.4875,1.6875*
1,1,0.3250,0.4875,1.6875*
1,1,0.3250,0.4875,-1.6875*
1,1,0.3250,-0.4875,-1.6875*
%
%ADD59ROUNDEDRECTD59*%
G04:AMPARAMS|DCode=60|XSize=2.92mm|YSize=1.27mm|CornerRadius=0.1588mm|HoleSize=0mm|Usage=FLASHONLY|Rotation=270.000|XOffset=0mm|YOffset=0mm|HoleType=Round|Shape=RoundedRectangle|*
%AMROUNDEDRECTD60*
21,1,2.9200,0.9525,0,0,270.0*
21,1,2.6025,1.2700,0,0,270.0*
1,1,0.3175,-0.4763,-1.3013*
1,1,0.3175,-0.4763,1.3013*
1,1,0.3175,0.4763,1.3013*
1,1,0.3175,0.4763,-1.3013*
%
%ADD60ROUNDEDRECTD60*%
G04:AMPARAMS|DCode=61|XSize=3.43mm|YSize=1.65mm|CornerRadius=0.2063mm|HoleSize=0mm|Usage=FLASHONLY|Rotation=0.000|XOffset=0mm|YOffset=0mm|HoleType=Round|Shape=RoundedRectangle|*
%AMROUNDEDRECTD61*
21,1,3.4300,1.2375,0,0,0.0*
21,1,3.0175,1.6500,0,0,0.0*
1,1,0.4125,1.5088,-0.6188*
1,1,0.4125,-1.5088,-0.6188*
1,1,0.4125,-1.5088,0.6188*
1,1,0.4125,1.5088,0.6188*
%
%ADD61ROUNDEDRECTD61*%
G04:AMPARAMS|DCode=62|XSize=0.3mm|YSize=1.8mm|CornerRadius=0.0375mm|HoleSize=0mm|Usage=FLASHONLY|Rotation=0.000|XOffset=0mm|YOffset=0mm|HoleType=Round|Shape=RoundedRectangle|*
%AMROUNDEDRECTD62*
21,1,0.3000,1.7250,0,0,0.0*
21,1,0.2250,1.8000,0,0,0.0*
1,1,0.0750,0.1125,-0.8625*
1,1,0.0750,-0.1125,-0.8625*
1,1,0.0750,-0.1125,0.8625*
1,1,0.0750,0.1125,0.8625*
%
%ADD62ROUNDEDRECTD62*%
G04:AMPARAMS|DCode=63|XSize=0.3mm|YSize=1.8mm|CornerRadius=0.0375mm|HoleSize=0mm|Usage=FLASHONLY|Rotation=90.000|XOffset=0mm|YOffset=0mm|HoleType=Round|Shape=RoundedRectangle|*
%AMROUNDEDRECTD63*
21,1,0.3000,1.7250,0,0,90.0*
21,1,0.2250,1.8000,0,0,90.0*
1,1,0.0750,0.8625,0.1125*
1,1,0.0750,0.8625,-0.1125*
1,1,0.0750,-0.8625,-0.1125*
1,1,0.0750,-0.8625,0.1125*
%
%ADD63ROUNDEDRECTD63*%
%ADD65C,1.0800*%
D14*
X762500Y-250D02*
X767500D01*
X842500D02*
X847750D01*
X0Y0D02*
Y660000D01*
X1200000D01*
X1200000Y0D01*
X0D02*
X1200000D01*
D16*
X587310Y60620D02*
D03*
X628060Y97330D02*
D03*
X578950Y115410D02*
D03*
X1092690Y599380D02*
D03*
X1051940Y562670D02*
D03*
X1101050Y544590D02*
D03*
X612690Y599380D02*
D03*
X571940Y562670D02*
D03*
X621050Y544590D02*
D03*
D17*
X600000Y145230D02*
D03*
X553440Y67290D02*
D03*
X642950Y61030D02*
D03*
X1056560Y106370D02*
D03*
X1107580Y58180D02*
D03*
X1105960Y112070D02*
D03*
X1080000Y514770D02*
D03*
X1126560Y592710D02*
D03*
X1037050Y598970D02*
D03*
X600000Y514770D02*
D03*
X646560Y592710D02*
D03*
X557050Y598970D02*
D03*
X96560Y106370D02*
D03*
X147580Y58180D02*
D03*
X145960Y112070D02*
D03*
X136370Y593440D02*
D03*
X88180Y542422D02*
D03*
X142070Y544040D02*
D03*
D19*
X1080000Y90000D02*
D03*
X120000D02*
D03*
Y570000D02*
D03*
D20*
X909000Y633000D02*
D03*
D21*
X769000Y14250D02*
D03*
X841000D02*
D03*
D22*
X780750Y44250D02*
D03*
X829250D02*
D03*
D23*
X810000Y510000D02*
D03*
X230000Y510000D02*
D03*
X810000Y280000D02*
D03*
X230000D02*
D03*
D24*
X1170000Y30000D02*
D03*
Y530000D02*
D03*
X30000Y30000D02*
D03*
Y630000D02*
D03*
D29*
X735362Y595986D02*
D03*
Y633936D02*
D03*
X845362Y633736D02*
D03*
X660000Y520000D02*
D03*
Y460001D02*
D03*
X659700Y490000D02*
D03*
X530000Y460000D02*
D03*
Y490000D02*
D03*
Y520128D02*
D03*
X491000Y460001D02*
D03*
Y490000D02*
D03*
Y520000D02*
D03*
X375846Y434919D02*
D03*
X405846D02*
D03*
X345846Y434878D02*
D03*
X285849Y434919D02*
D03*
X315846D02*
D03*
X255927D02*
D03*
X845362Y595986D02*
D03*
D43*
X502999Y434001D02*
D03*
X482999D02*
D03*
X659401Y210999D02*
D03*
X679401D02*
D03*
X1077000Y435001D02*
D03*
X1057000D02*
D03*
X1076999Y209999D02*
D03*
X1056999D02*
D03*
X110001Y444999D02*
D03*
X130001D02*
D03*
X110001Y214999D02*
D03*
X130001Y214999D02*
D03*
D44*
X451000Y434000D02*
D03*
X467000D02*
D03*
X1025000Y210000D02*
D03*
X1041000D02*
D03*
X724000Y511000D02*
D03*
X740000D02*
D03*
Y495000D02*
D03*
X724000D02*
D03*
Y479000D02*
D03*
X740000D02*
D03*
X724000Y463000D02*
D03*
X740000D02*
D03*
Y446920D02*
D03*
X724000D02*
D03*
Y431000D02*
D03*
X740000D02*
D03*
X724000Y415000D02*
D03*
X740000D02*
D03*
Y399000D02*
D03*
X724000D02*
D03*
X752000Y503000D02*
D03*
X768000D02*
D03*
X752000Y487000D02*
D03*
X768000D02*
D03*
Y471000D02*
D03*
X752000D02*
D03*
Y455000D02*
D03*
X768000D02*
D03*
X752000Y438919D02*
D03*
X768000D02*
D03*
Y423000D02*
D03*
X752000D02*
D03*
X711000Y211270D02*
D03*
X695000D02*
D03*
X1025000Y435000D02*
D03*
X1041000D02*
D03*
X752000Y407000D02*
D03*
X768000D02*
D03*
X1076000Y313000D02*
D03*
X1060000D02*
D03*
X1076000Y285000D02*
D03*
X1060000D02*
D03*
X1076000Y271000D02*
D03*
X1060000D02*
D03*
X1076000Y299000D02*
D03*
X1060000D02*
D03*
X137000Y346000D02*
D03*
X153000D02*
D03*
X137000Y404303D02*
D03*
X153000D02*
D03*
X902001Y157000D02*
D03*
X886001D02*
D03*
X146000Y215000D02*
D03*
X162000D02*
D03*
X146243Y444999D02*
D03*
X162243D02*
D03*
X759000Y576986D02*
D03*
X775000D02*
D03*
X821000Y577002D02*
D03*
X805000D02*
D03*
X136997Y360000D02*
D03*
X152997D02*
D03*
X354000Y333000D02*
D03*
X370000D02*
D03*
X320000Y216000D02*
D03*
X304000D02*
D03*
X137000Y390081D02*
D03*
X153000D02*
D03*
D45*
X827350Y217000D02*
D03*
X814650D02*
D03*
Y157000D02*
D03*
X827350D02*
D03*
X801950D02*
D03*
X789250D02*
D03*
Y217000D02*
D03*
X801950D02*
D03*
X852750Y157000D02*
D03*
X840050D02*
D03*
Y217000D02*
D03*
X852750D02*
D03*
D46*
X815000Y302860D02*
D03*
X805000Y302860D02*
D03*
X815000Y313000D02*
D03*
X805000Y313000D02*
D03*
X833000Y405000D02*
D03*
X823001Y405000D02*
D03*
D47*
X926000Y633000D02*
D03*
X892000D02*
D03*
D48*
X909000Y560760D02*
D03*
X896300D02*
D03*
X947100D02*
D03*
X934400D02*
D03*
X921700D02*
D03*
Y591240D02*
D03*
X934400D02*
D03*
X947100D02*
D03*
X896300D02*
D03*
X909000D02*
D03*
X883600Y560760D02*
D03*
X870900D02*
D03*
X883600Y591240D02*
D03*
X870900D02*
D03*
D49*
X1099650Y270000D02*
D03*
Y300000D02*
D03*
Y330000D02*
D03*
Y360000D02*
D03*
Y390000D02*
D03*
X100350D02*
D03*
Y360000D02*
D03*
Y330000D02*
D03*
Y300000D02*
D03*
Y270000D02*
D03*
D50*
X1154350Y231150D02*
D03*
Y428850D02*
D03*
X45650D02*
D03*
Y231150D02*
D03*
D51*
X831000Y553000D02*
D03*
Y537000D02*
D03*
X912000Y88000D02*
D03*
Y104000D02*
D03*
X852000Y88000D02*
D03*
Y104000D02*
D03*
X817000Y537000D02*
D03*
Y553000D02*
D03*
X845000Y537000D02*
D03*
Y553000D02*
D03*
X803000Y537000D02*
D03*
Y553000D02*
D03*
X719000Y537000D02*
D03*
Y553000D02*
D03*
X705000Y537000D02*
D03*
Y553000D02*
D03*
X789000Y537000D02*
D03*
Y553000D02*
D03*
X691000Y537000D02*
D03*
Y553000D02*
D03*
X775000Y537000D02*
D03*
Y553000D02*
D03*
X376000Y523000D02*
D03*
Y507000D02*
D03*
X344000Y137000D02*
D03*
Y153000D02*
D03*
X434000Y523000D02*
D03*
Y507000D02*
D03*
X286000Y137000D02*
D03*
Y153000D02*
D03*
X761000Y537000D02*
D03*
Y553000D02*
D03*
X747000Y537000D02*
D03*
Y553000D02*
D03*
X733000Y537000D02*
D03*
Y553000D02*
D03*
X851000Y235000D02*
D03*
Y251000D02*
D03*
X836000Y235000D02*
D03*
Y251000D02*
D03*
X815000Y235000D02*
D03*
Y251000D02*
D03*
X801000Y235000D02*
D03*
Y251000D02*
D03*
X787000Y235000D02*
D03*
Y251000D02*
D03*
X390000Y523000D02*
D03*
Y507000D02*
D03*
X420000Y523000D02*
D03*
Y507000D02*
D03*
X300000Y137000D02*
D03*
Y153000D02*
D03*
X330000Y137000D02*
D03*
Y153000D02*
D03*
D52*
X895500Y109512D02*
D03*
Y100012D02*
D03*
Y90512D02*
D03*
X868500D02*
D03*
Y100012D02*
D03*
Y109512D02*
D03*
D53*
X882000Y100012D02*
D03*
D54*
X944000Y125400D02*
D03*
Y74600D02*
D03*
X980000Y100000D02*
D03*
X787000Y125412D02*
D03*
Y74612D02*
D03*
X823000Y100012D02*
D03*
D55*
X805000Y41000D02*
D03*
X798500D02*
D03*
X792000D02*
D03*
X811500D02*
D03*
X818000D02*
D03*
D56*
X817250Y634050D02*
D03*
Y621350D02*
D03*
Y608650D02*
D03*
Y595950D02*
D03*
X762750Y634050D02*
D03*
Y621350D02*
D03*
Y608650D02*
D03*
Y595950D02*
D03*
D57*
X1007000Y455000D02*
D03*
X1007000Y445000D02*
D03*
X961000Y235000D02*
D03*
X961000Y225000D02*
D03*
X917000Y235000D02*
D03*
X917000Y225000D02*
D03*
X907000D02*
D03*
X907000Y235000D02*
D03*
X1023000Y234001D02*
D03*
X1023000Y243996D02*
D03*
X1013000Y234000D02*
D03*
X1013000Y244000D02*
D03*
X997000Y455000D02*
D03*
X997000Y445000D02*
D03*
X889001Y225000D02*
D03*
X889001Y235000D02*
D03*
X879000Y225000D02*
D03*
X879000Y235000D02*
D03*
D58*
X931750Y235750D02*
D03*
X946250Y224250D02*
D03*
X931750D02*
D03*
X946250Y235750D02*
D03*
D59*
X685100Y257140D02*
D03*
X710500Y257140D02*
D03*
X761300Y257140D02*
D03*
X735900Y257140D02*
D03*
X685100Y302860D02*
D03*
X710500Y302860D02*
D03*
X761300Y302860D02*
D03*
X735900Y302860D02*
D03*
X481900Y257140D02*
D03*
X507300D02*
D03*
X456500Y257140D02*
D03*
X431100Y257140D02*
D03*
X354900Y257140D02*
D03*
X380300D02*
D03*
X278700Y257140D02*
D03*
X304100Y257140D02*
D03*
X329500Y257140D02*
D03*
X405700Y257140D02*
D03*
X634300Y302860D02*
D03*
X659700Y302860D02*
D03*
X608900Y302860D02*
D03*
X583500D02*
D03*
X532700Y302860D02*
D03*
X558100Y302860D02*
D03*
X405700Y302860D02*
D03*
X329500D02*
D03*
X304100Y302860D02*
D03*
X278700Y302860D02*
D03*
X380300Y302860D02*
D03*
X354900D02*
D03*
X431100Y302860D02*
D03*
X456500Y302860D02*
D03*
X507300D02*
D03*
X481900Y302860D02*
D03*
X634300Y257140D02*
D03*
X659700D02*
D03*
X608900Y257140D02*
D03*
X583500D02*
D03*
X532700D02*
D03*
X558100Y257140D02*
D03*
D60*
X420000Y559650D02*
D03*
X390000D02*
D03*
X360000D02*
D03*
X330000D02*
D03*
X300000D02*
D03*
Y100350D02*
D03*
X330000D02*
D03*
X360000D02*
D03*
X390000D02*
D03*
X420000D02*
D03*
D61*
X458850Y614350D02*
D03*
X261150D02*
D03*
Y45650D02*
D03*
X458850D02*
D03*
D62*
X996000Y274500D02*
D03*
X991000D02*
D03*
X986000D02*
D03*
X981000D02*
D03*
X976000D02*
D03*
X971000D02*
D03*
X966000D02*
D03*
X961000D02*
D03*
X956000D02*
D03*
X951000D02*
D03*
X946000D02*
D03*
X941000D02*
D03*
X936000D02*
D03*
X931000Y274500D02*
D03*
X926000Y274500D02*
D03*
X921000Y274500D02*
D03*
X916000Y274500D02*
D03*
X911000Y274500D02*
D03*
X906000Y274500D02*
D03*
X901000Y274500D02*
D03*
X896000Y274500D02*
D03*
X891000Y274500D02*
D03*
X886000Y274500D02*
D03*
X881000Y274500D02*
D03*
X876000Y274500D02*
D03*
X876000Y425500D02*
D03*
X881000D02*
D03*
X886000D02*
D03*
X891000D02*
D03*
X896000D02*
D03*
X901000D02*
D03*
X906000D02*
D03*
X911000D02*
D03*
X916000D02*
D03*
X921000D02*
D03*
X926000D02*
D03*
X931000D02*
D03*
X936000D02*
D03*
X941000Y425500D02*
D03*
X946000Y425500D02*
D03*
X951000Y425500D02*
D03*
X956000Y425500D02*
D03*
X961000Y425500D02*
D03*
X966000Y425500D02*
D03*
X971000Y425500D02*
D03*
X976000Y425500D02*
D03*
X981000D02*
D03*
X986000Y425500D02*
D03*
X991000Y425500D02*
D03*
X996000Y425500D02*
D03*
D63*
X860500Y290000D02*
D03*
Y295000D02*
D03*
Y300000D02*
D03*
Y305000D02*
D03*
Y310000D02*
D03*
Y315000D02*
D03*
Y320000D02*
D03*
Y325000D02*
D03*
Y330000D02*
D03*
Y335000D02*
D03*
Y340000D02*
D03*
Y345000D02*
D03*
Y350000D02*
D03*
X860500Y355000D02*
D03*
X860500Y360000D02*
D03*
X860500Y365000D02*
D03*
X860500Y370000D02*
D03*
X860500Y375000D02*
D03*
X860500Y380000D02*
D03*
X860500Y385000D02*
D03*
X860500Y390000D02*
D03*
X860500Y395000D02*
D03*
X860500Y400000D02*
D03*
X860500Y405000D02*
D03*
X860500Y410000D02*
D03*
X1011500Y410000D02*
D03*
Y405000D02*
D03*
Y400000D02*
D03*
Y395000D02*
D03*
Y390000D02*
D03*
Y385000D02*
D03*
Y380000D02*
D03*
Y375000D02*
D03*
Y370000D02*
D03*
Y365000D02*
D03*
Y360000D02*
D03*
Y355000D02*
D03*
Y350000D02*
D03*
X1011500Y345000D02*
D03*
X1011500Y340000D02*
D03*
X1011500Y335000D02*
D03*
X1011500Y330000D02*
D03*
X1011500Y325000D02*
D03*
X1011500Y320000D02*
D03*
X1011500Y315000D02*
D03*
X1011500Y310000D02*
D03*
Y305000D02*
D03*
X1011500Y300000D02*
D03*
X1011500Y295000D02*
D03*
X1011500Y290000D02*
D03*
D65*
X618200Y200310D02*
D03*
X581800D02*
D03*
X576700Y142730D02*
D03*
X623300D02*
D03*
X545470Y89330D02*
D03*
X495960Y59510D02*
D03*
X511920Y26790D02*
D03*
X565900Y47450D02*
D03*
X627840Y43110D02*
D03*
X653900Y81750D02*
D03*
X678430Y15150D02*
D03*
X698780Y45320D02*
D03*
X1090000Y184560D02*
D03*
X1053730Y181390D02*
D03*
X1100090Y127650D02*
D03*
X1053670Y123590D02*
D03*
X1122420Y113300D02*
D03*
X1180000Y108200D02*
D03*
Y71800D02*
D03*
X1122420Y66700D02*
D03*
X1061800Y459690D02*
D03*
X1098200D02*
D03*
X1103300Y517270D02*
D03*
X1056700D02*
D03*
X1134530Y570670D02*
D03*
X1184040Y600490D02*
D03*
X1168080Y633210D02*
D03*
X1114100Y612550D02*
D03*
X1052160Y616890D02*
D03*
X1026100Y578250D02*
D03*
X1001570Y644850D02*
D03*
X981220Y614680D02*
D03*
X581800Y459690D02*
D03*
X618200D02*
D03*
X623300Y517270D02*
D03*
X576700D02*
D03*
X654530Y570670D02*
D03*
X704040Y600490D02*
D03*
X688080Y633210D02*
D03*
X634100Y612550D02*
D03*
X572160Y616890D02*
D03*
X546100Y578250D02*
D03*
X521570Y644850D02*
D03*
X501220Y614680D02*
D03*
X130000Y184560D02*
D03*
X93730Y181390D02*
D03*
X140090Y127650D02*
D03*
X93670Y123590D02*
D03*
X162420Y113300D02*
D03*
X220000Y108200D02*
D03*
Y71800D02*
D03*
X162420Y66700D02*
D03*
X214562Y560000D02*
D03*
X211389Y596270D02*
D03*
X157650Y549910D02*
D03*
X153590Y596330D02*
D03*
X143300Y527580D02*
D03*
X138200Y469999D02*
D03*
X101801Y470000D02*
D03*
X96701Y527580D02*
D03*
M02*
