G04*
G04 #@! TF.GenerationSoftware,Altium Limited,Altium Designer,19.0.10 (269)*
G04*
G04 Layer_Physical_Order=3*
G04 Layer_Color=128*
%FSLAX44Y44*%
%MOMM*%
G71*
G01*
G75*
%ADD14C,0.2000*%
%ADD24C,3.0000*%
%ADD26C,0.5000*%
%ADD31C,2.2000*%
%ADD32C,1.9000*%
%ADD33C,1.3800*%
%ADD34C,2.0000*%
%ADD35C,1.3000*%
%ADD38C,4.0000*%
%ADD39C,0.8000*%
G04:AMPARAMS|DCode=40|XSize=1.8mm|YSize=1.8mm|CornerRadius=0mm|HoleSize=0mm|Usage=FLASHONLY|Rotation=0.000|XOffset=0mm|YOffset=0mm|HoleType=Round|Shape=Relief|Width=0.25mm|Gap=0.25mm|Entries=4|*
%AMTHD40*
7,0,0,1.8000,1.3000,0.2500,45*
%
%ADD40THD40*%
%AMTHOVALD41*
21,1,0.7000,2.3000,0,0,270.0*
1,1,2.3000,0.0000,0.3500*
1,1,2.3000,0.0000,-0.3500*
21,0,0.7000,1.8000,0,0,270.0*
1,0,1.8000,0.0000,0.3500*
1,0,1.8000,0.0000,-0.3500*
4,0,4,-0.0884,0.2616,-0.9016,1.0748,-0.7248,1.2516,0.0884,0.4384,-0.0884,0.2616,0.0*
4,0,4,-0.0884,-0.4384,0.7248,-1.2516,0.9016,-1.0748,0.0884,-0.2616,-0.0884,-0.4384,0.0*
4,0,4,-0.0884,0.4384,0.7248,1.2516,0.9016,1.0748,0.0884,0.2616,-0.0884,0.4384,0.0*
4,0,4,-0.0884,-0.2616,-0.9016,-1.0748,-0.7248,-1.2516,0.0884,-0.4384,-0.0884,-0.2616,0.0*
%
%ADD41THOVALD41*%

G04:AMPARAMS|DCode=42|XSize=2.05mm|YSize=2.05mm|CornerRadius=0mm|HoleSize=0mm|Usage=FLASHONLY|Rotation=0.000|XOffset=0mm|YOffset=0mm|HoleType=Round|Shape=Relief|Width=0.25mm|Gap=0.25mm|Entries=4|*
%AMTHD42*
7,0,0,2.0500,1.5500,0.2500,45*
%
%ADD42THD42*%
D14*
X762500Y-250D02*
X767500D01*
X842500D02*
X847750D01*
X0Y0D02*
Y660000D01*
X1200000D01*
X1200000Y0D01*
X0D02*
X1200000D01*
D24*
X810000Y510000D02*
D03*
X230000Y510000D02*
D03*
X810000Y280000D02*
D03*
X230000D02*
D03*
D26*
X0Y0D02*
Y660000D01*
X1200000D01*
X1200000Y0D01*
X0D02*
X1200000D01*
D31*
X587310Y60620D02*
D03*
X628060Y97330D02*
D03*
X578950Y115410D02*
D03*
X1092690Y599380D02*
D03*
X1051940Y562670D02*
D03*
X1101050Y544590D02*
D03*
X612690Y599380D02*
D03*
X571940Y562670D02*
D03*
X621050Y544590D02*
D03*
D32*
X600000Y145230D02*
D03*
X553440Y67290D02*
D03*
X642950Y61030D02*
D03*
X1056560Y106370D02*
D03*
X1107580Y58180D02*
D03*
X1105960Y112070D02*
D03*
X1080000Y514770D02*
D03*
X1126560Y592710D02*
D03*
X1037050Y598970D02*
D03*
X600000Y514770D02*
D03*
X646560Y592710D02*
D03*
X557050Y598970D02*
D03*
X96560Y106370D02*
D03*
X147580Y58180D02*
D03*
X145960Y112070D02*
D03*
X136370Y593440D02*
D03*
X88180Y542422D02*
D03*
X142070Y544040D02*
D03*
D33*
X618200Y200310D02*
D03*
X581800D02*
D03*
X576700Y142730D02*
D03*
X623300D02*
D03*
X545470Y89330D02*
D03*
X495960Y59510D02*
D03*
X511920Y26790D02*
D03*
X565900Y47450D02*
D03*
X627840Y43110D02*
D03*
X653900Y81750D02*
D03*
X678430Y15150D02*
D03*
X698780Y45320D02*
D03*
X1090000Y184560D02*
D03*
X1053730Y181390D02*
D03*
X1100090Y127650D02*
D03*
X1053670Y123590D02*
D03*
X1122420Y113300D02*
D03*
X1180000Y108200D02*
D03*
Y71800D02*
D03*
X1122420Y66700D02*
D03*
X1061800Y459690D02*
D03*
X1098200D02*
D03*
X1103300Y517270D02*
D03*
X1056700D02*
D03*
X1134530Y570670D02*
D03*
X1184040Y600490D02*
D03*
X1168080Y633210D02*
D03*
X1114100Y612550D02*
D03*
X1052160Y616890D02*
D03*
X1026100Y578250D02*
D03*
X1001570Y644850D02*
D03*
X981220Y614680D02*
D03*
X581800Y459690D02*
D03*
X618200D02*
D03*
X623300Y517270D02*
D03*
X576700D02*
D03*
X654530Y570670D02*
D03*
X704040Y600490D02*
D03*
X688080Y633210D02*
D03*
X634100Y612550D02*
D03*
X572160Y616890D02*
D03*
X546100Y578250D02*
D03*
X521570Y644850D02*
D03*
X501220Y614680D02*
D03*
X130000Y184560D02*
D03*
X93730Y181390D02*
D03*
X140090Y127650D02*
D03*
X93670Y123590D02*
D03*
X162420Y113300D02*
D03*
X220000Y108200D02*
D03*
Y71800D02*
D03*
X162420Y66700D02*
D03*
X214562Y560000D02*
D03*
X211389Y596270D02*
D03*
X157650Y549910D02*
D03*
X153590Y596330D02*
D03*
X143300Y527580D02*
D03*
X138200Y469999D02*
D03*
X101801Y470000D02*
D03*
X96701Y527580D02*
D03*
D34*
X1080000Y90000D02*
D03*
X120000D02*
D03*
Y570000D02*
D03*
D35*
X909000Y633000D02*
D03*
X735362Y595986D02*
D03*
Y633936D02*
D03*
X845362Y633736D02*
D03*
X660000Y520000D02*
D03*
Y460001D02*
D03*
X659700Y490000D02*
D03*
X530000Y460000D02*
D03*
Y490000D02*
D03*
Y520128D02*
D03*
X491000Y460001D02*
D03*
Y490000D02*
D03*
Y520000D02*
D03*
X375846Y434919D02*
D03*
X405846D02*
D03*
X345846Y434878D02*
D03*
X285849Y434919D02*
D03*
X315846D02*
D03*
X255927D02*
D03*
X845362Y595986D02*
D03*
D38*
X1170000Y30000D02*
D03*
Y530000D02*
D03*
X30000Y30000D02*
D03*
Y630000D02*
D03*
D39*
X488000Y390000D02*
D03*
X509000Y490000D02*
D03*
X515000Y554000D02*
D03*
Y460000D02*
D03*
X532000Y566000D02*
D03*
X561899Y490000D02*
D03*
X315846Y394000D02*
D03*
X256000Y406000D02*
D03*
X406000Y412000D02*
D03*
X375927Y417919D02*
D03*
X286000Y400000D02*
D03*
X1122000Y128000D02*
D03*
X1125000Y136000D02*
D03*
X831001Y561000D02*
D03*
X169000Y470000D02*
D03*
X566000Y30000D02*
D03*
X512000Y10000D02*
D03*
X444000Y434000D02*
D03*
X1068250Y368000D02*
D03*
X788440Y330000D02*
D03*
X910000Y157000D02*
D03*
X832000Y347000D02*
D03*
X879000Y243000D02*
D03*
X815140Y321000D02*
D03*
X865000Y515000D02*
D03*
Y525000D02*
D03*
X855000Y537000D02*
D03*
X1060000Y262000D02*
D03*
X678000Y550000D02*
D03*
X688000Y650000D02*
D03*
X865000Y216994D02*
D03*
X817001Y561000D02*
D03*
X1013000Y253001D02*
D03*
X969000Y257140D02*
D03*
X1168080Y650000D02*
D03*
X1062001Y635000D02*
D03*
X639000Y517000D02*
D03*
X634000Y630000D02*
D03*
X655000Y552000D02*
D03*
X1025000Y420000D02*
D03*
X400000Y507000D02*
D03*
X444000D02*
D03*
X153000Y414000D02*
D03*
Y336000D02*
D03*
X354000Y153000D02*
D03*
X276000D02*
D03*
X320000D02*
D03*
X366000Y507000D02*
D03*
X153000Y369000D02*
D03*
X545470Y108000D02*
D03*
X1133000Y551000D02*
D03*
X1123000Y442000D02*
D03*
X789000Y514000D02*
D03*
X1105000Y626000D02*
D03*
X913000Y244000D02*
D03*
X1014000Y444920D02*
D03*
X899000Y253810D02*
D03*
X921700Y612000D02*
D03*
X775014Y634050D02*
D03*
X883600Y612000D02*
D03*
X915000Y518000D02*
D03*
X930000D02*
D03*
X750000Y577002D02*
D03*
X830500D02*
D03*
X789000Y525000D02*
D03*
X775000D02*
D03*
X761000D02*
D03*
X747000D02*
D03*
X733000D02*
D03*
X719000D02*
D03*
X705000D02*
D03*
X691000D02*
D03*
X560000Y158000D02*
D03*
X1060000Y324000D02*
D03*
X1079000Y360000D02*
D03*
Y330000D02*
D03*
X1039000Y181000D02*
D03*
X1119000Y517000D02*
D03*
X833001Y412000D02*
D03*
X814478Y144000D02*
D03*
X765000Y125000D02*
D03*
X750000D02*
D03*
X665000Y93000D02*
D03*
X180000Y134000D02*
D03*
X1005000Y85000D02*
D03*
Y115000D02*
D03*
Y100000D02*
D03*
X921000Y125000D02*
D03*
X181000Y535000D02*
D03*
X935000Y530000D02*
D03*
X617000Y30000D02*
D03*
X360000Y539000D02*
D03*
X330000D02*
D03*
X360000Y121000D02*
D03*
X390000D02*
D03*
X121000Y330000D02*
D03*
Y300000D02*
D03*
X304100Y227000D02*
D03*
X344000Y333000D02*
D03*
X163000Y128000D02*
D03*
X211000Y612000D02*
D03*
X153000Y144000D02*
D03*
X560000Y143000D02*
D03*
X1039001Y123000D02*
D03*
X1122749Y49000D02*
D03*
X1113001Y144000D02*
D03*
X158000Y528000D02*
D03*
X640000Y142730D02*
D03*
X657503Y109000D02*
D03*
X581800Y629000D02*
D03*
X635000Y459689D02*
D03*
Y459690D02*
D03*
X1022497Y551000D02*
D03*
X1040000Y517270D02*
D03*
X1016000Y565999D02*
D03*
X153000Y612000D02*
D03*
X79000Y527580D02*
D03*
X162419Y49000D02*
D03*
X80000Y181000D02*
D03*
X79000Y123000D02*
D03*
D40*
X768000Y57000D02*
D03*
X787000Y260000D02*
D03*
X861000Y251000D02*
D03*
X803001Y560751D02*
D03*
X1013000Y225000D02*
D03*
X515000Y434000D02*
D03*
X815000Y405000D02*
D03*
X790000Y577002D02*
D03*
X845001Y560751D02*
D03*
X761000Y561000D02*
D03*
X719000Y561000D02*
D03*
X1088001Y435001D02*
D03*
X997000Y463000D02*
D03*
X994000Y299000D02*
D03*
X907000Y215270D02*
D03*
X583500Y330000D02*
D03*
X634300Y230000D02*
D03*
X431100D02*
D03*
X761300Y330000D02*
D03*
X507300Y230000D02*
D03*
X685100D02*
D03*
X878000Y402500D02*
D03*
X792000Y302860D02*
D03*
X939096Y210999D02*
D03*
X882000Y77000D02*
D03*
X897000D02*
D03*
X867000Y123000D02*
D03*
X897000D02*
D03*
X867000Y77000D02*
D03*
X912000D02*
D03*
X852000D02*
D03*
X882000Y123000D02*
D03*
X792000Y57000D02*
D03*
X807000D02*
D03*
X889001Y215270D02*
D03*
X938000Y634000D02*
D03*
X100000Y445000D02*
D03*
X330000Y216000D02*
D03*
X379919Y333000D02*
D03*
X909000Y530000D02*
D03*
X901000Y292500D02*
D03*
X878000Y295000D02*
D03*
X989000Y407500D02*
D03*
X99000Y215000D02*
D03*
X648320Y211000D02*
D03*
X1089000Y210000D02*
D03*
D41*
X769000Y14250D02*
D03*
X841000D02*
D03*
D42*
X780750Y44250D02*
D03*
X829250D02*
D03*
M02*
