M48
;Layer_Color=9474304
;FILE_FORMAT=4:4
METRIC,LZ
;TYPE=PLATED
T1F00S00C0.3000
T2F00S00C0.5500
T3F00S00C0.8000
T5F00S00C2.5000
T6F00S00C3.5000
;TYPE=NON_PLATED
T7F00S00C0.8000
T8F00S00C0.8800
T9F00S00C1.4000
T10F00S00C1.5000
T11F00S00C1.7000
%
T01
X00079Y00123
X00163Y00128
X0018Y00134
X00153Y00144
X00162419Y00049
X0036Y00121
X0039
X00512Y0001
X00566Y0003
X00617
X00665Y00093
X00657503Y00109
X0064Y0014273
X0056Y00143
X0054547Y00108
X0075Y00125
X00765
X00814478Y00144
X00867Y00123
X00882
X00897
X00921Y00125
X00912Y00077
X00897
X00882
X00867
X00852
X00807Y00057
X00792
X00768
X01005Y00085
Y001
Y00115
X01039001Y00123
X01122Y00128
X01125Y00136
X01113001Y00144
X01122749Y00049
X01089Y0021
X01039Y00181
X01013Y00225
Y00253001
X00969Y0025714
X00994Y00299
X0106Y00324
X01079Y0033
Y0036
X0106825Y00368
X01088001Y00435001
X01123Y00442
X01119Y00517
X0104Y0051727
X00997Y00463
X01014Y0044492
X01025Y0042
X00989Y004075
X0106Y00262
X00913Y00244
X00899Y0025381
X00879Y00243
X00861Y00251
X00865Y00216994
X00889001Y0021527
X00907
X00939096Y00210999
X0091Y00157
X00901Y002925
X00878Y00295
X0081514Y00321
X0078844Y0033
X007613Y0033
X00792Y0030286
X00787Y0026
X006851Y0023
X006343
X0064832Y00211
X0056Y00158
X005835Y0033
X00635Y00459689
Y0045969
X00639Y00517
X00691Y00525
X00705
X00719
X00733
X00747
X00761
X00775
X00789
X00789Y00514
X00865Y00515
Y00525
X00855Y00537
X00909Y0053
X00915Y00518
X0093
X00935Y0053
X00878Y004025
X00833001Y00412
X00815Y00405
X00832Y00347
X00561899Y0049
X00509Y0049
X00515Y0046
Y00434
X00488Y0039
X00444Y00434
X00406Y00412
X00375927Y00417919
X00315846Y00394
X00286Y004
X00256Y00406
X00153Y00414
Y00369
Y00336
X00169Y0047
X00158Y00528
X00181Y00535
X0033Y00539
X0036
X00366Y00507
X004
X00444
X00379919Y00333
X00344
X0033Y00216
X003041Y00227
X0032Y00153
X00354
X00276
X004311Y0023
X005073
X00099Y00215
X0008Y00181
X00121Y003
Y0033
X001Y00445
X00079Y0052758
X00153Y00612
X00211
X00515Y00554
X00532Y00566
X005818Y00629
X00634Y0063
X00688Y0065
X00775014Y0063405
X0079Y00577002
X00803001Y00560751
X00817001Y00561
X00831001Y00561
X00845001Y00560751
X008305Y00577002
X0075
X00761Y00561
X00719Y00561
X00678Y0055
X00655Y00552
X008836Y00612
X009217
X00938Y00634
X01062001Y00635
X01105Y00626
X0116808Y0065
X01133Y00551
X01022497
X01016Y00565999
T02
X0078075Y0004425
X0082925
T03
X0066Y00460001
X006597Y0049
X0066Y0052
X0053Y00520128
Y0049
Y0046
X00491Y00460001
Y0049
Y0052
X00405846Y00434919
X00375846
X00345846Y00434878
X00315846Y00434919
X00285849
X00255927
X00735362Y00595986
Y00633936
X00845362Y00633736
Y00595986
T05
X0081Y0028
Y0051
X0023Y0051
X0023Y0028
T06
X0003Y0003
X0117
Y0053
X0003Y0063
T07
X00909Y00633
T08
X0009367Y0012359
X0014009Y0012765
X0016242Y001133
Y000667
X0022Y000718
Y001082
X0049596Y0005951
X0051192Y0002679
X005659Y0004745
X0054547Y0008933
X005767Y0014273
X006233
X006539Y0008175
X0062784Y0004311
X0069878Y0004532
X0067843Y0001515
X0105367Y0012359
X0110009Y0012765
X0112242Y001133
Y000667
X0118Y000718
Y001082
X0109Y0018456
X0105373Y0018139
X010618Y0045969
X010982
X011033Y0051727
X010567
X006233
X005767
X005818Y0045969
X006182
Y0020031
X005818
X0013Y0018456
X0009373Y0018139
X00101801Y0047
X001382Y00469999
X001433Y0052758
X00096701Y0052758
X0015765Y0054991
X0015359Y0059633
X00211389Y0059627
X00214562Y0056
X0050122Y0061468
X0052157Y0064485
X0057216Y0061689
X005461Y0057825
X0065453Y0057067
X006341Y0061255
X0068808Y0063321
X0070404Y0060049
X0098122Y0061468
X0100157Y0064485
X0105216Y0061689
X010261Y0057825
X0113453Y0057067
X011141Y0061255
X0116808Y0063321
X0118404Y0060049
T09
X0009656Y0010637
X0014596Y0011207
X0014758Y0005818
X0055344Y0006729
X0064295Y0006103
X006Y0014523
X0105656Y0010637
X0110596Y0011207
X0110758Y0005818
X0108Y0051477
X006
X0008818Y00542422
X0014207Y0054404
X0013637Y0059344
X0055705Y0059897
X0064656Y0059271
X0103705Y0059897
X0112656Y0059271
T10
X0012Y0009
X0108
X0012Y0057
T11
X0058731Y0006062
X0057895Y0011541
X0062806Y0009733
X0062105Y0054459
X0061269Y0059938
X0057194Y0056267
X0105194
X0110105Y0054459
X0109269Y0059938
M30
