G04*
G04 #@! TF.GenerationSoftware,Altium Limited,Altium Designer,19.0.10 (269)*
G04*
G04 Layer_Physical_Order=1*
G04 Layer_Color=255*
%FSLAX44Y44*%
%MOMM*%
G71*
G01*
G75*
%ADD14C,0.2000*%
%ADD15C,0.2000*%
%ADD16C,1.7000*%
%ADD17C,1.4000*%
%ADD19C,1.5000*%
%ADD20C,0.8000*%
%ADD21O,1.2000X2.0000*%
%ADD22C,1.0160*%
%ADD23C,2.5000*%
%ADD24C,3.0000*%
%ADD25C,0.2500*%
%ADD26C,0.5000*%
%ADD27C,0.6000*%
%ADD28C,0.8800*%
%ADD29O,1.8000X1.4000*%
%ADD30C,0.6000*%
D14*
X625200Y200310D02*
G03*
X625200Y200310I-7000J0D01*
G01*
X552470Y89330D02*
G03*
X552470Y89330I-7000J0D01*
G01*
X502960Y59510D02*
G03*
X502960Y59510I-7000J0D01*
G01*
X518920Y26790D02*
G03*
X518920Y26790I-7000J0D01*
G01*
X572900Y47450D02*
G03*
X572900Y47450I-7000J0D01*
G01*
X634840Y43110D02*
G03*
X634840Y43110I-7000J0D01*
G01*
X660900Y81750D02*
G03*
X660900Y81750I-7000J0D01*
G01*
X685430Y15150D02*
G03*
X685430Y15150I-7000J0D01*
G01*
X705780Y45320D02*
G03*
X705780Y45320I-7000J0D01*
G01*
X630300Y142730D02*
G03*
X630300Y142730I-7000J0D01*
G01*
X583700D02*
G03*
X583700Y142730I-7000J0D01*
G01*
X588800Y200310D02*
G03*
X588800Y200310I-7000J0D01*
G01*
X1097000Y184560D02*
G03*
X1097000Y184560I-7000J0D01*
G01*
X1060730Y181390D02*
G03*
X1060730Y181390I-7000J0D01*
G01*
X1060670Y123590D02*
G03*
X1060670Y123590I-7000J0D01*
G01*
X1129420Y113300D02*
G03*
X1129420Y113300I-7000J0D01*
G01*
X1187000Y108200D02*
G03*
X1187000Y108200I-7000J0D01*
G01*
Y71800D02*
G03*
X1187000Y71800I-7000J0D01*
G01*
X1129420Y66700D02*
G03*
X1129420Y66700I-7000J0D01*
G01*
X1107090Y127650D02*
G03*
X1107090Y127650I-7000J0D01*
G01*
X1068800Y459690D02*
G03*
X1068800Y459690I-7000J0D01*
G01*
X1141530Y570670D02*
G03*
X1141530Y570670I-7000J0D01*
G01*
X1191040Y600490D02*
G03*
X1191040Y600490I-7000J0D01*
G01*
X1175080Y633210D02*
G03*
X1175080Y633210I-7000J0D01*
G01*
X1121100Y612550D02*
G03*
X1121100Y612550I-7000J0D01*
G01*
X1059160Y616890D02*
G03*
X1059160Y616890I-7000J0D01*
G01*
X1008570Y644850D02*
G03*
X1008570Y644850I-7000J0D01*
G01*
X988220Y614680D02*
G03*
X988220Y614680I-7000J0D01*
G01*
X1063700Y517270D02*
G03*
X1063700Y517270I-7000J0D01*
G01*
X1033100Y578250D02*
G03*
X1033100Y578250I-7000J0D01*
G01*
X1110300Y517270D02*
G03*
X1110300Y517270I-7000J0D01*
G01*
X1105200Y459690D02*
G03*
X1105200Y459690I-7000J0D01*
G01*
X588800D02*
G03*
X588800Y459690I-7000J0D01*
G01*
X661530Y570670D02*
G03*
X661530Y570670I-7000J0D01*
G01*
X711040Y600490D02*
G03*
X711040Y600490I-7000J0D01*
G01*
X695080Y633210D02*
G03*
X695080Y633210I-7000J0D01*
G01*
X641100Y612550D02*
G03*
X641100Y612550I-7000J0D01*
G01*
X579160Y616890D02*
G03*
X579160Y616890I-7000J0D01*
G01*
X528570Y644850D02*
G03*
X528570Y644850I-7000J0D01*
G01*
X508220Y614680D02*
G03*
X508220Y614680I-7000J0D01*
G01*
X583700Y517270D02*
G03*
X583700Y517270I-7000J0D01*
G01*
X553100Y578250D02*
G03*
X553100Y578250I-7000J0D01*
G01*
X625200Y459690D02*
G03*
X625200Y459690I-7000J0D01*
G01*
X630300Y517270D02*
G03*
X630300Y517270I-7000J0D01*
G01*
X137000Y184560D02*
G03*
X137000Y184560I-7000J0D01*
G01*
X100670Y123590D02*
G03*
X100670Y123590I-7000J0D01*
G01*
X169420Y113300D02*
G03*
X169420Y113300I-7000J0D01*
G01*
X227000Y71800D02*
G03*
X227000Y71800I-7000J0D01*
G01*
X100730Y181390D02*
G03*
X100730Y181390I-7000J0D01*
G01*
X227000Y108200D02*
G03*
X227000Y108200I-7000J0D01*
G01*
X147090Y127650D02*
G03*
X147090Y127650I-7000J0D01*
G01*
X169420Y66700D02*
G03*
X169420Y66700I-7000J0D01*
G01*
X221562Y560000D02*
G03*
X221562Y560000I-7000J0D01*
G01*
X108801Y470000D02*
G03*
X108801Y470000I-7000J0D01*
G01*
X145200Y469999D02*
G03*
X145200Y469999I-7000J0D01*
G01*
X103701Y527580D02*
G03*
X103701Y527580I-7000J0D01*
G01*
X150300Y527580D02*
G03*
X150300Y527580I-7000J0D01*
G01*
X164650Y549910D02*
G03*
X164650Y549910I-7000J0D01*
G01*
X160590Y596330D02*
G03*
X160590Y596330I-7000J0D01*
G01*
X218389Y596270D02*
G03*
X218389Y596270I-7000J0D01*
G01*
X762500Y-250D02*
X767500D01*
X842500D02*
X847750D01*
X0Y0D02*
Y660000D01*
X1200000D01*
X1200000Y0D01*
X0D02*
X1200000D01*
D15*
X611200Y200310D02*
D03*
X574800D02*
D03*
X569700Y142730D02*
D03*
X616300D02*
D03*
X538470Y89330D02*
D03*
X488960Y59510D02*
D03*
X504920Y26790D02*
D03*
X558900Y47450D02*
D03*
X620840Y43110D02*
D03*
X646900Y81750D02*
D03*
X671430Y15150D02*
D03*
X691780Y45320D02*
D03*
X1090000Y177560D02*
D03*
X1053730Y174390D02*
D03*
X1100090Y120650D02*
D03*
X1053670Y116590D02*
D03*
X1122420Y106300D02*
D03*
X1180000Y101200D02*
D03*
Y64800D02*
D03*
X1122420Y59700D02*
D03*
X1068800Y459690D02*
D03*
X1105200D02*
D03*
X1110300Y517270D02*
D03*
X1063700D02*
D03*
X1141530Y570670D02*
D03*
X1191040Y600490D02*
D03*
X1175080Y633210D02*
D03*
X1121100Y612550D02*
D03*
X1059160Y616890D02*
D03*
X1033100Y578250D02*
D03*
X1008570Y644850D02*
D03*
X988220Y614680D02*
D03*
X588800Y459690D02*
D03*
X625200D02*
D03*
X630300Y517270D02*
D03*
X583700D02*
D03*
X661530Y570670D02*
D03*
X711040Y600490D02*
D03*
X695080Y633210D02*
D03*
X641100Y612550D02*
D03*
X579160Y616890D02*
D03*
X553100Y578250D02*
D03*
X528570Y644850D02*
D03*
X508220Y614680D02*
D03*
X130000Y177560D02*
D03*
X93730Y174390D02*
D03*
X140090Y120650D02*
D03*
X93670Y116590D02*
D03*
X162420Y106300D02*
D03*
X220000Y101200D02*
D03*
Y64800D02*
D03*
X162420Y59700D02*
D03*
X207561Y560001D02*
D03*
X204390Y596270D02*
D03*
X150650Y549909D02*
D03*
X146590Y596330D02*
D03*
X136299Y527579D02*
D03*
X131200Y470001D02*
D03*
X94800Y470000D02*
D03*
X89700Y527580D02*
D03*
D16*
X587310Y60620D02*
D03*
X628060Y97330D02*
D03*
X578950Y115410D02*
D03*
X1092690Y599380D02*
D03*
X1051940Y562670D02*
D03*
X1101050Y544590D02*
D03*
X612690Y599380D02*
D03*
X571940Y562670D02*
D03*
X621050Y544590D02*
D03*
D17*
X600000Y145230D02*
D03*
X553440Y67290D02*
D03*
X642950Y61030D02*
D03*
X1056560Y106370D02*
D03*
X1107580Y58180D02*
D03*
X1105960Y112070D02*
D03*
X1080000Y514770D02*
D03*
X1126560Y592710D02*
D03*
X1037050Y598970D02*
D03*
X600000Y514770D02*
D03*
X646560Y592710D02*
D03*
X557050Y598970D02*
D03*
X96560Y106370D02*
D03*
X147580Y58180D02*
D03*
X145960Y112070D02*
D03*
X136370Y593440D02*
D03*
X88180Y542422D02*
D03*
X142070Y544040D02*
D03*
D19*
X1080000Y90000D02*
D03*
X120000D02*
D03*
Y570000D02*
D03*
D20*
X909000Y633000D02*
D03*
D21*
X769000Y14250D02*
D03*
X841000D02*
D03*
D22*
X780750Y44250D02*
D03*
X829250D02*
D03*
D23*
X810000Y510000D02*
D03*
X230000Y510000D02*
D03*
X810000Y280000D02*
D03*
X230000D02*
D03*
D24*
X1170000Y30000D02*
D03*
Y530000D02*
D03*
X30000Y30000D02*
D03*
Y630000D02*
D03*
D25*
X1123000Y442000D02*
Y449100D01*
X1112100Y460000D02*
X1123000Y449100D01*
X1105660Y460000D02*
X1112100D01*
X444000Y434000D02*
X488000Y390000D01*
X491000Y460001D02*
X495000D01*
X495001Y460000D01*
X515000D01*
X491000Y490000D02*
X509000D01*
X501220Y567780D02*
Y607000D01*
Y567780D02*
X515000Y554000D01*
X546100Y568000D02*
Y570002D01*
X544100Y566000D02*
X546100Y568000D01*
X532000Y566000D02*
X544100D01*
X532000D02*
X532000Y566000D01*
X285924Y400075D02*
X286000Y400000D01*
X285924Y400075D02*
Y434843D01*
X285849Y434918D02*
X285924Y434843D01*
X561900Y490000D02*
Y514771D01*
X564399Y517270D01*
X569000D01*
X530000Y490000D02*
X561900D01*
X256000Y406000D02*
Y434845D01*
X405846Y412154D02*
X406000Y412000D01*
X375846Y418000D02*
X375927Y417919D01*
X315846Y394000D02*
Y434918D01*
X255927Y434918D02*
X256000Y434845D01*
X405846Y412154D02*
Y434919D01*
X1180000Y115410D02*
Y120161D01*
X1164161Y136000D02*
X1180000Y120161D01*
X1125000Y136000D02*
X1164161D01*
X1122000Y121272D02*
Y128000D01*
X145410Y470000D02*
X169000D01*
X169000Y470000D01*
X565900Y30000D02*
Y40000D01*
X511920Y10000D02*
Y19000D01*
X144997Y144000D02*
X153000D01*
X153000Y144000D01*
X140090Y139093D02*
X144997Y144000D01*
X140090Y135000D02*
Y139093D01*
X788440Y330000D02*
X805440Y347000D01*
X832000D01*
X660000Y532000D02*
X678000Y550000D01*
X660000Y520000D02*
Y532000D01*
X688000Y641000D02*
Y650000D01*
X1168080Y640360D02*
Y650000D01*
X1056000Y635000D02*
X1062001D01*
X1052160Y631160D02*
X1056000Y635000D01*
X1052160Y625000D02*
Y631160D01*
X981220Y592277D02*
Y607000D01*
X630720Y517000D02*
X639000D01*
X630450Y517270D02*
X630720Y517000D01*
X634100Y620000D02*
Y629900D01*
X634000Y630000D02*
X634100Y629900D01*
X655000Y552000D02*
Y562670D01*
X698780Y53000D02*
Y67723D01*
X545470Y97000D02*
Y108000D01*
X1133000Y551000D02*
Y558470D01*
X1135000Y560470D02*
Y562670D01*
X1133000Y558470D02*
X1135000Y560470D01*
X1105350Y459690D02*
X1105660Y460000D01*
X1114100Y620000D02*
Y622049D01*
X1110149Y626000D02*
X1114100Y622049D01*
X1105000Y626000D02*
X1110149D01*
X1105000Y625000D02*
Y625200D01*
Y625000D02*
X1105200Y624800D01*
X1105000Y625200D02*
Y626000D01*
Y625200D02*
X1105200Y625000D01*
X571311Y200310D02*
X574034D01*
X560000Y189000D02*
X571311Y200310D01*
X560000Y158000D02*
Y189000D01*
X1039000Y181000D02*
X1045999D01*
X1046000Y181001D01*
X1022051Y572050D02*
Y572188D01*
X1016000Y565999D02*
X1022051Y572050D01*
X1110720Y517000D02*
X1119000D01*
X1110450Y517270D02*
X1110720Y517000D01*
X665000Y93000D02*
X665000D01*
X664000Y94000D02*
X665000Y93000D01*
X659000Y87000D02*
X665000Y93000D01*
X180000Y134000D02*
X209343D01*
X163000Y535000D02*
X181000D01*
X635000Y448000D02*
Y459689D01*
X629000Y442000D02*
X635000Y448000D01*
X567000Y442000D02*
X629000D01*
X549000Y460000D02*
X567000Y442000D01*
X530000Y460000D02*
X549000D01*
X617000Y30700D02*
X623300Y37000D01*
X617000Y30000D02*
Y30700D01*
X625350Y459689D02*
X635000D01*
X625350Y459690D02*
X625350Y459689D01*
X163000Y120850D02*
Y128000D01*
X375846Y418000D02*
Y434919D01*
X211000Y604037D02*
Y612000D01*
X153000Y604053D02*
Y612000D01*
X157650Y540350D02*
Y542304D01*
X150450Y527580D02*
X157580D01*
X158000Y528000D01*
X560000Y143000D02*
X569280D01*
X79125Y527580D02*
X89000D01*
X162420Y49125D02*
Y59000D01*
X209343Y134000D02*
X220000Y123343D01*
Y115410D02*
Y123343D01*
X1107420Y127650D02*
X1109898D01*
X1113001Y130752D01*
X1122750Y49125D02*
Y59000D01*
X1113001Y130752D02*
Y144000D01*
X1039001Y123000D02*
X1046001D01*
X1122749Y49000D02*
Y49125D01*
X1122750Y49125D01*
X157650Y540350D02*
X163000Y535000D01*
X631000Y142731D02*
X639999D01*
X640000Y142730D01*
X657503Y109000D02*
X698780Y67723D01*
X576000Y623000D02*
X581800Y628800D01*
Y629000D01*
X981220Y592277D02*
X1022497Y551000D01*
X1040000Y517270D02*
X1040001Y517270D01*
X1049000D01*
X1016000Y565999D02*
Y566000D01*
X79000Y527580D02*
X79125D01*
X79125Y527580D01*
X162419Y49125D02*
X162420Y49125D01*
X162419Y49000D02*
Y49125D01*
X80000Y181000D02*
X86000D01*
X79000Y123000D02*
X86000D01*
D26*
X390000Y530000D02*
X408000Y512000D01*
X339000Y530000D02*
X390000D01*
X330000Y539000D02*
X339000Y530000D01*
X392000Y539000D02*
X416000Y515000D01*
X360000Y539000D02*
X392000D01*
X668854Y397116D02*
X704000Y432262D01*
X495884Y397116D02*
X668854D01*
X400000Y493000D02*
X495884Y397116D01*
X666024Y405244D02*
X696000Y435220D01*
X499756Y405244D02*
X666024D01*
X408000Y497000D02*
X499756Y405244D01*
X663480Y414000D02*
X688000Y438520D01*
X503000Y414000D02*
X663480D01*
X416000Y501000D02*
X503000Y414000D01*
X400000Y493000D02*
Y507000D01*
X408000Y497000D02*
Y512000D01*
X416000Y501000D02*
Y515000D01*
X831001Y544919D02*
Y561000D01*
Y544919D02*
X851500Y524420D01*
X1085000Y392000D02*
X1115000Y362000D01*
X1036500Y392000D02*
X1085000D01*
X1081000Y384000D02*
X1105960Y359040D01*
X1031000Y384000D02*
X1081000D01*
X921700Y612000D02*
X987000Y546700D01*
Y458000D02*
Y546700D01*
Y458000D02*
X1025000Y420000D01*
X910000Y157000D02*
Y157000D01*
X842650Y224350D02*
X910000Y157000D01*
X1115000Y288000D02*
Y362000D01*
X1105960Y293260D02*
Y359040D01*
X923000Y414000D02*
Y457000D01*
X865000Y515000D02*
X923000Y457000D01*
X931750Y418750D02*
Y463250D01*
X870000Y525000D02*
X931750Y463250D01*
X865000Y525000D02*
X870000D01*
X817001Y543918D02*
X842650Y518269D01*
X817001Y543918D02*
Y561000D01*
X842650Y224350D02*
Y518269D01*
X851500Y230494D02*
Y524420D01*
X855000Y537000D02*
X871000D01*
X942000Y422000D02*
Y466000D01*
X871000Y537000D02*
X942000Y466000D01*
X851500Y230494D02*
X865000Y216994D01*
X1062000Y235000D02*
X1115000Y288000D01*
X907430Y235000D02*
X1062000D01*
X1056700Y244000D02*
X1105960Y293260D01*
X913000Y244000D02*
X1056700D01*
X996000Y368000D02*
X1068250D01*
X942000Y422000D02*
X996000Y368000D01*
X899000Y243430D02*
X907430Y235000D01*
X899000Y243430D02*
Y253810D01*
X968000Y447000D02*
X1031000Y384000D01*
X977500Y451000D02*
X1036500Y392000D01*
X985000Y352000D02*
X1057000D01*
X923000Y414000D02*
X985000Y352000D01*
X990500Y360000D02*
X1079000D01*
X931750Y418750D02*
X990500Y360000D01*
X968000Y447000D02*
Y527600D01*
X977500Y451000D02*
Y533500D01*
X883600Y612000D02*
X968000Y527600D01*
X861000Y650000D02*
X977500Y533500D01*
X146000Y385000D02*
X181381D01*
X121000Y360000D02*
X146000Y385000D01*
X121000Y330000D02*
Y360000D01*
X149000Y377000D02*
X178081D01*
X130000Y358000D02*
X149000Y377000D01*
X130000Y309000D02*
Y358000D01*
X327997Y121000D02*
X360000D01*
X279000Y169997D02*
X327997Y121000D01*
X279000Y169997D02*
Y306000D01*
X331012Y129987D02*
X381012D01*
X287000Y174000D02*
X331012Y129987D01*
X287000Y174000D02*
Y303078D01*
X381012Y129987D02*
X390000Y121000D01*
X295000Y178000D02*
X320000Y153000D01*
X295000Y178000D02*
Y300000D01*
X121000Y300000D02*
X130000Y309000D01*
X181381Y385000D02*
X185380Y381000D01*
X178081Y377000D02*
X182080Y373000D01*
X153000Y369000D02*
X175077D01*
X179077Y365000D01*
X1057000Y352000D02*
X1079000Y330000D01*
X752000Y477000D02*
X789000Y514000D01*
X752000Y413911D02*
Y477000D01*
X790964Y650000D02*
X861000D01*
X775014Y634050D02*
X790964Y650000D01*
X927000Y521000D02*
X930000Y518000D01*
X915000D02*
X918000Y521000D01*
X927000D02*
Y554098D01*
X847362Y633736D02*
X927000Y554098D01*
X845362Y633736D02*
X847362D01*
X918000Y521000D02*
Y543588D01*
X865602Y595986D02*
X918000Y543588D01*
X845362Y595986D02*
X865602D01*
X679089Y341000D02*
X752000Y413911D01*
X744000Y480000D02*
X789000Y525000D01*
X744000Y416948D02*
Y480000D01*
X676052Y349000D02*
X744000Y416948D01*
X736000Y486000D02*
X775000Y525000D01*
X736000Y420262D02*
Y486000D01*
X672738Y357000D02*
X736000Y420262D01*
X728000Y492000D02*
X761000Y525000D01*
X728000Y423262D02*
Y492000D01*
X669738Y365000D02*
X728000Y423262D01*
X720000Y498000D02*
X747000Y525000D01*
X720000Y426262D02*
Y498000D01*
X666738Y373000D02*
X720000Y426262D01*
X712000Y504000D02*
X733000Y525000D01*
X712000Y429262D02*
Y504000D01*
X663738Y381000D02*
X712000Y429262D01*
X704000Y510000D02*
X719000Y525000D01*
X704000Y432262D02*
Y510000D01*
X696000Y516000D02*
X705000Y525000D01*
X696000Y435220D02*
Y516000D01*
X688000Y522000D02*
X691000Y525000D01*
X688000Y438520D02*
Y522000D01*
X179077Y365000D02*
X669738D01*
X182080Y373000D02*
X666738D01*
X185380Y381000D02*
X663738D01*
X330000Y357000D02*
X672738D01*
X279000Y306000D02*
X330000Y357000D01*
X332922Y349000D02*
X676052D01*
X287000Y303078D02*
X332922Y349000D01*
X336000Y341000D02*
X679089D01*
X295000Y300000D02*
X336000Y341000D01*
D27*
X660000Y424000D02*
X680000Y444000D01*
X506016Y424000D02*
X660000D01*
X444000Y486016D02*
X506016Y424000D01*
X444000Y486016D02*
Y507000D01*
X757000Y135750D02*
X910250D01*
X745000Y147750D02*
X757000Y135750D01*
X910250D02*
X921000Y125000D01*
X750096Y125096D02*
X765096D01*
X730000Y145191D02*
X750096Y125096D01*
X680910Y271640D02*
X730000Y222550D01*
Y145191D02*
Y222550D01*
X684596Y288404D02*
X745000Y228000D01*
Y147750D02*
Y228000D01*
X348740Y271640D02*
X680910D01*
X388596Y288404D02*
X684596Y288404D01*
X344000Y333000D02*
X388596Y288404D01*
X304100Y227000D02*
X348740Y271640D01*
X830500Y569000D02*
X850500D01*
X830500D02*
Y577002D01*
X714000Y569000D02*
X830500D01*
X680000Y535000D02*
X714000Y569000D01*
X1077000Y376000D02*
X1095000Y358000D01*
X1003000Y376000D02*
X1077000D01*
X1095000Y297000D02*
Y358000D01*
X1060000Y262000D02*
X1095000Y297000D01*
X680000Y444000D02*
Y535000D01*
X953750Y425250D02*
X1003000Y376000D01*
X953750Y425250D02*
Y465750D01*
X241000Y153000D02*
X276000D01*
X110000Y284000D02*
X241000Y153000D01*
X110000Y284000D02*
Y371000D01*
X321100Y550000D02*
X401000D01*
X185100Y414000D02*
X321100Y550000D01*
X153000Y414000D02*
X185100D01*
X401000Y550000D02*
X444000Y507000D01*
X110000Y371000D02*
X153000Y414000D01*
X850500Y569000D02*
X953750Y465750D01*
D28*
X618200Y200310D02*
D03*
X581800D02*
D03*
X576700Y142730D02*
D03*
X623300D02*
D03*
X545470Y89330D02*
D03*
X495960Y59510D02*
D03*
X511920Y26790D02*
D03*
X565900Y47450D02*
D03*
X627840Y43110D02*
D03*
X653900Y81750D02*
D03*
X678430Y15150D02*
D03*
X698780Y45320D02*
D03*
X1090000Y184560D02*
D03*
X1053730Y181390D02*
D03*
X1100090Y127650D02*
D03*
X1053670Y123590D02*
D03*
X1122420Y113300D02*
D03*
X1180000Y108200D02*
D03*
Y71800D02*
D03*
X1122420Y66700D02*
D03*
X1061800Y459690D02*
D03*
X1098200D02*
D03*
X1103300Y517270D02*
D03*
X1056700D02*
D03*
X1134530Y570670D02*
D03*
X1184040Y600490D02*
D03*
X1168080Y633210D02*
D03*
X1114100Y612550D02*
D03*
X1052160Y616890D02*
D03*
X1026100Y578250D02*
D03*
X1001570Y644850D02*
D03*
X981220Y614680D02*
D03*
X581800Y459690D02*
D03*
X618200D02*
D03*
X623300Y517270D02*
D03*
X576700D02*
D03*
X654530Y570670D02*
D03*
X704040Y600490D02*
D03*
X688080Y633210D02*
D03*
X634100Y612550D02*
D03*
X572160Y616890D02*
D03*
X546100Y578250D02*
D03*
X521570Y644850D02*
D03*
X501220Y614680D02*
D03*
X130000Y184560D02*
D03*
X93730Y181390D02*
D03*
X140090Y127650D02*
D03*
X93670Y123590D02*
D03*
X162420Y113300D02*
D03*
X220000Y108200D02*
D03*
Y71800D02*
D03*
X162420Y66700D02*
D03*
X214562Y560000D02*
D03*
X211389Y596270D02*
D03*
X157650Y549910D02*
D03*
X153590Y596330D02*
D03*
X143300Y527580D02*
D03*
X138200Y469999D02*
D03*
X101801Y470000D02*
D03*
X96701Y527580D02*
D03*
D29*
X735362Y595986D02*
D03*
Y633936D02*
D03*
X845362Y633736D02*
D03*
X660000Y520000D02*
D03*
Y460001D02*
D03*
X659700Y490000D02*
D03*
X530000Y460000D02*
D03*
Y490000D02*
D03*
Y520128D02*
D03*
X491000Y460001D02*
D03*
Y490000D02*
D03*
Y520000D02*
D03*
X375846Y434919D02*
D03*
X405846D02*
D03*
X345846Y434878D02*
D03*
X285849Y434919D02*
D03*
X315846D02*
D03*
X255927D02*
D03*
X845362Y595986D02*
D03*
D30*
X768000Y57000D02*
D03*
X488000Y390000D02*
D03*
X509000Y490000D02*
D03*
X515000Y554000D02*
D03*
Y460000D02*
D03*
X532000Y566000D02*
D03*
X561899Y490000D02*
D03*
X315846Y394000D02*
D03*
X256000Y406000D02*
D03*
X406000Y412000D02*
D03*
X375927Y417919D02*
D03*
X286000Y400000D02*
D03*
X1122000Y128000D02*
D03*
X1125000Y136000D02*
D03*
X831001Y561000D02*
D03*
X169000Y470000D02*
D03*
X566000Y30000D02*
D03*
X512000Y10000D02*
D03*
X444000Y434000D02*
D03*
X1068250Y368000D02*
D03*
X788440Y330000D02*
D03*
X787000Y260000D02*
D03*
X861000Y251000D02*
D03*
X910000Y157000D02*
D03*
X832000Y347000D02*
D03*
X879000Y243000D02*
D03*
X815140Y321000D02*
D03*
X865000Y515000D02*
D03*
Y525000D02*
D03*
X855000Y537000D02*
D03*
X1060000Y262000D02*
D03*
X678000Y550000D02*
D03*
X688000Y650000D02*
D03*
X865000Y216994D02*
D03*
X803001Y560751D02*
D03*
X817001Y561000D02*
D03*
X1013000Y253001D02*
D03*
Y225000D02*
D03*
X969000Y257140D02*
D03*
X515000Y434000D02*
D03*
X1168080Y650000D02*
D03*
X1062001Y635000D02*
D03*
X639000Y517000D02*
D03*
X634000Y630000D02*
D03*
X655000Y552000D02*
D03*
X1025000Y420000D02*
D03*
X400000Y507000D02*
D03*
X444000D02*
D03*
X153000Y414000D02*
D03*
Y336000D02*
D03*
X354000Y153000D02*
D03*
X276000D02*
D03*
X320000D02*
D03*
X366000Y507000D02*
D03*
X153000Y369000D02*
D03*
X545470Y108000D02*
D03*
X1133000Y551000D02*
D03*
X1123000Y442000D02*
D03*
X815000Y405000D02*
D03*
X789000Y514000D02*
D03*
X1105000Y626000D02*
D03*
X913000Y244000D02*
D03*
X1014000Y444920D02*
D03*
X899000Y253810D02*
D03*
X921700Y612000D02*
D03*
X775014Y634050D02*
D03*
X883600Y612000D02*
D03*
X915000Y518000D02*
D03*
X930000D02*
D03*
X750000Y577002D02*
D03*
X790000D02*
D03*
X830500D02*
D03*
X789000Y525000D02*
D03*
X775000D02*
D03*
X761000D02*
D03*
X747000D02*
D03*
X733000D02*
D03*
X719000D02*
D03*
X705000D02*
D03*
X691000D02*
D03*
X845001Y560751D02*
D03*
X761000Y561000D02*
D03*
X719000Y561000D02*
D03*
X560000Y158000D02*
D03*
X1088001Y435001D02*
D03*
X1060000Y324000D02*
D03*
X1079000Y360000D02*
D03*
Y330000D02*
D03*
X1039000Y181000D02*
D03*
X1119000Y517000D02*
D03*
X997000Y463000D02*
D03*
X994000Y299000D02*
D03*
X907000Y215270D02*
D03*
X583500Y330000D02*
D03*
X634300Y230000D02*
D03*
X431100D02*
D03*
X761300Y330000D02*
D03*
X507300Y230000D02*
D03*
X685100D02*
D03*
X833001Y412000D02*
D03*
X878000Y402500D02*
D03*
X792000Y302860D02*
D03*
X939096Y210999D02*
D03*
X814478Y144000D02*
D03*
X765000Y125000D02*
D03*
X750000D02*
D03*
X665000Y93000D02*
D03*
X180000Y134000D02*
D03*
X882000Y77000D02*
D03*
X897000D02*
D03*
X867000Y123000D02*
D03*
X897000D02*
D03*
X867000Y77000D02*
D03*
X912000D02*
D03*
X852000D02*
D03*
X882000Y123000D02*
D03*
X1005000Y85000D02*
D03*
Y115000D02*
D03*
Y100000D02*
D03*
X921000Y125000D02*
D03*
X792000Y57000D02*
D03*
X807000D02*
D03*
X889001Y215270D02*
D03*
X181000Y535000D02*
D03*
X938000Y634000D02*
D03*
X935000Y530000D02*
D03*
X100000Y445000D02*
D03*
X617000Y30000D02*
D03*
X360000Y539000D02*
D03*
X330000D02*
D03*
X360000Y121000D02*
D03*
X390000D02*
D03*
X121000Y330000D02*
D03*
Y300000D02*
D03*
X330000Y216000D02*
D03*
X304100Y227000D02*
D03*
X379919Y333000D02*
D03*
X344000D02*
D03*
X163000Y128000D02*
D03*
X211000Y612000D02*
D03*
X153000Y144000D02*
D03*
X560000Y143000D02*
D03*
X909000Y530000D02*
D03*
X901000Y292500D02*
D03*
X878000Y295000D02*
D03*
X989000Y407500D02*
D03*
X99000Y215000D02*
D03*
X648320Y211000D02*
D03*
X1089000Y210000D02*
D03*
X1039001Y123000D02*
D03*
X1122749Y49000D02*
D03*
X1113001Y144000D02*
D03*
X158000Y528000D02*
D03*
X640000Y142730D02*
D03*
X657503Y109000D02*
D03*
X581800Y629000D02*
D03*
X635000Y459689D02*
D03*
Y459690D02*
D03*
X1022497Y551000D02*
D03*
X1040000Y517270D02*
D03*
X1016000Y565999D02*
D03*
X153000Y612000D02*
D03*
X79000Y527580D02*
D03*
X162419Y49000D02*
D03*
X80000Y181000D02*
D03*
X79000Y123000D02*
D03*
M02*
