G04*
G04 #@! TF.GenerationSoftware,Altium Limited,Altium Designer,19.0.10 (269)*
G04*
G04 Layer_Color=8421504*
%FSLAX44Y44*%
%MOMM*%
G71*
G01*
G75*
%ADD14C,0.2000*%
%ADD15C,0.2000*%
D14*
X762500Y-250D02*
X767500D01*
X842500D02*
X847750D01*
X0Y0D02*
Y660000D01*
X1200000D01*
X1200000Y0D01*
X0D02*
X1200000D01*
D15*
X611200Y200310D02*
D03*
X574800D02*
D03*
X569700Y142730D02*
D03*
X616300D02*
D03*
X538470Y89330D02*
D03*
X488960Y59510D02*
D03*
X504920Y26790D02*
D03*
X558900Y47450D02*
D03*
X620840Y43110D02*
D03*
X646900Y81750D02*
D03*
X671430Y15150D02*
D03*
X691780Y45320D02*
D03*
X1090000Y177560D02*
D03*
X1053730Y174390D02*
D03*
X1100090Y120650D02*
D03*
X1053670Y116590D02*
D03*
X1122420Y106300D02*
D03*
X1180000Y101200D02*
D03*
Y64800D02*
D03*
X1122420Y59700D02*
D03*
X1068800Y459690D02*
D03*
X1105200D02*
D03*
X1110300Y517270D02*
D03*
X1063700D02*
D03*
X1141530Y570670D02*
D03*
X1191040Y600490D02*
D03*
X1175080Y633210D02*
D03*
X1121100Y612550D02*
D03*
X1059160Y616890D02*
D03*
X1033100Y578250D02*
D03*
X1008570Y644850D02*
D03*
X988220Y614680D02*
D03*
X588800Y459690D02*
D03*
X625200D02*
D03*
X630300Y517270D02*
D03*
X583700D02*
D03*
X661530Y570670D02*
D03*
X711040Y600490D02*
D03*
X695080Y633210D02*
D03*
X641100Y612550D02*
D03*
X579160Y616890D02*
D03*
X553100Y578250D02*
D03*
X528570Y644850D02*
D03*
X508220Y614680D02*
D03*
X130000Y177560D02*
D03*
X93730Y174390D02*
D03*
X140090Y120650D02*
D03*
X93670Y116590D02*
D03*
X162420Y106300D02*
D03*
X220000Y101200D02*
D03*
Y64800D02*
D03*
X162420Y59700D02*
D03*
X207561Y560001D02*
D03*
X204390Y596270D02*
D03*
X150650Y549909D02*
D03*
X146590Y596330D02*
D03*
X136299Y527579D02*
D03*
X131200Y470001D02*
D03*
X94800Y470000D02*
D03*
X89700Y527580D02*
D03*
M02*
