G04*
G04 #@! TF.GenerationSoftware,Altium Limited,Altium Designer,19.0.10 (269)*
G04*
G04 Layer_Color=65535*
%FSLAX44Y44*%
%MOMM*%
G71*
G01*
G75*
%ADD10C,0.0127*%
%ADD11C,0.1500*%
%ADD12C,0.0508*%
%ADD13C,0.3000*%
%ADD14C,0.2000*%
D10*
X838094Y207972D02*
X840126D01*
X847365D02*
X849397D01*
X837713Y207845D02*
X840380D01*
X847111D02*
X849778D01*
X837459Y207718D02*
X840761D01*
X846857D02*
X850032D01*
X837205Y207591D02*
X840888D01*
X846603D02*
X850286D01*
X837078Y207464D02*
X841142D01*
X846476D02*
X850413D01*
X836951Y207337D02*
X841269D01*
X846222D02*
X850667D01*
X836824Y207210D02*
X841396D01*
X846095D02*
X850794D01*
X836697Y207083D02*
X841523D01*
X845968D02*
X850921D01*
X836570Y206956D02*
X841650D01*
X845841D02*
X851048D01*
X836443Y206829D02*
X838856D01*
X839237D02*
X841777D01*
X845714D02*
X848254D01*
X848635D02*
X851175D01*
X836316Y206702D02*
X838348D01*
X839745D02*
X841904D01*
X845714D02*
X847746D01*
X849143D02*
X851175D01*
X836189Y206575D02*
X838094D01*
X840126D02*
X841904D01*
X845587D02*
X847492D01*
X849397D02*
X851302D01*
X836062Y206448D02*
X837967D01*
X840253D02*
X842031D01*
X845460D02*
X847238D01*
X849651D02*
X851429D01*
X836062Y206321D02*
X837713D01*
X840507D02*
X842031D01*
X845333D02*
X847111D01*
X849778D02*
X851429D01*
X835935Y206194D02*
X837586D01*
X840634D02*
X842158D01*
X845333D02*
X846984D01*
X849905D02*
X851556D01*
X835935Y206067D02*
X837459D01*
X840761D02*
X842158D01*
X845206D02*
X846857D01*
X850032D02*
X851556D01*
X835808Y205940D02*
X837332D01*
X840761D02*
X842285D01*
X845206D02*
X846730D01*
X850159D02*
X851556D01*
X835681Y205813D02*
X837332D01*
X840888D02*
X842285D01*
X845079D02*
X846603D01*
X850286D02*
X851683D01*
X835681Y205686D02*
X837205D01*
X841015D02*
X842285D01*
X844952D02*
X846603D01*
X850286D02*
X851683D01*
X835554Y205559D02*
X837078D01*
X841015D02*
X842412D01*
X844952D02*
X846476D01*
X850413D02*
X851683D01*
X835554Y205432D02*
X837078D01*
X841015D02*
X842412D01*
X844825D02*
X846349D01*
X850413D02*
X851810D01*
X835427Y205305D02*
X836951D01*
X841142D02*
X842412D01*
X844825D02*
X846349D01*
X850413D02*
X851810D01*
X835427Y205178D02*
X836824D01*
X841142D02*
X842412D01*
X844698D02*
X846222D01*
X850540D02*
X851810D01*
X835300Y205051D02*
X836824D01*
X841142D02*
X842412D01*
X844698D02*
X846095D01*
X850540D02*
X851810D01*
X857271D02*
X857652D01*
X863875D02*
X864256D01*
X835300Y204924D02*
X836697D01*
X841142D02*
X842412D01*
X844571D02*
X846095D01*
X850540D02*
X851810D01*
X856763D02*
X858033D01*
X863494D02*
X864637D01*
X835173Y204797D02*
X836697D01*
X841142D02*
X842412D01*
X844571D02*
X845968D01*
X850540D02*
X851810D01*
X856636D02*
X858160D01*
X863367D02*
X864891D01*
X835173Y204670D02*
X836570D01*
X841142D02*
X842412D01*
X844571D02*
X845968D01*
X850540D02*
X851810D01*
X856509D02*
X858287D01*
X863240D02*
X865018D01*
X868447D02*
X868955D01*
X885211D02*
X885719D01*
X835046Y204543D02*
X836570D01*
X841142D02*
X842412D01*
X844444D02*
X845841D01*
X850540D02*
X851810D01*
X856382D02*
X858414D01*
X863113D02*
X865145D01*
X867939D02*
X869336D01*
X874924D02*
X875813D01*
X884703D02*
X886100D01*
X891688D02*
X892577D01*
X897403D02*
X899562D01*
X835046Y204416D02*
X836443D01*
X841142D02*
X842412D01*
X844444D02*
X845841D01*
X850540D02*
X851810D01*
X856255D02*
X858414D01*
X862986D02*
X865145D01*
X867812D02*
X869590D01*
X874670D02*
X876067D01*
X884449D02*
X886354D01*
X891434D02*
X892831D01*
X896895D02*
X900070D01*
X834919Y204289D02*
X836443D01*
X841142D02*
X842412D01*
X844317D02*
X845714D01*
X850540D02*
X851810D01*
X856255D02*
X858541D01*
X862986D02*
X865272D01*
X867558D02*
X869844D01*
X874543D02*
X876321D01*
X884322D02*
X886481D01*
X891307D02*
X892958D01*
X896641D02*
X900451D01*
X726842Y204162D02*
X727604D01*
X740812D02*
X741574D01*
X834919D02*
X836316D01*
X841142D02*
X842412D01*
X844317D02*
X845714D01*
X850540D02*
X851810D01*
X856255D02*
X858541D01*
X862986D02*
X865272D01*
X867431D02*
X869971D01*
X874416D02*
X876321D01*
X884195D02*
X886608D01*
X891180D02*
X893085D01*
X896387D02*
X900705D01*
X721381Y204035D02*
X727731D01*
X735351D02*
X741701D01*
X834919D02*
X836316D01*
X841142D02*
X842412D01*
X844190D02*
X845587D01*
X850413D02*
X851810D01*
X856255D02*
X858668D01*
X862859D02*
X865272D01*
X867304D02*
X869971D01*
X874416D02*
X876448D01*
X884068D02*
X886735D01*
X891053D02*
X893212D01*
X896133D02*
X900832D01*
X721254Y203908D02*
X727731D01*
X735351D02*
X741701D01*
X834792D02*
X836189D01*
X841015D02*
X842412D01*
X844190D02*
X845587D01*
X850413D02*
X851810D01*
X856255D02*
X858668D01*
X862859D02*
X865272D01*
X867304D02*
X870098D01*
X874289D02*
X876575D01*
X883941D02*
X886862D01*
X891053D02*
X893212D01*
X896006D02*
X901086D01*
X721127Y203781D02*
X727731D01*
X735351D02*
X741701D01*
X834792D02*
X836189D01*
X841015D02*
X842412D01*
X844063D02*
X845587D01*
X850413D02*
X851683D01*
X856255D02*
X858668D01*
X862732D02*
X865272D01*
X867177D02*
X870225D01*
X874289D02*
X876575D01*
X883941D02*
X886989D01*
X891053D02*
X893339D01*
X895752D02*
X901213D01*
X721254Y203654D02*
X727731D01*
X735351D02*
X741701D01*
X834665D02*
X836062D01*
X841015D02*
X842285D01*
X844063D02*
X845460D01*
X850413D02*
X851683D01*
X856255D02*
X858795D01*
X862732D02*
X865272D01*
X867050D02*
X870225D01*
X874289D02*
X876575D01*
X883814D02*
X886989D01*
X891053D02*
X893339D01*
X895625D02*
X901213D01*
X721254Y203527D02*
X727731D01*
X735351D02*
X741701D01*
X834665D02*
X836062D01*
X840888D02*
X842285D01*
X843936D02*
X845460D01*
X850286D02*
X851683D01*
X856255D02*
X858795D01*
X862732D02*
X865272D01*
X867050D02*
X870352D01*
X874289D02*
X876575D01*
X883814D02*
X886989D01*
X890926D02*
X893339D01*
X895498D02*
X901340D01*
X721254Y203400D02*
X727731D01*
X735351D02*
X741701D01*
X834538D02*
X835935D01*
X840888D02*
X842285D01*
X843936D02*
X845333D01*
X850286D02*
X851683D01*
X856255D02*
X858795D01*
X862605D02*
X865145D01*
X867050D02*
X870352D01*
X874289D02*
X876575D01*
X883687D02*
X887116D01*
X890926D02*
X893339D01*
X895371D02*
X901340D01*
X721254Y203273D02*
X727731D01*
X735351D02*
X741701D01*
X834538D02*
X835935D01*
X840888D02*
X842285D01*
X843809D02*
X845333D01*
X850159D02*
X851556D01*
X856382D02*
X858922D01*
X862605D02*
X865145D01*
X866923D02*
X870352D01*
X874289D02*
X876575D01*
X883687D02*
X887116D01*
X890926D02*
X893339D01*
X895371D02*
X901340D01*
X721254Y203146D02*
X727731D01*
X735351D02*
X741701D01*
X834411D02*
X835935D01*
X840761D02*
X842158D01*
X843809D02*
X845206D01*
X850159D02*
X851556D01*
X856382D02*
X858922D01*
X862605D02*
X865145D01*
X866923D02*
X870479D01*
X874289D02*
X876575D01*
X883687D02*
X887243D01*
X890926D02*
X893339D01*
X895244D02*
X901340D01*
X721254Y203019D02*
X727731D01*
X735351D02*
X741701D01*
X834411D02*
X835808D01*
X840761D02*
X842158D01*
X843682D02*
X845206D01*
X850032D02*
X851556D01*
X856382D02*
X859049D01*
X862478D02*
X865018D01*
X866923D02*
X870479D01*
X874289D02*
X876575D01*
X883560D02*
X887243D01*
X890926D02*
X893339D01*
X895117D02*
X901340D01*
X721254Y202892D02*
X727731D01*
X735351D02*
X741701D01*
X834284D02*
X835808D01*
X840634D02*
X842031D01*
X843682D02*
X845079D01*
X850032D02*
X851429D01*
X856509D02*
X859049D01*
X862478D02*
X865018D01*
X866796D02*
X870479D01*
X874289D02*
X876575D01*
X883560D02*
X887243D01*
X890926D02*
X893339D01*
X895117D02*
X901340D01*
X721254Y202765D02*
X727731D01*
X735351D02*
X741701D01*
X834284D02*
X835681D01*
X840634D02*
X842031D01*
X843555D02*
X845079D01*
X849905D02*
X851429D01*
X856509D02*
X859049D01*
X862351D02*
X865018D01*
X866796D02*
X870606D01*
X874289D02*
X876575D01*
X883560D02*
X887370D01*
X890926D02*
X893339D01*
X894990D02*
X901340D01*
X721254Y202638D02*
X727731D01*
X735351D02*
X741701D01*
X834157D02*
X835681D01*
X840507D02*
X842031D01*
X843555D02*
X844952D01*
X849905D02*
X851302D01*
X856636D02*
X859176D01*
X862351D02*
X864891D01*
X866669D02*
X870606D01*
X874289D02*
X876575D01*
X883433D02*
X887370D01*
X890926D02*
X893339D01*
X894990D02*
X901340D01*
X721254Y202511D02*
X727731D01*
X735351D02*
X741701D01*
X834157D02*
X835554D01*
X840507D02*
X841904D01*
X843555D02*
X844952D01*
X849905D02*
X851302D01*
X856636D02*
X859176D01*
X862351D02*
X864891D01*
X866669D02*
X870606D01*
X874289D02*
X876575D01*
X883433D02*
X887370D01*
X890926D02*
X893339D01*
X894863D02*
X901340D01*
X721254Y202384D02*
X727731D01*
X735351D02*
X741701D01*
X834030D02*
X835554D01*
X840380D02*
X841904D01*
X843428D02*
X844825D01*
X849778D02*
X851175D01*
X856636D02*
X859176D01*
X862224D02*
X864764D01*
X866669D02*
X870733D01*
X874289D02*
X876575D01*
X883433D02*
X887497D01*
X890926D02*
X893339D01*
X894863D02*
X898292D01*
X898546D02*
X901213D01*
X721254Y202257D02*
X727731D01*
X735351D02*
X741701D01*
X834030D02*
X835427D01*
X840380D02*
X841777D01*
X843428D02*
X844825D01*
X849778D02*
X851175D01*
X856763D02*
X859303D01*
X862224D02*
X864764D01*
X866542D02*
X870733D01*
X874289D02*
X876575D01*
X883306D02*
X887497D01*
X890926D02*
X893339D01*
X894863D02*
X897784D01*
X899181D02*
X901086D01*
X721254Y202130D02*
X727731D01*
X735351D02*
X741701D01*
X833903D02*
X835427D01*
X840253D02*
X841777D01*
X843301D02*
X844698D01*
X849651D02*
X851048D01*
X856763D02*
X859303D01*
X862224D02*
X864764D01*
X866542D02*
X870860D01*
X874289D02*
X876575D01*
X883306D02*
X887497D01*
X890926D02*
X893339D01*
X894736D02*
X897530D01*
X899435D02*
X900959D01*
X721254Y202003D02*
X727731D01*
X735351D02*
X741701D01*
X833903D02*
X835300D01*
X840253D02*
X841650D01*
X843301D02*
X844698D01*
X849651D02*
X851048D01*
X856890D02*
X859430D01*
X862097D02*
X864637D01*
X866542D02*
X870860D01*
X874289D02*
X876575D01*
X883179D02*
X885338D01*
X885465D02*
X887624D01*
X890926D02*
X893339D01*
X894736D02*
X897403D01*
X899816D02*
X900705D01*
X721254Y201876D02*
X727731D01*
X735351D02*
X741701D01*
X833903D02*
X835300D01*
X840253D02*
X841650D01*
X843174D02*
X844571D01*
X849524D02*
X850921D01*
X856890D02*
X859430D01*
X862097D02*
X864637D01*
X866415D02*
X868574D01*
X868701D02*
X870860D01*
X874289D02*
X876575D01*
X883179D02*
X885338D01*
X885465D02*
X887624D01*
X890926D02*
X893339D01*
X894736D02*
X897276D01*
X721254Y201749D02*
X727731D01*
X735351D02*
X741701D01*
X833776D02*
X835173D01*
X840126D02*
X841523D01*
X843174D02*
X844571D01*
X849524D02*
X850921D01*
X856890D02*
X859430D01*
X861970D02*
X864510D01*
X866415D02*
X868574D01*
X868828D02*
X870987D01*
X874289D02*
X876575D01*
X883179D02*
X885338D01*
X885592D02*
X887624D01*
X890926D02*
X893339D01*
X894736D02*
X897276D01*
X721254Y201622D02*
X727731D01*
X735478D02*
X741701D01*
X833776D02*
X835173D01*
X840126D02*
X841523D01*
X843047D02*
X844571D01*
X849397D02*
X850921D01*
X857017D02*
X859557D01*
X861970D02*
X864510D01*
X866288D02*
X868574D01*
X868828D02*
X870987D01*
X874289D02*
X876575D01*
X883052D02*
X885211D01*
X885592D02*
X887751D01*
X890926D02*
X893339D01*
X894736D02*
X897276D01*
X721254Y201495D02*
X727731D01*
X735478D02*
X741701D01*
X833649D02*
X835046D01*
X839999D02*
X841396D01*
X843047D02*
X844444D01*
X849397D02*
X850794D01*
X857017D02*
X859557D01*
X861970D02*
X864510D01*
X866288D02*
X868447D01*
X868828D02*
X870987D01*
X874289D02*
X876575D01*
X883052D02*
X885211D01*
X885592D02*
X887751D01*
X890926D02*
X893339D01*
X894736D02*
X897149D01*
X721254Y201368D02*
X727731D01*
X735478D02*
X741701D01*
X833649D02*
X835046D01*
X839999D02*
X841396D01*
X842920D02*
X844444D01*
X849270D02*
X850794D01*
X857144D02*
X859557D01*
X861843D02*
X864383D01*
X866288D02*
X868447D01*
X868955D02*
X871114D01*
X874289D02*
X876575D01*
X883052D02*
X885211D01*
X885592D02*
X887878D01*
X890926D02*
X893339D01*
X894609D02*
X897276D01*
X721254Y201241D02*
X727731D01*
X735478D02*
X741701D01*
X833522D02*
X834919D01*
X839872D02*
X841269D01*
X842920D02*
X844317D01*
X849270D02*
X850667D01*
X857144D02*
X859684D01*
X861843D02*
X864383D01*
X866161D02*
X868447D01*
X868955D02*
X871114D01*
X874289D02*
X876575D01*
X882925D02*
X885084D01*
X885719D02*
X887878D01*
X890926D02*
X893339D01*
X894609D02*
X897276D01*
X721381Y201114D02*
X727731D01*
X735478D02*
X741701D01*
X833522D02*
X834919D01*
X839872D02*
X841269D01*
X842793D02*
X844317D01*
X849143D02*
X850667D01*
X857144D02*
X859684D01*
X861843D02*
X864256D01*
X866161D02*
X868320D01*
X868955D02*
X871114D01*
X874289D02*
X876575D01*
X882925D02*
X885084D01*
X885719D02*
X887878D01*
X890926D02*
X893339D01*
X894609D02*
X897403D01*
X721381Y200987D02*
X727731D01*
X735478D02*
X741701D01*
X833395D02*
X834919D01*
X839745D02*
X841269D01*
X842793D02*
X844190D01*
X849143D02*
X850540D01*
X857271D02*
X859811D01*
X861716D02*
X864256D01*
X866161D02*
X868320D01*
X869082D02*
X871241D01*
X874289D02*
X876575D01*
X882798D02*
X885084D01*
X885719D02*
X888005D01*
X890926D02*
X893339D01*
X894609D02*
X897530D01*
X721381Y200860D02*
X727731D01*
X735478D02*
X741701D01*
X833395D02*
X834792D01*
X839745D02*
X841142D01*
X842666D02*
X844190D01*
X849016D02*
X850540D01*
X857271D02*
X859811D01*
X861716D02*
X864256D01*
X866034D02*
X868320D01*
X869082D02*
X871241D01*
X874289D02*
X876575D01*
X882798D02*
X884957D01*
X885846D02*
X888005D01*
X890926D02*
X893339D01*
X894736D02*
X897784D01*
X721381Y200733D02*
X727731D01*
X735478D02*
X741701D01*
X833268D02*
X834792D01*
X839618D02*
X841142D01*
X842666D02*
X844063D01*
X849016D02*
X850413D01*
X857398D02*
X859811D01*
X861589D02*
X864129D01*
X866034D02*
X868193D01*
X869082D02*
X871368D01*
X874289D02*
X876575D01*
X882798D02*
X884957D01*
X885846D02*
X888005D01*
X890926D02*
X893339D01*
X894736D02*
X898038D01*
X721381Y200606D02*
X727731D01*
X735478D02*
X741701D01*
X833268D02*
X834665D01*
X839618D02*
X841015D01*
X842539D02*
X844063D01*
X848889D02*
X850413D01*
X857398D02*
X859938D01*
X861589D02*
X864129D01*
X865907D02*
X868193D01*
X869209D02*
X871368D01*
X874289D02*
X876575D01*
X882671D02*
X884957D01*
X885846D02*
X888132D01*
X890926D02*
X893339D01*
X894736D02*
X898419D01*
X721381Y200479D02*
X727731D01*
X735478D02*
X741701D01*
X833141D02*
X834665D01*
X839491D02*
X841015D01*
X842539D02*
X843936D01*
X848889D02*
X850286D01*
X857398D02*
X859938D01*
X861589D02*
X864002D01*
X865907D02*
X868193D01*
X869209D02*
X871368D01*
X874289D02*
X876575D01*
X882671D02*
X884830D01*
X885973D02*
X888132D01*
X890926D02*
X893339D01*
X894736D02*
X898800D01*
X721381Y200352D02*
X727731D01*
X735478D02*
X741701D01*
X833141D02*
X834538D01*
X839491D02*
X840888D01*
X842539D02*
X843936D01*
X848762D02*
X850286D01*
X857525D02*
X859938D01*
X861462D02*
X864002D01*
X865907D02*
X868066D01*
X869209D02*
X871495D01*
X874289D02*
X876575D01*
X882671D02*
X884830D01*
X885973D02*
X888132D01*
X890926D02*
X893339D01*
X894736D02*
X899308D01*
X721381Y200225D02*
X727731D01*
X735478D02*
X741701D01*
X833014D02*
X834538D01*
X839364D02*
X840888D01*
X842412D02*
X843809D01*
X848762D02*
X850159D01*
X857525D02*
X860065D01*
X861462D02*
X864002D01*
X865780D02*
X868066D01*
X869209D02*
X871495D01*
X874289D02*
X876575D01*
X882544D02*
X884830D01*
X885973D02*
X888259D01*
X890926D02*
X893339D01*
X894863D02*
X899689D01*
X721381Y200098D02*
X727731D01*
X735478D02*
X741701D01*
X833014D02*
X834411D01*
X839364D02*
X840761D01*
X842412D02*
X843809D01*
X848762D02*
X850159D01*
X857652D02*
X860065D01*
X861462D02*
X863875D01*
X865780D02*
X868066D01*
X869336D02*
X871495D01*
X874289D02*
X876575D01*
X882544D02*
X884830D01*
X886100D02*
X888259D01*
X890926D02*
X893339D01*
X894863D02*
X900070D01*
X721381Y199971D02*
X727731D01*
X735478D02*
X741701D01*
X832887D02*
X834411D01*
X839237D02*
X840761D01*
X842285D02*
X843682D01*
X848635D02*
X850032D01*
X857652D02*
X860192D01*
X861335D02*
X863875D01*
X865780D02*
X867939D01*
X869336D02*
X871622D01*
X874289D02*
X876575D01*
X882544D02*
X884703D01*
X886100D02*
X888386D01*
X890926D02*
X893339D01*
X894863D02*
X900324D01*
X721381Y199844D02*
X727731D01*
X735478D02*
X741701D01*
X832887D02*
X834284D01*
X839237D02*
X840634D01*
X842285D02*
X843682D01*
X848635D02*
X850032D01*
X857652D02*
X860192D01*
X861335D02*
X863748D01*
X865653D02*
X867939D01*
X869336D02*
X871622D01*
X874289D02*
X876575D01*
X882417D02*
X884703D01*
X886100D02*
X888386D01*
X890926D02*
X893339D01*
X894990D02*
X900578D01*
X721381Y199717D02*
X727731D01*
X735478D02*
X741701D01*
X832887D02*
X834284D01*
X839237D02*
X840634D01*
X842158D02*
X843682D01*
X848508D02*
X849905D01*
X857779D02*
X860192D01*
X861208D02*
X863748D01*
X865653D02*
X867939D01*
X869463D02*
X871622D01*
X874289D02*
X876575D01*
X882417D02*
X884703D01*
X886227D02*
X888386D01*
X890926D02*
X893339D01*
X895117D02*
X900832D01*
X721381Y199590D02*
X727731D01*
X735478D02*
X741701D01*
X832760D02*
X834157D01*
X839110D02*
X840507D01*
X842158D02*
X843555D01*
X848508D02*
X849905D01*
X857779D02*
X860319D01*
X861208D02*
X863748D01*
X865653D02*
X867812D01*
X869463D02*
X871749D01*
X874289D02*
X876575D01*
X882290D02*
X884576D01*
X886227D02*
X888513D01*
X890926D02*
X893339D01*
X895117D02*
X900959D01*
X721381Y199463D02*
X727731D01*
X735478D02*
X741701D01*
X832760D02*
X834157D01*
X839110D02*
X840507D01*
X842031D02*
X843555D01*
X848381D02*
X849905D01*
X857779D02*
X860319D01*
X861208D02*
X863621D01*
X865526D02*
X867812D01*
X869463D02*
X871749D01*
X874289D02*
X876575D01*
X882290D02*
X884576D01*
X886227D02*
X888513D01*
X890926D02*
X893339D01*
X895244D02*
X901213D01*
X721381Y199336D02*
X727731D01*
X735478D02*
X741701D01*
X832633D02*
X834030D01*
X838983D02*
X840380D01*
X842031D02*
X843428D01*
X848381D02*
X849778D01*
X857906D02*
X860319D01*
X861081D02*
X863621D01*
X865526D02*
X867812D01*
X869590D02*
X871749D01*
X874289D02*
X876575D01*
X882290D02*
X884576D01*
X886354D02*
X888513D01*
X890926D02*
X893339D01*
X895371D02*
X901340D01*
X721381Y199209D02*
X727731D01*
X735478D02*
X741701D01*
X832633D02*
X834030D01*
X838983D02*
X840380D01*
X841904D02*
X843428D01*
X848254D02*
X849778D01*
X857906D02*
X860446D01*
X861081D02*
X863621D01*
X865399D02*
X867685D01*
X869590D02*
X871876D01*
X874289D02*
X876575D01*
X882163D02*
X884449D01*
X886354D02*
X888640D01*
X890926D02*
X893339D01*
X895498D02*
X901467D01*
X721381Y199082D02*
X727731D01*
X735478D02*
X741701D01*
X832506D02*
X834030D01*
X838856D02*
X840253D01*
X841904D02*
X843301D01*
X848254D02*
X849651D01*
X858033D02*
X860446D01*
X861081D02*
X863494D01*
X865399D02*
X867685D01*
X869590D02*
X871876D01*
X874289D02*
X876575D01*
X882163D02*
X884449D01*
X886354D02*
X888640D01*
X890926D02*
X893339D01*
X895752D02*
X901594D01*
X721381Y198955D02*
X727731D01*
X735478D02*
X741701D01*
X832506D02*
X833903D01*
X838856D02*
X840253D01*
X841777D02*
X843301D01*
X848127D02*
X849651D01*
X858033D02*
X860573D01*
X860954D02*
X863494D01*
X865399D02*
X867685D01*
X869717D02*
X872003D01*
X874289D02*
X876575D01*
X882163D02*
X884449D01*
X886481D02*
X888640D01*
X890926D02*
X893339D01*
X895879D02*
X901594D01*
X721381Y198828D02*
X727731D01*
X735478D02*
X741701D01*
X752877D02*
X755417D01*
X771927D02*
X775102D01*
X832379D02*
X833903D01*
X838729D02*
X840253D01*
X841777D02*
X843174D01*
X848127D02*
X849524D01*
X858033D02*
X860573D01*
X860954D02*
X863367D01*
X865272D02*
X867558D01*
X869717D02*
X872003D01*
X874289D02*
X876575D01*
X882036D02*
X884322D01*
X886481D02*
X888767D01*
X890926D02*
X893339D01*
X896133D02*
X901721D01*
X721381Y198701D02*
X727731D01*
X735478D02*
X741701D01*
X751988D02*
X756179D01*
X770911D02*
X776118D01*
X797581D02*
X799232D01*
X814853D02*
X816377D01*
X832379D02*
X833776D01*
X838729D02*
X840126D01*
X841650D02*
X843174D01*
X848000D02*
X849524D01*
X858160D02*
X860573D01*
X860954D02*
X863367D01*
X865272D02*
X867558D01*
X869717D02*
X872003D01*
X874289D02*
X876575D01*
X882036D02*
X884322D01*
X886481D02*
X888767D01*
X890926D02*
X893339D01*
X896387D02*
X901848D01*
X721381Y198574D02*
X727731D01*
X735478D02*
X741701D01*
X751480D02*
X756814D01*
X770276D02*
X776753D01*
X796438D02*
X800502D01*
X813710D02*
X817520D01*
X832252D02*
X833776D01*
X838602D02*
X840126D01*
X841650D02*
X843047D01*
X848000D02*
X849397D01*
X858160D02*
X860700D01*
X860827D02*
X863367D01*
X865272D02*
X867558D01*
X869844D02*
X872130D01*
X874289D02*
X876575D01*
X881909D02*
X884322D01*
X886608D02*
X888894D01*
X890926D02*
X893339D01*
X896768D02*
X901848D01*
X721381Y198447D02*
X727731D01*
X735478D02*
X741701D01*
X750972D02*
X757195D01*
X769895D02*
X777388D01*
X795803D02*
X801137D01*
X813075D02*
X818155D01*
X832252D02*
X833649D01*
X838602D02*
X839999D01*
X841650D02*
X843047D01*
X847873D02*
X849397D01*
X858287D02*
X860700D01*
X860827D02*
X863240D01*
X865145D02*
X867431D01*
X869844D02*
X872130D01*
X874289D02*
X876575D01*
X881909D02*
X884195D01*
X886608D02*
X888894D01*
X890926D02*
X893339D01*
X897149D02*
X901975D01*
X721381Y198320D02*
X727604D01*
X735478D02*
X741701D01*
X750591D02*
X757576D01*
X769514D02*
X777896D01*
X795295D02*
X801772D01*
X812567D02*
X818663D01*
X832125D02*
X833649D01*
X838475D02*
X839999D01*
X841523D02*
X842920D01*
X847873D02*
X849270D01*
X858287D02*
X863240D01*
X865145D02*
X867431D01*
X869844D02*
X872130D01*
X874289D02*
X876575D01*
X881909D02*
X884195D01*
X886608D02*
X888894D01*
X890926D02*
X893339D01*
X897530D02*
X901975D01*
X721381Y198193D02*
X727604D01*
X735478D02*
X741701D01*
X750210D02*
X757957D01*
X769133D02*
X778404D01*
X794914D02*
X802153D01*
X812186D02*
X819044D01*
X832125D02*
X833522D01*
X838475D02*
X839872D01*
X841523D02*
X842920D01*
X847746D02*
X849270D01*
X858287D02*
X863113D01*
X865018D02*
X867431D01*
X869971D02*
X872257D01*
X874289D02*
X876575D01*
X881782D02*
X884195D01*
X886608D02*
X889021D01*
X890926D02*
X893339D01*
X898038D02*
X901975D01*
X721381Y198066D02*
X727604D01*
X735478D02*
X741701D01*
X749956D02*
X758211D01*
X768879D02*
X778785D01*
X794533D02*
X802661D01*
X811805D02*
X819298D01*
X831998D02*
X833522D01*
X838348D02*
X839872D01*
X841396D02*
X842793D01*
X847746D02*
X849143D01*
X858414D02*
X863113D01*
X865018D02*
X867304D01*
X869971D02*
X872257D01*
X874289D02*
X876575D01*
X881782D02*
X884068D01*
X886735D02*
X889021D01*
X890926D02*
X893339D01*
X898419D02*
X902102D01*
X721381Y197939D02*
X727604D01*
X735478D02*
X741701D01*
X749702D02*
X758465D01*
X768625D02*
X778912D01*
X794279D02*
X803042D01*
X811551D02*
X819679D01*
X831998D02*
X833395D01*
X838348D02*
X839745D01*
X841396D02*
X842793D01*
X847746D02*
X849143D01*
X858414D02*
X863113D01*
X865018D02*
X872257D01*
X874289D02*
X876575D01*
X881782D02*
X889021D01*
X890926D02*
X893339D01*
X898800D02*
X902102D01*
X721508Y197812D02*
X727604D01*
X735478D02*
X741701D01*
X749448D02*
X758719D01*
X768371D02*
X778912D01*
X794025D02*
X803296D01*
X811297D02*
X819933D01*
X831998D02*
X833395D01*
X838221D02*
X839745D01*
X841269D02*
X842666D01*
X847619D02*
X849016D01*
X858541D02*
X862986D01*
X864891D02*
X872384D01*
X874289D02*
X876575D01*
X881655D02*
X889148D01*
X890926D02*
X893339D01*
X899054D02*
X902102D01*
X721508Y197685D02*
X727604D01*
X735478D02*
X741701D01*
X749194D02*
X758846D01*
X768117D02*
X778912D01*
X793771D02*
X803423D01*
X811043D02*
X820187D01*
X831871D02*
X833268D01*
X838221D02*
X839618D01*
X841269D02*
X842666D01*
X847619D02*
X849016D01*
X858541D02*
X862986D01*
X864891D02*
X872384D01*
X874289D02*
X876575D01*
X881655D02*
X889148D01*
X890926D02*
X893339D01*
X899308D02*
X902102D01*
X721508Y197558D02*
X727604D01*
X735478D02*
X741701D01*
X749067D02*
X759100D01*
X767990D02*
X778912D01*
X793644D02*
X803423D01*
X810789D02*
X820314D01*
X831871D02*
X833268D01*
X838094D02*
X839618D01*
X841142D02*
X842666D01*
X847492D02*
X848889D01*
X858541D02*
X862859D01*
X864891D02*
X872511D01*
X874289D02*
X876575D01*
X881528D02*
X889148D01*
X890926D02*
X893339D01*
X899435D02*
X902102D01*
X721508Y197431D02*
X727604D01*
X735478D02*
X741701D01*
X748813D02*
X759227D01*
X767863D02*
X778912D01*
X793390D02*
X803423D01*
X810535D02*
X820568D01*
X831744D02*
X833141D01*
X838094D02*
X839491D01*
X841142D02*
X842539D01*
X847492D02*
X848889D01*
X858668D02*
X862859D01*
X864764D02*
X872511D01*
X874289D02*
X876575D01*
X881528D02*
X889275D01*
X890926D02*
X893339D01*
X899562D02*
X902102D01*
X721508Y197304D02*
X727604D01*
X735478D02*
X741701D01*
X748686D02*
X759354D01*
X767609D02*
X778912D01*
X793263D02*
X803423D01*
X810408D02*
X820822D01*
X831744D02*
X833141D01*
X838094D02*
X839491D01*
X841015D02*
X842539D01*
X847365D02*
X848762D01*
X858668D02*
X862859D01*
X864764D02*
X872511D01*
X874289D02*
X876575D01*
X881528D02*
X889275D01*
X890926D02*
X893339D01*
X899562D02*
X902229D01*
X721508Y197177D02*
X727604D01*
X735605D02*
X741701D01*
X748432D02*
X759481D01*
X767482D02*
X778912D01*
X793009D02*
X803423D01*
X810154D02*
X820949D01*
X831617D02*
X833014D01*
X837967D02*
X839364D01*
X841015D02*
X842412D01*
X847365D02*
X848762D01*
X858795D02*
X862732D01*
X864764D02*
X872638D01*
X874289D02*
X876575D01*
X881401D02*
X889275D01*
X890926D02*
X893339D01*
X899562D02*
X902229D01*
X721508Y197050D02*
X727604D01*
X735605D02*
X741701D01*
X748305D02*
X759608D01*
X767355D02*
X778785D01*
X792882D02*
X803423D01*
X810027D02*
X821076D01*
X831617D02*
X833014D01*
X837967D02*
X839364D01*
X840888D02*
X842412D01*
X847238D02*
X848762D01*
X858795D02*
X862732D01*
X864637D02*
X872638D01*
X874289D02*
X876575D01*
X881401D02*
X889402D01*
X890926D02*
X893339D01*
X899689D02*
X902229D01*
X721508Y196923D02*
X727604D01*
X735605D02*
X741701D01*
X748178D02*
X759735D01*
X767228D02*
X778785D01*
X792755D02*
X803423D01*
X809773D02*
X821203D01*
X831490D02*
X833014D01*
X837840D02*
X839237D01*
X840888D02*
X842285D01*
X847238D02*
X848635D01*
X858795D02*
X862605D01*
X864637D02*
X872638D01*
X874289D02*
X876575D01*
X881401D02*
X889402D01*
X890926D02*
X893339D01*
X899562D02*
X902229D01*
X721508Y196796D02*
X727604D01*
X735605D02*
X741701D01*
X748051D02*
X759862D01*
X767101D02*
X778785D01*
X792628D02*
X803423D01*
X809646D02*
X821457D01*
X831490D02*
X832887D01*
X837840D02*
X839237D01*
X840761D02*
X842285D01*
X847111D02*
X848635D01*
X858922D02*
X862605D01*
X864510D02*
X872765D01*
X874289D02*
X876575D01*
X881274D02*
X889529D01*
X890926D02*
X893339D01*
X899562D02*
X902102D01*
X721508Y196669D02*
X727604D01*
X735605D02*
X741701D01*
X747797D02*
X759989D01*
X766974D02*
X778785D01*
X792501D02*
X803423D01*
X809519D02*
X821584D01*
X831363D02*
X832887D01*
X837713D02*
X839110D01*
X840761D02*
X842158D01*
X847111D02*
X848508D01*
X858922D02*
X862605D01*
X864510D02*
X872765D01*
X874289D02*
X876575D01*
X881274D02*
X889529D01*
X890926D02*
X893339D01*
X899562D02*
X902102D01*
X721508Y196542D02*
X727604D01*
X735605D02*
X741701D01*
X747670D02*
X760116D01*
X766847D02*
X778785D01*
X792374D02*
X803296D01*
X809392D02*
X821711D01*
X831363D02*
X832760D01*
X837713D02*
X839110D01*
X840634D02*
X842158D01*
X846984D02*
X848508D01*
X859049D02*
X862478D01*
X864510D02*
X872765D01*
X874289D02*
X876575D01*
X881274D02*
X889529D01*
X890926D02*
X893339D01*
X899435D02*
X902102D01*
X721508Y196415D02*
X727604D01*
X735605D02*
X741701D01*
X747543D02*
X760243D01*
X766847D02*
X778785D01*
X792374D02*
X803296D01*
X809265D02*
X821838D01*
X831236D02*
X832760D01*
X837586D02*
X839110D01*
X840634D02*
X842031D01*
X846984D02*
X848381D01*
X859049D02*
X862478D01*
X864383D02*
X872892D01*
X874289D02*
X876575D01*
X881147D02*
X889656D01*
X890926D02*
X893339D01*
X895371D02*
X896006D01*
X899435D02*
X902102D01*
X721508Y196288D02*
X727604D01*
X735605D02*
X741701D01*
X747416D02*
X760370D01*
X766720D02*
X778785D01*
X792247D02*
X803296D01*
X809138D02*
X821838D01*
X831236D02*
X832633D01*
X837586D02*
X838983D01*
X840634D02*
X842031D01*
X846857D02*
X848381D01*
X859049D02*
X862351D01*
X864383D02*
X872892D01*
X874289D02*
X876575D01*
X881147D02*
X889656D01*
X890926D02*
X893339D01*
X895117D02*
X896514D01*
X899308D02*
X902102D01*
X721508Y196161D02*
X727604D01*
X735605D02*
X741701D01*
X747416D02*
X760370D01*
X766593D02*
X778785D01*
X792120D02*
X803296D01*
X809011D02*
X814980D01*
X815996D02*
X821965D01*
X831109D02*
X832633D01*
X837459D02*
X838983D01*
X840507D02*
X841904D01*
X846857D02*
X848254D01*
X859176D02*
X862351D01*
X864383D02*
X872892D01*
X874289D02*
X876575D01*
X881020D02*
X889656D01*
X890926D02*
X893339D01*
X894990D02*
X896895D01*
X899181D02*
X902102D01*
X721508Y196034D02*
X727604D01*
X735605D02*
X741701D01*
X747289D02*
X760497D01*
X766593D02*
X778785D01*
X792120D02*
X797454D01*
X799613D02*
X803296D01*
X808884D02*
X814218D01*
X816758D02*
X822092D01*
X831109D02*
X832506D01*
X837459D02*
X838856D01*
X840507D02*
X841904D01*
X846730D02*
X848254D01*
X859176D02*
X862351D01*
X864256D02*
X873019D01*
X874289D02*
X876575D01*
X881020D02*
X889783D01*
X890926D02*
X893339D01*
X894863D02*
X897276D01*
X898927D02*
X901975D01*
X721508Y195907D02*
X727604D01*
X735605D02*
X741701D01*
X747162D02*
X760624D01*
X766466D02*
X778785D01*
X791993D02*
X796946D01*
X800375D02*
X803296D01*
X808757D02*
X813837D01*
X817139D02*
X822219D01*
X830982D02*
X832506D01*
X837332D02*
X838856D01*
X840380D02*
X841777D01*
X846730D02*
X848127D01*
X859176D02*
X862224D01*
X864256D02*
X873019D01*
X874289D02*
X879623D01*
X881020D02*
X889783D01*
X890926D02*
X893339D01*
X894736D02*
X897784D01*
X898546D02*
X901975D01*
X721508Y195780D02*
X727604D01*
X735605D02*
X741701D01*
X747035D02*
X760624D01*
X766339D02*
X778658D01*
X791993D02*
X796565D01*
X800756D02*
X803296D01*
X808630D02*
X813583D01*
X817520D02*
X822346D01*
X830982D02*
X832379D01*
X837332D02*
X838729D01*
X840380D02*
X841777D01*
X846603D02*
X848127D01*
X859303D02*
X862224D01*
X864129D02*
X866669D01*
X870733D02*
X873146D01*
X874289D02*
X879877D01*
X880893D02*
X883433D01*
X887497D02*
X889783D01*
X890926D02*
X893339D01*
X894736D02*
X901975D01*
X721508Y195653D02*
X727604D01*
X735351D02*
X741701D01*
X746908D02*
X760751D01*
X766339D02*
X778658D01*
X791866D02*
X796311D01*
X801137D02*
X803296D01*
X808630D02*
X813329D01*
X817647D02*
X822346D01*
X830982D02*
X832379D01*
X837205D02*
X838729D01*
X840253D02*
X841650D01*
X846603D02*
X848000D01*
X859303D02*
X862097D01*
X864129D02*
X866542D01*
X870733D02*
X873146D01*
X874289D02*
X880004D01*
X880893D02*
X883306D01*
X887497D02*
X889910D01*
X890926D02*
X893339D01*
X894609D02*
X901848D01*
X721508Y195526D02*
X741701D01*
X746908D02*
X760878D01*
X766212D02*
X773451D01*
X774721D02*
X778658D01*
X791866D02*
X796057D01*
X801518D02*
X803296D01*
X808503D02*
X813075D01*
X817901D02*
X822473D01*
X830855D02*
X832252D01*
X837205D02*
X838602D01*
X840253D02*
X841650D01*
X846603D02*
X848000D01*
X859430D02*
X862097D01*
X864129D02*
X866542D01*
X870733D02*
X873146D01*
X874289D02*
X880131D01*
X880893D02*
X883306D01*
X887497D02*
X889910D01*
X890926D02*
X893339D01*
X894609D02*
X901848D01*
X721508Y195399D02*
X741701D01*
X746781D02*
X760878D01*
X766212D02*
X772816D01*
X775483D02*
X778658D01*
X791739D02*
X795930D01*
X801772D02*
X803169D01*
X808376D02*
X812821D01*
X818155D02*
X822600D01*
X830855D02*
X832252D01*
X837078D02*
X838602D01*
X840126D02*
X841650D01*
X846476D02*
X847873D01*
X859430D02*
X862097D01*
X864002D02*
X866542D01*
X870860D02*
X873273D01*
X874289D02*
X880258D01*
X880766D02*
X883306D01*
X887624D02*
X890037D01*
X890926D02*
X893339D01*
X894609D02*
X901721D01*
X721508Y195272D02*
X741701D01*
X746654D02*
X753258D01*
X754655D02*
X761005D01*
X766212D02*
X772562D01*
X775991D02*
X778658D01*
X791739D02*
X795803D01*
X802026D02*
X803169D01*
X808376D02*
X812694D01*
X818282D02*
X822600D01*
X830728D02*
X832125D01*
X837078D02*
X838475D01*
X840126D02*
X841523D01*
X846476D02*
X847873D01*
X859430D02*
X861970D01*
X864002D02*
X866415D01*
X870860D02*
X873273D01*
X874289D02*
X880258D01*
X880766D02*
X883179D01*
X887624D02*
X890037D01*
X890926D02*
X893339D01*
X894609D02*
X901721D01*
X721508Y195145D02*
X741701D01*
X746654D02*
X752877D01*
X755036D02*
X761005D01*
X766085D02*
X772308D01*
X776372D02*
X778658D01*
X791739D02*
X795676D01*
X802280D02*
X803169D01*
X808249D02*
X812567D01*
X818409D02*
X822727D01*
X830728D02*
X832125D01*
X837078D02*
X838475D01*
X839999D02*
X841523D01*
X846349D02*
X847746D01*
X859557D02*
X861970D01*
X864002D02*
X866415D01*
X870860D02*
X873273D01*
X874289D02*
X880258D01*
X880766D02*
X883179D01*
X887624D02*
X890037D01*
X890926D02*
X893339D01*
X894609D02*
X901594D01*
X721508Y195018D02*
X741701D01*
X746527D02*
X752623D01*
X755290D02*
X761132D01*
X766085D02*
X772181D01*
X776626D02*
X778658D01*
X791612D02*
X795549D01*
X802534D02*
X803169D01*
X808122D02*
X812440D01*
X818536D02*
X822727D01*
X830601D02*
X831998D01*
X836951D02*
X838348D01*
X839999D02*
X841396D01*
X846349D02*
X847746D01*
X859557D02*
X861970D01*
X864002D02*
X866415D01*
X870987D02*
X873400D01*
X874289D02*
X880258D01*
X880639D02*
X883179D01*
X887751D02*
X890037D01*
X890926D02*
X893339D01*
X894609D02*
X901467D01*
X721508Y194891D02*
X741701D01*
X746527D02*
X752496D01*
X755417D02*
X761132D01*
X766085D02*
X772054D01*
X777007D02*
X778658D01*
X791612D02*
X795422D01*
X802661D02*
X802915D01*
X808122D02*
X812313D01*
X818663D02*
X822854D01*
X830601D02*
X831998D01*
X836951D02*
X838348D01*
X839872D02*
X841396D01*
X846222D02*
X847746D01*
X859684D02*
X861843D01*
X863875D02*
X866415D01*
X870987D02*
X873400D01*
X874289D02*
X880258D01*
X880639D02*
X883052D01*
X887751D02*
X890164D01*
X890926D02*
X893339D01*
X894736D02*
X901467D01*
X721508Y194764D02*
X741701D01*
X746400D02*
X752242D01*
X755544D02*
X761259D01*
X765958D02*
X771927D01*
X777261D02*
X778658D01*
X791612D02*
X795422D01*
X807995D02*
X812186D01*
X818790D02*
X822854D01*
X830474D02*
X831998D01*
X836824D02*
X838221D01*
X839872D02*
X841269D01*
X846222D02*
X847619D01*
X859684D02*
X861843D01*
X863875D02*
X866288D01*
X870987D02*
X873400D01*
X874289D02*
X880258D01*
X880639D02*
X883052D01*
X887751D02*
X890164D01*
X890926D02*
X893339D01*
X894736D02*
X901340D01*
X721508Y194637D02*
X741701D01*
X746273D02*
X752115D01*
X755671D02*
X761259D01*
X765958D02*
X771800D01*
X777388D02*
X778658D01*
X791612D02*
X795295D01*
X807995D02*
X812059D01*
X818917D02*
X822981D01*
X830474D02*
X831871D01*
X836824D02*
X838221D01*
X839745D02*
X841269D01*
X846095D02*
X847619D01*
X859811D02*
X861716D01*
X863875D02*
X866288D01*
X871114D02*
X873400D01*
X874289D02*
X880258D01*
X880639D02*
X883052D01*
X887878D02*
X890164D01*
X891053D02*
X893339D01*
X894863D02*
X901213D01*
X721508Y194510D02*
X741701D01*
X746273D02*
X751988D01*
X755798D02*
X761259D01*
X765958D02*
X771800D01*
X777642D02*
X778658D01*
X791612D02*
X795295D01*
X807868D02*
X811932D01*
X818917D02*
X822981D01*
X830347D02*
X831871D01*
X836697D02*
X838094D01*
X839745D02*
X841142D01*
X846095D02*
X847492D01*
X859811D02*
X861589D01*
X864002D02*
X866288D01*
X871114D02*
X873400D01*
X874289D02*
X880258D01*
X880639D02*
X882925D01*
X887878D02*
X890037D01*
X891053D02*
X893339D01*
X894863D02*
X901086D01*
X721508Y194383D02*
X741701D01*
X746273D02*
X751861D01*
X755925D02*
X761386D01*
X765958D02*
X771800D01*
X777896D02*
X778531D01*
X791612D02*
X795295D01*
X807868D02*
X811932D01*
X819044D02*
X823108D01*
X830347D02*
X831744D01*
X836697D02*
X838094D01*
X839618D02*
X841142D01*
X845968D02*
X847492D01*
X859938D02*
X861462D01*
X864002D02*
X866161D01*
X871114D02*
X873273D01*
X874416D02*
X880258D01*
X880766D02*
X882925D01*
X887878D02*
X890037D01*
X891053D02*
X893212D01*
X894990D02*
X900832D01*
X721508Y194256D02*
X741701D01*
X746146D02*
X751734D01*
X756052D02*
X761386D01*
X765958D02*
X771673D01*
X778150D02*
X778404D01*
X791485D02*
X795295D01*
X807741D02*
X811805D01*
X819171D02*
X823108D01*
X830220D02*
X831744D01*
X836570D02*
X838094D01*
X839618D02*
X841015D01*
X845968D02*
X847365D01*
X860192D02*
X861335D01*
X864002D02*
X866161D01*
X871241D02*
X873273D01*
X874416D02*
X880131D01*
X880766D02*
X882925D01*
X888005D02*
X890037D01*
X891053D02*
X893212D01*
X895244D02*
X900705D01*
X721508Y194129D02*
X741701D01*
X746146D02*
X751734D01*
X756052D02*
X761513D01*
X765958D02*
X771673D01*
X791485D02*
X795295D01*
X807741D02*
X811678D01*
X819171D02*
X823108D01*
X830220D02*
X831617D01*
X836570D02*
X837967D01*
X839618D02*
X841015D01*
X845841D02*
X847365D01*
X864129D02*
X866034D01*
X871241D02*
X873146D01*
X874543D02*
X880004D01*
X880893D02*
X882798D01*
X888005D02*
X889910D01*
X891180D02*
X893085D01*
X895371D02*
X900451D01*
X721508Y194002D02*
X741701D01*
X746019D02*
X751607D01*
X756179D02*
X761513D01*
X765831D02*
X771800D01*
X791485D02*
X795295D01*
X807741D02*
X811678D01*
X819298D02*
X823235D01*
X830093D02*
X831617D01*
X836443D02*
X837967D01*
X839491D02*
X840888D01*
X845841D02*
X847238D01*
X864256D02*
X865907D01*
X871368D02*
X873146D01*
X874670D02*
X879877D01*
X881020D02*
X882671D01*
X888132D02*
X889783D01*
X891307D02*
X892958D01*
X895752D02*
X900197D01*
X721508Y193875D02*
X741701D01*
X746019D02*
X751480D01*
X756179D02*
X761513D01*
X765831D02*
X771800D01*
X791485D02*
X795295D01*
X807614D02*
X811551D01*
X819298D02*
X823235D01*
X830093D02*
X831490D01*
X836443D02*
X837840D01*
X839491D02*
X840888D01*
X845714D02*
X847238D01*
X864383D02*
X865780D01*
X871495D02*
X872892D01*
X874924D02*
X879623D01*
X881147D02*
X882544D01*
X888259D02*
X889656D01*
X891434D02*
X892831D01*
X896006D02*
X899943D01*
X721508Y193748D02*
X741701D01*
X745892D02*
X751480D01*
X756306D02*
X761640D01*
X765831D02*
X771800D01*
X791485D02*
X795295D01*
X807614D02*
X811551D01*
X819298D02*
X823235D01*
X829966D02*
X831490D01*
X836316D02*
X837840D01*
X839364D02*
X840761D01*
X845714D02*
X847111D01*
X864637D02*
X865526D01*
X871876D02*
X872638D01*
X881401D02*
X882290D01*
X888513D02*
X889402D01*
X891688D02*
X892577D01*
X896514D02*
X899562D01*
X721508Y193621D02*
X741701D01*
X745892D02*
X751353D01*
X756306D02*
X761640D01*
X765831D02*
X771927D01*
X791485D02*
X795295D01*
X807487D02*
X811424D01*
X819425D02*
X823362D01*
X829966D02*
X831363D01*
X836316D02*
X837713D01*
X839364D02*
X840761D01*
X845587D02*
X847111D01*
X897530D02*
X898927D01*
X721508Y193494D02*
X741701D01*
X745892D02*
X751353D01*
X756306D02*
X761640D01*
X765831D02*
X772054D01*
X791485D02*
X795422D01*
X807487D02*
X811424D01*
X819425D02*
X823362D01*
X829966D02*
X831363D01*
X836189D02*
X837713D01*
X839237D02*
X840761D01*
X845587D02*
X846984D01*
X721508Y193367D02*
X741701D01*
X745765D02*
X751353D01*
X756433D02*
X761640D01*
X765831D02*
X772181D01*
X791485D02*
X795422D01*
X807487D02*
X811297D01*
X819552D02*
X823362D01*
X829839D02*
X831236D01*
X836189D02*
X837586D01*
X839237D02*
X840634D01*
X845587D02*
X846984D01*
X721508Y193240D02*
X741701D01*
X745765D02*
X751226D01*
X756433D02*
X761767D01*
X765831D02*
X772308D01*
X791485D02*
X795549D01*
X807487D02*
X811297D01*
X819552D02*
X823489D01*
X829839D02*
X831236D01*
X836062D02*
X837586D01*
X839110D02*
X840634D01*
X845460D02*
X846857D01*
X721508Y193113D02*
X741701D01*
X745765D02*
X751226D01*
X756433D02*
X761767D01*
X765831D02*
X772562D01*
X791612D02*
X795676D01*
X807360D02*
X811297D01*
X819552D02*
X823489D01*
X829712D02*
X831109D01*
X836062D02*
X837459D01*
X839110D02*
X840507D01*
X845460D02*
X846857D01*
X721508Y192986D02*
X741701D01*
X745638D02*
X751226D01*
X756433D02*
X761767D01*
X765831D02*
X772816D01*
X791612D02*
X795803D01*
X807360D02*
X811170D01*
X819679D02*
X823489D01*
X829712D02*
X831109D01*
X835935D02*
X837459D01*
X838983D02*
X840507D01*
X845333D02*
X846730D01*
X721508Y192859D02*
X741701D01*
X745638D02*
X751226D01*
X756433D02*
X761767D01*
X765958D02*
X773197D01*
X791612D02*
X795930D01*
X807360D02*
X811170D01*
X819679D02*
X823489D01*
X829585D02*
X831109D01*
X835935D02*
X837332D01*
X838983D02*
X840380D01*
X845333D02*
X846730D01*
X721508Y192732D02*
X741701D01*
X745638D02*
X751099D01*
X756433D02*
X761767D01*
X765958D02*
X773451D01*
X791612D02*
X796184D01*
X807233D02*
X811170D01*
X819679D02*
X823616D01*
X829585D02*
X830982D01*
X835935D02*
X837332D01*
X838856D02*
X840380D01*
X845206D02*
X846730D01*
X721508Y192605D02*
X741701D01*
X745638D02*
X751099D01*
X756560D02*
X761894D01*
X765958D02*
X773832D01*
X791612D02*
X796438D01*
X807233D02*
X811170D01*
X819679D02*
X823616D01*
X829458D02*
X830982D01*
X835808D02*
X837205D01*
X838856D02*
X840253D01*
X845206D02*
X846603D01*
X721508Y192478D02*
X741701D01*
X745638D02*
X751099D01*
X756560D02*
X761894D01*
X765958D02*
X774213D01*
X791739D02*
X796692D01*
X807233D02*
X811043D01*
X819806D02*
X823616D01*
X829458D02*
X830855D01*
X835808D02*
X837205D01*
X838729D02*
X840253D01*
X845079D02*
X846603D01*
X721508Y192351D02*
X741701D01*
X745511D02*
X751099D01*
X756560D02*
X761894D01*
X765958D02*
X774594D01*
X791739D02*
X796946D01*
X807233D02*
X811043D01*
X819806D02*
X823616D01*
X829331D02*
X830855D01*
X835681D02*
X837078D01*
X838729D02*
X840126D01*
X845079D02*
X846476D01*
X721508Y192224D02*
X741701D01*
X745511D02*
X751099D01*
X756560D02*
X761894D01*
X765958D02*
X774975D01*
X791739D02*
X797327D01*
X807233D02*
X811043D01*
X819806D02*
X823616D01*
X829331D02*
X830728D01*
X835681D02*
X837078D01*
X838602D02*
X840126D01*
X844952D02*
X846476D01*
X721508Y192097D02*
X741701D01*
X745511D02*
X751099D01*
X751861D02*
X761894D01*
X766085D02*
X775356D01*
X791866D02*
X797708D01*
X807233D02*
X811043D01*
X819806D02*
X823616D01*
X829204D02*
X830728D01*
X835554D02*
X837078D01*
X838602D02*
X839999D01*
X844952D02*
X846349D01*
X721508Y191970D02*
X741701D01*
X745511D02*
X761894D01*
X766085D02*
X775737D01*
X785008D02*
X786405D01*
X791866D02*
X798216D01*
X807106D02*
X811043D01*
X819806D02*
X823743D01*
X829204D02*
X830601D01*
X835554D02*
X836951D01*
X838602D02*
X839999D01*
X844825D02*
X846349D01*
X721508Y191843D02*
X741701D01*
X745511D02*
X761894D01*
X766085D02*
X775991D01*
X784754D02*
X786786D01*
X791866D02*
X798597D01*
X807106D02*
X810916D01*
X819933D02*
X823743D01*
X829077D02*
X830601D01*
X835427D02*
X836951D01*
X838475D02*
X839872D01*
X844825D02*
X846222D01*
X721508Y191716D02*
X741701D01*
X745384D02*
X762021D01*
X766212D02*
X776372D01*
X784500D02*
X786913D01*
X791993D02*
X799105D01*
X807106D02*
X810916D01*
X819933D02*
X823743D01*
X829077D02*
X830474D01*
X835427D02*
X836824D01*
X838475D02*
X839872D01*
X844698D02*
X846222D01*
X872257D02*
X873273D01*
X897784D02*
X899435D01*
X721508Y191589D02*
X741701D01*
X745384D02*
X762021D01*
X766212D02*
X776626D01*
X784373D02*
X787040D01*
X792120D02*
X799486D01*
X807106D02*
X810916D01*
X819933D02*
X823743D01*
X828950D02*
X830474D01*
X835300D02*
X836824D01*
X838348D02*
X839745D01*
X844698D02*
X846095D01*
X855747D02*
X856890D01*
X861335D02*
X862351D01*
X866796D02*
X867939D01*
X872003D02*
X873654D01*
X878988D02*
X880131D01*
X885592D02*
X886735D01*
X892196D02*
X893339D01*
X897276D02*
X900070D01*
X721508Y191462D02*
X728239D01*
X735605D02*
X741701D01*
X745384D02*
X762021D01*
X766212D02*
X777007D01*
X784246D02*
X787294D01*
X792120D02*
X799867D01*
X807106D02*
X810916D01*
X819933D02*
X823743D01*
X828950D02*
X830347D01*
X835300D02*
X836697D01*
X838348D02*
X839745D01*
X844571D02*
X846095D01*
X855493D02*
X857144D01*
X861081D02*
X862605D01*
X866669D02*
X868193D01*
X871749D02*
X873781D01*
X878734D02*
X880258D01*
X885338D02*
X886862D01*
X892069D02*
X893593D01*
X896895D02*
X900451D01*
X721508Y191335D02*
X727604D01*
X735605D02*
X741701D01*
X745384D02*
X762021D01*
X766339D02*
X777261D01*
X784119D02*
X787294D01*
X792247D02*
X800375D01*
X807106D02*
X810916D01*
X819933D02*
X823743D01*
X828950D02*
X830347D01*
X835173D02*
X836697D01*
X838221D02*
X839745D01*
X844571D02*
X845968D01*
X855366D02*
X857271D01*
X860954D02*
X862732D01*
X866542D02*
X868320D01*
X871622D02*
X873908D01*
X878607D02*
X880385D01*
X885211D02*
X887116D01*
X891815D02*
X893720D01*
X896641D02*
X900705D01*
X721508Y191208D02*
X727604D01*
X735605D02*
X741701D01*
X745384D02*
X762021D01*
X766339D02*
X777388D01*
X783992D02*
X787421D01*
X792374D02*
X800756D01*
X807106D02*
X810916D01*
X819933D02*
X823743D01*
X828823D02*
X830220D01*
X835173D02*
X836570D01*
X838221D02*
X839618D01*
X844571D02*
X845968D01*
X855366D02*
X857271D01*
X860827D02*
X862859D01*
X866415D02*
X868447D01*
X871495D02*
X874035D01*
X878480D02*
X880512D01*
X885211D02*
X887116D01*
X891815D02*
X893847D01*
X896387D02*
X900959D01*
X721508Y191081D02*
X727604D01*
X735605D02*
X741701D01*
X745384D02*
X762021D01*
X766466D02*
X777642D01*
X783992D02*
X787548D01*
X792374D02*
X801010D01*
X807106D02*
X810916D01*
X819933D02*
X823743D01*
X828823D02*
X830220D01*
X835046D02*
X836570D01*
X838094D02*
X839618D01*
X844444D02*
X845841D01*
X855239D02*
X857398D01*
X860700D02*
X862986D01*
X866288D02*
X868447D01*
X871368D02*
X874162D01*
X878480D02*
X880639D01*
X885084D02*
X887243D01*
X891688D02*
X893847D01*
X896260D02*
X901086D01*
X721508Y190954D02*
X727604D01*
X735605D02*
X741701D01*
X745384D02*
X762021D01*
X766593D02*
X777896D01*
X783865D02*
X787548D01*
X792501D02*
X801391D01*
X807106D02*
X810916D01*
X819933D02*
X823743D01*
X828696D02*
X830093D01*
X835046D02*
X836443D01*
X838094D02*
X839491D01*
X844444D02*
X845841D01*
X855239D02*
X857398D01*
X860700D02*
X862986D01*
X866288D02*
X868574D01*
X871368D02*
X874289D01*
X878353D02*
X880639D01*
X885084D02*
X887243D01*
X891688D02*
X893847D01*
X896006D02*
X901340D01*
X721508Y190827D02*
X727604D01*
X735605D02*
X741701D01*
X745384D02*
X762021D01*
X766593D02*
X778023D01*
X783865D02*
X787675D01*
X792628D02*
X801645D01*
X807106D02*
X810916D01*
X819933D02*
X823743D01*
X828696D02*
X830093D01*
X834919D02*
X836443D01*
X837967D02*
X839491D01*
X844317D02*
X845714D01*
X855239D02*
X857525D01*
X860700D02*
X863113D01*
X866288D02*
X868574D01*
X871241D02*
X874289D01*
X878353D02*
X880639D01*
X884957D02*
X887243D01*
X891688D02*
X893974D01*
X895879D02*
X901340D01*
X721508Y190700D02*
X727604D01*
X735605D02*
X741701D01*
X745384D02*
X762021D01*
X766720D02*
X778150D01*
X783738D02*
X787675D01*
X792755D02*
X801899D01*
X806979D02*
X810916D01*
X820060D02*
X823743D01*
X828569D02*
X830093D01*
X834919D02*
X836316D01*
X837967D02*
X839364D01*
X844317D02*
X845714D01*
X855112D02*
X857525D01*
X860573D02*
X863113D01*
X866161D02*
X868574D01*
X871241D02*
X874416D01*
X878353D02*
X880639D01*
X884957D02*
X887370D01*
X891561D02*
X893974D01*
X895752D02*
X901467D01*
X721508Y190573D02*
X727604D01*
X735605D02*
X741701D01*
X745384D02*
X762021D01*
X766847D02*
X778404D01*
X783738D02*
X787802D01*
X792882D02*
X802026D01*
X806979D02*
X810916D01*
X820060D02*
X823743D01*
X828569D02*
X829966D01*
X834919D02*
X836316D01*
X837840D02*
X839364D01*
X844190D02*
X845587D01*
X855112D02*
X857525D01*
X860573D02*
X863113D01*
X866161D02*
X868574D01*
X871114D02*
X874416D01*
X878353D02*
X880639D01*
X884957D02*
X887370D01*
X891561D02*
X893974D01*
X895625D02*
X901467D01*
X721508Y190446D02*
X727604D01*
X735605D02*
X741701D01*
X745384D02*
X762021D01*
X766974D02*
X778531D01*
X783738D02*
X787802D01*
X793136D02*
X802280D01*
X806979D02*
X810916D01*
X820060D02*
X823870D01*
X828442D02*
X829966D01*
X834792D02*
X836189D01*
X837840D02*
X839237D01*
X844190D02*
X845587D01*
X855112D02*
X857525D01*
X860573D02*
X863240D01*
X866161D02*
X868574D01*
X871114D02*
X874416D01*
X878353D02*
X880639D01*
X884957D02*
X887370D01*
X891561D02*
X893974D01*
X895498D02*
X901594D01*
X721508Y190319D02*
X727604D01*
X735605D02*
X741701D01*
X745384D02*
X762021D01*
X767101D02*
X778658D01*
X783738D02*
X787802D01*
X793263D02*
X802407D01*
X806979D02*
X810916D01*
X820060D02*
X823870D01*
X828442D02*
X829839D01*
X834792D02*
X836189D01*
X837713D02*
X839237D01*
X844063D02*
X845587D01*
X855239D02*
X857652D01*
X860446D02*
X863240D01*
X866161D02*
X868574D01*
X870987D02*
X874543D01*
X878353D02*
X880639D01*
X884957D02*
X887370D01*
X891561D02*
X893974D01*
X895371D02*
X901594D01*
X721508Y190192D02*
X727604D01*
X735605D02*
X741701D01*
X745384D02*
X762021D01*
X767228D02*
X778785D01*
X783738D02*
X787802D01*
X793390D02*
X802661D01*
X806979D02*
X810916D01*
X820060D02*
X823870D01*
X828315D02*
X829839D01*
X834665D02*
X836062D01*
X837713D02*
X839110D01*
X844063D02*
X845460D01*
X855239D02*
X857652D01*
X860446D02*
X863240D01*
X866161D02*
X868574D01*
X870987D02*
X874543D01*
X878353D02*
X880639D01*
X884957D02*
X887370D01*
X891561D02*
X893974D01*
X895371D02*
X901594D01*
X721508Y190065D02*
X727604D01*
X735605D02*
X741701D01*
X745384D02*
X762021D01*
X767355D02*
X778912D01*
X783738D02*
X787802D01*
X793644D02*
X802788D01*
X806979D02*
X810916D01*
X820060D02*
X823870D01*
X828315D02*
X829712D01*
X834665D02*
X836062D01*
X837586D02*
X839110D01*
X843936D02*
X845460D01*
X855239D02*
X857652D01*
X860446D02*
X863367D01*
X866034D02*
X868447D01*
X870987D02*
X874670D01*
X878353D02*
X880639D01*
X884957D02*
X887370D01*
X891561D02*
X893974D01*
X895244D02*
X901594D01*
X721508Y189938D02*
X727604D01*
X735605D02*
X741701D01*
X745384D02*
X762021D01*
X767482D02*
X778912D01*
X783738D02*
X787802D01*
X793898D02*
X802915D01*
X806979D02*
X810916D01*
X820060D02*
X823870D01*
X828188D02*
X829712D01*
X834538D02*
X835935D01*
X837586D02*
X838983D01*
X843936D02*
X845333D01*
X855239D02*
X857652D01*
X860446D02*
X863367D01*
X866034D02*
X868447D01*
X870860D02*
X874670D01*
X878353D02*
X880639D01*
X884957D02*
X887370D01*
X891561D02*
X893974D01*
X895244D02*
X901594D01*
X721508Y189811D02*
X727604D01*
X735605D02*
X741701D01*
X745384D02*
X762021D01*
X767609D02*
X779039D01*
X783738D02*
X787802D01*
X794025D02*
X803042D01*
X806979D02*
X810916D01*
X820060D02*
X823870D01*
X828188D02*
X829585D01*
X834538D02*
X835935D01*
X837586D02*
X838983D01*
X843809D02*
X845333D01*
X855239D02*
X857652D01*
X860319D02*
X863367D01*
X866034D02*
X868447D01*
X870860D02*
X874670D01*
X878353D02*
X880639D01*
X884957D02*
X887370D01*
X891561D02*
X893974D01*
X895117D02*
X901467D01*
X721508Y189684D02*
X727604D01*
X735605D02*
X741701D01*
X745384D02*
X762021D01*
X767736D02*
X779166D01*
X783738D02*
X787802D01*
X794406D02*
X803169D01*
X806979D02*
X810916D01*
X820060D02*
X823870D01*
X828061D02*
X829585D01*
X834411D02*
X835935D01*
X837459D02*
X838856D01*
X843809D02*
X845206D01*
X855366D02*
X857779D01*
X860319D02*
X863367D01*
X866034D02*
X868447D01*
X870860D02*
X874797D01*
X878353D02*
X880639D01*
X884957D02*
X887370D01*
X891561D02*
X893974D01*
X895117D02*
X901467D01*
X721508Y189557D02*
X727604D01*
X735605D02*
X741701D01*
X745384D02*
X762021D01*
X767990D02*
X779166D01*
X783738D02*
X787802D01*
X794660D02*
X803296D01*
X806979D02*
X810916D01*
X820060D02*
X823743D01*
X828061D02*
X829458D01*
X834411D02*
X835808D01*
X837459D02*
X838856D01*
X843682D02*
X845206D01*
X855366D02*
X857779D01*
X860319D02*
X863494D01*
X866034D02*
X868320D01*
X870733D02*
X874797D01*
X878353D02*
X880639D01*
X884957D02*
X887370D01*
X891561D02*
X893974D01*
X894990D02*
X901467D01*
X721508Y189430D02*
X727604D01*
X735605D02*
X741701D01*
X745384D02*
X762148D01*
X768117D02*
X779293D01*
X783738D02*
X787802D01*
X794914D02*
X803423D01*
X806979D02*
X810916D01*
X820060D02*
X823743D01*
X828061D02*
X829458D01*
X834284D02*
X835808D01*
X837332D02*
X838729D01*
X843682D02*
X845079D01*
X855366D02*
X857779D01*
X860192D02*
X863494D01*
X865907D02*
X868320D01*
X870733D02*
X874797D01*
X878353D02*
X880639D01*
X884957D02*
X887370D01*
X891561D02*
X893974D01*
X894990D02*
X898038D01*
X899054D02*
X901340D01*
X721508Y189303D02*
X727604D01*
X735605D02*
X741701D01*
X745384D02*
X762148D01*
X768371D02*
X779420D01*
X783738D02*
X787675D01*
X795295D02*
X803550D01*
X806979D02*
X810916D01*
X820060D02*
X823743D01*
X827934D02*
X829331D01*
X834284D02*
X835681D01*
X837332D02*
X838729D01*
X843555D02*
X845079D01*
X855366D02*
X857779D01*
X860192D02*
X863494D01*
X865907D02*
X868320D01*
X870733D02*
X874924D01*
X878353D02*
X880639D01*
X884957D02*
X887370D01*
X891561D02*
X893974D01*
X894990D02*
X897784D01*
X899562D02*
X901213D01*
X721508Y189176D02*
X727604D01*
X735605D02*
X741701D01*
X745384D02*
X762148D01*
X768625D02*
X779420D01*
X783865D02*
X787675D01*
X795676D02*
X803550D01*
X807106D02*
X810916D01*
X820060D02*
X823743D01*
X827934D02*
X829331D01*
X834157D02*
X835681D01*
X837205D02*
X838729D01*
X843555D02*
X844952D01*
X855493D02*
X857779D01*
X860192D02*
X863621D01*
X865907D02*
X868320D01*
X870606D02*
X874924D01*
X878353D02*
X880639D01*
X884957D02*
X887370D01*
X891561D02*
X893974D01*
X894863D02*
X897657D01*
X899816D02*
X901086D01*
X721508Y189049D02*
X727604D01*
X735605D02*
X741701D01*
X745384D02*
X762148D01*
X768879D02*
X779420D01*
X783865D02*
X787548D01*
X796184D02*
X803677D01*
X807106D02*
X810916D01*
X820060D02*
X823743D01*
X827807D02*
X829204D01*
X834157D02*
X835554D01*
X837205D02*
X838602D01*
X843428D02*
X844952D01*
X855493D02*
X857906D01*
X860065D02*
X863621D01*
X865907D02*
X868320D01*
X870606D02*
X874924D01*
X878353D02*
X880639D01*
X884957D02*
X887370D01*
X891561D02*
X893974D01*
X894863D02*
X897530D01*
X721508Y188922D02*
X727731D01*
X735605D02*
X741701D01*
X745384D02*
X762021D01*
X769133D02*
X779547D01*
X783992D02*
X787548D01*
X796565D02*
X803804D01*
X807106D02*
X810916D01*
X819933D02*
X823743D01*
X827807D02*
X829204D01*
X834030D02*
X835554D01*
X837078D02*
X838602D01*
X843428D02*
X844825D01*
X855493D02*
X857906D01*
X860065D02*
X863621D01*
X865907D02*
X868193D01*
X870479D02*
X872638D01*
X872892D02*
X875051D01*
X878353D02*
X880639D01*
X884957D02*
X887370D01*
X891561D02*
X893974D01*
X894863D02*
X897403D01*
X721508Y188795D02*
X727731D01*
X735605D02*
X741701D01*
X745384D02*
X761894D01*
X769387D02*
X779547D01*
X783992D02*
X787421D01*
X796946D02*
X803804D01*
X807106D02*
X810916D01*
X819933D02*
X823743D01*
X827680D02*
X829077D01*
X834030D02*
X835427D01*
X837078D02*
X838475D01*
X843428D02*
X844825D01*
X855493D02*
X857906D01*
X860065D02*
X863748D01*
X865780D02*
X868193D01*
X870479D02*
X872638D01*
X872892D02*
X875051D01*
X878353D02*
X880639D01*
X884957D02*
X887370D01*
X891561D02*
X893974D01*
X894863D02*
X897403D01*
X721508Y188668D02*
X727731D01*
X735605D02*
X741701D01*
X745384D02*
X755544D01*
X769768D02*
X779674D01*
X784119D02*
X787294D01*
X797327D02*
X803931D01*
X807106D02*
X810916D01*
X819933D02*
X823743D01*
X827680D02*
X829077D01*
X833903D02*
X835427D01*
X836951D02*
X838475D01*
X843301D02*
X844698D01*
X855493D02*
X857906D01*
X860065D02*
X863748D01*
X865780D02*
X868193D01*
X870479D02*
X872638D01*
X872892D02*
X875051D01*
X878353D02*
X880639D01*
X884957D02*
X887370D01*
X891561D02*
X893974D01*
X894863D02*
X897403D01*
X721508Y188541D02*
X727731D01*
X735605D02*
X741701D01*
X745384D02*
X751099D01*
X770149D02*
X779674D01*
X784246D02*
X787294D01*
X797708D02*
X803931D01*
X807106D02*
X810916D01*
X819933D02*
X823743D01*
X827553D02*
X829077D01*
X833903D02*
X835300D01*
X836951D02*
X838348D01*
X843301D02*
X844698D01*
X855620D02*
X857906D01*
X859938D02*
X863748D01*
X865780D02*
X868193D01*
X870352D02*
X872511D01*
X873019D02*
X875178D01*
X878353D02*
X880639D01*
X884957D02*
X887370D01*
X891561D02*
X893974D01*
X894863D02*
X897403D01*
X721508Y188414D02*
X727731D01*
X735605D02*
X741701D01*
X745384D02*
X751099D01*
X770530D02*
X779674D01*
X784373D02*
X787167D01*
X798089D02*
X804058D01*
X807106D02*
X810916D01*
X819933D02*
X823743D01*
X827553D02*
X828950D01*
X833903D02*
X835300D01*
X836824D02*
X838348D01*
X843174D02*
X844571D01*
X855620D02*
X858033D01*
X859938D02*
X863748D01*
X865780D02*
X868066D01*
X870352D02*
X872511D01*
X873019D02*
X875178D01*
X878353D02*
X880639D01*
X884957D02*
X887370D01*
X891561D02*
X893974D01*
X894863D02*
X897403D01*
X721508Y188287D02*
X727731D01*
X735605D02*
X741701D01*
X745511D02*
X751099D01*
X770784D02*
X779674D01*
X784500D02*
X786913D01*
X798470D02*
X804058D01*
X807106D02*
X810916D01*
X819933D02*
X823743D01*
X827426D02*
X828950D01*
X833776D02*
X835173D01*
X836824D02*
X838221D01*
X843174D02*
X844571D01*
X855620D02*
X858033D01*
X859938D02*
X863875D01*
X865780D02*
X868066D01*
X870352D02*
X872511D01*
X873019D02*
X875305D01*
X878353D02*
X880639D01*
X884957D02*
X887370D01*
X891561D02*
X893974D01*
X894863D02*
X897530D01*
X721508Y188160D02*
X727731D01*
X735605D02*
X741828D01*
X745511D02*
X751099D01*
X771165D02*
X779801D01*
X784754D02*
X786786D01*
X798851D02*
X804058D01*
X807106D02*
X810916D01*
X819933D02*
X823743D01*
X827426D02*
X828823D01*
X833776D02*
X835173D01*
X836697D02*
X838221D01*
X843047D02*
X844571D01*
X855620D02*
X858033D01*
X859811D02*
X863875D01*
X865653D02*
X868066D01*
X870225D02*
X872511D01*
X873146D02*
X875305D01*
X878353D02*
X880639D01*
X884957D02*
X887370D01*
X891561D02*
X893974D01*
X894863D02*
X897657D01*
X721508Y188033D02*
X727731D01*
X735605D02*
X741828D01*
X745511D02*
X751226D01*
X771546D02*
X779801D01*
X785008D02*
X786405D01*
X799105D02*
X804185D01*
X807106D02*
X811043D01*
X819933D02*
X823743D01*
X827299D02*
X828823D01*
X833649D02*
X835046D01*
X836697D02*
X838094D01*
X843047D02*
X844444D01*
X855747D02*
X858033D01*
X859811D02*
X863875D01*
X865653D02*
X868066D01*
X870225D02*
X872384D01*
X873146D02*
X875305D01*
X878353D02*
X880639D01*
X884957D02*
X887370D01*
X891561D02*
X893974D01*
X894863D02*
X897784D01*
X721508Y187906D02*
X727731D01*
X735605D02*
X741828D01*
X745511D02*
X751226D01*
X771927D02*
X779801D01*
X799359D02*
X804185D01*
X807233D02*
X811043D01*
X819806D02*
X823616D01*
X827299D02*
X828696D01*
X833649D02*
X835046D01*
X836697D02*
X838094D01*
X842920D02*
X844444D01*
X855747D02*
X858033D01*
X859811D02*
X864002D01*
X865653D02*
X867939D01*
X870098D02*
X872384D01*
X873146D02*
X875432D01*
X878353D02*
X880639D01*
X884957D02*
X887370D01*
X891561D02*
X893974D01*
X894863D02*
X898038D01*
X721508Y187779D02*
X727731D01*
X735605D02*
X741828D01*
X745511D02*
X751226D01*
X772308D02*
X779801D01*
X799486D02*
X804185D01*
X807233D02*
X811043D01*
X819806D02*
X823616D01*
X827172D02*
X828696D01*
X833522D02*
X834919D01*
X836570D02*
X837967D01*
X842920D02*
X844317D01*
X855747D02*
X858160D01*
X859684D02*
X864002D01*
X865653D02*
X867939D01*
X870098D02*
X872384D01*
X873273D02*
X875432D01*
X878353D02*
X880639D01*
X884957D02*
X887370D01*
X891561D02*
X893974D01*
X894863D02*
X898419D01*
X721508Y187652D02*
X727731D01*
X735605D02*
X741828D01*
X745511D02*
X751226D01*
X772562D02*
X779801D01*
X799740D02*
X804185D01*
X807233D02*
X811043D01*
X819806D02*
X823616D01*
X827172D02*
X828569D01*
X833522D02*
X834919D01*
X836570D02*
X837967D01*
X842793D02*
X844317D01*
X855747D02*
X858160D01*
X859684D02*
X864002D01*
X865653D02*
X867939D01*
X870098D02*
X872257D01*
X873273D02*
X875432D01*
X878353D02*
X880639D01*
X884957D02*
X887370D01*
X891561D02*
X893974D01*
X894863D02*
X898800D01*
X721508Y187525D02*
X727731D01*
X735605D02*
X741828D01*
X745638D02*
X751353D01*
X772816D02*
X779801D01*
X799867D02*
X804312D01*
X807233D02*
X811043D01*
X819806D02*
X823616D01*
X827045D02*
X828569D01*
X833395D02*
X834919D01*
X836443D02*
X837840D01*
X842793D02*
X844190D01*
X855874D02*
X858160D01*
X859684D02*
X864002D01*
X865526D02*
X867939D01*
X869971D02*
X872257D01*
X873273D02*
X875559D01*
X878353D02*
X880639D01*
X884957D02*
X887370D01*
X891561D02*
X893974D01*
X894863D02*
X899308D01*
X721508Y187398D02*
X727731D01*
X735605D02*
X741828D01*
X745638D02*
X751353D01*
X773070D02*
X779801D01*
X799994D02*
X804312D01*
X807233D02*
X811170D01*
X819806D02*
X823616D01*
X827045D02*
X828442D01*
X833395D02*
X834792D01*
X836443D02*
X837840D01*
X842666D02*
X844190D01*
X855874D02*
X858160D01*
X859684D02*
X864129D01*
X865526D02*
X867939D01*
X869971D02*
X872257D01*
X873400D02*
X875559D01*
X878353D02*
X880639D01*
X884957D02*
X887370D01*
X891561D02*
X893974D01*
X894990D02*
X899689D01*
X721508Y187271D02*
X727731D01*
X735605D02*
X741828D01*
X745638D02*
X751480D01*
X773324D02*
X779801D01*
X800121D02*
X804312D01*
X807360D02*
X811170D01*
X819679D02*
X823489D01*
X827045D02*
X828442D01*
X833268D02*
X834792D01*
X836316D02*
X837713D01*
X842666D02*
X844063D01*
X855874D02*
X858160D01*
X859557D02*
X861843D01*
X861970D02*
X864129D01*
X865526D02*
X867812D01*
X869971D02*
X872130D01*
X873400D02*
X875559D01*
X878353D02*
X880639D01*
X884957D02*
X887370D01*
X891561D02*
X893974D01*
X894990D02*
X900070D01*
X721508Y187144D02*
X727731D01*
X735605D02*
X741828D01*
X745638D02*
X751480D01*
X773451D02*
X779801D01*
X800248D02*
X804312D01*
X807360D02*
X811170D01*
X819679D02*
X823489D01*
X826918D02*
X828315D01*
X833268D02*
X834665D01*
X836316D02*
X837713D01*
X842539D02*
X844063D01*
X855874D02*
X858287D01*
X859557D02*
X861716D01*
X861970D02*
X864129D01*
X865526D02*
X867812D01*
X869844D02*
X872130D01*
X873400D02*
X875686D01*
X878353D02*
X880639D01*
X884957D02*
X887370D01*
X891561D02*
X893974D01*
X895117D02*
X900324D01*
X721508Y187017D02*
X727731D01*
X735605D02*
X741828D01*
X745765D02*
X751607D01*
X773578D02*
X779801D01*
X800248D02*
X804312D01*
X807360D02*
X811297D01*
X819679D02*
X823489D01*
X826918D02*
X828315D01*
X833141D02*
X834665D01*
X836189D02*
X837713D01*
X842539D02*
X843936D01*
X856001D02*
X858287D01*
X859557D02*
X861716D01*
X861970D02*
X864256D01*
X865526D02*
X867812D01*
X869844D02*
X872130D01*
X873527D02*
X875686D01*
X878353D02*
X880639D01*
X884957D02*
X887370D01*
X891561D02*
X893974D01*
X895117D02*
X900578D01*
X721508Y186890D02*
X727731D01*
X735605D02*
X741828D01*
X745765D02*
X751734D01*
X773705D02*
X779801D01*
X800375D02*
X804312D01*
X807360D02*
X811297D01*
X819679D02*
X823489D01*
X826791D02*
X828188D01*
X833141D02*
X834538D01*
X836189D02*
X837586D01*
X842412D02*
X843936D01*
X856001D02*
X858287D01*
X859430D02*
X861716D01*
X862097D02*
X864256D01*
X865399D02*
X867812D01*
X869717D02*
X872003D01*
X873527D02*
X875813D01*
X878353D02*
X880639D01*
X884957D02*
X887370D01*
X891561D02*
X893974D01*
X895244D02*
X900832D01*
X721508Y186763D02*
X727731D01*
X735605D02*
X741828D01*
X745765D02*
X751734D01*
X773705D02*
X779801D01*
X800375D02*
X804312D01*
X807487D02*
X811297D01*
X819552D02*
X823362D01*
X826791D02*
X828188D01*
X833014D02*
X834538D01*
X836062D02*
X837586D01*
X842412D02*
X843809D01*
X856001D02*
X858287D01*
X859430D02*
X861716D01*
X862097D02*
X864256D01*
X865399D02*
X867685D01*
X869717D02*
X872003D01*
X873527D02*
X875813D01*
X878353D02*
X880639D01*
X884957D02*
X887370D01*
X891561D02*
X893974D01*
X895244D02*
X901086D01*
X721508Y186636D02*
X727731D01*
X735605D02*
X741828D01*
X745892D02*
X751861D01*
X773832D02*
X779801D01*
X800502D02*
X804312D01*
X807487D02*
X811424D01*
X819552D02*
X823362D01*
X826664D02*
X828061D01*
X833014D02*
X834411D01*
X836062D02*
X837459D01*
X842412D02*
X843809D01*
X856001D02*
X858287D01*
X859430D02*
X861589D01*
X862097D02*
X864383D01*
X865399D02*
X867685D01*
X869717D02*
X872003D01*
X873654D02*
X875813D01*
X878353D02*
X880639D01*
X884957D02*
X887370D01*
X891561D02*
X893974D01*
X895371D02*
X901213D01*
X721508Y186509D02*
X727731D01*
X735605D02*
X741828D01*
X745892D02*
X751988D01*
X773832D02*
X779801D01*
X800502D02*
X804312D01*
X807487D02*
X811424D01*
X819425D02*
X823362D01*
X826664D02*
X828061D01*
X832887D02*
X834411D01*
X835935D02*
X837459D01*
X842285D02*
X843682D01*
X856001D02*
X858414D01*
X859303D02*
X861589D01*
X862097D02*
X864383D01*
X865399D02*
X867685D01*
X869590D02*
X871876D01*
X873654D02*
X875940D01*
X878353D02*
X880639D01*
X884957D02*
X887370D01*
X891561D02*
X893974D01*
X895498D02*
X901467D01*
X721508Y186382D02*
X727731D01*
X735605D02*
X741828D01*
X745892D02*
X752115D01*
X761005D02*
X761259D01*
X766339D02*
X766466D01*
X773832D02*
X779801D01*
X800502D02*
X804312D01*
X807614D02*
X811551D01*
X819425D02*
X823362D01*
X826537D02*
X828061D01*
X832887D02*
X834284D01*
X835935D02*
X837332D01*
X842285D02*
X843682D01*
X856128D02*
X858414D01*
X859303D02*
X861589D01*
X862224D02*
X864383D01*
X865399D02*
X867685D01*
X869590D02*
X871876D01*
X873654D02*
X875940D01*
X878353D02*
X880639D01*
X884957D02*
X887370D01*
X891561D02*
X893974D01*
X895625D02*
X901594D01*
X721508Y186255D02*
X727731D01*
X735605D02*
X741828D01*
X746019D02*
X752242D01*
X760751D02*
X761513D01*
X766085D02*
X766720D01*
X773959D02*
X779801D01*
X800502D02*
X804312D01*
X807614D02*
X811551D01*
X819425D02*
X823235D01*
X826537D02*
X827934D01*
X832760D02*
X834284D01*
X835808D02*
X837332D01*
X842158D02*
X843555D01*
X856128D02*
X858414D01*
X859303D02*
X861462D01*
X862224D02*
X864383D01*
X865272D02*
X867558D01*
X869590D02*
X871876D01*
X873654D02*
X875940D01*
X878353D02*
X880639D01*
X884957D02*
X887370D01*
X891561D02*
X893974D01*
X895752D02*
X901721D01*
X721508Y186128D02*
X727731D01*
X735605D02*
X741828D01*
X746019D02*
X752369D01*
X760497D02*
X761513D01*
X766085D02*
X766847D01*
X773959D02*
X779801D01*
X800502D02*
X804312D01*
X807614D02*
X811678D01*
X819298D02*
X823235D01*
X826410D02*
X827934D01*
X832760D02*
X834157D01*
X835808D02*
X837205D01*
X842158D02*
X843555D01*
X856128D02*
X858414D01*
X859303D02*
X861462D01*
X862224D02*
X864510D01*
X865272D02*
X867558D01*
X869463D02*
X871749D01*
X873781D02*
X876067D01*
X878353D02*
X880639D01*
X884957D02*
X887370D01*
X891561D02*
X893974D01*
X896006D02*
X901721D01*
X721508Y186001D02*
X727731D01*
X735605D02*
X741828D01*
X746146D02*
X752496D01*
X760243D02*
X761386D01*
X766085D02*
X766974D01*
X773832D02*
X779801D01*
X800502D02*
X804312D01*
X807741D02*
X811678D01*
X819298D02*
X823108D01*
X826410D02*
X827807D01*
X832760D02*
X834157D01*
X835681D02*
X837205D01*
X842031D02*
X843555D01*
X856128D02*
X858414D01*
X859176D02*
X861462D01*
X862351D02*
X864510D01*
X865272D02*
X867558D01*
X869463D02*
X871749D01*
X873781D02*
X876067D01*
X878353D02*
X880639D01*
X884957D02*
X887370D01*
X891561D02*
X893974D01*
X896260D02*
X901848D01*
X721508Y185874D02*
X727731D01*
X735605D02*
X741828D01*
X746146D02*
X752750D01*
X759989D02*
X761386D01*
X765958D02*
X767228D01*
X773832D02*
X779801D01*
X800375D02*
X804312D01*
X807741D02*
X811805D01*
X819171D02*
X823108D01*
X826283D02*
X827807D01*
X832633D02*
X834030D01*
X835681D02*
X837078D01*
X842031D02*
X843428D01*
X856255D02*
X858541D01*
X859176D02*
X861335D01*
X862351D02*
X864510D01*
X865272D02*
X867558D01*
X869463D02*
X871749D01*
X873781D02*
X876067D01*
X878353D02*
X880639D01*
X884957D02*
X887370D01*
X891561D02*
X893974D01*
X896514D02*
X901975D01*
X721508Y185747D02*
X727731D01*
X735605D02*
X741828D01*
X746146D02*
X752877D01*
X759608D02*
X761386D01*
X765958D02*
X767355D01*
X773832D02*
X779801D01*
X800375D02*
X804312D01*
X807741D02*
X811805D01*
X819044D02*
X823108D01*
X826283D02*
X827680D01*
X832633D02*
X834030D01*
X835681D02*
X837078D01*
X841904D02*
X843428D01*
X856255D02*
X858541D01*
X859176D02*
X861335D01*
X862351D02*
X864637D01*
X865272D02*
X867558D01*
X869336D02*
X871622D01*
X873908D02*
X876194D01*
X878353D02*
X880639D01*
X884957D02*
X887370D01*
X891561D02*
X893974D01*
X896768D02*
X901975D01*
X721508Y185620D02*
X727731D01*
X735605D02*
X741828D01*
X746273D02*
X753131D01*
X759354D02*
X761386D01*
X765958D02*
X767609D01*
X773705D02*
X779674D01*
X800375D02*
X804185D01*
X807868D02*
X811932D01*
X819044D02*
X822981D01*
X826156D02*
X827680D01*
X832506D02*
X833903D01*
X835554D02*
X836951D01*
X841904D02*
X843301D01*
X856255D02*
X858541D01*
X859049D02*
X861335D01*
X862478D02*
X864637D01*
X865145D02*
X867431D01*
X869336D02*
X871622D01*
X873908D02*
X876194D01*
X878353D02*
X880639D01*
X884957D02*
X887370D01*
X891561D02*
X893974D01*
X897149D02*
X902102D01*
X721508Y185493D02*
X727731D01*
X735605D02*
X741828D01*
X746273D02*
X753385D01*
X758973D02*
X761386D01*
X765958D02*
X767863D01*
X773578D02*
X779674D01*
X800248D02*
X804185D01*
X807868D02*
X812059D01*
X818917D02*
X822981D01*
X826156D02*
X827553D01*
X832506D02*
X833903D01*
X835554D02*
X836951D01*
X841777D02*
X843301D01*
X856255D02*
X858541D01*
X859049D02*
X861335D01*
X862478D02*
X864637D01*
X865145D02*
X867431D01*
X869209D02*
X871622D01*
X873908D02*
X876194D01*
X878353D02*
X880639D01*
X884957D02*
X887370D01*
X891561D02*
X893974D01*
X897530D02*
X902102D01*
X721508Y185366D02*
X727731D01*
X735605D02*
X741828D01*
X746400D02*
X753766D01*
X758465D02*
X761386D01*
X765958D02*
X768117D01*
X773578D02*
X779674D01*
X791866D02*
X792501D01*
X800248D02*
X804185D01*
X807995D02*
X812186D01*
X818790D02*
X822854D01*
X826029D02*
X827553D01*
X832379D02*
X833903D01*
X835427D02*
X836824D01*
X841777D02*
X843174D01*
X856382D02*
X858541D01*
X859049D02*
X861208D01*
X862478D02*
X864764D01*
X865145D02*
X867431D01*
X869209D02*
X871495D01*
X874035D02*
X876321D01*
X878353D02*
X880639D01*
X884957D02*
X887370D01*
X891561D02*
X893974D01*
X898038D02*
X902229D01*
X721508Y185239D02*
X727731D01*
X735605D02*
X741828D01*
X746527D02*
X754147D01*
X757957D02*
X761386D01*
X765958D02*
X768498D01*
X773451D02*
X779674D01*
X791866D02*
X792628D01*
X800121D02*
X804185D01*
X807995D02*
X812186D01*
X818663D02*
X822854D01*
X826029D02*
X827426D01*
X832379D02*
X833776D01*
X835427D02*
X836824D01*
X841650D02*
X843174D01*
X856382D02*
X858668D01*
X859049D02*
X861208D01*
X862478D02*
X864764D01*
X865145D02*
X867431D01*
X869209D02*
X871495D01*
X874035D02*
X876321D01*
X878353D02*
X880639D01*
X884957D02*
X887370D01*
X891561D02*
X893974D01*
X898419D02*
X902229D01*
X721508Y185112D02*
X727731D01*
X735605D02*
X741828D01*
X746527D02*
X754782D01*
X757195D02*
X761386D01*
X765958D02*
X768752D01*
X773197D02*
X779547D01*
X791866D02*
X792882D01*
X799994D02*
X804058D01*
X808122D02*
X812313D01*
X818663D02*
X822727D01*
X826029D02*
X827426D01*
X832252D02*
X833776D01*
X835300D02*
X836824D01*
X841650D02*
X843047D01*
X856382D02*
X858668D01*
X858922D02*
X861208D01*
X862605D02*
X864764D01*
X865145D02*
X867304D01*
X869082D02*
X876448D01*
X878353D02*
X880639D01*
X884957D02*
X887370D01*
X891561D02*
X893974D01*
X898800D02*
X902229D01*
X721508Y184985D02*
X727731D01*
X735605D02*
X741828D01*
X746654D02*
X761386D01*
X765958D02*
X769133D01*
X773070D02*
X779547D01*
X791866D02*
X793009D01*
X799867D02*
X804058D01*
X808122D02*
X812440D01*
X818536D02*
X822727D01*
X825902D02*
X827299D01*
X832252D02*
X833649D01*
X835300D02*
X836697D01*
X841523D02*
X843047D01*
X856382D02*
X858668D01*
X858922D02*
X861081D01*
X862605D02*
X864764D01*
X865018D02*
X867304D01*
X869082D02*
X876448D01*
X878353D02*
X880639D01*
X884957D02*
X887370D01*
X891561D02*
X893974D01*
X899054D02*
X902229D01*
X721508Y184858D02*
X727731D01*
X735605D02*
X741828D01*
X746654D02*
X761386D01*
X765958D02*
X769641D01*
X772689D02*
X779420D01*
X791866D02*
X793263D01*
X799740D02*
X804058D01*
X808249D02*
X812694D01*
X818282D02*
X822600D01*
X825902D02*
X827299D01*
X832125D02*
X833649D01*
X835173D02*
X836697D01*
X841523D02*
X842920D01*
X856382D02*
X858668D01*
X858922D02*
X861081D01*
X862605D02*
X864891D01*
X865018D02*
X867304D01*
X869082D02*
X876448D01*
X878353D02*
X880639D01*
X884957D02*
X887370D01*
X891561D02*
X893974D01*
X899308D02*
X902229D01*
X721508Y184731D02*
X727731D01*
X735605D02*
X741828D01*
X746781D02*
X761386D01*
X765958D02*
X770276D01*
X772308D02*
X779420D01*
X791866D02*
X793517D01*
X799613D02*
X803931D01*
X808376D02*
X812821D01*
X818155D02*
X822473D01*
X825775D02*
X827172D01*
X832125D02*
X833522D01*
X835173D02*
X836570D01*
X841396D02*
X842920D01*
X856509D02*
X858668D01*
X858795D02*
X861081D01*
X862732D02*
X864891D01*
X865018D02*
X867304D01*
X868955D02*
X876575D01*
X878353D02*
X880639D01*
X884957D02*
X887370D01*
X891561D02*
X893974D01*
X899562D02*
X902229D01*
X721508Y184604D02*
X727731D01*
X735605D02*
X741828D01*
X746908D02*
X761386D01*
X765958D02*
X779420D01*
X791866D02*
X793771D01*
X799486D02*
X803931D01*
X808376D02*
X812948D01*
X818028D02*
X822473D01*
X825775D02*
X827172D01*
X831998D02*
X833522D01*
X835046D02*
X836570D01*
X841396D02*
X842793D01*
X856509D02*
X860954D01*
X862732D02*
X864891D01*
X865018D02*
X867177D01*
X868955D02*
X876575D01*
X878353D02*
X880639D01*
X884957D02*
X887370D01*
X891561D02*
X893974D01*
X899689D02*
X902229D01*
X721508Y184477D02*
X727731D01*
X735605D02*
X741828D01*
X746908D02*
X761386D01*
X765958D02*
X779293D01*
X791866D02*
X794025D01*
X799232D02*
X803804D01*
X808503D02*
X813202D01*
X817774D02*
X822346D01*
X825648D02*
X827172D01*
X831998D02*
X833395D01*
X835046D02*
X836443D01*
X841269D02*
X842793D01*
X856509D02*
X860954D01*
X862732D02*
X867177D01*
X868828D02*
X876575D01*
X878353D02*
X880639D01*
X884957D02*
X887370D01*
X891561D02*
X893974D01*
X899689D02*
X902229D01*
X721508Y184350D02*
X727731D01*
X735605D02*
X741955D01*
X747035D02*
X761386D01*
X765958D02*
X779293D01*
X791739D02*
X794406D01*
X798978D02*
X803804D01*
X808630D02*
X813456D01*
X817647D02*
X822219D01*
X825648D02*
X827045D01*
X831871D02*
X833395D01*
X834919D02*
X836443D01*
X841269D02*
X842666D01*
X856509D02*
X860954D01*
X862859D02*
X867177D01*
X868828D02*
X876702D01*
X878353D02*
X880639D01*
X884957D02*
X887370D01*
X891561D02*
X893974D01*
X899816D02*
X902229D01*
X721508Y184223D02*
X727858D01*
X735605D02*
X741955D01*
X747162D02*
X761386D01*
X765958D02*
X779166D01*
X791739D02*
X794914D01*
X798724D02*
X803677D01*
X808630D02*
X813710D01*
X817393D02*
X822219D01*
X825521D02*
X827045D01*
X831871D02*
X833268D01*
X834919D02*
X836316D01*
X841269D02*
X842666D01*
X856636D02*
X860954D01*
X862859D02*
X867177D01*
X868828D02*
X876702D01*
X878353D02*
X880639D01*
X884957D02*
X887370D01*
X891561D02*
X893974D01*
X899816D02*
X902229D01*
X721508Y184096D02*
X727858D01*
X735605D02*
X741955D01*
X747289D02*
X761259D01*
X765958D02*
X779039D01*
X791739D02*
X795422D01*
X798216D02*
X803677D01*
X808757D02*
X813964D01*
X817012D02*
X822092D01*
X825521D02*
X826918D01*
X831744D02*
X833268D01*
X834792D02*
X836316D01*
X841142D02*
X842539D01*
X856636D02*
X860827D01*
X862859D02*
X867177D01*
X868701D02*
X876702D01*
X878353D02*
X880639D01*
X884957D02*
X887370D01*
X891561D02*
X893974D01*
X899816D02*
X902229D01*
X721508Y183969D02*
X727858D01*
X735605D02*
X741955D01*
X747416D02*
X761259D01*
X765958D02*
X779039D01*
X791739D02*
X796438D01*
X797327D02*
X803550D01*
X808884D02*
X814472D01*
X816504D02*
X821965D01*
X825394D02*
X826918D01*
X831744D02*
X833141D01*
X834792D02*
X836189D01*
X841142D02*
X842539D01*
X856636D02*
X860827D01*
X862859D02*
X867050D01*
X868701D02*
X876829D01*
X878353D02*
X880639D01*
X884957D02*
X887370D01*
X891561D02*
X893974D01*
X899816D02*
X902229D01*
X721508Y183842D02*
X727858D01*
X735605D02*
X741955D01*
X747543D02*
X761259D01*
X765958D02*
X778912D01*
X791739D02*
X803423D01*
X809011D02*
X821838D01*
X825394D02*
X826791D01*
X831744D02*
X833141D01*
X834665D02*
X836189D01*
X841015D02*
X842412D01*
X856636D02*
X860827D01*
X862986D02*
X867050D01*
X868701D02*
X876829D01*
X878353D02*
X880639D01*
X884957D02*
X887370D01*
X891561D02*
X893974D01*
X899689D02*
X902229D01*
X721508Y183715D02*
X727858D01*
X735605D02*
X741955D01*
X747670D02*
X761259D01*
X765831D02*
X778785D01*
X791739D02*
X803296D01*
X809138D02*
X821711D01*
X825267D02*
X826791D01*
X831617D02*
X833014D01*
X834665D02*
X836062D01*
X841015D02*
X842412D01*
X856763D02*
X860700D01*
X862986D02*
X867050D01*
X868574D02*
X876956D01*
X878353D02*
X880639D01*
X884957D02*
X887370D01*
X891561D02*
X893974D01*
X899689D02*
X902229D01*
X721508Y183588D02*
X727858D01*
X735605D02*
X741955D01*
X747797D02*
X761259D01*
X765831D02*
X778785D01*
X791739D02*
X803296D01*
X809265D02*
X821584D01*
X825267D02*
X826664D01*
X831617D02*
X833014D01*
X834665D02*
X836062D01*
X840888D02*
X842412D01*
X856763D02*
X860700D01*
X862986D02*
X867050D01*
X868574D02*
X876956D01*
X878353D02*
X880639D01*
X884957D02*
X887370D01*
X891561D02*
X893974D01*
X899562D02*
X902229D01*
X721508Y183461D02*
X727858D01*
X735605D02*
X741955D01*
X747924D02*
X761259D01*
X765831D02*
X778658D01*
X791739D02*
X803169D01*
X809392D02*
X821457D01*
X825140D02*
X826664D01*
X831490D02*
X832887D01*
X834538D02*
X835935D01*
X840888D02*
X842285D01*
X856763D02*
X860700D01*
X863113D02*
X866923D01*
X868574D02*
X876956D01*
X878353D02*
X880639D01*
X884957D02*
X887370D01*
X891561D02*
X893974D01*
X895371D02*
X896514D01*
X899562D02*
X902229D01*
X721508Y183334D02*
X727858D01*
X735605D02*
X741955D01*
X748051D02*
X761259D01*
X765831D02*
X778531D01*
X791739D02*
X803042D01*
X809519D02*
X821330D01*
X825140D02*
X826537D01*
X831490D02*
X832887D01*
X834538D02*
X835935D01*
X840761D02*
X842285D01*
X856763D02*
X860573D01*
X863113D02*
X866923D01*
X868447D02*
X877083D01*
X878353D02*
X880639D01*
X884957D02*
X887370D01*
X891561D02*
X893974D01*
X895117D02*
X896895D01*
X899435D02*
X902229D01*
X721508Y183207D02*
X727858D01*
X735605D02*
X741955D01*
X748178D02*
X761259D01*
X765831D02*
X778404D01*
X791739D02*
X802915D01*
X809646D02*
X821203D01*
X825013D02*
X826537D01*
X831363D02*
X832887D01*
X834411D02*
X835808D01*
X840761D02*
X842158D01*
X856763D02*
X860573D01*
X863113D02*
X866923D01*
X868447D02*
X877083D01*
X878353D02*
X880639D01*
X884957D02*
X887370D01*
X891561D02*
X893974D01*
X894990D02*
X897149D01*
X899181D02*
X902229D01*
X721508Y183080D02*
X727858D01*
X735478D02*
X741955D01*
X748305D02*
X761259D01*
X765831D02*
X778277D01*
X791739D02*
X802788D01*
X809773D02*
X821076D01*
X825013D02*
X826410D01*
X831363D02*
X832760D01*
X834411D02*
X835808D01*
X840634D02*
X842158D01*
X856890D02*
X860573D01*
X863240D02*
X866923D01*
X868320D02*
X877083D01*
X878353D02*
X880639D01*
X884957D02*
X887370D01*
X891561D02*
X893974D01*
X894990D02*
X897657D01*
X898927D02*
X902229D01*
X721508Y182953D02*
X727858D01*
X735478D02*
X741955D01*
X748559D02*
X761259D01*
X765831D02*
X778150D01*
X791739D02*
X802534D01*
X810027D02*
X820949D01*
X825013D02*
X826410D01*
X831236D02*
X832760D01*
X834284D02*
X835681D01*
X840634D02*
X842031D01*
X856890D02*
X860573D01*
X863240D02*
X866796D01*
X868320D02*
X870733D01*
X874797D02*
X877210D01*
X878353D02*
X883814D01*
X884957D02*
X890545D01*
X891561D02*
X893974D01*
X894863D02*
X902102D01*
X721508Y182826D02*
X727858D01*
X735478D02*
X741955D01*
X748686D02*
X761259D01*
X765831D02*
X777896D01*
X791612D02*
X802407D01*
X810154D02*
X820822D01*
X824886D02*
X826283D01*
X831236D02*
X832633D01*
X834284D02*
X835681D01*
X840507D02*
X842031D01*
X856890D02*
X860446D01*
X863240D02*
X866796D01*
X868320D02*
X870733D01*
X874797D02*
X877210D01*
X878353D02*
X884068D01*
X884957D02*
X890672D01*
X891561D02*
X893974D01*
X894863D02*
X902102D01*
X721508Y182699D02*
X727858D01*
X735478D02*
X741955D01*
X748940D02*
X761259D01*
X765831D02*
X777769D01*
X791612D02*
X802280D01*
X810281D02*
X820568D01*
X824886D02*
X826283D01*
X831109D02*
X832633D01*
X834157D02*
X835681D01*
X840507D02*
X841904D01*
X856890D02*
X860446D01*
X863240D02*
X866796D01*
X868193D02*
X870733D01*
X874924D02*
X877210D01*
X878353D02*
X884195D01*
X884957D02*
X890799D01*
X891561D02*
X893974D01*
X894863D02*
X901975D01*
X721508Y182572D02*
X727858D01*
X735478D02*
X741955D01*
X749067D02*
X761259D01*
X765831D02*
X777515D01*
X791612D02*
X802026D01*
X810535D02*
X820441D01*
X824886D02*
X826156D01*
X831109D02*
X832506D01*
X834157D02*
X835554D01*
X840380D02*
X841904D01*
X857017D02*
X860446D01*
X863367D02*
X866796D01*
X868193D02*
X870606D01*
X874924D02*
X877337D01*
X878353D02*
X884322D01*
X884957D02*
X890926D01*
X891561D02*
X893974D01*
X894736D02*
X901975D01*
X721381Y182445D02*
X727858D01*
X735478D02*
X741955D01*
X749321D02*
X761132D01*
X765831D02*
X777388D01*
X791739D02*
X801899D01*
X810789D02*
X820187D01*
X824759D02*
X826156D01*
X830982D02*
X832506D01*
X834157D02*
X835554D01*
X840380D02*
X841777D01*
X857017D02*
X860319D01*
X863367D02*
X866669D01*
X868193D02*
X870606D01*
X874924D02*
X877337D01*
X878353D02*
X884322D01*
X884957D02*
X890926D01*
X891561D02*
X893974D01*
X894736D02*
X901848D01*
X721381Y182318D02*
X727858D01*
X735478D02*
X741955D01*
X749575D02*
X761005D01*
X765958D02*
X777134D01*
X791866D02*
X801645D01*
X811043D02*
X819933D01*
X824759D02*
X826156D01*
X830982D02*
X832379D01*
X834157D02*
X835427D01*
X840253D02*
X841777D01*
X857017D02*
X860319D01*
X863367D02*
X866669D01*
X868066D02*
X870606D01*
X875051D02*
X877337D01*
X878353D02*
X884322D01*
X884957D02*
X891053D01*
X891561D02*
X893974D01*
X894736D02*
X901848D01*
X721381Y182191D02*
X727858D01*
X735478D02*
X741955D01*
X749829D02*
X760624D01*
X766212D02*
X776880D01*
X792120D02*
X801391D01*
X811297D02*
X819679D01*
X824759D02*
X826029D01*
X830855D02*
X832379D01*
X834030D02*
X835427D01*
X840253D02*
X841650D01*
X857017D02*
X860319D01*
X863494D02*
X866669D01*
X868066D02*
X870479D01*
X875051D02*
X877464D01*
X878353D02*
X884449D01*
X884957D02*
X891053D01*
X891561D02*
X893974D01*
X894736D02*
X901721D01*
X721381Y182064D02*
X727858D01*
X735478D02*
X741955D01*
X750083D02*
X760243D01*
X766593D02*
X776626D01*
X792501D02*
X801137D01*
X811551D02*
X819425D01*
X824759D02*
X826029D01*
X830855D02*
X832252D01*
X834030D02*
X835427D01*
X840253D02*
X841650D01*
X857144D02*
X860192D01*
X863494D02*
X866669D01*
X868066D02*
X870479D01*
X875051D02*
X877464D01*
X878353D02*
X884449D01*
X884957D02*
X891053D01*
X891561D02*
X893974D01*
X894863D02*
X901594D01*
X721381Y181937D02*
X727858D01*
X735478D02*
X741955D01*
X750464D02*
X759862D01*
X766974D02*
X776372D01*
X792882D02*
X800883D01*
X811805D02*
X819171D01*
X824632D02*
X826029D01*
X830728D02*
X832252D01*
X834030D02*
X835300D01*
X840126D02*
X841523D01*
X857144D02*
X860192D01*
X863494D02*
X866669D01*
X868066D02*
X870479D01*
X875051D02*
X877464D01*
X878353D02*
X884449D01*
X884957D02*
X891053D01*
X891561D02*
X893974D01*
X894863D02*
X901467D01*
X721381Y181810D02*
X727858D01*
X735478D02*
X741955D01*
X750845D02*
X759481D01*
X767355D02*
X775991D01*
X793263D02*
X800502D01*
X812186D02*
X818790D01*
X824632D02*
X825902D01*
X830728D02*
X832125D01*
X834030D02*
X835300D01*
X840126D02*
X841523D01*
X857144D02*
X860192D01*
X863621D02*
X866542D01*
X868066D02*
X870352D01*
X875178D02*
X877464D01*
X878353D02*
X884449D01*
X884957D02*
X891053D01*
X891561D02*
X893974D01*
X894990D02*
X901340D01*
X721381Y181683D02*
X727858D01*
X735478D02*
X741955D01*
X751226D02*
X759100D01*
X767863D02*
X775610D01*
X793771D02*
X800121D01*
X812694D02*
X818409D01*
X824632D02*
X825902D01*
X830728D02*
X832125D01*
X834030D02*
X835300D01*
X839999D02*
X841396D01*
X857144D02*
X860065D01*
X863621D02*
X866542D01*
X868066D02*
X870352D01*
X875178D02*
X877464D01*
X878353D02*
X884322D01*
X885084D02*
X891053D01*
X891688D02*
X893974D01*
X894990D02*
X901213D01*
X721508Y181556D02*
X723540D01*
X735605D02*
X737637D01*
X751734D02*
X758592D01*
X768371D02*
X775102D01*
X794279D02*
X799613D01*
X813202D02*
X817774D01*
X824632D02*
X825902D01*
X830601D02*
X831998D01*
X834030D02*
X835300D01*
X839999D02*
X841396D01*
X857271D02*
X860065D01*
X863621D02*
X866415D01*
X868066D02*
X870352D01*
X875178D02*
X877464D01*
X878480D02*
X884322D01*
X885084D02*
X890926D01*
X891688D02*
X893847D01*
X895117D02*
X901086D01*
X752242Y181429D02*
X758084D01*
X768879D02*
X774467D01*
X795168D02*
X798851D01*
X813964D02*
X817012D01*
X824632D02*
X825902D01*
X830601D02*
X831998D01*
X834030D02*
X835300D01*
X839872D02*
X841396D01*
X857398D02*
X859938D01*
X863748D02*
X866415D01*
X868066D02*
X870225D01*
X875305D02*
X877464D01*
X878480D02*
X884322D01*
X885084D02*
X890926D01*
X891688D02*
X893847D01*
X895244D02*
X900959D01*
X753131Y181302D02*
X757195D01*
X769768D02*
X773578D01*
X824632D02*
X825902D01*
X830474D02*
X831871D01*
X834030D02*
X835300D01*
X839872D02*
X841269D01*
X857398D02*
X859811D01*
X863875D02*
X866288D01*
X868193D02*
X870225D01*
X875305D02*
X877337D01*
X878607D02*
X884195D01*
X885211D02*
X890799D01*
X891815D02*
X893847D01*
X895498D02*
X900705D01*
X824632Y181175D02*
X825902D01*
X830474D02*
X831871D01*
X834030D02*
X835300D01*
X839745D02*
X841269D01*
X857525D02*
X859684D01*
X864002D02*
X866161D01*
X868320D02*
X870098D01*
X875432D02*
X877210D01*
X878734D02*
X884068D01*
X885338D02*
X890672D01*
X891815D02*
X893720D01*
X895752D02*
X900578D01*
X824632Y181048D02*
X825902D01*
X830347D02*
X831744D01*
X834030D02*
X835300D01*
X839745D02*
X841142D01*
X857779D02*
X859557D01*
X864129D02*
X866034D01*
X868447D02*
X869971D01*
X875559D02*
X877083D01*
X878861D02*
X883941D01*
X885465D02*
X890545D01*
X891942D02*
X893593D01*
X896006D02*
X900324D01*
X824632Y180921D02*
X826029D01*
X830347D02*
X831744D01*
X834030D02*
X835300D01*
X839618D02*
X841142D01*
X857906D02*
X859303D01*
X864383D02*
X865780D01*
X868574D02*
X869844D01*
X875686D02*
X876956D01*
X879115D02*
X883687D01*
X885846D02*
X890291D01*
X892196D02*
X893466D01*
X896514D02*
X899943D01*
X824632Y180794D02*
X826029D01*
X830220D02*
X831744D01*
X834030D02*
X835300D01*
X839618D02*
X841015D01*
X892704D02*
X892831D01*
X897149D02*
X899435D01*
X824759Y180667D02*
X826029D01*
X830093D02*
X831617D01*
X834030D02*
X835427D01*
X839491D02*
X841015D01*
X824759Y180540D02*
X826029D01*
X830093D02*
X831617D01*
X834030D02*
X835427D01*
X839364D02*
X840888D01*
X824759Y180413D02*
X826156D01*
X829966D02*
X831490D01*
X834157D02*
X835427D01*
X839364D02*
X840888D01*
X824759Y180286D02*
X826156D01*
X829966D02*
X831363D01*
X834157D02*
X835554D01*
X839237D02*
X840761D01*
X824886Y180159D02*
X826283D01*
X829839D02*
X831363D01*
X834157D02*
X835681D01*
X839110D02*
X840761D01*
X824886Y180032D02*
X826410D01*
X829712D02*
X831236D01*
X834284D02*
X835681D01*
X839110D02*
X840634D01*
X824886Y179905D02*
X826410D01*
X829585D02*
X831236D01*
X834284D02*
X835808D01*
X838983D02*
X840507D01*
X825013Y179778D02*
X826537D01*
X829458D02*
X831109D01*
X834284D02*
X835935D01*
X838856D02*
X840507D01*
X825013Y179651D02*
X826664D01*
X829331D02*
X831109D01*
X834411D02*
X836062D01*
X838729D02*
X840380D01*
X825140Y179524D02*
X826918D01*
X829204D02*
X830982D01*
X834538D02*
X836189D01*
X838602D02*
X840380D01*
X825140Y179397D02*
X827045D01*
X828950D02*
X830855D01*
X834538D02*
X836443D01*
X838348D02*
X840253D01*
X825267Y179270D02*
X827426D01*
X828696D02*
X830728D01*
X834665D02*
X836697D01*
X838094D02*
X840126D01*
X825394Y179143D02*
X830728D01*
X834792D02*
X839999D01*
X825521Y179016D02*
X830601D01*
X834792D02*
X839872D01*
X825648Y178889D02*
X830474D01*
X834919D02*
X839872D01*
X825775Y178762D02*
X830347D01*
X835046D02*
X839745D01*
X825902Y178635D02*
X830220D01*
X835173D02*
X839491D01*
X826029Y178508D02*
X829966D01*
X835427D02*
X839364D01*
X826283Y178381D02*
X829839D01*
X835554D02*
X839237D01*
X826410Y178254D02*
X829585D01*
X835808D02*
X838983D01*
X826664Y178127D02*
X829331D01*
X836062D02*
X838729D01*
X827045Y178000D02*
X828950D01*
X836443D02*
X838348D01*
D11*
X638018Y111004D02*
X713730Y47405D01*
X563138Y113309D02*
X570995Y211996D01*
X481436Y63861D02*
X563138Y113309D01*
X481389Y63839D02*
X506010Y12484D01*
X628880Y211997D02*
X638018Y111004D01*
X570995Y211996D02*
X628877D01*
X506026Y12443D02*
X596873Y46772D01*
X681605Y382D01*
X681722Y428D02*
X713736Y47413D01*
X1098287Y195427D02*
X1109935Y129987D01*
X1110001Y129999D02*
X1114533Y124334D01*
X1115351Y124243D01*
X1106008Y50738D02*
X1190001Y63229D01*
X1087001Y58999D02*
X1105939Y50582D01*
X1115351Y124243D02*
X1190034Y117365D01*
X1190001Y63229D02*
Y116999D01*
X1063001Y73999D02*
X1087001Y58999D01*
X1043161Y114998D02*
X1062943Y73971D01*
X1043958Y190579D02*
X1098289Y195403D01*
X1043161Y114998D02*
X1043917Y190579D01*
X966270Y612595D02*
X1041982Y548996D01*
X1109005Y448004D02*
X1116862Y546691D01*
X1198565Y596139D01*
X1173990Y647516D02*
X1198611Y596161D01*
X1041982Y548996D02*
X1051120Y448003D01*
X1051123Y448004D02*
X1109005D01*
X1083127Y613228D02*
X1173974Y647557D01*
X998395Y659618D02*
X1083127Y613228D01*
X966264Y612587D02*
X998278Y659572D01*
X486270Y612595D02*
X561982Y548996D01*
X629005Y448004D02*
X636862Y546691D01*
X718565Y596139D01*
X693990Y647516D02*
X718611Y596161D01*
X561982Y548996D02*
X571120Y448003D01*
X571123Y448004D02*
X629005D01*
X603127Y613228D02*
X693974Y647557D01*
X518395Y659618D02*
X603127Y613228D01*
X486264Y612587D02*
X518278Y659572D01*
X138287Y195427D02*
X149935Y129987D01*
X150001Y129999D02*
X154533Y124334D01*
X155351Y124243D01*
X146008Y50738D02*
X230001Y63229D01*
X127001Y58999D02*
X145939Y50582D01*
X155351Y124243D02*
X230035Y117365D01*
X230001Y63229D02*
Y116999D01*
X103001Y73999D02*
X127001Y58999D01*
X83161Y114998D02*
X102943Y73971D01*
X83958Y190579D02*
X138289Y195403D01*
X83161Y114998D02*
X83917Y190579D01*
X159988Y540065D02*
X225427Y551713D01*
X154333Y535468D02*
X159999Y539998D01*
X154243Y534649D02*
X154333Y535468D01*
X80738Y543992D02*
X93229Y459999D01*
X80582Y544060D02*
X89000Y562999D01*
X147367Y459968D02*
X154243Y534649D01*
X93229Y459999D02*
X147000Y460000D01*
X89000Y562999D02*
X103999Y586999D01*
X103972Y587056D02*
X144997Y606836D01*
X220579Y606042D02*
X225403Y551713D01*
X144997Y606836D02*
X220579Y606082D01*
D12*
X686380Y330900D02*
X691968D01*
X694508D02*
X700604D01*
X686380Y330392D02*
X691968D01*
X694000D02*
X701112D01*
X686380Y329884D02*
X687904D01*
X689936D02*
X691968D01*
X693492D02*
X696032D01*
X698572D02*
X701620D01*
X686380Y329376D02*
X687904D01*
X690444D02*
X691968D01*
X692984D02*
X695524D01*
X699080D02*
X702128D01*
X686380Y328868D02*
X688412D01*
X690444D02*
X691968D01*
X692984D02*
X695016D01*
X699588D02*
X702128D01*
X686380Y328360D02*
X688920D01*
X692476D02*
X695016D01*
X686380Y327852D02*
X689936D01*
X692476D02*
X695016D01*
X686380Y327344D02*
X690952D01*
X692476D02*
X695016D01*
X686888Y326836D02*
X691968D01*
X692476D02*
X695016D01*
X687396Y326328D02*
X691968D01*
X692476D02*
X695016D01*
X688412Y325820D02*
X695016D01*
X686380Y325312D02*
X687396D01*
X689428D02*
X695016D01*
X686380Y324804D02*
X687396D01*
X689936D02*
X695524D01*
X686380Y324296D02*
X687904D01*
X690444D02*
X692476D01*
X692984D02*
X695524D01*
X700096D02*
X702128D01*
X686380Y323788D02*
X687904D01*
X690444D02*
X692476D01*
X692984D02*
X696032D01*
X699588D02*
X702128D01*
X686380Y323280D02*
X688412D01*
X689936D02*
X691968D01*
X693492D02*
X696540D01*
X699080D02*
X701620D01*
X686380Y322772D02*
X691968D01*
X694000D02*
X701112D01*
X686380Y322264D02*
X691460D01*
X694508D02*
X700604D01*
X686380Y321756D02*
X686888D01*
X687396D02*
X690952D01*
X695524D02*
X700096D01*
X688412Y331916D02*
X689936D01*
X696540D02*
X698572D01*
X686380Y362904D02*
X688412D01*
X686380Y362396D02*
X688920D01*
X686380Y361888D02*
X688920D01*
X686380Y361380D02*
X688920D01*
X686380Y360872D02*
X688920D01*
X686380Y360364D02*
X688920D01*
X686380Y359856D02*
X689428D01*
X686380Y359348D02*
X689428D01*
X686380Y358840D02*
X689936D01*
X686380Y358332D02*
X689936D01*
X686380Y357824D02*
X690444D01*
X686380Y357316D02*
X690952D01*
X686380Y356808D02*
X691460D01*
X686380Y356300D02*
X691968D01*
X686380Y355792D02*
X692984D01*
X686380Y355284D02*
X693492D01*
X686380Y354776D02*
X695016D01*
X690952Y352236D02*
X702128D01*
X689936Y385764D02*
X695524D01*
X689428Y385256D02*
X694000D01*
X688920Y384748D02*
X692984D01*
X688412Y384240D02*
X692476D01*
X687904Y383732D02*
X691968D01*
X687904Y383224D02*
X691460D01*
X687396Y382716D02*
X691460D01*
X686888Y382208D02*
X690952D01*
X686888Y381700D02*
X690952D01*
X686888Y381192D02*
X690952D01*
X686380Y380684D02*
X690952D01*
X686380Y380176D02*
X690952D01*
X686380Y379668D02*
X690952D01*
X686380Y379160D02*
X691460D01*
X686380Y378652D02*
X691968D01*
X686380Y378144D02*
X691968D01*
X686888Y377636D02*
X692984D01*
X686888Y377128D02*
X693492D01*
X686888Y376620D02*
X694508D01*
X686888Y376112D02*
X695524D01*
X687396Y375604D02*
X696032D01*
X687904Y375096D02*
X697048D01*
X687904Y374588D02*
X698064D01*
X688412Y374080D02*
X699588D01*
X688920Y373572D02*
X700604D01*
X689428Y373064D02*
X701112D01*
X689936Y372556D02*
X702128D01*
X703652Y329884D02*
X706192D01*
X709240D02*
X711780D01*
X713304D02*
X715336D01*
X717876D02*
X719908D01*
X703144Y329376D02*
X705684D01*
X709748D02*
X711780D01*
X712796D02*
X715336D01*
X717368D02*
X719908D01*
X703144Y328868D02*
X705684D01*
X709748D02*
X711780D01*
X712796D02*
X715336D01*
X717368D02*
X719908D01*
X710256Y328360D02*
X711780D01*
X712796D02*
X715336D01*
X717368D02*
X719908D01*
X710256Y327852D02*
X711780D01*
X713304D02*
X715336D01*
X717368D02*
X719908D01*
X713304Y327344D02*
X715336D01*
X713304Y326836D02*
X715336D01*
X713304Y326328D02*
X715336D01*
X713304Y325820D02*
X715336D01*
X717368D02*
X719908D01*
X712796Y325312D02*
X715336D01*
X717368D02*
X719908D01*
X703144Y324804D02*
X705684D01*
X711272D02*
X711780D01*
X712796D02*
X715336D01*
X717368D02*
X719908D01*
X721940D02*
X722448D01*
X703144Y324296D02*
X706192D01*
X710764D02*
X712288D01*
X712796D02*
X715336D01*
X717368D02*
X719908D01*
X703144Y323788D02*
X706192D01*
X710256D02*
X712288D01*
X712796D02*
X715336D01*
X717368D02*
X719908D01*
X703652Y323280D02*
X707716D01*
X708224D02*
X711780D01*
X712796D02*
X715336D01*
X717368D02*
X720416D01*
X704160Y322772D02*
X711272D01*
X704668Y322264D02*
X710764D01*
X705684Y321756D02*
X709748D01*
X719400Y332424D02*
X722448D01*
X706700Y331916D02*
X708732D01*
X719908D02*
X721432D01*
X703144Y364936D02*
X710256D01*
X703652Y364428D02*
X710256D01*
X704160Y363920D02*
X710256D01*
X704668Y363412D02*
X710256D01*
X704668Y362904D02*
X710256D01*
X705176Y362396D02*
X710256D01*
X705684Y361888D02*
X710256D01*
X705684Y361380D02*
X710256D01*
X705684Y360872D02*
X710256D01*
X705684Y360364D02*
X710256D01*
X705684Y359856D02*
X709748D01*
X705684Y359348D02*
X709748D01*
X705684Y358840D02*
X709748D01*
X705176Y358332D02*
X709240D01*
X705176Y357824D02*
X709240D01*
X704668Y357316D02*
X708732D01*
X704160Y356808D02*
X708732D01*
X703652Y356300D02*
X708224D01*
X703144Y355792D02*
X707716D01*
X703144Y384240D02*
X707716D01*
X703652Y383732D02*
X707716D01*
X704160Y383224D02*
X707716D01*
X704160Y382716D02*
X707716D01*
X704668Y382208D02*
X707716D01*
X704668Y381700D02*
X707716D01*
X705176Y381192D02*
X707716D01*
X705176Y380684D02*
X707716D01*
X705684Y380176D02*
X707716D01*
X705684Y379668D02*
X707716D01*
X705684Y379160D02*
X707716D01*
X724988Y330900D02*
X741752D01*
X728544Y329884D02*
X730576D01*
X732100D02*
X734132D01*
X735148D02*
X737180D01*
X739720D02*
X741752D01*
X728036Y329376D02*
X730576D01*
X732608D02*
X734132D01*
X735148D02*
X737180D01*
X740228D02*
X742260D01*
X723464Y328868D02*
X726004D01*
X728036D02*
X730576D01*
X732608D02*
X734132D01*
X735148D02*
X737180D01*
X738704D02*
X740228D01*
X740736D02*
X742260D01*
X723464Y328360D02*
X724480D01*
X728036D02*
X730576D01*
X735148D02*
X737180D01*
X738704D02*
X740228D01*
X741244D02*
X741752D01*
X728036Y327852D02*
X730576D01*
X735148D02*
X737180D01*
X738196D02*
X740228D01*
X728036Y327344D02*
X730576D01*
X735148D02*
X740228D01*
X728036Y326836D02*
X730576D01*
X735148D02*
X740228D01*
X728036Y326328D02*
X730576D01*
X735148D02*
X740228D01*
X728036Y325820D02*
X730576D01*
X735148D02*
X737180D01*
X738704D02*
X740228D01*
X728036Y325312D02*
X730576D01*
X735148D02*
X737180D01*
X738704D02*
X740228D01*
X723972Y324804D02*
X725496D01*
X728036D02*
X730576D01*
X735148D02*
X737180D01*
X739212D02*
X739720D01*
X741244D02*
X742768D01*
X723464Y324296D02*
X725496D01*
X728036D02*
X730576D01*
X735148D02*
X737180D01*
X740736D02*
X742768D01*
X723464Y323788D02*
X725496D01*
X728036D02*
X730576D01*
X735148D02*
X737180D01*
X740736D02*
X742768D01*
X728036Y323280D02*
X730576D01*
X735148D02*
X737688D01*
X739720D02*
X742260D01*
X727020Y322772D02*
X731592D01*
X733624D02*
X742260D01*
X727020Y322264D02*
X732100D01*
X733624D02*
X742260D01*
X727020Y321756D02*
X731592D01*
X733624D02*
X741752D01*
X739212Y334456D02*
X740228D01*
X738196Y333948D02*
X740736D01*
X737688Y333440D02*
X740736D01*
X737180Y332932D02*
X740736D01*
X736672Y332424D02*
X739720D01*
X724988Y331916D02*
X726512D01*
X732100D02*
X734132D01*
X736672D02*
X738704D01*
X723464Y360364D02*
X729560D01*
X723464Y359856D02*
X729560D01*
X723972Y359348D02*
X730068D01*
X724480Y358840D02*
X730576D01*
X724988Y358332D02*
X731084D01*
X725496Y357824D02*
X731592D01*
X726004Y357316D02*
X732100D01*
X726512Y356808D02*
X732608D01*
X727020Y356300D02*
X733116D01*
X727528Y355792D02*
X734132D01*
X728544Y355284D02*
X735148D01*
X729052Y354776D02*
X736164D01*
X730068Y354268D02*
X738704D01*
X730576Y385764D02*
X740228D01*
X729560Y385256D02*
X736672D01*
X728544Y384748D02*
X735148D01*
X728036Y384240D02*
X733624D01*
X727020Y383732D02*
X733116D01*
X726512Y383224D02*
X732100D01*
X726004Y382716D02*
X731592D01*
X725496Y382208D02*
X731084D01*
X724988Y381700D02*
X730576D01*
X724480Y381192D02*
X730068D01*
X723972Y380684D02*
X730068D01*
X723972Y380176D02*
X729560D01*
X723464Y379668D02*
X729052D01*
X745308Y330900D02*
X753436D01*
X745308Y330392D02*
X753944D01*
X746832Y329884D02*
X748864D01*
X751404D02*
X754452D01*
X756992D02*
X759024D01*
X746324Y329376D02*
X748864D01*
X751912D02*
X754960D01*
X756484D02*
X759024D01*
X746324Y328868D02*
X748864D01*
X752420D02*
X755468D01*
X756484D02*
X759024D01*
X760040D02*
X761564D01*
X746324Y328360D02*
X748864D01*
X752928D02*
X755468D01*
X756484D02*
X759024D01*
X760040D02*
X761564D01*
X746324Y327852D02*
X748864D01*
X752928D02*
X755468D01*
X756484D02*
X759024D01*
X760040D02*
X761564D01*
X746324Y327344D02*
X748864D01*
X752928D02*
X755468D01*
X756484D02*
X761564D01*
X746324Y326836D02*
X748864D01*
X752928D02*
X755468D01*
X756484D02*
X761564D01*
X746324Y326328D02*
X748864D01*
X752928D02*
X755468D01*
X756484D02*
X761564D01*
X746324Y325820D02*
X748864D01*
X752928D02*
X755468D01*
X756484D02*
X759024D01*
X760040D02*
X762072D01*
X746324Y325312D02*
X748864D01*
X752928D02*
X755468D01*
X756484D02*
X759024D01*
X760040D02*
X762072D01*
X746324Y324804D02*
X748864D01*
X752928D02*
X755468D01*
X756484D02*
X759024D01*
X746324Y324296D02*
X748864D01*
X752420D02*
X754960D01*
X756484D02*
X759024D01*
X746324Y323788D02*
X748864D01*
X751912D02*
X754960D01*
X756484D02*
X759024D01*
X746324Y323280D02*
X748864D01*
X750896D02*
X754452D01*
X756484D02*
X759024D01*
X744800Y322772D02*
X753944D01*
X744800Y322264D02*
X753436D01*
X745308Y321756D02*
X752420D01*
X755468Y371540D02*
X761564D01*
X755468Y371032D02*
X761564D01*
X755468Y370524D02*
X761564D01*
X755468Y370016D02*
X761564D01*
X755468Y369508D02*
X761564D01*
X755468Y369000D02*
X761564D01*
X755468Y368492D02*
X761564D01*
X755468Y367984D02*
X761564D01*
X754960Y367476D02*
X761564D01*
X754960Y366968D02*
X761564D01*
X754960Y366460D02*
X761564D01*
X754960Y365952D02*
X761564D01*
X754960Y365444D02*
X761056D01*
X754960Y364936D02*
X761056D01*
X754960Y364428D02*
X761056D01*
X754452Y363920D02*
X760548D01*
X754452Y363412D02*
X760548D01*
X754452Y362904D02*
X760040D01*
X753944Y362396D02*
X760040D01*
X753944Y361888D02*
X760040D01*
X753944Y361380D02*
X759532D01*
X753436Y360872D02*
X759024D01*
X753436Y360364D02*
X759024D01*
X752928Y359856D02*
X758516D01*
X752420Y359348D02*
X758008D01*
X752420Y358840D02*
X757500D01*
X751912Y358332D02*
X756992D01*
X751404Y357824D02*
X756484D01*
X750896Y357316D02*
X755976D01*
X750388Y356808D02*
X755468D01*
X749372Y356300D02*
X754960D01*
X748356Y355792D02*
X753944D01*
X747340Y355284D02*
X753436D01*
X745816Y354776D02*
X752420D01*
X745308Y385256D02*
X752928D01*
X746832Y384748D02*
X753944D01*
X747848Y384240D02*
X754452D01*
X748864Y383732D02*
X754960D01*
X749372Y383224D02*
X755468D01*
X750388Y382716D02*
X755976D01*
X750896Y382208D02*
X756484D01*
X751404Y381700D02*
X756992D01*
X751912Y381192D02*
X757500D01*
X752420Y380684D02*
X758008D01*
X752420Y380176D02*
X758516D01*
X752928Y379668D02*
X759024D01*
X753436Y379160D02*
X759024D01*
X753436Y378652D02*
X759532D01*
X753944Y378144D02*
X760040D01*
X753944Y377636D02*
X760040D01*
X753944Y377128D02*
X760040D01*
X754452Y376620D02*
X760548D01*
X754452Y376112D02*
X760548D01*
X754452Y375604D02*
X761056D01*
X754960Y375096D02*
X761056D01*
X754960Y374588D02*
X761056D01*
X754960Y374080D02*
X761564D01*
X754960Y373572D02*
X761564D01*
X754960Y373064D02*
X761564D01*
X754960Y372556D02*
X761564D01*
X766644Y330900D02*
X774264D01*
X774772D02*
X781884D01*
X767152Y330392D02*
X781884D01*
X768168Y329884D02*
X770708D01*
X772232D02*
X774772D01*
X775788D02*
X777820D01*
X779852D02*
X782392D01*
X768168Y329376D02*
X770708D01*
X772740D02*
X774772D01*
X775788D02*
X777820D01*
X779852D02*
X782392D01*
X768168Y328868D02*
X770708D01*
X772740D02*
X774772D01*
X775788D02*
X777820D01*
X780360D02*
X782392D01*
X768168Y328360D02*
X770708D01*
X772740D02*
X774772D01*
X775788D02*
X777820D01*
X779852D02*
X782392D01*
X768168Y327852D02*
X770708D01*
X772232D02*
X774772D01*
X775788D02*
X777820D01*
X779852D02*
X782392D01*
X768168Y327344D02*
X770708D01*
X771724D02*
X774772D01*
X775788D02*
X777820D01*
X779344D02*
X782392D01*
X768168Y326836D02*
X774264D01*
X775788D02*
X781884D01*
X768168Y326328D02*
X773756D01*
X775788D02*
X781376D01*
X768168Y325820D02*
X772740D01*
X775788D02*
X780868D01*
X768168Y325312D02*
X770200D01*
X775788D02*
X777820D01*
X778836D02*
X781376D01*
X768168Y324804D02*
X770708D01*
X775788D02*
X777820D01*
X778836D02*
X781884D01*
X768168Y324296D02*
X770708D01*
X775788D02*
X777820D01*
X779344D02*
X781884D01*
X768168Y323788D02*
X770708D01*
X775788D02*
X777820D01*
X779852D02*
X782392D01*
X768168Y323280D02*
X770708D01*
X775788D02*
X777820D01*
X779852D02*
X782900D01*
X767152Y322772D02*
X771724D01*
X774772D02*
X779344D01*
X767152Y322264D02*
X771724D01*
X774772D02*
X779344D01*
X767152Y321756D02*
X771724D01*
X774772D02*
X779344D01*
X776296Y371540D02*
X782392D01*
X776296Y371032D02*
X782392D01*
X776296Y370524D02*
X782392D01*
X776296Y370016D02*
X782392D01*
X776296Y369508D02*
X782392D01*
X776296Y369000D02*
X782392D01*
X776296Y368492D02*
X782392D01*
X776296Y367984D02*
X782392D01*
X776296Y367476D02*
X782392D01*
X776804Y366968D02*
X782392D01*
X776804Y366460D02*
X782392D01*
X776804Y365952D02*
X782392D01*
X776804Y365444D02*
X782392D01*
X776804Y364936D02*
X782392D01*
X776804Y364428D02*
X782900D01*
X776804Y363920D02*
X782900D01*
X776804Y363412D02*
X782900D01*
X776804Y362904D02*
X782900D01*
X776804Y362396D02*
X782900D01*
X776804Y361888D02*
X782900D01*
X776804Y361380D02*
X782900D01*
X776804Y360872D02*
X782900D01*
X776804Y360364D02*
X782900D01*
X776804Y359856D02*
X782900D01*
X776804Y359348D02*
X782900D01*
X776804Y358840D02*
X782900D01*
X776804Y358332D02*
X782900D01*
X776804Y357824D02*
X782900D01*
X776804Y357316D02*
X782900D01*
X776804Y356808D02*
X782900D01*
X776804Y356300D02*
X782900D01*
X776804Y355792D02*
X782900D01*
X776804Y355284D02*
X782900D01*
X771724Y352236D02*
X778836D01*
X772740Y385256D02*
X782900D01*
X774772Y384748D02*
X781884D01*
X775788Y384240D02*
X781884D01*
X776296Y383732D02*
X782392D01*
X776296Y383224D02*
X782392D01*
X776296Y382716D02*
X782392D01*
X776296Y382208D02*
X782392D01*
X776296Y381700D02*
X782392D01*
X776296Y381192D02*
X782392D01*
X776296Y380684D02*
X782392D01*
X776296Y380176D02*
X781884D01*
X776296Y379668D02*
X781884D01*
X776296Y379160D02*
X781884D01*
X776296Y378652D02*
X781884D01*
X776296Y378144D02*
X781884D01*
X776296Y377636D02*
X781884D01*
X776296Y377128D02*
X781884D01*
X776296Y376620D02*
X781884D01*
X776296Y376112D02*
X782392D01*
X776296Y375604D02*
X782392D01*
X776296Y375096D02*
X782392D01*
X776296Y374588D02*
X782392D01*
X776296Y374080D02*
X782392D01*
X776296Y373572D02*
X782392D01*
X776296Y373064D02*
X782392D01*
X776296Y372556D02*
X782392D01*
X785440Y330900D02*
X791536D01*
X793060D02*
X801696D01*
X784932Y330392D02*
X792044D01*
X793060D02*
X802204D01*
X784424Y329884D02*
X786964D01*
X789504D02*
X792552D01*
X794584D02*
X797124D01*
X799664D02*
X802712D01*
X790012Y329376D02*
X793060D01*
X794584D02*
X797124D01*
X800172D02*
X803220D01*
X790520Y328868D02*
X793060D01*
X794584D02*
X797124D01*
X800680D02*
X803728D01*
X790520Y328360D02*
X793060D01*
X794584D02*
X797124D01*
X801188D02*
X803728D01*
X791028Y327852D02*
X793568D01*
X794584D02*
X797124D01*
X801188D02*
X803728D01*
X791028Y327344D02*
X793568D01*
X794584D02*
X797124D01*
X801188D02*
X803728D01*
X791028Y326836D02*
X793568D01*
X794584D02*
X797124D01*
X801188D02*
X803728D01*
X791028Y326328D02*
X793568D01*
X794584D02*
X797124D01*
X801188D02*
X803728D01*
X791028Y325820D02*
X793568D01*
X794584D02*
X797124D01*
X801188D02*
X803728D01*
X791028Y325312D02*
X793568D01*
X794584D02*
X797124D01*
X801188D02*
X803728D01*
X791028Y324804D02*
X793060D01*
X794584D02*
X797124D01*
X800680D02*
X803728D01*
X790520Y324296D02*
X793060D01*
X794584D02*
X797124D01*
X800680D02*
X803220D01*
X790520Y323788D02*
X792552D01*
X794584D02*
X797124D01*
X800172D02*
X803220D01*
X784424Y323280D02*
X787472D01*
X789504D02*
X792552D01*
X794584D02*
X797124D01*
X799156D02*
X802712D01*
X784932Y322772D02*
X792044D01*
X793060D02*
X802204D01*
X785440Y322264D02*
X791536D01*
X793060D02*
X801696D01*
X786456Y321756D02*
X790520D01*
X793060D02*
X800680D01*
X787472Y331916D02*
X789504D01*
X793060Y371540D02*
X799664D01*
X792552Y371032D02*
X799156D01*
X791536Y370524D02*
X799156D01*
X790012Y370016D02*
X798648D01*
X784424Y368492D02*
X796616D01*
X784932Y367984D02*
X795600D01*
X785948Y367476D02*
X794076D01*
X787472Y366968D02*
X792044D01*
X787472Y385256D02*
X798140D01*
X790012Y384748D02*
X798648D01*
X791536Y384240D02*
X799156D01*
X792044Y383732D02*
X799664D01*
X792552Y383224D02*
X800172D01*
X793568Y382716D02*
X800172D01*
X793568Y382208D02*
X800680D01*
X794076Y381700D02*
X800680D01*
X794584Y381192D02*
X801188D01*
X794584Y380684D02*
X801188D01*
X795092Y380176D02*
X801696D01*
X795092Y379668D02*
X801696D01*
X795092Y379160D02*
X801696D01*
X795600Y378652D02*
X801696D01*
X795600Y378144D02*
X801696D01*
X795600Y377636D02*
X801696D01*
X795600Y377128D02*
X801696D01*
X795600Y376620D02*
X801696D01*
X795600Y376112D02*
X801696D01*
X795600Y375604D02*
X801696D01*
X795092Y375096D02*
X801696D01*
X795092Y374588D02*
X801188D01*
X795092Y374080D02*
X801188D01*
X794584Y373572D02*
X801188D01*
X794584Y373064D02*
X800680D01*
X794076Y372556D02*
X800680D01*
X809316Y330900D02*
X813380D01*
X814904D02*
X821508D01*
X809316Y330392D02*
X813380D01*
X810332Y329884D02*
X812364D01*
X813888D02*
X816428D01*
X819476D02*
X823540D01*
X810332Y329376D02*
X812364D01*
X813380D02*
X815920D01*
X819984D02*
X823032D01*
X810332Y328868D02*
X812364D01*
X813380D02*
X815920D01*
X820492D02*
X823032D01*
X810332Y328360D02*
X812364D01*
X812872D02*
X815412D01*
X820492D02*
X822016D01*
X810332Y327852D02*
X812364D01*
X812872D02*
X815412D01*
X821000D02*
X822016D01*
X810332Y327344D02*
X812364D01*
X812872D02*
X815412D01*
X810332Y326836D02*
X812364D01*
X812872D02*
X815412D01*
X810332Y326328D02*
X812364D01*
X812872D02*
X815412D01*
X810332Y325820D02*
X812364D01*
X812872D02*
X815412D01*
X810332Y325312D02*
X812364D01*
X812872D02*
X815412D01*
X810332Y324804D02*
X812364D01*
X812872D02*
X815920D01*
X821508D02*
X822016D01*
X810332Y324296D02*
X812364D01*
X813380D02*
X816428D01*
X821000D02*
X822524D01*
X810332Y323788D02*
X812364D01*
X813380D02*
X816428D01*
X820492D02*
X822524D01*
X804744Y323280D02*
X807284D01*
X809824D02*
X811856D01*
X813888D02*
X822016D01*
X804744Y322772D02*
X811856D01*
X814396D02*
X821508D01*
X805252Y322264D02*
X811348D01*
X814904D02*
X821000D01*
X806268Y321756D02*
X810332D01*
X815412D02*
X819984D01*
X816936Y331916D02*
X818968D01*
X822016D02*
X824048D01*
X815412Y369000D02*
X821000D01*
X815412Y368492D02*
X821508D01*
X815412Y367984D02*
X821508D01*
X815412Y367476D02*
X821508D01*
X815412Y366968D02*
X821508D01*
X815412Y366460D02*
X821508D01*
X815412Y365952D02*
X821508D01*
X815412Y365444D02*
X821508D01*
X815412Y364936D02*
X821508D01*
X815412Y364428D02*
X821508D01*
X815412Y363920D02*
X821508D01*
X815412Y363412D02*
X821508D01*
X815412Y362904D02*
X821508D01*
X815412Y362396D02*
X821508D01*
X815412Y361888D02*
X821508D01*
X815412Y361380D02*
X821508D01*
X815412Y360872D02*
X821508D01*
X815412Y360364D02*
X821508D01*
X815412Y359856D02*
X821508D01*
X815412Y359348D02*
X821508D01*
X815412Y358840D02*
X821508D01*
X815412Y358332D02*
X821508D01*
X815412Y357824D02*
X821508D01*
X814904Y357316D02*
X821508D01*
X814904Y356808D02*
X821508D01*
X814904Y356300D02*
X821508D01*
X814904Y355792D02*
X821508D01*
X814904Y355284D02*
X822524D01*
X810840Y385256D02*
X822524D01*
X813888Y384748D02*
X821000D01*
X814904Y384240D02*
X821000D01*
X815412Y383732D02*
X821000D01*
X815412Y383224D02*
X821000D01*
X815412Y382716D02*
X821508D01*
X815412Y382208D02*
X821508D01*
X815412Y381700D02*
X821508D01*
X815412Y381192D02*
X821508D01*
X815412Y380684D02*
X821508D01*
X815412Y380176D02*
X821508D01*
X815412Y379668D02*
X821508D01*
X815412Y379160D02*
X821508D01*
X815412Y378652D02*
X821508D01*
X815412Y378144D02*
X821508D01*
X815412Y377636D02*
X821508D01*
X815412Y377128D02*
X821508D01*
X815412Y376620D02*
X821508D01*
X815412Y376112D02*
X821508D01*
X815412Y375604D02*
X821508D01*
X815412Y375096D02*
X821508D01*
X815412Y374588D02*
X821508D01*
X815412Y374080D02*
X821508D01*
X815412Y373572D02*
X821508D01*
X815412Y373064D02*
X821508D01*
X815412Y372556D02*
X821508D01*
X837256Y330900D02*
X843860D01*
X836748Y330392D02*
X844368D01*
X825572Y329884D02*
X827604D01*
X829636D02*
X831668D01*
X832176D02*
X834208D01*
X836748D02*
X839288D01*
X825572Y329376D02*
X827604D01*
X829636D02*
X831668D01*
X832176D02*
X834208D01*
X836240D02*
X838780D01*
X825572Y328868D02*
X827604D01*
X830144D02*
X831668D01*
X832176D02*
X834208D01*
X835732D02*
X838272D01*
X825572Y328360D02*
X827604D01*
X832176D02*
X834208D01*
X835732D02*
X838272D01*
X825572Y327852D02*
X827604D01*
X832176D02*
X834208D01*
X835224D02*
X837764D01*
X825572Y327344D02*
X827604D01*
X832176D02*
X834208D01*
X835224D02*
X837764D01*
X825572Y326836D02*
X827604D01*
X832176D02*
X834208D01*
X835224D02*
X837764D01*
X825572Y326328D02*
X827604D01*
X832176D02*
X834208D01*
X835224D02*
X837764D01*
X825572Y325820D02*
X827604D01*
X832176D02*
X834208D01*
X835224D02*
X837764D01*
X825572Y325312D02*
X827604D01*
X832176D02*
X834208D01*
X835224D02*
X838272D01*
X825064Y324804D02*
X827604D01*
X832176D02*
X834208D01*
X835732D02*
X838272D01*
X825064Y324296D02*
X827604D01*
X832176D02*
X834208D01*
X835732D02*
X838780D01*
X825064Y323788D02*
X827604D01*
X832176D02*
X834716D01*
X836240D02*
X838780D01*
X825064Y323280D02*
X827604D01*
X832176D02*
X834716D01*
X836240D02*
X839796D01*
X841828D02*
X844368D01*
X830652Y322772D02*
X835732D01*
X836748D02*
X844368D01*
X830652Y322264D02*
X835732D01*
X837256D02*
X843860D01*
X830652Y321756D02*
X835732D01*
X838272D02*
X842844D01*
X829128Y331916D02*
X831160D01*
X839288D02*
X841828D01*
X825064Y369000D02*
X832176D01*
X826080Y368492D02*
X832684D01*
X826588Y367984D02*
X833192D01*
X826588Y367476D02*
X833192D01*
X827096Y366968D02*
X833700D01*
X827096Y366460D02*
X833700D01*
X827604Y365952D02*
X834208D01*
X828112Y365444D02*
X834716D01*
X828112Y364936D02*
X834716D01*
X828620Y364428D02*
X835224D01*
X828620Y363920D02*
X835224D01*
X829128Y363412D02*
X835732D01*
X829636Y362904D02*
X836240D01*
X829636Y362396D02*
X836748D01*
X830144Y361888D02*
X836748D01*
X830144Y361380D02*
X837256D01*
X830652Y360872D02*
X837256D01*
X830652Y360364D02*
X837764D01*
X831160Y359856D02*
X838272D01*
X831668Y359348D02*
X838272D01*
X831668Y358840D02*
X838780D01*
X832176Y358332D02*
X839288D01*
X832684Y357824D02*
X839288D01*
X832684Y357316D02*
X839796D01*
X833192Y356808D02*
X840304D01*
X833192Y356300D02*
X840812D01*
X833700Y355792D02*
X841320D01*
X833700Y355284D02*
X842336D01*
X834208Y354776D02*
X844368D01*
X826588Y384748D02*
X836240D01*
X828112Y384240D02*
X836240D01*
X828620Y383732D02*
X836748D01*
X829636Y383224D02*
X837256D01*
X830144Y382716D02*
X837256D01*
X830652Y382208D02*
X837764D01*
X831160Y381700D02*
X837764D01*
X831160Y381192D02*
X838272D01*
X831668Y380684D02*
X838272D01*
X831668Y380176D02*
X838272D01*
X831668Y379668D02*
X838272D01*
X832176Y379160D02*
X838272D01*
X832176Y378652D02*
X838272D01*
X832176Y378144D02*
X838272D01*
X832176Y377636D02*
X838272D01*
X832176Y377128D02*
X838272D01*
X831668Y376620D02*
X838272D01*
X831668Y376112D02*
X837764D01*
X831668Y375604D02*
X837764D01*
X831160Y375096D02*
X837764D01*
X830652Y374588D02*
X837256D01*
X830652Y374080D02*
X836748D01*
X830144Y373572D02*
X836240D01*
X829128Y373064D02*
X835732D01*
X828112Y372556D02*
X835224D01*
X845384Y330900D02*
X849448D01*
X851988D02*
X855544D01*
X858592D02*
X863164D01*
X845384Y330392D02*
X849956D01*
X851988D02*
X855544D01*
X858592D02*
X863164D01*
X846908Y329884D02*
X849956D01*
X853004D02*
X855036D01*
X859608D02*
X862148D01*
X846400Y329376D02*
X850464D01*
X853004D02*
X855036D01*
X859608D02*
X862148D01*
X846400Y328868D02*
X850972D01*
X853004D02*
X855036D01*
X859608D02*
X862148D01*
X846400Y328360D02*
X851480D01*
X853004D02*
X855036D01*
X859608D02*
X862148D01*
X846400Y327852D02*
X851480D01*
X853004D02*
X855036D01*
X859608D02*
X862148D01*
X846400Y327344D02*
X848432D01*
X848940D02*
X851988D01*
X853004D02*
X855036D01*
X846400Y326836D02*
X848432D01*
X849448D02*
X852496D01*
X853004D02*
X855036D01*
X846400Y326328D02*
X848432D01*
X849956D02*
X855036D01*
X846400Y325820D02*
X848432D01*
X849956D02*
X855036D01*
X859608D02*
X862148D01*
X846400Y325312D02*
X848432D01*
X850464D02*
X855036D01*
X859608D02*
X862148D01*
X846400Y324804D02*
X848432D01*
X850972D02*
X855036D01*
X859608D02*
X862148D01*
X846400Y324296D02*
X848432D01*
X851480D02*
X855036D01*
X859608D02*
X862148D01*
X846400Y323788D02*
X848432D01*
X851988D02*
X855036D01*
X859608D02*
X862148D01*
X846400Y323280D02*
X848432D01*
X852496D02*
X855036D01*
X859608D02*
X862148D01*
X845892Y322772D02*
X849448D01*
X852496D02*
X855036D01*
X858592D02*
X863164D01*
X845892Y322264D02*
X849448D01*
X853004D02*
X855036D01*
X858592D02*
X863164D01*
X845892Y321756D02*
X849448D01*
X853512D02*
X855036D01*
X858592D02*
X863164D01*
X851988Y371540D02*
X858084D01*
X851988Y371032D02*
X858084D01*
X851988Y370524D02*
X858084D01*
X851988Y370016D02*
X858084D01*
X851988Y369508D02*
X858084D01*
X851988Y369000D02*
X858084D01*
X851988Y368492D02*
X858084D01*
X851988Y367984D02*
X858084D01*
X851988Y367476D02*
X858084D01*
X851988Y366968D02*
X858592D01*
X851988Y366460D02*
X858592D01*
X852496Y365952D02*
X858592D01*
X852496Y365444D02*
X859100D01*
X852496Y364936D02*
X859100D01*
X852496Y364428D02*
X859100D01*
X853004Y363920D02*
X859608D01*
X853004Y363412D02*
X859608D01*
X853512Y362904D02*
X859608D01*
X853512Y362396D02*
X860116D01*
X854020Y361888D02*
X860116D01*
X854020Y361380D02*
X860624D01*
X854528Y360872D02*
X860624D01*
X854528Y360364D02*
X861132D01*
X855036Y359856D02*
X861132D01*
X855544Y359348D02*
X861640D01*
X856052Y358840D02*
X862148D01*
X856560Y358332D02*
X862656D01*
X857068Y357824D02*
X863164D01*
X857576Y357316D02*
X863672D01*
X858084Y356808D02*
X864180D01*
X858592Y356300D02*
X864688D01*
X858592Y383732D02*
X864688D01*
X858084Y383224D02*
X863672D01*
X857576Y382716D02*
X863164D01*
X857068Y382208D02*
X862656D01*
X856560Y381700D02*
X862148D01*
X856052Y381192D02*
X861640D01*
X855544Y380684D02*
X861640D01*
X855544Y380176D02*
X861132D01*
X855036Y379668D02*
X860624D01*
X854528Y379160D02*
X860624D01*
X854528Y378652D02*
X860116D01*
X854020Y378144D02*
X860116D01*
X854020Y377636D02*
X859608D01*
X853512Y377128D02*
X859608D01*
X853004Y376620D02*
X859608D01*
X853004Y376112D02*
X859100D01*
X853004Y375604D02*
X859100D01*
X852496Y375096D02*
X859100D01*
X852496Y374588D02*
X858592D01*
X852496Y374080D02*
X858592D01*
X851988Y373572D02*
X858592D01*
X851988Y373064D02*
X858084D01*
X851988Y372556D02*
X858084D01*
X871292Y330900D02*
X877388D01*
X870784Y330392D02*
X877896D01*
X866212Y329884D02*
X868244D01*
X870276D02*
X872816D01*
X875356D02*
X878404D01*
X880436D02*
X882976D01*
X865704Y329376D02*
X868244D01*
X870276D02*
X872308D01*
X876372D02*
X878912D01*
X880436D02*
X882976D01*
X866212Y328868D02*
X868244D01*
X869768D02*
X872308D01*
X876372D02*
X878912D01*
X880436D02*
X882976D01*
X866212Y328360D02*
X868244D01*
X869260D02*
X871800D01*
X876880D02*
X879420D01*
X880436D02*
X882976D01*
X866212Y327852D02*
X868244D01*
X869260D02*
X871800D01*
X876880D02*
X879420D01*
X880436D02*
X882976D01*
X869260Y327344D02*
X871800D01*
X876880D02*
X879420D01*
X880436D02*
X882976D01*
X869260Y326836D02*
X871800D01*
X877388D02*
X879420D01*
X869260Y326328D02*
X871800D01*
X877388D02*
X879420D01*
X866212Y325820D02*
X868244D01*
X869260D02*
X871800D01*
X877388D02*
X879420D01*
X866212Y325312D02*
X868244D01*
X869260D02*
X871800D01*
X876880D02*
X879420D01*
X880436D02*
X882976D01*
X866212Y324804D02*
X868244D01*
X869260D02*
X872308D01*
X876880D02*
X879420D01*
X880436D02*
X882976D01*
X866212Y324296D02*
X868244D01*
X869768D02*
X872308D01*
X876880D02*
X878912D01*
X880436D02*
X882976D01*
X865704Y323788D02*
X868244D01*
X869768D02*
X872816D01*
X876372D02*
X878912D01*
X880436D02*
X882976D01*
X865704Y323280D02*
X868244D01*
X870276D02*
X873324D01*
X875864D02*
X878404D01*
X880436D02*
X882976D01*
X870784Y322772D02*
X877896D01*
X879420D02*
X883992D01*
X871292Y322264D02*
X877388D01*
X879420D02*
X883992D01*
X872308Y321756D02*
X876880D01*
X879420D02*
X883992D01*
X873324Y331916D02*
X875356D01*
X879420Y355284D02*
X885008D01*
X877388Y354776D02*
X883992D01*
X874340Y354268D02*
X882976D01*
X865704Y352744D02*
X879420D01*
X868244Y352236D02*
X876372D01*
X869260Y387796D02*
X876372D01*
X866720Y387288D02*
X878912D01*
X873832Y385764D02*
X883484D01*
X877388Y385256D02*
X884500D01*
X888056Y330900D02*
X893136D01*
X898216D02*
X904820D01*
X888056Y330392D02*
X893136D01*
X897708D02*
X905328D01*
X889072Y329884D02*
X891612D01*
X897200D02*
X900248D01*
X889072Y329376D02*
X891612D01*
X897200D02*
X899740D01*
X889072Y328868D02*
X891612D01*
X896692D02*
X899232D01*
X889072Y328360D02*
X891612D01*
X896692D02*
X899232D01*
X889072Y327852D02*
X891612D01*
X896692D02*
X898724D01*
X889072Y327344D02*
X891612D01*
X896184D02*
X898724D01*
X889072Y326836D02*
X891612D01*
X896184D02*
X898724D01*
X889072Y326328D02*
X891612D01*
X896184D02*
X898724D01*
X889072Y325820D02*
X891612D01*
X896184D02*
X898724D01*
X889072Y325312D02*
X891612D01*
X896692D02*
X899232D01*
X889072Y324804D02*
X891612D01*
X895168D02*
X899232D01*
X889072Y324296D02*
X891612D01*
X895168D02*
X899740D01*
X889072Y323788D02*
X891612D01*
X894660D02*
X896692D01*
X897200D02*
X899740D01*
X889072Y323280D02*
X891612D01*
X894152D02*
X896692D01*
X897200D02*
X900756D01*
X902788D02*
X905328D01*
X897708Y322772D02*
X905328D01*
X898216Y322264D02*
X904820D01*
X899232Y321756D02*
X903804D01*
X900756Y331916D02*
X902788D01*
X887040Y371540D02*
X893136D01*
X887040Y371032D02*
X893136D01*
X887040Y370524D02*
X893136D01*
X887040Y370016D02*
X893136D01*
X887040Y369508D02*
X893136D01*
X887040Y369000D02*
X893136D01*
X887040Y368492D02*
X893136D01*
X887040Y367984D02*
X893136D01*
X887040Y367476D02*
X893136D01*
X887040Y366968D02*
X893136D01*
X886532Y366460D02*
X893136D01*
X886532Y365952D02*
X892628D01*
X886532Y365444D02*
X892628D01*
X886532Y364936D02*
X892628D01*
X886024Y364428D02*
X892628D01*
X886024Y363920D02*
X892120D01*
X886024Y363412D02*
X892120D01*
X886024Y362904D02*
X892120D01*
X886024Y376620D02*
X892120D01*
X886024Y376112D02*
X892120D01*
X886024Y375604D02*
X892628D01*
X886024Y375096D02*
X892628D01*
X886532Y374588D02*
X892628D01*
X886532Y374080D02*
X892628D01*
X886532Y373572D02*
X893136D01*
X886532Y373064D02*
X893136D01*
X887040Y372556D02*
X893136D01*
X908376Y330900D02*
X915996D01*
X916504D02*
X924632D01*
X907868Y330392D02*
X915996D01*
X917012D02*
X924632D01*
X907360Y329884D02*
X910408D01*
X913456D02*
X915996D01*
X918028D02*
X920060D01*
X922600D02*
X925140D01*
X907360Y329376D02*
X909900D01*
X913964D02*
X915996D01*
X918028D02*
X920060D01*
X923108D02*
X925140D01*
X906852Y328868D02*
X909392D01*
X914472D02*
X915996D01*
X918028D02*
X920060D01*
X921584D02*
X923108D01*
X923616D02*
X925140D01*
X906852Y328360D02*
X909392D01*
X914472D02*
X915996D01*
X918028D02*
X920060D01*
X921584D02*
X923108D01*
X914472Y327852D02*
X915996D01*
X918028D02*
X920060D01*
X921584D02*
X923108D01*
X918028Y327344D02*
X923108D01*
X918028Y326836D02*
X923108D01*
X912948Y326328D02*
X917012D01*
X918028D02*
X923108D01*
X912948Y325820D02*
X917012D01*
X918028D02*
X920060D01*
X921584D02*
X923108D01*
X906852Y325312D02*
X909392D01*
X912948D02*
X917012D01*
X918028D02*
X920060D01*
X921584D02*
X923108D01*
X906852Y324804D02*
X909392D01*
X913964D02*
X915996D01*
X918028D02*
X920060D01*
X922092D02*
X923108D01*
X924632D02*
X925648D01*
X906852Y324296D02*
X909900D01*
X913456D02*
X915996D01*
X918028D02*
X920060D01*
X924124D02*
X925648D01*
X907360Y323788D02*
X909900D01*
X913964D02*
X915996D01*
X918028D02*
X920060D01*
X923616D02*
X925648D01*
X907868Y323280D02*
X910916D01*
X913456D02*
X915996D01*
X918028D02*
X920568D01*
X923108D02*
X925648D01*
X907868Y322772D02*
X915996D01*
X908884Y322264D02*
X915996D01*
X909392Y321756D02*
X914472D01*
X919044Y334456D02*
X920568D01*
X918536Y333948D02*
X921076D01*
X918536Y333440D02*
X921584D01*
X919044Y332932D02*
X922092D01*
X919552Y332424D02*
X922600D01*
X910916Y331916D02*
X913456D01*
X920568D02*
X922600D01*
X907868Y371540D02*
X913964D01*
X907868Y371032D02*
X913964D01*
X907868Y370524D02*
X913964D01*
X907868Y370016D02*
X913964D01*
X907868Y369508D02*
X913964D01*
X907868Y369000D02*
X913964D01*
X907868Y368492D02*
X913964D01*
X907868Y367984D02*
X913964D01*
X907868Y367476D02*
X913964D01*
X907868Y366968D02*
X913964D01*
X907868Y366460D02*
X913964D01*
X907868Y365952D02*
X913964D01*
X907868Y365444D02*
X913964D01*
X907868Y364936D02*
X913964D01*
X907868Y364428D02*
X913964D01*
X907868Y363920D02*
X913964D01*
X907868Y363412D02*
X913964D01*
X907868Y362904D02*
X913964D01*
X907868Y362396D02*
X913964D01*
X907868Y361888D02*
X913964D01*
X907868Y361380D02*
X913964D01*
X907868Y360872D02*
X913964D01*
X907868Y360364D02*
X913964D01*
X907868Y359856D02*
X913964D01*
X907868Y359348D02*
X913964D01*
X907868Y358840D02*
X913964D01*
X907868Y358332D02*
X913964D01*
X907868Y357824D02*
X913964D01*
X907868Y357316D02*
X913964D01*
X907360Y356808D02*
X914472D01*
X907360Y356300D02*
X914980D01*
X907360Y355792D02*
X915488D01*
X906852Y355284D02*
X916504D01*
X906344Y385256D02*
X914980D01*
X907360Y384748D02*
X913964D01*
X907868Y384240D02*
X913456D01*
X907868Y383732D02*
X913456D01*
X907868Y383224D02*
X913456D01*
X907868Y382716D02*
X913456D01*
X907868Y382208D02*
X913456D01*
X907868Y381700D02*
X913964D01*
X907868Y381192D02*
X913964D01*
X907868Y380684D02*
X913964D01*
X907868Y380176D02*
X913964D01*
X907868Y379668D02*
X913964D01*
X907868Y379160D02*
X913964D01*
X907868Y378652D02*
X913964D01*
X907868Y378144D02*
X913964D01*
X907868Y377636D02*
X913964D01*
X907868Y377128D02*
X913964D01*
X907868Y376620D02*
X913964D01*
X907868Y376112D02*
X913964D01*
X907868Y375604D02*
X913964D01*
X907868Y375096D02*
X913964D01*
X907868Y374588D02*
X913964D01*
X907868Y374080D02*
X913964D01*
X907868Y373572D02*
X913964D01*
X907868Y373064D02*
X913964D01*
X907868Y372556D02*
X913964D01*
X933776Y330900D02*
X941904D01*
X934284Y330392D02*
X941904D01*
X926664Y329884D02*
X928696D01*
X930220D02*
X933268D01*
X935300D02*
X937840D01*
X939872D02*
X942412D01*
X926664Y329376D02*
X928696D01*
X930728D02*
X933268D01*
X935300D02*
X937840D01*
X940380D02*
X942412D01*
X926664Y328868D02*
X928696D01*
X931236D02*
X933268D01*
X935300D02*
X937840D01*
X938856D02*
X940380D01*
X940888D02*
X942412D01*
X926664Y328360D02*
X928696D01*
X930728D02*
X933268D01*
X935300D02*
X937840D01*
X938856D02*
X940380D01*
X941396D02*
X941904D01*
X926664Y327852D02*
X928696D01*
X930728D02*
X933268D01*
X935300D02*
X937840D01*
X938856D02*
X940380D01*
X926664Y327344D02*
X928696D01*
X929712D02*
X933268D01*
X935300D02*
X940380D01*
X926664Y326836D02*
X932760D01*
X935300D02*
X940380D01*
X926664Y326328D02*
X931744D01*
X935300D02*
X940380D01*
X926664Y325820D02*
X931744D01*
X935300D02*
X937840D01*
X938856D02*
X940380D01*
X926664Y325312D02*
X928696D01*
X929204D02*
X932252D01*
X935300D02*
X937840D01*
X938856D02*
X940380D01*
X926664Y324804D02*
X928696D01*
X929712D02*
X932760D01*
X935300D02*
X937840D01*
X939364D02*
X939872D01*
X941396D02*
X942920D01*
X926664Y324296D02*
X928696D01*
X930220D02*
X932760D01*
X935300D02*
X937840D01*
X941396D02*
X942920D01*
X926664Y323788D02*
X928696D01*
X930220D02*
X933268D01*
X935300D02*
X937840D01*
X940888D02*
X942920D01*
X926664Y323280D02*
X928696D01*
X930728D02*
X933776D01*
X935300D02*
X937840D01*
X940380D02*
X942920D01*
X931236Y322772D02*
X942412D01*
X931236Y322264D02*
X942412D01*
X931744Y321756D02*
X941904D01*
X937332Y371540D02*
X944444D01*
X937332Y371032D02*
X944444D01*
X937332Y370524D02*
X944444D01*
X937332Y370016D02*
X944444D01*
X937332Y369508D02*
X944444D01*
X937332Y369000D02*
X944444D01*
X937332Y368492D02*
X944444D01*
X937332Y367984D02*
X944444D01*
X937332Y367476D02*
X943936D01*
X937332Y366968D02*
X943936D01*
X937332Y366460D02*
X943936D01*
X936824Y365952D02*
X943936D01*
X936824Y365444D02*
X943428D01*
X936824Y364936D02*
X943428D01*
X936316Y364428D02*
X943428D01*
X936316Y363920D02*
X943428D01*
X936316Y363412D02*
X942920D01*
X935808Y362904D02*
X942920D01*
X935808Y362396D02*
X942412D01*
X935300Y361888D02*
X942412D01*
X934792Y361380D02*
X941904D01*
X934792Y360872D02*
X941904D01*
X934284Y360364D02*
X941396D01*
X933776Y359856D02*
X941396D01*
X933268Y359348D02*
X940888D01*
X932760Y358840D02*
X940380D01*
X932252Y358332D02*
X939872D01*
X931744Y357824D02*
X939364D01*
X930728Y357316D02*
X938856D01*
X930220Y356808D02*
X938348D01*
X929204Y356300D02*
X937840D01*
X928188Y355792D02*
X937332D01*
X926664Y355284D02*
X936316D01*
X926664Y384240D02*
X936824D01*
X928188Y383732D02*
X937332D01*
X929204Y383224D02*
X937840D01*
X930220Y382716D02*
X938856D01*
X930728Y382208D02*
X939364D01*
X931744Y381700D02*
X939364D01*
X932252Y381192D02*
X939872D01*
X932760Y380684D02*
X940380D01*
X933268Y380176D02*
X940888D01*
X933776Y379668D02*
X941396D01*
X934284Y379160D02*
X941396D01*
X934792Y378652D02*
X941904D01*
X934792Y378144D02*
X942412D01*
X935300Y377636D02*
X942412D01*
X935808Y377128D02*
X942920D01*
X935808Y376620D02*
X942920D01*
X935808Y376112D02*
X942920D01*
X936316Y375604D02*
X943428D01*
X936316Y375096D02*
X943428D01*
X936316Y374588D02*
X943936D01*
X936824Y374080D02*
X943936D01*
X936824Y373572D02*
X943936D01*
X936824Y373064D02*
X943936D01*
X936824Y372556D02*
X943936D01*
X694000Y351728D02*
X699588D01*
X686888Y331408D02*
X691968D01*
X695016D02*
X700096D01*
X724988D02*
X741752D01*
X745308D02*
X752420D01*
X755468D02*
X763088D01*
X754960Y372048D02*
X761564D01*
X766644Y331408D02*
X773248D01*
X774772D02*
X780868D01*
X776296Y372048D02*
X782392D01*
X785948Y331408D02*
X791028D01*
X793060D02*
X800680D01*
X793568Y372048D02*
X800172D01*
X809316Y331408D02*
X813380D01*
X815412D02*
X821508D01*
X815412Y372048D02*
X821508D01*
X838272Y331408D02*
X842844D01*
X825572Y372048D02*
X834716D01*
X845384Y331408D02*
X848940D01*
X851988D02*
X855544D01*
X858592D02*
X863164D01*
X851988Y372048D02*
X858084D01*
X871800Y331408D02*
X876880D01*
X888056D02*
X893136D01*
X899232D02*
X903804D01*
X887040Y372048D02*
X893136D01*
X909392Y331408D02*
X915996D01*
X916504D02*
X924632D01*
X907868Y372048D02*
X913964D01*
X933776Y331408D02*
X941904D01*
X937332Y372048D02*
X944444D01*
X704668Y330900D02*
X724480D01*
X722448Y329884D02*
X726512D01*
X722956Y329376D02*
X726004D01*
X721432Y328868D02*
X722956D01*
X700096Y328360D02*
X705176D01*
X720924D02*
X722956D01*
X700096Y327852D02*
X705176D01*
X720924D02*
X722956D01*
X700096Y327344D02*
X705176D01*
X717368D02*
X722956D01*
X700096Y326836D02*
X705176D01*
X717368D02*
X722956D01*
X700096Y326328D02*
X705176D01*
X717368D02*
X722956D01*
X700096Y325820D02*
X705176D01*
X720924D02*
X722956D01*
X700096Y325312D02*
X705684D01*
X721432D02*
X722956D01*
X700096Y324804D02*
X702636D01*
X722448Y323280D02*
X724988D01*
X711780Y322772D02*
X724988D01*
X711780Y322264D02*
X724988D01*
X711780Y321756D02*
X724480D01*
X721432Y334456D02*
X722956D01*
X720924Y333948D02*
X723464D01*
X720416Y333440D02*
X723464D01*
X719908Y332932D02*
X722956D01*
X690952Y371540D02*
X704160D01*
X720416D02*
X726512D01*
X691968Y371032D02*
X705176D01*
X720416D02*
X726512D01*
X692984Y370524D02*
X705684D01*
X720416D02*
X726512D01*
X693492Y370016D02*
X706700D01*
X720416D02*
X726512D01*
X694508Y369508D02*
X707208D01*
X720416D02*
X726512D01*
X695524Y369000D02*
X707716D01*
X720416D02*
X726512D01*
X696540Y368492D02*
X708224D01*
X720416D02*
X726512D01*
X697556Y367984D02*
X708732D01*
X720416D02*
X727020D01*
X698572Y367476D02*
X708732D01*
X720416D02*
X727020D01*
X699588Y366968D02*
X709240D01*
X720416D02*
X727020D01*
X700604Y366460D02*
X709240D01*
X720416D02*
X727020D01*
X701112Y365952D02*
X709748D01*
X720416D02*
X727020D01*
X702128Y365444D02*
X709748D01*
X720924D02*
X727528D01*
X720924Y364936D02*
X727528D01*
X720924Y364428D02*
X727528D01*
X721432Y363920D02*
X727528D01*
X721432Y363412D02*
X728036D01*
X721940Y362904D02*
X728036D01*
X721940Y362396D02*
X728544D01*
X722448Y361888D02*
X728544D01*
X722448Y361380D02*
X729052D01*
X722956Y360872D02*
X729052D01*
X702636Y355284D02*
X707208D01*
X701112Y354776D02*
X706700D01*
X686380Y354268D02*
X706192D01*
X686888Y353760D02*
X705684D01*
X687904Y353252D02*
X704668D01*
X689428Y352744D02*
X703652D01*
X695524Y388304D02*
X702636D01*
X693492Y387796D02*
X704668D01*
X692476Y387288D02*
X705684D01*
X691460Y386780D02*
X706192D01*
X690444Y386272D02*
X707208D01*
X700096Y385764D02*
X707716D01*
X701620Y385256D02*
X707716D01*
X702636Y384748D02*
X707716D01*
X722956Y379160D02*
X729052D01*
X722956Y378652D02*
X728544D01*
X722448Y378144D02*
X728544D01*
X721940Y377636D02*
X728036D01*
X721940Y377128D02*
X728036D01*
X721432Y376620D02*
X728036D01*
X721432Y376112D02*
X727528D01*
X720924Y375604D02*
X727528D01*
X720924Y375096D02*
X727528D01*
X720924Y374588D02*
X727020D01*
X720924Y374080D02*
X727020D01*
X720416Y373572D02*
X727020D01*
X720416Y373064D02*
X727020D01*
X720416Y372556D02*
X727020D01*
X755468Y330900D02*
X763596D01*
X803220D02*
X807792D01*
X755468Y330392D02*
X763596D01*
X803220D02*
X807792D01*
X761564Y329884D02*
X763596D01*
X804236D02*
X806776D01*
X762072Y329376D02*
X763596D01*
X783916D02*
X786456D01*
X804236D02*
X806776D01*
X762072Y328868D02*
X763596D01*
X783916D02*
X785948D01*
X804236D02*
X806776D01*
X763088Y328360D02*
X763596D01*
X783408D02*
X785948D01*
X804236D02*
X806776D01*
X783408Y327852D02*
X785948D01*
X804236D02*
X806776D01*
X783408Y327344D02*
X785948D01*
X804236D02*
X806776D01*
X783408Y326836D02*
X785948D01*
X804236D02*
X806776D01*
X783408Y326328D02*
X785948D01*
X804236D02*
X806776D01*
X783408Y325820D02*
X785948D01*
X804236D02*
X806776D01*
X783408Y325312D02*
X785948D01*
X804236D02*
X806776D01*
X763088Y324804D02*
X764104D01*
X783408D02*
X785948D01*
X804236D02*
X806776D01*
X762580Y324296D02*
X764612D01*
X783916D02*
X786456D01*
X804236D02*
X806776D01*
X762580Y323788D02*
X764612D01*
X783916D02*
X786964D01*
X804236D02*
X806776D01*
X761564Y323280D02*
X764104D01*
X755468Y322772D02*
X764104D01*
X780360D02*
X784424D01*
X755468Y322264D02*
X763596D01*
X780360D02*
X784424D01*
X755468Y321756D02*
X763596D01*
X780868D02*
X784424D01*
X783916Y370016D02*
X785440D01*
X783916Y369508D02*
X797632D01*
X783916Y369000D02*
X797124D01*
X776296Y354776D02*
X784932D01*
X743276Y354268D02*
X751404D01*
X773756D02*
X787472D01*
X771724Y353760D02*
X788996D01*
X771724Y353252D02*
X788996D01*
X734132Y352744D02*
X747848D01*
X771724D02*
X788996D01*
X736672Y352236D02*
X744800D01*
X783916D02*
X788488D01*
X737688Y387796D02*
X744800D01*
X781376D02*
X792552D01*
X735148Y387288D02*
X747340D01*
X770708D02*
X794584D01*
X733624Y386780D02*
X748864D01*
X770200D02*
X796108D01*
X770200Y386272D02*
X797124D01*
X742260Y385764D02*
X751912D01*
X770708D02*
X797632D01*
X822016Y330900D02*
X835732D01*
X864688D02*
X869260D01*
X879420D02*
X886532D01*
X864688Y330392D02*
X869260D01*
X879420D02*
X887040D01*
X841828Y329884D02*
X844876D01*
X884500D02*
X887548D01*
X842336Y329376D02*
X844876D01*
X885008D02*
X887548D01*
X842844Y328868D02*
X845384D01*
X885008D02*
X887548D01*
X842844Y328360D02*
X845384D01*
X885008D02*
X887548D01*
X843352Y327852D02*
X845892D01*
X885008D02*
X887548D01*
X843352Y327344D02*
X845892D01*
X859608D02*
X868244D01*
X883992D02*
X887040D01*
X843352Y326836D02*
X845892D01*
X859608D02*
X868244D01*
X880436D02*
X887040D01*
X843352Y326328D02*
X845892D01*
X859608D02*
X868244D01*
X880436D02*
X886024D01*
X843352Y325820D02*
X845892D01*
X880436D02*
X886024D01*
X843352Y325312D02*
X845892D01*
X883484D02*
X886024D01*
X842844Y324804D02*
X845384D01*
X883992D02*
X886532D01*
X842844Y324296D02*
X845384D01*
X883992D02*
X887040D01*
X842844Y323788D02*
X844876D01*
X884500D02*
X887548D01*
X885008Y323280D02*
X888056D01*
X824048Y322772D02*
X829128D01*
X864688D02*
X869768D01*
X824048Y322264D02*
X829128D01*
X864688D02*
X869768D01*
X824048Y321756D02*
X829128D01*
X864688D02*
X869768D01*
X815412Y371540D02*
X833700D01*
X815412Y371032D02*
X832684D01*
X815412Y370524D02*
X831668D01*
X815412Y370016D02*
X831668D01*
X815412Y369508D02*
X832176D01*
X885516Y362396D02*
X891612D01*
X885516Y361888D02*
X891612D01*
X885516Y361380D02*
X891104D01*
X885008Y360872D02*
X890596D01*
X885008Y360364D02*
X890596D01*
X884500Y359856D02*
X890088D01*
X883992Y359348D02*
X889580D01*
X883992Y358840D02*
X889072D01*
X883484Y358332D02*
X888564D01*
X882976Y357824D02*
X888056D01*
X882468Y357316D02*
X887548D01*
X881960Y356808D02*
X887040D01*
X880944Y356300D02*
X886532D01*
X859100Y355792D02*
X865704D01*
X879928D02*
X885516D01*
X860116Y355284D02*
X866720D01*
X860624Y354776D02*
X867736D01*
X834716Y354268D02*
X846400D01*
X861640D02*
X870276D01*
X834716Y353760D02*
X846908D01*
X863164D02*
X881960D01*
X835224Y353252D02*
X846908D01*
X864180D02*
X880436D01*
X835224Y352744D02*
X846908D01*
X865196Y386780D02*
X880436D01*
X863672Y386272D02*
X881960D01*
X862148Y385764D02*
X871800D01*
X823032Y385256D02*
X835224D01*
X861132D02*
X868244D01*
X860116Y384748D02*
X866720D01*
X878404D02*
X885516D01*
X859608Y384240D02*
X865196D01*
X879420D02*
X886024D01*
X880436Y383732D02*
X886532D01*
X880944Y383224D02*
X887040D01*
X881960Y382716D02*
X887548D01*
X882468Y382208D02*
X888056D01*
X882976Y381700D02*
X888564D01*
X883484Y381192D02*
X889072D01*
X883992Y380684D02*
X889580D01*
X883992Y380176D02*
X890088D01*
X884500Y379668D02*
X890596D01*
X885008Y379160D02*
X891104D01*
X885008Y378652D02*
X891104D01*
X885516Y378144D02*
X891104D01*
X885516Y377636D02*
X891612D01*
X885516Y377128D02*
X892120D01*
X925648Y330900D02*
X932760D01*
X925648Y330392D02*
X932760D01*
X902788Y329884D02*
X905836D01*
X903296Y329376D02*
X905836D01*
X903804Y328868D02*
X906344D01*
X903804Y328360D02*
X906344D01*
X904312Y327852D02*
X908884D01*
X904312Y327344D02*
X908884D01*
X904312Y326836D02*
X908884D01*
X904312Y326328D02*
X908884D01*
X904312Y325820D02*
X908884D01*
X904312Y325312D02*
X906344D01*
X903804Y324804D02*
X906344D01*
X903804Y324296D02*
X906344D01*
X903296Y323788D02*
X905836D01*
X916504Y322772D02*
X930220D01*
X916504Y322264D02*
X930220D01*
X916504Y321756D02*
X930220D01*
X904820Y354776D02*
X918536D01*
X924124D02*
X935808D01*
X902280Y354268D02*
X934792D01*
X901772Y353760D02*
X933268D01*
X901772Y353252D02*
X931744D01*
X901772Y352744D02*
X930220D01*
X901772Y352236D02*
X908884D01*
X915488D02*
X927172D01*
X902280Y387796D02*
X927172D01*
X902280Y387288D02*
X929712D01*
X902280Y386780D02*
X931236D01*
X902788Y386272D02*
X932760D01*
X903804Y385764D02*
X933776D01*
X922092Y385256D02*
X935300D01*
X924632Y384748D02*
X935808D01*
X705176Y331408D02*
X723972D01*
X690444Y372048D02*
X703144D01*
X720416D02*
X726512D01*
X803220Y331408D02*
X807792D01*
X822016D02*
X835732D01*
X864688D02*
X869260D01*
X879420D02*
X886024D01*
X925648D02*
X931744D01*
X704160Y330392D02*
X741752D01*
X731592Y353760D02*
X750388D01*
X732608Y353252D02*
X748864D01*
X732100Y386272D02*
X750388D01*
X814396Y330392D02*
X835224D01*
X885008Y322772D02*
X896692D01*
X885516Y322264D02*
X896692D01*
X885516Y321756D02*
X896184D01*
X813380Y354776D02*
X824556D01*
X809824Y354268D02*
X826588D01*
X809316Y353760D02*
X827096D01*
X809316Y353252D02*
X827096D01*
X809316Y352744D02*
X827096D01*
X812364Y387796D02*
X827604D01*
X809824Y387288D02*
X831160D01*
X809316Y386780D02*
X832684D01*
X809316Y386272D02*
X834208D01*
X809824Y385764D02*
X834716D01*
X494716Y264528D02*
X495224D01*
X409880D02*
X410388D01*
X400736D02*
X401244D01*
X340284D02*
X341300D01*
X493192Y265036D02*
X496748D01*
X484048D02*
X486080D01*
X477952D02*
X479476D01*
X474904D02*
X476428D01*
X472364D02*
X473888D01*
X463728D02*
X468300D01*
X456108D02*
X457632D01*
X440360D02*
X444932D01*
X432232D02*
X436296D01*
X416992D02*
X421056D01*
X408356D02*
X411404D01*
X399212D02*
X402768D01*
X393624D02*
X395148D01*
X389052D02*
X390576D01*
X381432D02*
X382956D01*
X372288D02*
X376860D01*
X362128D02*
X366192D01*
X346888D02*
X351460D01*
X338760D02*
X342824D01*
X331140D02*
X332664D01*
X327584D02*
X329108D01*
X321488D02*
X323012D01*
X316916D02*
X318440D01*
X308788D02*
X312344D01*
X298120D02*
X302692D01*
X289992D02*
X294056D01*
X281356D02*
X285420D01*
X267640D02*
X272212D01*
X493192Y265544D02*
X497256D01*
X484048D02*
X486080D01*
X477952D02*
X479476D01*
X474904D02*
X476936D01*
X472364D02*
X473888D01*
X463728D02*
X468300D01*
X456108D02*
X457632D01*
X440360D02*
X444932D01*
X432232D02*
X436296D01*
X416992D02*
X421056D01*
X407848D02*
X412420D01*
X399212D02*
X403276D01*
X393624D02*
X395148D01*
X389052D02*
X391084D01*
X381432D02*
X382956D01*
X372288D02*
X376860D01*
X362128D02*
X366700D01*
X346888D02*
X351460D01*
X338252D02*
X342824D01*
X330632D02*
X332664D01*
X327584D02*
X329108D01*
X321488D02*
X323012D01*
X316916D02*
X318948D01*
X307772D02*
X312344D01*
X298120D02*
X302692D01*
X289992D02*
X294056D01*
X281356D02*
X285420D01*
X267640D02*
X272212D01*
X495732Y266052D02*
X497256D01*
X493192D02*
X494208D01*
X484048D02*
X486080D01*
X477952D02*
X479476D01*
X474904D02*
X476936D01*
X472364D02*
X473888D01*
X467284D02*
X467792D01*
X463728D02*
X465252D01*
X456108D02*
X457632D01*
X443916D02*
X444424D01*
X440360D02*
X441884D01*
X432232D02*
X433756D01*
X416992D02*
X418516D01*
X410388D02*
X412420D01*
X407848D02*
X409372D01*
X401752D02*
X403784D01*
X399212D02*
X400736D01*
X393116D02*
X395148D01*
X389560D02*
X391084D01*
X381432D02*
X382956D01*
X372288D02*
X374320D01*
X362128D02*
X367208D01*
X350444D02*
X351460D01*
X346888D02*
X348412D01*
X341808D02*
X342316D01*
X337744D02*
X340284D01*
X330632D02*
X332664D01*
X327584D02*
X329108D01*
X320980D02*
X323012D01*
X317424D02*
X318948D01*
X311328D02*
X312344D01*
X307264D02*
X309804D01*
X302184D02*
X302692D01*
X298120D02*
X300152D01*
X289992D02*
X291516D01*
X281356D02*
X282880D01*
X267640D02*
X269164D01*
X496240Y266560D02*
X497764D01*
X484048D02*
X486080D01*
X477952D02*
X479476D01*
X474396D02*
X477444D01*
X472364D02*
X473888D01*
X463728D02*
X465252D01*
X456108D02*
X457632D01*
X440360D02*
X441884D01*
X432232D02*
X433756D01*
X416992D02*
X418516D01*
X410896D02*
X412420D01*
X402260D02*
X403784D01*
X389560D02*
X394640D01*
X381432D02*
X382956D01*
X372288D02*
X374320D01*
X365684D02*
X367716D01*
X362128D02*
X364160D01*
X346888D02*
X348412D01*
X337744D02*
X339268D01*
X330124D02*
X332664D01*
X327584D02*
X329108D01*
X317424D02*
X322504D01*
X311328D02*
X312344D01*
X307264D02*
X308788D01*
X298120D02*
X300152D01*
X289992D02*
X291516D01*
X281356D02*
X282880D01*
X267640D02*
X269164D01*
X495732Y267068D02*
X497764D01*
X484048D02*
X485572D01*
X477952D02*
X479476D01*
X474396D02*
X477444D01*
X472364D02*
X473888D01*
X463728D02*
X465252D01*
X456108D02*
X457632D01*
X440360D02*
X441884D01*
X432232D02*
X433756D01*
X416992D02*
X418516D01*
X410896D02*
X412420D01*
X401752D02*
X403784D01*
X389560D02*
X394640D01*
X381432D02*
X382956D01*
X372288D02*
X374320D01*
X366192D02*
X367716D01*
X362128D02*
X364160D01*
X346888D02*
X348412D01*
X337236D02*
X339268D01*
X330124D02*
X332664D01*
X327584D02*
X329108D01*
X317424D02*
X322504D01*
X311328D02*
X312344D01*
X307264D02*
X308788D01*
X298120D02*
X300152D01*
X289992D02*
X291516D01*
X281356D02*
X282880D01*
X267640D02*
X269164D01*
X495224Y267576D02*
X497256D01*
X484048D02*
X487604D01*
X477952D02*
X479476D01*
X474396D02*
X477444D01*
X472364D02*
X473888D01*
X463728D02*
X467792D01*
X456108D02*
X457632D01*
X440360D02*
X444424D01*
X432232D02*
X433756D01*
X416992D02*
X421056D01*
X409880D02*
X412420D01*
X401244D02*
X403276D01*
X390068D02*
X394132D01*
X381432D02*
X384988D01*
X372288D02*
X376352D01*
X366192D02*
X367716D01*
X362128D02*
X364160D01*
X346888D02*
X350952D01*
X337236D02*
X338760D01*
X329616D02*
X332664D01*
X327584D02*
X329108D01*
X317932D02*
X321996D01*
X310312D02*
X312344D01*
X307264D02*
X308788D01*
X298120D02*
X302692D01*
X289992D02*
X291516D01*
X281356D02*
X284912D01*
X267640D02*
X269164D01*
X493700Y268084D02*
X497256D01*
X484048D02*
X488112D01*
X477952D02*
X479476D01*
X475920D02*
X477444D01*
X472364D02*
X475412D01*
X463728D02*
X467792D01*
X456108D02*
X457632D01*
X440360D02*
X444424D01*
X432232D02*
X433756D01*
X416992D02*
X421056D01*
X408864D02*
X411912D01*
X400228D02*
X403276D01*
X390068D02*
X394132D01*
X381432D02*
X385496D01*
X372288D02*
X376860D01*
X366192D02*
X368224D01*
X362128D02*
X364160D01*
X346888D02*
X351460D01*
X337236D02*
X338760D01*
X327584D02*
X332664D01*
X319964D02*
X321996D01*
X317932D02*
X319456D01*
X310312D02*
X312344D01*
X307264D02*
X308788D01*
X298120D02*
X302692D01*
X289992D02*
X291516D01*
X281356D02*
X284912D01*
X267640D02*
X269164D01*
X493700Y268592D02*
X496748D01*
X484048D02*
X488620D01*
X476428D02*
X479476D01*
X472364D02*
X475412D01*
X463728D02*
X467792D01*
X456108D02*
X457632D01*
X440360D02*
X444424D01*
X432232D02*
X433756D01*
X416992D02*
X421056D01*
X408356D02*
X411404D01*
X399720D02*
X402768D01*
X390068D02*
X394132D01*
X381432D02*
X385496D01*
X372288D02*
X376860D01*
X366192D02*
X368224D01*
X362128D02*
X364160D01*
X346888D02*
X351460D01*
X337236D02*
X338760D01*
X331140D02*
X332664D01*
X327584D02*
X330632D01*
X317932D02*
X321996D01*
X310312D02*
X312344D01*
X307264D02*
X308788D01*
X298120D02*
X302692D01*
X289992D02*
X291516D01*
X281356D02*
X284912D01*
X267640D02*
X269164D01*
X493192Y269100D02*
X495224D01*
X487096D02*
X488620D01*
X484048D02*
X486080D01*
X476428D02*
X479476D01*
X472364D02*
X475412D01*
X465760D02*
X467284D01*
X463728D02*
X465252D01*
X456108D02*
X457632D01*
X442392D02*
X443916D01*
X440360D02*
X441884D01*
X432232D02*
X433756D01*
X416992D02*
X420548D01*
X408356D02*
X410388D01*
X399720D02*
X401752D01*
X390576D02*
X393624D01*
X383972D02*
X385496D01*
X381432D02*
X382956D01*
X372288D02*
X375844D01*
X366192D02*
X367716D01*
X362128D02*
X364160D01*
X348920D02*
X350952D01*
X346888D02*
X348412D01*
X337236D02*
X339268D01*
X331140D02*
X332664D01*
X327584D02*
X330124D01*
X318440D02*
X321488D01*
X307264D02*
X308788D01*
X298120D02*
X302184D01*
X289992D02*
X291516D01*
X281356D02*
X284404D01*
X275260D02*
X276276D01*
X267640D02*
X269164D01*
X493192Y269608D02*
X494716D01*
X487096D02*
X488620D01*
X484048D02*
X486080D01*
X476428D02*
X479476D01*
X472364D02*
X474904D01*
X463728D02*
X465252D01*
X456108D02*
X457632D01*
X440360D02*
X441884D01*
X432232D02*
X433756D01*
X416992D02*
X418516D01*
X408356D02*
X409880D01*
X399212D02*
X400736D01*
X390576D02*
X393624D01*
X383972D02*
X385496D01*
X381432D02*
X382956D01*
X372288D02*
X374320D01*
X365684D02*
X367716D01*
X362128D02*
X364160D01*
X346888D02*
X348412D01*
X337744D02*
X339268D01*
X331140D02*
X332664D01*
X327584D02*
X330124D01*
X318440D02*
X321488D01*
X307264D02*
X309296D01*
X298120D02*
X300152D01*
X289992D02*
X291516D01*
X281356D02*
X282880D01*
X275260D02*
X276784D01*
X267640D02*
X269164D01*
X493192Y270116D02*
X496748D01*
X484048D02*
X488620D01*
X476936D02*
X479476D01*
X472872D02*
X474904D01*
X463728D02*
X467792D01*
X454584D02*
X459156D01*
X440360D02*
X444424D01*
X432232D02*
X433756D01*
X416992D02*
X421056D01*
X408356D02*
X411912D01*
X399720D02*
X403276D01*
X391084D02*
X393624D01*
X381432D02*
X385496D01*
X372288D02*
X376352D01*
X362128D02*
X367208D01*
X346888D02*
X350952D01*
X337744D02*
X342316D01*
X331140D02*
X332664D01*
X327584D02*
X329616D01*
X318948D02*
X320980D01*
X307772D02*
X312344D01*
X298120D02*
X302184D01*
X289992D02*
X291516D01*
X281356D02*
X284912D01*
X275260D02*
X276784D01*
X267640D02*
X269164D01*
X493192Y270624D02*
X497256D01*
X484048D02*
X488112D01*
X476936D02*
X478968D01*
X472872D02*
X474396D01*
X463728D02*
X468300D01*
X454076D02*
X459664D01*
X440360D02*
X444424D01*
X432232D02*
X433756D01*
X416992D02*
X421056D01*
X408356D02*
X412420D01*
X399720D02*
X403276D01*
X391084D02*
X393116D01*
X381432D02*
X385496D01*
X372288D02*
X376860D01*
X362128D02*
X366700D01*
X346888D02*
X351460D01*
X338252D02*
X342824D01*
X331140D02*
X332664D01*
X327584D02*
X329616D01*
X318948D02*
X320980D01*
X308280D02*
X312344D01*
X298120D02*
X302692D01*
X289992D02*
X291516D01*
X281356D02*
X285420D01*
X275260D02*
X276784D01*
X267640D02*
X269164D01*
X493700Y271132D02*
X497256D01*
X484048D02*
X487604D01*
X477444D02*
X478968D01*
X472872D02*
X474396D01*
X463728D02*
X468300D01*
X454076D02*
X459664D01*
X440360D02*
X444424D01*
X432232D02*
X433756D01*
X416992D02*
X421056D01*
X408864D02*
X412420D01*
X400228D02*
X403276D01*
X391084D02*
X393116D01*
X381432D02*
X384988D01*
X372288D02*
X376860D01*
X362128D02*
X366192D01*
X347396D02*
X351460D01*
X339268D02*
X342824D01*
X331140D02*
X332664D01*
X327584D02*
X329108D01*
X318948D02*
X320980D01*
X308788D02*
X312344D01*
X298628D02*
X302692D01*
X289992D02*
X291516D01*
X281356D02*
X285420D01*
X275260D02*
X276784D01*
X267640D02*
X269164D01*
X495224Y271640D02*
X495732D01*
X409880D02*
X410896D01*
X401244D02*
X402260D01*
X373812D02*
X375336D01*
X340792D02*
X341300D01*
X300152D02*
X301676D01*
X282372D02*
X283896D01*
X374320Y272148D02*
X375844D01*
X300152D02*
X301676D01*
X282880D02*
X284404D01*
X374320Y272656D02*
X375844D01*
X300152D02*
X302184D01*
X283388D02*
X284404D01*
X496748Y278752D02*
X497764D01*
X472872D02*
X473888D01*
X459156D02*
X460172D01*
X285928D02*
X286944D01*
X267640D02*
X268656D01*
X493700Y279260D02*
X497764D01*
X472872D02*
X476936D01*
X459156D02*
X462712D01*
X435280D02*
X442392D01*
X404800D02*
X411912D01*
X384988D02*
X385496D01*
X330124D02*
X333680D01*
X306756D02*
X310312D01*
X283388D02*
X286944D01*
X267640D02*
X271196D01*
X493192Y279768D02*
X497256D01*
X472872D02*
X476936D01*
X459156D02*
X462712D01*
X434264D02*
X442900D01*
X403784D02*
X413436D01*
X383972D02*
X385496D01*
X330124D02*
X333680D01*
X306756D02*
X310312D01*
X283388D02*
X286944D01*
X267640D02*
X271196D01*
X493192Y280276D02*
X497256D01*
X472872D02*
X476936D01*
X459156D02*
X462712D01*
X433248D02*
X444424D01*
X402260D02*
X414452D01*
X383464D02*
X385496D01*
X363144D02*
X364160D01*
X330124D02*
X333680D01*
X306756D02*
X310312D01*
X283388D02*
X286944D01*
X267640D02*
X271196D01*
X492684Y280784D02*
X496748D01*
X473380D02*
X477444D01*
X459156D02*
X462712D01*
X432740D02*
X444932D01*
X401752D02*
X414960D01*
X382956D02*
X385496D01*
X363144D02*
X364668D01*
X330124D02*
X333680D01*
X306756D02*
X310312D01*
X283388D02*
X286944D01*
X267640D02*
X271196D01*
X492684Y281292D02*
X496748D01*
X473380D02*
X477444D01*
X459156D02*
X462712D01*
X431724D02*
X445440D01*
X400736D02*
X415976D01*
X382448D02*
X385496D01*
X363144D02*
X364668D01*
X330124D02*
X333680D01*
X306756D02*
X310312D01*
X283388D02*
X286944D01*
X267640D02*
X271196D01*
X492176Y281800D02*
X496748D01*
X473888D02*
X477952D01*
X459156D02*
X462712D01*
X439852D02*
X445948D01*
X431216D02*
X437820D01*
X400228D02*
X416484D01*
X381940D02*
X385496D01*
X363144D02*
X365176D01*
X330124D02*
X333680D01*
X306756D02*
X310312D01*
X283388D02*
X286944D01*
X267640D02*
X271196D01*
X492176Y282308D02*
X496240D01*
X473888D02*
X477952D01*
X459156D02*
X462712D01*
X441884D02*
X446456D01*
X430708D02*
X436296D01*
X399720D02*
X416992D01*
X381432D02*
X385496D01*
X363144D02*
X365176D01*
X330124D02*
X333680D01*
X306756D02*
X310312D01*
X283388D02*
X286944D01*
X267640D02*
X271196D01*
X492176Y282816D02*
X496240D01*
X474396D02*
X478460D01*
X459156D02*
X462712D01*
X442900D02*
X446456D01*
X430708D02*
X435280D01*
X411912D02*
X417500D01*
X399212D02*
X405308D01*
X381432D02*
X385496D01*
X363144D02*
X365684D01*
X330124D02*
X333680D01*
X306756D02*
X310312D01*
X283388D02*
X286944D01*
X267640D02*
X271196D01*
X491668Y283324D02*
X495732D01*
X474396D02*
X478460D01*
X459156D02*
X462712D01*
X443408D02*
X446964D01*
X430708D02*
X434264D01*
X412928D02*
X418008D01*
X398704D02*
X404292D01*
X380924D02*
X385496D01*
X363144D02*
X366192D01*
X330124D02*
X333680D01*
X306756D02*
X310312D01*
X283388D02*
X286944D01*
X267640D02*
X271196D01*
X491668Y283832D02*
X495732D01*
X474904D02*
X478460D01*
X459156D02*
X462712D01*
X443916D02*
X446964D01*
X430708D02*
X433756D01*
X413436D02*
X418516D01*
X398196D02*
X403276D01*
X380416D02*
X385496D01*
X363144D02*
X366192D01*
X330124D02*
X333680D01*
X306756D02*
X310312D01*
X283388D02*
X286944D01*
X267640D02*
X271196D01*
X491160Y284340D02*
X495224D01*
X474904D02*
X478968D01*
X459156D02*
X462712D01*
X443916D02*
X447472D01*
X431216D02*
X432740D01*
X414452D02*
X419024D01*
X397688D02*
X402260D01*
X379908D02*
X385496D01*
X363144D02*
X366700D01*
X330124D02*
X333680D01*
X306756D02*
X310312D01*
X283388D02*
X286944D01*
X267640D02*
X271196D01*
X491160Y284848D02*
X495224D01*
X475412D02*
X479476D01*
X459156D02*
X462712D01*
X444424D02*
X447472D01*
X414960D02*
X419532D01*
X397688D02*
X401752D01*
X379400D02*
X385496D01*
X363144D02*
X366700D01*
X330124D02*
X333680D01*
X306756D02*
X310312D01*
X283388D02*
X286944D01*
X267640D02*
X271196D01*
X490652Y285356D02*
X494716D01*
X475412D02*
X479476D01*
X459156D02*
X462712D01*
X444424D02*
X447472D01*
X415468D02*
X419532D01*
X397180D02*
X401244D01*
X378892D02*
X385496D01*
X363144D02*
X366700D01*
X330124D02*
X333680D01*
X306756D02*
X310312D01*
X283388D02*
X286944D01*
X267640D02*
X271196D01*
X490652Y285864D02*
X494716D01*
X475412D02*
X479476D01*
X459156D02*
X462712D01*
X444424D02*
X447472D01*
X415976D02*
X420040D01*
X396672D02*
X400736D01*
X378384D02*
X385496D01*
X363144D02*
X366700D01*
X330124D02*
X333680D01*
X306756D02*
X310312D01*
X283388D02*
X286944D01*
X267640D02*
X271196D01*
X490144Y286372D02*
X494208D01*
X475920D02*
X479984D01*
X459156D02*
X462712D01*
X444424D02*
X447472D01*
X416484D02*
X420040D01*
X396672D02*
X400736D01*
X377876D02*
X385496D01*
X363144D02*
X366700D01*
X330124D02*
X333680D01*
X306756D02*
X310312D01*
X283388D02*
X286944D01*
X267640D02*
X271196D01*
X490144Y286880D02*
X494208D01*
X476428D02*
X479984D01*
X459156D02*
X462712D01*
X444424D02*
X447472D01*
X416484D02*
X420548D01*
X396164D02*
X400228D01*
X381940D02*
X385496D01*
X377368D02*
X381432D01*
X363144D02*
X366700D01*
X330124D02*
X333680D01*
X306756D02*
X310312D01*
X283388D02*
X286944D01*
X267640D02*
X271196D01*
X490144Y287388D02*
X494208D01*
X476428D02*
X480492D01*
X459156D02*
X462712D01*
X444424D02*
X447472D01*
X416992D02*
X420548D01*
X396164D02*
X400228D01*
X381940D02*
X385496D01*
X376860D02*
X381432D01*
X363144D02*
X366700D01*
X330124D02*
X333680D01*
X306756D02*
X310312D01*
X283388D02*
X286944D01*
X267640D02*
X271196D01*
X489636Y287896D02*
X493700D01*
X476428D02*
X480492D01*
X459156D02*
X462712D01*
X444424D02*
X447472D01*
X416992D02*
X421056D01*
X396164D02*
X399720D01*
X381940D02*
X385496D01*
X376352D02*
X380924D01*
X363144D02*
X366700D01*
X330124D02*
X333680D01*
X306756D02*
X310312D01*
X283388D02*
X286944D01*
X267640D02*
X271196D01*
X489636Y288404D02*
X493192D01*
X476936D02*
X481000D01*
X459156D02*
X462712D01*
X443916D02*
X447472D01*
X417500D02*
X421056D01*
X395656D02*
X399720D01*
X381940D02*
X385496D01*
X375844D02*
X380416D01*
X363144D02*
X366700D01*
X330124D02*
X333680D01*
X306756D02*
X310312D01*
X283388D02*
X286944D01*
X267640D02*
X271196D01*
X489128Y288912D02*
X493192D01*
X477444D02*
X481000D01*
X459156D02*
X462712D01*
X442900D02*
X446964D01*
X417500D02*
X421056D01*
X395656D02*
X399212D01*
X381940D02*
X385496D01*
X374828D02*
X379908D01*
X363144D02*
X366700D01*
X330124D02*
X333680D01*
X306756D02*
X310312D01*
X283388D02*
X286944D01*
X267640D02*
X271196D01*
X489128Y289420D02*
X492684D01*
X477444D02*
X481508D01*
X459156D02*
X462712D01*
X442392D02*
X446964D01*
X417500D02*
X421564D01*
X395656D02*
X399212D01*
X381940D02*
X385496D01*
X374828D02*
X379400D01*
X363144D02*
X366700D01*
X330124D02*
X333680D01*
X306756D02*
X310312D01*
X283388D02*
X286944D01*
X267640D02*
X271196D01*
X488620Y289928D02*
X492684D01*
X477952D02*
X481508D01*
X459156D02*
X462712D01*
X440868D02*
X446456D01*
X418008D02*
X421564D01*
X395148D02*
X399212D01*
X381940D02*
X385496D01*
X374320D02*
X378892D01*
X363144D02*
X366700D01*
X330124D02*
X333680D01*
X306756D02*
X310312D01*
X283388D02*
X286944D01*
X267640D02*
X271196D01*
X488620Y290436D02*
X492684D01*
X477952D02*
X482016D01*
X459156D02*
X462712D01*
X439852D02*
X445948D01*
X418008D02*
X421564D01*
X395148D02*
X399212D01*
X381940D02*
X385496D01*
X373812D02*
X378384D01*
X363144D02*
X366700D01*
X330124D02*
X333680D01*
X306756D02*
X310312D01*
X283388D02*
X286944D01*
X267640D02*
X271196D01*
X488112Y290944D02*
X492176D01*
X478460D02*
X482016D01*
X459156D02*
X462712D01*
X437820D02*
X445440D01*
X418008D02*
X421564D01*
X395148D02*
X399212D01*
X381940D02*
X385496D01*
X373304D02*
X377876D01*
X363144D02*
X366700D01*
X330124D02*
X344856D01*
X306248D02*
X310820D01*
X283388D02*
X286944D01*
X267640D02*
X271196D01*
X488112Y291452D02*
X492176D01*
X478460D02*
X482524D01*
X459156D02*
X462712D01*
X436804D02*
X444932D01*
X418008D02*
X421564D01*
X395148D02*
X399212D01*
X381940D02*
X385496D01*
X372796D02*
X377368D01*
X363144D02*
X366700D01*
X330124D02*
X346380D01*
X306248D02*
X311328D01*
X283388D02*
X286944D01*
X267640D02*
X271196D01*
X488112Y291960D02*
X491668D01*
X478460D02*
X482524D01*
X459156D02*
X462712D01*
X435280D02*
X443916D01*
X418008D02*
X421564D01*
X395148D02*
X398704D01*
X381940D02*
X385496D01*
X372288D02*
X376860D01*
X363144D02*
X366700D01*
X330124D02*
X347396D01*
X305740D02*
X311328D01*
X267640D02*
X286944D01*
X487604Y292468D02*
X491668D01*
X478968D02*
X483032D01*
X459156D02*
X462712D01*
X434772D02*
X443408D01*
X418008D02*
X421564D01*
X395148D02*
X398704D01*
X381940D02*
X385496D01*
X371780D02*
X376352D01*
X363144D02*
X366700D01*
X330124D02*
X348412D01*
X305740D02*
X311836D01*
X267640D02*
X286944D01*
X487604Y292976D02*
X491160D01*
X478968D02*
X483032D01*
X459156D02*
X462712D01*
X433756D02*
X441884D01*
X418008D02*
X421564D01*
X395148D02*
X399212D01*
X381940D02*
X385496D01*
X371272D02*
X375844D01*
X363144D02*
X366700D01*
X330124D02*
X348920D01*
X305232D02*
X312344D01*
X267640D02*
X286944D01*
X487604Y293484D02*
X491160D01*
X479476D02*
X483540D01*
X459156D02*
X462712D01*
X433248D02*
X440360D01*
X418008D02*
X421564D01*
X395148D02*
X399212D01*
X381940D02*
X385496D01*
X370764D02*
X375336D01*
X363144D02*
X366700D01*
X330124D02*
X349428D01*
X304724D02*
X312344D01*
X267640D02*
X286944D01*
X487096Y293992D02*
X490652D01*
X479476D02*
X483540D01*
X459156D02*
X462712D01*
X432740D02*
X438836D01*
X418008D02*
X421564D01*
X395148D02*
X399212D01*
X381940D02*
X385496D01*
X370256D02*
X374828D01*
X363144D02*
X366700D01*
X330124D02*
X349936D01*
X304724D02*
X312852D01*
X267640D02*
X286944D01*
X487096Y294500D02*
X490652D01*
X479984D02*
X483540D01*
X459156D02*
X462712D01*
X432232D02*
X437312D01*
X418008D02*
X421564D01*
X395656D02*
X399212D01*
X381940D02*
X385496D01*
X369748D02*
X374320D01*
X363144D02*
X366700D01*
X330124D02*
X350444D01*
X308788D02*
X312852D01*
X304216D02*
X308280D01*
X267640D02*
X286944D01*
X486588Y295008D02*
X490144D01*
X479984D02*
X484048D01*
X459156D02*
X462712D01*
X432232D02*
X436296D01*
X418008D02*
X421564D01*
X395656D02*
X399212D01*
X381940D02*
X385496D01*
X369240D02*
X373812D01*
X363144D02*
X366700D01*
X345872D02*
X350444D01*
X309296D02*
X313360D01*
X303708D02*
X308280D01*
X283388D02*
X286944D01*
X486588Y295516D02*
X490144D01*
X480492D02*
X484048D01*
X459156D02*
X462712D01*
X431724D02*
X435280D01*
X417500D02*
X421056D01*
X395656D02*
X399212D01*
X381940D02*
X384988D01*
X368732D02*
X373304D01*
X363144D02*
X366700D01*
X346888D02*
X350444D01*
X309804D02*
X313360D01*
X303708D02*
X307772D01*
X283388D02*
X286944D01*
X486080Y296024D02*
X490144D01*
X480492D02*
X484556D01*
X459156D02*
X462712D01*
X431724D02*
X434772D01*
X417500D02*
X421056D01*
X395656D02*
X399212D01*
X381940D02*
X384988D01*
X368732D02*
X372796D01*
X363144D02*
X366700D01*
X347396D02*
X350952D01*
X309804D02*
X313868D01*
X303200D02*
X307772D01*
X283388D02*
X286944D01*
X486080Y296532D02*
X489636D01*
X481000D02*
X484556D01*
X459156D02*
X462712D01*
X431724D02*
X434772D01*
X416992D02*
X421056D01*
X396164D02*
X399720D01*
X381940D02*
X384988D01*
X368224D02*
X372288D01*
X363144D02*
X366700D01*
X347904D02*
X350952D01*
X310312D02*
X314376D01*
X303200D02*
X307264D01*
X283388D02*
X286944D01*
X486080Y297040D02*
X489636D01*
X481000D02*
X485064D01*
X459156D02*
X462712D01*
X431724D02*
X434772D01*
X416992D02*
X420548D01*
X396164D02*
X399720D01*
X381940D02*
X384988D01*
X367716D02*
X371780D01*
X363144D02*
X366700D01*
X347904D02*
X350952D01*
X310820D02*
X314376D01*
X302692D02*
X306756D01*
X283388D02*
X286944D01*
X267640D02*
X271196D01*
X485572Y297548D02*
X489128D01*
X481508D02*
X485064D01*
X459156D02*
X462712D01*
X431724D02*
X434772D01*
X416992D02*
X420548D01*
X396164D02*
X400228D01*
X381940D02*
X384988D01*
X367208D02*
X371272D01*
X363144D02*
X366700D01*
X347904D02*
X351460D01*
X310820D02*
X314884D01*
X302184D02*
X306756D01*
X283388D02*
X286944D01*
X267640D02*
X271196D01*
X485572Y298056D02*
X489128D01*
X481508D02*
X485064D01*
X459156D02*
X462712D01*
X431724D02*
X434772D01*
X416484D02*
X420040D01*
X396672D02*
X400228D01*
X381940D02*
X384988D01*
X363144D02*
X370764D01*
X347904D02*
X351460D01*
X311328D02*
X315392D01*
X302184D02*
X306248D01*
X283388D02*
X286944D01*
X267640D02*
X271196D01*
X481508Y298564D02*
X488620D01*
X459156D02*
X462712D01*
X431724D02*
X434772D01*
X415976D02*
X420040D01*
X396672D02*
X400736D01*
X381940D02*
X384988D01*
X363144D02*
X370256D01*
X347904D02*
X351460D01*
X311836D02*
X315392D01*
X301676D02*
X306248D01*
X283388D02*
X286944D01*
X267640D02*
X271196D01*
X482016Y299072D02*
X488620D01*
X459156D02*
X462712D01*
X431724D02*
X434772D01*
X415468D02*
X420040D01*
X397180D02*
X401244D01*
X381940D02*
X384988D01*
X363144D02*
X370256D01*
X347904D02*
X351460D01*
X311836D02*
X315900D01*
X301676D02*
X305740D01*
X283388D02*
X286944D01*
X267640D02*
X271196D01*
X482016Y299580D02*
X488112D01*
X459156D02*
X462712D01*
X431724D02*
X434772D01*
X414960D02*
X419532D01*
X397180D02*
X401752D01*
X381940D02*
X384988D01*
X363144D02*
X369240D01*
X347904D02*
X350952D01*
X312344D02*
X315900D01*
X301168D02*
X305232D01*
X283388D02*
X286944D01*
X267640D02*
X271196D01*
X482524Y300088D02*
X488112D01*
X459156D02*
X462712D01*
X431724D02*
X434772D01*
X414452D02*
X419024D01*
X397688D02*
X402260D01*
X381940D02*
X384988D01*
X363144D02*
X369240D01*
X347904D02*
X350952D01*
X312344D02*
X316408D01*
X300660D02*
X305232D01*
X283388D02*
X286944D01*
X267640D02*
X271196D01*
X482524Y300596D02*
X488112D01*
X459156D02*
X462712D01*
X444932D02*
X446456D01*
X431724D02*
X434772D01*
X413944D02*
X418516D01*
X398196D02*
X402768D01*
X381940D02*
X384988D01*
X363144D02*
X368732D01*
X347396D02*
X350952D01*
X312852D02*
X316916D01*
X300660D02*
X304724D01*
X283388D02*
X286944D01*
X267640D02*
X271196D01*
X483032Y301104D02*
X487604D01*
X459156D02*
X462712D01*
X443916D02*
X446964D01*
X431724D02*
X435280D01*
X412928D02*
X418516D01*
X398704D02*
X403784D01*
X381940D02*
X384988D01*
X363144D02*
X368224D01*
X347396D02*
X350952D01*
X312852D02*
X316916D01*
X300152D02*
X304216D01*
X283388D02*
X286944D01*
X267640D02*
X271196D01*
X483032Y301612D02*
X487604D01*
X459156D02*
X462712D01*
X443408D02*
X447472D01*
X432232D02*
X435788D01*
X411912D02*
X418008D01*
X399212D02*
X404800D01*
X381940D02*
X384988D01*
X363144D02*
X367716D01*
X346380D02*
X350444D01*
X313360D02*
X317424D01*
X300152D02*
X304216D01*
X283388D02*
X286944D01*
X267640D02*
X271196D01*
X483540Y302120D02*
X487604D01*
X459156D02*
X462712D01*
X442392D02*
X447472D01*
X432232D02*
X436296D01*
X410896D02*
X417500D01*
X399212D02*
X406324D01*
X381940D02*
X384988D01*
X363144D02*
X367208D01*
X345872D02*
X350444D01*
X313868D02*
X317932D01*
X299644D02*
X303708D01*
X283388D02*
X286944D01*
X267640D02*
X271196D01*
X483540Y302628D02*
X487096D01*
X459156D02*
X462712D01*
X439344D02*
X447472D01*
X432740D02*
X438836D01*
X400228D02*
X416992D01*
X382448D02*
X384988D01*
X363144D02*
X366700D01*
X330124D02*
X349936D01*
X313868D02*
X317932D01*
X299136D02*
X303708D01*
X283388D02*
X286944D01*
X267640D02*
X271196D01*
X484048Y303136D02*
X487096D01*
X459156D02*
X462712D01*
X433248D02*
X446456D01*
X400736D02*
X415976D01*
X382448D02*
X384988D01*
X363144D02*
X366192D01*
X330124D02*
X349428D01*
X314376D02*
X318440D01*
X299136D02*
X303200D01*
X283388D02*
X286944D01*
X267640D02*
X271196D01*
X484048Y303644D02*
X486588D01*
X459156D02*
X462712D01*
X433756D02*
X445948D01*
X401244D02*
X415468D01*
X382956D02*
X384988D01*
X363144D02*
X365684D01*
X330124D02*
X348920D01*
X314376D02*
X318948D01*
X298628D02*
X302692D01*
X283388D02*
X286944D01*
X267640D02*
X271196D01*
X484048Y304152D02*
X486588D01*
X459156D02*
X462712D01*
X434264D02*
X444932D01*
X402260D02*
X414452D01*
X383464D02*
X384988D01*
X363144D02*
X365176D01*
X330124D02*
X348412D01*
X314884D02*
X318948D01*
X298120D02*
X302692D01*
X283388D02*
X286944D01*
X267640D02*
X271196D01*
X484556Y304660D02*
X486080D01*
X459156D02*
X462712D01*
X434772D02*
X444424D01*
X403276D02*
X413944D01*
X383972D02*
X384988D01*
X363144D02*
X364668D01*
X330124D02*
X347904D01*
X315392D02*
X319456D01*
X298120D02*
X302184D01*
X283388D02*
X286944D01*
X267640D02*
X271196D01*
X484556Y305168D02*
X486080D01*
X459156D02*
X462712D01*
X435788D02*
X442900D01*
X404292D02*
X412420D01*
X384480D02*
X384988D01*
X363144D02*
X364160D01*
X330632D02*
X346888D01*
X315392D02*
X319456D01*
X298120D02*
X301676D01*
X283388D02*
X286944D01*
X267640D02*
X271196D01*
X459156Y305676D02*
X462712D01*
X437312D02*
X441376D01*
X406324D02*
X410388D01*
X330632D02*
X345364D01*
X316408D02*
X319456D01*
X298628D02*
X301676D01*
X283388D02*
X286944D01*
X268148D02*
X270688D01*
X398704Y327012D02*
X410896D01*
X354508D02*
X366700D01*
X396164Y327520D02*
X413436D01*
X351968D02*
X369240D01*
X393624Y328028D02*
X415976D01*
X349428D02*
X371780D01*
X391592Y328536D02*
X417500D01*
X347904D02*
X373304D01*
X390068Y329044D02*
X419024D01*
X346380D02*
X374828D01*
X389052Y329552D02*
X420548D01*
X344856D02*
X376352D01*
X411404Y330060D02*
X422072D01*
X403276D02*
X405308D01*
X387528D02*
X398196D01*
X367208D02*
X377876D01*
X360096D02*
X361620D01*
X343332D02*
X354000D01*
X413944Y330568D02*
X423088D01*
X403276D02*
X405308D01*
X386512D02*
X395148D01*
X369748D02*
X378892D01*
X359588D02*
X362128D01*
X342316D02*
X351460D01*
X415976Y331076D02*
X424104D01*
X403276D02*
X405308D01*
X384988D02*
X393624D01*
X371780D02*
X380416D01*
X359588D02*
X362128D01*
X341300D02*
X349428D01*
X418008Y331584D02*
X425120D01*
X403276D02*
X405308D01*
X384480D02*
X391592D01*
X373812D02*
X380416D01*
X359588D02*
X362128D01*
X340284D02*
X347396D01*
X419024Y332092D02*
X426136D01*
X403276D02*
X405308D01*
X382956D02*
X390068D01*
X375336D02*
X380416D01*
X359588D02*
X362128D01*
X339268D02*
X345872D01*
X421056Y332600D02*
X427152D01*
X403276D02*
X405308D01*
X382448D02*
X388544D01*
X376860D02*
X378892D01*
X359588D02*
X362128D01*
X338252D02*
X344348D01*
X422072Y333108D02*
X428168D01*
X403276D02*
X405308D01*
X381432D02*
X387528D01*
X359588D02*
X362128D01*
X337236D02*
X343332D01*
X423088Y333616D02*
X429184D01*
X403276D02*
X405308D01*
X380416D02*
X386004D01*
X359588D02*
X362128D01*
X336220D02*
X342316D01*
X424104Y334124D02*
X429692D01*
X403276D02*
X405308D01*
X379908D02*
X385496D01*
X359588D02*
X362128D01*
X335712D02*
X341300D01*
X425120Y334632D02*
X430708D01*
X403276D02*
X405308D01*
X378892D02*
X384480D01*
X359588D02*
X361620D01*
X334696D02*
X340284D01*
X426136Y335140D02*
X431216D01*
X378384D02*
X383464D01*
X334188D02*
X339268D01*
X427152Y335648D02*
X432232D01*
X377368D02*
X382448D01*
X333172D02*
X338252D01*
X427660Y336156D02*
X432740D01*
X400228D02*
X408864D01*
X376860D02*
X381432D01*
X356540D02*
X364668D01*
X332664D02*
X337744D01*
X428676Y336664D02*
X433248D01*
X400228D02*
X408864D01*
X375844D02*
X380924D01*
X356540D02*
X365176D01*
X332156D02*
X336728D01*
X429184Y337172D02*
X433756D01*
X400228D02*
X408864D01*
X375336D02*
X379908D01*
X356540D02*
X365176D01*
X331648D02*
X336220D01*
X430200Y337680D02*
X434772D01*
X400228D02*
X408864D01*
X374828D02*
X379400D01*
X356540D02*
X365176D01*
X330632D02*
X335204D01*
X430708Y338188D02*
X435280D01*
X400228D02*
X408864D01*
X374320D02*
X378892D01*
X356540D02*
X365176D01*
X330124D02*
X334696D01*
X431216Y338696D02*
X435788D01*
X400228D02*
X408864D01*
X373812D02*
X377876D01*
X356540D02*
X365176D01*
X329616D02*
X334188D01*
X432232Y339204D02*
X436296D01*
X400228D02*
X408864D01*
X373304D02*
X377368D01*
X356540D02*
X365176D01*
X329108D02*
X333172D01*
X432740Y339712D02*
X436804D01*
X400228D02*
X408864D01*
X372796D02*
X376860D01*
X356540D02*
X365176D01*
X328600D02*
X332664D01*
X433248Y340220D02*
X437312D01*
X400228D02*
X408864D01*
X372796D02*
X376352D01*
X356540D02*
X365176D01*
X328092D02*
X332156D01*
X433756Y340728D02*
X437820D01*
X400228D02*
X408864D01*
X372796D02*
X375336D01*
X356540D02*
X365176D01*
X327584D02*
X331648D01*
X434772Y341236D02*
X438328D01*
X400228D02*
X408864D01*
X372796D02*
X374828D01*
X356540D02*
X365176D01*
X327076D02*
X331140D01*
X435280Y341744D02*
X438836D01*
X400228D02*
X408864D01*
X372796D02*
X374320D01*
X356540D02*
X365176D01*
X326568D02*
X330124D01*
X435788Y342252D02*
X439344D01*
X400228D02*
X408864D01*
X372796D02*
X374320D01*
X356540D02*
X365176D01*
X326060D02*
X329616D01*
X436296Y342760D02*
X439852D01*
X400228D02*
X408864D01*
X356540D02*
X365176D01*
X325552D02*
X329108D01*
X436804Y343268D02*
X440360D01*
X400228D02*
X408864D01*
X356540D02*
X365176D01*
X325044D02*
X328600D01*
X437312Y343776D02*
X440868D01*
X400228D02*
X408864D01*
X356540D02*
X365176D01*
X324536D02*
X328092D01*
X437312Y344284D02*
X441376D01*
X400228D02*
X408864D01*
X356540D02*
X365176D01*
X324028D02*
X328092D01*
X437820Y344792D02*
X441884D01*
X400228D02*
X408864D01*
X356540D02*
X365176D01*
X323520D02*
X327584D01*
X438328Y345300D02*
X442392D01*
X400228D02*
X408864D01*
X356540D02*
X365176D01*
X323012D02*
X327076D01*
X438836Y345808D02*
X442392D01*
X400228D02*
X408864D01*
X356540D02*
X365176D01*
X323012D02*
X326568D01*
X439344Y346316D02*
X442900D01*
X400228D02*
X408864D01*
X356540D02*
X365176D01*
X322504D02*
X326060D01*
X439852Y346824D02*
X443408D01*
X400228D02*
X408864D01*
X356540D02*
X365176D01*
X321996D02*
X325552D01*
X440360Y347332D02*
X443408D01*
X400228D02*
X408864D01*
X356540D02*
X365176D01*
X321996D02*
X325552D01*
X440360Y347840D02*
X443916D01*
X400228D02*
X408864D01*
X356540D02*
X365176D01*
X321488D02*
X325044D01*
X440868Y348348D02*
X444424D01*
X400228D02*
X408864D01*
X356540D02*
X365176D01*
X320980D02*
X324536D01*
X441376Y348856D02*
X444424D01*
X400228D02*
X408864D01*
X356540D02*
X365176D01*
X320980D02*
X324028D01*
X441376Y349364D02*
X444932D01*
X400228D02*
X408864D01*
X356540D02*
X365176D01*
X320472D02*
X324028D01*
X441884Y349872D02*
X445440D01*
X400228D02*
X408864D01*
X356540D02*
X365176D01*
X319964D02*
X323520D01*
X442392Y350380D02*
X445440D01*
X400228D02*
X408864D01*
X356540D02*
X365176D01*
X319964D02*
X323012D01*
X442392Y350888D02*
X445948D01*
X400228D02*
X408864D01*
X356540D02*
X365176D01*
X319456D02*
X323012D01*
X442900Y351396D02*
X445948D01*
X400228D02*
X408864D01*
X356540D02*
X365176D01*
X319456D02*
X322504D01*
X443408Y351904D02*
X446456D01*
X400228D02*
X408864D01*
X356540D02*
X365176D01*
X318948D02*
X321996D01*
X443408Y352412D02*
X446964D01*
X400228D02*
X408864D01*
X356540D02*
X365176D01*
X318440D02*
X321996D01*
X443916Y352920D02*
X446964D01*
X400228D02*
X408864D01*
X356540D02*
X365176D01*
X318440D02*
X321488D01*
X443916Y353428D02*
X447472D01*
X400228D02*
X408864D01*
X356540D02*
X365176D01*
X317932D02*
X321488D01*
X444424Y353936D02*
X447472D01*
X400228D02*
X408864D01*
X356540D02*
X365176D01*
X317932D02*
X320980D01*
X444424Y354444D02*
X447472D01*
X400228D02*
X408864D01*
X356540D02*
X365176D01*
X317932D02*
X320980D01*
X444932Y354952D02*
X447980D01*
X400228D02*
X408864D01*
X356540D02*
X365176D01*
X317424D02*
X320472D01*
X444932Y355460D02*
X447980D01*
X400228D02*
X408864D01*
X356540D02*
X365176D01*
X317424D02*
X320472D01*
X445440Y355968D02*
X448488D01*
X400228D02*
X408864D01*
X356540D02*
X365176D01*
X316916D02*
X319964D01*
X445440Y356476D02*
X448488D01*
X400228D02*
X408864D01*
X356540D02*
X365176D01*
X316916D02*
X319964D01*
X445440Y356984D02*
X448996D01*
X400228D02*
X408864D01*
X356540D02*
X365176D01*
X316408D02*
X319964D01*
X445948Y357492D02*
X448996D01*
X400228D02*
X408864D01*
X356540D02*
X365176D01*
X316408D02*
X319456D01*
X445948Y358000D02*
X448996D01*
X400228D02*
X408864D01*
X356540D02*
X365176D01*
X316408D02*
X319456D01*
X446456Y358508D02*
X449504D01*
X400228D02*
X408864D01*
X356540D02*
X365176D01*
X315900D02*
X318948D01*
X446456Y359016D02*
X449504D01*
X400228D02*
X408864D01*
X356540D02*
X365176D01*
X315900D02*
X318948D01*
X446456Y359524D02*
X450012D01*
X400228D02*
X408864D01*
X356540D02*
X365176D01*
X315392D02*
X318948D01*
X446964Y360032D02*
X450012D01*
X400228D02*
X408864D01*
X356540D02*
X365176D01*
X315392D02*
X318440D01*
X446964Y360540D02*
X450012D01*
X400228D02*
X408864D01*
X356540D02*
X365176D01*
X315392D02*
X318440D01*
X446964Y361048D02*
X450012D01*
X400228D02*
X408864D01*
X356540D02*
X365176D01*
X315392D02*
X318440D01*
X447472Y361556D02*
X450520D01*
X400228D02*
X408864D01*
X356540D02*
X365176D01*
X314884D02*
X317932D01*
X447472Y362064D02*
X450520D01*
X400228D02*
X408864D01*
X356540D02*
X365176D01*
X314884D02*
X317932D01*
X447472Y362572D02*
X450520D01*
X400228D02*
X408864D01*
X356540D02*
X365176D01*
X314884D02*
X317932D01*
X447980Y363080D02*
X450520D01*
X400228D02*
X408864D01*
X356540D02*
X365176D01*
X314884D02*
X317424D01*
X447980Y363588D02*
X451028D01*
X400228D02*
X408864D01*
X356540D02*
X365176D01*
X314376D02*
X317424D01*
X447980Y364096D02*
X451028D01*
X400228D02*
X408864D01*
X356540D02*
X365176D01*
X314376D02*
X317424D01*
X447980Y364604D02*
X451028D01*
X400228D02*
X408864D01*
X356540D02*
X365176D01*
X314376D02*
X317424D01*
X447980Y365112D02*
X451028D01*
X400228D02*
X408864D01*
X356540D02*
X365176D01*
X314376D02*
X317424D01*
X448488Y365620D02*
X451028D01*
X400228D02*
X408864D01*
X356540D02*
X365176D01*
X313868D02*
X316916D01*
X448488Y366128D02*
X451536D01*
X400228D02*
X408864D01*
X356540D02*
X365176D01*
X313868D02*
X316916D01*
X448488Y366636D02*
X451536D01*
X400228D02*
X408864D01*
X356540D02*
X365176D01*
X313868D02*
X316916D01*
X448488Y367144D02*
X451536D01*
X400228D02*
X408864D01*
X356540D02*
X365176D01*
X313868D02*
X316916D01*
X448488Y367652D02*
X451536D01*
X400228D02*
X408864D01*
X356540D02*
X365176D01*
X313868D02*
X316916D01*
X448996Y368160D02*
X451536D01*
X400228D02*
X408864D01*
X356540D02*
X364668D01*
X313868D02*
X316408D01*
X448996Y368668D02*
X451536D01*
X399720D02*
X409372D01*
X356032D02*
X365176D01*
X313868D02*
X316408D01*
X448996Y369176D02*
X452044D01*
X399212D02*
X409880D01*
X355524D02*
X365684D01*
X313360D02*
X316408D01*
X448996Y369684D02*
X452044D01*
X398704D02*
X410388D01*
X355016D02*
X366192D01*
X313360D02*
X316408D01*
X448996Y370192D02*
X452044D01*
X398704D02*
X410388D01*
X354508D02*
X366700D01*
X313360D02*
X316408D01*
X448996Y370700D02*
X452044D01*
X405816D02*
X410896D01*
X373304D02*
X403276D01*
X362128D02*
X366700D01*
X354508D02*
X359588D01*
X313360D02*
X316408D01*
X448996Y371208D02*
X452044D01*
X406832D02*
X410896D01*
X373304D02*
X402260D01*
X362636D02*
X367208D01*
X354000D02*
X358572D01*
X313360D02*
X316408D01*
X448996Y371716D02*
X452044D01*
X406832D02*
X411404D01*
X373304D02*
X401752D01*
X363144D02*
X367208D01*
X354000D02*
X358064D01*
X313360D02*
X316408D01*
X448996Y372224D02*
X452044D01*
X407340D02*
X411404D01*
X373812D02*
X401752D01*
X363652D02*
X367208D01*
X354000D02*
X358064D01*
X313360D02*
X316408D01*
X448996Y372732D02*
X452044D01*
X407340D02*
X411404D01*
X373812D02*
X401244D01*
X363652D02*
X367208D01*
X354000D02*
X357556D01*
X313360D02*
X316408D01*
X443408Y373240D02*
X452044D01*
X407340D02*
X411404D01*
X373812D02*
X401244D01*
X364160D02*
X367208D01*
X353492D02*
X357556D01*
X313360D02*
X320980D01*
X443408Y373748D02*
X452044D01*
X407848D02*
X411404D01*
X373812D02*
X401244D01*
X364160D02*
X367208D01*
X353492D02*
X357556D01*
X313360D02*
X320980D01*
X443408Y374256D02*
X452044D01*
X407340D02*
X411404D01*
X373812D02*
X401244D01*
X364160D02*
X367208D01*
X353492D02*
X357556D01*
X313360D02*
X320980D01*
X443408Y374764D02*
X452044D01*
X407340D02*
X411404D01*
X373812D02*
X401244D01*
X363652D02*
X367208D01*
X354000D02*
X357556D01*
X313360D02*
X320980D01*
X448996Y375272D02*
X452044D01*
X407340D02*
X411404D01*
X373304D02*
X401244D01*
X363652D02*
X367208D01*
X354000D02*
X358064D01*
X313360D02*
X316408D01*
X448996Y375780D02*
X452044D01*
X406832D02*
X411404D01*
X373304D02*
X401752D01*
X363144D02*
X367208D01*
X354000D02*
X358064D01*
X313360D02*
X316408D01*
X448996Y376288D02*
X452044D01*
X406324D02*
X410896D01*
X372796D02*
X402260D01*
X362636D02*
X367208D01*
X354000D02*
X358572D01*
X313360D02*
X316408D01*
X448996Y376796D02*
X452044D01*
X405816D02*
X410896D01*
X372796D02*
X403276D01*
X361620D02*
X366700D01*
X354508D02*
X359588D01*
X313360D02*
X316408D01*
X448996Y377304D02*
X452044D01*
X398704D02*
X410388D01*
X354508D02*
X366700D01*
X313360D02*
X316408D01*
X448996Y377812D02*
X452044D01*
X398704D02*
X410388D01*
X355016D02*
X366192D01*
X313360D02*
X316408D01*
X448996Y378320D02*
X452044D01*
X399212D02*
X409880D01*
X355524D02*
X365684D01*
X313360D02*
X316408D01*
X448996Y378828D02*
X451536D01*
X399720D02*
X409372D01*
X356032D02*
X365176D01*
X313868D02*
X316408D01*
X448996Y379336D02*
X451536D01*
X400228D02*
X408864D01*
X356540D02*
X365176D01*
X313868D02*
X316408D01*
X448996Y379844D02*
X451536D01*
X400228D02*
X408864D01*
X356540D02*
X365176D01*
X313868D02*
X316408D01*
X448488Y380352D02*
X451536D01*
X400228D02*
X408864D01*
X356540D02*
X365176D01*
X313868D02*
X316916D01*
X448488Y380860D02*
X451536D01*
X400228D02*
X408864D01*
X356540D02*
X365176D01*
X313868D02*
X316916D01*
X448488Y381368D02*
X451536D01*
X400228D02*
X408864D01*
X356540D02*
X365176D01*
X313868D02*
X316916D01*
X448488Y381876D02*
X451536D01*
X400228D02*
X408864D01*
X356540D02*
X365176D01*
X313868D02*
X316916D01*
X448488Y382384D02*
X451028D01*
X400228D02*
X408864D01*
X356540D02*
X365176D01*
X314376D02*
X316916D01*
X447980Y382892D02*
X451028D01*
X400228D02*
X408864D01*
X356540D02*
X365176D01*
X314376D02*
X317424D01*
X447980Y383400D02*
X451028D01*
X400228D02*
X408864D01*
X356540D02*
X365176D01*
X314376D02*
X317424D01*
X447980Y383908D02*
X451028D01*
X400228D02*
X408864D01*
X356540D02*
X365176D01*
X314376D02*
X317424D01*
X447980Y384416D02*
X451028D01*
X400228D02*
X408864D01*
X356540D02*
X365176D01*
X314376D02*
X317424D01*
X447980Y384924D02*
X450520D01*
X400228D02*
X408864D01*
X356540D02*
X365176D01*
X314376D02*
X317424D01*
X447472Y385432D02*
X450520D01*
X400228D02*
X408864D01*
X356540D02*
X365176D01*
X314884D02*
X317932D01*
X447472Y385940D02*
X450520D01*
X400228D02*
X408864D01*
X356540D02*
X365176D01*
X314884D02*
X317932D01*
X446964Y386448D02*
X450520D01*
X400228D02*
X408864D01*
X356540D02*
X365176D01*
X315392D02*
X318440D01*
X446964Y386956D02*
X450012D01*
X400228D02*
X408864D01*
X356540D02*
X365176D01*
X315392D02*
X318440D01*
X446964Y387464D02*
X450012D01*
X400228D02*
X408864D01*
X356540D02*
X365176D01*
X315392D02*
X318440D01*
X446964Y387972D02*
X450012D01*
X400228D02*
X408864D01*
X356540D02*
X365176D01*
X315392D02*
X318440D01*
X446964Y388480D02*
X450012D01*
X400228D02*
X408864D01*
X356540D02*
X365176D01*
X315392D02*
X318948D01*
X446456Y388988D02*
X449504D01*
X400228D02*
X408864D01*
X356540D02*
X365176D01*
X315900D02*
X318948D01*
X446456Y389496D02*
X449504D01*
X400228D02*
X408864D01*
X356540D02*
X365176D01*
X315900D02*
X318948D01*
X445948Y390004D02*
X448996D01*
X400228D02*
X408864D01*
X356540D02*
X365176D01*
X316408D02*
X319456D01*
X445948Y390512D02*
X448996D01*
X400228D02*
X408864D01*
X356540D02*
X365176D01*
X316408D02*
X319456D01*
X445440Y391020D02*
X448996D01*
X400228D02*
X408864D01*
X356540D02*
X365176D01*
X316408D02*
X319964D01*
X445440Y391528D02*
X448488D01*
X400228D02*
X408864D01*
X356540D02*
X365176D01*
X316916D02*
X319964D01*
X445440Y392036D02*
X448488D01*
X400228D02*
X408864D01*
X356540D02*
X365176D01*
X316916D02*
X319964D01*
X444932Y392544D02*
X447980D01*
X400228D02*
X408864D01*
X356540D02*
X365176D01*
X317424D02*
X320472D01*
X444932Y393052D02*
X447980D01*
X400228D02*
X408864D01*
X356540D02*
X365176D01*
X317424D02*
X320472D01*
X444424Y393560D02*
X447980D01*
X400228D02*
X408864D01*
X356540D02*
X365176D01*
X317424D02*
X320980D01*
X444424Y394068D02*
X447472D01*
X400228D02*
X408864D01*
X356540D02*
X365176D01*
X317932D02*
X320980D01*
X443916Y394576D02*
X447472D01*
X400228D02*
X408864D01*
X356540D02*
X365176D01*
X317932D02*
X321488D01*
X443916Y395084D02*
X446964D01*
X400228D02*
X408864D01*
X356540D02*
X365176D01*
X318440D02*
X321488D01*
X443408Y395592D02*
X446964D01*
X400228D02*
X408864D01*
X356540D02*
X365176D01*
X318440D02*
X321996D01*
X443408Y396100D02*
X446456D01*
X400228D02*
X408864D01*
X356540D02*
X365176D01*
X318948D02*
X321996D01*
X442900Y396608D02*
X445948D01*
X400228D02*
X408864D01*
X356540D02*
X365176D01*
X319456D02*
X322504D01*
X442392Y397116D02*
X445948D01*
X400228D02*
X408864D01*
X356540D02*
X365176D01*
X319456D02*
X323012D01*
X442392Y397624D02*
X445440D01*
X400228D02*
X408864D01*
X356540D02*
X365176D01*
X319964D02*
X323012D01*
X441884Y398132D02*
X445440D01*
X400228D02*
X408864D01*
X356540D02*
X365176D01*
X319964D02*
X323520D01*
X441376Y398640D02*
X444932D01*
X400228D02*
X408864D01*
X356540D02*
X365176D01*
X320472D02*
X324028D01*
X441376Y399148D02*
X444424D01*
X400228D02*
X408864D01*
X356540D02*
X365176D01*
X320980D02*
X324028D01*
X440868Y399656D02*
X443916D01*
X400228D02*
X408864D01*
X356540D02*
X365176D01*
X321488D02*
X324536D01*
X440360Y400164D02*
X443916D01*
X400228D02*
X408864D01*
X356540D02*
X365176D01*
X321488D02*
X325044D01*
X439852Y400672D02*
X443408D01*
X400228D02*
X408864D01*
X356540D02*
X365176D01*
X321996D02*
X325552D01*
X439344Y401180D02*
X442900D01*
X400228D02*
X408864D01*
X356540D02*
X365176D01*
X322504D02*
X326060D01*
X439344Y401688D02*
X442900D01*
X400228D02*
X408864D01*
X356540D02*
X365176D01*
X322504D02*
X326060D01*
X438836Y402196D02*
X442392D01*
X400228D02*
X408864D01*
X356540D02*
X365176D01*
X323012D02*
X326568D01*
X438328Y402704D02*
X441884D01*
X400228D02*
X408864D01*
X356540D02*
X365176D01*
X323520D02*
X327076D01*
X437820Y403212D02*
X441376D01*
X400228D02*
X408864D01*
X356540D02*
X365176D01*
X324028D02*
X327584D01*
X437820Y403720D02*
X440868D01*
X400228D02*
X408864D01*
X356540D02*
X365176D01*
X324536D02*
X327584D01*
X437312Y404228D02*
X440868D01*
X400228D02*
X408864D01*
X356540D02*
X365176D01*
X324536D02*
X328092D01*
X436804Y404736D02*
X440360D01*
X400228D02*
X408864D01*
X356540D02*
X365176D01*
X325044D02*
X328600D01*
X436296Y405244D02*
X439852D01*
X400228D02*
X408864D01*
X356540D02*
X365176D01*
X325552D02*
X329108D01*
X435788Y405752D02*
X439344D01*
X400228D02*
X408864D01*
X372796D02*
X374320D01*
X356540D02*
X365176D01*
X326060D02*
X329616D01*
X435280Y406260D02*
X438836D01*
X400228D02*
X408864D01*
X372796D02*
X374320D01*
X356540D02*
X365176D01*
X326568D02*
X330124D01*
X434772Y406768D02*
X438328D01*
X400228D02*
X408864D01*
X372796D02*
X374828D01*
X356540D02*
X365176D01*
X327076D02*
X330632D01*
X434264Y407276D02*
X437820D01*
X400228D02*
X408864D01*
X372796D02*
X375336D01*
X356540D02*
X365176D01*
X327584D02*
X331140D01*
X433248Y407784D02*
X437312D01*
X400228D02*
X408864D01*
X372796D02*
X375844D01*
X356540D02*
X365176D01*
X328092D02*
X332156D01*
X432740Y408292D02*
X436804D01*
X400228D02*
X408864D01*
X372796D02*
X376860D01*
X356540D02*
X365176D01*
X328600D02*
X332664D01*
X432232Y408800D02*
X436296D01*
X400228D02*
X408864D01*
X373304D02*
X377368D01*
X356540D02*
X365176D01*
X329108D02*
X333172D01*
X431724Y409308D02*
X435788D01*
X400228D02*
X408864D01*
X373812D02*
X377876D01*
X356540D02*
X365176D01*
X329616D02*
X333680D01*
X430708Y409816D02*
X435280D01*
X400228D02*
X408864D01*
X374320D02*
X378384D01*
X356540D02*
X365176D01*
X330124D02*
X334696D01*
X430200Y410324D02*
X434772D01*
X400228D02*
X408864D01*
X374828D02*
X379400D01*
X356540D02*
X365176D01*
X330632D02*
X335204D01*
X429184Y410832D02*
X433756D01*
X400228D02*
X408864D01*
X375336D02*
X379908D01*
X356540D02*
X364668D01*
X331140D02*
X336220D01*
X428676Y411340D02*
X433248D01*
X400228D02*
X408864D01*
X375844D02*
X380924D01*
X356540D02*
X364668D01*
X332156D02*
X336728D01*
X428168Y411848D02*
X432740D01*
X406832D02*
X407848D01*
X401244D02*
X401752D01*
X376860D02*
X381432D01*
X357048D02*
X358064D01*
X332664D02*
X337236D01*
X427152Y412356D02*
X432232D01*
X377368D02*
X382448D01*
X333172D02*
X338252D01*
X426136Y412864D02*
X431216D01*
X377876D02*
X383464D01*
X334188D02*
X339268D01*
X425120Y413372D02*
X430708D01*
X403276D02*
X405308D01*
X378892D02*
X384480D01*
X359588D02*
X362128D01*
X334696D02*
X340284D01*
X424104Y413880D02*
X429692D01*
X403276D02*
X405308D01*
X379400D02*
X384988D01*
X359588D02*
X362128D01*
X335204D02*
X341300D01*
X423088Y414388D02*
X429184D01*
X403276D02*
X405308D01*
X380416D02*
X386512D01*
X359588D02*
X362128D01*
X336220D02*
X342316D01*
X422072Y414896D02*
X428168D01*
X403276D02*
X405308D01*
X381432D02*
X387528D01*
X359588D02*
X362128D01*
X337236D02*
X343332D01*
X420548Y415404D02*
X427660D01*
X403276D02*
X405308D01*
X381940D02*
X388544D01*
X376352D02*
X378892D01*
X359588D02*
X362128D01*
X337744D02*
X344856D01*
X419532Y415912D02*
X426644D01*
X403276D02*
X405308D01*
X382956D02*
X390068D01*
X375336D02*
X379908D01*
X359588D02*
X362128D01*
X338760D02*
X345872D01*
X417500Y416420D02*
X425628D01*
X403276D02*
X405308D01*
X383972D02*
X391592D01*
X373812D02*
X380416D01*
X359588D02*
X362128D01*
X339776D02*
X347904D01*
X414960Y416928D02*
X424612D01*
X403276D02*
X405308D01*
X384988D02*
X394640D01*
X370764D02*
X379908D01*
X359588D02*
X362128D01*
X340792D02*
X349936D01*
X412420Y417436D02*
X422580D01*
X403276D02*
X405308D01*
X387020D02*
X396672D01*
X368732D02*
X378384D01*
X359588D02*
X362128D01*
X342824D02*
X352984D01*
X388036Y417944D02*
X421564D01*
X343840D02*
X377368D01*
X389560Y418452D02*
X419532D01*
X345872D02*
X375844D01*
X391084Y418960D02*
X418516D01*
X346888D02*
X374320D01*
X393116Y419468D02*
X416484D01*
X348920D02*
X372288D01*
X394640Y419976D02*
X414452D01*
X350952D02*
X370256D01*
X398196Y420484D02*
X411404D01*
X353492D02*
X367208D01*
X404292Y420992D02*
X405816D01*
X359588D02*
X361620D01*
D13*
X276029Y200707D02*
X273530Y203206D01*
X268532D01*
X266032Y200707D01*
Y190710D01*
X268532Y188211D01*
X273530D01*
X276029Y190710D01*
Y195709D01*
X271031D01*
X281028Y198208D02*
Y188211D01*
Y193209D01*
X283527Y195709D01*
X286026Y198208D01*
X288525D01*
X303520Y188211D02*
X298522D01*
X296023Y190710D01*
Y195709D01*
X298522Y198208D01*
X303520D01*
X306019Y195709D01*
Y193209D01*
X296023D01*
X316016Y183213D02*
X318515D01*
X321015Y185712D01*
Y198208D01*
X313517D01*
X311018Y195709D01*
Y190710D01*
X313517Y188211D01*
X321015D01*
X328512D02*
X333511D01*
X336010Y190710D01*
Y195709D01*
X333511Y198208D01*
X328512D01*
X326013Y195709D01*
Y190710D01*
X328512Y188211D01*
X341008Y198208D02*
Y188211D01*
Y193209D01*
X343507Y195709D01*
X346007Y198208D01*
X348506D01*
X356003D02*
Y190710D01*
X358502Y188211D01*
X366000D01*
Y185712D01*
X363501Y183213D01*
X361002D01*
X366000Y188211D02*
Y198208D01*
X395990Y200707D02*
X393491Y203206D01*
X388493D01*
X385993Y200707D01*
Y190710D01*
X388493Y188211D01*
X393491D01*
X395990Y190710D01*
Y195709D01*
X390992D01*
X408486Y188211D02*
X403488D01*
X400989Y190710D01*
Y195709D01*
X403488Y198208D01*
X408486D01*
X410985Y195709D01*
Y193209D01*
X400989D01*
X415984Y198208D02*
Y188211D01*
Y193209D01*
X418483Y195709D01*
X420982Y198208D01*
X423481D01*
X433478D02*
X438476D01*
X440976Y195709D01*
Y188211D01*
X433478D01*
X430979Y190710D01*
X433478Y193209D01*
X440976D01*
X455971Y198208D02*
X448473D01*
X445974Y195709D01*
Y190710D01*
X448473Y188211D01*
X455971D01*
X460969D02*
X465968D01*
X463468D01*
Y198208D01*
X460969D01*
X196055Y173014D02*
Y158019D01*
Y165516D01*
X206052D01*
Y173014D01*
Y158019D01*
X211050Y168015D02*
Y160518D01*
X213549Y158019D01*
X221047D01*
Y155519D01*
X218548Y153020D01*
X216049D01*
X221047Y158019D02*
Y168015D01*
X226045Y153020D02*
Y168015D01*
X233543D01*
X236042Y165516D01*
Y160518D01*
X233543Y158019D01*
X226045D01*
X241040D02*
Y168015D01*
X248538D01*
X251037Y165516D01*
Y158019D01*
X258535D02*
X263533D01*
X266032Y160518D01*
Y165516D01*
X263533Y168015D01*
X258535D01*
X256036Y165516D01*
Y160518D01*
X258535Y158019D01*
X271031D02*
X278528D01*
X281028Y160518D01*
X278528Y163017D01*
X273530D01*
X271031Y165516D01*
X273530Y168015D01*
X281028D01*
X286026Y158019D02*
X291024D01*
X288525D01*
Y168015D01*
X286026D01*
X301021D02*
X306019D01*
X308519Y165516D01*
Y158019D01*
X301021D01*
X298522Y160518D01*
X301021Y163017D01*
X308519D01*
X338509Y170515D02*
X336010Y173014D01*
X331011D01*
X328512Y170515D01*
Y160518D01*
X331011Y158019D01*
X336010D01*
X338509Y160518D01*
X346007Y158019D02*
X351005D01*
X353504Y160518D01*
Y165516D01*
X351005Y168015D01*
X346007D01*
X343507Y165516D01*
Y160518D01*
X346007Y158019D01*
X358502D02*
Y168015D01*
X366000D01*
X368499Y165516D01*
Y158019D01*
X375997Y170515D02*
Y168015D01*
X373498D01*
X378496D01*
X375997D01*
Y160518D01*
X378496Y158019D01*
X385993Y168015D02*
Y158019D01*
Y163017D01*
X388493Y165516D01*
X390992Y168015D01*
X393491D01*
X403488Y158019D02*
X408486D01*
X410985Y160518D01*
Y165516D01*
X408486Y168015D01*
X403488D01*
X400989Y165516D01*
Y160518D01*
X403488Y158019D01*
X415984D02*
X420982D01*
X418483D01*
Y173014D01*
X415984D01*
X428480Y158019D02*
X433478D01*
X430979D01*
Y173014D01*
X428480D01*
X448473Y158019D02*
X443475D01*
X440976Y160518D01*
Y165516D01*
X443475Y168015D01*
X448473D01*
X450973Y165516D01*
Y163017D01*
X440976D01*
X455971Y168015D02*
Y158019D01*
Y163017D01*
X458470Y165516D01*
X460969Y168015D01*
X463469D01*
X485961Y173014D02*
Y163017D01*
X490960Y158019D01*
X495958Y163017D01*
Y173014D01*
X500956Y158019D02*
X505955D01*
X503456D01*
Y173014D01*
X500956Y170515D01*
X513452Y158019D02*
Y160518D01*
X515951D01*
Y158019D01*
X513452D01*
X525948Y170515D02*
X528447Y173014D01*
X533446D01*
X535945Y170515D01*
Y160518D01*
X533446Y158019D01*
X528447D01*
X525948Y160518D01*
Y170515D01*
X258535Y142821D02*
Y127826D01*
X266032D01*
X268532Y130325D01*
Y132824D01*
X266032Y135323D01*
X258535D01*
X266032D01*
X268532Y137823D01*
Y140322D01*
X266032Y142821D01*
X258535D01*
X276029Y137823D02*
X281028D01*
X283527Y135323D01*
Y127826D01*
X276029D01*
X273530Y130325D01*
X276029Y132824D01*
X283527D01*
X298522Y137823D02*
X291024D01*
X288525Y135323D01*
Y130325D01*
X291024Y127826D01*
X298522D01*
X303520Y142821D02*
Y127826D01*
Y135323D01*
X306019Y137823D01*
X311018D01*
X313517Y135323D01*
Y127826D01*
X326013D02*
X321015D01*
X318515Y130325D01*
Y135323D01*
X321015Y137823D01*
X326013D01*
X328512Y135323D01*
Y132824D01*
X318515D01*
X333511Y127826D02*
X338509D01*
X336010D01*
Y142821D01*
X333511D01*
X348506Y127826D02*
X353504D01*
X356003Y130325D01*
Y135323D01*
X353504Y137823D01*
X348506D01*
X346007Y135323D01*
Y130325D01*
X348506Y127826D01*
X361002Y137823D02*
Y127826D01*
Y132824D01*
X363501Y135323D01*
X366000Y137823D01*
X368499D01*
X390992Y142821D02*
X400989D01*
X395990D01*
Y127826D01*
X405987Y142821D02*
Y127826D01*
Y135323D01*
X408486Y137823D01*
X413485D01*
X415984Y135323D01*
Y127826D01*
X428480D02*
X423481D01*
X420982Y130325D01*
Y135323D01*
X423481Y137823D01*
X428480D01*
X430979Y135323D01*
Y132824D01*
X420982D01*
X435977Y127826D02*
X443475D01*
X445974Y130325D01*
X443475Y132824D01*
X438476D01*
X435977Y135323D01*
X438476Y137823D01*
X445974D01*
X450973Y127826D02*
X455971D01*
X453472D01*
Y137823D01*
X450973D01*
X463469Y127826D02*
X470966D01*
X473465Y130325D01*
X470966Y132824D01*
X465968D01*
X463469Y135323D01*
X465968Y137823D01*
X473465D01*
X267282Y102632D02*
X272280D01*
X269781D01*
Y117627D01*
X267282Y115128D01*
X279778D02*
X282277Y117627D01*
X287276D01*
X289775Y115128D01*
Y112629D01*
X287276Y110129D01*
X289775Y107630D01*
Y105131D01*
X287276Y102632D01*
X282277D01*
X279778Y105131D01*
Y107630D01*
X282277Y110129D01*
X279778Y112629D01*
Y115128D01*
X282277Y110129D02*
X287276D01*
X294773Y102632D02*
Y105131D01*
X297272D01*
Y102632D01*
X294773D01*
X307269Y115128D02*
X309768Y117627D01*
X314767D01*
X317266Y115128D01*
Y105131D01*
X314767Y102632D01*
X309768D01*
X307269Y105131D01*
Y115128D01*
X332261Y117627D02*
X327263Y115128D01*
X322264Y110129D01*
Y105131D01*
X324763Y102632D01*
X329762D01*
X332261Y105131D01*
Y107630D01*
X329762Y110129D01*
X322264D01*
X337259Y102632D02*
Y105131D01*
X339758D01*
Y102632D01*
X337259D01*
X359752D02*
X349755D01*
X359752Y112629D01*
Y115128D01*
X357253Y117627D01*
X352254D01*
X349755Y115128D01*
X364750D02*
X367250Y117627D01*
X372248D01*
X374747Y115128D01*
Y105131D01*
X372248Y102632D01*
X367250D01*
X364750Y105131D01*
Y115128D01*
X389742Y102632D02*
X379746D01*
X389742Y112629D01*
Y115128D01*
X387243Y117627D01*
X382245D01*
X379746Y115128D01*
X394741D02*
X397240Y117627D01*
X402238D01*
X404738Y115128D01*
Y105131D01*
X402238Y102632D01*
X397240D01*
X394741Y105131D01*
Y115128D01*
X424731Y102632D02*
Y112629D01*
X429729Y117627D01*
X434728Y112629D01*
Y102632D01*
Y110129D01*
X424731D01*
X439726Y102632D02*
Y117627D01*
X447224D01*
X449723Y115128D01*
Y110129D01*
X447224Y107630D01*
X439726D01*
X444725D02*
X449723Y102632D01*
X464718Y115128D02*
X462219Y117627D01*
X457220D01*
X454721Y115128D01*
Y105131D01*
X457220Y102632D01*
X462219D01*
X464718Y105131D01*
D14*
X762500Y-250D02*
X767500D01*
X842500D02*
X847750D01*
X0Y0D02*
Y660000D01*
X1200000D01*
X1200000Y0D01*
X0D02*
X1200000D01*
M02*
