G04*
G04 #@! TF.GenerationSoftware,Altium Limited,Altium Designer,19.0.10 (269)*
G04*
G04 Layer_Physical_Order=4*
G04 Layer_Color=16711680*
%FSLAX44Y44*%
%MOMM*%
G71*
G01*
G75*
%ADD14C,0.2000*%
%ADD16C,1.7000*%
%ADD17C,1.4000*%
%ADD19C,1.5000*%
%ADD20C,0.8000*%
%ADD21O,1.2000X2.0000*%
%ADD22C,1.0160*%
%ADD23C,2.5000*%
%ADD24C,3.0000*%
%ADD25C,0.2500*%
%ADD26C,0.5000*%
%ADD27C,0.6000*%
%ADD28C,0.8800*%
%ADD29O,1.8000X1.4000*%
%ADD30C,0.6000*%
G04:AMPARAMS|DCode=43|XSize=1.1mm|YSize=1.35mm|CornerRadius=0.1375mm|HoleSize=0mm|Usage=FLASHONLY|Rotation=180.000|XOffset=0mm|YOffset=0mm|HoleType=Round|Shape=RoundedRectangle|*
%AMROUNDEDRECTD43*
21,1,1.1000,1.0750,0,0,180.0*
21,1,0.8250,1.3500,0,0,180.0*
1,1,0.2750,-0.4125,0.5375*
1,1,0.2750,0.4125,0.5375*
1,1,0.2750,0.4125,-0.5375*
1,1,0.2750,-0.4125,-0.5375*
%
%ADD43ROUNDEDRECTD43*%
G04:AMPARAMS|DCode=44|XSize=0.75mm|YSize=0.9mm|CornerRadius=0.0938mm|HoleSize=0mm|Usage=FLASHONLY|Rotation=180.000|XOffset=0mm|YOffset=0mm|HoleType=Round|Shape=RoundedRectangle|*
%AMROUNDEDRECTD44*
21,1,0.7500,0.7125,0,0,180.0*
21,1,0.5625,0.9000,0,0,180.0*
1,1,0.1875,-0.2813,0.3563*
1,1,0.1875,0.2813,0.3563*
1,1,0.1875,0.2813,-0.3563*
1,1,0.1875,-0.2813,-0.3563*
%
%ADD44ROUNDEDRECTD44*%
G04:AMPARAMS|DCode=45|XSize=0.8mm|YSize=1.3mm|CornerRadius=0.1mm|HoleSize=0mm|Usage=FLASHONLY|Rotation=0.000|XOffset=0mm|YOffset=0mm|HoleType=Round|Shape=RoundedRectangle|*
%AMROUNDEDRECTD45*
21,1,0.8000,1.1000,0,0,0.0*
21,1,0.6000,1.3000,0,0,0.0*
1,1,0.2000,0.3000,-0.5500*
1,1,0.2000,-0.3000,-0.5500*
1,1,0.2000,-0.3000,0.5500*
1,1,0.2000,0.3000,0.5500*
%
%ADD45ROUNDEDRECTD45*%
G04:AMPARAMS|DCode=46|XSize=0.6mm|YSize=0.6mm|CornerRadius=0.075mm|HoleSize=0mm|Usage=FLASHONLY|Rotation=0.000|XOffset=0mm|YOffset=0mm|HoleType=Round|Shape=RoundedRectangle|*
%AMROUNDEDRECTD46*
21,1,0.6000,0.4500,0,0,0.0*
21,1,0.4500,0.6000,0,0,0.0*
1,1,0.1500,0.2250,-0.2250*
1,1,0.1500,-0.2250,-0.2250*
1,1,0.1500,-0.2250,0.2250*
1,1,0.1500,0.2250,0.2250*
%
%ADD46ROUNDEDRECTD46*%
G04:AMPARAMS|DCode=47|XSize=0.8mm|YSize=1.7mm|CornerRadius=0.1mm|HoleSize=0mm|Usage=FLASHONLY|Rotation=0.000|XOffset=0mm|YOffset=0mm|HoleType=Round|Shape=RoundedRectangle|*
%AMROUNDEDRECTD47*
21,1,0.8000,1.5000,0,0,0.0*
21,1,0.6000,1.7000,0,0,0.0*
1,1,0.2000,0.3000,-0.7500*
1,1,0.2000,-0.3000,-0.7500*
1,1,0.2000,-0.3000,0.7500*
1,1,0.2000,0.3000,0.7500*
%
%ADD47ROUNDEDRECTD47*%
G04:AMPARAMS|DCode=48|XSize=0.6mm|YSize=2.5mm|CornerRadius=0.075mm|HoleSize=0mm|Usage=FLASHONLY|Rotation=180.000|XOffset=0mm|YOffset=0mm|HoleType=Round|Shape=RoundedRectangle|*
%AMROUNDEDRECTD48*
21,1,0.6000,2.3500,0,0,180.0*
21,1,0.4500,2.5000,0,0,180.0*
1,1,0.1500,-0.2250,1.1750*
1,1,0.1500,0.2250,1.1750*
1,1,0.1500,0.2250,-1.1750*
1,1,0.1500,-0.2250,-1.1750*
%
%ADD48ROUNDEDRECTD48*%
G04:AMPARAMS|DCode=49|XSize=2.92mm|YSize=1.27mm|CornerRadius=0.1588mm|HoleSize=0mm|Usage=FLASHONLY|Rotation=180.000|XOffset=0mm|YOffset=0mm|HoleType=Round|Shape=RoundedRectangle|*
%AMROUNDEDRECTD49*
21,1,2.9200,0.9525,0,0,180.0*
21,1,2.6025,1.2700,0,0,180.0*
1,1,0.3175,-1.3013,0.4763*
1,1,0.3175,1.3013,0.4763*
1,1,0.3175,1.3013,-0.4763*
1,1,0.3175,-1.3013,-0.4763*
%
%ADD49ROUNDEDRECTD49*%
G04:AMPARAMS|DCode=50|XSize=3.43mm|YSize=1.65mm|CornerRadius=0.2063mm|HoleSize=0mm|Usage=FLASHONLY|Rotation=270.000|XOffset=0mm|YOffset=0mm|HoleType=Round|Shape=RoundedRectangle|*
%AMROUNDEDRECTD50*
21,1,3.4300,1.2375,0,0,270.0*
21,1,3.0175,1.6500,0,0,270.0*
1,1,0.4125,-0.6188,-1.5088*
1,1,0.4125,-0.6188,1.5088*
1,1,0.4125,0.6188,1.5088*
1,1,0.4125,0.6188,-1.5088*
%
%ADD50ROUNDEDRECTD50*%
G04:AMPARAMS|DCode=51|XSize=0.75mm|YSize=0.9mm|CornerRadius=0.0938mm|HoleSize=0mm|Usage=FLASHONLY|Rotation=90.000|XOffset=0mm|YOffset=0mm|HoleType=Round|Shape=RoundedRectangle|*
%AMROUNDEDRECTD51*
21,1,0.7500,0.7125,0,0,90.0*
21,1,0.5625,0.9000,0,0,90.0*
1,1,0.1875,0.3563,0.2813*
1,1,0.1875,0.3563,-0.2813*
1,1,0.1875,-0.3563,-0.2813*
1,1,0.1875,-0.3563,0.2813*
%
%ADD51ROUNDEDRECTD51*%
G04:AMPARAMS|DCode=52|XSize=0.6mm|YSize=0.5mm|CornerRadius=0.0625mm|HoleSize=0mm|Usage=FLASHONLY|Rotation=180.000|XOffset=0mm|YOffset=0mm|HoleType=Round|Shape=RoundedRectangle|*
%AMROUNDEDRECTD52*
21,1,0.6000,0.3750,0,0,180.0*
21,1,0.4750,0.5000,0,0,180.0*
1,1,0.1250,-0.2375,0.1875*
1,1,0.1250,0.2375,0.1875*
1,1,0.1250,0.2375,-0.1875*
1,1,0.1250,-0.2375,-0.1875*
%
%ADD52ROUNDEDRECTD52*%
G04:AMPARAMS|DCode=53|XSize=1.75mm|YSize=2.5mm|CornerRadius=0.2188mm|HoleSize=0mm|Usage=FLASHONLY|Rotation=0.000|XOffset=0mm|YOffset=0mm|HoleType=Round|Shape=RoundedRectangle|*
%AMROUNDEDRECTD53*
21,1,1.7500,2.0625,0,0,0.0*
21,1,1.3125,2.5000,0,0,0.0*
1,1,0.4375,0.6563,-1.0313*
1,1,0.4375,-0.6563,-1.0313*
1,1,0.4375,-0.6563,1.0313*
1,1,0.4375,0.6563,1.0313*
%
%ADD53ROUNDEDRECTD53*%
G04:AMPARAMS|DCode=54|XSize=1.3mm|YSize=3mm|CornerRadius=0.1625mm|HoleSize=0mm|Usage=FLASHONLY|Rotation=270.000|XOffset=0mm|YOffset=0mm|HoleType=Round|Shape=RoundedRectangle|*
%AMROUNDEDRECTD54*
21,1,1.3000,2.6750,0,0,270.0*
21,1,0.9750,3.0000,0,0,270.0*
1,1,0.3250,-1.3375,-0.4875*
1,1,0.3250,-1.3375,0.4875*
1,1,0.3250,1.3375,0.4875*
1,1,0.3250,1.3375,-0.4875*
%
%ADD54ROUNDEDRECTD54*%
G04:AMPARAMS|DCode=55|XSize=1.35mm|YSize=0.4mm|CornerRadius=0.05mm|HoleSize=0mm|Usage=FLASHONLY|Rotation=270.000|XOffset=0mm|YOffset=0mm|HoleType=Round|Shape=RoundedRectangle|*
%AMROUNDEDRECTD55*
21,1,1.3500,0.3000,0,0,270.0*
21,1,1.2500,0.4000,0,0,270.0*
1,1,0.1000,-0.1500,-0.6250*
1,1,0.1000,-0.1500,0.6250*
1,1,0.1000,0.1500,0.6250*
1,1,0.1000,0.1500,-0.6250*
%
%ADD55ROUNDEDRECTD55*%
G04:AMPARAMS|DCode=56|XSize=0.6mm|YSize=1.45mm|CornerRadius=0.075mm|HoleSize=0mm|Usage=FLASHONLY|Rotation=90.000|XOffset=0mm|YOffset=0mm|HoleType=Round|Shape=RoundedRectangle|*
%AMROUNDEDRECTD56*
21,1,0.6000,1.3000,0,0,90.0*
21,1,0.4500,1.4500,0,0,90.0*
1,1,0.1500,0.6500,0.2250*
1,1,0.1500,0.6500,-0.2250*
1,1,0.1500,-0.6500,-0.2250*
1,1,0.1500,-0.6500,0.2250*
%
%ADD56ROUNDEDRECTD56*%
G04:AMPARAMS|DCode=57|XSize=0.6mm|YSize=0.6mm|CornerRadius=0.075mm|HoleSize=0mm|Usage=FLASHONLY|Rotation=270.000|XOffset=0mm|YOffset=0mm|HoleType=Round|Shape=RoundedRectangle|*
%AMROUNDEDRECTD57*
21,1,0.6000,0.4500,0,0,270.0*
21,1,0.4500,0.6000,0,0,270.0*
1,1,0.1500,-0.2250,-0.2250*
1,1,0.1500,-0.2250,0.2250*
1,1,0.1500,0.2250,0.2250*
1,1,0.1500,0.2250,-0.2250*
%
%ADD57ROUNDEDRECTD57*%
G04:AMPARAMS|DCode=58|XSize=0.95mm|YSize=0.85mm|CornerRadius=0.1063mm|HoleSize=0mm|Usage=FLASHONLY|Rotation=0.000|XOffset=0mm|YOffset=0mm|HoleType=Round|Shape=RoundedRectangle|*
%AMROUNDEDRECTD58*
21,1,0.9500,0.6375,0,0,0.0*
21,1,0.7375,0.8500,0,0,0.0*
1,1,0.2125,0.3688,-0.3188*
1,1,0.2125,-0.3688,-0.3188*
1,1,0.2125,-0.3688,0.3188*
1,1,0.2125,0.3688,0.3188*
%
%ADD58ROUNDEDRECTD58*%
G04:AMPARAMS|DCode=59|XSize=1.3mm|YSize=3.7mm|CornerRadius=0.1625mm|HoleSize=0mm|Usage=FLASHONLY|Rotation=180.000|XOffset=0mm|YOffset=0mm|HoleType=Round|Shape=RoundedRectangle|*
%AMROUNDEDRECTD59*
21,1,1.3000,3.3750,0,0,180.0*
21,1,0.9750,3.7000,0,0,180.0*
1,1,0.3250,-0.4875,1.6875*
1,1,0.3250,0.4875,1.6875*
1,1,0.3250,0.4875,-1.6875*
1,1,0.3250,-0.4875,-1.6875*
%
%ADD59ROUNDEDRECTD59*%
G04:AMPARAMS|DCode=60|XSize=2.92mm|YSize=1.27mm|CornerRadius=0.1588mm|HoleSize=0mm|Usage=FLASHONLY|Rotation=270.000|XOffset=0mm|YOffset=0mm|HoleType=Round|Shape=RoundedRectangle|*
%AMROUNDEDRECTD60*
21,1,2.9200,0.9525,0,0,270.0*
21,1,2.6025,1.2700,0,0,270.0*
1,1,0.3175,-0.4763,-1.3013*
1,1,0.3175,-0.4763,1.3013*
1,1,0.3175,0.4763,1.3013*
1,1,0.3175,0.4763,-1.3013*
%
%ADD60ROUNDEDRECTD60*%
G04:AMPARAMS|DCode=61|XSize=3.43mm|YSize=1.65mm|CornerRadius=0.2063mm|HoleSize=0mm|Usage=FLASHONLY|Rotation=0.000|XOffset=0mm|YOffset=0mm|HoleType=Round|Shape=RoundedRectangle|*
%AMROUNDEDRECTD61*
21,1,3.4300,1.2375,0,0,0.0*
21,1,3.0175,1.6500,0,0,0.0*
1,1,0.4125,1.5088,-0.6188*
1,1,0.4125,-1.5088,-0.6188*
1,1,0.4125,-1.5088,0.6188*
1,1,0.4125,1.5088,0.6188*
%
%ADD61ROUNDEDRECTD61*%
G04:AMPARAMS|DCode=62|XSize=0.3mm|YSize=1.8mm|CornerRadius=0.0375mm|HoleSize=0mm|Usage=FLASHONLY|Rotation=0.000|XOffset=0mm|YOffset=0mm|HoleType=Round|Shape=RoundedRectangle|*
%AMROUNDEDRECTD62*
21,1,0.3000,1.7250,0,0,0.0*
21,1,0.2250,1.8000,0,0,0.0*
1,1,0.0750,0.1125,-0.8625*
1,1,0.0750,-0.1125,-0.8625*
1,1,0.0750,-0.1125,0.8625*
1,1,0.0750,0.1125,0.8625*
%
%ADD62ROUNDEDRECTD62*%
G04:AMPARAMS|DCode=63|XSize=0.3mm|YSize=1.8mm|CornerRadius=0.0375mm|HoleSize=0mm|Usage=FLASHONLY|Rotation=90.000|XOffset=0mm|YOffset=0mm|HoleType=Round|Shape=RoundedRectangle|*
%AMROUNDEDRECTD63*
21,1,0.3000,1.7250,0,0,90.0*
21,1,0.2250,1.8000,0,0,90.0*
1,1,0.0750,0.8625,0.1125*
1,1,0.0750,0.8625,-0.1125*
1,1,0.0750,-0.8625,-0.1125*
1,1,0.0750,-0.8625,0.1125*
%
%ADD63ROUNDEDRECTD63*%
%ADD64C,0.4000*%
D14*
X822999Y405000D02*
X823000Y405000D01*
X823001Y405000D01*
X762500Y-250D02*
X767500D01*
X842500D02*
X847750D01*
X0Y0D02*
Y660000D01*
X1200000D01*
X1200000Y0D01*
X0D02*
X1200000D01*
D16*
X587310Y60620D02*
D03*
X628060Y97330D02*
D03*
X578950Y115410D02*
D03*
X1092690Y599380D02*
D03*
X1051940Y562670D02*
D03*
X1101050Y544590D02*
D03*
X612690Y599380D02*
D03*
X571940Y562670D02*
D03*
X621050Y544590D02*
D03*
D17*
X600000Y145230D02*
D03*
X553440Y67290D02*
D03*
X642950Y61030D02*
D03*
X1056560Y106370D02*
D03*
X1107580Y58180D02*
D03*
X1105960Y112070D02*
D03*
X1080000Y514770D02*
D03*
X1126560Y592710D02*
D03*
X1037050Y598970D02*
D03*
X600000Y514770D02*
D03*
X646560Y592710D02*
D03*
X557050Y598970D02*
D03*
X96560Y106370D02*
D03*
X147580Y58180D02*
D03*
X145960Y112070D02*
D03*
X136370Y593440D02*
D03*
X88180Y542422D02*
D03*
X142070Y544040D02*
D03*
D19*
X1080000Y90000D02*
D03*
X120000D02*
D03*
Y570000D02*
D03*
D20*
X909000Y633000D02*
D03*
D21*
X769000Y14250D02*
D03*
X841000D02*
D03*
D22*
X780750Y44250D02*
D03*
X829250D02*
D03*
D23*
X810000Y510000D02*
D03*
X230000Y510000D02*
D03*
X810000Y280000D02*
D03*
X230000D02*
D03*
D24*
X1170000Y30000D02*
D03*
Y530000D02*
D03*
X30000Y30000D02*
D03*
Y630000D02*
D03*
D25*
X1050000Y446000D02*
X1063501D01*
X1067000Y442501D01*
Y428250D02*
Y442501D01*
X1038750Y400000D02*
X1067000Y428250D01*
X1033000Y414000D02*
Y455122D01*
X1024000Y405000D02*
X1033000Y414000D01*
X1011500Y405000D02*
X1024000D01*
X1016000Y472122D02*
X1033000Y455122D01*
X488000Y390000D02*
X781000D01*
X814262Y423262D01*
X503000Y520000D02*
Y558000D01*
X511000Y566000D01*
X532000D01*
X491000Y520000D02*
X503000D01*
Y453000D02*
Y520000D01*
Y453000D02*
X515125Y440875D01*
X549125D01*
X518080Y444920D02*
X551080D01*
X509000Y454000D02*
X518080Y444920D01*
X509000Y454000D02*
Y490000D01*
Y556132D01*
X512618Y559750D01*
X541750D01*
X515000Y460000D02*
Y554000D01*
Y455000D02*
Y460000D01*
X520896Y449103D02*
X552897D01*
X515000Y455000D02*
X520896Y449103D01*
X556000Y503000D02*
X625000D01*
X556000D02*
Y506000D01*
Y451994D02*
Y503000D01*
X554250Y507750D02*
X556000Y506000D01*
Y451994D02*
X567994Y440000D01*
X541872Y520128D02*
X554250Y507750D01*
X530000Y520128D02*
X541872D01*
X625000Y503000D02*
X639000Y517000D01*
X225498Y394000D02*
X428837D01*
X433837Y399000D01*
X157000Y462498D02*
X225498Y394000D01*
X256000Y406000D02*
X427100D01*
X225295D02*
X256000D01*
X225498Y412000D02*
X406000D01*
X426000D01*
X375927Y418000D02*
X410000D01*
X225579Y417919D02*
X375927D01*
X345846Y424000D02*
X677000D01*
X168501Y444999D02*
X232500Y381000D01*
X286000Y399869D02*
X428246Y400009D01*
X225695Y399810D02*
X286000Y399869D01*
X222000Y403498D02*
X225340Y400164D01*
X225334D02*
X225340D01*
X222000Y403498D02*
X225334Y400164D01*
X163000Y462498D02*
X222000Y403498D01*
X428246Y400009D02*
X435107Y406883D01*
X427100Y406000D02*
X432975Y411875D01*
X169000Y462295D02*
X225295Y406000D01*
X426000Y412000D02*
X429948Y415948D01*
X175000Y462498D02*
X225498Y412000D01*
X181000Y462498D02*
X225579Y417919D01*
X225498Y424000D02*
X345846D01*
X187000Y462498D02*
X225498Y424000D01*
X671000Y140000D02*
X698000Y167000D01*
X671000Y99000D02*
Y140000D01*
X665000Y93000D02*
X671000Y99000D01*
X666000Y142000D02*
X695000Y171000D01*
X666000Y108000D02*
Y142000D01*
X617000Y59000D02*
X666000Y108000D01*
X1130750Y131750D02*
Y147250D01*
X1127000Y128000D02*
X1130750Y131750D01*
X1122000Y128000D02*
X1127000D01*
X1125001Y152999D02*
X1130750Y147250D01*
X1125000Y136000D02*
Y147000D01*
X149000Y515000D02*
X157000Y507000D01*
Y462498D02*
Y507000D01*
X163000Y462498D02*
Y523000D01*
X158000Y528000D02*
X163000Y523000D01*
X169000Y462295D02*
Y470000D01*
X576060Y40060D02*
Y50970D01*
X566000Y61030D02*
X576060Y50970D01*
X566000Y61030D02*
Y99004D01*
X550000Y115004D02*
X566000Y99004D01*
Y30000D02*
X576060Y40060D01*
X535000Y33000D02*
Y109000D01*
X512000Y10000D02*
X535000Y33000D01*
Y109000D02*
X541000Y115000D01*
X444000Y434000D02*
X451000D01*
X849878Y290000D02*
X860500D01*
X819478Y259600D02*
X849878Y290000D01*
X798400Y259600D02*
X819478D01*
X779000Y236750D02*
Y262000D01*
X784000Y267000D02*
X791000D01*
X779000Y262000D02*
X784000Y267000D01*
X791000D02*
X798400Y259600D01*
X774000Y315560D02*
X788440Y330000D01*
X774000Y236825D02*
Y315560D01*
X748445Y211270D02*
X774000Y236825D01*
X711000Y211270D02*
X748445D01*
X779000Y236750D02*
X780750Y235000D01*
X787000D01*
X802000Y217050D02*
Y227278D01*
X801000Y228278D02*
X802000Y227278D01*
X801000Y228278D02*
Y235000D01*
X789000Y217250D02*
Y226500D01*
X787000Y228500D02*
X789000Y226500D01*
X787000Y228500D02*
Y235000D01*
X829000Y263000D02*
X874828D01*
X823030Y257030D02*
X829000Y263000D01*
X823030Y246030D02*
Y257030D01*
X820000Y243000D02*
X823030Y246030D01*
X814825Y234825D02*
X820825D01*
X828000Y242000D02*
Y256000D01*
X820825Y234825D02*
X828000Y242000D01*
X801000Y235000D02*
Y240000D01*
X804000Y243000D01*
X820000D01*
X831000Y259000D02*
X877000D01*
X828000Y256000D02*
X831000Y259000D01*
X839000Y243000D02*
X863000D01*
X836000Y240000D02*
X839000Y243000D01*
X836000Y235000D02*
Y240000D01*
Y230000D02*
Y235000D01*
X833500Y227500D02*
X836000Y230000D01*
X829850Y227500D02*
X833500D01*
X827350Y225000D02*
X829850Y227500D01*
X827350Y217000D02*
Y225000D01*
X851000Y230000D02*
Y235000D01*
X848500Y227500D02*
X851000Y230000D01*
X842550Y227500D02*
X848500D01*
X840000Y224950D02*
X842550Y227500D01*
X840000Y217050D02*
Y224950D01*
Y217050D02*
X840050Y217000D01*
X267000Y353000D02*
X835919D01*
X265000Y357000D02*
X838000D01*
X263000Y361000D02*
X840000D01*
X261000Y365000D02*
X841920D01*
X259000Y369000D02*
X844000D01*
X257000Y373000D02*
X846000D01*
X835920Y377000D02*
X848920Y390000D01*
X255000Y377000D02*
X835920D01*
X833919Y381000D02*
X847919Y395000D01*
X232500Y381000D02*
X833919D01*
X195300Y281300D02*
X267000Y353000D01*
X838000Y357000D02*
X845000Y350000D01*
X191300Y283300D02*
X265000Y357000D01*
X841920Y365000D02*
X846920Y360000D01*
X835919Y353000D02*
X843797Y345122D01*
X171300Y293300D02*
X255000Y377000D01*
X840000Y361000D02*
X846000Y355000D01*
X846000Y373000D02*
X849000Y370000D01*
X179300Y289300D02*
X259000Y369000D01*
X187300Y285300D02*
X263000Y361000D01*
X183300Y287300D02*
X261000Y365000D01*
X844000Y369000D02*
X848000Y365000D01*
X175300Y291300D02*
X257000Y373000D01*
X832000Y347000D02*
X848750Y330250D01*
X860250D01*
X860500Y330000D01*
X875000Y255000D02*
X879000D01*
X863000Y243000D02*
X875000Y255000D01*
X851000Y235000D02*
X861000D01*
X877000Y251000D02*
X881000D01*
X861000Y235000D02*
X877000Y251000D01*
X789000Y217250D02*
X789250Y217000D01*
X801950D02*
X802000Y217050D01*
X814825Y217175D02*
Y234825D01*
X814650Y217000D02*
X814825Y217175D01*
X1032000Y188000D02*
Y331000D01*
Y188000D02*
X1039000Y181000D01*
X678000Y526000D02*
Y558000D01*
X1061051Y244000D02*
X1090000D01*
X1048000Y257051D02*
X1061051Y244000D01*
X1048000Y257051D02*
Y339000D01*
X1122420Y49001D02*
X1136000Y62580D01*
X1063000Y248000D02*
X1092000D01*
X1052160Y258840D02*
X1063000Y248000D01*
X1052160Y258840D02*
Y340840D01*
X1059000Y240000D02*
X1088000D01*
X1044000Y255000D02*
X1059000Y240000D01*
X1044000Y255000D02*
Y336657D01*
X1057000Y236000D02*
X1085000D01*
X1040000Y253000D02*
X1057000Y236000D01*
X1040000Y253000D02*
Y335000D01*
X1055000Y232000D02*
X1083050D01*
X1036000Y251000D02*
X1055000Y232000D01*
X1036000Y251000D02*
Y333000D01*
X1023000Y340000D02*
X1032000Y331000D01*
X847919Y395000D02*
X860500D01*
X848920Y390000D02*
X860500D01*
X860000Y544000D02*
X898000Y506000D01*
X860000Y544000D02*
Y609100D01*
X898000Y506000D02*
X907990D01*
X860000Y609100D02*
X862878Y611978D01*
X868942D01*
X870900Y610020D01*
Y591240D02*
Y610020D01*
X678000Y526000D02*
X693000Y511000D01*
X678000Y558000D02*
Y640000D01*
X688000Y650000D01*
X659700Y490000D02*
Y498699D01*
X672195Y503000D02*
X752000D01*
X664000D02*
X672195D01*
X659700Y498699D02*
X664000Y503000D01*
X1013000Y243498D02*
Y253001D01*
X889001Y234995D02*
Y253001D01*
X1013000Y253001D02*
X1024000Y264001D01*
X1023000Y243996D02*
Y255000D01*
X1028000Y260000D01*
X1011001Y209999D02*
X1025000D01*
X1005000Y216000D02*
X1011001Y209999D01*
X1005000Y216000D02*
Y281000D01*
X995000Y291000D02*
X1005000Y281000D01*
X951001Y185000D02*
X976000Y209999D01*
X763000Y185000D02*
X951001D01*
X976000Y209999D02*
Y274500D01*
X959001Y169000D02*
X996000Y205999D01*
X771000Y169000D02*
X959001D01*
X769000Y167000D02*
X771000Y169000D01*
X996000Y205999D02*
Y274500D01*
X957001Y173000D02*
X991000Y206999D01*
Y274500D01*
X761084Y183084D02*
X763000Y185000D01*
X686084Y183084D02*
X761084D01*
X949000Y189000D02*
X972000Y212000D01*
X761000Y189000D02*
X949000D01*
X759084Y187084D02*
X761000Y189000D01*
X683173Y187084D02*
X759084D01*
X947343Y193000D02*
X968000Y213657D01*
X758501Y193000D02*
X947343D01*
X889001Y197000D02*
X900000Y207999D01*
X756585Y197000D02*
X889001D01*
X885995Y201000D02*
X896000Y211005D01*
X752178Y201000D02*
X885995D01*
X955001Y177000D02*
X986000Y207999D01*
Y274500D01*
X953001Y181000D02*
X981000Y208999D01*
Y274500D01*
X847000Y305000D02*
X860500D01*
X815000Y337000D02*
X847000Y305000D01*
X579500Y337000D02*
X815000D01*
X848000Y310000D02*
X860500D01*
X817000Y341000D02*
X848000Y310000D01*
X574650Y341000D02*
X817000D01*
X849000Y315000D02*
X860500D01*
X819000Y345000D02*
X849000Y315000D01*
X552700Y345000D02*
X819000D01*
X849920Y320000D02*
X860500D01*
X820920Y349000D02*
X849920Y320000D01*
X531550Y349000D02*
X820920D01*
X969000Y257140D02*
X971000Y259140D01*
Y274500D01*
X1125000Y455000D02*
Y521579D01*
X1086000Y416000D02*
X1125000Y455000D01*
X1067000Y416000D02*
X1086000D01*
X1119000Y455000D02*
Y517000D01*
X1084000Y420000D02*
X1119000Y455000D01*
X1065000Y420000D02*
X1084000D01*
X1022497Y473503D02*
X1050000Y446000D01*
X1022497Y473503D02*
Y551000D01*
X1016000Y472122D02*
Y554000D01*
X1011500Y492930D02*
Y561499D01*
X986000Y467430D02*
X1011500Y492930D01*
X986000Y425500D02*
Y467430D01*
X1145000Y626920D02*
X1168080Y650000D01*
X1145000Y553000D02*
Y626920D01*
X1062001Y600001D02*
Y635000D01*
X1016000Y554000D02*
X1062001Y600001D01*
X1016541Y435001D02*
X1025000D01*
X1004000Y422460D02*
X1016541Y435001D01*
X1004000Y418000D02*
Y422460D01*
X635000Y575000D02*
X647505Y562495D01*
X635000Y575000D02*
Y597000D01*
X624000Y607999D02*
X635000Y597000D01*
X624000Y607999D02*
Y620000D01*
X634000Y630000D01*
X672195Y503000D02*
Y534805D01*
X655000Y552000D02*
X672195Y534805D01*
X541750Y559750D02*
X581800Y599800D01*
X814262Y423262D02*
X862681D01*
X874675Y411268D01*
X884268D01*
X890000Y405536D01*
Y348000D02*
Y405536D01*
X882000Y340000D02*
X890000Y348000D01*
X860500Y340000D02*
X882000D01*
X860500Y335000D02*
X930000D01*
X941000Y325000D02*
X975000Y291000D01*
X860500Y325000D02*
X941000D01*
X1025000Y413000D02*
Y420000D01*
X1041000Y435000D02*
X1056999D01*
X930000Y335000D02*
X997000Y402000D01*
Y411000D01*
X1004000Y418000D01*
X1011500Y400000D02*
X1038750D01*
X541000Y115000D02*
Y160000D01*
X554000Y173000D02*
X648000D01*
X541000Y160000D02*
X554000Y173000D01*
X556000Y169000D02*
X650916D01*
X545470Y158470D02*
X556000Y169000D01*
X545470Y108000D02*
Y158470D01*
X550000Y157000D02*
X558000Y165000D01*
X550000Y115004D02*
Y157000D01*
X843797Y345122D02*
X860378D01*
X860500Y345000D01*
X845000Y350000D02*
X860500D01*
X846000Y355000D02*
X860500D01*
X860500Y355000D01*
X846920Y360000D02*
X860500D01*
X860500Y360000D01*
X848000Y365000D02*
X860500D01*
X849000Y370000D02*
X860500D01*
X860500Y370000D01*
X832000Y502000D02*
X906000D01*
X1137000Y435000D02*
Y545000D01*
X1102000Y400000D02*
X1137000Y435000D01*
X1074960Y400000D02*
X1102000D01*
X1133000Y437000D02*
Y551000D01*
X1100000Y404000D02*
X1133000Y437000D01*
X1073000Y404000D02*
X1100000D01*
X1129000Y439000D02*
Y545000D01*
X1098000Y408000D02*
X1129000Y439000D01*
X1070930Y408000D02*
X1098000D01*
X1105000Y569000D02*
X1129000Y545000D01*
X1105000Y569000D02*
Y626000D01*
X1137000Y545000D02*
X1145000Y553000D01*
X1093000Y412000D02*
X1123000Y442000D01*
X1069000Y412000D02*
X1093000D01*
X1040001Y517270D02*
X1050703Y527972D01*
X1118607D01*
X1125000Y521579D01*
X1040000Y395000D02*
X1065000Y420000D01*
X1044960Y370000D02*
X1074960Y400000D01*
X1011500Y370000D02*
X1044960D01*
X1044000Y375000D02*
X1073000Y404000D01*
X1011500Y375000D02*
X1044000D01*
X1042930Y380000D02*
X1070930Y408000D01*
X1011500Y380000D02*
X1042930D01*
X1042000Y385000D02*
X1069000Y412000D01*
X1011500Y385000D02*
X1042000D01*
X1041000Y390000D02*
X1067000Y416000D01*
X1011500Y390000D02*
X1041000D01*
X1011500Y395000D02*
X1040000D01*
X792001Y475000D02*
X829000D01*
X788000Y479000D02*
X792001Y475000D01*
X740000Y479000D02*
X788000D01*
X800001Y491000D02*
X821000D01*
X780001Y511000D02*
X800001Y491000D01*
X740000Y511000D02*
X780001D01*
X797971Y487000D02*
X823030D01*
X781971Y503000D02*
X797971Y487000D01*
X768000Y503000D02*
X781971D01*
X794001Y479000D02*
X827000D01*
X786001Y487000D02*
X794001Y479000D01*
X768000Y487000D02*
X786001D01*
X792000Y467000D02*
X833030D01*
X787999Y463000D02*
X792000Y467000D01*
X740000Y463000D02*
X787999D01*
X794000D02*
X835000D01*
X786000Y455000D02*
X794000Y463000D01*
X768000Y455000D02*
X786000D01*
X795994Y459000D02*
X837000D01*
X783914Y446920D02*
X795994Y459000D01*
X740000Y446920D02*
X783914D01*
X798000Y455000D02*
X839080D01*
X781919Y438919D02*
X798000Y455000D01*
X768000Y438919D02*
X781919D01*
X800000Y451000D02*
X841000D01*
X780000Y431000D02*
X800000Y451000D01*
X740000Y431000D02*
X780000D01*
X802000Y447000D02*
X843000D01*
X777999Y423000D02*
X802000Y447000D01*
X768000Y423000D02*
X777999D01*
X803919Y442919D02*
X844919D01*
X776000Y415000D02*
X803919Y442919D01*
X740000Y415000D02*
X776000D01*
X807919Y434919D02*
X848919D01*
X772000Y399000D02*
X807919Y434919D01*
X740000Y399000D02*
X772000D01*
X805962Y438919D02*
X846920D01*
X774044Y407000D02*
X805962Y438919D01*
X768000Y407000D02*
X774044D01*
X848919Y434919D02*
X859000Y445000D01*
X846920Y438919D02*
X857001Y449000D01*
X844919Y442919D02*
X855000Y453000D01*
X843000Y447000D02*
X853000Y457000D01*
X841000Y451000D02*
X851000Y461000D01*
X839080Y455000D02*
X849081Y465000D01*
X837000Y459000D02*
X847001Y469001D01*
X835000Y463000D02*
X845001Y473000D01*
X833030Y467000D02*
X843031Y477001D01*
X859000Y445000D02*
X879000D01*
X857001Y449000D02*
X881000D01*
X855000Y453000D02*
X883026D01*
X853000Y457000D02*
X885000D01*
X851000Y461000D02*
X887000D01*
X849081Y465000D02*
X889000D01*
X847001Y469001D02*
X891000D01*
X845001Y473000D02*
X893000D01*
X843031Y477001D02*
X895000D01*
X841001Y481001D02*
X897000D01*
X831000Y471000D02*
X841001Y481001D01*
X768000Y471000D02*
X831000D01*
X839000Y485000D02*
X899000D01*
X829000Y475000D02*
X839000Y485000D01*
X837001Y489001D02*
X901000D01*
X827000Y479000D02*
X837001Y489001D01*
X834931Y493000D02*
X903000D01*
X824931Y483000D02*
X834931Y493000D01*
X796001Y483000D02*
X824931D01*
X833030Y497001D02*
X905000D01*
X823030Y487000D02*
X833030Y497001D01*
X821000Y491000D02*
X832000Y502000D01*
X784001Y495000D02*
X796001Y483000D01*
X740000Y495000D02*
X784001D01*
X433837Y399000D02*
X724000D01*
X692378Y407000D02*
X752000D01*
X692369Y407009D02*
X692378Y407000D01*
X432975Y411875D02*
X683000D01*
X686125Y415000D01*
X724000D01*
X429948Y415948D02*
X681000D01*
X688052Y423000D01*
X752000D01*
X428292Y419948D02*
X679000D01*
X690052Y431000D01*
X724000D01*
X677000Y424000D02*
X691919Y438919D01*
X752000D01*
X562000Y428000D02*
X675000D01*
X693920Y446920D01*
X724000D01*
X564000Y432000D02*
X673000D01*
X696000Y455000D01*
X752000D01*
X566000Y436000D02*
X671000D01*
X698000Y463000D01*
X724000D01*
X567994Y440000D02*
X669000D01*
X700000Y471000D01*
X752000D01*
X570000Y444000D02*
X667000D01*
X702000Y479000D01*
X724000D01*
X645689Y449000D02*
X666000D01*
X704000Y487000D01*
X752000D01*
X660000Y475000D02*
X672195D01*
X654505D02*
X660000D01*
Y460001D02*
Y475000D01*
X647505Y482000D02*
Y562495D01*
Y482000D02*
X654505Y475000D01*
X672195D02*
X692195Y495000D01*
X724000D01*
X693000Y511000D02*
X724000D01*
X975000Y291000D02*
X995000D01*
X909998Y244000D02*
X913000D01*
X931000Y262000D01*
X907000Y241002D02*
X909998Y244000D01*
X931000Y262000D02*
Y274500D01*
X917000Y239245D02*
X936000Y258245D01*
Y274500D01*
X917000Y235000D02*
Y239245D01*
X926000Y263000D02*
Y274500D01*
X917000Y254000D02*
X926000Y263000D01*
X914000Y254000D02*
X917000D01*
X921000Y264000D02*
Y274500D01*
X915000Y258000D02*
X921000Y264000D01*
X912000Y258000D02*
X915000D01*
X900000Y240000D02*
X914000Y254000D01*
X900000Y207999D02*
Y240000D01*
X896000Y242000D02*
X912000Y258000D01*
X1092000Y248000D02*
X1129001Y210999D01*
X1013960Y444960D02*
X1014000Y444920D01*
X1007000Y445000D02*
X1007040Y444960D01*
X997000Y440000D02*
Y445000D01*
X997000Y445000D01*
X996000Y439000D02*
X997000Y440000D01*
X996000Y425500D02*
Y439000D01*
X961000Y235000D02*
Y239268D01*
X941000Y259268D02*
X961000Y239268D01*
X941000Y259268D02*
Y274500D01*
X917000Y234995D02*
X923000D01*
X899000Y253810D02*
X906000Y260810D01*
Y274500D01*
X1024000Y264001D02*
Y287790D01*
X896000Y260000D02*
Y274500D01*
X889001Y253001D02*
X896000Y260000D01*
X915000Y510770D02*
Y518000D01*
X930000Y502006D02*
Y518000D01*
X558000Y165000D02*
X654000D01*
X648000Y173000D02*
X674084Y199084D01*
X750262D01*
X677000Y195084D02*
X754669D01*
X650916Y169000D02*
X677000Y195084D01*
X680084Y191084D02*
X756585D01*
X654000Y165000D02*
X680084Y191084D01*
X654089Y158000D02*
X683173Y187084D01*
X560000Y158000D02*
X654089D01*
X957000Y481000D02*
Y608000D01*
X953023Y611978D02*
X957000Y608000D01*
X939977Y611978D02*
X953023D01*
X957000Y481000D02*
X981000Y457000D01*
X831931Y300000D02*
X860500D01*
X828931Y303000D02*
X831931Y300000D01*
X815140Y303000D02*
X828931D01*
X435107Y406883D02*
X692369Y407009D01*
X1129001Y154999D02*
X1136000Y148000D01*
Y62580D02*
Y148000D01*
X1121001Y150999D02*
X1125000Y147000D01*
X1013000Y562999D02*
X1016000Y565999D01*
X1011500Y561499D02*
X1013000Y562999D01*
X1028000Y365000D02*
X1052160Y340840D01*
X1027000Y360000D02*
X1048000Y339000D01*
X1043000Y337657D02*
X1044000Y336657D01*
X1025000Y350000D02*
X1040000Y335000D01*
X1024000Y345000D02*
X1036000Y333000D01*
X1022000Y320000D02*
X1028000Y314000D01*
Y260000D02*
Y314000D01*
X1021788Y290002D02*
X1024000Y287790D01*
X1026000Y355000D02*
X1043000Y338000D01*
Y337657D02*
Y338000D01*
X1011750Y290002D02*
X1021788D01*
X998000Y295000D02*
X1011500D01*
X994000Y299000D02*
X998000Y295000D01*
X1011500Y340000D02*
X1023000D01*
X410081Y418082D02*
X426425D01*
X428292Y419948D01*
X896000Y211005D02*
Y242000D01*
X907000Y235000D02*
Y241002D01*
X881000Y251000D02*
X891000Y261000D01*
X750262Y199084D02*
X752178Y201000D01*
X754669Y195084D02*
X756585Y197000D01*
Y191084D02*
X758501Y193000D01*
X698000Y167000D02*
X769000D01*
X695000Y171000D02*
X767000D01*
X769000Y173000D01*
X692084Y175084D02*
X765000D01*
X766916Y177000D01*
X689084Y179084D02*
X763000D01*
X764917Y181000D01*
X888786Y181000D01*
X766916Y177000D02*
X955001Y177000D01*
X888786Y181000D02*
X953001D01*
X769000Y173000D02*
X957001Y173000D01*
X380000Y303160D02*
X380300Y302860D01*
X583500Y330000D02*
X583500Y330000D01*
X761300Y330000D02*
X761300Y330000D01*
X532700Y325000D02*
X552700Y345000D01*
X833001Y405000D02*
X838001D01*
X833000Y405000D02*
X833001Y405000D01*
X838001D02*
X843000Y410000D01*
X860500D01*
X833000Y412000D02*
X833001Y412000D01*
X833000Y405000D02*
Y412000D01*
X875500Y405000D02*
X878000Y402500D01*
X860500Y405000D02*
X875500D01*
X1085000Y236000D02*
X1117001Y203999D01*
Y148999D02*
Y203999D01*
X1121001Y150999D02*
Y206999D01*
X1088000Y240000D02*
X1121001Y206999D01*
X1125001Y152999D02*
Y208999D01*
X1090000Y244000D02*
X1125001Y208999D01*
X1129001Y154999D02*
Y210999D01*
X1083050Y232000D02*
X1113001Y202049D01*
Y144000D02*
Y202049D01*
X1117001Y148999D02*
X1120000Y146000D01*
X954000Y232270D02*
X956730Y235000D01*
X954000Y225982D02*
Y232270D01*
X952268Y224250D02*
X954000Y225982D01*
X946250Y224250D02*
X952268D01*
X956730Y235000D02*
X961000D01*
X923000Y234995D02*
X923755Y235750D01*
X931750D01*
X917000Y234995D02*
Y235000D01*
X946250Y263596D02*
X968000Y241846D01*
X951250Y265064D02*
X972000Y244314D01*
X951250Y265064D02*
Y274250D01*
X951000Y274500D02*
X951250Y274250D01*
X946250Y263596D02*
Y274250D01*
X946000Y274500D02*
X946250Y274250D01*
X972000Y212000D02*
Y244314D01*
X968000Y213657D02*
Y241846D01*
X1011500Y320000D02*
X1022000D01*
X1011500Y290000D02*
X1011750Y289750D01*
X175300Y178000D02*
Y291300D01*
X169300Y172000D02*
X175300Y178000D01*
X89000Y172000D02*
X169300D01*
X195300Y135300D02*
Y281300D01*
X182342Y122342D02*
X195300Y135300D01*
X177978Y122342D02*
X182342D01*
X191300Y137168D02*
Y283300D01*
X182132Y128000D02*
X191300Y137168D01*
X163000Y128000D02*
X182132D01*
X187300Y141300D02*
Y285300D01*
X180000Y134000D02*
X187300Y141300D01*
X171300Y218300D02*
Y293300D01*
X168000Y215000D02*
X171300Y218300D01*
X162000Y215000D02*
X168000D01*
X558100Y324450D02*
X574650Y341000D01*
X532700Y302860D02*
Y325000D01*
X558100Y302860D02*
Y324450D01*
X507300Y324750D02*
X531550Y349000D01*
X507300Y302860D02*
Y324750D01*
X568500Y259600D02*
Y326000D01*
X566040Y257140D02*
X568500Y259600D01*
Y326000D02*
X579500Y337000D01*
X558100Y257140D02*
X566040D01*
X175000Y462498D02*
Y609000D01*
X172000Y612000D02*
X175000Y609000D01*
X153000Y612000D02*
X172000D01*
X190000D02*
X211000D01*
X187000Y609000D02*
X190000Y612000D01*
X187000Y462498D02*
Y609000D01*
X181000Y462498D02*
Y535000D01*
X549125Y440875D02*
X562000Y428000D01*
X551080Y444920D02*
X564000Y432000D01*
X552897Y449103D02*
X566000Y436000D01*
X561900Y452100D02*
X570000Y444000D01*
X561900Y452100D02*
Y490000D01*
X162243Y444999D02*
X168501D01*
X891000Y469001D02*
X916000Y444001D01*
X895000Y477001D02*
X926000Y446000D01*
X897000Y481001D02*
X931000Y447000D01*
X899000Y485000D02*
X936000Y448000D01*
X901000Y489001D02*
X941000Y449000D01*
X903000Y493000D02*
X946000Y450000D01*
X905000Y497001D02*
X951000Y451000D01*
X635000Y459689D02*
X645689Y449000D01*
X660000Y460001D02*
X660001Y460000D01*
X934400Y606400D02*
X939977Y611978D01*
X661000Y144000D02*
X692084Y175084D01*
X661000Y112497D02*
Y144000D01*
X645730Y142730D02*
X686084Y183084D01*
X640000Y142730D02*
X645730D01*
X643000Y133000D02*
X689084Y179084D01*
X570000Y133000D02*
X643000D01*
X617000Y30000D02*
Y59000D01*
X420000Y559650D02*
X420000Y559650D01*
X300000Y100350D02*
X300000Y100350D01*
X100350Y390000D02*
X100350Y390000D01*
X179300Y170300D02*
Y289300D01*
X153000Y144000D02*
X179300Y170300D01*
X345846Y424000D02*
Y434878D01*
X91580Y515000D02*
X149000D01*
X79000Y527580D02*
X91580Y515000D01*
X156000Y138000D02*
X183300Y165300D01*
X94000Y138000D02*
X156000D01*
X183300Y165300D02*
Y287300D01*
X560000Y143000D02*
X570000Y133000D01*
X130001Y214999D02*
X130002Y215000D01*
X130001Y444999D02*
X130002Y445000D01*
X635000Y459689D02*
X635000Y459689D01*
X845212Y633886D02*
X845362Y633736D01*
X817612Y634036D02*
X817762Y633886D01*
X845337Y595961D02*
X845362Y595986D01*
X817612Y595936D02*
X817637Y595961D01*
X1120000Y141000D02*
Y146000D01*
X981000Y425500D02*
Y457000D01*
X934400Y591240D02*
Y606400D01*
X930000Y502006D02*
X976000Y456006D01*
X915000Y510770D02*
X971000Y454770D01*
X976000Y425500D02*
Y456006D01*
X1013000Y562999D02*
Y563000D01*
X971000Y425500D02*
Y454770D01*
X1011500Y320000D02*
X1011500Y320000D01*
X1011500Y290000D02*
X1011502Y290002D01*
X900000Y510000D02*
X910000D01*
X870900Y539100D02*
X900000Y510000D01*
X870900Y539100D02*
Y560760D01*
X173000Y117365D02*
X177978Y122342D01*
X173000Y59580D02*
Y117365D01*
X1011500Y365000D02*
X1028000D01*
X1011500Y360000D02*
X1027000D01*
X1011500Y355000D02*
X1026000D01*
X1011500Y350000D02*
X1025000D01*
X1011500Y345000D02*
X1024000D01*
X891000Y261000D02*
Y274500D01*
X886000Y262000D02*
Y274500D01*
X879000Y255000D02*
X886000Y262000D01*
X881000Y263000D02*
Y274500D01*
X877000Y259000D02*
X881000Y263000D01*
X874828Y263000D02*
X876000Y264172D01*
Y274500D01*
X946250Y223250D02*
X946500Y223000D01*
X860497Y299997D02*
X860500Y300000D01*
X910000Y510000D02*
X966000Y454000D01*
X907990Y506000D02*
X961000Y452990D01*
X966000Y425500D02*
Y454000D01*
X961000Y425500D02*
Y452990D01*
X901000Y292500D02*
X901000Y292500D01*
Y274500D02*
Y292500D01*
X860500Y295000D02*
X878000D01*
X989000Y407500D02*
X991000Y409500D01*
Y425500D01*
X956000D02*
Y452000D01*
X906000Y502000D02*
X956000Y452000D01*
X951000Y425500D02*
Y451000D01*
X946000Y425500D02*
Y450000D01*
X941000Y425500D02*
Y449000D01*
X936000Y425500D02*
Y448000D01*
X931000Y425500D02*
Y447000D01*
X926000Y425500D02*
Y446000D01*
X921000Y425500D02*
Y445000D01*
X893000Y473000D02*
X921000Y445000D01*
X916000Y425500D02*
Y444001D01*
X911000Y425500D02*
Y443000D01*
X889000Y465000D02*
X911000Y443000D01*
X906000Y425500D02*
Y442000D01*
X887000Y461000D02*
X906000Y442000D01*
X901000Y425500D02*
Y441000D01*
X885000Y457000D02*
X901000Y441000D01*
X896000Y425500D02*
Y440026D01*
X883026Y453000D02*
X896000Y440026D01*
X881000Y449000D02*
X891000Y439000D01*
X879000Y445000D02*
X886000Y438000D01*
X891000Y425500D02*
Y439000D01*
X886000Y425500D02*
Y438000D01*
X876000Y425500D02*
X876000Y425500D01*
X891000Y425000D02*
Y425500D01*
X1022000Y410000D02*
X1025000Y413000D01*
X1011500Y410000D02*
X1022000D01*
X1056999Y435000D02*
X1057000Y435001D01*
X105972Y212250D02*
X105972Y212250D01*
X648320Y211000D02*
X648321Y210999D01*
X1117001Y138000D02*
X1120000Y141000D01*
X1039001Y123000D02*
X1054001Y138000D01*
X1117001D01*
X162419Y49000D02*
X173000Y59580D01*
X79000Y123000D02*
X94000Y138000D01*
X657503Y109000D02*
X661000Y112497D01*
X581800Y599800D02*
Y629000D01*
X80000Y181000D02*
X89000Y172000D01*
D26*
X820995Y577002D02*
Y584062D01*
X805750Y608620D02*
X817612D01*
X304100Y213999D02*
Y227000D01*
X831001Y561000D02*
Y563930D01*
Y552999D02*
Y561000D01*
X831000Y553000D02*
X831001Y552999D01*
X826931Y568000D02*
X831001Y563930D01*
X789250Y568000D02*
X826931D01*
X885934Y634000D02*
X892000D01*
X787000Y251000D02*
Y260000D01*
X926000Y634000D02*
X938000D01*
X845001Y552751D02*
Y560751D01*
X805786Y621336D02*
X817612D01*
X803001Y552751D02*
Y560751D01*
X775000Y577002D02*
X790000D01*
X851000Y251000D02*
X861000D01*
X861000Y251000D01*
X836000Y251000D02*
X851000D01*
X921000Y125000D02*
X921191Y125191D01*
X943791D01*
X902001Y157000D02*
X910000D01*
X939096Y210999D02*
X954999D01*
X923192D02*
X939096D01*
X879000Y235000D02*
Y243000D01*
Y235000D02*
X879000Y235000D01*
X801000Y251000D02*
X815000D01*
X787000D02*
X801000D01*
X787000Y251000D02*
X787000Y251000D01*
X815140Y313140D02*
Y321000D01*
X815000Y313000D02*
X815140Y313140D01*
X1089000Y210000D02*
X1089000Y210000D01*
X1077000Y210000D02*
X1089000D01*
X1076999Y209999D02*
X1077000Y210000D01*
X817375Y530556D02*
Y537000D01*
X832931Y515000D02*
X865000D01*
X817375Y530556D02*
X832931Y515000D01*
X739362Y608636D02*
X763112D01*
X705000Y553750D02*
X705750Y553000D01*
X739012Y621336D02*
X763112D01*
X835919Y525000D02*
X865000D01*
X845000Y537000D02*
X855000D01*
X852750Y157000D02*
X886001D01*
X864995Y217000D02*
X865000Y216994D01*
X852750Y217000D02*
X864995D01*
X789000Y567750D02*
X789250Y568000D01*
X789000Y553000D02*
Y567750D01*
X747000Y568000D02*
X789250D01*
X817001Y553001D02*
Y561000D01*
X817000Y553000D02*
X817001Y553001D01*
X1013000Y225000D02*
Y234000D01*
X503000Y434000D02*
X515000D01*
X502999Y434001D02*
X503000Y434000D01*
X482998D02*
X482999Y434001D01*
X467000Y434000D02*
X482998D01*
X817001Y547001D02*
Y552751D01*
X815000Y545000D02*
X817001Y547001D01*
X775000Y545000D02*
X815000D01*
X830931Y529988D02*
X835919Y525000D01*
X830931Y529988D02*
Y536931D01*
X400000Y507000D02*
Y512000D01*
X397000Y515000D02*
X400000Y512000D01*
X324000Y515000D02*
X397000D01*
X390000Y507000D02*
X400000D01*
X390000Y507000D02*
X390000Y507000D01*
X400000D02*
X420000D01*
X420000Y507000D01*
X434000Y507000D02*
X444000D01*
X153000Y404303D02*
Y414000D01*
Y336000D02*
Y346000D01*
X344000Y153000D02*
X354000D01*
X276000D02*
X286000D01*
X153000Y360000D02*
Y369000D01*
X145250Y294250D02*
Y366071D01*
X121000Y270000D02*
X145250Y294250D01*
X100350Y270000D02*
X121000D01*
X148179Y369000D02*
X153000D01*
X145250Y366071D02*
X148179Y369000D01*
X344000Y153000D02*
X344000Y153000D01*
X322448Y145000D02*
X396000D01*
X320000Y147448D02*
X322448Y145000D01*
X320000Y147448D02*
Y153000D01*
X420000Y100350D02*
Y121000D01*
X396000Y145000D02*
X420000Y121000D01*
X300000Y153000D02*
X320000D01*
X300000Y153000D02*
X300000Y153000D01*
X320000D02*
X330000D01*
X330000Y153000D01*
X153000Y346000D02*
X153000Y346000D01*
X300000Y539000D02*
X324000Y515000D01*
X366000Y507000D02*
X376000D01*
X376000Y507000D01*
X153000Y360000D02*
X153000Y360000D01*
Y369000D02*
Y390000D01*
X153000Y390000D02*
X153000Y390000D01*
X817750Y537000D02*
X819000Y535750D01*
X815000Y405000D02*
X822999D01*
X789000Y514000D02*
Y514000D01*
X1041000Y209999D02*
X1056999D01*
X1076000Y299000D02*
X1076500Y299500D01*
X1099150D01*
X1099650Y300000D01*
X1007040Y444960D02*
X1013960D01*
X997000Y455000D02*
Y463000D01*
Y455000D02*
X1007000D01*
X997000Y445000D02*
X1007000D01*
X815000Y313000D02*
X815000Y313000D01*
X907000Y215270D02*
Y225000D01*
X889001Y215270D02*
Y225000D01*
X879000D02*
X889001D01*
X879000Y235000D02*
X889001D01*
X921700Y591240D02*
Y612000D01*
X762750Y634050D02*
X775014D01*
X883600Y612000D02*
Y631666D01*
Y591240D02*
Y612000D01*
Y631666D02*
X885934Y634000D01*
X802972Y527972D02*
Y536972D01*
X789000Y514000D02*
X802972Y527972D01*
Y536972D02*
X803000Y537000D01*
X775014Y595986D02*
X778000Y593000D01*
X762786Y595986D02*
X775014D01*
X778000Y590000D02*
Y593000D01*
X775000Y587000D02*
X778000Y590000D01*
X762014Y587000D02*
X775000D01*
X759000Y583986D02*
X762014Y587000D01*
X759000Y576986D02*
Y583986D01*
X759000Y576986D02*
X759000Y576986D01*
X762750Y595950D02*
X762786Y595986D01*
X750000Y577002D02*
X758984D01*
X759000Y576986D01*
X821000Y577002D02*
X830500D01*
X789000Y525000D02*
Y537000D01*
X775000Y525000D02*
Y537000D01*
X761000Y525000D02*
Y537000D01*
X747000Y525000D02*
Y537000D01*
X733000Y525000D02*
Y537000D01*
X719000Y525000D02*
Y537000D01*
X705000Y525000D02*
Y537000D01*
X691000Y525000D02*
Y537000D01*
X733000Y545000D02*
X775000D01*
Y553000D01*
X693000Y545000D02*
X733000D01*
Y553000D01*
X691000Y547000D02*
Y553000D01*
Y547000D02*
X693000Y545000D01*
X705000Y553000D02*
X705750D01*
X735362Y568000D02*
X747000D01*
Y553000D02*
Y568000D01*
X735362D02*
Y595986D01*
X711000Y568000D02*
X735362D01*
X705000Y562000D02*
X711000Y568000D01*
X830931Y536931D02*
X831000Y537000D01*
X705000Y553750D02*
Y562000D01*
X719000Y589986D02*
Y630000D01*
X691000Y561986D02*
X719000Y589986D01*
X691000Y553000D02*
Y561986D01*
X719000Y630000D02*
X722936Y633936D01*
X735362D01*
X761000Y553000D02*
Y561000D01*
X719000Y553000D02*
Y561000D01*
X434000Y507000D02*
X434050Y507050D01*
X1060000Y292000D02*
Y299000D01*
Y285000D02*
Y292000D01*
X1068250Y294929D02*
Y379250D01*
X1079000Y390000D01*
X1065321Y292000D02*
X1068250Y294929D01*
X1060000Y292000D02*
X1065321D01*
X1076000Y271000D02*
X1076500Y270500D01*
X1099150D01*
X1099650Y270000D01*
X1076000Y271000D02*
Y285000D01*
X1060000Y313000D02*
Y324000D01*
X1076000Y299000D02*
Y313000D01*
X1079000Y390000D02*
X1099650D01*
X1079000Y360000D02*
X1099650D01*
X1099650Y360000D01*
X1079000Y330000D02*
X1099650D01*
X463000Y343000D02*
X481900Y324100D01*
X583500Y302860D02*
Y330000D01*
X507300Y230000D02*
Y257140D01*
X685100Y230000D02*
Y257140D01*
X354000Y343000D02*
X463000D01*
X481900Y302860D02*
Y324100D01*
X761300Y302860D02*
Y330000D01*
X278697Y324147D02*
X297550Y343000D01*
X634300Y230000D02*
Y257140D01*
X278697Y302863D02*
Y324147D01*
X431100Y230000D02*
Y257140D01*
X297550Y343000D02*
X354000D01*
X278697Y302863D02*
X278700Y302860D01*
X792000Y302860D02*
X805000D01*
Y313000D01*
X815000Y302860D02*
Y313000D01*
Y302860D02*
X815140Y303000D01*
X961000Y217000D02*
Y225000D01*
X954999Y210999D02*
X961000Y217000D01*
X917000Y217191D02*
X923192Y210999D01*
X917000Y217191D02*
Y225000D01*
X1013000Y234000D02*
X1013000Y234000D01*
X1013000Y234000D01*
X1023000D01*
X1023000Y234001D01*
X839878Y148000D02*
Y152270D01*
X801778Y144000D02*
Y152270D01*
X814478Y144000D02*
Y152270D01*
X789078Y148172D02*
Y152270D01*
Y148172D02*
X793250Y144000D01*
X801778D01*
X835878D02*
X839878Y148000D01*
X827178Y144000D02*
X835878D01*
X814478D02*
X827178D01*
X801778D02*
X814478D01*
X765191Y125191D02*
X786779D01*
X765000Y125000D02*
X765191Y125191D01*
X786779D02*
X787000Y125412D01*
X895500Y100012D02*
X929988D01*
X944000Y74950D02*
Y86000D01*
X929988Y100012D02*
X944000Y86000D01*
X943791Y125191D02*
X944000Y125400D01*
X852000Y108000D02*
X853512Y109512D01*
X868500D01*
X911488D02*
X913000Y108000D01*
X895500Y109512D02*
X911488D01*
X1005000Y100000D02*
Y115000D01*
Y85000D02*
Y100000D01*
X980000D02*
X1005000D01*
X944000Y74950D02*
X944000Y74950D01*
X790000Y577002D02*
Y605550D01*
X805786Y621336D01*
X802000Y590970D02*
Y604870D01*
Y590970D02*
X806000Y586970D01*
X818087D01*
X802000Y604870D02*
X805750Y608620D01*
X790000Y577002D02*
X805000D01*
X735362Y604636D02*
X739362Y608636D01*
X735362Y595986D02*
Y604636D01*
X818087Y586970D02*
X820995Y584062D01*
X694865Y211135D02*
X695000Y211270D01*
X679536Y211135D02*
X694865D01*
X679401Y210999D02*
X679536Y211135D01*
X648320Y211000D02*
X659400D01*
X659401Y210999D01*
X130002Y215000D02*
X146000D01*
X934400Y530600D02*
Y560760D01*
Y530600D02*
X935000Y530000D01*
X921700Y540000D02*
Y560760D01*
X909000Y540000D02*
X921700D01*
X100000Y445000D02*
X100000Y445000D01*
X110000D01*
X110001Y444999D01*
X827178Y144000D02*
Y152270D01*
X376000Y523000D02*
X390000D01*
X360000Y539000D02*
Y559650D01*
X330000Y559650D02*
X330000Y559650D01*
X330000Y539000D02*
Y559650D01*
X300000Y539000D02*
Y559650D01*
X420000Y539000D02*
Y559650D01*
X390000Y539000D02*
Y559650D01*
Y523000D02*
Y539000D01*
X420000Y523000D02*
Y539000D01*
Y523000D02*
X434000D01*
X360000Y100350D02*
Y121000D01*
X390000Y100350D02*
X390000Y100350D01*
Y121000D01*
X300000Y100350D02*
Y121000D01*
X330000Y100350D02*
Y121000D01*
Y137000D01*
X300000Y121000D02*
Y137000D01*
X330000D02*
X344000D01*
X286000D02*
X300000D01*
X100350Y330000D02*
X121000D01*
X100350Y300000D02*
X100350Y300000D01*
X121000D01*
X100350Y390000D02*
X121000D01*
X100350Y360000D02*
X121000D01*
X137000D01*
X121000Y390000D02*
X137000D01*
Y346000D02*
Y360000D01*
Y390000D02*
Y404000D01*
X320000Y216000D02*
X330000D01*
Y256640D01*
X329500Y257140D02*
X330000Y256640D01*
X370000Y333000D02*
X379919D01*
X380000Y332919D01*
Y303160D02*
Y332919D01*
X354000Y333000D02*
Y343000D01*
X344000Y333000D02*
X354000D01*
X284997Y227000D02*
X304100D01*
X278997Y233000D02*
X284997Y227000D01*
X278997Y233000D02*
Y256843D01*
X99000Y215000D02*
X99000Y215000D01*
X110000D01*
X110001Y214999D01*
X130002Y445000D02*
X146243D01*
X735362Y624986D02*
Y633936D01*
Y624986D02*
X739012Y621336D01*
X817762Y633886D02*
X845212D01*
X817637Y595961D02*
X845337D01*
X304100Y227000D02*
Y257140D01*
X909000Y530000D02*
Y540000D01*
X780750Y14250D02*
X829250D01*
X769000D02*
X780750D01*
Y44250D01*
X829250Y14250D02*
X841000D01*
X829250D02*
Y44250D01*
X883600Y540000D02*
X909000D01*
X883600D02*
Y560760D01*
X909000Y540000D02*
Y560760D01*
X1077000Y435001D02*
X1088001D01*
X278700Y257140D02*
X278997Y256843D01*
D27*
X823000Y100012D02*
X868500D01*
X750000Y125191D02*
X765191D01*
X1150000Y57000D02*
Y204000D01*
X1099000Y255000D02*
X1150000Y204000D01*
X1067000Y255000D02*
X1099000D01*
X1060000Y262000D02*
X1067000Y255000D01*
X1060000Y262000D02*
Y271000D01*
X823000Y79912D02*
Y100012D01*
Y79912D02*
X869841Y33071D01*
X1126071D01*
X1150000Y57000D01*
D28*
X618200Y200310D02*
D03*
X581800D02*
D03*
X576700Y142730D02*
D03*
X623300D02*
D03*
X545470Y89330D02*
D03*
X495960Y59510D02*
D03*
X511920Y26790D02*
D03*
X565900Y47450D02*
D03*
X627840Y43110D02*
D03*
X653900Y81750D02*
D03*
X678430Y15150D02*
D03*
X698780Y45320D02*
D03*
X1090000Y184560D02*
D03*
X1053730Y181390D02*
D03*
X1100090Y127650D02*
D03*
X1053670Y123590D02*
D03*
X1122420Y113300D02*
D03*
X1180000Y108200D02*
D03*
Y71800D02*
D03*
X1122420Y66700D02*
D03*
X1061800Y459690D02*
D03*
X1098200D02*
D03*
X1103300Y517270D02*
D03*
X1056700D02*
D03*
X1134530Y570670D02*
D03*
X1184040Y600490D02*
D03*
X1168080Y633210D02*
D03*
X1114100Y612550D02*
D03*
X1052160Y616890D02*
D03*
X1026100Y578250D02*
D03*
X1001570Y644850D02*
D03*
X981220Y614680D02*
D03*
X581800Y459690D02*
D03*
X618200D02*
D03*
X623300Y517270D02*
D03*
X576700D02*
D03*
X654530Y570670D02*
D03*
X704040Y600490D02*
D03*
X688080Y633210D02*
D03*
X634100Y612550D02*
D03*
X572160Y616890D02*
D03*
X546100Y578250D02*
D03*
X521570Y644850D02*
D03*
X501220Y614680D02*
D03*
X130000Y184560D02*
D03*
X93730Y181390D02*
D03*
X140090Y127650D02*
D03*
X93670Y123590D02*
D03*
X162420Y113300D02*
D03*
X220000Y108200D02*
D03*
Y71800D02*
D03*
X162420Y66700D02*
D03*
X214562Y560000D02*
D03*
X211389Y596270D02*
D03*
X157650Y549910D02*
D03*
X153590Y596330D02*
D03*
X143300Y527580D02*
D03*
X138200Y469999D02*
D03*
X101801Y470000D02*
D03*
X96701Y527580D02*
D03*
D29*
X735362Y595986D02*
D03*
Y633936D02*
D03*
X845362Y633736D02*
D03*
X660000Y520000D02*
D03*
Y460001D02*
D03*
X659700Y490000D02*
D03*
X530000Y460000D02*
D03*
Y490000D02*
D03*
Y520128D02*
D03*
X491000Y460001D02*
D03*
Y490000D02*
D03*
Y520000D02*
D03*
X375846Y434919D02*
D03*
X405846D02*
D03*
X345846Y434878D02*
D03*
X285849Y434919D02*
D03*
X315846D02*
D03*
X255927D02*
D03*
X845362Y595986D02*
D03*
D30*
X768000Y57000D02*
D03*
X488000Y390000D02*
D03*
X509000Y490000D02*
D03*
X515000Y554000D02*
D03*
Y460000D02*
D03*
X532000Y566000D02*
D03*
X561899Y490000D02*
D03*
X315846Y394000D02*
D03*
X256000Y406000D02*
D03*
X406000Y412000D02*
D03*
X375927Y417919D02*
D03*
X286000Y400000D02*
D03*
X1122000Y128000D02*
D03*
X1125000Y136000D02*
D03*
X831001Y561000D02*
D03*
X169000Y470000D02*
D03*
X566000Y30000D02*
D03*
X512000Y10000D02*
D03*
X444000Y434000D02*
D03*
X1068250Y368000D02*
D03*
X788440Y330000D02*
D03*
X787000Y260000D02*
D03*
X861000Y251000D02*
D03*
X910000Y157000D02*
D03*
X832000Y347000D02*
D03*
X879000Y243000D02*
D03*
X815140Y321000D02*
D03*
X865000Y515000D02*
D03*
Y525000D02*
D03*
X855000Y537000D02*
D03*
X1060000Y262000D02*
D03*
X678000Y550000D02*
D03*
X688000Y650000D02*
D03*
X865000Y216994D02*
D03*
X803001Y560751D02*
D03*
X817001Y561000D02*
D03*
X1013000Y253001D02*
D03*
Y225000D02*
D03*
X969000Y257140D02*
D03*
X515000Y434000D02*
D03*
X1168080Y650000D02*
D03*
X1062001Y635000D02*
D03*
X639000Y517000D02*
D03*
X634000Y630000D02*
D03*
X655000Y552000D02*
D03*
X1025000Y420000D02*
D03*
X400000Y507000D02*
D03*
X444000D02*
D03*
X153000Y414000D02*
D03*
Y336000D02*
D03*
X354000Y153000D02*
D03*
X276000D02*
D03*
X320000D02*
D03*
X366000Y507000D02*
D03*
X153000Y369000D02*
D03*
X545470Y108000D02*
D03*
X1133000Y551000D02*
D03*
X1123000Y442000D02*
D03*
X815000Y405000D02*
D03*
X789000Y514000D02*
D03*
X1105000Y626000D02*
D03*
X913000Y244000D02*
D03*
X1014000Y444920D02*
D03*
X899000Y253810D02*
D03*
X921700Y612000D02*
D03*
X775014Y634050D02*
D03*
X883600Y612000D02*
D03*
X915000Y518000D02*
D03*
X930000D02*
D03*
X750000Y577002D02*
D03*
X790000D02*
D03*
X830500D02*
D03*
X789000Y525000D02*
D03*
X775000D02*
D03*
X761000D02*
D03*
X747000D02*
D03*
X733000D02*
D03*
X719000D02*
D03*
X705000D02*
D03*
X691000D02*
D03*
X845001Y560751D02*
D03*
X761000Y561000D02*
D03*
X719000Y561000D02*
D03*
X560000Y158000D02*
D03*
X1088001Y435001D02*
D03*
X1060000Y324000D02*
D03*
X1079000Y360000D02*
D03*
Y330000D02*
D03*
X1039000Y181000D02*
D03*
X1119000Y517000D02*
D03*
X997000Y463000D02*
D03*
X994000Y299000D02*
D03*
X907000Y215270D02*
D03*
X583500Y330000D02*
D03*
X634300Y230000D02*
D03*
X431100D02*
D03*
X761300Y330000D02*
D03*
X507300Y230000D02*
D03*
X685100D02*
D03*
X833001Y412000D02*
D03*
X878000Y402500D02*
D03*
X792000Y302860D02*
D03*
X939096Y210999D02*
D03*
X814478Y144000D02*
D03*
X765000Y125000D02*
D03*
X750000D02*
D03*
X665000Y93000D02*
D03*
X180000Y134000D02*
D03*
X882000Y77000D02*
D03*
X897000D02*
D03*
X867000Y123000D02*
D03*
X897000D02*
D03*
X867000Y77000D02*
D03*
X912000D02*
D03*
X852000D02*
D03*
X882000Y123000D02*
D03*
X1005000Y85000D02*
D03*
Y115000D02*
D03*
Y100000D02*
D03*
X921000Y125000D02*
D03*
X792000Y57000D02*
D03*
X807000D02*
D03*
X889001Y215270D02*
D03*
X181000Y535000D02*
D03*
X938000Y634000D02*
D03*
X935000Y530000D02*
D03*
X100000Y445000D02*
D03*
X617000Y30000D02*
D03*
X360000Y539000D02*
D03*
X330000D02*
D03*
X360000Y121000D02*
D03*
X390000D02*
D03*
X121000Y330000D02*
D03*
Y300000D02*
D03*
X330000Y216000D02*
D03*
X304100Y227000D02*
D03*
X379919Y333000D02*
D03*
X344000D02*
D03*
X163000Y128000D02*
D03*
X211000Y612000D02*
D03*
X153000Y144000D02*
D03*
X560000Y143000D02*
D03*
X909000Y530000D02*
D03*
X901000Y292500D02*
D03*
X878000Y295000D02*
D03*
X989000Y407500D02*
D03*
X99000Y215000D02*
D03*
X648320Y211000D02*
D03*
X1089000Y210000D02*
D03*
X1039001Y123000D02*
D03*
X1122749Y49000D02*
D03*
X1113001Y144000D02*
D03*
X158000Y528000D02*
D03*
X640000Y142730D02*
D03*
X657503Y109000D02*
D03*
X581800Y629000D02*
D03*
X635000Y459689D02*
D03*
Y459690D02*
D03*
X1022497Y551000D02*
D03*
X1040000Y517270D02*
D03*
X1016000Y565999D02*
D03*
X153000Y612000D02*
D03*
X79000Y527580D02*
D03*
X162419Y49000D02*
D03*
X80000Y181000D02*
D03*
X79000Y123000D02*
D03*
D43*
X502999Y434001D02*
D03*
X482999D02*
D03*
X659401Y210999D02*
D03*
X679401D02*
D03*
X1077000Y435001D02*
D03*
X1057000D02*
D03*
X1076999Y209999D02*
D03*
X1056999D02*
D03*
X110001Y444999D02*
D03*
X130001D02*
D03*
X110001Y214999D02*
D03*
X130001Y214999D02*
D03*
D44*
X451000Y434000D02*
D03*
X467000D02*
D03*
X1025000Y210000D02*
D03*
X1041000D02*
D03*
X724000Y511000D02*
D03*
X740000D02*
D03*
Y495000D02*
D03*
X724000D02*
D03*
Y479000D02*
D03*
X740000D02*
D03*
X724000Y463000D02*
D03*
X740000D02*
D03*
Y446920D02*
D03*
X724000D02*
D03*
Y431000D02*
D03*
X740000D02*
D03*
X724000Y415000D02*
D03*
X740000D02*
D03*
Y399000D02*
D03*
X724000D02*
D03*
X752000Y503000D02*
D03*
X768000D02*
D03*
X752000Y487000D02*
D03*
X768000D02*
D03*
Y471000D02*
D03*
X752000D02*
D03*
Y455000D02*
D03*
X768000D02*
D03*
X752000Y438919D02*
D03*
X768000D02*
D03*
Y423000D02*
D03*
X752000D02*
D03*
X711000Y211270D02*
D03*
X695000D02*
D03*
X1025000Y435000D02*
D03*
X1041000D02*
D03*
X752000Y407000D02*
D03*
X768000D02*
D03*
X1076000Y313000D02*
D03*
X1060000D02*
D03*
X1076000Y285000D02*
D03*
X1060000D02*
D03*
X1076000Y271000D02*
D03*
X1060000D02*
D03*
X1076000Y299000D02*
D03*
X1060000D02*
D03*
X137000Y346000D02*
D03*
X153000D02*
D03*
X137000Y404303D02*
D03*
X153000D02*
D03*
X902001Y157000D02*
D03*
X886001D02*
D03*
X146000Y215000D02*
D03*
X162000D02*
D03*
X146243Y444999D02*
D03*
X162243D02*
D03*
X759000Y576986D02*
D03*
X775000D02*
D03*
X821000Y577002D02*
D03*
X805000D02*
D03*
X136997Y360000D02*
D03*
X152997D02*
D03*
X354000Y333000D02*
D03*
X370000D02*
D03*
X320000Y216000D02*
D03*
X304000D02*
D03*
X137000Y390081D02*
D03*
X153000D02*
D03*
D45*
X827350Y217000D02*
D03*
X814650D02*
D03*
Y157000D02*
D03*
X827350D02*
D03*
X801950D02*
D03*
X789250D02*
D03*
Y217000D02*
D03*
X801950D02*
D03*
X852750Y157000D02*
D03*
X840050D02*
D03*
Y217000D02*
D03*
X852750D02*
D03*
D46*
X815000Y302860D02*
D03*
X805000Y302860D02*
D03*
X815000Y313000D02*
D03*
X805000Y313000D02*
D03*
X833000Y405000D02*
D03*
X823001Y405000D02*
D03*
D47*
X926000Y633000D02*
D03*
X892000D02*
D03*
D48*
X909000Y560760D02*
D03*
X896300D02*
D03*
X947100D02*
D03*
X934400D02*
D03*
X921700D02*
D03*
Y591240D02*
D03*
X934400D02*
D03*
X947100D02*
D03*
X896300D02*
D03*
X909000D02*
D03*
X883600Y560760D02*
D03*
X870900D02*
D03*
X883600Y591240D02*
D03*
X870900D02*
D03*
D49*
X1099650Y270000D02*
D03*
Y300000D02*
D03*
Y330000D02*
D03*
Y360000D02*
D03*
Y390000D02*
D03*
X100350D02*
D03*
Y360000D02*
D03*
Y330000D02*
D03*
Y300000D02*
D03*
Y270000D02*
D03*
D50*
X1154350Y231150D02*
D03*
Y428850D02*
D03*
X45650D02*
D03*
Y231150D02*
D03*
D51*
X831000Y553000D02*
D03*
Y537000D02*
D03*
X912000Y88000D02*
D03*
Y104000D02*
D03*
X852000Y88000D02*
D03*
Y104000D02*
D03*
X817000Y537000D02*
D03*
Y553000D02*
D03*
X845000Y537000D02*
D03*
Y553000D02*
D03*
X803000Y537000D02*
D03*
Y553000D02*
D03*
X719000Y537000D02*
D03*
Y553000D02*
D03*
X705000Y537000D02*
D03*
Y553000D02*
D03*
X789000Y537000D02*
D03*
Y553000D02*
D03*
X691000Y537000D02*
D03*
Y553000D02*
D03*
X775000Y537000D02*
D03*
Y553000D02*
D03*
X376000Y523000D02*
D03*
Y507000D02*
D03*
X344000Y137000D02*
D03*
Y153000D02*
D03*
X434000Y523000D02*
D03*
Y507000D02*
D03*
X286000Y137000D02*
D03*
Y153000D02*
D03*
X761000Y537000D02*
D03*
Y553000D02*
D03*
X747000Y537000D02*
D03*
Y553000D02*
D03*
X733000Y537000D02*
D03*
Y553000D02*
D03*
X851000Y235000D02*
D03*
Y251000D02*
D03*
X836000Y235000D02*
D03*
Y251000D02*
D03*
X815000Y235000D02*
D03*
Y251000D02*
D03*
X801000Y235000D02*
D03*
Y251000D02*
D03*
X787000Y235000D02*
D03*
Y251000D02*
D03*
X390000Y523000D02*
D03*
Y507000D02*
D03*
X420000Y523000D02*
D03*
Y507000D02*
D03*
X300000Y137000D02*
D03*
Y153000D02*
D03*
X330000Y137000D02*
D03*
Y153000D02*
D03*
D52*
X895500Y109512D02*
D03*
Y100012D02*
D03*
Y90512D02*
D03*
X868500D02*
D03*
Y100012D02*
D03*
Y109512D02*
D03*
D53*
X882000Y100012D02*
D03*
D54*
X944000Y125400D02*
D03*
Y74600D02*
D03*
X980000Y100000D02*
D03*
X787000Y125412D02*
D03*
Y74612D02*
D03*
X823000Y100012D02*
D03*
D55*
X805000Y41000D02*
D03*
X798500D02*
D03*
X792000D02*
D03*
X811500D02*
D03*
X818000D02*
D03*
D56*
X817250Y634050D02*
D03*
Y621350D02*
D03*
Y608650D02*
D03*
Y595950D02*
D03*
X762750Y634050D02*
D03*
Y621350D02*
D03*
Y608650D02*
D03*
Y595950D02*
D03*
D57*
X1007000Y455000D02*
D03*
X1007000Y445000D02*
D03*
X961000Y235000D02*
D03*
X961000Y225000D02*
D03*
X917000Y235000D02*
D03*
X917000Y225000D02*
D03*
X907000D02*
D03*
X907000Y235000D02*
D03*
X1023000Y234001D02*
D03*
X1023000Y243996D02*
D03*
X1013000Y234000D02*
D03*
X1013000Y244000D02*
D03*
X997000Y455000D02*
D03*
X997000Y445000D02*
D03*
X889001Y225000D02*
D03*
X889001Y235000D02*
D03*
X879000Y225000D02*
D03*
X879000Y235000D02*
D03*
D58*
X931750Y235750D02*
D03*
X946250Y224250D02*
D03*
X931750D02*
D03*
X946250Y235750D02*
D03*
D59*
X685100Y257140D02*
D03*
X710500Y257140D02*
D03*
X761300Y257140D02*
D03*
X735900Y257140D02*
D03*
X685100Y302860D02*
D03*
X710500Y302860D02*
D03*
X761300Y302860D02*
D03*
X735900Y302860D02*
D03*
X481900Y257140D02*
D03*
X507300D02*
D03*
X456500Y257140D02*
D03*
X431100Y257140D02*
D03*
X354900Y257140D02*
D03*
X380300D02*
D03*
X278700Y257140D02*
D03*
X304100Y257140D02*
D03*
X329500Y257140D02*
D03*
X405700Y257140D02*
D03*
X634300Y302860D02*
D03*
X659700Y302860D02*
D03*
X608900Y302860D02*
D03*
X583500D02*
D03*
X532700Y302860D02*
D03*
X558100Y302860D02*
D03*
X405700Y302860D02*
D03*
X329500D02*
D03*
X304100Y302860D02*
D03*
X278700Y302860D02*
D03*
X380300Y302860D02*
D03*
X354900D02*
D03*
X431100Y302860D02*
D03*
X456500Y302860D02*
D03*
X507300D02*
D03*
X481900Y302860D02*
D03*
X634300Y257140D02*
D03*
X659700D02*
D03*
X608900Y257140D02*
D03*
X583500D02*
D03*
X532700D02*
D03*
X558100Y257140D02*
D03*
D60*
X420000Y559650D02*
D03*
X390000D02*
D03*
X360000D02*
D03*
X330000D02*
D03*
X300000D02*
D03*
Y100350D02*
D03*
X330000D02*
D03*
X360000D02*
D03*
X390000D02*
D03*
X420000D02*
D03*
D61*
X458850Y614350D02*
D03*
X261150D02*
D03*
Y45650D02*
D03*
X458850D02*
D03*
D62*
X996000Y274500D02*
D03*
X991000D02*
D03*
X986000D02*
D03*
X981000D02*
D03*
X976000D02*
D03*
X971000D02*
D03*
X966000D02*
D03*
X961000D02*
D03*
X956000D02*
D03*
X951000D02*
D03*
X946000D02*
D03*
X941000D02*
D03*
X936000D02*
D03*
X931000Y274500D02*
D03*
X926000Y274500D02*
D03*
X921000Y274500D02*
D03*
X916000Y274500D02*
D03*
X911000Y274500D02*
D03*
X906000Y274500D02*
D03*
X901000Y274500D02*
D03*
X896000Y274500D02*
D03*
X891000Y274500D02*
D03*
X886000Y274500D02*
D03*
X881000Y274500D02*
D03*
X876000Y274500D02*
D03*
X876000Y425500D02*
D03*
X881000D02*
D03*
X886000D02*
D03*
X891000D02*
D03*
X896000D02*
D03*
X901000D02*
D03*
X906000D02*
D03*
X911000D02*
D03*
X916000D02*
D03*
X921000D02*
D03*
X926000D02*
D03*
X931000D02*
D03*
X936000D02*
D03*
X941000Y425500D02*
D03*
X946000Y425500D02*
D03*
X951000Y425500D02*
D03*
X956000Y425500D02*
D03*
X961000Y425500D02*
D03*
X966000Y425500D02*
D03*
X971000Y425500D02*
D03*
X976000Y425500D02*
D03*
X981000D02*
D03*
X986000Y425500D02*
D03*
X991000Y425500D02*
D03*
X996000Y425500D02*
D03*
D63*
X860500Y290000D02*
D03*
Y295000D02*
D03*
Y300000D02*
D03*
Y305000D02*
D03*
Y310000D02*
D03*
Y315000D02*
D03*
Y320000D02*
D03*
Y325000D02*
D03*
Y330000D02*
D03*
Y335000D02*
D03*
Y340000D02*
D03*
Y345000D02*
D03*
Y350000D02*
D03*
X860500Y355000D02*
D03*
X860500Y360000D02*
D03*
X860500Y365000D02*
D03*
X860500Y370000D02*
D03*
X860500Y375000D02*
D03*
X860500Y380000D02*
D03*
X860500Y385000D02*
D03*
X860500Y390000D02*
D03*
X860500Y395000D02*
D03*
X860500Y400000D02*
D03*
X860500Y405000D02*
D03*
X860500Y410000D02*
D03*
X1011500Y410000D02*
D03*
Y405000D02*
D03*
Y400000D02*
D03*
Y395000D02*
D03*
Y390000D02*
D03*
Y385000D02*
D03*
Y380000D02*
D03*
Y375000D02*
D03*
Y370000D02*
D03*
Y365000D02*
D03*
Y360000D02*
D03*
Y355000D02*
D03*
Y350000D02*
D03*
X1011500Y345000D02*
D03*
X1011500Y340000D02*
D03*
X1011500Y335000D02*
D03*
X1011500Y330000D02*
D03*
X1011500Y325000D02*
D03*
X1011500Y320000D02*
D03*
X1011500Y315000D02*
D03*
X1011500Y310000D02*
D03*
Y305000D02*
D03*
X1011500Y300000D02*
D03*
X1011500Y295000D02*
D03*
X1011500Y290000D02*
D03*
D64*
X768000Y57000D02*
X792000D01*
X888634Y85366D02*
X897000Y77000D01*
X888634Y85366D02*
Y93378D01*
X882000Y77000D02*
X897000D01*
X875366Y106622D02*
Y114634D01*
X867000Y123000D02*
X875366Y114634D01*
X888634Y106622D02*
Y114634D01*
X897000Y123000D01*
X875366Y85366D02*
Y93378D01*
X867000Y77000D02*
X875366Y85366D01*
X882000Y77000D02*
Y100012D01*
X867000Y77000D02*
X882000D01*
X891000Y90512D02*
X895500D01*
X867000Y123000D02*
X882000D01*
X897000D01*
X912000Y77000D02*
X912000Y77000D01*
Y88000D01*
X852000Y77000D02*
Y88000D01*
X882000Y100012D02*
Y123000D01*
X792000Y57000D02*
X807000D01*
X792000Y41000D02*
Y57000D01*
X818000Y41000D02*
Y61612D01*
X805000Y74612D02*
X818000Y61612D01*
X787000Y74612D02*
X805000D01*
M02*
