G04*
G04 #@! TF.GenerationSoftware,Altium Limited,Altium Designer,19.0.10 (269)*
G04*
G04 Layer_Color=8421504*
%FSLAX44Y44*%
%MOMM*%
G71*
G01*
G75*
%ADD12C,0.2000*%
%ADD13C,0.2000*%
D12*
X50000Y0D02*
X1010000D01*
X1060000Y50000D01*
Y530000D01*
X1010000Y580000D02*
X1060000Y530000D01*
X50000Y580000D02*
X1010000D01*
X0Y50000D02*
Y530000D01*
Y50000D02*
X50000Y0D01*
X0Y530000D02*
X50000Y580000D01*
X720500Y-250D02*
X725500D01*
X800500D02*
X805750D01*
D13*
X922440Y60000D02*
D03*
X925610Y23730D02*
D03*
X979350Y70090D02*
D03*
X983410Y23670D02*
D03*
X993700Y92420D02*
D03*
X998800Y150000D02*
D03*
X1035200D02*
D03*
X1040300Y92420D02*
D03*
X1000000Y442440D02*
D03*
X1036270Y445610D02*
D03*
X989910Y499350D02*
D03*
X1036330Y503410D02*
D03*
X967580Y513700D02*
D03*
X910000Y518800D02*
D03*
Y555200D02*
D03*
X967580Y560300D02*
D03*
X617560Y520000D02*
D03*
X614390Y556270D02*
D03*
X560650Y509910D02*
D03*
X556590Y556330D02*
D03*
X546300Y487580D02*
D03*
X541200Y430000D02*
D03*
X504800D02*
D03*
X499700Y487580D02*
D03*
X442440Y60000D02*
D03*
X445610Y23730D02*
D03*
X499350Y70090D02*
D03*
X503410Y23670D02*
D03*
X513700Y92420D02*
D03*
X518800Y150000D02*
D03*
X555200D02*
D03*
X560300Y92420D02*
D03*
X137560Y520000D02*
D03*
X134390Y556270D02*
D03*
X80650Y509910D02*
D03*
X76590Y556330D02*
D03*
X66300Y487580D02*
D03*
X61200Y430000D02*
D03*
X24800D02*
D03*
X19700Y487580D02*
D03*
X60000Y137560D02*
D03*
X23730Y134390D02*
D03*
X70090Y80650D02*
D03*
X23670Y76590D02*
D03*
X92420Y66300D02*
D03*
X150000Y61200D02*
D03*
Y24800D02*
D03*
X92420Y19700D02*
D03*
M02*
