G04*
G04 #@! TF.GenerationSoftware,Altium Limited,Altium Designer,19.0.10 (269)*
G04*
G04 Layer_Color=65535*
%FSLAX44Y44*%
%MOMM*%
G71*
G01*
G75*
%ADD10C,0.0508*%
%ADD11C,0.1500*%
%ADD12C,0.2000*%
D10*
X612248Y402541D02*
Y403049D01*
Y317705D02*
Y318213D01*
Y308561D02*
Y309069D01*
Y248109D02*
Y249125D01*
X611740Y401017D02*
Y404573D01*
Y391873D02*
Y393905D01*
Y385777D02*
Y387301D01*
Y382729D02*
Y384253D01*
Y380189D02*
Y381713D01*
Y371553D02*
Y376125D01*
Y363933D02*
Y365457D01*
Y348185D02*
Y352757D01*
Y340057D02*
Y344121D01*
Y324817D02*
Y328881D01*
Y316181D02*
Y319229D01*
Y307037D02*
Y310593D01*
Y301449D02*
Y302973D01*
Y296877D02*
Y298401D01*
Y289257D02*
Y290781D01*
Y280113D02*
Y284685D01*
Y269953D02*
Y274017D01*
Y254713D02*
Y259285D01*
Y246585D02*
Y250649D01*
Y238965D02*
Y240489D01*
Y235409D02*
Y236933D01*
Y229313D02*
Y230837D01*
Y224741D02*
Y226265D01*
Y216613D02*
Y220169D01*
Y205945D02*
Y210517D01*
Y197817D02*
Y201881D01*
Y189181D02*
Y193245D01*
Y175465D02*
Y180037D01*
X611232Y401017D02*
Y405081D01*
Y391873D02*
Y393905D01*
Y385777D02*
Y387301D01*
Y382729D02*
Y384761D01*
Y380189D02*
Y381713D01*
Y371553D02*
Y376125D01*
Y363933D02*
Y365457D01*
Y348185D02*
Y352757D01*
Y340057D02*
Y344121D01*
Y324817D02*
Y328881D01*
Y315673D02*
Y320245D01*
Y307037D02*
Y311101D01*
Y301449D02*
Y302973D01*
Y296877D02*
Y298909D01*
Y289257D02*
Y290781D01*
Y280113D02*
Y284685D01*
Y269953D02*
Y274525D01*
Y254713D02*
Y259285D01*
Y246077D02*
Y250649D01*
Y238457D02*
Y240489D01*
Y235409D02*
Y236933D01*
Y229313D02*
Y230837D01*
Y224741D02*
Y226773D01*
Y215597D02*
Y220169D01*
Y205945D02*
Y210517D01*
Y197817D02*
Y201881D01*
Y189181D02*
Y193245D01*
Y175465D02*
Y180037D01*
X610724Y403557D02*
Y405081D01*
Y401017D02*
Y402033D01*
Y391873D02*
Y393905D01*
Y385777D02*
Y387301D01*
Y382729D02*
Y384761D01*
Y380189D02*
Y381713D01*
Y375109D02*
Y375617D01*
Y371553D02*
Y373077D01*
Y363933D02*
Y365457D01*
Y351741D02*
Y352249D01*
Y348185D02*
Y349709D01*
Y340057D02*
Y341581D01*
Y324817D02*
Y326341D01*
Y318213D02*
Y320245D01*
Y315673D02*
Y317197D01*
Y309577D02*
Y311609D01*
Y307037D02*
Y308561D01*
Y300941D02*
Y302973D01*
Y297385D02*
Y298909D01*
Y289257D02*
Y290781D01*
Y280113D02*
Y282145D01*
Y269953D02*
Y275033D01*
Y258269D02*
Y259285D01*
Y254713D02*
Y256237D01*
Y249633D02*
Y250141D01*
Y245569D02*
Y248109D01*
Y238457D02*
Y240489D01*
Y235409D02*
Y236933D01*
Y228805D02*
Y230837D01*
Y225249D02*
Y226773D01*
Y219153D02*
Y220169D01*
Y215089D02*
Y217629D01*
Y210009D02*
Y210517D01*
Y205945D02*
Y207977D01*
Y197817D02*
Y199341D01*
Y189181D02*
Y190705D01*
Y175465D02*
Y176989D01*
X610216Y404065D02*
Y405589D01*
Y391873D02*
Y393905D01*
Y385777D02*
Y387301D01*
Y382221D02*
Y385269D01*
Y380189D02*
Y381713D01*
Y371553D02*
Y373077D01*
Y363933D02*
Y365457D01*
Y348185D02*
Y349709D01*
Y340057D02*
Y341581D01*
Y324817D02*
Y326341D01*
Y318721D02*
Y320245D01*
Y310085D02*
Y311609D01*
Y297385D02*
Y302465D01*
Y289257D02*
Y290781D01*
Y280113D02*
Y282145D01*
Y273509D02*
Y275541D01*
Y269953D02*
Y271985D01*
Y254713D02*
Y256237D01*
Y245569D02*
Y247093D01*
Y237949D02*
Y240489D01*
Y235409D02*
Y236933D01*
Y225249D02*
Y230329D01*
Y219153D02*
Y220169D01*
Y215089D02*
Y216613D01*
Y205945D02*
Y207977D01*
Y197817D02*
Y199341D01*
Y189181D02*
Y190705D01*
Y175465D02*
Y176989D01*
X609708Y403557D02*
Y405589D01*
Y391873D02*
Y393397D01*
Y385777D02*
Y387301D01*
Y382221D02*
Y385269D01*
Y380189D02*
Y381713D01*
Y371553D02*
Y373077D01*
Y363933D02*
Y365457D01*
Y348185D02*
Y349709D01*
Y340057D02*
Y341581D01*
Y324817D02*
Y326341D01*
Y318721D02*
Y320245D01*
Y309577D02*
Y311609D01*
Y297385D02*
Y302465D01*
Y289257D02*
Y290781D01*
Y280113D02*
Y282145D01*
Y274017D02*
Y275541D01*
Y269953D02*
Y271985D01*
Y254713D02*
Y256237D01*
Y245061D02*
Y247093D01*
Y237949D02*
Y240489D01*
Y235409D02*
Y236933D01*
Y225249D02*
Y230329D01*
Y219153D02*
Y220169D01*
Y215089D02*
Y216613D01*
Y205945D02*
Y207977D01*
Y197817D02*
Y199341D01*
Y189181D02*
Y190705D01*
Y175465D02*
Y176989D01*
X609200Y403049D02*
Y405081D01*
Y391873D02*
Y395429D01*
Y385777D02*
Y387301D01*
Y382221D02*
Y385269D01*
Y380189D02*
Y381713D01*
Y371553D02*
Y375617D01*
Y363933D02*
Y365457D01*
Y348185D02*
Y352249D01*
Y340057D02*
Y341581D01*
Y324817D02*
Y328881D01*
Y317705D02*
Y320245D01*
Y309069D02*
Y311101D01*
Y297893D02*
Y301957D01*
Y289257D02*
Y292813D01*
Y280113D02*
Y284177D01*
Y274017D02*
Y275541D01*
Y269953D02*
Y271985D01*
Y254713D02*
Y258777D01*
Y245061D02*
Y246585D01*
Y237441D02*
Y240489D01*
Y235409D02*
Y236933D01*
Y225757D02*
Y229821D01*
Y218137D02*
Y220169D01*
Y215089D02*
Y216613D01*
Y205945D02*
Y210517D01*
Y197817D02*
Y199341D01*
Y189181D02*
Y192737D01*
Y175465D02*
Y176989D01*
X608692Y401525D02*
Y405081D01*
Y391873D02*
Y395937D01*
Y385777D02*
Y387301D01*
Y383745D02*
Y385269D01*
Y380189D02*
Y383237D01*
Y371553D02*
Y375617D01*
Y363933D02*
Y365457D01*
Y348185D02*
Y352249D01*
Y340057D02*
Y341581D01*
Y324817D02*
Y328881D01*
Y316689D02*
Y319737D01*
Y308053D02*
Y311101D01*
Y297893D02*
Y301957D01*
Y289257D02*
Y293321D01*
Y280113D02*
Y284685D01*
Y274017D02*
Y276049D01*
Y269953D02*
Y271985D01*
Y254713D02*
Y259285D01*
Y245061D02*
Y246585D01*
Y235409D02*
Y240489D01*
Y227789D02*
Y229821D01*
Y225757D02*
Y227281D01*
Y218137D02*
Y220169D01*
Y215089D02*
Y216613D01*
Y205945D02*
Y210517D01*
Y197817D02*
Y199341D01*
Y189181D02*
Y192737D01*
Y175465D02*
Y176989D01*
X608184Y401525D02*
Y404573D01*
Y391873D02*
Y396445D01*
Y384253D02*
Y387301D01*
Y380189D02*
Y383237D01*
Y371553D02*
Y375617D01*
Y363933D02*
Y365457D01*
Y348185D02*
Y352249D01*
Y340057D02*
Y341581D01*
Y324817D02*
Y328881D01*
Y316181D02*
Y319229D01*
Y307545D02*
Y310593D01*
Y297893D02*
Y301957D01*
Y289257D02*
Y293321D01*
Y280113D02*
Y284685D01*
Y274017D02*
Y276049D01*
Y269953D02*
Y271985D01*
Y254713D02*
Y259285D01*
Y245061D02*
Y246585D01*
Y238965D02*
Y240489D01*
Y235409D02*
Y238457D01*
Y225757D02*
Y229821D01*
Y218137D02*
Y220169D01*
Y215089D02*
Y216613D01*
Y205945D02*
Y210517D01*
Y197817D02*
Y199341D01*
Y189181D02*
Y192737D01*
Y175465D02*
Y176989D01*
X607676Y401017D02*
Y403049D01*
Y394921D02*
Y396445D01*
Y391873D02*
Y393905D01*
Y384253D02*
Y387301D01*
Y380189D02*
Y383237D01*
Y373585D02*
Y375109D01*
Y371553D02*
Y373077D01*
Y363933D02*
Y365457D01*
Y350217D02*
Y351741D01*
Y348185D02*
Y349709D01*
Y340057D02*
Y341581D01*
Y324817D02*
Y328373D01*
Y316181D02*
Y318213D01*
Y307545D02*
Y309577D01*
Y298401D02*
Y301449D01*
Y291797D02*
Y293321D01*
Y289257D02*
Y290781D01*
Y280113D02*
Y283669D01*
Y274017D02*
Y275541D01*
Y269953D02*
Y271985D01*
Y256745D02*
Y258777D01*
Y254713D02*
Y256237D01*
Y245061D02*
Y247093D01*
Y238965D02*
Y240489D01*
Y235409D02*
Y237949D01*
Y226265D02*
Y229313D01*
Y215089D02*
Y216613D01*
Y205945D02*
Y210009D01*
Y197817D02*
Y199341D01*
Y189181D02*
Y192229D01*
Y183085D02*
Y184101D01*
Y175465D02*
Y176989D01*
X607168Y401017D02*
Y402541D01*
Y394921D02*
Y396445D01*
Y391873D02*
Y393905D01*
Y384253D02*
Y387301D01*
Y380189D02*
Y382729D01*
Y371553D02*
Y373077D01*
Y363933D02*
Y365457D01*
Y348185D02*
Y349709D01*
Y340057D02*
Y341581D01*
Y324817D02*
Y326341D01*
Y316181D02*
Y317705D01*
Y307037D02*
Y308561D01*
Y298401D02*
Y301449D01*
Y291797D02*
Y293321D01*
Y289257D02*
Y290781D01*
Y280113D02*
Y282145D01*
Y273509D02*
Y275541D01*
Y269953D02*
Y271985D01*
Y254713D02*
Y256237D01*
Y245569D02*
Y247093D01*
Y238965D02*
Y240489D01*
Y235409D02*
Y237949D01*
Y226265D02*
Y229313D01*
Y215089D02*
Y217121D01*
Y205945D02*
Y207977D01*
Y197817D02*
Y199341D01*
Y189181D02*
Y190705D01*
Y183085D02*
Y184609D01*
Y175465D02*
Y176989D01*
X606660Y401017D02*
Y404573D01*
Y391873D02*
Y396445D01*
Y384761D02*
Y387301D01*
Y380697D02*
Y382729D01*
Y371553D02*
Y375617D01*
Y362409D02*
Y366981D01*
Y348185D02*
Y352249D01*
Y340057D02*
Y341581D01*
Y324817D02*
Y328881D01*
Y316181D02*
Y319737D01*
Y307545D02*
Y311101D01*
Y298909D02*
Y301449D01*
Y289257D02*
Y293321D01*
Y280113D02*
Y284177D01*
Y269953D02*
Y275033D01*
Y254713D02*
Y258777D01*
Y245569D02*
Y250141D01*
Y238965D02*
Y240489D01*
Y235409D02*
Y237441D01*
Y226773D02*
Y228805D01*
Y215597D02*
Y220169D01*
Y205945D02*
Y210009D01*
Y197817D02*
Y199341D01*
Y189181D02*
Y192737D01*
Y183085D02*
Y184609D01*
Y175465D02*
Y176989D01*
X606152Y401017D02*
Y405081D01*
Y391873D02*
Y395937D01*
Y384761D02*
Y386793D01*
Y380697D02*
Y382221D01*
Y371553D02*
Y376125D01*
Y361901D02*
Y367489D01*
Y348185D02*
Y352249D01*
Y340057D02*
Y341581D01*
Y324817D02*
Y328881D01*
Y316181D02*
Y320245D01*
Y307545D02*
Y311101D01*
Y298909D02*
Y300941D01*
Y289257D02*
Y293321D01*
Y280113D02*
Y284685D01*
Y269953D02*
Y274525D01*
Y254713D02*
Y259285D01*
Y246077D02*
Y250649D01*
Y238965D02*
Y240489D01*
Y235409D02*
Y237441D01*
Y226773D02*
Y228805D01*
Y216105D02*
Y220169D01*
Y205945D02*
Y210517D01*
Y197817D02*
Y199341D01*
Y189181D02*
Y193245D01*
Y183085D02*
Y184609D01*
Y175465D02*
Y176989D01*
X605644Y401525D02*
Y405081D01*
Y391873D02*
Y395429D01*
Y385269D02*
Y386793D01*
Y380697D02*
Y382221D01*
Y371553D02*
Y376125D01*
Y361901D02*
Y367489D01*
Y348185D02*
Y352249D01*
Y340057D02*
Y341581D01*
Y324817D02*
Y328881D01*
Y316689D02*
Y320245D01*
Y308053D02*
Y311101D01*
Y298909D02*
Y300941D01*
Y289257D02*
Y292813D01*
Y280113D02*
Y284685D01*
Y269953D02*
Y274017D01*
Y255221D02*
Y259285D01*
Y247093D02*
Y250649D01*
Y238965D02*
Y240489D01*
Y235409D02*
Y236933D01*
Y226773D02*
Y228805D01*
Y216613D02*
Y220169D01*
Y206453D02*
Y210517D01*
Y197817D02*
Y199341D01*
Y189181D02*
Y193245D01*
Y183085D02*
Y184609D01*
Y175465D02*
Y176989D01*
X605136Y403049D02*
Y403557D01*
Y317705D02*
Y318721D01*
Y309069D02*
Y310085D01*
Y281637D02*
Y283161D01*
Y248617D02*
Y249125D01*
Y207977D02*
Y209501D01*
Y190197D02*
Y191721D01*
X604628Y282145D02*
Y283669D01*
Y207977D02*
Y209501D01*
Y190705D02*
Y192229D01*
X604120Y282145D02*
Y283669D01*
Y207977D02*
Y210009D01*
Y191213D02*
Y192229D01*
X598024Y404573D02*
Y405589D01*
Y380697D02*
Y381713D01*
Y366981D02*
Y367997D01*
Y193753D02*
Y194769D01*
Y175465D02*
Y176481D01*
X597516Y401525D02*
Y405589D01*
Y380697D02*
Y384761D01*
Y366981D02*
Y370537D01*
Y343105D02*
Y350217D01*
Y312625D02*
Y319737D01*
Y292813D02*
Y293321D01*
Y237949D02*
Y241505D01*
Y214581D02*
Y218137D01*
Y191213D02*
Y194769D01*
Y175465D02*
Y179021D01*
X597008Y401017D02*
Y405081D01*
Y380697D02*
Y384761D01*
Y366981D02*
Y370537D01*
Y342089D02*
Y350725D01*
Y311609D02*
Y321261D01*
Y291797D02*
Y293321D01*
Y237949D02*
Y241505D01*
Y214581D02*
Y218137D01*
Y191213D02*
Y194769D01*
Y175465D02*
Y179021D01*
X596500Y401017D02*
Y405081D01*
Y380697D02*
Y384761D01*
Y366981D02*
Y370537D01*
Y341073D02*
Y352249D01*
Y310085D02*
Y322277D01*
Y291289D02*
Y293321D01*
Y270969D02*
Y271985D01*
Y237949D02*
Y241505D01*
Y214581D02*
Y218137D01*
Y191213D02*
Y194769D01*
Y175465D02*
Y179021D01*
X595992Y400509D02*
Y404573D01*
Y381205D02*
Y385269D01*
Y366981D02*
Y370537D01*
Y340565D02*
Y352757D01*
Y309577D02*
Y322785D01*
Y290781D02*
Y293321D01*
Y270969D02*
Y272493D01*
Y237949D02*
Y241505D01*
Y214581D02*
Y218137D01*
Y191213D02*
Y194769D01*
Y175465D02*
Y179021D01*
X595484Y400509D02*
Y404573D01*
Y381205D02*
Y385269D01*
Y366981D02*
Y370537D01*
Y339549D02*
Y353265D01*
Y308561D02*
Y323801D01*
Y290273D02*
Y293321D01*
Y270969D02*
Y272493D01*
Y237949D02*
Y241505D01*
Y214581D02*
Y218137D01*
Y191213D02*
Y194769D01*
Y175465D02*
Y179021D01*
X594976Y400001D02*
Y404573D01*
Y381713D02*
Y385777D01*
Y366981D02*
Y370537D01*
Y347677D02*
Y353773D01*
Y339041D02*
Y345645D01*
Y308053D02*
Y324309D01*
Y289765D02*
Y293321D01*
Y270969D02*
Y273001D01*
Y237949D02*
Y241505D01*
Y214581D02*
Y218137D01*
Y191213D02*
Y194769D01*
Y175465D02*
Y179021D01*
X594468Y400001D02*
Y404065D01*
Y381713D02*
Y385777D01*
Y366981D02*
Y370537D01*
Y349709D02*
Y354281D01*
Y338533D02*
Y344121D01*
Y307545D02*
Y324817D01*
Y289257D02*
Y293321D01*
Y270969D02*
Y273001D01*
Y237949D02*
Y241505D01*
Y214581D02*
Y218137D01*
Y191213D02*
Y194769D01*
Y175465D02*
Y179021D01*
X593960Y400001D02*
Y404065D01*
Y382221D02*
Y386285D01*
Y366981D02*
Y370537D01*
Y350725D02*
Y354281D01*
Y338533D02*
Y343105D01*
Y319737D02*
Y325325D01*
Y307037D02*
Y313133D01*
Y289257D02*
Y293321D01*
Y270969D02*
Y273509D01*
Y237949D02*
Y241505D01*
Y214581D02*
Y218137D01*
Y191213D02*
Y194769D01*
Y175465D02*
Y179021D01*
X593452Y399493D02*
Y403557D01*
Y382221D02*
Y386285D01*
Y366981D02*
Y370537D01*
Y351233D02*
Y354789D01*
Y338533D02*
Y342089D01*
Y320753D02*
Y325833D01*
Y306529D02*
Y312117D01*
Y288749D02*
Y293321D01*
Y270969D02*
Y274017D01*
Y237949D02*
Y241505D01*
Y214581D02*
Y218137D01*
Y191213D02*
Y194769D01*
Y175465D02*
Y179021D01*
X592944Y399493D02*
Y403557D01*
Y382729D02*
Y386285D01*
Y366981D02*
Y370537D01*
Y351741D02*
Y354789D01*
Y338533D02*
Y341581D01*
Y321261D02*
Y326341D01*
Y306021D02*
Y311101D01*
Y288241D02*
Y293321D01*
Y270969D02*
Y274017D01*
Y237949D02*
Y241505D01*
Y214581D02*
Y218137D01*
Y191213D02*
Y194769D01*
Y175465D02*
Y179021D01*
X592436Y398985D02*
Y403049D01*
Y382729D02*
Y386793D01*
Y366981D02*
Y370537D01*
Y351741D02*
Y355297D01*
Y339041D02*
Y340565D01*
Y322277D02*
Y326849D01*
Y305513D02*
Y310085D01*
Y287733D02*
Y293321D01*
Y270969D02*
Y274525D01*
Y237949D02*
Y241505D01*
Y214581D02*
Y218137D01*
Y191213D02*
Y194769D01*
Y175465D02*
Y179021D01*
X591928Y398985D02*
Y403049D01*
Y383237D02*
Y387301D01*
Y366981D02*
Y370537D01*
Y352249D02*
Y355297D01*
Y322785D02*
Y327357D01*
Y305513D02*
Y309577D01*
Y287225D02*
Y293321D01*
Y270969D02*
Y274525D01*
Y237949D02*
Y241505D01*
Y214581D02*
Y218137D01*
Y191213D02*
Y194769D01*
Y175465D02*
Y179021D01*
X591420Y398477D02*
Y402541D01*
Y383237D02*
Y387301D01*
Y366981D02*
Y370537D01*
Y352249D02*
Y355297D01*
Y323293D02*
Y327357D01*
Y305005D02*
Y309069D01*
Y286717D02*
Y293321D01*
Y270969D02*
Y274525D01*
Y237949D02*
Y241505D01*
Y214581D02*
Y218137D01*
Y191213D02*
Y194769D01*
Y175465D02*
Y179021D01*
X590912Y398477D02*
Y402541D01*
Y383237D02*
Y387301D01*
Y366981D02*
Y370537D01*
Y352249D02*
Y355297D01*
Y323801D02*
Y327865D01*
Y304497D02*
Y308561D01*
Y286209D02*
Y293321D01*
Y270969D02*
Y274525D01*
Y237949D02*
Y241505D01*
Y214581D02*
Y218137D01*
Y191213D02*
Y194769D01*
Y175465D02*
Y179021D01*
X590404Y397969D02*
Y402033D01*
Y383745D02*
Y387809D01*
Y366981D02*
Y370537D01*
Y352249D02*
Y355297D01*
Y324309D02*
Y327865D01*
Y304497D02*
Y308561D01*
Y285701D02*
Y293321D01*
Y270969D02*
Y274525D01*
Y237949D02*
Y241505D01*
Y214581D02*
Y218137D01*
Y191213D02*
Y194769D01*
Y175465D02*
Y179021D01*
X589896Y397969D02*
Y402033D01*
Y384253D02*
Y387809D01*
Y366981D02*
Y370537D01*
Y352249D02*
Y355297D01*
Y324309D02*
Y328373D01*
Y303989D02*
Y308053D01*
Y289765D02*
Y293321D01*
Y285193D02*
Y289257D01*
Y270969D02*
Y274525D01*
Y237949D02*
Y241505D01*
Y214581D02*
Y218137D01*
Y191213D02*
Y194769D01*
Y175465D02*
Y179021D01*
X589388Y397969D02*
Y402033D01*
Y384253D02*
Y388317D01*
Y366981D02*
Y370537D01*
Y352249D02*
Y355297D01*
Y324817D02*
Y328373D01*
Y303989D02*
Y308053D01*
Y289765D02*
Y293321D01*
Y284685D02*
Y289257D01*
Y270969D02*
Y274525D01*
Y237949D02*
Y241505D01*
Y214581D02*
Y218137D01*
Y191213D02*
Y194769D01*
Y175465D02*
Y179021D01*
X588880Y397461D02*
Y401525D01*
Y384253D02*
Y388317D01*
Y366981D02*
Y370537D01*
Y352249D02*
Y355297D01*
Y324817D02*
Y328881D01*
Y303989D02*
Y307545D01*
Y289765D02*
Y293321D01*
Y284177D02*
Y288749D01*
Y270969D02*
Y274525D01*
Y237949D02*
Y241505D01*
Y214581D02*
Y218137D01*
Y191213D02*
Y194769D01*
Y175465D02*
Y179021D01*
X588372Y397461D02*
Y401017D01*
Y384761D02*
Y388825D01*
Y366981D02*
Y370537D01*
Y351741D02*
Y355297D01*
Y325325D02*
Y328881D01*
Y303481D02*
Y307545D01*
Y289765D02*
Y293321D01*
Y283669D02*
Y288241D01*
Y270969D02*
Y274525D01*
Y237949D02*
Y241505D01*
Y214581D02*
Y218137D01*
Y191213D02*
Y194769D01*
Y175465D02*
Y179021D01*
X587864Y396953D02*
Y401017D01*
Y385269D02*
Y388825D01*
Y366981D02*
Y370537D01*
Y350725D02*
Y354789D01*
Y325325D02*
Y328881D01*
Y303481D02*
Y307037D01*
Y289765D02*
Y293321D01*
Y282653D02*
Y287733D01*
Y270969D02*
Y274525D01*
Y237949D02*
Y241505D01*
Y214581D02*
Y218137D01*
Y191213D02*
Y194769D01*
Y175465D02*
Y179021D01*
X587356Y396953D02*
Y400509D01*
Y385269D02*
Y389333D01*
Y366981D02*
Y370537D01*
Y350217D02*
Y354789D01*
Y325325D02*
Y329389D01*
Y303481D02*
Y307037D01*
Y289765D02*
Y293321D01*
Y282653D02*
Y287225D01*
Y270969D02*
Y274525D01*
Y237949D02*
Y241505D01*
Y214581D02*
Y218137D01*
Y191213D02*
Y194769D01*
Y175465D02*
Y179021D01*
X586848Y396445D02*
Y400509D01*
Y385777D02*
Y389333D01*
Y366981D02*
Y370537D01*
Y348693D02*
Y354281D01*
Y325833D02*
Y329389D01*
Y302973D02*
Y307037D01*
Y289765D02*
Y293321D01*
Y282145D02*
Y286717D01*
Y270969D02*
Y274525D01*
Y237949D02*
Y241505D01*
Y214581D02*
Y218137D01*
Y191213D02*
Y194769D01*
Y175465D02*
Y179021D01*
X586340Y396445D02*
Y400509D01*
Y385777D02*
Y389841D01*
Y366981D02*
Y370537D01*
Y347677D02*
Y353773D01*
Y325833D02*
Y329389D01*
Y302973D02*
Y307037D01*
Y289765D02*
Y293321D01*
Y281637D02*
Y286209D01*
Y270969D02*
Y274525D01*
Y237949D02*
Y241505D01*
Y214581D02*
Y218137D01*
Y191213D02*
Y194769D01*
Y175465D02*
Y179021D01*
X585832Y395937D02*
Y400001D01*
Y386285D02*
Y389841D01*
Y366981D02*
Y370537D01*
Y345645D02*
Y353265D01*
Y325833D02*
Y329389D01*
Y302973D02*
Y307037D01*
Y289765D02*
Y293321D01*
Y281129D02*
Y285701D01*
Y270969D02*
Y274525D01*
Y237949D02*
Y252681D01*
Y214073D02*
Y218645D01*
Y191213D02*
Y194769D01*
Y175465D02*
Y179021D01*
X585324Y395937D02*
Y400001D01*
Y386285D02*
Y390349D01*
Y366981D02*
Y370537D01*
Y344629D02*
Y352757D01*
Y325833D02*
Y329389D01*
Y302973D02*
Y307037D01*
Y289765D02*
Y293321D01*
Y280621D02*
Y285193D01*
Y270969D02*
Y274525D01*
Y237949D02*
Y254205D01*
Y214073D02*
Y219153D01*
Y191213D02*
Y194769D01*
Y175465D02*
Y179021D01*
X584816Y395937D02*
Y399493D01*
Y386285D02*
Y390349D01*
Y366981D02*
Y370537D01*
Y343105D02*
Y351741D01*
Y325833D02*
Y329389D01*
Y302973D02*
Y306529D01*
Y289765D02*
Y293321D01*
Y280113D02*
Y284685D01*
Y270969D02*
Y274525D01*
Y237949D02*
Y255221D01*
Y213565D02*
Y219153D01*
Y175465D02*
Y194769D01*
X584308Y395429D02*
Y399493D01*
Y386793D02*
Y390857D01*
Y366981D02*
Y370537D01*
Y342597D02*
Y351233D01*
Y325833D02*
Y329389D01*
Y302973D02*
Y306529D01*
Y289765D02*
Y293321D01*
Y279605D02*
Y284177D01*
Y270969D02*
Y274525D01*
Y237949D02*
Y256237D01*
Y213565D02*
Y219661D01*
Y175465D02*
Y194769D01*
X583800Y395429D02*
Y398985D01*
Y386793D02*
Y390857D01*
Y366981D02*
Y370537D01*
Y341581D02*
Y349709D01*
Y325833D02*
Y329389D01*
Y302973D02*
Y307037D01*
Y289765D02*
Y293321D01*
Y279097D02*
Y283669D01*
Y270969D02*
Y274525D01*
Y237949D02*
Y256745D01*
Y213057D02*
Y220169D01*
Y175465D02*
Y194769D01*
X583292Y395429D02*
Y398985D01*
Y387301D02*
Y391365D01*
Y366981D02*
Y370537D01*
Y341073D02*
Y348185D01*
Y325833D02*
Y329389D01*
Y302973D02*
Y307037D01*
Y289765D02*
Y293321D01*
Y278589D02*
Y283161D01*
Y270969D02*
Y274525D01*
Y237949D02*
Y257253D01*
Y212549D02*
Y220169D01*
Y175465D02*
Y194769D01*
X582784Y394921D02*
Y398477D01*
Y387301D02*
Y391365D01*
Y366981D02*
Y370537D01*
Y340565D02*
Y346661D01*
Y325833D02*
Y329389D01*
Y302973D02*
Y307037D01*
Y289765D02*
Y293321D01*
Y278081D02*
Y282653D01*
Y270969D02*
Y274525D01*
Y237949D02*
Y257761D01*
Y212549D02*
Y220677D01*
Y175465D02*
Y194769D01*
X582276Y394921D02*
Y398477D01*
Y387809D02*
Y391365D01*
Y366981D02*
Y370537D01*
Y340057D02*
Y345137D01*
Y325833D02*
Y329389D01*
Y303481D02*
Y307037D01*
Y289765D02*
Y293321D01*
Y277573D02*
Y282145D01*
Y270969D02*
Y274525D01*
Y237949D02*
Y258269D01*
Y216613D02*
Y220677D01*
Y212041D02*
Y216105D01*
Y175465D02*
Y194769D01*
X581768Y394413D02*
Y397969D01*
Y387809D02*
Y391873D01*
Y366981D02*
Y370537D01*
Y340057D02*
Y344121D01*
Y325833D02*
Y329389D01*
Y303481D02*
Y307037D01*
Y289765D02*
Y293321D01*
Y277065D02*
Y281637D01*
Y270969D02*
Y274525D01*
Y253697D02*
Y258269D01*
Y217121D02*
Y221185D01*
Y211533D02*
Y216105D01*
Y191213D02*
Y194769D01*
X581260Y394413D02*
Y397969D01*
Y388317D02*
Y391873D01*
Y366981D02*
Y370537D01*
Y339549D02*
Y343105D01*
Y325325D02*
Y328881D01*
Y303481D02*
Y307037D01*
Y289765D02*
Y292813D01*
Y276557D02*
Y281129D01*
Y270969D02*
Y274525D01*
Y254713D02*
Y258269D01*
Y217629D02*
Y221185D01*
Y211533D02*
Y215597D01*
Y191213D02*
Y194769D01*
X580752Y393905D02*
Y397969D01*
Y388317D02*
Y392381D01*
Y366981D02*
Y370537D01*
Y339549D02*
Y342597D01*
Y325325D02*
Y328881D01*
Y303481D02*
Y307037D01*
Y289765D02*
Y292813D01*
Y276557D02*
Y280621D01*
Y270969D02*
Y274525D01*
Y255221D02*
Y258777D01*
Y217629D02*
Y221693D01*
Y211025D02*
Y215597D01*
Y191213D02*
Y194769D01*
X580244Y393905D02*
Y397461D01*
Y388825D02*
Y392381D01*
Y366981D02*
Y370537D01*
Y339549D02*
Y342597D01*
Y324817D02*
Y328881D01*
Y303989D02*
Y307545D01*
Y289765D02*
Y292813D01*
Y276049D02*
Y280113D01*
Y270969D02*
Y274525D01*
Y255729D02*
Y258777D01*
Y218137D02*
Y222201D01*
Y211025D02*
Y215089D01*
Y191213D02*
Y194769D01*
X579736Y393905D02*
Y397461D01*
Y388825D02*
Y392889D01*
Y366981D02*
Y370537D01*
Y339549D02*
Y342597D01*
Y324817D02*
Y328373D01*
Y303989D02*
Y307545D01*
Y289765D02*
Y292813D01*
Y275541D02*
Y279605D01*
Y270969D02*
Y274525D01*
Y255729D02*
Y258777D01*
Y218645D02*
Y222201D01*
Y210517D02*
Y214581D01*
Y191213D02*
Y194769D01*
Y175465D02*
Y179021D01*
X579228Y393397D02*
Y396953D01*
Y389333D02*
Y392889D01*
Y366981D02*
Y370537D01*
Y339549D02*
Y342597D01*
Y324817D02*
Y328373D01*
Y303989D02*
Y308053D01*
Y289765D02*
Y292813D01*
Y275033D02*
Y279097D01*
Y270969D02*
Y274525D01*
Y255729D02*
Y259285D01*
Y218645D02*
Y222709D01*
Y210009D02*
Y214581D01*
Y191213D02*
Y194769D01*
Y175465D02*
Y179021D01*
X578720Y393397D02*
Y396953D01*
Y389333D02*
Y392889D01*
Y366981D02*
Y370537D01*
Y339549D02*
Y342597D01*
Y324309D02*
Y327865D01*
Y304497D02*
Y308053D01*
Y289765D02*
Y292813D01*
Y270969D02*
Y278589D01*
Y255729D02*
Y259285D01*
Y219153D02*
Y223217D01*
Y210009D02*
Y214073D01*
Y191213D02*
Y194769D01*
Y175465D02*
Y179021D01*
X578212Y389333D02*
Y396445D01*
Y366981D02*
Y370537D01*
Y339549D02*
Y342597D01*
Y323801D02*
Y327865D01*
Y304497D02*
Y308561D01*
Y289765D02*
Y292813D01*
Y270969D02*
Y278081D01*
Y255729D02*
Y259285D01*
Y219661D02*
Y223217D01*
Y209501D02*
Y214073D01*
Y191213D02*
Y194769D01*
Y175465D02*
Y179021D01*
X577704Y389841D02*
Y396445D01*
Y366981D02*
Y370537D01*
Y339549D02*
Y342597D01*
Y323293D02*
Y327865D01*
Y305005D02*
Y309069D01*
Y289765D02*
Y292813D01*
Y270969D02*
Y278081D01*
Y255729D02*
Y259285D01*
Y219661D02*
Y223725D01*
Y209501D02*
Y213565D01*
Y191213D02*
Y194769D01*
Y175465D02*
Y179021D01*
X577196Y389841D02*
Y395937D01*
Y366981D02*
Y370537D01*
Y339549D02*
Y342597D01*
Y322785D02*
Y327357D01*
Y305005D02*
Y309577D01*
Y289765D02*
Y292813D01*
Y270969D02*
Y277065D01*
Y255729D02*
Y258777D01*
Y220169D02*
Y223725D01*
Y208993D02*
Y213057D01*
Y191213D02*
Y194769D01*
Y175465D02*
Y179021D01*
X576688Y390349D02*
Y395937D01*
Y366981D02*
Y370537D01*
Y339549D02*
Y342597D01*
Y322277D02*
Y326849D01*
Y305513D02*
Y310085D01*
Y289765D02*
Y292813D01*
Y270969D02*
Y277065D01*
Y255729D02*
Y258777D01*
Y220169D02*
Y224233D01*
Y208485D02*
Y213057D01*
Y191213D02*
Y194769D01*
Y175465D02*
Y179021D01*
X576180Y390349D02*
Y395937D01*
Y366981D02*
Y370537D01*
Y352757D02*
Y354281D01*
Y339549D02*
Y342597D01*
Y321769D02*
Y326341D01*
Y306021D02*
Y310593D01*
Y289765D02*
Y292813D01*
Y270969D02*
Y276557D01*
Y255221D02*
Y258777D01*
Y220677D02*
Y224741D01*
Y208485D02*
Y212549D01*
Y191213D02*
Y194769D01*
Y175465D02*
Y179021D01*
X575672Y390857D02*
Y395429D01*
Y366981D02*
Y370537D01*
Y351741D02*
Y354789D01*
Y339549D02*
Y343105D01*
Y320753D02*
Y326341D01*
Y306529D02*
Y311609D01*
Y289765D02*
Y292813D01*
Y270969D02*
Y276049D01*
Y255221D02*
Y258777D01*
Y220677D02*
Y224741D01*
Y207977D02*
Y212041D01*
Y191213D02*
Y194769D01*
Y175465D02*
Y179021D01*
X575164Y390857D02*
Y395429D01*
Y366981D02*
Y370537D01*
Y351233D02*
Y355297D01*
Y340057D02*
Y343613D01*
Y319737D02*
Y325833D01*
Y307037D02*
Y312625D01*
Y289765D02*
Y292813D01*
Y270969D02*
Y275541D01*
Y254205D02*
Y258269D01*
Y221185D02*
Y225249D01*
Y207977D02*
Y212041D01*
Y191213D02*
Y194769D01*
Y175465D02*
Y179021D01*
X574656Y391365D02*
Y395429D01*
Y366981D02*
Y370537D01*
Y350217D02*
Y355297D01*
Y340057D02*
Y344121D01*
Y318721D02*
Y325325D01*
Y307037D02*
Y314149D01*
Y289765D02*
Y292813D01*
Y270969D02*
Y275033D01*
Y253697D02*
Y258269D01*
Y221693D02*
Y225757D01*
Y207469D02*
Y211533D01*
Y191213D02*
Y194769D01*
Y175465D02*
Y179021D01*
X574148Y391365D02*
Y394921D01*
Y366981D02*
Y370537D01*
Y347169D02*
Y355297D01*
Y340565D02*
Y346661D01*
Y308053D02*
Y324817D01*
Y290273D02*
Y292813D01*
Y270969D02*
Y274525D01*
Y237949D02*
Y257761D01*
Y221693D02*
Y225757D01*
Y206961D02*
Y211533D01*
Y191213D02*
Y194769D01*
Y175465D02*
Y179021D01*
X573640Y391873D02*
Y394921D01*
Y366981D02*
Y370537D01*
Y341073D02*
Y354281D01*
Y308561D02*
Y323801D01*
Y290273D02*
Y292813D01*
Y270969D02*
Y274017D01*
Y237949D02*
Y257253D01*
Y222201D02*
Y226265D01*
Y206961D02*
Y211025D01*
Y191213D02*
Y194769D01*
Y175465D02*
Y179021D01*
X573132Y391873D02*
Y394413D01*
Y366981D02*
Y370537D01*
Y341581D02*
Y353773D01*
Y309069D02*
Y323293D01*
Y290781D02*
Y292813D01*
Y270969D02*
Y273509D01*
Y237949D02*
Y256745D01*
Y222201D02*
Y226773D01*
Y206453D02*
Y210517D01*
Y191213D02*
Y194769D01*
Y175465D02*
Y179021D01*
X572624Y391873D02*
Y394413D01*
Y366981D02*
Y370537D01*
Y342089D02*
Y352757D01*
Y310085D02*
Y322277D01*
Y291289D02*
Y292813D01*
Y270969D02*
Y273001D01*
Y237949D02*
Y256237D01*
Y222709D02*
Y226773D01*
Y205945D02*
Y210517D01*
Y191213D02*
Y194769D01*
Y175465D02*
Y179021D01*
X572116Y392381D02*
Y393905D01*
Y366981D02*
Y370537D01*
Y342597D02*
Y352249D01*
Y311101D02*
Y321769D01*
Y291797D02*
Y292813D01*
Y270969D02*
Y272493D01*
Y237949D02*
Y255729D01*
Y223217D02*
Y227281D01*
Y205945D02*
Y210009D01*
Y191213D02*
Y194769D01*
Y175465D02*
Y179021D01*
X571608Y392381D02*
Y393905D01*
Y366981D02*
Y370537D01*
Y343613D02*
Y350725D01*
Y312117D02*
Y320245D01*
Y292305D02*
Y292813D01*
Y270969D02*
Y271985D01*
Y238457D02*
Y254713D01*
Y223217D02*
Y227281D01*
Y205945D02*
Y209501D01*
Y191213D02*
Y194769D01*
Y175465D02*
Y179021D01*
X571100Y366981D02*
Y370537D01*
Y345137D02*
Y349201D01*
Y314149D02*
Y318213D01*
Y238457D02*
Y253189D01*
Y224233D02*
Y227281D01*
Y206453D02*
Y209501D01*
Y191213D02*
Y194769D01*
Y175973D02*
Y178513D01*
X549764Y306529D02*
Y318721D01*
Y262333D02*
Y274525D01*
X549256Y303989D02*
Y321261D01*
Y259793D02*
Y277065D01*
X548748Y301449D02*
Y323801D01*
Y257253D02*
Y279605D01*
X548240Y299417D02*
Y325325D01*
Y255729D02*
Y281129D01*
X547732Y297893D02*
Y326849D01*
Y254205D02*
Y282653D01*
X547224Y296877D02*
Y328373D01*
Y252681D02*
Y284177D01*
X546716Y319229D02*
Y329897D01*
Y311101D02*
Y313133D01*
Y295353D02*
Y306021D01*
Y275033D02*
Y285701D01*
Y267921D02*
Y269445D01*
Y251157D02*
Y261825D01*
X546208Y321769D02*
Y330913D01*
Y311101D02*
Y313133D01*
Y294337D02*
Y302973D01*
Y277573D02*
Y286717D01*
Y267413D02*
Y269953D01*
Y250141D02*
Y259285D01*
X545700Y323801D02*
Y331929D01*
Y311101D02*
Y313133D01*
Y292813D02*
Y301449D01*
Y279605D02*
Y288241D01*
Y267413D02*
Y269953D01*
Y249125D02*
Y257253D01*
X545192Y325833D02*
Y332945D01*
Y311101D02*
Y313133D01*
Y292305D02*
Y299417D01*
Y281637D02*
Y288241D01*
Y267413D02*
Y269953D01*
Y248109D02*
Y255221D01*
X544684Y326849D02*
Y333961D01*
Y311101D02*
Y313133D01*
Y290781D02*
Y297893D01*
Y283161D02*
Y288241D01*
Y267413D02*
Y269953D01*
Y247093D02*
Y253697D01*
X544176Y328881D02*
Y334977D01*
Y311101D02*
Y313133D01*
Y290273D02*
Y296369D01*
Y284685D02*
Y286717D01*
Y267413D02*
Y269953D01*
Y246077D02*
Y252173D01*
X543668Y329897D02*
Y335993D01*
Y311101D02*
Y313133D01*
Y289257D02*
Y295353D01*
Y267413D02*
Y269953D01*
Y245061D02*
Y251157D01*
X543160Y330913D02*
Y337009D01*
Y311101D02*
Y313133D01*
Y288241D02*
Y293829D01*
Y267413D02*
Y269953D01*
Y244045D02*
Y250141D01*
X542652Y331929D02*
Y337517D01*
Y311101D02*
Y313133D01*
Y287733D02*
Y293321D01*
Y267413D02*
Y269953D01*
Y243537D02*
Y249125D01*
X542144Y332945D02*
Y338533D01*
Y311101D02*
Y313133D01*
Y286717D02*
Y292305D01*
Y267413D02*
Y269445D01*
Y242521D02*
Y248109D01*
X541636Y333961D02*
Y339041D01*
Y286209D02*
Y291289D01*
Y242013D02*
Y247093D01*
X541128Y334977D02*
Y340057D01*
Y285193D02*
Y290273D01*
Y240997D02*
Y246077D01*
X540620Y335485D02*
Y340565D01*
Y308053D02*
Y316689D01*
Y284685D02*
Y289257D01*
Y264365D02*
Y272493D01*
Y240489D02*
Y245569D01*
X540112Y336501D02*
Y341073D01*
Y308053D02*
Y316689D01*
Y283669D02*
Y288749D01*
Y264365D02*
Y273001D01*
Y239981D02*
Y244553D01*
X539604Y337009D02*
Y341581D01*
Y308053D02*
Y316689D01*
Y283161D02*
Y287733D01*
Y264365D02*
Y273001D01*
Y239473D02*
Y244045D01*
X539096Y338025D02*
Y342597D01*
Y308053D02*
Y316689D01*
Y282653D02*
Y287225D01*
Y264365D02*
Y273001D01*
Y238457D02*
Y243029D01*
X538588Y338533D02*
Y343105D01*
Y308053D02*
Y316689D01*
Y282145D02*
Y286717D01*
Y264365D02*
Y273001D01*
Y237949D02*
Y242521D01*
X538080Y339041D02*
Y343613D01*
Y308053D02*
Y316689D01*
Y281637D02*
Y285701D01*
Y264365D02*
Y273001D01*
Y237441D02*
Y242013D01*
X537572Y340057D02*
Y344121D01*
Y308053D02*
Y316689D01*
Y281129D02*
Y285193D01*
Y264365D02*
Y273001D01*
Y236933D02*
Y240997D01*
X537064Y340565D02*
Y344629D01*
Y308053D02*
Y316689D01*
Y280621D02*
Y284685D01*
Y264365D02*
Y273001D01*
Y236425D02*
Y240489D01*
X536556Y341073D02*
Y345137D01*
Y308053D02*
Y316689D01*
Y280621D02*
Y284177D01*
Y264365D02*
Y273001D01*
Y235917D02*
Y239981D01*
X536048Y341581D02*
Y345645D01*
Y308053D02*
Y316689D01*
Y280621D02*
Y283161D01*
Y264365D02*
Y273001D01*
Y235409D02*
Y239473D01*
X535540Y342597D02*
Y346153D01*
Y308053D02*
Y316689D01*
Y280621D02*
Y282653D01*
Y264365D02*
Y273001D01*
Y234901D02*
Y238965D01*
X535032Y343105D02*
Y346661D01*
Y308053D02*
Y316689D01*
Y280621D02*
Y282145D01*
Y264365D02*
Y273001D01*
Y234393D02*
Y237949D01*
X534524Y343613D02*
Y347169D01*
Y308053D02*
Y316689D01*
Y280621D02*
Y282145D01*
Y264365D02*
Y273001D01*
Y233885D02*
Y237441D01*
X534016Y344121D02*
Y347677D01*
Y308053D02*
Y316689D01*
Y264365D02*
Y273001D01*
Y233377D02*
Y236933D01*
X533508Y344629D02*
Y348185D01*
Y308053D02*
Y316689D01*
Y264365D02*
Y273001D01*
Y232869D02*
Y236425D01*
X533000Y345137D02*
Y348693D01*
Y308053D02*
Y316689D01*
Y264365D02*
Y273001D01*
Y232361D02*
Y235917D01*
X532492Y345137D02*
Y349201D01*
Y308053D02*
Y316689D01*
Y264365D02*
Y273001D01*
Y231853D02*
Y235917D01*
X531984Y345645D02*
Y349709D01*
Y308053D02*
Y316689D01*
Y264365D02*
Y273001D01*
Y231345D02*
Y235409D01*
X531476Y346153D02*
Y350217D01*
Y308053D02*
Y316689D01*
Y264365D02*
Y273001D01*
Y230837D02*
Y234901D01*
X530968Y346661D02*
Y350217D01*
Y308053D02*
Y316689D01*
Y264365D02*
Y273001D01*
Y230837D02*
Y234393D01*
X530460Y347169D02*
Y350725D01*
Y308053D02*
Y316689D01*
Y264365D02*
Y273001D01*
Y230329D02*
Y233885D01*
X529952Y347677D02*
Y351233D01*
Y308053D02*
Y316689D01*
Y264365D02*
Y273001D01*
Y229821D02*
Y233377D01*
X529444Y348185D02*
Y351233D01*
Y308053D02*
Y316689D01*
Y264365D02*
Y273001D01*
Y229821D02*
Y233377D01*
X528936Y348185D02*
Y351741D01*
Y308053D02*
Y316689D01*
Y264365D02*
Y273001D01*
Y229313D02*
Y232869D01*
X528428Y348693D02*
Y352249D01*
Y308053D02*
Y316689D01*
Y264365D02*
Y273001D01*
Y228805D02*
Y232361D01*
X527920Y349201D02*
Y352249D01*
Y308053D02*
Y316689D01*
Y264365D02*
Y273001D01*
Y228805D02*
Y231853D01*
X527412Y349201D02*
Y352757D01*
Y308053D02*
Y316689D01*
Y264365D02*
Y273001D01*
Y228297D02*
Y231853D01*
X526904Y349709D02*
Y353265D01*
Y308053D02*
Y316689D01*
Y264365D02*
Y273001D01*
Y227789D02*
Y231345D01*
X526396Y350217D02*
Y353265D01*
Y308053D02*
Y316689D01*
Y264365D02*
Y273001D01*
Y227789D02*
Y230837D01*
X525888Y350217D02*
Y353773D01*
Y308053D02*
Y316689D01*
Y264365D02*
Y273001D01*
Y227281D02*
Y230837D01*
X525380Y350725D02*
Y353773D01*
Y308053D02*
Y316689D01*
Y264365D02*
Y273001D01*
Y227281D02*
Y230329D01*
X524872Y351233D02*
Y354281D01*
Y308053D02*
Y316689D01*
Y264365D02*
Y273001D01*
Y226773D02*
Y229821D01*
X524364Y351233D02*
Y354789D01*
Y308053D02*
Y316689D01*
Y264365D02*
Y273001D01*
Y226265D02*
Y229821D01*
X523856Y351741D02*
Y354789D01*
Y308053D02*
Y316689D01*
Y264365D02*
Y273001D01*
Y226265D02*
Y229313D01*
X523348Y351741D02*
Y355297D01*
Y308053D02*
Y316689D01*
Y264365D02*
Y273001D01*
Y225757D02*
Y229313D01*
X522840Y352249D02*
Y355297D01*
Y308053D02*
Y316689D01*
Y264365D02*
Y273001D01*
Y225757D02*
Y228805D01*
X522332Y352249D02*
Y355297D01*
Y308053D02*
Y316689D01*
Y264365D02*
Y273001D01*
Y225757D02*
Y228805D01*
X521824Y352757D02*
Y355805D01*
Y308053D02*
Y316689D01*
Y264365D02*
Y273001D01*
Y225249D02*
Y228297D01*
X521316Y352757D02*
Y355805D01*
Y308053D02*
Y316689D01*
Y264365D02*
Y273001D01*
Y225249D02*
Y228297D01*
X520808Y353265D02*
Y356313D01*
Y308053D02*
Y316689D01*
Y264365D02*
Y273001D01*
Y224741D02*
Y227789D01*
X520300Y353265D02*
Y356313D01*
Y308053D02*
Y316689D01*
Y264365D02*
Y273001D01*
Y224741D02*
Y227789D01*
X519792Y353265D02*
Y356821D01*
Y308053D02*
Y316689D01*
Y264365D02*
Y273001D01*
Y224233D02*
Y227789D01*
X519284Y353773D02*
Y356821D01*
Y308053D02*
Y316689D01*
Y264365D02*
Y273001D01*
Y224233D02*
Y227281D01*
X518776Y353773D02*
Y356821D01*
Y308053D02*
Y316689D01*
Y264365D02*
Y273001D01*
Y224233D02*
Y227281D01*
X518268Y354281D02*
Y357329D01*
Y308053D02*
Y316689D01*
Y264365D02*
Y273001D01*
Y223725D02*
Y226773D01*
X517760Y354281D02*
Y357329D01*
Y308053D02*
Y316689D01*
Y264365D02*
Y273001D01*
Y223725D02*
Y226773D01*
X517252Y354281D02*
Y357837D01*
Y308053D02*
Y316689D01*
Y264365D02*
Y273001D01*
Y223217D02*
Y226773D01*
X516744Y354789D02*
Y357837D01*
Y308053D02*
Y316689D01*
Y264365D02*
Y273001D01*
Y223217D02*
Y226265D01*
X516236Y354789D02*
Y357837D01*
Y308053D02*
Y316689D01*
Y264365D02*
Y273001D01*
Y223217D02*
Y226265D01*
X515728Y354789D02*
Y357837D01*
Y308053D02*
Y316689D01*
Y264365D02*
Y273001D01*
Y223217D02*
Y226265D01*
X515220Y355297D02*
Y358345D01*
Y308053D02*
Y316689D01*
Y264365D02*
Y273001D01*
Y222709D02*
Y225757D01*
X514712Y355297D02*
Y358345D01*
Y308053D02*
Y316689D01*
Y264365D02*
Y273001D01*
Y222709D02*
Y225757D01*
X514204Y355297D02*
Y358345D01*
Y308053D02*
Y316689D01*
Y264365D02*
Y273001D01*
Y222709D02*
Y225757D01*
X513696Y355805D02*
Y358345D01*
Y308053D02*
Y316689D01*
Y264365D02*
Y273001D01*
Y222709D02*
Y225249D01*
X513188Y355805D02*
Y358853D01*
Y308053D02*
Y316689D01*
Y264365D02*
Y273001D01*
Y222201D02*
Y225249D01*
X512680Y355805D02*
Y358853D01*
Y308053D02*
Y316689D01*
Y264365D02*
Y273001D01*
Y222201D02*
Y225249D01*
X512172Y355805D02*
Y358853D01*
Y308053D02*
Y316689D01*
Y264365D02*
Y273001D01*
Y222201D02*
Y225249D01*
X511664Y355805D02*
Y358853D01*
Y308053D02*
Y316689D01*
Y264365D02*
Y273001D01*
Y222201D02*
Y225249D01*
X511156Y356313D02*
Y358853D01*
Y308053D02*
Y316689D01*
Y264365D02*
Y273001D01*
Y221693D02*
Y224741D01*
X510648Y356313D02*
Y359361D01*
Y308053D02*
Y316689D01*
Y264365D02*
Y273001D01*
Y221693D02*
Y224741D01*
X510140Y356313D02*
Y359361D01*
Y308053D02*
Y316689D01*
Y264365D02*
Y273001D01*
Y221693D02*
Y224741D01*
X509632Y356313D02*
Y359361D01*
Y308053D02*
Y316689D01*
Y264365D02*
Y273001D01*
Y221693D02*
Y224741D01*
X509124Y356313D02*
Y359361D01*
Y308053D02*
Y316689D01*
Y264365D02*
Y273001D01*
Y221693D02*
Y224741D01*
X508616Y356821D02*
Y359361D01*
Y308053D02*
Y316689D01*
Y264365D02*
Y272493D01*
Y221693D02*
Y224233D01*
X508108Y356821D02*
Y359361D01*
Y307545D02*
Y317197D01*
Y263857D02*
Y273001D01*
Y221693D02*
Y224233D01*
X507600Y356821D02*
Y359869D01*
Y307037D02*
Y317705D01*
Y263349D02*
Y273509D01*
Y221185D02*
Y224233D01*
X507092Y356821D02*
Y359869D01*
Y306529D02*
Y318213D01*
Y262841D02*
Y274017D01*
Y221185D02*
Y224233D01*
X506584Y356821D02*
Y359869D01*
Y306529D02*
Y318213D01*
Y262333D02*
Y274525D01*
Y221185D02*
Y224233D01*
X506076Y356821D02*
Y359869D01*
Y313641D02*
Y318721D01*
Y281129D02*
Y311101D01*
Y269953D02*
Y274525D01*
Y262333D02*
Y267413D01*
Y221185D02*
Y224233D01*
X505568Y356821D02*
Y359869D01*
Y314657D02*
Y318721D01*
Y281129D02*
Y310085D01*
Y270461D02*
Y275033D01*
Y261825D02*
Y266397D01*
Y221185D02*
Y224233D01*
X505060Y356821D02*
Y359869D01*
Y314657D02*
Y319229D01*
Y281129D02*
Y309577D01*
Y270969D02*
Y275033D01*
Y261825D02*
Y265889D01*
Y221185D02*
Y224233D01*
X504552Y356821D02*
Y359869D01*
Y315165D02*
Y319229D01*
Y281637D02*
Y309577D01*
Y271477D02*
Y275033D01*
Y261825D02*
Y265889D01*
Y221185D02*
Y224233D01*
X504044Y356821D02*
Y359869D01*
Y315165D02*
Y319229D01*
Y281637D02*
Y309069D01*
Y271477D02*
Y275033D01*
Y261825D02*
Y265381D01*
Y221185D02*
Y224233D01*
X503536Y351233D02*
Y359869D01*
Y315165D02*
Y319229D01*
Y281637D02*
Y309069D01*
Y271985D02*
Y275033D01*
Y261317D02*
Y265381D01*
Y221185D02*
Y228805D01*
X503028Y351233D02*
Y359869D01*
Y315673D02*
Y319229D01*
Y281637D02*
Y309069D01*
Y271985D02*
Y275033D01*
Y261317D02*
Y265381D01*
Y221185D02*
Y228805D01*
X502520Y351233D02*
Y359869D01*
Y315165D02*
Y319229D01*
Y281637D02*
Y309069D01*
Y271985D02*
Y275033D01*
Y261317D02*
Y265381D01*
Y221185D02*
Y228805D01*
X502012Y351233D02*
Y359869D01*
Y315165D02*
Y319229D01*
Y281637D02*
Y309069D01*
Y271477D02*
Y275033D01*
Y261825D02*
Y265381D01*
Y221185D02*
Y228805D01*
X501504Y356821D02*
Y359869D01*
Y315165D02*
Y319229D01*
Y281129D02*
Y309069D01*
Y271477D02*
Y275033D01*
Y261825D02*
Y265889D01*
Y221185D02*
Y224233D01*
X500996Y356821D02*
Y359869D01*
Y314657D02*
Y319229D01*
Y281129D02*
Y309577D01*
Y270969D02*
Y275033D01*
Y261825D02*
Y265889D01*
Y221185D02*
Y224233D01*
X500488Y356821D02*
Y359869D01*
Y314149D02*
Y318721D01*
Y280621D02*
Y310085D01*
Y270461D02*
Y275033D01*
Y261825D02*
Y266397D01*
Y221185D02*
Y224233D01*
X499980Y356821D02*
Y359869D01*
Y313641D02*
Y318721D01*
Y280621D02*
Y311101D01*
Y269445D02*
Y274525D01*
Y262333D02*
Y267413D01*
Y221185D02*
Y224233D01*
X499472Y356821D02*
Y359869D01*
Y306529D02*
Y318213D01*
Y262333D02*
Y274525D01*
Y221185D02*
Y224233D01*
X498964Y356821D02*
Y359869D01*
Y306529D02*
Y318213D01*
Y262841D02*
Y274017D01*
Y221185D02*
Y224233D01*
X498456Y356821D02*
Y359869D01*
Y307037D02*
Y317705D01*
Y263349D02*
Y273509D01*
Y221185D02*
Y224233D01*
X497948Y356821D02*
Y359361D01*
Y307545D02*
Y317197D01*
Y263857D02*
Y273001D01*
Y221693D02*
Y224233D01*
X497440Y356821D02*
Y359361D01*
Y308053D02*
Y316689D01*
Y264365D02*
Y273001D01*
Y221693D02*
Y224233D01*
X496932Y356821D02*
Y359361D01*
Y308053D02*
Y316689D01*
Y264365D02*
Y273001D01*
Y221693D02*
Y224233D01*
X496424Y356313D02*
Y359361D01*
Y308053D02*
Y316689D01*
Y264365D02*
Y273001D01*
Y221693D02*
Y224741D01*
X495916Y356313D02*
Y359361D01*
Y308053D02*
Y316689D01*
Y264365D02*
Y273001D01*
Y221693D02*
Y224741D01*
X495408Y356313D02*
Y359361D01*
Y308053D02*
Y316689D01*
Y264365D02*
Y273001D01*
Y221693D02*
Y224741D01*
X494900Y356313D02*
Y359361D01*
Y308053D02*
Y316689D01*
Y264365D02*
Y273001D01*
Y221693D02*
Y224741D01*
X494392Y356313D02*
Y358853D01*
Y308053D02*
Y316689D01*
Y264365D02*
Y273001D01*
Y222201D02*
Y224741D01*
X493884Y355805D02*
Y358853D01*
Y308053D02*
Y316689D01*
Y264365D02*
Y273001D01*
Y222201D02*
Y225249D01*
X493376Y355805D02*
Y358853D01*
Y308053D02*
Y316689D01*
Y264365D02*
Y273001D01*
Y222201D02*
Y225249D01*
X492868Y355805D02*
Y358853D01*
Y308053D02*
Y316689D01*
Y264365D02*
Y273001D01*
Y222201D02*
Y225249D01*
X492360Y355805D02*
Y358853D01*
Y308053D02*
Y316689D01*
Y264365D02*
Y273001D01*
Y222201D02*
Y225249D01*
X491852Y355805D02*
Y358345D01*
Y308053D02*
Y316689D01*
Y264365D02*
Y273001D01*
Y222201D02*
Y225249D01*
X491344Y355297D02*
Y358345D01*
Y308053D02*
Y316689D01*
Y264365D02*
Y273001D01*
Y222709D02*
Y225757D01*
X490836Y355297D02*
Y358345D01*
Y308053D02*
Y316689D01*
Y264365D02*
Y273001D01*
Y222709D02*
Y225757D01*
X490328Y354789D02*
Y358345D01*
Y308053D02*
Y316689D01*
Y264365D02*
Y273001D01*
Y223217D02*
Y226265D01*
X489820Y354789D02*
Y357837D01*
Y308053D02*
Y316689D01*
Y264365D02*
Y273001D01*
Y223217D02*
Y226265D01*
X489312Y354789D02*
Y357837D01*
Y308053D02*
Y316689D01*
Y264365D02*
Y273001D01*
Y223217D02*
Y226265D01*
X488804Y354789D02*
Y357837D01*
Y308053D02*
Y316689D01*
Y264365D02*
Y273001D01*
Y223217D02*
Y226265D01*
X488296Y354789D02*
Y357837D01*
Y308053D02*
Y316689D01*
Y264365D02*
Y273001D01*
Y223217D02*
Y226773D01*
X487788Y354281D02*
Y357329D01*
Y308053D02*
Y316689D01*
Y264365D02*
Y273001D01*
Y223725D02*
Y226773D01*
X487280Y354281D02*
Y357329D01*
Y308053D02*
Y316689D01*
Y264365D02*
Y273001D01*
Y223725D02*
Y226773D01*
X486772Y353773D02*
Y356821D01*
Y308053D02*
Y316689D01*
Y264365D02*
Y273001D01*
Y224233D02*
Y227281D01*
X486264Y353773D02*
Y356821D01*
Y308053D02*
Y316689D01*
Y264365D02*
Y273001D01*
Y224233D02*
Y227281D01*
X485756Y353265D02*
Y356821D01*
Y308053D02*
Y316689D01*
Y264365D02*
Y273001D01*
Y224233D02*
Y227789D01*
X485248Y353265D02*
Y356313D01*
Y308053D02*
Y316689D01*
Y264365D02*
Y273001D01*
Y224741D02*
Y227789D01*
X484740Y353265D02*
Y356313D01*
Y308053D02*
Y316689D01*
Y264365D02*
Y273001D01*
Y224741D02*
Y227789D01*
X484232Y352757D02*
Y355805D01*
Y308053D02*
Y316689D01*
Y264365D02*
Y273001D01*
Y225249D02*
Y228297D01*
X483724Y352757D02*
Y355805D01*
Y308053D02*
Y316689D01*
Y264365D02*
Y273001D01*
Y225249D02*
Y228297D01*
X483216Y352249D02*
Y355805D01*
Y308053D02*
Y316689D01*
Y264365D02*
Y273001D01*
Y225249D02*
Y228805D01*
X482708Y352249D02*
Y355297D01*
Y308053D02*
Y316689D01*
Y264365D02*
Y273001D01*
Y225757D02*
Y228805D01*
X482200Y351741D02*
Y355297D01*
Y308053D02*
Y316689D01*
Y264365D02*
Y273001D01*
Y225757D02*
Y229313D01*
X481692Y351741D02*
Y354789D01*
Y308053D02*
Y316689D01*
Y264365D02*
Y273001D01*
Y226265D02*
Y229313D01*
X481184Y351233D02*
Y354789D01*
Y308053D02*
Y316689D01*
Y264365D02*
Y273001D01*
Y226265D02*
Y229821D01*
X480676Y351233D02*
Y354281D01*
Y308053D02*
Y316689D01*
Y264365D02*
Y273001D01*
Y226773D02*
Y229821D01*
X480168Y350725D02*
Y353773D01*
Y308053D02*
Y316689D01*
Y264365D02*
Y273001D01*
Y227281D02*
Y230329D01*
X479660Y350217D02*
Y353773D01*
Y308053D02*
Y316689D01*
Y264365D02*
Y273001D01*
Y227281D02*
Y230837D01*
X479152Y350217D02*
Y353265D01*
Y308053D02*
Y316689D01*
Y264365D02*
Y273001D01*
Y227789D02*
Y230837D01*
X478644Y349709D02*
Y353265D01*
Y308053D02*
Y316689D01*
Y264365D02*
Y273001D01*
Y227789D02*
Y231345D01*
X478136Y349201D02*
Y352757D01*
Y308053D02*
Y316689D01*
Y264365D02*
Y273001D01*
Y228297D02*
Y231853D01*
X477628Y349201D02*
Y352249D01*
Y308053D02*
Y316689D01*
Y264365D02*
Y273001D01*
Y228805D02*
Y231853D01*
X477120Y348693D02*
Y351741D01*
Y308053D02*
Y316689D01*
Y264365D02*
Y273001D01*
Y229313D02*
Y232361D01*
X476612Y348185D02*
Y351741D01*
Y308053D02*
Y316689D01*
Y264365D02*
Y273001D01*
Y229313D02*
Y232869D01*
X476104Y347677D02*
Y351233D01*
Y308053D02*
Y316689D01*
Y264365D02*
Y273001D01*
Y229821D02*
Y233377D01*
X475596Y347169D02*
Y350725D01*
Y308053D02*
Y316689D01*
Y264365D02*
Y273001D01*
Y230329D02*
Y233885D01*
X475088Y347169D02*
Y350725D01*
Y308053D02*
Y316689D01*
Y264365D02*
Y273001D01*
Y230329D02*
Y233885D01*
X474580Y346661D02*
Y350217D01*
Y308053D02*
Y316689D01*
Y264365D02*
Y273001D01*
Y230837D02*
Y234393D01*
X474072Y346153D02*
Y349709D01*
Y308053D02*
Y316689D01*
Y264365D02*
Y273001D01*
Y231345D02*
Y234901D01*
X473564Y345645D02*
Y349201D01*
Y308053D02*
Y316689D01*
Y264365D02*
Y273001D01*
Y231853D02*
Y235409D01*
X473056Y345645D02*
Y348693D01*
Y308053D02*
Y316689D01*
Y264365D02*
Y273001D01*
Y232361D02*
Y235409D01*
X472548Y345137D02*
Y348693D01*
Y308053D02*
Y316689D01*
Y264365D02*
Y273001D01*
Y232361D02*
Y235917D01*
X472040Y344629D02*
Y348185D01*
Y308053D02*
Y316689D01*
Y264365D02*
Y273001D01*
Y232869D02*
Y236425D01*
X471532Y344121D02*
Y347677D01*
Y308053D02*
Y316689D01*
Y264365D02*
Y273001D01*
Y233377D02*
Y236933D01*
X471024Y343613D02*
Y347169D01*
Y308053D02*
Y316689D01*
Y280621D02*
Y282145D01*
Y264365D02*
Y273001D01*
Y233885D02*
Y237441D01*
X470516Y343105D02*
Y346661D01*
Y308053D02*
Y316689D01*
Y280621D02*
Y282145D01*
Y264365D02*
Y273001D01*
Y234393D02*
Y237949D01*
X470008Y342597D02*
Y346153D01*
Y308053D02*
Y316689D01*
Y280621D02*
Y282653D01*
Y264365D02*
Y273001D01*
Y234901D02*
Y238457D01*
X469500Y342089D02*
Y345645D01*
Y308053D02*
Y316689D01*
Y280621D02*
Y283161D01*
Y264365D02*
Y273001D01*
Y235409D02*
Y238965D01*
X468992Y341073D02*
Y345137D01*
Y308053D02*
Y316689D01*
Y280621D02*
Y283669D01*
Y264365D02*
Y273001D01*
Y235917D02*
Y239981D01*
X468484Y340565D02*
Y344629D01*
Y308053D02*
Y316689D01*
Y280621D02*
Y284685D01*
Y264365D02*
Y273001D01*
Y236425D02*
Y240489D01*
X467976Y340057D02*
Y344121D01*
Y308053D02*
Y316689D01*
Y281129D02*
Y285193D01*
Y264365D02*
Y273001D01*
Y236933D02*
Y240997D01*
X467468Y339549D02*
Y343613D01*
Y308053D02*
Y316689D01*
Y281637D02*
Y285701D01*
Y264365D02*
Y273001D01*
Y237441D02*
Y241505D01*
X466960Y338533D02*
Y343105D01*
Y308053D02*
Y316689D01*
Y282145D02*
Y286209D01*
Y264365D02*
Y273001D01*
Y237949D02*
Y242521D01*
X466452Y338025D02*
Y342597D01*
Y308053D02*
Y316689D01*
Y282653D02*
Y287225D01*
Y264365D02*
Y273001D01*
Y238457D02*
Y243029D01*
X465944Y337009D02*
Y341581D01*
Y308053D02*
Y316689D01*
Y283161D02*
Y287733D01*
Y264365D02*
Y272493D01*
Y238965D02*
Y244045D01*
X465436Y336501D02*
Y341073D01*
Y308053D02*
Y316689D01*
Y283669D02*
Y288749D01*
Y264365D02*
Y272493D01*
Y239981D02*
Y244553D01*
X464928Y335993D02*
Y340565D01*
Y314657D02*
Y315673D01*
Y309069D02*
Y309577D01*
Y284685D02*
Y289257D01*
Y264873D02*
Y265889D01*
Y240489D02*
Y245061D01*
X464420Y334977D02*
Y340057D01*
Y285193D02*
Y290273D01*
Y240997D02*
Y246077D01*
X463912Y333961D02*
Y339041D01*
Y285701D02*
Y291289D01*
Y242013D02*
Y247093D01*
X463404Y332945D02*
Y338533D01*
Y311101D02*
Y313133D01*
Y286717D02*
Y292305D01*
Y267413D02*
Y269953D01*
Y242521D02*
Y248109D01*
X462896Y331929D02*
Y337517D01*
Y311101D02*
Y313133D01*
Y287225D02*
Y292813D01*
Y267413D02*
Y269953D01*
Y243029D02*
Y249125D01*
X462388Y330913D02*
Y337009D01*
Y311101D02*
Y313133D01*
Y288241D02*
Y294337D01*
Y267413D02*
Y269953D01*
Y244045D02*
Y250141D01*
X461880Y329897D02*
Y335993D01*
Y311101D02*
Y313133D01*
Y289257D02*
Y295353D01*
Y267413D02*
Y269953D01*
Y245061D02*
Y251157D01*
X461372Y328373D02*
Y335485D01*
Y311101D02*
Y313133D01*
Y289765D02*
Y296369D01*
Y284177D02*
Y286717D01*
Y267413D02*
Y269953D01*
Y245569D02*
Y252681D01*
X460864Y327357D02*
Y334469D01*
Y311101D02*
Y313133D01*
Y290781D02*
Y297893D01*
Y283161D02*
Y287733D01*
Y267413D02*
Y269953D01*
Y246585D02*
Y253697D01*
X460356Y325325D02*
Y333453D01*
Y311101D02*
Y313133D01*
Y291797D02*
Y299417D01*
Y281637D02*
Y288241D01*
Y267413D02*
Y269953D01*
Y247601D02*
Y255729D01*
X459848Y322785D02*
Y332437D01*
Y311101D02*
Y313133D01*
Y292813D02*
Y302465D01*
Y278589D02*
Y287733D01*
Y267413D02*
Y269953D01*
Y248617D02*
Y257761D01*
X459340Y320245D02*
Y330405D01*
Y311101D02*
Y313133D01*
Y294845D02*
Y304497D01*
Y276557D02*
Y286209D01*
Y267413D02*
Y269953D01*
Y250649D02*
Y260809D01*
X458832Y295861D02*
Y329389D01*
Y251665D02*
Y285193D01*
X458324Y297385D02*
Y327357D01*
Y253697D02*
Y283669D01*
X457816Y298909D02*
Y326341D01*
Y254713D02*
Y282145D01*
X457308Y300941D02*
Y324309D01*
Y256745D02*
Y280113D01*
X456800Y302465D02*
Y322277D01*
Y258777D02*
Y278081D01*
X456292Y306021D02*
Y319229D01*
Y261317D02*
Y275033D01*
X455784Y312117D02*
Y313641D01*
Y267413D02*
Y269445D01*
D11*
X904574Y68287D02*
X970013Y79935D01*
X970001Y80001D02*
X975666Y84533D01*
X975757Y85351D01*
X1036771Y160001D02*
X1049262Y76008D01*
X1041001Y57001D02*
X1049418Y75939D01*
X975757Y85351D02*
X982635Y160035D01*
X983001Y160001D02*
X1036771D01*
X1026001Y33001D02*
X1041001Y57001D01*
X985002Y13161D02*
X1026029Y32943D01*
X904597Y68289D02*
X909421Y13958D01*
X909421Y13917D02*
X985002Y13161D01*
X980065Y490013D02*
X991713Y424574D01*
X975467Y495666D02*
X979999Y490001D01*
X974649Y495757D02*
X975467Y495666D01*
X899999Y556771D02*
X983992Y569262D01*
X984061Y569418D02*
X1002999Y561001D01*
X899966Y502635D02*
X974649Y495757D01*
X899999Y503001D02*
Y556771D01*
X1002999Y561001D02*
X1026999Y546001D01*
X1027057Y546029D02*
X1046839Y505002D01*
X991711Y424597D02*
X1046042Y429421D01*
X1046083Y429421D02*
X1046839Y505002D01*
X569987Y500065D02*
X635426Y511713D01*
X564334Y495467D02*
X569999Y499999D01*
X564243Y494649D02*
X564334Y495467D01*
X490738Y503992D02*
X503229Y419999D01*
X490582Y504061D02*
X498999Y522999D01*
X557365Y419966D02*
X564243Y494649D01*
X503229Y419999D02*
X556999D01*
X498999Y522999D02*
X513999Y546999D01*
X513971Y547057D02*
X554998Y566839D01*
X630579Y566042D02*
X635403Y511711D01*
X554998Y566839D02*
X630579Y566083D01*
X424574Y68287D02*
X490013Y79935D01*
X490001Y80001D02*
X495666Y84533D01*
X495757Y85351D01*
X556771Y160001D02*
X569262Y76008D01*
X561001Y57001D02*
X569418Y75939D01*
X495757Y85351D02*
X502635Y160035D01*
X503001Y160001D02*
X556771D01*
X546001Y33001D02*
X561001Y57001D01*
X505002Y13161D02*
X546029Y32943D01*
X424597Y68289D02*
X429421Y13958D01*
X429421Y13917D02*
X505002Y13161D01*
X89987Y500065D02*
X155427Y511713D01*
X84334Y495467D02*
X89999Y499999D01*
X84243Y494649D02*
X84334Y495467D01*
X10738Y503992D02*
X23229Y419999D01*
X10582Y504061D02*
X18999Y522999D01*
X77365Y419966D02*
X84243Y494649D01*
X23229Y419999D02*
X76999D01*
X18999Y522999D02*
X33999Y546999D01*
X33971Y547057D02*
X74998Y566839D01*
X150579Y566042D02*
X155403Y511711D01*
X74998Y566839D02*
X150579Y566083D01*
X68287Y155427D02*
X79935Y89987D01*
X80001Y89999D02*
X84533Y84334D01*
X85351Y84243D01*
X76008Y10738D02*
X160001Y23229D01*
X57001Y18999D02*
X75939Y10582D01*
X85351Y84243D02*
X160035Y77365D01*
X160001Y23229D02*
Y76999D01*
X33001Y33999D02*
X57001Y18999D01*
X13161Y74998D02*
X32943Y33971D01*
X13958Y150579D02*
X68289Y155403D01*
X13161Y74998D02*
X13917Y150579D01*
D12*
X50000Y0D02*
X1010000D01*
X1060000Y50000D01*
Y530000D01*
X1010000Y580000D02*
X1060000Y530000D01*
X50000Y580000D02*
X1010000D01*
X0Y50000D02*
Y530000D01*
Y50000D02*
X50000Y0D01*
X0Y530000D02*
X50000Y580000D01*
X720500Y-250D02*
X725500D01*
X800500D02*
X805750D01*
M02*
