M48
;Layer_Color=9474304
;FILE_FORMAT=4:4
METRIC,LZ
;TYPE=PLATED
T1F00S00C0.2500
T2F00S00C0.3000
T3F00S00C0.5500
;TYPE=NON_PLATED
T5F00S00C0.8000
T6F00S00C0.8800
T7F00S00C1.0668
T8F00S00C1.4000
T9F00S00C1.5000
T10F00S00C2.4511
T11F00S00C2.6000
%
T01
X00813Y00448
Y005
Y0054
X008258
X00873Y00455
X0074Y00562
T02
X00009Y00083
X0001Y00141
X00083Y00104
X00093Y00088
X00113Y00116
X0009242Y00009
X00251Y00137
X0029Y0012
X0032
X00469Y00085
X00492Y00092
X00497Y00008
X00439
X00571Y0009242
X0063Y00115
X00645
X00685Y0014
X00724Y0013439
X00741Y0012
X00812999Y00140001
X0087Y00108
X00919Y00008
X00977
X00972Y00092
X00949Y00085
X01051Y0009242
X00961Y0015
X0098Y00465
X00967Y0048
Y00492
X01052Y00497
Y00439
X00925Y0043
X00885
X00893Y0042
X00848Y00412
X0089Y00478
X00911Y00461
X00755Y00384
X00725
X00679Y00387
Y00406
Y00444
X006Y00431
Y00419
X00595Y00395
X0064Y00387002
X00591Y00495
X00578Y00488
X00568Y00488
X00725Y0027
X00755
X00813Y0021
X00799Y00177
X00834Y00177
X00892
X00934Y00177
Y0021
X00848Y00225
X0069Y0019
X00645Y00149999
X0063
X00497Y0015
X00243Y00153
X00204Y00147
X002141Y00188
X00254Y00293
X0023Y00425
X0026Y00452
X0029Y00461
X00312Y00443
X00362Y00435
X00489Y0048758
X00109Y00495
X00088Y00488
X00097Y0043
X00009Y0048758
X00083Y00572
X00141
X00563
X00621
X0096758Y00571
T03
X0073875Y0004425
X0078725
T05
X0074Y00535029
T06
X0002367Y0008359
X0007009Y0008765
X0009242Y000733
Y000267
X0006Y0014456
X0002373Y0014139
X0015Y000682
Y000318
X0043861Y0002373
X0043544Y0006
X0049235Y0007009
X005067Y0009242
X0049641Y0002367
X005533Y0009242
X0091544Y0006
X0091861Y0002373
X0097641Y0002367
X0097235Y0007009
X009867Y0009242
X010333
X010282Y0015
X009918
X01Y0043544
X0103627Y0043861
X0103633Y0049641
X0098991Y0049235
X0096758Y005067
X0091Y005118
X0062456Y0052
X0056765Y0050991
X005533Y0048758
X005482Y0043
Y0015
X005118
Y0043
X005067Y0048758
X0014456Y0052
X0008765Y0050991
X000733Y0048758
X000267
X000318Y0043
X000682
X0008359Y0055633
X0014139Y0055627
X0056359Y0055633
X0062139Y0055627
X0091Y005482
X0096758Y005533
T07
X00775Y0052
X008766Y0050985
Y0053015
T08
X0002656Y0006637
X0007596Y0007207
X0007758Y0001818
X0051363Y0002656
X0050793Y0007596
X0056182Y0007758
X0098793Y0007596
X0099363Y0002656
X0104182Y0007758
X0103344Y0051363
X0098404Y0050793
X0055207Y0050404
X0049818Y0050242
X0007207Y0050404
X0001818Y0050242
X0006637Y0055344
X0054637
X0098242Y0056182
T09
X0005Y0005
X0053
X0101
Y0053
X0053
X0005
T10
X00775Y004946
X0085755
Y005454
X00775
T11
X0102Y0029
X0005
M30
