G04*
G04 #@! TF.GenerationSoftware,Altium Limited,Altium Designer,19.0.10 (269)*
G04*
G04 Layer_Color=32896*
%FSLAX44Y44*%
%MOMM*%
G71*
G01*
G75*
%ADD10C,0.0508*%
%ADD11C,0.1500*%
%ADD12C,0.2000*%
%ADD20C,0.6000*%
%ADD23C,0.2500*%
%ADD50C,0.2540*%
%ADD51C,0.0127*%
%ADD52C,0.1000*%
%ADD53C,0.3000*%
G36*
X174730Y284450D02*
Y274290D01*
X184890Y284450D01*
X174730Y284450D01*
D02*
G37*
D10*
X147704Y414476D02*
Y416000D01*
Y409904D02*
Y411936D01*
Y406856D02*
Y409396D01*
X148212Y414476D02*
Y416000D01*
Y409904D02*
Y411936D01*
Y406348D02*
Y409396D01*
X148720Y413968D02*
Y416000D01*
Y410412D02*
Y412444D01*
Y405840D02*
Y408888D01*
X149228Y410412D02*
Y416000D01*
X149736Y410920D02*
Y416000D01*
X150244Y415492D02*
Y416000D01*
Y411428D02*
Y414984D01*
X141100Y410412D02*
Y416000D01*
X141608Y410412D02*
Y416000D01*
X142116Y414476D02*
Y416000D01*
Y410412D02*
Y412444D01*
Y406348D02*
Y408888D01*
X142624Y414476D02*
Y416000D01*
Y410412D02*
Y411936D01*
Y406856D02*
Y409396D01*
X143132Y413968D02*
Y416000D01*
Y410412D02*
Y411936D01*
Y407364D02*
Y409396D01*
X143640Y413460D02*
Y416000D01*
Y407364D02*
Y409904D01*
X144148Y412444D02*
Y416000D01*
Y407364D02*
Y409904D01*
X144656Y411428D02*
Y416000D01*
Y407364D02*
Y409904D01*
X145164Y410412D02*
Y415492D01*
Y407364D02*
Y409904D01*
X145672Y410412D02*
Y414984D01*
Y407364D02*
Y409904D01*
X146180Y407364D02*
Y413968D01*
X146688Y414984D02*
Y416000D01*
Y407364D02*
Y412952D01*
X140084Y412444D02*
Y413968D01*
X140592Y410412D02*
Y415492D01*
X109096Y413968D02*
Y416000D01*
X109604Y413460D02*
Y416000D01*
X110112Y413460D02*
Y416000D01*
X110620Y413460D02*
Y416000D01*
X111128Y413460D02*
Y416000D01*
X111636Y413460D02*
Y416000D01*
X112144Y412952D02*
Y416000D01*
X112652Y412952D02*
Y416000D01*
X113160Y412444D02*
Y416000D01*
X113668Y412444D02*
Y416000D01*
X114176Y411936D02*
Y416000D01*
X114684Y411428D02*
Y416000D01*
X115192Y410920D02*
Y416000D01*
X115700Y410412D02*
Y416000D01*
X116208Y409396D02*
Y416000D01*
X116716Y408888D02*
Y416000D01*
X117224Y407364D02*
Y416000D01*
X86744Y408380D02*
Y412952D01*
X87252Y409396D02*
Y413460D01*
X87760Y409904D02*
Y413968D01*
X88268Y410412D02*
Y414476D01*
X88776Y410920D02*
Y414476D01*
X89284Y410920D02*
Y414984D01*
X89792Y411428D02*
Y415492D01*
X90300Y411428D02*
Y415492D01*
X90808Y411428D02*
Y415492D01*
X91316Y411428D02*
Y416000D01*
X91824Y411428D02*
Y416000D01*
X92332Y411428D02*
Y416000D01*
X92840Y410920D02*
Y416000D01*
X93348Y410412D02*
Y416000D01*
X93856Y410412D02*
Y416000D01*
X94364Y409396D02*
Y415492D01*
X94872Y408888D02*
Y415492D01*
X95380Y407872D02*
Y415492D01*
X95888Y406856D02*
Y415492D01*
X96396Y406348D02*
Y414984D01*
X96904Y405332D02*
Y414476D01*
X97412Y404316D02*
Y414476D01*
X147704Y400252D02*
Y402284D01*
X148212Y400252D02*
Y402792D01*
X148720Y400760D02*
Y403300D01*
X147704Y396188D02*
Y399236D01*
Y390092D02*
Y391616D01*
Y387044D02*
Y389584D01*
X148212Y396188D02*
Y399236D01*
Y390092D02*
Y392124D01*
Y387044D02*
Y389584D01*
X148720Y394664D02*
Y398728D01*
Y390600D02*
Y394156D01*
Y387044D02*
Y389584D01*
X149228Y391108D02*
Y398220D01*
X149736Y391616D02*
Y397712D01*
X150244Y392632D02*
Y396696D01*
X142624Y400252D02*
Y403300D01*
X143132Y400252D02*
Y402792D01*
X142116Y396188D02*
Y398728D01*
Y390600D02*
Y393140D01*
Y387044D02*
Y389076D01*
X142624Y396696D02*
Y399236D01*
Y390600D02*
Y392632D01*
Y387044D02*
Y389584D01*
X143132Y396696D02*
Y399236D01*
Y390600D02*
Y392632D01*
Y387044D02*
Y389584D01*
X143640Y390600D02*
Y392124D01*
Y387044D02*
Y389584D01*
X144148Y390600D02*
Y392124D01*
Y387044D02*
Y389076D01*
X144656Y387044D02*
Y389076D01*
X145164Y387044D02*
Y389076D01*
X145672Y387044D02*
Y389076D01*
X146180Y387044D02*
Y389076D01*
X146688Y387044D02*
Y389584D01*
X140084Y393648D02*
Y395680D01*
X143640Y397204D02*
Y402284D01*
X144148Y397204D02*
Y402284D01*
X144656Y397204D02*
Y402284D01*
X145164Y397204D02*
Y402284D01*
X145672Y397204D02*
Y402284D01*
X146180Y397204D02*
Y402284D01*
X146688Y396696D02*
Y402284D01*
X107064Y392124D02*
Y399236D01*
X107572Y392124D02*
Y398728D01*
X108080Y392124D02*
Y398220D01*
X108588Y392124D02*
Y397712D01*
X109096Y392124D02*
Y397712D01*
X109604Y392124D02*
Y397204D01*
X110112Y392124D02*
Y396696D01*
X110620Y392124D02*
Y396696D01*
X111128Y392124D02*
Y396696D01*
X111636Y392124D02*
Y396696D01*
X112144Y392632D02*
Y396696D01*
X112652Y392632D02*
Y396696D01*
X113160Y392632D02*
Y396696D01*
X113668Y393140D02*
Y397204D01*
X114176Y393140D02*
Y397204D01*
X114684Y393648D02*
Y397712D01*
X115192Y393648D02*
Y398220D01*
X115700Y394156D02*
Y398728D01*
X116208Y394664D02*
Y399236D01*
X116716Y395172D02*
Y399744D01*
X117224Y395680D02*
Y401268D01*
X87760Y394664D02*
Y399236D01*
X88268Y394664D02*
Y398728D01*
X88776Y394664D02*
Y398220D01*
X89284Y394664D02*
Y398220D01*
X89792Y394664D02*
Y397712D01*
X90300Y394664D02*
Y397712D01*
X90808Y394664D02*
Y397204D01*
X91316Y394664D02*
Y397204D01*
X91824Y394664D02*
Y396696D01*
X92332Y394664D02*
Y396696D01*
X92840Y394664D02*
Y396696D01*
X105032Y393140D02*
Y402792D01*
X105540Y393140D02*
Y401776D01*
X106048Y392632D02*
Y401268D01*
X86744Y394664D02*
Y400760D01*
X87252Y394664D02*
Y399744D01*
X147704Y376884D02*
Y378916D01*
Y371804D02*
Y374344D01*
Y365200D02*
Y367232D01*
X148212Y376884D02*
Y378916D01*
Y371804D02*
Y374344D01*
Y365200D02*
Y367232D01*
X148720Y371804D02*
Y374344D01*
Y364692D02*
Y367232D01*
X149228Y370788D02*
Y375360D01*
X149736Y370280D02*
Y375360D01*
X150244Y370788D02*
Y375360D01*
X148720Y377392D02*
Y379932D01*
X139576D02*
Y382980D01*
X140084Y380948D02*
Y382472D01*
X142116Y371804D02*
Y373836D01*
Y368248D02*
Y370280D01*
Y365200D02*
Y367232D01*
X142624Y371804D02*
Y374344D01*
Y368248D02*
Y369772D01*
Y365200D02*
Y367232D01*
X143132Y376376D02*
Y378916D01*
Y371804D02*
Y374344D01*
Y368248D02*
Y369772D01*
Y365200D02*
Y367232D01*
X143640Y377900D02*
Y378916D01*
Y371804D02*
Y374344D01*
Y365200D02*
Y367232D01*
X144148Y371804D02*
Y374344D01*
Y365200D02*
Y367232D01*
X144656Y371804D02*
Y374344D01*
X145164Y371804D02*
Y374344D01*
X145672Y371804D02*
Y374344D01*
X146180Y371804D02*
Y374344D01*
Y365200D02*
Y367232D01*
X146688Y371804D02*
Y374344D01*
Y365200D02*
Y367232D01*
X140084Y375868D02*
Y377392D01*
Y368248D02*
Y370280D01*
Y363676D02*
Y365708D01*
X142116Y375868D02*
Y379932D01*
X142624Y376376D02*
Y379424D01*
X143132D02*
Y380948D01*
X143640Y379424D02*
Y381456D01*
X144148Y379424D02*
Y381456D01*
X146180Y379424D02*
Y381456D01*
X146688Y379424D02*
Y380948D01*
X137544Y379424D02*
Y380948D01*
X138052Y378916D02*
Y381456D01*
X138560Y378916D02*
Y381964D01*
X139068Y379424D02*
Y382472D01*
X111636Y372820D02*
Y378916D01*
X112144Y372820D02*
Y378916D01*
X112652Y372312D02*
Y378408D01*
X113160Y371804D02*
Y377900D01*
X113668Y371296D02*
Y377392D01*
X114176Y370788D02*
Y376884D01*
X114684Y370280D02*
Y376376D01*
X115192Y369772D02*
Y375868D01*
X115700Y369264D02*
Y375360D01*
X116208Y368248D02*
Y374852D01*
X116716Y367232D02*
Y373836D01*
X117224Y366216D02*
Y373328D01*
X117732Y363676D02*
Y372312D01*
X107064Y374852D02*
Y381456D01*
X107572Y374852D02*
Y381456D01*
X108080Y374852D02*
Y380948D01*
X108588Y374344D02*
Y380948D01*
X109096Y374344D02*
Y380440D01*
X109604Y373836D02*
Y380440D01*
X110112Y373836D02*
Y379932D01*
X110620Y373328D02*
Y379932D01*
X111128Y373328D02*
Y379424D01*
X86744Y365708D02*
Y372820D01*
X87252Y367232D02*
Y373836D01*
X87760Y368756D02*
Y374344D01*
X88268Y369264D02*
Y375360D01*
X88776Y370280D02*
Y375868D01*
X89284Y370788D02*
Y376376D01*
X89792Y371296D02*
Y376884D01*
X90300Y371804D02*
Y377392D01*
X90808Y372312D02*
Y377900D01*
X91316Y372312D02*
Y378408D01*
X91824Y372820D02*
Y378408D01*
X92332Y373328D02*
Y378916D01*
X100460Y375868D02*
Y381964D01*
X100968Y375868D02*
Y381964D01*
X101476Y375868D02*
Y381964D01*
X101984Y375868D02*
Y381964D01*
X102492Y375868D02*
Y381964D01*
X103000Y375868D02*
Y381964D01*
X103508Y375868D02*
Y381964D01*
X104016Y375360D02*
Y381964D01*
X104524Y375360D02*
Y381964D01*
X105032Y375360D02*
Y381964D01*
X105540Y375360D02*
Y381964D01*
X106048Y375360D02*
Y381964D01*
X92840Y373328D02*
Y379424D01*
X93348Y373836D02*
Y379424D01*
X93856Y373836D02*
Y379932D01*
X94364Y374344D02*
Y380440D01*
X94872Y374344D02*
Y380440D01*
X95380Y374344D02*
Y380948D01*
X95888Y374852D02*
Y380948D01*
X96396Y374852D02*
Y381456D01*
X96904Y374852D02*
Y381456D01*
X97412Y375360D02*
Y381456D01*
X97920Y375360D02*
Y381456D01*
X98428Y375360D02*
Y381964D01*
X98936Y375360D02*
Y381964D01*
X99444Y375360D02*
Y381964D01*
X99952Y375868D02*
Y381964D01*
X147704Y359612D02*
Y361644D01*
X148212Y359612D02*
Y361644D01*
X148720Y360120D02*
Y362660D01*
X147704Y353516D02*
Y356056D01*
Y347420D02*
Y349960D01*
Y343356D02*
Y345896D01*
X148212Y353516D02*
Y356056D01*
Y347420D02*
Y350468D01*
Y343356D02*
Y345896D01*
X148720Y353516D02*
Y356056D01*
Y347928D02*
Y351484D01*
Y343356D02*
Y345896D01*
X149228Y348436D02*
Y357580D01*
X149736Y348944D02*
Y357580D01*
X150244Y349960D02*
Y357072D01*
X142116Y360628D02*
Y362660D01*
X142624Y360120D02*
Y362152D01*
X143132Y360120D02*
Y361644D01*
X143640Y360628D02*
Y361136D01*
X141100Y348944D02*
Y357072D01*
X141608Y348436D02*
Y357072D01*
X142116Y353516D02*
Y355548D01*
Y347928D02*
Y350976D01*
Y343356D02*
Y345388D01*
X142624Y353516D02*
Y356056D01*
Y347420D02*
Y350468D01*
Y343356D02*
Y345896D01*
X143132Y353516D02*
Y356056D01*
Y346912D02*
Y349960D01*
Y343356D02*
Y345896D01*
X143640Y353516D02*
Y356056D01*
Y346912D02*
Y349452D01*
Y343356D02*
Y345896D01*
X144148Y353516D02*
Y356056D01*
Y346912D02*
Y349452D01*
Y343356D02*
Y345896D01*
X144656Y353516D02*
Y356056D01*
Y346912D02*
Y349452D01*
X145164Y353516D02*
Y356056D01*
Y346912D02*
Y349452D01*
X145672Y353516D02*
Y356056D01*
Y346912D02*
Y349452D01*
X146180Y353516D02*
Y356056D01*
Y346912D02*
Y349452D01*
Y343356D02*
Y345896D01*
X146688Y353516D02*
Y356056D01*
Y346912D02*
Y349452D01*
Y343356D02*
Y345896D01*
X140592Y349960D02*
Y357072D01*
X111128Y343356D02*
Y348944D01*
X111636Y343356D02*
Y348944D01*
X112144Y343864D02*
Y349452D01*
X112652Y344372D02*
Y349960D01*
X113160Y344880D02*
Y349960D01*
X113668Y345388D02*
Y350468D01*
X114176Y345896D02*
Y350976D01*
X114684Y346404D02*
Y351484D01*
X115192Y346912D02*
Y351992D01*
X115700Y347420D02*
Y353008D01*
X116208Y348436D02*
Y354024D01*
X116716Y348944D02*
Y355040D01*
X117224Y349960D02*
Y356564D01*
X117732Y350976D02*
Y359104D01*
X86744Y349452D02*
Y357072D01*
X87252Y348436D02*
Y355548D01*
X87760Y347928D02*
Y354532D01*
X88268Y347420D02*
Y353516D01*
X88776Y346912D02*
Y353008D01*
X89284Y346404D02*
Y351992D01*
X89792Y345896D02*
Y351484D01*
X90300Y345388D02*
Y350976D01*
X90808Y344880D02*
Y350468D01*
X91316Y344372D02*
Y349960D01*
X91824Y343864D02*
Y349960D01*
X92332Y343356D02*
Y349452D01*
X92840Y343356D02*
Y348944D01*
X147704Y331672D02*
Y334212D01*
Y324560D02*
Y326592D01*
X148212Y331672D02*
Y334212D01*
Y324560D02*
Y326592D01*
X148720Y331672D02*
Y334212D01*
Y324560D02*
Y326592D01*
X149228Y330656D02*
Y335228D01*
Y323036D02*
Y327608D01*
X149736Y330656D02*
Y335228D01*
Y323036D02*
Y327608D01*
X150244Y330656D02*
Y335228D01*
Y323036D02*
Y327608D01*
X147704Y337768D02*
Y339800D01*
X148212Y337768D02*
Y339800D01*
X148720Y338276D02*
Y340816D01*
X143132D02*
Y342340D01*
X143640Y340816D02*
Y342340D01*
X144148Y340816D02*
Y342340D01*
X146180Y340308D02*
Y342340D01*
X146688Y340308D02*
Y342340D01*
X141100Y328116D02*
Y335736D01*
X142116Y331672D02*
Y334212D01*
Y327608D02*
Y330148D01*
Y324560D02*
Y326592D01*
X142624Y331672D02*
Y334212D01*
Y327608D02*
Y329640D01*
Y324560D02*
Y326592D01*
X143132Y331672D02*
Y334212D01*
Y327608D02*
Y329640D01*
Y324560D02*
Y326592D01*
X143640Y331672D02*
Y334212D01*
Y327608D02*
Y329640D01*
Y324560D02*
Y326592D01*
X144148Y331672D02*
Y334212D01*
Y327608D02*
Y330148D01*
Y324560D02*
Y326592D01*
X144656Y331672D02*
Y334212D01*
Y327608D02*
Y330656D01*
Y324560D02*
Y326592D01*
X145164Y328116D02*
Y334212D01*
X145672Y328624D02*
Y334212D01*
X146180Y329640D02*
Y334212D01*
X146688Y332180D02*
Y334212D01*
Y324560D02*
Y326592D01*
X140592Y329132D02*
Y335736D01*
X142116Y338784D02*
Y340816D01*
X142624Y338784D02*
Y340308D01*
X143132Y338784D02*
Y340308D01*
X143640Y338784D02*
Y339292D01*
X119764Y323544D02*
Y330656D01*
X147704Y309320D02*
Y311860D01*
Y305256D02*
Y307796D01*
X148212Y309828D02*
Y311860D01*
Y305256D02*
Y307796D01*
X148720Y314908D02*
Y317956D01*
Y309828D02*
Y312876D01*
Y305256D02*
Y307796D01*
X149228Y310336D02*
Y317448D01*
X149736Y310844D02*
Y316940D01*
X150244Y311860D02*
Y315924D01*
X147704D02*
Y318464D01*
X148212Y315416D02*
Y318464D01*
X149228Y317956D02*
Y322020D01*
X149736Y317956D02*
Y322020D01*
X150244Y317956D02*
Y321512D01*
X143132Y319988D02*
Y322020D01*
X141100Y310844D02*
Y316940D01*
X141608Y310336D02*
Y317448D01*
X142116Y315416D02*
Y317956D01*
Y309828D02*
Y312876D01*
Y305256D02*
Y307796D01*
X142624Y309320D02*
Y312368D01*
Y305256D02*
Y307796D01*
X143132Y309320D02*
Y311860D01*
Y305256D02*
Y307796D01*
X143640Y309320D02*
Y311860D01*
Y305256D02*
Y307796D01*
X144148Y308812D02*
Y311352D01*
Y305256D02*
Y307796D01*
X144656Y308812D02*
Y311352D01*
Y305256D02*
Y307796D01*
X145164Y308812D02*
Y311352D01*
Y305256D02*
Y307796D01*
X145672Y308812D02*
Y311352D01*
Y305256D02*
Y307796D01*
X146180Y308812D02*
Y311352D01*
Y305256D02*
Y307796D01*
X146688Y308812D02*
Y311352D01*
Y305256D02*
Y307796D01*
X140084Y312876D02*
Y314908D01*
X140592Y311352D02*
Y316432D01*
X142624Y315924D02*
Y318464D01*
X143132Y316432D02*
Y318464D01*
X143640Y316432D02*
Y318972D01*
X144148Y316432D02*
Y318972D01*
X144656Y316432D02*
Y318972D01*
X145164Y316432D02*
Y318972D01*
X145672Y316432D02*
Y318972D01*
X146180Y316432D02*
Y318972D01*
X146688Y316432D02*
Y318972D01*
X119764Y313892D02*
Y318464D01*
X100460Y302716D02*
Y309320D01*
X100968Y303224D02*
Y309828D01*
X101476Y303224D02*
Y310844D01*
X101984Y303732D02*
Y312368D01*
X103508Y305764D02*
Y317956D01*
X104016Y306780D02*
Y317448D01*
X104524Y308304D02*
Y316432D01*
X105032Y310336D02*
Y314908D01*
X86744Y304240D02*
Y314908D01*
X87252Y303732D02*
Y312368D01*
X87760Y303224D02*
Y310844D01*
X88268Y302716D02*
Y310336D01*
X101984Y316940D02*
Y318464D01*
X102492Y304748D02*
Y318464D01*
X103000Y305256D02*
Y318464D01*
X84204Y309828D02*
Y321004D01*
X147704Y299160D02*
Y301700D01*
Y290016D02*
Y292048D01*
Y285952D02*
Y289000D01*
X148212Y290016D02*
Y292048D01*
Y285952D02*
Y289000D01*
X148720Y295096D02*
Y297636D01*
Y290524D02*
Y292556D01*
X149228Y290524D02*
Y297636D01*
X149736Y291032D02*
Y297128D01*
X150244Y292048D02*
Y296112D01*
Y282396D02*
Y286968D01*
X147704Y295604D02*
Y298144D01*
X148212Y295604D02*
Y298144D01*
X143132Y298652D02*
Y301700D01*
X143640Y298652D02*
Y301192D01*
X144148Y298652D02*
Y301192D01*
X144656Y298652D02*
Y301192D01*
X145164Y298652D02*
Y301192D01*
X145672Y298652D02*
Y301192D01*
X146180Y298652D02*
Y301192D01*
X146688Y298652D02*
Y301192D01*
X141100Y289000D02*
Y293064D01*
X141608Y289000D02*
Y293064D01*
X142116Y290016D02*
Y292048D01*
Y285952D02*
Y288492D01*
X142624Y290016D02*
Y292048D01*
Y286460D02*
Y289000D01*
X143132Y290016D02*
Y292048D01*
Y286460D02*
Y289000D01*
X143640Y290016D02*
Y292048D01*
Y286968D02*
Y289508D01*
X144148Y290016D02*
Y292048D01*
Y286968D02*
Y289508D01*
X144656Y290016D02*
Y292048D01*
Y286968D02*
Y289508D01*
X145164Y290016D02*
Y292048D01*
Y286968D02*
Y289508D01*
X145672Y290016D02*
Y292048D01*
Y286968D02*
Y289508D01*
X146180Y290016D02*
Y292048D01*
Y286968D02*
Y289508D01*
X146688Y290016D02*
Y292048D01*
Y286968D02*
Y289508D01*
X140084Y283412D02*
Y285444D01*
X140592Y289000D02*
Y293064D01*
X141100Y294588D02*
Y299160D01*
X141608Y294588D02*
Y299160D01*
X142116Y295604D02*
Y298144D01*
X142624Y295604D02*
Y298144D01*
X143132Y295604D02*
Y298144D01*
X143640Y295604D02*
Y298144D01*
X144148Y295604D02*
Y298144D01*
X144656Y295604D02*
Y298144D01*
X145164Y295604D02*
Y298144D01*
X145672Y295604D02*
Y298144D01*
X146180Y295604D02*
Y298144D01*
X146688Y295604D02*
Y298144D01*
X140592Y294588D02*
Y299160D01*
X147704Y279856D02*
Y281380D01*
Y274776D02*
Y277316D01*
Y268172D02*
Y270204D01*
Y263600D02*
Y266648D01*
X148212Y274776D02*
Y277316D01*
Y267664D02*
Y270204D01*
Y263600D02*
Y266140D01*
X148720Y274776D02*
Y277316D01*
Y267664D02*
Y270204D01*
Y262584D02*
Y266140D01*
X149228Y266648D02*
Y271728D01*
X149736Y266648D02*
Y271728D01*
X150244Y266648D02*
Y271728D01*
X149228Y273252D02*
Y278332D01*
X149736Y273252D02*
Y278332D01*
X150244Y273252D02*
Y278332D01*
X144148Y280364D02*
Y281380D01*
X140084Y278332D02*
Y280364D01*
X142116Y274776D02*
Y276808D01*
Y270712D02*
Y272744D01*
Y268172D02*
Y270204D01*
Y263092D02*
Y265632D01*
X142624Y274776D02*
Y276808D01*
Y270712D02*
Y272744D01*
Y268172D02*
Y270204D01*
Y263600D02*
Y266140D01*
X143132Y274776D02*
Y276808D01*
Y270712D02*
Y272236D01*
Y268172D02*
Y270204D01*
Y264108D02*
Y266648D01*
X143640Y274776D02*
Y276808D01*
Y268172D02*
Y270204D01*
Y264108D02*
Y266648D01*
X144148Y274776D02*
Y276808D01*
Y268172D02*
Y270204D01*
Y264616D02*
Y267156D01*
X144656Y274776D02*
Y276808D01*
Y268172D02*
Y270204D01*
Y264616D02*
Y267156D01*
X145164Y274776D02*
Y276808D01*
Y268172D02*
Y270204D01*
Y264616D02*
Y267156D01*
X145672Y274776D02*
Y276808D01*
Y268172D02*
Y270204D01*
Y264616D02*
Y267156D01*
X146180Y274776D02*
Y276808D01*
Y268172D02*
Y270204D01*
Y264616D02*
Y267156D01*
X146688Y274776D02*
Y276808D01*
Y268172D02*
Y270204D01*
Y264108D02*
Y267156D01*
X140084Y271220D02*
Y273252D01*
X141100Y266648D02*
Y280364D01*
X140592Y266648D02*
Y280364D01*
X107064Y267664D02*
Y274268D01*
X107572Y267156D02*
Y273760D01*
X108080Y267156D02*
Y273760D01*
X108588Y266648D02*
Y273252D01*
X109096Y266140D02*
Y272744D01*
X109604Y265632D02*
Y272744D01*
X110112Y265632D02*
Y272236D01*
X110620Y265124D02*
Y272236D01*
X111128Y265124D02*
Y271728D01*
X111636Y264616D02*
Y271728D01*
X112144Y264108D02*
Y271220D01*
X112652Y264108D02*
Y270712D01*
X113160Y263600D02*
Y270712D01*
X113668Y263092D02*
Y270204D01*
X114176Y263092D02*
Y269696D01*
X114684Y262584D02*
Y269696D01*
X115192Y262076D02*
Y269188D01*
X103000Y270204D02*
Y277316D01*
X103508Y269696D02*
Y276300D01*
X104016Y269188D02*
Y275792D01*
X104524Y269188D02*
Y275792D01*
X105032Y268680D02*
Y275284D01*
X105540Y268680D02*
Y275284D01*
X106048Y268172D02*
Y274776D01*
X87252Y266140D02*
Y275792D01*
X87760Y266140D02*
Y274268D01*
X88268Y265632D02*
Y273760D01*
X88776Y265124D02*
Y272744D01*
X89284Y265124D02*
Y272236D01*
X89792Y264616D02*
Y271728D01*
X90300Y264616D02*
Y271220D01*
X90808Y264108D02*
Y271220D01*
X91316Y264108D02*
Y270712D01*
X91824Y264108D02*
Y270712D01*
X92332Y264108D02*
Y270712D01*
X92840Y264108D02*
Y270204D01*
X93348Y264108D02*
Y270204D01*
X93856Y264108D02*
Y270204D01*
X94364Y264108D02*
Y270204D01*
X94872Y264108D02*
Y270204D01*
X95380Y264108D02*
Y270712D01*
X95888Y264616D02*
Y270712D01*
X96396Y264616D02*
Y270712D01*
X96904Y264616D02*
Y271220D01*
X97412Y265124D02*
Y271728D01*
X97920Y265632D02*
Y271728D01*
X98428Y266140D02*
Y272236D01*
X98936Y266648D02*
Y273252D01*
X99444Y267156D02*
Y274268D01*
X99952Y267664D02*
Y276808D01*
X86744Y267156D02*
Y279348D01*
X148720Y258012D02*
Y260552D01*
X147704Y253948D02*
Y255980D01*
Y247344D02*
Y250900D01*
X148212Y253948D02*
Y255980D01*
Y247344D02*
Y250392D01*
X148720Y253948D02*
Y255980D01*
Y247344D02*
Y249884D01*
X149228Y252932D02*
Y256488D01*
Y247344D02*
Y249884D01*
X149736Y252932D02*
Y256488D01*
Y247344D02*
Y249376D01*
X150244Y252932D02*
Y256488D01*
Y247344D02*
Y248868D01*
X147704Y256996D02*
Y259536D01*
X148212Y257504D02*
Y259536D01*
X141100Y252932D02*
Y256996D01*
Y246836D02*
Y250392D01*
X141608Y252424D02*
Y256996D01*
Y246836D02*
Y250392D01*
X142116Y252424D02*
Y255472D01*
Y247344D02*
Y249376D01*
X142624Y251916D02*
Y255980D01*
Y247344D02*
Y249376D01*
X143132Y251408D02*
Y255980D01*
Y247344D02*
Y249376D01*
X143640Y250900D02*
Y255980D01*
Y247344D02*
Y249376D01*
X144148Y250900D02*
Y255980D01*
Y247344D02*
Y249376D01*
X144656Y253948D02*
Y255980D01*
Y250392D02*
Y253440D01*
Y247344D02*
Y249376D01*
X145164Y253948D02*
Y255980D01*
Y249884D02*
Y252932D01*
Y247344D02*
Y249376D01*
X145672Y253948D02*
Y255980D01*
Y247344D02*
Y252424D01*
X146180Y253948D02*
Y255980D01*
Y247344D02*
Y252424D01*
X146688Y253948D02*
Y255980D01*
Y247344D02*
Y251916D01*
X140592Y253440D02*
Y256996D01*
Y246836D02*
Y250392D01*
X142116Y257504D02*
Y260552D01*
X142624Y257504D02*
Y260044D01*
X143132Y256996D02*
Y259536D01*
X143640Y256996D02*
Y259536D01*
X144148Y256488D02*
Y259028D01*
X144656Y256488D02*
Y259028D01*
X145164Y256488D02*
Y259028D01*
X145672Y256488D02*
Y259028D01*
X146180Y256488D02*
Y259028D01*
X146688Y256488D02*
Y259028D01*
X107064Y243280D02*
Y249884D01*
X107572Y243280D02*
Y249884D01*
X108080Y242772D02*
Y249376D01*
X108588Y242772D02*
Y249376D01*
X109096Y242772D02*
Y248868D01*
X109604Y242264D02*
Y248868D01*
X110112Y242264D02*
Y248360D01*
X110620Y241756D02*
Y248360D01*
X111128Y241756D02*
Y247852D01*
X100460Y244296D02*
Y250392D01*
X100968Y244296D02*
Y250392D01*
X101476Y244296D02*
Y250392D01*
X101984Y244296D02*
Y250392D01*
X102492Y244296D02*
Y250392D01*
X103000Y244296D02*
Y250392D01*
X103508Y244296D02*
Y250392D01*
X104016Y244296D02*
Y250392D01*
X104524Y244296D02*
Y250392D01*
X105032Y243788D02*
Y250392D01*
X105540Y243788D02*
Y250392D01*
X106048Y243788D02*
Y249884D01*
X92332Y241756D02*
Y247344D01*
X92840Y241756D02*
Y247852D01*
X93348Y242264D02*
Y247852D01*
X93856Y242264D02*
Y248360D01*
X94364Y242772D02*
Y248360D01*
X94872Y242772D02*
Y248868D01*
X95380Y242772D02*
Y249376D01*
X95888Y243280D02*
Y249376D01*
X96396Y243280D02*
Y249376D01*
X96904Y243280D02*
Y249884D01*
X97412Y243788D02*
Y249884D01*
X97920Y243788D02*
Y249884D01*
X98428Y243788D02*
Y250392D01*
X98936Y244296D02*
Y250392D01*
X99444Y244296D02*
Y250392D01*
X99952Y244296D02*
Y250392D01*
X147704Y234136D02*
Y236168D01*
Y230072D02*
Y232612D01*
Y223468D02*
Y225500D01*
X148212Y234136D02*
Y236676D01*
Y229564D02*
Y232612D01*
Y223468D02*
Y226008D01*
X148720Y234136D02*
Y236676D01*
Y229056D02*
Y232104D01*
Y223976D02*
Y226516D01*
X149228Y224484D02*
Y231596D01*
X149736Y224992D02*
Y231088D01*
X150244Y225500D02*
Y230072D01*
X149228Y232612D02*
Y237692D01*
X149736Y232612D02*
Y237692D01*
X150244Y232612D02*
Y237692D01*
X141100Y224992D02*
Y231088D01*
X141608Y224484D02*
Y231596D01*
X142116Y234136D02*
Y236168D01*
Y229564D02*
Y232104D01*
Y223976D02*
Y227024D01*
X142624Y234136D02*
Y236676D01*
Y230072D02*
Y232104D01*
Y223468D02*
Y226008D01*
X143132Y234136D02*
Y236168D01*
Y230072D02*
Y232612D01*
Y223468D02*
Y226008D01*
X143640Y234136D02*
Y236168D01*
Y230580D02*
Y233120D01*
Y222960D02*
Y225500D01*
X144148Y234136D02*
Y236168D01*
Y230580D02*
Y233120D01*
Y222960D02*
Y225500D01*
X144656Y230580D02*
Y233120D01*
Y222960D02*
Y225500D01*
X145164Y230580D02*
Y233120D01*
Y222960D02*
Y224992D01*
X145672Y230580D02*
Y233120D01*
Y222960D02*
Y224992D01*
X146180Y234136D02*
Y236168D01*
Y230580D02*
Y233120D01*
Y222960D02*
Y224992D01*
X146688Y234136D02*
Y236168D01*
Y230580D02*
Y233120D01*
Y222960D02*
Y225500D01*
X140084Y227024D02*
Y229056D01*
X140592Y225500D02*
Y230580D01*
X141100Y233120D02*
Y237692D01*
X141608Y233120D02*
Y237692D01*
X140592Y233120D02*
Y237692D01*
X119256Y222960D02*
Y236676D01*
X119764Y226008D02*
Y234136D01*
X117732Y232104D02*
Y240740D01*
X118748Y221944D02*
Y238200D01*
X84204Y226008D02*
Y233120D01*
X84712Y223468D02*
Y235660D01*
X85220Y221944D02*
Y237184D01*
X147704Y210768D02*
Y213308D01*
Y202640D02*
Y207212D01*
X148212Y210768D02*
Y213308D01*
Y205688D02*
Y207720D01*
Y202640D02*
Y205180D01*
X148720Y210768D02*
Y213308D01*
Y205688D02*
Y208228D01*
Y201624D02*
Y205180D01*
X147704Y215340D02*
Y218388D01*
X148212Y214832D02*
Y217880D01*
X148720Y214324D02*
Y217372D01*
X149228Y205688D02*
Y217372D01*
X149736Y205688D02*
Y216864D01*
X150244Y206196D02*
Y216864D01*
X141100Y209244D02*
Y214324D01*
X141608Y209244D02*
Y214324D01*
X142116Y210768D02*
Y213308D01*
Y202132D02*
Y205180D01*
X142624Y210768D02*
Y213308D01*
Y202640D02*
Y205180D01*
X143132Y210768D02*
Y213308D01*
Y203148D02*
Y205688D01*
X143640Y210768D02*
Y213308D01*
Y203148D02*
Y205688D01*
X144148Y210768D02*
Y213308D01*
Y203656D02*
Y205688D01*
X144656Y210768D02*
Y213308D01*
Y203656D02*
Y206196D01*
X145164Y210768D02*
Y213308D01*
Y203656D02*
Y206196D01*
X145672Y210768D02*
Y213308D01*
Y203656D02*
Y206196D01*
X146180Y210768D02*
Y213308D01*
Y203656D02*
Y206196D01*
X146688Y210768D02*
Y213308D01*
Y203148D02*
Y205688D01*
X140592Y209244D02*
Y214324D01*
X142116Y214832D02*
Y217880D01*
X142624Y214832D02*
Y217372D01*
X143132Y214832D02*
Y217372D01*
X143640Y214832D02*
Y217372D01*
X144148Y214832D02*
Y217372D01*
X144656Y215340D02*
Y218388D01*
X146688Y216356D02*
Y218896D01*
X107064Y209752D02*
Y215848D01*
X107572Y209752D02*
Y216356D01*
X108080Y210260D02*
Y216356D01*
X108588Y210260D02*
Y216356D01*
X109096Y210260D02*
Y216356D01*
X109604Y210768D02*
Y216864D01*
X110112Y210768D02*
Y216864D01*
X110620Y211276D02*
Y216864D01*
X111128Y211784D02*
Y217372D01*
X111636Y211784D02*
Y217372D01*
X112144Y212292D02*
Y217880D01*
X112652Y212800D02*
Y218388D01*
X113160Y213308D02*
Y218388D01*
X113668Y213816D02*
Y218896D01*
X114176Y214324D02*
Y219404D01*
X114684Y214832D02*
Y219912D01*
X115192Y215340D02*
Y220420D01*
X100460Y209244D02*
Y215340D01*
X100968Y209244D02*
Y215340D01*
X101476Y209244D02*
Y215340D01*
X101984Y209244D02*
Y215340D01*
X102492Y209244D02*
Y215340D01*
X103000Y209244D02*
Y215340D01*
X103508Y209244D02*
Y215340D01*
X104016Y209244D02*
Y215340D01*
X104524Y209244D02*
Y215340D01*
X105032Y209244D02*
Y215340D01*
X105540Y209244D02*
Y215848D01*
X106048Y209752D02*
Y215848D01*
X95380Y210260D02*
Y216356D01*
X95888Y210260D02*
Y216356D01*
X96396Y209752D02*
Y216356D01*
X96904Y209752D02*
Y216356D01*
X97412Y209752D02*
Y215848D01*
X97920Y209752D02*
Y215848D01*
X98428Y209244D02*
Y215848D01*
X98936Y209244D02*
Y215848D01*
X99444Y209244D02*
Y215340D01*
X99952Y209244D02*
Y215340D01*
X89284Y214832D02*
Y220420D01*
X89792Y214324D02*
Y219912D01*
X90300Y213816D02*
Y219404D01*
X90808Y213308D02*
Y218896D01*
X91316Y212800D02*
Y218388D01*
X91824Y212292D02*
Y218388D01*
X92332Y211784D02*
Y217880D01*
X92840Y211276D02*
Y217372D01*
X93348Y211276D02*
Y217372D01*
X93856Y211276D02*
Y216864D01*
X94364Y210768D02*
Y216864D01*
X94872Y210260D02*
Y216864D01*
X148720Y197052D02*
Y199592D01*
X147704Y192480D02*
Y195528D01*
Y186384D02*
Y188924D01*
Y182320D02*
Y184352D01*
X148212Y192480D02*
Y195020D01*
Y186384D02*
Y188416D01*
Y182320D02*
Y184352D01*
X148720Y191464D02*
Y194512D01*
Y186384D02*
Y188924D01*
Y181812D02*
Y184352D01*
X149228Y186384D02*
Y194512D01*
X149736Y186384D02*
Y193496D01*
X150244Y187908D02*
Y192988D01*
X147704Y196036D02*
Y198576D01*
X148212Y196544D02*
Y199084D01*
X141100Y186384D02*
Y194004D01*
X141608Y186384D02*
Y194512D01*
X142116Y191972D02*
Y195020D01*
Y186384D02*
Y188924D01*
Y182320D02*
Y184352D01*
X142624Y192480D02*
Y195020D01*
Y186384D02*
Y188416D01*
Y182320D02*
Y184352D01*
X143132Y192988D02*
Y195528D01*
Y186384D02*
Y187908D01*
Y182320D02*
Y184352D01*
X143640Y192988D02*
Y195528D01*
Y186384D02*
Y187908D01*
Y182320D02*
Y184352D01*
X144148Y186384D02*
Y187908D01*
Y182320D02*
Y184352D01*
X145672Y185368D02*
Y189432D01*
X146180Y185368D02*
Y189432D01*
Y182320D02*
Y184352D01*
X146688Y192988D02*
Y195528D01*
Y185368D02*
Y189432D01*
Y182320D02*
Y184352D01*
X137544Y181812D02*
Y183336D01*
X138052Y181304D02*
Y183844D01*
X138560Y180796D02*
Y183844D01*
X140084Y188924D02*
Y191464D01*
X140592Y186384D02*
Y192988D01*
X142116Y196544D02*
Y199592D01*
X142624Y196544D02*
Y199084D01*
X143132Y196036D02*
Y198576D01*
X143640Y196036D02*
Y198576D01*
X144148Y193496D02*
Y198068D01*
X144656Y193496D02*
Y198068D01*
X145164Y193496D02*
Y198068D01*
X145672Y193496D02*
Y198068D01*
X146180Y193496D02*
Y198068D01*
X146688Y196036D02*
Y198068D01*
X107064Y188416D02*
Y194512D01*
X107572Y188416D02*
Y194512D01*
X108080Y188416D02*
Y194512D01*
X108588Y188416D02*
Y194512D01*
X109096Y188416D02*
Y194512D01*
X109604Y188416D02*
Y194512D01*
X110112Y188416D02*
Y194512D01*
X110620Y188416D02*
Y194512D01*
X111128Y188416D02*
Y194512D01*
X111636Y188416D02*
Y194512D01*
X112144Y188416D02*
Y194512D01*
X112652Y188416D02*
Y194512D01*
X113160Y188416D02*
Y194512D01*
X113668Y188416D02*
Y194512D01*
X114176Y188416D02*
Y194512D01*
X114684Y188416D02*
Y194512D01*
X115192Y187908D02*
Y195020D01*
X115700Y187400D02*
Y195020D01*
X116208Y186892D02*
Y195020D01*
X116716Y185876D02*
Y195528D01*
X117224Y183844D02*
Y197560D01*
X100460Y188416D02*
Y194512D01*
X100968Y188416D02*
Y194512D01*
X101476Y188416D02*
Y194512D01*
X101984Y188416D02*
Y194512D01*
X102492Y188416D02*
Y194512D01*
X103000Y188416D02*
Y194512D01*
X103508Y188416D02*
Y194512D01*
X104016Y188416D02*
Y194512D01*
X104524Y188416D02*
Y194512D01*
X105032Y188416D02*
Y194512D01*
X105540Y188416D02*
Y194512D01*
X106048Y188416D02*
Y194512D01*
X86744Y187400D02*
Y196036D01*
X87252Y188416D02*
Y195020D01*
X87760Y188924D02*
Y194512D01*
X88268Y188924D02*
Y194512D01*
X88776Y188924D02*
Y194512D01*
X89284Y188924D02*
Y194512D01*
X89792Y188924D02*
Y194512D01*
X90300Y188416D02*
Y194512D01*
X90808Y188416D02*
Y194512D01*
X91316Y188416D02*
Y194512D01*
X91824Y188416D02*
Y194512D01*
X92332Y188416D02*
Y194512D01*
X92840Y188416D02*
Y194512D01*
X93348Y188416D02*
Y194512D01*
X93856Y188416D02*
Y194512D01*
X94364Y188416D02*
Y194512D01*
X94872Y188416D02*
Y194512D01*
X95380Y188416D02*
Y194512D01*
X95888Y188416D02*
Y194512D01*
X96396Y188416D02*
Y194512D01*
X96904Y188416D02*
Y194512D01*
X97412Y188416D02*
Y194512D01*
X97920Y188416D02*
Y194512D01*
X98428Y188416D02*
Y194512D01*
X98936Y188416D02*
Y194512D01*
X99444Y188416D02*
Y194512D01*
X99952Y188416D02*
Y194512D01*
X147704Y176732D02*
Y178256D01*
X148212Y176732D02*
Y178764D01*
X148720Y176732D02*
Y179272D01*
X147704Y173684D02*
Y175716D01*
Y169620D02*
Y172160D01*
Y164540D02*
Y167080D01*
X148212Y173684D02*
Y175716D01*
Y169112D02*
Y172160D01*
Y164540D02*
Y167080D01*
X148720Y173684D02*
Y175716D01*
Y168604D02*
Y171652D01*
Y164540D02*
Y167080D01*
X150244Y160476D02*
Y170636D01*
X142116Y177240D02*
Y179780D01*
X142624Y177240D02*
Y179272D01*
X143132Y177240D02*
Y178764D01*
X141100Y160476D02*
Y168604D01*
X141608Y160476D02*
Y168096D01*
X142116Y173684D02*
Y175716D01*
Y169112D02*
Y172160D01*
Y164540D02*
Y167080D01*
X142624Y173684D02*
Y175716D01*
Y169112D02*
Y171652D01*
Y164540D02*
Y167080D01*
X143132Y173684D02*
Y175716D01*
Y169112D02*
Y171144D01*
Y164540D02*
Y167080D01*
Y162000D02*
Y163524D01*
X143640Y173684D02*
Y175716D01*
Y169112D02*
Y171652D01*
Y164540D02*
Y167080D01*
Y162000D02*
Y163524D01*
Y160476D02*
Y160984D01*
X144148Y173684D02*
Y175716D01*
Y169112D02*
Y171652D01*
Y164540D02*
Y167080D01*
Y162000D02*
Y163524D01*
X144656Y173684D02*
Y175716D01*
Y169112D02*
Y172668D01*
Y162000D02*
Y167080D01*
X145164Y169620D02*
Y175716D01*
Y162000D02*
Y167080D01*
X145672Y170636D02*
Y175716D01*
Y162000D02*
Y167080D01*
X146180Y170636D02*
Y175716D01*
Y164540D02*
Y167080D01*
Y162000D02*
Y163524D01*
X146688Y173684D02*
Y175716D01*
Y170128D02*
Y173176D01*
Y164540D02*
Y167080D01*
Y162000D02*
Y163524D01*
X140592Y160476D02*
Y168604D01*
X141100Y169620D02*
Y176732D01*
X141608Y169620D02*
Y176732D01*
X140592Y170636D02*
Y176732D01*
X110620Y160476D02*
Y167588D01*
X111128Y160476D02*
Y167588D01*
X111636Y160984D02*
Y168096D01*
X112144Y160984D02*
Y168604D01*
X112652Y161492D02*
Y169112D01*
X113160Y162000D02*
Y169620D01*
X113668Y162508D02*
Y170128D01*
X114176Y163016D02*
Y170636D01*
X114684Y163524D02*
Y171652D01*
X115192Y164032D02*
Y172160D01*
X115700Y164540D02*
Y173176D01*
X116208Y165048D02*
Y174192D01*
X116716Y166064D02*
Y175716D01*
X117224Y166572D02*
Y178256D01*
X87760Y165556D02*
Y175716D01*
X88268Y165048D02*
Y174192D01*
X88776Y164540D02*
Y173176D01*
X89284Y163524D02*
Y172160D01*
X89792Y163016D02*
Y171652D01*
X90300Y163016D02*
Y170636D01*
X90808Y162508D02*
Y170128D01*
X91316Y162000D02*
Y169620D01*
X91824Y161492D02*
Y169112D01*
X92332Y160984D02*
Y168604D01*
X92840Y160984D02*
Y168096D01*
X93348Y160476D02*
Y167588D01*
X87252Y166572D02*
Y177748D01*
X147196Y414984D02*
Y416000D01*
Y406856D02*
Y412444D01*
X86236Y406856D02*
Y412444D01*
X147196Y396696D02*
Y399236D01*
Y390600D02*
Y391108D01*
Y387044D02*
Y389584D01*
Y399744D02*
Y402284D01*
X106556Y392632D02*
Y400252D01*
X86236Y394664D02*
Y402284D01*
X147196Y379932D02*
Y380440D01*
Y376884D02*
Y378408D01*
Y371804D02*
Y374344D01*
Y365200D02*
Y367232D01*
X106556Y374852D02*
Y381456D01*
X147196Y359612D02*
Y361136D01*
Y353516D02*
Y356056D01*
Y346912D02*
Y349452D01*
Y343356D02*
Y345896D01*
X86236Y350468D02*
Y360120D01*
X147196Y331672D02*
Y334212D01*
Y324560D02*
Y326592D01*
Y338276D02*
Y339292D01*
Y309320D02*
Y311352D01*
Y305256D02*
Y307796D01*
Y316432D02*
Y318972D01*
Y298652D02*
Y301700D01*
Y290016D02*
Y292048D01*
Y286460D02*
Y289508D01*
Y295604D02*
Y298144D01*
Y280364D02*
Y280872D01*
Y274776D02*
Y277316D01*
Y268172D02*
Y270204D01*
Y264108D02*
Y266648D01*
X106556Y267664D02*
Y274268D01*
X147196Y253948D02*
Y255980D01*
Y247344D02*
Y251408D01*
Y256996D02*
Y259536D01*
X106556Y243280D02*
Y249884D01*
X147196Y234136D02*
Y236168D01*
Y230072D02*
Y233120D01*
Y222960D02*
Y225500D01*
X86236Y230580D02*
Y240232D01*
X147196Y210768D02*
Y213308D01*
Y203148D02*
Y207212D01*
Y215848D02*
Y218388D01*
X106556Y209752D02*
Y215848D01*
X147196Y192988D02*
Y195528D01*
Y186384D02*
Y188416D01*
Y182320D02*
Y184352D01*
Y196036D02*
Y198576D01*
X106556Y188416D02*
Y194512D01*
X147196Y176732D02*
Y177748D01*
Y173684D02*
Y175716D01*
Y169620D02*
Y172668D01*
Y164540D02*
Y167080D01*
Y162508D02*
Y163016D01*
X149228Y401268D02*
Y408380D01*
X149736Y401776D02*
Y407872D01*
X150244Y402284D02*
Y406856D01*
X147704Y382472D02*
Y385012D01*
X148212Y382472D02*
Y385012D01*
X148720Y381964D02*
Y385012D01*
X149228Y360120D02*
Y368756D01*
X149736Y360120D02*
Y368756D01*
X150244Y360628D02*
Y368756D01*
X149228Y377392D02*
Y390600D01*
X149736Y377392D02*
Y390600D01*
X150244Y377900D02*
Y390600D01*
X141100Y401776D02*
Y407872D01*
X141608Y401268D02*
Y408380D01*
X142116Y400760D02*
Y403808D01*
X140084D02*
Y405840D01*
X142116Y382472D02*
Y384504D01*
X142624Y382472D02*
Y385012D01*
X143132Y382472D02*
Y385012D01*
X143640Y382472D02*
Y385012D01*
X144148Y382472D02*
Y385012D01*
X146180Y382472D02*
Y385012D01*
X146688Y382472D02*
Y385012D01*
X141100Y360628D02*
Y377392D01*
X143132Y362152D02*
Y363676D01*
X143640Y362152D02*
Y363676D01*
X144148Y362152D02*
Y364184D01*
X144656Y362152D02*
Y367232D01*
X145164Y362152D02*
Y367232D01*
X145672Y362152D02*
Y367232D01*
X146180Y362152D02*
Y363676D01*
X146688Y362152D02*
Y363676D01*
X137544Y362152D02*
Y363168D01*
X138052Y361644D02*
Y364184D01*
X138560Y361644D02*
Y364692D01*
X139068Y361644D02*
Y365200D01*
X139576Y362660D02*
Y365708D01*
X140592Y402284D02*
Y407364D01*
Y360628D02*
Y377392D01*
X141100Y377900D02*
Y397712D01*
X144656Y379424D02*
Y385012D01*
X145164Y379424D02*
Y385012D01*
X145672Y379424D02*
Y385012D01*
X140592Y378408D02*
Y397204D01*
X141608Y360628D02*
Y398220D01*
X119764Y400252D02*
Y411428D01*
X120272Y402792D02*
Y408380D01*
X117732Y396188D02*
Y416000D01*
X118240Y396696D02*
Y415492D01*
X118748Y397712D02*
Y414476D01*
X119256Y398728D02*
Y412952D01*
Y354532D02*
Y368248D01*
X119764Y357580D02*
Y365708D01*
X118748Y353516D02*
Y369772D01*
X97920Y402792D02*
Y413968D01*
X98428Y401776D02*
Y413460D01*
X98936Y401268D02*
Y412952D01*
X99444Y400252D02*
Y412444D01*
X100460Y398220D02*
Y411428D01*
X100968Y397204D02*
Y410412D01*
X101476Y396696D02*
Y409396D01*
X101984Y395680D02*
Y408888D01*
X102492Y395172D02*
Y407872D01*
X103000Y394664D02*
Y406856D01*
X103508Y394156D02*
Y405840D01*
X104016Y393648D02*
Y404824D01*
X104524Y393648D02*
Y403808D01*
X99952Y399236D02*
Y411936D01*
X83696Y399744D02*
Y406856D01*
X84204Y397712D02*
Y408888D01*
X84712Y396696D02*
Y409904D01*
X85220Y396188D02*
Y410920D01*
X85728Y395172D02*
Y411936D01*
X84204Y357580D02*
Y364692D01*
X84712Y355040D02*
Y367232D01*
X85220Y353516D02*
Y368756D01*
X147704Y320496D02*
Y323036D01*
X148212Y319988D02*
Y322528D01*
X148720Y319480D02*
Y322528D01*
X148212Y299160D02*
Y302208D01*
X148720Y299668D02*
Y303224D01*
X149228Y300176D02*
Y309320D01*
X149736Y300684D02*
Y309320D01*
X150244Y301700D02*
Y309320D01*
X148212Y279856D02*
Y281888D01*
X148720Y280364D02*
Y288492D01*
X149228Y280872D02*
Y287984D01*
X149736Y281380D02*
Y287476D01*
X149228Y338276D02*
Y346912D01*
X149736Y338784D02*
Y346912D01*
X150244Y338784D02*
Y346912D01*
X144656Y340816D02*
Y345896D01*
X145164Y340816D02*
Y345896D01*
X145672Y340816D02*
Y345896D01*
X141100Y320496D02*
Y327608D01*
X141608Y320496D02*
Y335228D01*
X142116Y319988D02*
Y322528D01*
X142624Y319988D02*
Y322528D01*
X143640Y319988D02*
Y322528D01*
X144148Y319988D02*
Y322528D01*
X144656Y319988D02*
Y323036D01*
X145164Y320496D02*
Y326592D01*
X145672Y321004D02*
Y326592D01*
X146180Y321512D02*
Y326592D01*
X146688Y321004D02*
Y323544D01*
X141100Y300684D02*
Y309320D01*
X141608Y300176D02*
Y309320D01*
X142116Y299668D02*
Y302716D01*
X142624Y299160D02*
Y302208D01*
X141100Y280872D02*
Y287476D01*
X142116Y278840D02*
Y282904D01*
X142624Y279348D02*
Y282396D01*
X143132Y279348D02*
Y281888D01*
X143640Y280364D02*
Y281888D01*
X140592Y339292D02*
Y346912D01*
Y321512D02*
Y327608D01*
Y301700D02*
Y309320D01*
Y280872D02*
Y286968D01*
X141100Y338784D02*
Y346912D01*
X141608Y338784D02*
Y346912D01*
X107064Y341324D02*
Y347420D01*
X107572Y341324D02*
Y347420D01*
X108080Y341832D02*
Y347928D01*
X108588Y341832D02*
Y347928D01*
X109096Y342340D02*
Y347928D01*
X109604Y342340D02*
Y348436D01*
X110112Y342340D02*
Y348436D01*
X110620Y342848D02*
Y348436D01*
X107064Y319988D02*
Y325576D01*
X107572Y319480D02*
Y325576D01*
X108080Y319480D02*
Y325576D01*
X108588Y319480D02*
Y325576D01*
X109096Y319480D02*
Y325576D01*
X109604Y319480D02*
Y325576D01*
X110112Y319480D02*
Y325576D01*
X110620Y319480D02*
Y325576D01*
X111128Y319480D02*
Y325576D01*
X111636Y319480D02*
Y325576D01*
X112144Y319480D02*
Y325576D01*
X112652Y319480D02*
Y325576D01*
X113160Y319480D02*
Y325576D01*
X113668Y319480D02*
Y325576D01*
X114176Y319480D02*
Y325576D01*
X114684Y319480D02*
Y325576D01*
X115192Y319480D02*
Y325576D01*
X115700Y319480D02*
Y325576D01*
X116208Y319480D02*
Y325576D01*
X116716Y319480D02*
Y325576D01*
X107064Y280872D02*
Y286968D01*
X107572Y280872D02*
Y286968D01*
X108080Y280872D02*
Y286968D01*
X108588Y280872D02*
Y286968D01*
X109096Y280872D02*
Y286968D01*
X109604Y280872D02*
Y286968D01*
X110112Y280872D02*
Y286968D01*
X110620Y280872D02*
Y286968D01*
X111128Y280872D02*
Y286968D01*
X111636Y280872D02*
Y286968D01*
X112144Y280872D02*
Y286968D01*
X112652Y280872D02*
Y286968D01*
X113160Y280872D02*
Y286968D01*
X113668Y280872D02*
Y286968D01*
X114176Y280872D02*
Y286968D01*
X114684Y280872D02*
Y287476D01*
X115192Y280872D02*
Y287476D01*
X115700Y280872D02*
Y287476D01*
X116208Y280872D02*
Y287476D01*
X116716Y279856D02*
Y287476D01*
X117224Y317448D02*
Y326084D01*
X117732Y314908D02*
Y328624D01*
X118240Y313384D02*
Y330656D01*
X118748Y313384D02*
Y330656D01*
X119256Y313384D02*
Y330656D01*
X117224Y277824D02*
Y289000D01*
X117732Y275792D02*
Y292556D01*
X118240Y275284D02*
Y293064D01*
X118748Y275284D02*
Y293064D01*
X119256Y275284D02*
Y293064D01*
X100460Y340816D02*
Y346912D01*
X100968Y340816D02*
Y346912D01*
X101476Y340816D02*
Y346912D01*
X101984Y340816D02*
Y346912D01*
X102492Y340816D02*
Y346912D01*
X103000Y340816D02*
Y346912D01*
X103508Y340816D02*
Y346912D01*
X104016Y340816D02*
Y346912D01*
X104524Y340816D02*
Y347420D01*
X105032Y340816D02*
Y347420D01*
X105540Y340816D02*
Y347420D01*
X106048Y340816D02*
Y347420D01*
X93348Y342848D02*
Y348944D01*
X93856Y342340D02*
Y348436D01*
X94364Y342340D02*
Y348436D01*
X94872Y342340D02*
Y348436D01*
X95380Y341832D02*
Y347928D01*
X95888Y341832D02*
Y347928D01*
X96396Y341324D02*
Y347928D01*
X96904Y341324D02*
Y347420D01*
X97412Y341324D02*
Y347420D01*
X97920Y340816D02*
Y347420D01*
X98428Y340816D02*
Y347420D01*
X98936Y340816D02*
Y347420D01*
X99444Y340816D02*
Y347420D01*
X100460Y319988D02*
Y326084D01*
X100968Y319988D02*
Y326084D01*
X101476Y319988D02*
Y326084D01*
X101984Y319988D02*
Y326084D01*
X102492Y319988D02*
Y326084D01*
X103000Y319988D02*
Y326084D01*
X103508Y319988D02*
Y326084D01*
X104016Y319988D02*
Y326084D01*
X104524Y319988D02*
Y326084D01*
X105032Y319988D02*
Y325576D01*
X105540Y319988D02*
Y325576D01*
X106048Y319988D02*
Y325576D01*
X86744Y319480D02*
Y329640D01*
X87252Y320496D02*
Y327608D01*
X87760Y320496D02*
Y326592D01*
X88268Y319988D02*
Y326084D01*
X88776Y319988D02*
Y326084D01*
X89284Y319988D02*
Y326084D01*
X89792Y319988D02*
Y326084D01*
X90300Y319988D02*
Y326084D01*
X90808Y319988D02*
Y326084D01*
X91316Y319988D02*
Y326084D01*
X91824Y320496D02*
Y326084D01*
X92332Y320496D02*
Y326084D01*
X92840Y320496D02*
Y326084D01*
X93348Y320496D02*
Y326084D01*
X93856Y320496D02*
Y326084D01*
X94364Y320496D02*
Y326084D01*
X94872Y320496D02*
Y326084D01*
X95380Y320496D02*
Y326084D01*
X95888Y319988D02*
Y326084D01*
X96396Y319988D02*
Y326084D01*
X96904Y319988D02*
Y326084D01*
X97412Y319988D02*
Y326084D01*
X97920Y319988D02*
Y326084D01*
X98428Y319988D02*
Y326084D01*
X98936Y319988D02*
Y326084D01*
X99444Y319988D02*
Y326084D01*
X88776Y302208D02*
Y309828D01*
X89284Y302208D02*
Y308812D01*
X89792Y301700D02*
Y308812D01*
X90300Y301700D02*
Y308304D01*
X90808Y301192D02*
Y307796D01*
X91316Y301192D02*
Y307796D01*
X91824Y300684D02*
Y307288D01*
X92332Y300684D02*
Y307288D01*
X92840Y300684D02*
Y307288D01*
X93348Y300684D02*
Y306780D01*
X93856Y300684D02*
Y306780D01*
X94364Y300684D02*
Y306780D01*
X94872Y300684D02*
Y306780D01*
X95380Y300684D02*
Y306780D01*
X95888Y300684D02*
Y306780D01*
X96396Y300684D02*
Y306780D01*
X96904Y300684D02*
Y307288D01*
X97412Y301192D02*
Y307288D01*
X97920Y301192D02*
Y307288D01*
X98428Y301192D02*
Y307796D01*
X98936Y301700D02*
Y307796D01*
X99444Y301700D02*
Y308304D01*
X103000Y281380D02*
Y286968D01*
X103508Y280872D02*
Y286968D01*
X104016Y280872D02*
Y286968D01*
X104524Y280872D02*
Y286968D01*
X105032Y280872D02*
Y286968D01*
X105540Y280872D02*
Y286968D01*
X106048Y280872D02*
Y286968D01*
X86744Y279856D02*
Y291540D01*
X87252Y281380D02*
Y288492D01*
X87760Y281380D02*
Y287476D01*
X88268Y281380D02*
Y286968D01*
X88776Y281380D02*
Y286968D01*
X89284Y280872D02*
Y286968D01*
X89792Y280872D02*
Y286968D01*
X90300Y280872D02*
Y286968D01*
X90808Y280872D02*
Y286968D01*
X91316Y280872D02*
Y286968D01*
X91824Y280872D02*
Y286968D01*
X92332Y280872D02*
Y286968D01*
X92840Y280872D02*
Y286968D01*
X93348Y280872D02*
Y286968D01*
X93856Y280872D02*
Y286968D01*
X94364Y280872D02*
Y286968D01*
X94872Y280872D02*
Y286968D01*
X95380Y280872D02*
Y286968D01*
X95888Y280872D02*
Y286968D01*
X96396Y280872D02*
Y286968D01*
X96904Y280872D02*
Y286968D01*
X97412Y280872D02*
Y286968D01*
X97920Y280872D02*
Y286968D01*
X98428Y280872D02*
Y286968D01*
X98936Y280872D02*
Y286968D01*
X99444Y280872D02*
Y286968D01*
X99952Y340816D02*
Y347420D01*
Y319988D02*
Y326084D01*
Y302208D02*
Y308812D01*
Y280872D02*
Y286968D01*
X84712Y307796D02*
Y331672D01*
X85220Y306272D02*
Y332180D01*
X85728Y305256D02*
Y332180D01*
X84204Y274776D02*
Y290016D01*
X149228Y258012D02*
Y265632D01*
X149736Y258520D02*
Y265124D01*
X150244Y259536D02*
Y264108D01*
X147704Y240232D02*
Y242772D01*
X148212Y240232D02*
Y242772D01*
X148720Y240232D02*
Y242772D01*
X149228Y239216D02*
Y243788D01*
X149736Y239216D02*
Y243788D01*
X150244Y239216D02*
Y243788D01*
X147704Y219404D02*
Y221944D01*
X148212Y219404D02*
Y221944D01*
X148720Y219404D02*
Y221944D01*
X149228Y218388D02*
Y222960D01*
X149736Y218388D02*
Y222960D01*
X150244Y218388D02*
Y222960D01*
X149228Y197052D02*
Y204672D01*
X149736Y197560D02*
Y204164D01*
X150244Y198576D02*
Y203148D01*
X141100Y258520D02*
Y265124D01*
X141608Y258012D02*
Y265632D01*
X140084Y260552D02*
Y263092D01*
X141100Y239216D02*
Y243788D01*
X141608Y239216D02*
Y243788D01*
X142116Y240232D02*
Y242772D01*
X142624Y240232D02*
Y242772D01*
X143132Y240232D02*
Y242772D01*
X143640Y240232D02*
Y242772D01*
X144148Y240232D02*
Y242772D01*
X146180Y240232D02*
Y242772D01*
X146688Y240232D02*
Y242772D01*
X142116Y219404D02*
Y221944D01*
X142624Y219404D02*
Y221944D01*
X143132Y219404D02*
Y221944D01*
X143640Y219404D02*
Y221944D01*
X144148Y219404D02*
Y221944D01*
X144656Y219404D02*
Y221944D01*
X146688Y219404D02*
Y221944D01*
X141100Y197560D02*
Y204164D01*
X141608Y197052D02*
Y204672D01*
X140084Y199592D02*
Y201624D01*
X140592Y259536D02*
Y264108D01*
Y239216D02*
Y243788D01*
Y198576D02*
Y203148D01*
X141100Y215848D02*
Y222960D01*
X141608Y215340D02*
Y222960D01*
X144656Y234136D02*
Y242772D01*
X145164Y234136D02*
Y242772D01*
Y215340D02*
Y221944D01*
X145672Y234136D02*
Y242772D01*
Y216356D02*
Y221944D01*
X146180Y216356D02*
Y221944D01*
X140592Y216356D02*
Y222960D01*
X115700Y261568D02*
Y269188D01*
X116208Y261060D02*
Y268680D01*
X116716Y260044D02*
Y268680D01*
X117224Y258012D02*
Y268172D01*
X111636Y241248D02*
Y247852D01*
X112144Y241248D02*
Y247344D01*
X112652Y240740D02*
Y246836D01*
X113160Y240232D02*
Y246328D01*
X113668Y239724D02*
Y245820D01*
X114176Y239216D02*
Y245312D01*
X114684Y238708D02*
Y244804D01*
X115192Y238200D02*
Y244296D01*
X115700Y237692D02*
Y243788D01*
X116716Y217372D02*
Y222960D01*
X117224Y218388D02*
Y224992D01*
X117732Y219404D02*
Y228040D01*
X115700Y215848D02*
Y221436D01*
X116208Y236676D02*
Y243280D01*
Y216864D02*
Y222452D01*
X116716Y235660D02*
Y242264D01*
X117224Y234644D02*
Y241756D01*
X117732Y255980D02*
Y267664D01*
X118240Y255472D02*
Y267664D01*
Y220420D02*
Y239216D01*
X118748Y255472D02*
Y267156D01*
X119256Y255472D02*
Y267156D01*
X119764Y193496D02*
Y200608D01*
X88268Y237692D02*
Y243788D01*
X88776Y238708D02*
Y244296D01*
X89284Y239216D02*
Y244804D01*
X89792Y239724D02*
Y245312D01*
X90300Y240232D02*
Y245820D01*
X90808Y240740D02*
Y246328D01*
X91316Y240740D02*
Y246836D01*
X91824Y241248D02*
Y246836D01*
X86744Y217880D02*
Y224992D01*
Y234136D02*
Y241248D01*
X87252Y235660D02*
Y242264D01*
Y216864D02*
Y223976D01*
X87760Y237184D02*
Y242772D01*
Y216356D02*
Y222960D01*
X88268Y215848D02*
Y221944D01*
X88776Y215340D02*
Y221436D01*
X85728Y220420D02*
Y238708D01*
X147704Y159460D02*
Y160984D01*
X148212Y159460D02*
Y161492D01*
X148720Y159460D02*
Y162000D01*
X149228Y159968D02*
Y171144D01*
X149736Y159968D02*
Y171144D01*
X149228Y172160D02*
Y185876D01*
X149736Y172160D02*
Y185876D01*
X150244Y172160D02*
Y185876D01*
X141100Y177748D02*
Y185876D01*
X141608Y177748D02*
Y185368D01*
X143132Y179272D02*
Y180796D01*
X143640Y179272D02*
Y180796D01*
X144148Y179272D02*
Y180796D01*
X144656Y179272D02*
Y184352D01*
X145164Y179272D02*
Y184352D01*
X145672Y179272D02*
Y184352D01*
X146180Y179272D02*
Y180796D01*
X146688Y179272D02*
Y180796D01*
X139068Y180288D02*
Y183336D01*
X139576Y179780D02*
Y182828D01*
X140084Y179780D02*
Y181812D01*
X142116Y159968D02*
Y162508D01*
X142624Y159968D02*
Y162000D01*
X143132Y159968D02*
Y161492D01*
X140592Y177748D02*
Y185876D01*
X107064Y158952D02*
Y165556D01*
X107572Y158952D02*
Y166064D01*
X108080Y158952D02*
Y166064D01*
X108588Y159460D02*
Y166064D01*
X109096Y159460D02*
Y166572D01*
X109604Y159968D02*
Y166572D01*
X110112Y159968D02*
Y167080D01*
X119764Y175208D02*
Y186892D01*
X100460Y157936D02*
Y165048D01*
X100968Y157936D02*
Y165048D01*
X101476Y157936D02*
Y165048D01*
X101984Y157936D02*
Y165048D01*
X102492Y157936D02*
Y165048D01*
X103000Y157936D02*
Y165048D01*
X103508Y157936D02*
Y165048D01*
X104016Y157936D02*
Y165048D01*
X104524Y158444D02*
Y165048D01*
X105032Y158444D02*
Y165048D01*
X105540Y158444D02*
Y165048D01*
X106048Y158444D02*
Y165556D01*
X93856Y159968D02*
Y167588D01*
X94364Y159968D02*
Y167080D01*
X94872Y159460D02*
Y166572D01*
X95380Y159460D02*
Y166572D01*
X95888Y159460D02*
Y166572D01*
X96396Y158952D02*
Y166064D01*
X96904Y158952D02*
Y166064D01*
X97412Y158444D02*
Y166064D01*
X97920Y158444D02*
Y165556D01*
X98428Y158444D02*
Y165556D01*
X98936Y158444D02*
Y165556D01*
X99444Y158444D02*
Y165556D01*
X99952Y157936D02*
Y165048D01*
X86744Y167080D02*
Y180288D01*
X147196Y382472D02*
Y385012D01*
Y362660D02*
Y363168D01*
X86236Y362152D02*
Y371804D01*
X147196Y320496D02*
Y323544D01*
X106556Y341324D02*
Y347420D01*
Y319988D02*
Y325576D01*
Y280872D02*
Y286968D01*
X86236Y304748D02*
Y331672D01*
X147196Y240232D02*
Y242772D01*
Y219404D02*
Y221944D01*
X86236Y218896D02*
Y228548D01*
X147196Y179272D02*
Y180288D01*
Y159460D02*
Y160984D01*
X106556Y158952D02*
Y165556D01*
X118240Y351992D02*
Y370788D01*
X85728Y351992D02*
Y370280D01*
X141608Y267156D02*
Y287984D01*
X117732Y167588D02*
Y200100D01*
X118240Y169112D02*
Y200608D01*
X118748Y170636D02*
Y200608D01*
X119256Y172160D02*
Y200608D01*
X100460Y268680D02*
Y286968D01*
X100968Y269696D02*
Y286968D01*
X101476Y270712D02*
Y286968D01*
X101984Y270712D02*
Y286968D01*
X102492Y270204D02*
Y286968D01*
X84204Y175208D02*
Y200100D01*
X84712Y172668D02*
Y200100D01*
X85220Y171144D02*
Y200100D01*
X85728Y169620D02*
Y199592D01*
X84712Y271220D02*
Y292556D01*
X85220Y269696D02*
Y293064D01*
X85728Y268172D02*
Y293064D01*
X86236Y168604D02*
Y198576D01*
Y267664D02*
Y292556D01*
D11*
X270000Y297000D02*
X274000D01*
X270000Y289000D02*
X274000D01*
X220000Y173000D02*
X224000D01*
X220000Y181000D02*
X224000D01*
X174730Y195550D02*
Y284450D01*
X685270Y284450D01*
X174730Y195550D02*
X685270D01*
Y284450D01*
X802000Y257000D02*
X928000Y257000D01*
X802000Y383000D02*
X928000Y383000D01*
X928000Y257000D01*
X802000Y383000D02*
X802000Y257000D01*
X226000Y143000D02*
Y147000D01*
X234000Y143000D02*
Y147000D01*
X256000Y143000D02*
Y147000D01*
X264000Y143000D02*
Y147000D01*
X817000Y123000D02*
Y127000D01*
X809000Y123000D02*
Y126999D01*
Y125000D02*
X817000D01*
X809000Y126000D02*
X817000D01*
X809000Y127000D02*
X817000D01*
X738000Y288450D02*
X742000D01*
X738000Y280450D02*
X742000D01*
X930000Y193000D02*
Y197000D01*
X938000Y193000D02*
Y197000D01*
X738000Y388000D02*
X742000D01*
X738000Y380000D02*
X742000D01*
X738000Y274000D02*
X742000D01*
X738000Y266000D02*
X742000D01*
X929000Y443000D02*
Y447000D01*
X921000Y443000D02*
Y447000D01*
X915000Y443000D02*
Y447000D01*
X907000Y443000D02*
Y447000D01*
X852000Y193000D02*
Y197000D01*
X844000Y193000D02*
Y197000D01*
X896000Y193000D02*
Y197000D01*
X888000Y193000D02*
Y197000D01*
X830000Y193000D02*
Y197000D01*
X838000Y193000D02*
Y197000D01*
X809000Y193000D02*
Y197000D01*
X817000Y193000D02*
Y197000D01*
X795000Y193000D02*
Y197000D01*
X803000Y193000D02*
Y197000D01*
X727000Y520029D02*
Y550029D01*
X753000Y520029D02*
Y550029D01*
X727000D02*
X729000D01*
X751000Y520029D02*
X753000D01*
X751000Y550029D02*
X753000D01*
X727000Y520029D02*
X729000D01*
X383250Y550000D02*
Y580350D01*
X196750D02*
X383250D01*
X196750Y555000D02*
Y580350D01*
Y481350D02*
X215000D01*
X196750D02*
Y515000D01*
X365000Y481350D02*
X383250D01*
Y515000D01*
X766012Y154000D02*
X770012D01*
X766012Y146000D02*
X770012D01*
X766012Y94000D02*
X770012D01*
X766012Y86000D02*
X770012D01*
X780000Y111000D02*
Y129000D01*
X748000Y111000D02*
Y129000D01*
X711250Y53000D02*
X814750D01*
X711250Y-16250D02*
X814750D01*
X711250D02*
Y53000D01*
X814750Y-16250D02*
Y53000D01*
X623000Y400000D02*
Y450000D01*
X657000Y400000D02*
Y450000D01*
X623000D02*
X657000D01*
X623000Y400000D02*
X657000D01*
X316000Y433000D02*
Y437000D01*
X324000Y433000D02*
Y437000D01*
X346000Y433000D02*
Y437000D01*
X354000Y433000D02*
Y437000D01*
X576000Y423000D02*
Y427000D01*
X584000Y423000D02*
Y427000D01*
X831000Y123000D02*
Y127000D01*
X823000Y123000D02*
Y127000D01*
X615000Y382986D02*
X619000D01*
X615000Y390986D02*
X619000D01*
X661000Y391002D02*
X665000D01*
X661000Y383002D02*
X665000D01*
X196750Y-350D02*
Y30000D01*
Y-350D02*
X383250D01*
Y25000D01*
X365000Y98650D02*
X383250D01*
Y65000D02*
Y98650D01*
X196750D02*
X215000D01*
X196750Y65000D02*
Y98650D01*
D12*
X364000Y470000D02*
G03*
X366000Y470000I1000J0D01*
G01*
D02*
G03*
X364000Y470000I-1000J0D01*
G01*
X749000Y135000D02*
G03*
X749000Y135000I-1000J0D01*
G01*
X216000Y110000D02*
G03*
X214000Y110000I-1000J0D01*
G01*
D02*
G03*
X216000Y110000I1000J0D01*
G01*
X575000Y371390D02*
Y374722D01*
Y373056D01*
X584997D01*
X583331Y371390D01*
X575000Y386385D02*
Y379721D01*
X581665Y386385D01*
X583331D01*
X584997Y384719D01*
Y381387D01*
X583331Y379721D01*
Y389717D02*
X584997Y391384D01*
Y394716D01*
X583331Y396382D01*
X576666D01*
X575000Y394716D01*
Y391384D01*
X576666Y389717D01*
X583331D01*
X575000Y399714D02*
X584997D01*
Y404713D01*
X583331Y406379D01*
X579998D01*
X578332Y404713D01*
Y399714D01*
Y403046D02*
X575000Y406379D01*
X988590Y364997D02*
X981926D01*
X985258D01*
Y355000D01*
X978593D02*
Y364997D01*
X973595D01*
X971929Y363331D01*
Y359998D01*
X973595Y358332D01*
X978593D01*
X961932Y364997D02*
X965264Y363331D01*
X968596Y359998D01*
Y356666D01*
X966930Y355000D01*
X963598D01*
X961932Y356666D01*
Y358332D01*
X963598Y359998D01*
X968596D01*
X1055000Y379997D02*
X1048335D01*
X1051668D01*
Y370000D01*
X1045003D02*
Y379997D01*
X1040005D01*
X1038339Y378331D01*
Y374998D01*
X1040005Y373332D01*
X1045003D01*
X1035006Y379997D02*
X1028342D01*
Y378331D01*
X1035006Y371666D01*
Y370000D01*
X1055000Y349997D02*
X1048335D01*
X1051668D01*
Y340000D01*
X1045003D02*
Y349997D01*
X1040005D01*
X1038339Y348331D01*
Y344998D01*
X1040005Y343332D01*
X1045003D01*
X1035006Y348331D02*
X1033340Y349997D01*
X1030008D01*
X1028342Y348331D01*
Y346665D01*
X1030008Y344998D01*
X1031674D01*
X1030008D01*
X1028342Y343332D01*
Y341666D01*
X1030008Y340000D01*
X1033340D01*
X1035006Y341666D01*
X1055000Y334997D02*
X1048335D01*
X1051668D01*
Y325000D01*
X1045003D02*
Y334997D01*
X1040005D01*
X1038339Y333331D01*
Y329998D01*
X1040005Y328332D01*
X1045003D01*
X1035006Y325000D02*
X1031674D01*
X1033340D01*
Y334997D01*
X1035006Y333331D01*
X1055000Y364997D02*
X1048335D01*
X1051668D01*
Y355000D01*
X1045003D02*
Y364997D01*
X1040005D01*
X1038339Y363331D01*
Y359998D01*
X1040005Y358332D01*
X1045003D01*
X1028342Y364997D02*
X1035006D01*
Y359998D01*
X1031674Y361665D01*
X1030008D01*
X1028342Y359998D01*
Y356666D01*
X1030008Y355000D01*
X1033340D01*
X1035006Y356666D01*
X988590Y380032D02*
X981926D01*
X985258D01*
Y370035D01*
X978593D02*
Y380032D01*
X973595D01*
X971929Y378365D01*
Y375033D01*
X973595Y373367D01*
X978593D01*
X968596Y378365D02*
X966930Y380032D01*
X963598D01*
X961932Y378365D01*
Y376699D01*
X963598Y375033D01*
X961932Y373367D01*
Y371701D01*
X963598Y370035D01*
X966930D01*
X968596Y371701D01*
Y373367D01*
X966930Y375033D01*
X968596Y376699D01*
Y378365D01*
X966930Y375033D02*
X963598D01*
X988590Y349997D02*
X981926D01*
X985258D01*
Y340000D01*
X978593D02*
Y349997D01*
X973595D01*
X971929Y348331D01*
Y344998D01*
X973595Y343332D01*
X978593D01*
X963598Y340000D02*
Y349997D01*
X968596Y344998D01*
X961932D01*
X988590Y334997D02*
X981926D01*
X985258D01*
Y325000D01*
X978593D02*
Y334997D01*
X973595D01*
X971929Y333331D01*
Y329998D01*
X973595Y328332D01*
X978593D01*
X961932Y325000D02*
X968596D01*
X961932Y331665D01*
Y333331D01*
X963598Y334997D01*
X966930D01*
X968596Y333331D01*
X169500Y272000D02*
Y281997D01*
X164502D01*
X162836Y280331D01*
Y276998D01*
X164502Y275332D01*
X169500D01*
X159503Y272000D02*
X156171D01*
X157837D01*
Y281997D01*
X159503Y280331D01*
X698500Y138331D02*
X696834Y139997D01*
X693502D01*
X691835Y138331D01*
Y136664D01*
X693502Y134998D01*
X695168D01*
X693502D01*
X691835Y133332D01*
Y131666D01*
X693502Y130000D01*
X696834D01*
X698500Y131666D01*
X688503Y136664D02*
X685171Y130000D01*
X681839Y136664D01*
X678506Y138331D02*
X676840Y139997D01*
X673508D01*
X671842Y138331D01*
Y136664D01*
X673508Y134998D01*
X675174D01*
X673508D01*
X671842Y133332D01*
Y131666D01*
X673508Y130000D01*
X676840D01*
X678506Y131666D01*
X836000Y82000D02*
X845997D01*
X842664Y85332D01*
X845997Y88665D01*
X836000D01*
X844331Y98661D02*
X845997Y96995D01*
Y93663D01*
X844331Y91997D01*
X842664D01*
X840998Y93663D01*
Y96995D01*
X839332Y98661D01*
X837666D01*
X836000Y96995D01*
Y93663D01*
X837666Y91997D01*
X845997Y101994D02*
X836000D01*
Y106992D01*
X837666Y108658D01*
X839332D01*
X840998Y106992D01*
Y101994D01*
Y106992D01*
X842664Y108658D01*
X844331D01*
X845997Y106992D01*
Y101994D01*
X901997Y82000D02*
X892000D01*
Y88665D01*
X900331Y98661D02*
X901997Y96995D01*
Y93663D01*
X900331Y91997D01*
X898664D01*
X896998Y93663D01*
Y96995D01*
X895332Y98661D01*
X893666D01*
X892000Y96995D01*
Y93663D01*
X893666Y91997D01*
X901997Y101994D02*
X892000D01*
Y106992D01*
X893666Y108658D01*
X895332D01*
X896998Y106992D01*
Y101994D01*
Y106992D01*
X898664Y108658D01*
X900331D01*
X901997Y106992D01*
Y101994D01*
X686336Y104997D02*
X693000D01*
Y99998D01*
X689668Y101664D01*
X688002D01*
X686336Y99998D01*
Y96666D01*
X688002Y95000D01*
X691334D01*
X693000Y96666D01*
X683003Y104997D02*
Y98332D01*
X679671Y95000D01*
X676339Y98332D01*
Y104997D01*
X1020000Y110000D02*
Y119997D01*
X1016668Y116664D01*
X1013335Y119997D01*
Y110000D01*
X1003339Y119997D02*
X1006671Y118331D01*
X1010003Y114998D01*
Y111666D01*
X1008337Y110000D01*
X1005005D01*
X1003339Y111666D01*
Y113332D01*
X1005005Y114998D01*
X1010003D01*
X540000Y110000D02*
Y119997D01*
X536668Y116664D01*
X533335Y119997D01*
Y110000D01*
X523339Y119997D02*
X530003D01*
Y114998D01*
X526671Y116664D01*
X525005D01*
X523339Y114998D01*
Y111666D01*
X525005Y110000D01*
X528337D01*
X530003Y111666D01*
X50000Y110000D02*
Y119997D01*
X46668Y116664D01*
X43335Y119997D01*
Y110000D01*
X35005D02*
Y119997D01*
X40003Y114998D01*
X33339D01*
X1020000Y460000D02*
Y469997D01*
X1016668Y466665D01*
X1013335Y469997D01*
Y460000D01*
X1010003Y468331D02*
X1008337Y469997D01*
X1005005D01*
X1003339Y468331D01*
Y466665D01*
X1005005Y464998D01*
X1006671D01*
X1005005D01*
X1003339Y463332D01*
Y461666D01*
X1005005Y460000D01*
X1008337D01*
X1010003Y461666D01*
X540000Y460000D02*
Y469997D01*
X536668Y466665D01*
X533335Y469997D01*
Y460000D01*
X523339D02*
X530003D01*
X523339Y466665D01*
Y468331D01*
X525005Y469997D01*
X528337D01*
X530003Y468331D01*
X50000Y460000D02*
Y469997D01*
X46668Y466665D01*
X43335Y469997D01*
Y460000D01*
X40003D02*
X36671D01*
X38337D01*
Y469997D01*
X40003Y468331D01*
X823335Y475657D02*
X826668D01*
X825002D01*
Y467326D01*
X826668Y465660D01*
X828334D01*
X830000Y467326D01*
X820003Y465660D02*
X816671D01*
X818337D01*
Y475657D01*
X820003Y473991D01*
X278331Y143665D02*
X279997Y141998D01*
Y138666D01*
X278331Y137000D01*
X271666D01*
X270000Y138666D01*
Y141998D01*
X271666Y143665D01*
Y146997D02*
X270000Y148663D01*
Y151995D01*
X271666Y153661D01*
X278331D01*
X279997Y151995D01*
Y148663D01*
X278331Y146997D01*
X276665D01*
X274998Y148663D01*
Y153661D01*
X218331Y143665D02*
X219997Y141998D01*
Y138666D01*
X218331Y137000D01*
X211666D01*
X210000Y138666D01*
Y141998D01*
X211666Y143665D01*
X210000Y153661D02*
Y146997D01*
X216665Y153661D01*
X218331D01*
X219997Y151995D01*
Y148663D01*
X218331Y146997D01*
X170000Y226610D02*
Y216613D01*
X165002D01*
X163335Y218279D01*
Y219945D01*
X165002Y221612D01*
X170000D01*
X165002D01*
X163335Y223278D01*
Y224944D01*
X165002Y226610D01*
X170000D01*
X160003Y216613D02*
X156671D01*
X158337D01*
Y226610D01*
X160003Y224944D01*
X928331Y469664D02*
X929997Y467998D01*
Y464666D01*
X928331Y463000D01*
X921666D01*
X920000Y464666D01*
Y467998D01*
X921666Y469664D01*
X920000Y472997D02*
Y476329D01*
Y474663D01*
X929997D01*
X928331Y472997D01*
X929997Y487992D02*
Y481327D01*
X924998D01*
X926665Y484660D01*
Y486326D01*
X924998Y487992D01*
X921666D01*
X920000Y486326D01*
Y482994D01*
X921666Y481327D01*
X874997Y156000D02*
X865000Y162665D01*
X874997D02*
X865000Y156000D01*
Y165997D02*
Y169329D01*
Y167663D01*
X874997D01*
X873331Y165997D01*
X648000Y465370D02*
Y457039D01*
X646334Y455373D01*
X643002D01*
X641336Y457039D01*
Y465370D01*
X638003Y463704D02*
X636337Y465370D01*
X633005D01*
X631339Y463704D01*
Y462038D01*
X633005Y460372D01*
X634671D01*
X633005D01*
X631339Y458705D01*
Y457039D01*
X633005Y455373D01*
X636337D01*
X638003Y457039D01*
X962000Y240997D02*
Y232666D01*
X960334Y231000D01*
X957002D01*
X955335Y232666D01*
Y240997D01*
X945339Y231000D02*
X952003D01*
X945339Y237665D01*
Y239331D01*
X947005Y240997D01*
X950337D01*
X952003Y239331D01*
X743000Y156997D02*
Y148666D01*
X741334Y147000D01*
X738002D01*
X736336Y148666D01*
Y156997D01*
X733003Y147000D02*
X729671D01*
X731337D01*
Y156997D01*
X733003Y155331D01*
X713335Y538481D02*
X715002Y540147D01*
X718334D01*
X720000Y538481D01*
Y536814D01*
X718334Y535148D01*
X715002D01*
X713335Y533482D01*
Y531816D01*
X715002Y530150D01*
X718334D01*
X720000Y531816D01*
X710003Y530150D02*
X706671D01*
X708337D01*
Y540147D01*
X710003Y538481D01*
X575000Y443181D02*
X584997D01*
Y448180D01*
X583331Y449846D01*
X579998D01*
X578332Y448180D01*
Y443181D01*
Y446513D02*
X575000Y449846D01*
Y459842D02*
Y453178D01*
X581665Y459842D01*
X583331D01*
X584997Y458176D01*
Y454844D01*
X583331Y453178D01*
X584997Y469839D02*
Y463175D01*
X579998D01*
X581665Y466507D01*
Y468173D01*
X579998Y469839D01*
X576666D01*
X575000Y468173D01*
Y464841D01*
X576666Y463175D01*
X821900Y86000D02*
X831897D01*
Y90998D01*
X830231Y92664D01*
X826898D01*
X825232Y90998D01*
Y86000D01*
Y89332D02*
X821900Y92664D01*
X831897Y102661D02*
Y95997D01*
X826898D01*
X828565Y99329D01*
Y100995D01*
X826898Y102661D01*
X823566D01*
X821900Y100995D01*
Y97663D01*
X823566Y95997D01*
X817997Y86000D02*
X808000D01*
Y92664D01*
X817997Y95997D02*
X808000D01*
Y100995D01*
X809666Y102661D01*
X816331D01*
X817997Y100995D01*
Y95997D01*
X808000Y105994D02*
Y109326D01*
Y107660D01*
X817997D01*
X816331Y105994D01*
X830336Y50997D02*
X833668D01*
X832002D01*
Y42666D01*
X833668Y41000D01*
X835334D01*
X837000Y42666D01*
X827003Y50997D02*
X820339D01*
Y49331D01*
X827003Y42666D01*
Y41000D01*
X183335Y115997D02*
X186668D01*
X185002D01*
Y107666D01*
X186668Y106000D01*
X188334D01*
X190000Y107666D01*
X180003Y114331D02*
X178337Y115997D01*
X175005D01*
X173339Y114331D01*
Y112664D01*
X175005Y110998D01*
X176671D01*
X175005D01*
X173339Y109332D01*
Y107666D01*
X175005Y106000D01*
X178337D01*
X180003Y107666D01*
X399563Y474514D02*
X402896D01*
X401230D01*
Y466183D01*
X402896Y464517D01*
X404562D01*
X406228Y466183D01*
X389567Y464517D02*
X396231D01*
X389567Y471182D01*
Y472848D01*
X391233Y474514D01*
X394565D01*
X396231Y472848D01*
X622336Y376331D02*
X624002Y377997D01*
X627334D01*
X629000Y376331D01*
Y369666D01*
X627334Y368000D01*
X624002D01*
X622336Y369666D01*
X612339Y368000D02*
X619003D01*
X612339Y374664D01*
Y376331D01*
X614005Y377997D01*
X617337D01*
X619003Y376331D01*
X609006Y368000D02*
X605674D01*
X607340D01*
Y377997D01*
X609006Y376331D01*
X670134Y376197D02*
X671800Y377863D01*
X675132D01*
X676798Y376197D01*
Y369532D01*
X675132Y367866D01*
X671800D01*
X670134Y369532D01*
X660137Y367866D02*
X666801D01*
X660137Y374530D01*
Y376197D01*
X661803Y377863D01*
X665135D01*
X666801Y376197D01*
X656805D02*
X655138Y377863D01*
X651806D01*
X650140Y376197D01*
Y369532D01*
X651806Y367866D01*
X655138D01*
X656805Y369532D01*
Y376197D01*
X716336Y288781D02*
X718002Y290447D01*
X721334D01*
X723000Y288781D01*
Y282116D01*
X721334Y280450D01*
X718002D01*
X716336Y282116D01*
X713003Y280450D02*
X709671D01*
X711337D01*
Y290447D01*
X713003Y288781D01*
X704673Y282116D02*
X703006Y280450D01*
X699674D01*
X698008Y282116D01*
Y288781D01*
X699674Y290447D01*
X703006D01*
X704673Y288781D01*
Y287115D01*
X703006Y285448D01*
X698008D01*
X937331Y157664D02*
X938997Y155998D01*
Y152666D01*
X937331Y151000D01*
X930666D01*
X929000Y152666D01*
Y155998D01*
X930666Y157664D01*
X929000Y160997D02*
Y164329D01*
Y162663D01*
X938997D01*
X937331Y160997D01*
Y169327D02*
X938997Y170994D01*
Y174326D01*
X937331Y175992D01*
X935665D01*
X933998Y174326D01*
X932332Y175992D01*
X930666D01*
X929000Y174326D01*
Y170994D01*
X930666Y169327D01*
X932332D01*
X933998Y170994D01*
X935665Y169327D01*
X937331D01*
X933998Y170994D02*
Y174326D01*
X716336Y387331D02*
X718002Y388997D01*
X721334D01*
X723000Y387331D01*
Y380666D01*
X721334Y379000D01*
X718002D01*
X716336Y380666D01*
X713003Y379000D02*
X709671D01*
X711337D01*
Y388997D01*
X713003Y387331D01*
X704673Y388997D02*
X698008D01*
Y387331D01*
X704673Y380666D01*
Y379000D01*
X716336Y273471D02*
X718002Y275137D01*
X721334D01*
X723000Y273471D01*
Y266806D01*
X721334Y265140D01*
X718002D01*
X716336Y266806D01*
X713003Y265140D02*
X709671D01*
X711337D01*
Y275137D01*
X713003Y273471D01*
X698008Y275137D02*
X701340Y273471D01*
X704673Y270138D01*
Y266806D01*
X703006Y265140D01*
X699674D01*
X698008Y266806D01*
Y268472D01*
X699674Y270138D01*
X704673D01*
X914331Y469664D02*
X915997Y467998D01*
Y464666D01*
X914331Y463000D01*
X907666D01*
X906000Y464666D01*
Y467998D01*
X907666Y469664D01*
X906000Y472997D02*
Y476329D01*
Y474663D01*
X915997D01*
X914331Y472997D01*
X906000Y486326D02*
X915997D01*
X910998Y481327D01*
Y487992D01*
X773586Y167331D02*
X775252Y168997D01*
X778584D01*
X780250Y167331D01*
Y160666D01*
X778584Y159000D01*
X775252D01*
X773586Y160666D01*
X770253Y159000D02*
X766921D01*
X768587D01*
Y168997D01*
X770253Y167331D01*
X761923D02*
X760257Y168997D01*
X756924D01*
X755258Y167331D01*
Y165665D01*
X756924Y163998D01*
X758590D01*
X756924D01*
X755258Y162332D01*
Y160666D01*
X756924Y159000D01*
X760257D01*
X761923Y160666D01*
X773335Y79331D02*
X775002Y80997D01*
X778334D01*
X780000Y79331D01*
Y72666D01*
X778334Y71000D01*
X775002D01*
X773335Y72666D01*
X770003Y71000D02*
X766671D01*
X768337D01*
Y80997D01*
X770003Y79331D01*
X755008Y71000D02*
X761673D01*
X755008Y77664D01*
Y79331D01*
X756674Y80997D01*
X760006D01*
X761673Y79331D01*
X851331Y157664D02*
X852997Y155998D01*
Y152666D01*
X851331Y151000D01*
X844666D01*
X843000Y152666D01*
Y155998D01*
X844666Y157664D01*
X843000Y160997D02*
Y164329D01*
Y162663D01*
X852997D01*
X851331Y160997D01*
X843000Y169327D02*
Y172660D01*
Y170994D01*
X852997D01*
X851331Y169327D01*
X895331Y157664D02*
X896997Y155998D01*
Y152666D01*
X895331Y151000D01*
X888666D01*
X887000Y152666D01*
Y155998D01*
X888666Y157664D01*
X887000Y160997D02*
Y164329D01*
Y162663D01*
X896997D01*
X895331Y160997D01*
Y169327D02*
X896997Y170994D01*
Y174326D01*
X895331Y175992D01*
X888666D01*
X887000Y174326D01*
Y170994D01*
X888666Y169327D01*
X895331D01*
X323331Y408190D02*
X324997Y406524D01*
Y403191D01*
X323331Y401525D01*
X316666D01*
X315000Y403191D01*
Y406524D01*
X316666Y408190D01*
X323331Y411522D02*
X324997Y413188D01*
Y416520D01*
X323331Y418186D01*
X321665D01*
X319998Y416520D01*
X318332Y418186D01*
X316666D01*
X315000Y416520D01*
Y413188D01*
X316666Y411522D01*
X318332D01*
X319998Y413188D01*
X321665Y411522D01*
X323331D01*
X319998Y413188D02*
Y416520D01*
X837331Y157664D02*
X838997Y155998D01*
Y152666D01*
X837331Y151000D01*
X830666D01*
X829000Y152666D01*
Y155998D01*
X830666Y157664D01*
X838997Y160997D02*
Y167661D01*
X837331D01*
X830666Y160997D01*
X829000D01*
X240336Y297080D02*
X242002Y298746D01*
X245334D01*
X247000Y297080D01*
Y290415D01*
X245334Y288749D01*
X242002D01*
X240336Y290415D01*
X230339Y298746D02*
X233671Y297080D01*
X237003Y293748D01*
Y290415D01*
X235337Y288749D01*
X232005D01*
X230339Y290415D01*
Y292081D01*
X232005Y293748D01*
X237003D01*
X194331Y180240D02*
X195998Y181906D01*
X199330D01*
X200996Y180240D01*
Y173575D01*
X199330Y171909D01*
X195998D01*
X194331Y173575D01*
X184335Y181906D02*
X190999D01*
Y176908D01*
X187667Y178574D01*
X186001D01*
X184335Y176908D01*
Y173575D01*
X186001Y171909D01*
X189333D01*
X190999Y173575D01*
X816331Y157664D02*
X817997Y155998D01*
Y152666D01*
X816331Y151000D01*
X809666D01*
X808000Y152666D01*
Y155998D01*
X809666Y157664D01*
X808000Y165995D02*
X817997D01*
X812998Y160997D01*
Y167661D01*
X802331Y157664D02*
X803997Y155998D01*
Y152666D01*
X802331Y151000D01*
X795666D01*
X794000Y152666D01*
Y155998D01*
X795666Y157664D01*
X802331Y160997D02*
X803997Y162663D01*
Y165995D01*
X802331Y167661D01*
X800665D01*
X798998Y165995D01*
Y164329D01*
Y165995D01*
X797332Y167661D01*
X795666D01*
X794000Y165995D01*
Y162663D01*
X795666Y160997D01*
X352583Y408190D02*
X354249Y406524D01*
Y403191D01*
X352583Y401525D01*
X345918D01*
X344252Y403191D01*
Y406524D01*
X345918Y408190D01*
X344252Y411522D02*
Y414854D01*
Y413188D01*
X354249D01*
X352583Y411522D01*
X50000Y0D02*
X1010000D01*
X1060000Y50000D01*
Y530000D01*
X1010000Y580000D02*
X1060000Y530000D01*
X50000Y580000D02*
X1010000D01*
X0Y50000D02*
Y530000D01*
Y50000D02*
X50000Y0D01*
X0Y530000D02*
X50000Y580000D01*
X720500Y-250D02*
X725500D01*
X800500D02*
X805750D01*
D20*
X918000Y270000D02*
G03*
X918000Y270000I-3000J0D01*
G01*
D23*
X933250Y242500D02*
G03*
X933250Y242500I-1250J0D01*
G01*
D50*
X653000Y443950D02*
G03*
X653000Y443950I-1000J0D01*
G01*
D51*
X358601Y152000D02*
X360506D01*
X367999D02*
X369904D01*
X358220Y152127D02*
X360887D01*
X367618D02*
X370285D01*
X357966Y152254D02*
X361141D01*
X367364D02*
X370539D01*
X357712Y152381D02*
X361395D01*
X367110D02*
X370666D01*
X357585Y152508D02*
X361522D01*
X366983D02*
X370920D01*
X357458Y152635D02*
X361776D01*
X366729D02*
X371047D01*
X357204Y152762D02*
X361903D01*
X366602D02*
X371174D01*
X357077Y152889D02*
X362030D01*
X366475D02*
X371301D01*
X357077Y153016D02*
X362157D01*
X366348D02*
X371428D01*
X356950Y153143D02*
X362157D01*
X366221D02*
X371555D01*
X356823Y153270D02*
X358855D01*
X360252D02*
X362284D01*
X366221D02*
X368253D01*
X369523D02*
X371682D01*
X356696Y153397D02*
X358601D01*
X360506D02*
X362411D01*
X366094D02*
X367999D01*
X369904D02*
X371809D01*
X356569Y153524D02*
X358347D01*
X360760D02*
X362411D01*
X365967D02*
X367745D01*
X370031D02*
X371809D01*
X356569Y153651D02*
X358220D01*
X360887D02*
X362538D01*
X365840D02*
X367618D01*
X370285D02*
X371936D01*
X356442Y153778D02*
X358093D01*
X361014D02*
X362665D01*
X365840D02*
X367491D01*
X370412D02*
X371936D01*
X356442Y153905D02*
X357966D01*
X361141D02*
X362665D01*
X365713D02*
X367364D01*
X370539D02*
X372063D01*
X356315Y154032D02*
X357839D01*
X361268D02*
X362665D01*
X365713D02*
X367237D01*
X370539D02*
X372063D01*
X356188Y154159D02*
X357839D01*
X361268D02*
X362792D01*
X365586D02*
X367110D01*
X370666D02*
X372063D01*
X356188Y154286D02*
X357712D01*
X361395D02*
X362792D01*
X365586D02*
X366983D01*
X370793D02*
X372190D01*
X356061Y154413D02*
X357585D01*
X361522D02*
X362792D01*
X365459D02*
X366983D01*
X370793D02*
X372190D01*
X356061Y154540D02*
X357585D01*
X361522D02*
X362919D01*
X365332D02*
X366856D01*
X370920D02*
X372190D01*
X355934Y154667D02*
X357458D01*
X361522D02*
X362919D01*
X365332D02*
X366856D01*
X370920D02*
X372190D01*
X297514Y154794D02*
X299800D01*
X304118D02*
X304245D01*
X355934D02*
X357331D01*
X361649D02*
X362919D01*
X365205D02*
X366729D01*
X370920D02*
X372317D01*
X297006Y154921D02*
X300435D01*
X303483D02*
X304753D01*
X306658D02*
X311103D01*
X313262D02*
X317834D01*
X319993D02*
X321263D01*
X327105D02*
X328375D01*
X331169D02*
X332566D01*
X337646D02*
X339043D01*
X355807D02*
X357331D01*
X361649D02*
X362919D01*
X365205D02*
X366602D01*
X370920D02*
X372317D01*
X296625Y155048D02*
X300943D01*
X303356D02*
X305007D01*
X306404D02*
X311484D01*
X313008D02*
X318088D01*
X319866D02*
X321390D01*
X326978D02*
X328502D01*
X330915D02*
X332820D01*
X337392D02*
X339170D01*
X355807D02*
X357204D01*
X361649D02*
X362919D01*
X365205D02*
X366602D01*
X371047D02*
X372317D01*
X296371Y155175D02*
X301197D01*
X303229D02*
X305134D01*
X306277D02*
X311611D01*
X312881D02*
X318215D01*
X319739D02*
X321517D01*
X326851D02*
X328629D01*
X330788D02*
X332947D01*
X337265D02*
X339424D01*
X355680D02*
X357204D01*
X361649D02*
X362919D01*
X365078D02*
X366475D01*
X371047D02*
X372317D01*
X296244Y155302D02*
X301451D01*
X303102D02*
X305134D01*
X306150D02*
X311738D01*
X312754D02*
X318342D01*
X319612D02*
X321644D01*
X326724D02*
X328756D01*
X330661D02*
X333074D01*
X337138D02*
X339551D01*
X355680D02*
X357077D01*
X361649D02*
X362919D01*
X365078D02*
X366475D01*
X371047D02*
X372317D01*
X423371D02*
X427181D01*
X439754D02*
X443818D01*
X295990Y155429D02*
X301705D01*
X303102D02*
X305261D01*
X306023D02*
X311865D01*
X312627D02*
X318469D01*
X319485D02*
X321644D01*
X326724D02*
X328883D01*
X330534D02*
X333201D01*
X337011D02*
X339551D01*
X355553D02*
X357077D01*
X361649D02*
X362919D01*
X364951D02*
X366348D01*
X371047D02*
X372317D01*
X379937D02*
X382985D01*
X398098D02*
X401781D01*
X422482D02*
X428070D01*
X438865D02*
X444707D01*
X295863Y155556D02*
X301832D01*
X303102D02*
X305261D01*
X306023D02*
X311865D01*
X312627D02*
X318469D01*
X319485D02*
X321771D01*
X326597D02*
X328883D01*
X330534D02*
X333328D01*
X336884D02*
X339678D01*
X355553D02*
X356950D01*
X361649D02*
X362919D01*
X364951D02*
X366348D01*
X371047D02*
X372317D01*
X379175D02*
X383747D01*
X397336D02*
X402670D01*
X421847D02*
X428578D01*
X438357D02*
X445215D01*
X459312D02*
X461344D01*
X473409D02*
X475441D01*
X295736Y155683D02*
X301959D01*
X302975D02*
X305261D01*
X305896D02*
X311865D01*
X312627D02*
X318596D01*
X319485D02*
X321771D01*
X326597D02*
X328883D01*
X330407D02*
X333328D01*
X336884D02*
X339805D01*
X355553D02*
X356950D01*
X361649D02*
X362919D01*
X364824D02*
X366221D01*
X371047D02*
X372317D01*
X378540D02*
X384255D01*
X396828D02*
X403178D01*
X421339D02*
X429086D01*
X437849D02*
X445723D01*
X454994D02*
X461471D01*
X469091D02*
X475568D01*
X295609Y155810D02*
X301959D01*
X302975D02*
X305388D01*
X305896D02*
X311992D01*
X312500D02*
X318596D01*
X319485D02*
X321771D01*
X326597D02*
X328883D01*
X330407D02*
X333328D01*
X336757D02*
X339805D01*
X355426D02*
X356823D01*
X361649D02*
X362919D01*
X364824D02*
X366221D01*
X371047D02*
X372317D01*
X378159D02*
X384763D01*
X396447D02*
X403686D01*
X420958D02*
X429594D01*
X437468D02*
X446104D01*
X454994D02*
X461471D01*
X469091D02*
X475568D01*
X295482Y155937D02*
X302086D01*
X302975D02*
X305388D01*
X305896D02*
X311992D01*
X312500D02*
X318596D01*
X319485D02*
X321898D01*
X326470D02*
X328883D01*
X330280D02*
X333455D01*
X336757D02*
X339805D01*
X355426D02*
X356823D01*
X361649D02*
X362919D01*
X364697D02*
X366221D01*
X370920D02*
X372317D01*
X377778D02*
X385144D01*
X396066D02*
X404067D01*
X420577D02*
X429975D01*
X437087D02*
X446485D01*
X454994D02*
X461471D01*
X469091D02*
X475568D01*
X295355Y156064D02*
X302086D01*
X302975D02*
X305388D01*
X305896D02*
X311992D01*
X312500D02*
X318596D01*
X319485D02*
X321898D01*
X326470D02*
X328883D01*
X330280D02*
X333455D01*
X336757D02*
X339805D01*
X355299D02*
X356696D01*
X361522D02*
X362919D01*
X364697D02*
X366094D01*
X370920D02*
X372190D01*
X377524D02*
X385398D01*
X395812D02*
X404448D01*
X420323D02*
X430356D01*
X436706D02*
X446866D01*
X454994D02*
X461471D01*
X469091D02*
X475568D01*
X295228Y156191D02*
X302213D01*
X302975D02*
X305388D01*
X305896D02*
X311992D01*
X312500D02*
X318596D01*
X319485D02*
X321898D01*
X326470D02*
X328883D01*
X330280D02*
X333455D01*
X336630D02*
X339932D01*
X355299D02*
X356696D01*
X361522D02*
X362919D01*
X364570D02*
X366094D01*
X370920D02*
X372190D01*
X377270D02*
X385652D01*
X395558D02*
X404829D01*
X420069D02*
X430737D01*
X436325D02*
X447120D01*
X454994D02*
X461471D01*
X469091D02*
X475568D01*
X295101Y156318D02*
X302213D01*
X302975D02*
X305388D01*
X305896D02*
X311992D01*
X312627D02*
X318596D01*
X319612D02*
X321898D01*
X326343D02*
X328883D01*
X330280D02*
X333582D01*
X336630D02*
X339932D01*
X355172D02*
X356696D01*
X361522D02*
X362792D01*
X364570D02*
X365967D01*
X370793D02*
X372190D01*
X377016D02*
X385906D01*
X395304D02*
X405083D01*
X419815D02*
X430991D01*
X435944D02*
X447374D01*
X454994D02*
X461471D01*
X469091D02*
X475568D01*
X295101Y156445D02*
X302213D01*
X302975D02*
X305388D01*
X306023D02*
X311992D01*
X312627D02*
X318596D01*
X319612D02*
X322025D01*
X326343D02*
X328756D01*
X330280D02*
X333582D01*
X336630D02*
X339932D01*
X355172D02*
X356569D01*
X361395D02*
X362792D01*
X364443D02*
X365967D01*
X370793D02*
X372190D01*
X376762D02*
X386160D01*
X395050D02*
X405210D01*
X419561D02*
X431118D01*
X435817D02*
X447628D01*
X454994D02*
X461471D01*
X469091D02*
X475568D01*
X294974Y156572D02*
X302213D01*
X302975D02*
X305388D01*
X306023D02*
X311992D01*
X312627D02*
X318596D01*
X319612D02*
X322025D01*
X326343D02*
X328756D01*
X330153D02*
X333582D01*
X336503D02*
X339932D01*
X355045D02*
X356569D01*
X361395D02*
X362792D01*
X364443D02*
X365840D01*
X370793D02*
X372063D01*
X376508D02*
X386414D01*
X394923D02*
X405337D01*
X419434D02*
X431118D01*
X435690D02*
X447882D01*
X454994D02*
X461471D01*
X469091D02*
X475441D01*
X294974Y156699D02*
X302086D01*
X302975D02*
X305388D01*
X306150D02*
X311992D01*
X312754D02*
X318596D01*
X319739D02*
X322025D01*
X326216D02*
X328756D01*
X330153D02*
X333709D01*
X336503D02*
X340059D01*
X355045D02*
X356442D01*
X361268D02*
X362792D01*
X364316D02*
X365840D01*
X370666D02*
X372063D01*
X376381D02*
X386668D01*
X394669D02*
X405337D01*
X419180D02*
X431118D01*
X435690D02*
X448009D01*
X454994D02*
X461471D01*
X469091D02*
X475441D01*
X294847Y156826D02*
X302086D01*
X302975D02*
X305388D01*
X306277D02*
X311992D01*
X312881D02*
X318596D01*
X319739D02*
X322152D01*
X326216D02*
X328629D01*
X330153D02*
X333709D01*
X336503D02*
X340059D01*
X354918D02*
X356442D01*
X361268D02*
X362665D01*
X364316D02*
X365713D01*
X370666D02*
X372063D01*
X376127D02*
X386795D01*
X394542D02*
X405337D01*
X419053D02*
X431118D01*
X435690D02*
X448263D01*
X454994D02*
X461471D01*
X469091D02*
X475441D01*
X294847Y156953D02*
X302086D01*
X302975D02*
X305388D01*
X306404D02*
X311992D01*
X313135D02*
X318596D01*
X319739D02*
X322152D01*
X326216D02*
X328629D01*
X330153D02*
X333709D01*
X336376D02*
X340059D01*
X354918D02*
X356315D01*
X361268D02*
X362665D01*
X364189D02*
X365713D01*
X370539D02*
X371936D01*
X376000D02*
X386922D01*
X394415D02*
X405210D01*
X418799D02*
X431118D01*
X435690D02*
X448390D01*
X454994D02*
X461471D01*
X469091D02*
X475441D01*
X294720Y157080D02*
X298022D01*
X299292D02*
X301959D01*
X302975D02*
X305388D01*
X309579D02*
X311992D01*
X316310D02*
X318596D01*
X319866D02*
X328629D01*
X330026D02*
X333709D01*
X336376D02*
X340059D01*
X354791D02*
X356315D01*
X361141D02*
X362538D01*
X364189D02*
X365586D01*
X370539D02*
X371936D01*
X375873D02*
X387176D01*
X394161D02*
X405210D01*
X418672D02*
X431118D01*
X435690D02*
X448644D01*
X454994D02*
X461471D01*
X469091D02*
X475441D01*
X294720Y157207D02*
X297768D01*
X299800D02*
X301959D01*
X302975D02*
X305388D01*
X309579D02*
X311992D01*
X316310D02*
X318596D01*
X319866D02*
X328502D01*
X330026D02*
X333836D01*
X336376D02*
X340186D01*
X354791D02*
X356188D01*
X361141D02*
X362538D01*
X364062D02*
X365586D01*
X370412D02*
X371936D01*
X375746D02*
X387303D01*
X394034D02*
X405210D01*
X418545D02*
X431118D01*
X435690D02*
X448771D01*
X454994D02*
X461344D01*
X469091D02*
X475441D01*
X294720Y157334D02*
X297514D01*
X300054D02*
X301832D01*
X302975D02*
X305388D01*
X309579D02*
X311992D01*
X316310D02*
X318596D01*
X319866D02*
X328502D01*
X330026D02*
X333836D01*
X336376D02*
X340186D01*
X354664D02*
X356188D01*
X361014D02*
X362411D01*
X364062D02*
X365459D01*
X370412D02*
X371809D01*
X375619D02*
X387430D01*
X393907D02*
X405210D01*
X418418D02*
X431118D01*
X435690D02*
X448898D01*
X454994D02*
X461344D01*
X469091D02*
X475441D01*
X294720Y157461D02*
X297387D01*
X300435D02*
X301578D01*
X302975D02*
X305388D01*
X309579D02*
X311992D01*
X316310D02*
X318596D01*
X319993D02*
X328375D01*
X330026D02*
X333836D01*
X336249D02*
X340186D01*
X354664D02*
X356061D01*
X361014D02*
X362411D01*
X364062D02*
X365459D01*
X370285D02*
X371809D01*
X375492D02*
X387557D01*
X393780D02*
X405210D01*
X418291D02*
X431118D01*
X435690D02*
X449025D01*
X454994D02*
X461344D01*
X469091D02*
X475441D01*
X294720Y157588D02*
X297387D01*
X302975D02*
X305388D01*
X309579D02*
X311992D01*
X316310D02*
X318596D01*
X319993D02*
X328375D01*
X329899D02*
X333963D01*
X336249D02*
X340186D01*
X354537D02*
X356061D01*
X360887D02*
X362284D01*
X363935D02*
X365332D01*
X370285D02*
X371682D01*
X375365D02*
X387684D01*
X393653D02*
X405210D01*
X418164D02*
X431118D01*
X435690D02*
X449152D01*
X454994D02*
X461344D01*
X469091D02*
X475441D01*
X294720Y157715D02*
X297260D01*
X302975D02*
X305388D01*
X309579D02*
X311992D01*
X316310D02*
X318596D01*
X319993D02*
X328375D01*
X329899D02*
X333963D01*
X336249D02*
X340186D01*
X354537D02*
X355934D01*
X360887D02*
X362284D01*
X363935D02*
X365332D01*
X370158D02*
X371682D01*
X375238D02*
X387811D01*
X393653D02*
X405210D01*
X418164D02*
X431118D01*
X435690D02*
X449279D01*
X454994D02*
X461344D01*
X469091D02*
X475441D01*
X294720Y157842D02*
X297260D01*
X302975D02*
X305388D01*
X309579D02*
X311992D01*
X316310D02*
X318596D01*
X320120D02*
X328248D01*
X329899D02*
X333963D01*
X336122D02*
X340313D01*
X354537D02*
X355934D01*
X360760D02*
X362284D01*
X363808D02*
X365205D01*
X370158D02*
X371555D01*
X375111D02*
X387938D01*
X393526D02*
X405210D01*
X418037D02*
X430991D01*
X435690D02*
X449406D01*
X454994D02*
X461344D01*
X469091D02*
X475441D01*
X294720Y157969D02*
X297133D01*
X302975D02*
X305388D01*
X309579D02*
X311992D01*
X316310D02*
X318596D01*
X320120D02*
X328248D01*
X329899D02*
X334090D01*
X336122D02*
X340313D01*
X354410D02*
X355807D01*
X360760D02*
X362157D01*
X363808D02*
X365205D01*
X370031D02*
X371555D01*
X374984D02*
X380445D01*
X382477D02*
X388065D01*
X393399D02*
X399622D01*
X400511D02*
X405210D01*
X417910D02*
X430991D01*
X435690D02*
X449533D01*
X454994D02*
X461344D01*
X469091D02*
X475441D01*
X294720Y158096D02*
X297133D01*
X302975D02*
X305388D01*
X309579D02*
X311992D01*
X316310D02*
X318596D01*
X320247D02*
X328248D01*
X329772D02*
X334090D01*
X336122D02*
X340313D01*
X354410D02*
X355807D01*
X360633D02*
X362157D01*
X363681D02*
X365205D01*
X370031D02*
X371428D01*
X374857D02*
X379937D01*
X382985D02*
X388192D01*
X393272D02*
X398733D01*
X401527D02*
X405210D01*
X417910D02*
X430991D01*
X435690D02*
X449660D01*
X454994D02*
X461344D01*
X469091D02*
X475441D01*
X294720Y158223D02*
X297133D01*
X302975D02*
X305388D01*
X309579D02*
X311992D01*
X316310D02*
X318596D01*
X320247D02*
X328121D01*
X329772D02*
X334090D01*
X335995D02*
X340313D01*
X354283D02*
X355680D01*
X360633D02*
X362030D01*
X363681D02*
X365078D01*
X369904D02*
X371428D01*
X374730D02*
X379556D01*
X383239D02*
X388319D01*
X393272D02*
X398225D01*
X402035D02*
X405210D01*
X417783D02*
X430991D01*
X435563D02*
X449787D01*
X454994D02*
X461344D01*
X469091D02*
X475441D01*
X294720Y158350D02*
X297133D01*
X302975D02*
X305388D01*
X309579D02*
X311992D01*
X316310D02*
X318596D01*
X320247D02*
X328121D01*
X329772D02*
X334090D01*
X335995D02*
X340440D01*
X354283D02*
X355680D01*
X360506D02*
X362030D01*
X363554D02*
X365078D01*
X369904D02*
X371301D01*
X374730D02*
X379302D01*
X383493D02*
X388319D01*
X393145D02*
X397971D01*
X402543D02*
X405210D01*
X417656D02*
X430991D01*
X435563D02*
X449914D01*
X454994D02*
X461344D01*
X469218D02*
X475441D01*
X294720Y158477D02*
X297260D01*
X302975D02*
X305388D01*
X309579D02*
X311992D01*
X316310D02*
X318596D01*
X320374D02*
X328121D01*
X329772D02*
X334217D01*
X335995D02*
X340440D01*
X354156D02*
X355680D01*
X360506D02*
X361903D01*
X363554D02*
X364951D01*
X369777D02*
X371301D01*
X374603D02*
X379175D01*
X383747D02*
X388446D01*
X393145D02*
X397717D01*
X402924D02*
X405083D01*
X417656D02*
X430991D01*
X435563D02*
X450041D01*
X455121D02*
X461344D01*
X469218D02*
X475441D01*
X294720Y158604D02*
X297260D01*
X302975D02*
X305388D01*
X309579D02*
X311992D01*
X316310D02*
X318596D01*
X320374D02*
X327994D01*
X329772D02*
X331931D01*
X332058D02*
X334217D01*
X335995D02*
X340440D01*
X354156D02*
X355553D01*
X360379D02*
X361903D01*
X363427D02*
X364951D01*
X369777D02*
X371174D01*
X374476D02*
X378921D01*
X384001D02*
X388573D01*
X393018D02*
X397463D01*
X403178D02*
X405083D01*
X417529D02*
X430991D01*
X435563D02*
X450041D01*
X455121D02*
X461344D01*
X469218D02*
X475441D01*
X294720Y158731D02*
X297387D01*
X302975D02*
X305388D01*
X309579D02*
X311992D01*
X316310D02*
X318596D01*
X320374D02*
X327994D01*
X329645D02*
X331931D01*
X332058D02*
X334217D01*
X335868D02*
X338154D01*
X338281D02*
X340440D01*
X354029D02*
X355553D01*
X360379D02*
X361776D01*
X363427D02*
X364824D01*
X369777D02*
X371174D01*
X374476D02*
X378794D01*
X384128D02*
X388573D01*
X393018D02*
X397336D01*
X403432D02*
X405083D01*
X417529D02*
X424641D01*
X426673D02*
X430991D01*
X435563D02*
X450168D01*
X455121D02*
X461344D01*
X469218D02*
X475441D01*
X294720Y158858D02*
X297641D01*
X302975D02*
X305388D01*
X309579D02*
X311992D01*
X316310D02*
X318596D01*
X320501D02*
X327867D01*
X329645D02*
X331931D01*
X332058D02*
X334344D01*
X335868D02*
X338027D01*
X338281D02*
X340567D01*
X354029D02*
X355426D01*
X360252D02*
X361776D01*
X363300D02*
X364824D01*
X369650D02*
X371047D01*
X374349D02*
X378667D01*
X384255D02*
X388700D01*
X392891D02*
X397209D01*
X403686D02*
X405083D01*
X417529D02*
X424260D01*
X427308D02*
X430991D01*
X435563D02*
X450295D01*
X455121D02*
X461344D01*
X469218D02*
X475441D01*
X294720Y158985D02*
X297895D01*
X302975D02*
X305388D01*
X309579D02*
X311992D01*
X316310D02*
X318596D01*
X320501D02*
X327867D01*
X329645D02*
X331931D01*
X332185D02*
X334344D01*
X335868D02*
X338027D01*
X338281D02*
X340567D01*
X353902D02*
X355426D01*
X360252D02*
X361649D01*
X363300D02*
X364697D01*
X369650D02*
X371047D01*
X374222D02*
X378413D01*
X384509D02*
X388827D01*
X392891D02*
X397082D01*
X403940D02*
X405083D01*
X417402D02*
X423879D01*
X427816D02*
X430991D01*
X435563D02*
X450295D01*
X455121D02*
X461344D01*
X469218D02*
X475441D01*
X294720Y159112D02*
X298149D01*
X302975D02*
X305388D01*
X309579D02*
X311992D01*
X316310D02*
X318596D01*
X320501D02*
X327867D01*
X329645D02*
X331804D01*
X332185D02*
X334344D01*
X335741D02*
X338027D01*
X338281D02*
X340567D01*
X353902D02*
X355299D01*
X360125D02*
X361649D01*
X363173D02*
X364697D01*
X369523D02*
X370920D01*
X374222D02*
X378286D01*
X384636D02*
X388827D01*
X392891D02*
X396955D01*
X404067D02*
X405083D01*
X417402D02*
X423752D01*
X428197D02*
X430991D01*
X435563D02*
X439754D01*
X442167D02*
X450422D01*
X455121D02*
X461344D01*
X469218D02*
X475441D01*
X294720Y159239D02*
X298530D01*
X302975D02*
X305388D01*
X309579D02*
X311992D01*
X316310D02*
X318596D01*
X320628D02*
X322914D01*
X325454D02*
X327740D01*
X329518D02*
X331804D01*
X332185D02*
X334471D01*
X335741D02*
X337900D01*
X338281D02*
X340567D01*
X353775D02*
X355299D01*
X360125D02*
X361522D01*
X363173D02*
X364570D01*
X369523D02*
X370920D01*
X374095D02*
X378286D01*
X384763D02*
X388954D01*
X392764D02*
X396828D01*
X404321D02*
X405083D01*
X417275D02*
X423498D01*
X428451D02*
X430991D01*
X435563D02*
X438992D01*
X442802D02*
X450422D01*
X455121D02*
X461344D01*
X469218D02*
X475441D01*
X294720Y159366D02*
X298911D01*
X302975D02*
X305388D01*
X309579D02*
X311992D01*
X316310D02*
X318596D01*
X320628D02*
X322914D01*
X325454D02*
X327740D01*
X329518D02*
X331804D01*
X332185D02*
X334471D01*
X335741D02*
X337900D01*
X338408D02*
X340567D01*
X353775D02*
X355172D01*
X360125D02*
X361522D01*
X363046D02*
X364570D01*
X369396D02*
X370920D01*
X374095D02*
X378159D01*
X384763D02*
X388954D01*
X392764D02*
X396701D01*
X404448D02*
X405083D01*
X417275D02*
X423371D01*
X428832D02*
X430991D01*
X435563D02*
X438484D01*
X443183D02*
X450549D01*
X455121D02*
X461344D01*
X469218D02*
X475441D01*
X294847Y159493D02*
X299419D01*
X302975D02*
X305388D01*
X309579D02*
X311992D01*
X316310D02*
X318596D01*
X320755D02*
X323041D01*
X325327D02*
X327740D01*
X329518D02*
X331804D01*
X332312D02*
X334471D01*
X335614D02*
X337900D01*
X338408D02*
X340694D01*
X353648D02*
X355172D01*
X359998D02*
X361395D01*
X363046D02*
X364443D01*
X369396D02*
X370793D01*
X373968D02*
X378032D01*
X384890D02*
X389081D01*
X392764D02*
X396701D01*
X417275D02*
X423371D01*
X429086D02*
X430991D01*
X435563D02*
X437976D01*
X443564D02*
X450676D01*
X455121D02*
X461344D01*
X469218D02*
X475441D01*
X294847Y159620D02*
X299800D01*
X302975D02*
X305388D01*
X309579D02*
X311992D01*
X316310D02*
X318596D01*
X320755D02*
X323041D01*
X325327D02*
X327613D01*
X329518D02*
X331804D01*
X332312D02*
X334471D01*
X335614D02*
X337900D01*
X338408D02*
X340694D01*
X353648D02*
X355045D01*
X359998D02*
X361395D01*
X363046D02*
X364443D01*
X369269D02*
X370793D01*
X373968D02*
X377905D01*
X385017D02*
X389081D01*
X392764D02*
X396574D01*
X417275D02*
X423244D01*
X429340D02*
X430991D01*
X435563D02*
X437595D01*
X443818D02*
X450676D01*
X455121D02*
X461344D01*
X469218D02*
X475441D01*
X294974Y159747D02*
X300181D01*
X302975D02*
X305388D01*
X309579D02*
X311992D01*
X316310D02*
X318596D01*
X320755D02*
X323041D01*
X325327D02*
X327613D01*
X329391D02*
X331677D01*
X332312D02*
X334598D01*
X335614D02*
X337773D01*
X338408D02*
X340694D01*
X353521D02*
X355045D01*
X359871D02*
X361268D01*
X362919D02*
X364316D01*
X369269D02*
X370666D01*
X373841D02*
X377905D01*
X385144D02*
X389208D01*
X392637D02*
X396574D01*
X417148D02*
X423117D01*
X429594D02*
X430991D01*
X435563D02*
X437341D01*
X444072D02*
X450803D01*
X455121D02*
X461344D01*
X469218D02*
X475441D01*
X294974Y159874D02*
X300435D01*
X302975D02*
X305388D01*
X309579D02*
X311992D01*
X316310D02*
X318596D01*
X320882D02*
X323168D01*
X325200D02*
X327486D01*
X329391D02*
X331677D01*
X332439D02*
X334598D01*
X335614D02*
X337773D01*
X338408D02*
X340694D01*
X353521D02*
X354918D01*
X359871D02*
X361268D01*
X362919D02*
X364316D01*
X369142D02*
X370666D01*
X373841D02*
X377778D01*
X385144D02*
X389208D01*
X392637D02*
X396574D01*
X417148D02*
X423117D01*
X429721D02*
X430991D01*
X435563D02*
X436960D01*
X444199D02*
X450803D01*
X455121D02*
X461344D01*
X469218D02*
X475441D01*
X295101Y160001D02*
X300689D01*
X302975D02*
X305388D01*
X309579D02*
X311992D01*
X316310D02*
X318596D01*
X320882D02*
X323168D01*
X325200D02*
X327486D01*
X329391D02*
X331677D01*
X332439D02*
X334598D01*
X335487D02*
X337773D01*
X338535D02*
X340821D01*
X353394D02*
X354918D01*
X359744D02*
X361268D01*
X362792D02*
X364189D01*
X369142D02*
X370539D01*
X373841D02*
X377651D01*
X385271D02*
X389208D01*
X392637D02*
X396447D01*
X417148D02*
X423117D01*
X429975D02*
X430864D01*
X435563D02*
X436706D01*
X444453D02*
X450803D01*
X455121D02*
X461344D01*
X469218D02*
X475441D01*
X295228Y160128D02*
X300943D01*
X302975D02*
X305388D01*
X309579D02*
X311992D01*
X316310D02*
X318596D01*
X320882D02*
X323168D01*
X325200D02*
X327486D01*
X329391D02*
X331677D01*
X332439D02*
X334725D01*
X335487D02*
X337646D01*
X338535D02*
X340821D01*
X353394D02*
X354791D01*
X359744D02*
X361141D01*
X362792D02*
X364189D01*
X369015D02*
X370539D01*
X373714D02*
X377651D01*
X385271D02*
X389335D01*
X392637D02*
X396447D01*
X417148D02*
X422990D01*
X430102D02*
X430864D01*
X435436D02*
X436452D01*
X444580D02*
X450930D01*
X455121D02*
X461344D01*
X469218D02*
X475441D01*
X295228Y160255D02*
X301197D01*
X302975D02*
X305388D01*
X309579D02*
X311992D01*
X316310D02*
X318596D01*
X321009D02*
X323295D01*
X325073D02*
X327359D01*
X329391D02*
X331677D01*
X332566D02*
X334725D01*
X335487D02*
X337646D01*
X338535D02*
X340821D01*
X353394D02*
X354791D01*
X359617D02*
X361141D01*
X362665D02*
X364189D01*
X369015D02*
X370412D01*
X373714D02*
X377524D01*
X385398D02*
X389335D01*
X392637D02*
X396447D01*
X417148D02*
X422990D01*
X430229D02*
X430864D01*
X435436D02*
X436198D01*
X444707D02*
X450930D01*
X455121D02*
X461344D01*
X469218D02*
X475441D01*
X295355Y160382D02*
X301324D01*
X302975D02*
X305388D01*
X309579D02*
X311992D01*
X316310D02*
X318596D01*
X321009D02*
X323295D01*
X325073D02*
X327359D01*
X329264D02*
X331550D01*
X332566D02*
X334725D01*
X335360D02*
X337646D01*
X338535D02*
X340821D01*
X353267D02*
X354664D01*
X359617D02*
X361014D01*
X362665D02*
X364062D01*
X368888D02*
X370412D01*
X373587D02*
X377524D01*
X385398D02*
X389335D01*
X392637D02*
X396447D01*
X417148D02*
X423117D01*
X430483D02*
X430610D01*
X435690D02*
X435944D01*
X444834D02*
X451057D01*
X455121D02*
X461344D01*
X469218D02*
X475441D01*
X295482Y160509D02*
X301451D01*
X302975D02*
X305388D01*
X309579D02*
X311992D01*
X316310D02*
X318596D01*
X321009D02*
X323295D01*
X325073D02*
X327359D01*
X329264D02*
X331550D01*
X332566D02*
X334852D01*
X335360D02*
X337646D01*
X338535D02*
X340948D01*
X353267D02*
X354664D01*
X359490D02*
X361014D01*
X362538D02*
X364062D01*
X368888D02*
X370285D01*
X373587D02*
X377524D01*
X385525D02*
X389462D01*
X392637D02*
X396447D01*
X417148D02*
X423117D01*
X444961D02*
X451057D01*
X455121D02*
X461344D01*
X469218D02*
X475441D01*
X295736Y160636D02*
X301578D01*
X302975D02*
X305388D01*
X309579D02*
X311992D01*
X316310D02*
X318596D01*
X321136D02*
X323295D01*
X324946D02*
X327232D01*
X329264D02*
X331550D01*
X332566D02*
X334852D01*
X335360D02*
X337519D01*
X338662D02*
X340948D01*
X353140D02*
X354537D01*
X359490D02*
X360887D01*
X362538D02*
X363935D01*
X368888D02*
X370285D01*
X373587D02*
X377397D01*
X385525D02*
X389462D01*
X392637D02*
X396447D01*
X417148D02*
X423117D01*
X445088D02*
X451057D01*
X455121D02*
X461344D01*
X469218D02*
X475441D01*
X295863Y160763D02*
X301705D01*
X302975D02*
X305388D01*
X309579D02*
X311992D01*
X316310D02*
X318596D01*
X321136D02*
X323422D01*
X324946D02*
X327232D01*
X329264D02*
X331550D01*
X332693D02*
X334852D01*
X335233D02*
X337519D01*
X338662D02*
X340948D01*
X353140D02*
X354537D01*
X359363D02*
X360887D01*
X362411D02*
X363935D01*
X368761D02*
X370158D01*
X373587D02*
X377397D01*
X385652D02*
X389462D01*
X392637D02*
X396574D01*
X417148D02*
X423244D01*
X445215D02*
X451184D01*
X455121D02*
X461344D01*
X469218D02*
X475441D01*
X296117Y160890D02*
X301705D01*
X302975D02*
X305388D01*
X309579D02*
X311992D01*
X316310D02*
X318596D01*
X321136D02*
X323422D01*
X324946D02*
X327232D01*
X329137D02*
X331550D01*
X332693D02*
X334852D01*
X335233D02*
X337519D01*
X338662D02*
X340948D01*
X353013D02*
X354537D01*
X359363D02*
X360760D01*
X362411D02*
X363808D01*
X368761D02*
X370158D01*
X373460D02*
X377270D01*
X385652D02*
X389589D01*
X392637D02*
X396574D01*
X417148D02*
X423244D01*
X445215D02*
X451184D01*
X455121D02*
X461344D01*
X469218D02*
X475441D01*
X296371Y161017D02*
X301832D01*
X302975D02*
X305388D01*
X309579D02*
X311992D01*
X316310D02*
X318596D01*
X321263D02*
X323422D01*
X324819D02*
X327105D01*
X329137D02*
X331423D01*
X332693D02*
X334979D01*
X335233D02*
X337392D01*
X338662D02*
X340948D01*
X353013D02*
X354410D01*
X359236D02*
X360760D01*
X362284D02*
X363808D01*
X368634D02*
X370031D01*
X373460D02*
X377270D01*
X385652D02*
X389589D01*
X392637D02*
X396701D01*
X417148D02*
X423371D01*
X445342D02*
X451184D01*
X455121D02*
X461344D01*
X469218D02*
X475441D01*
X296625Y161144D02*
X301832D01*
X302975D02*
X305388D01*
X309579D02*
X311992D01*
X316310D02*
X318596D01*
X321263D02*
X323549D01*
X324819D02*
X327105D01*
X329137D02*
X331423D01*
X332820D02*
X334979D01*
X335233D02*
X337392D01*
X338662D02*
X341075D01*
X352886D02*
X354410D01*
X359236D02*
X360633D01*
X362284D02*
X363681D01*
X368634D02*
X370031D01*
X373460D02*
X377270D01*
X385779D02*
X389589D01*
X392637D02*
X396701D01*
X417148D02*
X423498D01*
X445469D02*
X451311D01*
X455121D02*
X461344D01*
X469218D02*
X475441D01*
X296879Y161271D02*
X301959D01*
X302975D02*
X305388D01*
X309579D02*
X311992D01*
X316310D02*
X318596D01*
X321390D02*
X323549D01*
X324819D02*
X326978D01*
X329137D02*
X331423D01*
X332820D02*
X334979D01*
X335106D02*
X337392D01*
X338789D02*
X341075D01*
X352886D02*
X354283D01*
X359236D02*
X360633D01*
X362157D02*
X363681D01*
X368507D02*
X369904D01*
X373460D02*
X377270D01*
X385779D02*
X389589D01*
X392637D02*
X396828D01*
X417148D02*
X423625D01*
X445469D02*
X451311D01*
X455121D02*
X461344D01*
X469218D02*
X475441D01*
X297260Y161398D02*
X301959D01*
X302975D02*
X305388D01*
X309579D02*
X311992D01*
X316310D02*
X318596D01*
X321390D02*
X323549D01*
X324692D02*
X326978D01*
X329010D02*
X331423D01*
X332820D02*
X337265D01*
X338789D02*
X341075D01*
X352759D02*
X354283D01*
X359109D02*
X360506D01*
X362157D02*
X363554D01*
X368507D02*
X369904D01*
X373333D02*
X377143D01*
X385779D02*
X389716D01*
X392637D02*
X396955D01*
X417148D02*
X423879D01*
X445596D02*
X451311D01*
X455121D02*
X461344D01*
X469218D02*
X475441D01*
X297641Y161525D02*
X302086D01*
X302975D02*
X305388D01*
X309579D02*
X311992D01*
X316310D02*
X318596D01*
X321390D02*
X323676D01*
X324692D02*
X326978D01*
X329010D02*
X331423D01*
X332947D02*
X337265D01*
X338789D02*
X341075D01*
X352759D02*
X354156D01*
X359109D02*
X360506D01*
X362030D02*
X363554D01*
X368380D02*
X369904D01*
X373333D02*
X377143D01*
X385906D02*
X389716D01*
X392637D02*
X397082D01*
X417148D02*
X424133D01*
X445596D02*
X451311D01*
X455121D02*
X461344D01*
X469218D02*
X475441D01*
X298149Y161652D02*
X302086D01*
X302975D02*
X305388D01*
X309579D02*
X311992D01*
X316310D02*
X318596D01*
X321517D02*
X323676D01*
X324692D02*
X326851D01*
X329010D02*
X331296D01*
X332947D02*
X337265D01*
X338789D02*
X341202D01*
X352632D02*
X354156D01*
X358982D02*
X360379D01*
X362030D02*
X363427D01*
X368380D02*
X369777D01*
X373333D02*
X377143D01*
X385906D02*
X389716D01*
X392764D02*
X397209D01*
X417148D02*
X424387D01*
X445723D02*
X451438D01*
X455121D02*
X461344D01*
X469218D02*
X475441D01*
X298530Y161779D02*
X302086D01*
X302975D02*
X305388D01*
X309579D02*
X311992D01*
X316310D02*
X318596D01*
X321517D02*
X323676D01*
X324565D02*
X326851D01*
X329010D02*
X331296D01*
X332947D02*
X337265D01*
X338789D02*
X341202D01*
X352632D02*
X354029D01*
X358982D02*
X360379D01*
X362030D02*
X363427D01*
X368253D02*
X369777D01*
X373333D02*
X377143D01*
X385906D02*
X389716D01*
X392764D02*
X397463D01*
X417148D02*
X424641D01*
X445723D02*
X451438D01*
X455121D02*
X461344D01*
X469218D02*
X475441D01*
X298911Y161906D02*
X302086D01*
X302975D02*
X305388D01*
X309579D02*
X311992D01*
X316310D02*
X318596D01*
X321517D02*
X323803D01*
X324565D02*
X326851D01*
X329010D02*
X331296D01*
X332947D02*
X337138D01*
X338916D02*
X341202D01*
X352505D02*
X354029D01*
X358855D02*
X360252D01*
X361903D02*
X363300D01*
X368253D02*
X369650D01*
X373333D02*
X377143D01*
X385906D02*
X389716D01*
X392764D02*
X397590D01*
X417148D02*
X425022D01*
X445723D02*
X451438D01*
X455121D02*
X461344D01*
X469218D02*
X475441D01*
X299165Y162033D02*
X302086D01*
X302975D02*
X305388D01*
X309579D02*
X311992D01*
X316310D02*
X318596D01*
X321644D02*
X323803D01*
X324565D02*
X326724D01*
X328883D02*
X331296D01*
X333074D02*
X337138D01*
X338916D02*
X341202D01*
X352505D02*
X353902D01*
X358855D02*
X360252D01*
X361903D02*
X363300D01*
X368126D02*
X369650D01*
X373206D02*
X377016D01*
X385906D02*
X389843D01*
X392764D02*
X397844D01*
X410544D02*
X411941D01*
X417148D02*
X425403D01*
X445723D02*
X451438D01*
X455121D02*
X461344D01*
X469218D02*
X475441D01*
X299292Y162160D02*
X302086D01*
X302975D02*
X305388D01*
X309579D02*
X311992D01*
X316310D02*
X318596D01*
X321644D02*
X323803D01*
X324438D02*
X326724D01*
X328883D02*
X331296D01*
X333074D02*
X337138D01*
X338916D02*
X341329D01*
X352378D02*
X353902D01*
X358728D02*
X360252D01*
X361776D02*
X363173D01*
X368126D02*
X369523D01*
X373206D02*
X377016D01*
X386033D02*
X389843D01*
X392891D02*
X398098D01*
X410163D02*
X412195D01*
X417148D02*
X425784D01*
X445850D02*
X451438D01*
X455121D02*
X461344D01*
X469218D02*
X475441D01*
X299419Y162287D02*
X302086D01*
X302975D02*
X305388D01*
X309579D02*
X311992D01*
X316310D02*
X318596D01*
X321644D02*
X323930D01*
X324438D02*
X326597D01*
X328883D02*
X331169D01*
X333074D02*
X337011D01*
X338916D02*
X341329D01*
X352378D02*
X353775D01*
X358728D02*
X360125D01*
X361776D02*
X363173D01*
X367999D02*
X369523D01*
X373206D02*
X377016D01*
X386033D02*
X389843D01*
X392891D02*
X398479D01*
X410036D02*
X412449D01*
X417275D02*
X426165D01*
X445850D02*
X451438D01*
X455248D02*
X461344D01*
X469218D02*
X475441D01*
X299546Y162414D02*
X302086D01*
X302975D02*
X305388D01*
X309579D02*
X311992D01*
X316310D02*
X318596D01*
X321771D02*
X323930D01*
X324438D02*
X326597D01*
X328883D02*
X331169D01*
X333201D02*
X337011D01*
X338916D02*
X341329D01*
X352378D02*
X353775D01*
X358601D02*
X360125D01*
X361649D02*
X363046D01*
X367999D02*
X369396D01*
X373206D02*
X377016D01*
X386033D02*
X389843D01*
X392891D02*
X398860D01*
X409782D02*
X412576D01*
X417275D02*
X426419D01*
X445850D02*
X451565D01*
X455248D02*
X461344D01*
X469218D02*
X475441D01*
X299546Y162541D02*
X302086D01*
X302975D02*
X305388D01*
X309579D02*
X311992D01*
X316310D02*
X318596D01*
X321771D02*
X323930D01*
X324438D02*
X326597D01*
X328756D02*
X331169D01*
X333201D02*
X337011D01*
X339043D02*
X341329D01*
X352251D02*
X353648D01*
X358601D02*
X359998D01*
X361649D02*
X363046D01*
X367872D02*
X369396D01*
X373206D02*
X377016D01*
X386033D02*
X389843D01*
X393018D02*
X399241D01*
X409655D02*
X412703D01*
X417275D02*
X426800D01*
X445850D02*
X451565D01*
X455248D02*
X461344D01*
X469218D02*
X475441D01*
X299546Y162668D02*
X302086D01*
X302975D02*
X305388D01*
X309579D02*
X311992D01*
X316310D02*
X318596D01*
X321898D02*
X324057D01*
X324311D02*
X326470D01*
X328756D02*
X331169D01*
X333201D02*
X336884D01*
X339043D02*
X341456D01*
X352251D02*
X353648D01*
X358474D02*
X359998D01*
X361522D02*
X363046D01*
X367872D02*
X369269D01*
X373206D02*
X377016D01*
X386033D02*
X389843D01*
X393018D02*
X399622D01*
X409655D02*
X412830D01*
X417275D02*
X427181D01*
X441405D02*
X451565D01*
X455248D02*
X461344D01*
X469218D02*
X475441D01*
X299546Y162795D02*
X302086D01*
X302975D02*
X305388D01*
X309579D02*
X311992D01*
X316310D02*
X318596D01*
X321898D02*
X324057D01*
X324311D02*
X326470D01*
X328756D02*
X331169D01*
X333201D02*
X336884D01*
X339043D02*
X341456D01*
X352124D02*
X353521D01*
X358474D02*
X359871D01*
X361522D02*
X362919D01*
X367872D02*
X369269D01*
X373206D02*
X377016D01*
X386033D02*
X389843D01*
X393145D02*
X400003D01*
X409528D02*
X412957D01*
X417402D02*
X427562D01*
X435055D02*
X451565D01*
X455248D02*
X461344D01*
X469218D02*
X475441D01*
X299546Y162922D02*
X302086D01*
X302975D02*
X305388D01*
X309579D02*
X311992D01*
X316310D02*
X318596D01*
X321898D02*
X324057D01*
X324311D02*
X326470D01*
X328756D02*
X331042D01*
X333328D02*
X336884D01*
X339043D02*
X341456D01*
X352124D02*
X353521D01*
X358347D02*
X359871D01*
X361395D02*
X362919D01*
X367745D02*
X369142D01*
X373206D02*
X377016D01*
X386033D02*
X389843D01*
X393145D02*
X400384D01*
X409401D02*
X412957D01*
X417402D02*
X427816D01*
X434928D02*
X451565D01*
X455248D02*
X461344D01*
X469218D02*
X475441D01*
X299419Y163049D02*
X302086D01*
X302975D02*
X305388D01*
X309579D02*
X311992D01*
X316310D02*
X318596D01*
X322025D02*
X326343D01*
X328629D02*
X331042D01*
X333328D02*
X336884D01*
X339043D02*
X341456D01*
X351997D02*
X353521D01*
X358347D02*
X359744D01*
X361395D02*
X362792D01*
X367745D02*
X369142D01*
X373206D02*
X376889D01*
X386033D02*
X389843D01*
X393272D02*
X400765D01*
X409401D02*
X413084D01*
X417529D02*
X428070D01*
X434801D02*
X451565D01*
X455248D02*
X461344D01*
X469345D02*
X475441D01*
X295863Y163176D02*
X297133D01*
X299292D02*
X302086D01*
X302975D02*
X305388D01*
X309579D02*
X311992D01*
X316310D02*
X318596D01*
X322025D02*
X326343D01*
X328629D02*
X331042D01*
X333328D02*
X336757D01*
X339170D02*
X341456D01*
X351997D02*
X353394D01*
X358220D02*
X359744D01*
X361268D02*
X362792D01*
X367618D02*
X369015D01*
X373206D02*
X376889D01*
X386033D02*
X389843D01*
X393399D02*
X401273D01*
X409274D02*
X413084D01*
X417529D02*
X428324D01*
X434801D02*
X451565D01*
X455248D02*
X461344D01*
X469345D02*
X475441D01*
X295736Y163303D02*
X297387D01*
X299165D02*
X301959D01*
X302975D02*
X305388D01*
X309579D02*
X311992D01*
X316310D02*
X318596D01*
X322025D02*
X326216D01*
X328629D02*
X331042D01*
X333455D02*
X336757D01*
X339170D02*
X341583D01*
X351870D02*
X353394D01*
X358220D02*
X359617D01*
X361268D02*
X362665D01*
X367618D02*
X369015D01*
X373206D02*
X376889D01*
X386033D02*
X389970D01*
X393399D02*
X401654D01*
X409274D02*
X413211D01*
X417529D02*
X428578D01*
X434801D02*
X451565D01*
X455248D02*
X461344D01*
X469345D02*
X475441D01*
X295609Y163430D02*
X297895D01*
X298911D02*
X301959D01*
X302975D02*
X305388D01*
X309579D02*
X311992D01*
X316310D02*
X318596D01*
X322152D02*
X326216D01*
X328629D02*
X331042D01*
X333455D02*
X336757D01*
X339170D02*
X341583D01*
X351870D02*
X353267D01*
X358220D02*
X359617D01*
X361141D02*
X362665D01*
X367491D02*
X368888D01*
X373206D02*
X376889D01*
X386033D02*
X389970D01*
X393526D02*
X402035D01*
X409147D02*
X413211D01*
X417656D02*
X428832D01*
X434801D02*
X451565D01*
X455248D02*
X461344D01*
X469345D02*
X475441D01*
X295482Y163557D02*
X301959D01*
X302975D02*
X305388D01*
X309579D02*
X311992D01*
X316310D02*
X318596D01*
X322152D02*
X326216D01*
X328629D02*
X330915D01*
X333455D02*
X336630D01*
X339170D02*
X341583D01*
X351743D02*
X353267D01*
X358093D02*
X359490D01*
X361141D02*
X362538D01*
X367491D02*
X368888D01*
X373206D02*
X376889D01*
X386033D02*
X389970D01*
X393653D02*
X402289D01*
X409147D02*
X413211D01*
X417783D02*
X428959D01*
X434928D02*
X451565D01*
X455248D02*
X461344D01*
X469345D02*
X475441D01*
X295482Y163684D02*
X301832D01*
X302975D02*
X305388D01*
X309579D02*
X311992D01*
X316310D02*
X318596D01*
X322152D02*
X326089D01*
X328502D02*
X330915D01*
X333582D02*
X336630D01*
X339170D02*
X341583D01*
X351743D02*
X353140D01*
X358093D02*
X359490D01*
X361014D02*
X362538D01*
X367364D02*
X368888D01*
X373079D02*
X376889D01*
X386033D02*
X389970D01*
X393780D02*
X402543D01*
X409147D02*
X413211D01*
X417783D02*
X429213D01*
X434928D02*
X451565D01*
X455248D02*
X461344D01*
X469345D02*
X475441D01*
X295482Y163811D02*
X301832D01*
X302975D02*
X305388D01*
X309579D02*
X311992D01*
X316310D02*
X318596D01*
X322279D02*
X326089D01*
X328502D02*
X330915D01*
X333582D02*
X336630D01*
X339297D02*
X341710D01*
X351616D02*
X353140D01*
X357966D02*
X359363D01*
X361014D02*
X362411D01*
X367364D02*
X368761D01*
X373079D02*
X376889D01*
X386033D02*
X389970D01*
X393907D02*
X402924D01*
X409147D02*
X413211D01*
X417910D02*
X429340D01*
X434928D02*
X451565D01*
X455248D02*
X461344D01*
X469345D02*
X475441D01*
X295355Y163938D02*
X301705D01*
X302975D02*
X305388D01*
X309579D02*
X311992D01*
X316310D02*
X318596D01*
X322279D02*
X326089D01*
X328502D02*
X330915D01*
X333582D02*
X336503D01*
X339297D02*
X341710D01*
X351616D02*
X353013D01*
X357966D02*
X359363D01*
X361014D02*
X362411D01*
X367237D02*
X368761D01*
X373079D02*
X376889D01*
X386033D02*
X389970D01*
X394034D02*
X403051D01*
X409147D02*
X413211D01*
X418037D02*
X429467D01*
X434928D02*
X451565D01*
X455248D02*
X461344D01*
X469345D02*
X475441D01*
X295355Y164065D02*
X301705D01*
X302975D02*
X305388D01*
X309579D02*
X311992D01*
X316310D02*
X318596D01*
X322279D02*
X325962D01*
X328502D02*
X330915D01*
X333582D02*
X336503D01*
X339297D02*
X341710D01*
X351489D02*
X353013D01*
X357839D02*
X359363D01*
X360887D02*
X362284D01*
X367237D02*
X368634D01*
X373079D02*
X376889D01*
X386033D02*
X389970D01*
X394161D02*
X403305D01*
X409147D02*
X413211D01*
X418037D02*
X429594D01*
X434928D02*
X451565D01*
X455248D02*
X461344D01*
X469345D02*
X475441D01*
X295355Y164192D02*
X301578D01*
X302975D02*
X305388D01*
X309579D02*
X311992D01*
X316310D02*
X318596D01*
X322406D02*
X325962D01*
X328375D02*
X330788D01*
X333709D02*
X336503D01*
X339297D02*
X341710D01*
X351489D02*
X352886D01*
X357839D02*
X359236D01*
X360887D02*
X362284D01*
X367110D02*
X368634D01*
X373079D02*
X376889D01*
X386033D02*
X389970D01*
X394288D02*
X403559D01*
X409147D02*
X413211D01*
X418164D02*
X429721D01*
X434928D02*
X451565D01*
X455248D02*
X461344D01*
X469345D02*
X475441D01*
X295355Y164319D02*
X301578D01*
X302975D02*
X305388D01*
X309579D02*
X311992D01*
X316310D02*
X318596D01*
X322406D02*
X325962D01*
X328375D02*
X330788D01*
X333709D02*
X336503D01*
X339297D02*
X341710D01*
X351362D02*
X352886D01*
X357712D02*
X359236D01*
X360760D02*
X362157D01*
X367110D02*
X368507D01*
X373079D02*
X376889D01*
X386033D02*
X389970D01*
X394542D02*
X403686D01*
X409147D02*
X413211D01*
X418291D02*
X429848D01*
X434928D02*
X451565D01*
X455248D02*
X461344D01*
X469345D02*
X475441D01*
X295355Y164446D02*
X301451D01*
X302975D02*
X305388D01*
X309579D02*
X311992D01*
X316310D02*
X318596D01*
X322533D02*
X325835D01*
X328375D02*
X330788D01*
X333709D02*
X336376D01*
X339424D02*
X341837D01*
X351362D02*
X352759D01*
X357712D02*
X359109D01*
X360760D02*
X362157D01*
X366983D02*
X368507D01*
X373079D02*
X376889D01*
X386033D02*
X389970D01*
X394669D02*
X403813D01*
X409147D02*
X413211D01*
X418418D02*
X429975D01*
X434928D02*
X451565D01*
X455248D02*
X461344D01*
X469345D02*
X475441D01*
X295482Y164573D02*
X301324D01*
X302975D02*
X305388D01*
X309579D02*
X311992D01*
X316310D02*
X318596D01*
X322533D02*
X325835D01*
X328375D02*
X330788D01*
X333836D02*
X336376D01*
X339424D02*
X341837D01*
X351362D02*
X352759D01*
X357585D02*
X359109D01*
X360633D02*
X362030D01*
X366983D02*
X368380D01*
X373206D02*
X376889D01*
X386033D02*
X389970D01*
X394923D02*
X404067D01*
X409147D02*
X413211D01*
X418545D02*
X430102D01*
X434928D02*
X451565D01*
X455248D02*
X461344D01*
X469345D02*
X475441D01*
X295482Y164700D02*
X301197D01*
X302975D02*
X305388D01*
X309579D02*
X311992D01*
X316310D02*
X318596D01*
X322533D02*
X325708D01*
X328375D02*
X330788D01*
X333836D02*
X336376D01*
X339424D02*
X341837D01*
X351235D02*
X352632D01*
X357585D02*
X358982D01*
X360633D02*
X362030D01*
X366856D02*
X368380D01*
X373206D02*
X376889D01*
X386033D02*
X389970D01*
X395050D02*
X404194D01*
X409274D02*
X413211D01*
X418799D02*
X430229D01*
X434928D02*
X451565D01*
X455248D02*
X461344D01*
X469345D02*
X475441D01*
X295609Y164827D02*
X301070D01*
X302975D02*
X305261D01*
X309706D02*
X311992D01*
X316310D02*
X318596D01*
X322660D02*
X325708D01*
X328375D02*
X330661D01*
X333836D02*
X336249D01*
X339424D02*
X341710D01*
X351235D02*
X352632D01*
X357458D02*
X358982D01*
X360506D02*
X362030D01*
X366856D02*
X368253D01*
X373206D02*
X377016D01*
X386033D02*
X389843D01*
X395304D02*
X404321D01*
X409274D02*
X413084D01*
X418926D02*
X430356D01*
X434928D02*
X451565D01*
X455248D02*
X461344D01*
X469345D02*
X475441D01*
X295609Y164954D02*
X300943D01*
X303102D02*
X305261D01*
X309706D02*
X311865D01*
X316310D02*
X318596D01*
X322660D02*
X325581D01*
X328375D02*
X330661D01*
X333963D02*
X336249D01*
X339551D02*
X341710D01*
X351108D02*
X352505D01*
X357458D02*
X358855D01*
X360506D02*
X361903D01*
X366856D02*
X368253D01*
X373206D02*
X377016D01*
X386033D02*
X389843D01*
X395558D02*
X404448D01*
X409401D02*
X413084D01*
X419053D02*
X430356D01*
X434928D02*
X451565D01*
X455248D02*
X461344D01*
X469345D02*
X475441D01*
X295863Y165081D02*
X300689D01*
X303102D02*
X305261D01*
X309706D02*
X311865D01*
X316310D02*
X318469D01*
X322787D02*
X325581D01*
X328502D02*
X330661D01*
X333963D02*
X336249D01*
X339551D02*
X341710D01*
X351108D02*
X352505D01*
X357331D02*
X358855D01*
X360379D02*
X361903D01*
X366729D02*
X368126D01*
X373206D02*
X377016D01*
X386033D02*
X389843D01*
X395939D02*
X404575D01*
X409401D02*
X412957D01*
X419307D02*
X430483D01*
X434928D02*
X451565D01*
X455248D02*
X461344D01*
X469345D02*
X475441D01*
X295990Y165208D02*
X300562D01*
X303102D02*
X305134D01*
X309833D02*
X311738D01*
X316437D02*
X318469D01*
X322914D02*
X325454D01*
X328502D02*
X330534D01*
X334090D02*
X336122D01*
X339678D02*
X341583D01*
X350981D02*
X352378D01*
X357331D02*
X358728D01*
X360379D02*
X361776D01*
X366729D02*
X368126D01*
X373206D02*
X377016D01*
X386033D02*
X389843D01*
X396193D02*
X404575D01*
X409528D02*
X412957D01*
X419561D02*
X430610D01*
X434928D02*
X451565D01*
X455248D02*
X461344D01*
X469345D02*
X475441D01*
X296244Y165335D02*
X300308D01*
X303229D02*
X305134D01*
X309833D02*
X311738D01*
X316564D02*
X318342D01*
X323041D02*
X325327D01*
X328629D02*
X330407D01*
X334217D02*
X335995D01*
X339678D02*
X341583D01*
X350981D02*
X352378D01*
X357204D02*
X358728D01*
X360252D02*
X361776D01*
X366602D02*
X367999D01*
X373206D02*
X377016D01*
X386033D02*
X389843D01*
X396574D02*
X404702D01*
X409655D02*
X412830D01*
X419688D02*
X430610D01*
X434928D02*
X451565D01*
X455248D02*
X461344D01*
X469345D02*
X475441D01*
X296498Y165462D02*
X300054D01*
X303356D02*
X304880D01*
X310087D02*
X311611D01*
X316691D02*
X318215D01*
X323168D02*
X325200D01*
X328756D02*
X330280D01*
X334344D02*
X335868D01*
X339805D02*
X341456D01*
X350854D02*
X352378D01*
X357204D02*
X358601D01*
X360252D02*
X361649D01*
X366602D02*
X367999D01*
X373206D02*
X377016D01*
X386033D02*
X389843D01*
X397082D02*
X404829D01*
X409655D02*
X412703D01*
X419942D02*
X430737D01*
X434928D02*
X451565D01*
X455248D02*
X461344D01*
X468710D02*
X475441D01*
X296879Y165589D02*
X299673D01*
X303610D02*
X304753D01*
X310214D02*
X311357D01*
X316818D02*
X317961D01*
X323295D02*
X324946D01*
X329010D02*
X330153D01*
X334598D02*
X335614D01*
X340059D02*
X341202D01*
X350854D02*
X352251D01*
X357204D02*
X358601D01*
X360125D02*
X361649D01*
X366475D02*
X367999D01*
X373206D02*
X377016D01*
X386033D02*
X389843D01*
X397463D02*
X404829D01*
X409909D02*
X412576D01*
X420323D02*
X430737D01*
X434928D02*
X451565D01*
X455248D02*
X475441D01*
X297514Y165716D02*
X299165D01*
X323676D02*
X324692D01*
X350727D02*
X352251D01*
X357077D02*
X358474D01*
X360125D02*
X361522D01*
X366475D02*
X367872D01*
X373206D02*
X377016D01*
X386033D02*
X389843D01*
X397844D02*
X404956D01*
X410036D02*
X412449D01*
X420577D02*
X430737D01*
X434928D02*
X451565D01*
X455248D02*
X475441D01*
X350727Y165843D02*
X352124D01*
X357077D02*
X358474D01*
X359998D02*
X361522D01*
X366348D02*
X367872D01*
X373206D02*
X377016D01*
X386033D02*
X389843D01*
X398352D02*
X405083D01*
X410163D02*
X412195D01*
X420958D02*
X430864D01*
X435055D02*
X451438D01*
X455248D02*
X475441D01*
X350600Y165970D02*
X352124D01*
X356950D02*
X358347D01*
X359998D02*
X361395D01*
X366348D02*
X367745D01*
X373206D02*
X377143D01*
X385906D02*
X389843D01*
X398733D02*
X405083D01*
X410544D02*
X411941D01*
X421212D02*
X430864D01*
X435055D02*
X451438D01*
X455248D02*
X475441D01*
X350600Y166097D02*
X351997D01*
X356950D02*
X358347D01*
X359871D02*
X361395D01*
X366221D02*
X367745D01*
X373333D02*
X377143D01*
X385906D02*
X389716D01*
X399241D02*
X405083D01*
X421593D02*
X430864D01*
X435055D02*
X445088D01*
X445850D02*
X451438D01*
X455248D02*
X475441D01*
X350473Y166224D02*
X351997D01*
X356823D02*
X358347D01*
X359871D02*
X361268D01*
X366221D02*
X367618D01*
X373333D02*
X377143D01*
X385906D02*
X389716D01*
X399622D02*
X405210D01*
X421974D02*
X430991D01*
X435055D02*
X440389D01*
X445850D02*
X451438D01*
X455248D02*
X475441D01*
X350473Y166351D02*
X351870D01*
X356823D02*
X358220D01*
X359871D02*
X361268D01*
X366094D02*
X367618D01*
X373333D02*
X377143D01*
X385906D02*
X389716D01*
X400003D02*
X405210D01*
X422355D02*
X430991D01*
X435055D02*
X440389D01*
X445850D02*
X451438D01*
X455248D02*
X475441D01*
X350346Y166478D02*
X351870D01*
X356696D02*
X358220D01*
X359744D02*
X361141D01*
X366094D02*
X367491D01*
X373333D02*
X377143D01*
X385906D02*
X389716D01*
X400257D02*
X405210D01*
X422736D02*
X430991D01*
X435055D02*
X440389D01*
X445850D02*
X451311D01*
X455248D02*
X475441D01*
X350346Y166605D02*
X351743D01*
X356696D02*
X358093D01*
X359744D02*
X361141D01*
X365967D02*
X367491D01*
X373333D02*
X377270D01*
X385779D02*
X389716D01*
X400511D02*
X405337D01*
X423117D02*
X430991D01*
X435055D02*
X440389D01*
X445850D02*
X451311D01*
X455248D02*
X475441D01*
X350219Y166732D02*
X351743D01*
X356569D02*
X358093D01*
X359617D02*
X361014D01*
X365967D02*
X367364D01*
X373333D02*
X377270D01*
X385779D02*
X389716D01*
X400765D02*
X405337D01*
X423498D02*
X430991D01*
X435182D02*
X440516D01*
X445850D02*
X451311D01*
X455248D02*
X475441D01*
X350219Y166859D02*
X351616D01*
X356569D02*
X357966D01*
X359617D02*
X361014D01*
X365840D02*
X367364D01*
X373460D02*
X377270D01*
X385779D02*
X389589D01*
X401019D02*
X405337D01*
X423752D02*
X430991D01*
X435182D02*
X440516D01*
X445723D02*
X451311D01*
X455248D02*
X475441D01*
X350219Y166986D02*
X351616D01*
X356442D02*
X357966D01*
X359490D02*
X361014D01*
X365840D02*
X367237D01*
X373460D02*
X377270D01*
X385779D02*
X389589D01*
X401146D02*
X405337D01*
X424133D02*
X431118D01*
X435182D02*
X440516D01*
X445723D02*
X451311D01*
X455248D02*
X475441D01*
X350092Y167113D02*
X351489D01*
X356442D02*
X357839D01*
X359490D02*
X360887D01*
X365840D02*
X367237D01*
X373460D02*
X377397D01*
X385652D02*
X389589D01*
X401273D02*
X405337D01*
X424387D02*
X431118D01*
X435182D02*
X440516D01*
X445723D02*
X451184D01*
X455248D02*
X475441D01*
X350092Y167240D02*
X351489D01*
X356315D02*
X357839D01*
X359363D02*
X360887D01*
X365713D02*
X367110D01*
X373460D02*
X377397D01*
X385652D02*
X389462D01*
X401400D02*
X405464D01*
X424641D02*
X431118D01*
X435182D02*
X440516D01*
X445723D02*
X451184D01*
X455248D02*
X475441D01*
X349965Y167367D02*
X351362D01*
X356315D02*
X357712D01*
X359363D02*
X360760D01*
X365713D02*
X367110D01*
X373587D02*
X377397D01*
X385652D02*
X389462D01*
X401527D02*
X405464D01*
X424768D02*
X431118D01*
X435309D02*
X440516D01*
X445596D02*
X451184D01*
X455248D02*
X475441D01*
X349965Y167494D02*
X351362D01*
X356188D02*
X357712D01*
X359236D02*
X360760D01*
X365586D02*
X366983D01*
X373587D02*
X377524D01*
X385525D02*
X389462D01*
X401527D02*
X405464D01*
X424895D02*
X431118D01*
X435309D02*
X440643D01*
X445596D02*
X451057D01*
X455248D02*
X475441D01*
X298022Y167621D02*
X299419D01*
X349838D02*
X351362D01*
X356188D02*
X357585D01*
X359236D02*
X360633D01*
X365586D02*
X366983D01*
X373587D02*
X377524D01*
X385525D02*
X389462D01*
X401654D02*
X405464D01*
X425022D02*
X431118D01*
X435309D02*
X440643D01*
X445596D02*
X451057D01*
X455248D02*
X475441D01*
X297387Y167748D02*
X300435D01*
X304372D02*
X305261D01*
X307547D02*
X308436D01*
X314659D02*
X315548D01*
X324311D02*
X325073D01*
X331423D02*
X332312D01*
X349838D02*
X351235D01*
X356188D02*
X357585D01*
X359109D02*
X360633D01*
X365459D02*
X366983D01*
X373714D02*
X377651D01*
X385398D02*
X389335D01*
X401654D02*
X405464D01*
X425149D02*
X431118D01*
X435309D02*
X440643D01*
X445469D02*
X451057D01*
X455248D02*
X475441D01*
X297006Y167875D02*
X300943D01*
X304118D02*
X305515D01*
X307293D02*
X308690D01*
X314405D02*
X315802D01*
X317326D02*
X322025D01*
X324057D02*
X325454D01*
X331169D02*
X332566D01*
X349711D02*
X351235D01*
X356061D02*
X357458D01*
X359109D02*
X360506D01*
X365459D02*
X366856D01*
X373714D02*
X377651D01*
X385398D02*
X389335D01*
X401654D02*
X405464D01*
X425149D02*
X431118D01*
X435436D02*
X440770D01*
X445469D02*
X450930D01*
X455248D02*
X475441D01*
X296752Y168002D02*
X301197D01*
X303991D02*
X305642D01*
X307166D02*
X308817D01*
X314278D02*
X315929D01*
X317072D02*
X322279D01*
X323803D02*
X325581D01*
X331042D02*
X332693D01*
X349711D02*
X351108D01*
X356061D02*
X357458D01*
X358982D02*
X360506D01*
X365332D02*
X366856D01*
X373714D02*
X377651D01*
X385271D02*
X389208D01*
X401654D02*
X405464D01*
X425149D02*
X431118D01*
X435436D02*
X440770D01*
X445342D02*
X450930D01*
X455248D02*
X475441D01*
X296498Y168129D02*
X301578D01*
X303864D02*
X305769D01*
X307039D02*
X308944D01*
X314151D02*
X316056D01*
X316945D02*
X322406D01*
X323803D02*
X325708D01*
X330915D02*
X332820D01*
X349584D02*
X351108D01*
X355934D02*
X357331D01*
X358982D02*
X360379D01*
X365332D02*
X366729D01*
X373841D02*
X377778D01*
X385271D02*
X389208D01*
X401654D02*
X405464D01*
X425276D02*
X430991D01*
X435436D02*
X440897D01*
X445215D02*
X450803D01*
X455248D02*
X475441D01*
X296244Y168256D02*
X301705D01*
X303737D02*
X305896D01*
X306912D02*
X308944D01*
X314024D02*
X316183D01*
X316818D02*
X322533D01*
X323676D02*
X325708D01*
X330788D02*
X332947D01*
X335614D02*
X336757D01*
X349584D02*
X350981D01*
X355934D02*
X357331D01*
X358855D02*
X360379D01*
X365205D02*
X366729D01*
X373841D02*
X377778D01*
X385144D02*
X389208D01*
X401654D02*
X405464D01*
X418545D02*
X418799D01*
X425276D02*
X430991D01*
X435563D02*
X440897D01*
X445215D02*
X450803D01*
X455248D02*
X475441D01*
X296117Y168383D02*
X301959D01*
X303737D02*
X305896D01*
X306912D02*
X309071D01*
X314024D02*
X316183D01*
X316691D02*
X322533D01*
X323676D02*
X325835D01*
X330788D02*
X332947D01*
X335487D02*
X337011D01*
X349457D02*
X350981D01*
X355807D02*
X357331D01*
X358855D02*
X360252D01*
X365205D02*
X366602D01*
X373841D02*
X377905D01*
X385017D02*
X389081D01*
X401654D02*
X405337D01*
X418418D02*
X419053D01*
X425149D02*
X430991D01*
X435563D02*
X441024D01*
X445088D02*
X450676D01*
X455248D02*
X475441D01*
X295863Y168510D02*
X302086D01*
X303610D02*
X305896D01*
X306912D02*
X309071D01*
X314024D02*
X316310D01*
X316691D02*
X322660D01*
X323549D02*
X325835D01*
X330661D02*
X332947D01*
X335360D02*
X337138D01*
X349457D02*
X350854D01*
X355807D02*
X357204D01*
X358855D02*
X360252D01*
X365078D02*
X366602D01*
X373968D02*
X378032D01*
X385017D02*
X389081D01*
X401654D02*
X405337D01*
X418291D02*
X419307D01*
X425149D02*
X430991D01*
X435690D02*
X441151D01*
X444961D02*
X450676D01*
X455248D02*
X475441D01*
X295736Y168637D02*
X302086D01*
X303610D02*
X305896D01*
X306785D02*
X309071D01*
X313897D02*
X316310D01*
X316691D02*
X322660D01*
X323549D02*
X325835D01*
X330661D02*
X333074D01*
X335233D02*
X337138D01*
X349330D02*
X350854D01*
X355680D02*
X357204D01*
X358728D02*
X360125D01*
X365078D02*
X366475D01*
X373968D02*
X378032D01*
X384890D02*
X388954D01*
X401654D02*
X405337D01*
X418291D02*
X419561D01*
X425149D02*
X430991D01*
X435690D02*
X441278D01*
X444834D02*
X450676D01*
X455248D02*
X475441D01*
X295609Y168764D02*
X302213D01*
X303610D02*
X306023D01*
X306785D02*
X309198D01*
X313897D02*
X316310D01*
X316691D02*
X322660D01*
X323549D02*
X325962D01*
X330661D02*
X333074D01*
X335106D02*
X337265D01*
X349330D02*
X350727D01*
X355680D02*
X357077D01*
X358728D02*
X360125D01*
X364951D02*
X366475D01*
X374095D02*
X378159D01*
X384763D02*
X388954D01*
X401527D02*
X405337D01*
X418291D02*
X419688D01*
X425022D02*
X430991D01*
X435690D02*
X441405D01*
X444707D02*
X450549D01*
X455248D02*
X475441D01*
X295482Y168891D02*
X302213D01*
X303610D02*
X306023D01*
X306785D02*
X309198D01*
X313897D02*
X316310D01*
X316691D02*
X322660D01*
X323549D02*
X325962D01*
X330534D02*
X333074D01*
X335106D02*
X337265D01*
X349203D02*
X350727D01*
X355553D02*
X357077D01*
X358601D02*
X359998D01*
X364951D02*
X366348D01*
X374095D02*
X378286D01*
X384636D02*
X388827D01*
X394034D02*
X394288D01*
X401527D02*
X405337D01*
X418291D02*
X419942D01*
X424895D02*
X430864D01*
X435817D02*
X441532D01*
X444453D02*
X450422D01*
X455248D02*
X475441D01*
X295482Y169018D02*
X302340D01*
X303610D02*
X306023D01*
X306912D02*
X309198D01*
X313770D02*
X316310D01*
X316691D02*
X322660D01*
X323549D02*
X325962D01*
X330534D02*
X332947D01*
X334979D02*
X337392D01*
X349203D02*
X350600D01*
X355553D02*
X356950D01*
X358601D02*
X359998D01*
X364951D02*
X366348D01*
X374222D02*
X378413D01*
X384509D02*
X388827D01*
X393780D02*
X394415D01*
X401400D02*
X405337D01*
X418291D02*
X420323D01*
X424768D02*
X430864D01*
X435817D02*
X441659D01*
X444326D02*
X450422D01*
X455248D02*
X475441D01*
X295355Y169145D02*
X302340D01*
X303610D02*
X306023D01*
X306912D02*
X309325D01*
X313770D02*
X316183D01*
X316691D02*
X322660D01*
X323676D02*
X326089D01*
X330534D02*
X332947D01*
X334979D02*
X337392D01*
X349203D02*
X350600D01*
X355426D02*
X356950D01*
X358474D02*
X359871D01*
X364824D02*
X366221D01*
X374222D02*
X378540D01*
X384382D02*
X388700D01*
X393780D02*
X394669D01*
X401273D02*
X405210D01*
X418291D02*
X420577D01*
X424641D02*
X430864D01*
X435944D02*
X441913D01*
X444072D02*
X450295D01*
X455248D02*
X475441D01*
X295228Y169272D02*
X302340D01*
X303610D02*
X306023D01*
X306912D02*
X309325D01*
X313770D02*
X316183D01*
X316691D02*
X322660D01*
X323676D02*
X326089D01*
X330534D02*
X332947D01*
X334979D02*
X337519D01*
X349076D02*
X350473D01*
X355426D02*
X356823D01*
X358474D02*
X359871D01*
X364824D02*
X366221D01*
X374349D02*
X378667D01*
X384255D02*
X388573D01*
X393780D02*
X394923D01*
X401146D02*
X405210D01*
X418291D02*
X420958D01*
X424387D02*
X430737D01*
X435944D02*
X442294D01*
X443691D02*
X450295D01*
X455248D02*
X475441D01*
X295228Y169399D02*
X302340D01*
X303610D02*
X306023D01*
X306912D02*
X309325D01*
X313643D02*
X316183D01*
X316691D02*
X322660D01*
X323676D02*
X326089D01*
X330407D02*
X332947D01*
X334852D02*
X337519D01*
X349076D02*
X350473D01*
X355299D02*
X356823D01*
X358347D02*
X359871D01*
X364697D02*
X366094D01*
X374349D02*
X378794D01*
X384128D02*
X388573D01*
X393780D02*
X395177D01*
X401019D02*
X405210D01*
X418291D02*
X421466D01*
X424133D02*
X430737D01*
X436071D02*
X450168D01*
X455248D02*
X475441D01*
X295101Y169526D02*
X302340D01*
X303610D02*
X306023D01*
X307039D02*
X309452D01*
X313643D02*
X316056D01*
X316818D02*
X322660D01*
X323803D02*
X326216D01*
X330407D02*
X332820D01*
X334852D02*
X337519D01*
X348949D02*
X350346D01*
X355299D02*
X356696D01*
X358347D02*
X359744D01*
X364697D02*
X366094D01*
X374476D02*
X379048D01*
X383874D02*
X388446D01*
X393653D02*
X395431D01*
X400892D02*
X405083D01*
X418291D02*
X422228D01*
X423498D02*
X430737D01*
X436071D02*
X450041D01*
X455248D02*
X475441D01*
X295101Y169653D02*
X302340D01*
X303610D02*
X306023D01*
X307039D02*
X309452D01*
X313643D02*
X316056D01*
X316945D02*
X322660D01*
X323803D02*
X326216D01*
X330407D02*
X332820D01*
X334852D02*
X337646D01*
X348949D02*
X350346D01*
X355299D02*
X356696D01*
X358220D02*
X359744D01*
X364570D02*
X365967D01*
X374603D02*
X379302D01*
X383620D02*
X388319D01*
X393653D02*
X395812D01*
X400638D02*
X405083D01*
X418291D02*
X430610D01*
X436198D02*
X450041D01*
X455248D02*
X461598D01*
X469345D02*
X475441D01*
X294974Y169780D02*
X302213D01*
X303610D02*
X306023D01*
X307166D02*
X309452D01*
X313516D02*
X316056D01*
X317072D02*
X322660D01*
X323803D02*
X326216D01*
X330280D02*
X332820D01*
X334725D02*
X337646D01*
X348822D02*
X350346D01*
X355172D02*
X356569D01*
X358220D02*
X359617D01*
X364570D02*
X365967D01*
X374603D02*
X379429D01*
X383366D02*
X388319D01*
X393653D02*
X396193D01*
X400384D02*
X404956D01*
X418291D02*
X430610D01*
X436325D02*
X449914D01*
X455248D02*
X461344D01*
X469345D02*
X475441D01*
X294974Y169907D02*
X298403D01*
X299165D02*
X302213D01*
X303610D02*
X306023D01*
X307166D02*
X315929D01*
X317326D02*
X322660D01*
X323930D02*
X332693D01*
X334725D02*
X337773D01*
X348822D02*
X350219D01*
X355172D02*
X356569D01*
X358093D02*
X359617D01*
X364443D02*
X365967D01*
X374730D02*
X379810D01*
X383112D02*
X388192D01*
X393653D02*
X396574D01*
X400003D02*
X404956D01*
X418164D02*
X430483D01*
X436325D02*
X449787D01*
X455248D02*
X461344D01*
X469345D02*
X475441D01*
X294974Y170034D02*
X298022D01*
X299673D02*
X302086D01*
X303610D02*
X306023D01*
X307166D02*
X315929D01*
X320374D02*
X322660D01*
X323930D02*
X332693D01*
X334598D02*
X337773D01*
X348695D02*
X350219D01*
X355045D02*
X356442D01*
X358093D02*
X359490D01*
X364443D02*
X365840D01*
X374857D02*
X380191D01*
X382731D02*
X388065D01*
X393653D02*
X397336D01*
X399495D02*
X404829D01*
X418164D02*
X430356D01*
X436452D02*
X449660D01*
X455248D02*
X461344D01*
X469345D02*
X475441D01*
X294847Y170161D02*
X297768D01*
X300054D02*
X301959D01*
X303610D02*
X306023D01*
X307293D02*
X315929D01*
X320374D02*
X322660D01*
X324057D02*
X332566D01*
X334598D02*
X337773D01*
X348695D02*
X350092D01*
X355045D02*
X356442D01*
X357966D02*
X359490D01*
X364316D02*
X365840D01*
X374984D02*
X380953D01*
X381969D02*
X387938D01*
X393653D02*
X404829D01*
X418164D02*
X430356D01*
X436579D02*
X449533D01*
X455248D02*
X461344D01*
X469345D02*
X475441D01*
X294847Y170288D02*
X297641D01*
X300435D02*
X301832D01*
X303610D02*
X306023D01*
X307293D02*
X315802D01*
X320374D02*
X322660D01*
X324057D02*
X332566D01*
X334598D02*
X337900D01*
X348568D02*
X350092D01*
X354918D02*
X356315D01*
X357966D02*
X359363D01*
X364316D02*
X365713D01*
X375111D02*
X387811D01*
X393653D02*
X404702D01*
X418164D02*
X430229D01*
X436579D02*
X449533D01*
X455248D02*
X461344D01*
X469345D02*
X475441D01*
X294847Y170415D02*
X297514D01*
X300943D02*
X301578D01*
X303610D02*
X306023D01*
X307293D02*
X315802D01*
X320374D02*
X322660D01*
X324057D02*
X332566D01*
X334471D02*
X337900D01*
X348568D02*
X349965D01*
X354918D02*
X356315D01*
X357839D02*
X359363D01*
X364189D02*
X365713D01*
X375111D02*
X387684D01*
X393653D02*
X404575D01*
X418164D02*
X430102D01*
X436706D02*
X449406D01*
X455248D02*
X461344D01*
X469345D02*
X475441D01*
X294847Y170542D02*
X297514D01*
X303610D02*
X306023D01*
X307420D02*
X315675D01*
X320374D02*
X322660D01*
X324184D02*
X332439D01*
X334471D02*
X337900D01*
X348441D02*
X349965D01*
X354791D02*
X356315D01*
X357839D02*
X359236D01*
X364189D02*
X365586D01*
X375238D02*
X387557D01*
X393653D02*
X404575D01*
X418164D02*
X430102D01*
X436833D02*
X449279D01*
X455248D02*
X461344D01*
X469345D02*
X475441D01*
X294847Y170669D02*
X297387D01*
X303610D02*
X306023D01*
X307420D02*
X315675D01*
X320374D02*
X322660D01*
X324184D02*
X332439D01*
X334344D02*
X338027D01*
X348441D02*
X349838D01*
X354791D02*
X356188D01*
X357839D02*
X359236D01*
X364062D02*
X365586D01*
X375365D02*
X387430D01*
X393526D02*
X404448D01*
X418164D02*
X429975D01*
X436960D02*
X449152D01*
X455248D02*
X461344D01*
X469345D02*
X475441D01*
X294847Y170796D02*
X297387D01*
X303610D02*
X306023D01*
X307420D02*
X315675D01*
X320374D02*
X322660D01*
X324184D02*
X332439D01*
X334344D02*
X338027D01*
X348314D02*
X349838D01*
X354664D02*
X356188D01*
X357712D02*
X359109D01*
X364062D02*
X365459D01*
X375492D02*
X387303D01*
X393526D02*
X404321D01*
X418164D02*
X429848D01*
X437087D02*
X448898D01*
X455248D02*
X461344D01*
X469345D02*
X475441D01*
X294720Y170923D02*
X297387D01*
X303610D02*
X306023D01*
X307547D02*
X315548D01*
X320374D02*
X322660D01*
X324311D02*
X332312D01*
X334344D02*
X338154D01*
X348314D02*
X349711D01*
X354664D02*
X356061D01*
X357712D02*
X359109D01*
X363935D02*
X365459D01*
X375746D02*
X387176D01*
X393526D02*
X404194D01*
X418164D02*
X429721D01*
X437214D02*
X448771D01*
X455248D02*
X461344D01*
X469345D02*
X475441D01*
X294720Y171050D02*
X297260D01*
X303610D02*
X306023D01*
X307547D02*
X315548D01*
X320374D02*
X322660D01*
X324311D02*
X332312D01*
X334217D02*
X338154D01*
X348187D02*
X349711D01*
X354537D02*
X356061D01*
X357585D02*
X358982D01*
X363935D02*
X365332D01*
X375873D02*
X386922D01*
X393526D02*
X404067D01*
X418164D02*
X429594D01*
X437341D02*
X448644D01*
X455248D02*
X461344D01*
X469345D02*
X475441D01*
X294720Y171177D02*
X297387D01*
X303610D02*
X306023D01*
X307674D02*
X315548D01*
X320374D02*
X322660D01*
X324311D02*
X332185D01*
X334217D02*
X338154D01*
X348187D02*
X349584D01*
X354537D02*
X355934D01*
X357585D02*
X358982D01*
X363935D02*
X365332D01*
X376000D02*
X386795D01*
X393526D02*
X403940D01*
X418037D02*
X429467D01*
X437468D02*
X448517D01*
X455248D02*
X461344D01*
X469345D02*
X475441D01*
X294720Y171304D02*
X297387D01*
X303610D02*
X306023D01*
X307674D02*
X315421D01*
X320374D02*
X322660D01*
X324438D02*
X332185D01*
X334090D02*
X338281D01*
X348187D02*
X349584D01*
X354410D02*
X355934D01*
X357458D02*
X358855D01*
X363808D02*
X365205D01*
X376127D02*
X386541D01*
X393526D02*
X403686D01*
X418037D02*
X429340D01*
X437595D02*
X448263D01*
X455248D02*
X461471D01*
X469345D02*
X475441D01*
X294847Y171431D02*
X297387D01*
X303610D02*
X306023D01*
X307674D02*
X315421D01*
X320374D02*
X322660D01*
X324438D02*
X332185D01*
X334090D02*
X338281D01*
X348060D02*
X349457D01*
X354410D02*
X355807D01*
X357458D02*
X358855D01*
X363808D02*
X365205D01*
X376381D02*
X386414D01*
X393526D02*
X403559D01*
X418037D02*
X429086D01*
X437722D02*
X448136D01*
X455248D02*
X461471D01*
X469345D02*
X475441D01*
X294847Y171558D02*
X297514D01*
X303610D02*
X306023D01*
X307801D02*
X315421D01*
X320374D02*
X322660D01*
X324438D02*
X332058D01*
X334090D02*
X338408D01*
X348060D02*
X349457D01*
X354283D02*
X355807D01*
X357331D02*
X358855D01*
X363681D02*
X365078D01*
X376635D02*
X386160D01*
X393526D02*
X403305D01*
X418037D02*
X428959D01*
X437849D02*
X447882D01*
X455248D02*
X461471D01*
X469345D02*
X475441D01*
X294847Y171685D02*
X297641D01*
X303610D02*
X306023D01*
X307801D02*
X315294D01*
X320374D02*
X322660D01*
X324565D02*
X332058D01*
X333963D02*
X338408D01*
X347933D02*
X349330D01*
X354283D02*
X355680D01*
X357331D02*
X358728D01*
X363681D02*
X365078D01*
X376762D02*
X385906D01*
X393526D02*
X403178D01*
X418037D02*
X428832D01*
X438103D02*
X447755D01*
X455248D02*
X461471D01*
X469345D02*
X475441D01*
X294847Y171812D02*
X297895D01*
X303610D02*
X306023D01*
X307801D02*
X315294D01*
X320374D02*
X322660D01*
X324565D02*
X332058D01*
X333963D02*
X338408D01*
X347933D02*
X349330D01*
X354283D02*
X355680D01*
X357204D02*
X358728D01*
X363554D02*
X364951D01*
X377016D02*
X385652D01*
X393653D02*
X402924D01*
X418037D02*
X428578D01*
X438230D02*
X447501D01*
X455248D02*
X461471D01*
X469345D02*
X475441D01*
X294847Y171939D02*
X298149D01*
X303610D02*
X306023D01*
X307928D02*
X315167D01*
X320374D02*
X322660D01*
X324692D02*
X331931D01*
X333836D02*
X338535D01*
X347806D02*
X349203D01*
X354156D02*
X355553D01*
X357204D02*
X358601D01*
X363554D02*
X364951D01*
X377270D02*
X385398D01*
X393907D02*
X402670D01*
X418037D02*
X428324D01*
X438484D02*
X447247D01*
X455248D02*
X461471D01*
X469345D02*
X475568D01*
X294847Y172066D02*
X298530D01*
X303610D02*
X306023D01*
X307928D02*
X310214D01*
X312881D02*
X315167D01*
X320374D02*
X322660D01*
X324692D02*
X326978D01*
X329645D02*
X331931D01*
X333836D02*
X338535D01*
X347806D02*
X349203D01*
X354156D02*
X355553D01*
X357077D02*
X358601D01*
X363427D02*
X364951D01*
X377651D02*
X385144D01*
X394288D02*
X402416D01*
X418164D02*
X428070D01*
X438738D02*
X446993D01*
X455248D02*
X461471D01*
X469345D02*
X475568D01*
X294974Y172193D02*
X298911D01*
X303610D02*
X306023D01*
X307928D02*
X310341D01*
X312754D02*
X315167D01*
X320374D02*
X322660D01*
X324692D02*
X326978D01*
X329518D02*
X331931D01*
X333836D02*
X338662D01*
X347679D02*
X349203D01*
X354029D02*
X355426D01*
X357077D02*
X358474D01*
X363427D02*
X364824D01*
X377905D02*
X384763D01*
X394796D02*
X402035D01*
X418545D02*
X427816D01*
X438992D02*
X446739D01*
X455248D02*
X461471D01*
X469345D02*
X475568D01*
X294974Y172320D02*
X299419D01*
X303610D02*
X306023D01*
X308055D02*
X310341D01*
X312754D02*
X315040D01*
X320374D02*
X322660D01*
X324819D02*
X327105D01*
X329518D02*
X331804D01*
X333709D02*
X338662D01*
X347679D02*
X349076D01*
X354029D02*
X355426D01*
X356950D02*
X358474D01*
X363300D02*
X364824D01*
X378286D02*
X384382D01*
X395177D02*
X401654D01*
X419053D02*
X427435D01*
X439373D02*
X446358D01*
X455248D02*
X461471D01*
X469345D02*
X475568D01*
X294974Y172447D02*
X299800D01*
X303610D02*
X306023D01*
X308055D02*
X310341D01*
X312754D02*
X315040D01*
X320374D02*
X322660D01*
X324819D02*
X327105D01*
X329518D02*
X331804D01*
X333709D02*
X336122D01*
X336249D02*
X338662D01*
X347552D02*
X349076D01*
X353902D02*
X355299D01*
X356950D02*
X358347D01*
X363300D02*
X364697D01*
X378794D02*
X383874D01*
X395812D02*
X401146D01*
X419561D02*
X427054D01*
X439754D02*
X445977D01*
X455248D02*
X461471D01*
X469218D02*
X475568D01*
X295101Y172574D02*
X300181D01*
X303610D02*
X306023D01*
X308055D02*
X310341D01*
X312627D02*
X315040D01*
X320374D02*
X322660D01*
X324819D02*
X327105D01*
X329391D02*
X331677D01*
X333582D02*
X336122D01*
X336249D02*
X338789D01*
X347552D02*
X348949D01*
X353902D02*
X355299D01*
X356823D02*
X358347D01*
X363173D02*
X364697D01*
X379429D02*
X383239D01*
X396447D02*
X400511D01*
X420196D02*
X426673D01*
X440135D02*
X445469D01*
X455248D02*
X461471D01*
X469218D02*
X475568D01*
X295101Y172701D02*
X300562D01*
X303610D02*
X306023D01*
X308182D02*
X310468D01*
X312627D02*
X314913D01*
X320374D02*
X322660D01*
X324946D02*
X327232D01*
X329391D02*
X331677D01*
X333582D02*
X335995D01*
X336376D02*
X338789D01*
X347425D02*
X348949D01*
X353775D02*
X355299D01*
X356823D02*
X358220D01*
X363173D02*
X364570D01*
X380572D02*
X382096D01*
X397717D02*
X399368D01*
X420831D02*
X426038D01*
X440770D02*
X444961D01*
X455248D02*
X461471D01*
X469218D02*
X475568D01*
X295228Y172828D02*
X300816D01*
X303610D02*
X306023D01*
X308182D02*
X310468D01*
X312627D02*
X314913D01*
X320374D02*
X322660D01*
X324946D02*
X327232D01*
X329391D02*
X331677D01*
X333582D02*
X335995D01*
X336376D02*
X338916D01*
X347425D02*
X348822D01*
X353775D02*
X355172D01*
X356696D02*
X358220D01*
X363046D02*
X364570D01*
X421847D02*
X425022D01*
X441532D02*
X444072D01*
X455248D02*
X461471D01*
X469218D02*
X475568D01*
X295355Y172955D02*
X301070D01*
X303610D02*
X306023D01*
X308309D02*
X310468D01*
X312500D02*
X314786D01*
X320374D02*
X322660D01*
X324946D02*
X327232D01*
X329264D02*
X331550D01*
X333455D02*
X335995D01*
X336376D02*
X338916D01*
X347298D02*
X348822D01*
X353648D02*
X355172D01*
X356696D02*
X358093D01*
X363046D02*
X364443D01*
X455248D02*
X461471D01*
X469218D02*
X475568D01*
X295355Y173082D02*
X301197D01*
X303610D02*
X306023D01*
X308309D02*
X310595D01*
X312500D02*
X314786D01*
X320374D02*
X322660D01*
X325073D02*
X327359D01*
X329264D02*
X331550D01*
X333455D02*
X335868D01*
X336503D02*
X338916D01*
X347298D02*
X348695D01*
X353648D02*
X355045D01*
X356696D02*
X358093D01*
X362919D02*
X364443D01*
X455248D02*
X461471D01*
X469218D02*
X475568D01*
X295482Y173209D02*
X301451D01*
X303610D02*
X306023D01*
X308309D02*
X310595D01*
X312500D02*
X314786D01*
X320374D02*
X322660D01*
X325073D02*
X327359D01*
X329264D02*
X331550D01*
X333328D02*
X335868D01*
X336503D02*
X339043D01*
X347171D02*
X348695D01*
X353521D02*
X355045D01*
X356569D02*
X357966D01*
X362919D02*
X364316D01*
X455248D02*
X461471D01*
X469218D02*
X475568D01*
X295609Y173336D02*
X301578D01*
X303610D02*
X306023D01*
X308436D02*
X310595D01*
X312373D02*
X314659D01*
X320374D02*
X322660D01*
X325200D02*
X327359D01*
X329137D02*
X331423D01*
X333328D02*
X335868D01*
X336630D02*
X339043D01*
X347171D02*
X348568D01*
X353521D02*
X354918D01*
X356569D02*
X357966D01*
X362919D02*
X364316D01*
X455248D02*
X461471D01*
X469218D02*
X475568D01*
X295736Y173463D02*
X301705D01*
X303610D02*
X306023D01*
X308436D02*
X310722D01*
X312373D02*
X314659D01*
X320374D02*
X322660D01*
X325200D02*
X327486D01*
X329137D02*
X331423D01*
X333328D02*
X335741D01*
X336630D02*
X339170D01*
X347044D02*
X348568D01*
X353394D02*
X354918D01*
X356442D02*
X357839D01*
X362792D02*
X364189D01*
X455248D02*
X461471D01*
X469218D02*
X475568D01*
X295990Y173590D02*
X301832D01*
X303610D02*
X306023D01*
X308436D02*
X310722D01*
X312373D02*
X314659D01*
X320374D02*
X322660D01*
X325200D02*
X327486D01*
X329137D02*
X331296D01*
X333201D02*
X335741D01*
X336630D02*
X339170D01*
X347044D02*
X348441D01*
X353394D02*
X354791D01*
X356442D02*
X357839D01*
X362792D02*
X364189D01*
X455248D02*
X461471D01*
X469218D02*
X475568D01*
X296117Y173717D02*
X301832D01*
X303610D02*
X306023D01*
X308563D02*
X310722D01*
X312246D02*
X314532D01*
X320374D02*
X322660D01*
X325327D02*
X327486D01*
X329010D02*
X331296D01*
X333201D02*
X335741D01*
X336757D02*
X339170D01*
X347044D02*
X348441D01*
X353267D02*
X354791D01*
X356315D02*
X357712D01*
X362665D02*
X364062D01*
X455248D02*
X461471D01*
X469218D02*
X475568D01*
X296371Y173844D02*
X301959D01*
X303610D02*
X306023D01*
X308563D02*
X310849D01*
X312246D02*
X314532D01*
X320374D02*
X322660D01*
X325327D02*
X327613D01*
X329010D02*
X331296D01*
X333201D02*
X335614D01*
X336757D02*
X339297D01*
X346917D02*
X348314D01*
X353267D02*
X354664D01*
X356315D02*
X357712D01*
X362665D02*
X364062D01*
X455248D02*
X461471D01*
X469218D02*
X475568D01*
X296625Y173971D02*
X302086D01*
X303610D02*
X306023D01*
X308563D02*
X310849D01*
X312246D02*
X314405D01*
X320374D02*
X322660D01*
X325327D02*
X327613D01*
X329010D02*
X331169D01*
X333074D02*
X335614D01*
X336757D02*
X339297D01*
X346917D02*
X348314D01*
X353267D02*
X354664D01*
X356188D02*
X357712D01*
X362538D02*
X364062D01*
X455248D02*
X461471D01*
X469218D02*
X475568D01*
X296879Y174098D02*
X302086D01*
X303610D02*
X306023D01*
X308690D02*
X310849D01*
X312119D02*
X314405D01*
X320374D02*
X322660D01*
X325454D02*
X327613D01*
X328883D02*
X331169D01*
X333074D02*
X335487D01*
X336884D02*
X339297D01*
X346790D02*
X348187D01*
X353140D02*
X354537D01*
X356188D02*
X357585D01*
X362538D02*
X363935D01*
X455248D02*
X461471D01*
X469218D02*
X475568D01*
X297260Y174225D02*
X302086D01*
X303610D02*
X306023D01*
X308690D02*
X310976D01*
X312119D02*
X314405D01*
X320374D02*
X322660D01*
X325454D02*
X327740D01*
X328883D02*
X331169D01*
X332947D02*
X335487D01*
X336884D02*
X339424D01*
X346790D02*
X348187D01*
X353140D02*
X354537D01*
X356061D02*
X357585D01*
X362411D02*
X363935D01*
X455248D02*
X461471D01*
X469218D02*
X475568D01*
X297641Y174352D02*
X302213D01*
X303610D02*
X306023D01*
X308817D02*
X310976D01*
X312119D02*
X314278D01*
X320374D02*
X322660D01*
X325454D02*
X327740D01*
X328883D02*
X331042D01*
X332947D02*
X335487D01*
X337011D02*
X339424D01*
X346663D02*
X348187D01*
X353013D02*
X354410D01*
X356061D02*
X357458D01*
X362411D02*
X363808D01*
X455248D02*
X461471D01*
X469218D02*
X475568D01*
X298149Y174479D02*
X302213D01*
X303610D02*
X306023D01*
X308817D02*
X310976D01*
X312119D02*
X314278D01*
X320374D02*
X322660D01*
X325581D02*
X327740D01*
X328756D02*
X331042D01*
X332947D02*
X335360D01*
X337011D02*
X339551D01*
X346663D02*
X348060D01*
X353013D02*
X354410D01*
X355934D02*
X357458D01*
X362284D02*
X363808D01*
X455248D02*
X461471D01*
X469218D02*
X475568D01*
X298530Y174606D02*
X302213D01*
X303610D02*
X306023D01*
X308817D02*
X311103D01*
X311992D02*
X314278D01*
X320374D02*
X322660D01*
X325581D02*
X327740D01*
X328756D02*
X331042D01*
X332820D02*
X335360D01*
X337011D02*
X339551D01*
X346536D02*
X348060D01*
X352886D02*
X354410D01*
X355934D02*
X357331D01*
X362284D02*
X363681D01*
X455248D02*
X461471D01*
X469218D02*
X475568D01*
X298911Y174733D02*
X302213D01*
X303610D02*
X306023D01*
X308944D02*
X311103D01*
X311992D02*
X314151D01*
X320374D02*
X322660D01*
X325581D02*
X327867D01*
X328756D02*
X330915D01*
X332820D02*
X335360D01*
X337138D02*
X339551D01*
X346536D02*
X347933D01*
X352886D02*
X354283D01*
X355807D02*
X357331D01*
X362157D02*
X363681D01*
X455248D02*
X461471D01*
X469218D02*
X475568D01*
X299165Y174860D02*
X302213D01*
X303610D02*
X306023D01*
X308944D02*
X311103D01*
X311992D02*
X314151D01*
X320374D02*
X322660D01*
X325708D02*
X327867D01*
X328629D02*
X330915D01*
X332693D02*
X335233D01*
X337138D02*
X339678D01*
X346409D02*
X347933D01*
X352759D02*
X354283D01*
X355807D02*
X357204D01*
X362157D02*
X363554D01*
X455248D02*
X461471D01*
X469218D02*
X475568D01*
X299419Y174987D02*
X302340D01*
X303610D02*
X306023D01*
X308944D02*
X311230D01*
X311865D02*
X314151D01*
X320374D02*
X322660D01*
X325708D02*
X327867D01*
X328629D02*
X330788D01*
X332693D02*
X335233D01*
X337138D02*
X339678D01*
X346409D02*
X347806D01*
X352759D02*
X354156D01*
X355680D02*
X357204D01*
X362030D02*
X363554D01*
X455248D02*
X461471D01*
X469218D02*
X475568D01*
X299546Y175114D02*
X302340D01*
X303610D02*
X306023D01*
X309071D02*
X311230D01*
X311865D02*
X314024D01*
X320374D02*
X322660D01*
X325835D02*
X327994D01*
X328629D02*
X330788D01*
X332693D02*
X335106D01*
X337265D02*
X339805D01*
X346282D02*
X347806D01*
X352632D02*
X354156D01*
X355680D02*
X357077D01*
X362030D02*
X363427D01*
X455248D02*
X461471D01*
X469218D02*
X475568D01*
X299673Y175241D02*
X302340D01*
X303610D02*
X306023D01*
X309071D02*
X311230D01*
X311865D02*
X314024D01*
X320374D02*
X322660D01*
X325835D02*
X327994D01*
X328502D02*
X330788D01*
X332566D02*
X335106D01*
X337265D02*
X339805D01*
X346282D02*
X347679D01*
X352632D02*
X354029D01*
X355680D02*
X357077D01*
X362030D02*
X363427D01*
X455248D02*
X461471D01*
X469218D02*
X475695D01*
X299673Y175368D02*
X302340D01*
X303610D02*
X306023D01*
X309071D02*
X311357D01*
X311738D02*
X313897D01*
X320374D02*
X322660D01*
X325835D02*
X327994D01*
X328502D02*
X330661D01*
X332566D02*
X335106D01*
X337392D02*
X339805D01*
X346155D02*
X347679D01*
X352505D02*
X354029D01*
X355553D02*
X356950D01*
X361903D02*
X363300D01*
X455248D02*
X461471D01*
X469218D02*
X475695D01*
X299800Y175495D02*
X302213D01*
X303610D02*
X306023D01*
X309198D02*
X311357D01*
X311738D02*
X313897D01*
X320374D02*
X322660D01*
X325962D02*
X328121D01*
X328502D02*
X330661D01*
X332439D02*
X334979D01*
X337392D02*
X339932D01*
X346155D02*
X347552D01*
X352505D02*
X353902D01*
X355553D02*
X356950D01*
X361903D02*
X363300D01*
X455248D02*
X461471D01*
X469218D02*
X475695D01*
X299673Y175622D02*
X302213D01*
X303610D02*
X306023D01*
X309198D02*
X311357D01*
X311738D02*
X313897D01*
X320374D02*
X322660D01*
X325962D02*
X328121D01*
X328375D02*
X330661D01*
X332439D02*
X334979D01*
X337392D02*
X339932D01*
X346028D02*
X347552D01*
X352378D02*
X353902D01*
X355426D02*
X356823D01*
X361776D02*
X363173D01*
X455248D02*
X461471D01*
X469218D02*
X475695D01*
X299673Y175749D02*
X302213D01*
X303610D02*
X306023D01*
X309325D02*
X311357D01*
X311611D02*
X313770D01*
X320374D02*
X322660D01*
X325962D02*
X328121D01*
X328375D02*
X330534D01*
X332439D02*
X334979D01*
X337519D02*
X340059D01*
X346028D02*
X347425D01*
X352378D02*
X353775D01*
X355426D02*
X356823D01*
X361776D02*
X363173D01*
X455248D02*
X461598D01*
X469218D02*
X475695D01*
X299673Y175876D02*
X302213D01*
X303610D02*
X306023D01*
X309325D02*
X311484D01*
X311611D02*
X313770D01*
X320374D02*
X322660D01*
X326089D02*
X328248D01*
X328375D02*
X330534D01*
X332312D02*
X334852D01*
X337519D02*
X340059D01*
X346028D02*
X347425D01*
X352378D02*
X353775D01*
X355299D02*
X356696D01*
X361649D02*
X363046D01*
X455248D02*
X461598D01*
X469218D02*
X475695D01*
X296244Y176003D02*
X297133D01*
X299546D02*
X302213D01*
X303610D02*
X306023D01*
X309325D02*
X311484D01*
X311611D02*
X313770D01*
X320374D02*
X322660D01*
X326089D02*
X330407D01*
X332312D02*
X334852D01*
X337519D02*
X340059D01*
X345901D02*
X347298D01*
X352251D02*
X353648D01*
X355299D02*
X356696D01*
X361649D02*
X363046D01*
X455248D02*
X461598D01*
X469218D02*
X475695D01*
X295990Y176130D02*
X297514D01*
X299419D02*
X302213D01*
X303610D02*
X306023D01*
X309452D02*
X313643D01*
X320374D02*
X322660D01*
X326089D02*
X330407D01*
X332185D02*
X334725D01*
X337646D02*
X340186D01*
X345901D02*
X347298D01*
X352251D02*
X353648D01*
X355172D02*
X356696D01*
X361522D02*
X363046D01*
X455248D02*
X461598D01*
X469218D02*
X475695D01*
X295863Y176257D02*
X297768D01*
X299165D02*
X302086D01*
X303610D02*
X306023D01*
X309452D02*
X313643D01*
X320374D02*
X322660D01*
X326216D02*
X330407D01*
X332185D02*
X334725D01*
X337646D02*
X340186D01*
X345774D02*
X347171D01*
X352124D02*
X353521D01*
X355172D02*
X356569D01*
X361522D02*
X362919D01*
X455248D02*
X461598D01*
X469218D02*
X475695D01*
X295736Y176384D02*
X298403D01*
X298657D02*
X302086D01*
X303610D02*
X306023D01*
X309452D02*
X313516D01*
X320374D02*
X322660D01*
X326216D02*
X330280D01*
X332185D02*
X334725D01*
X337773D02*
X340313D01*
X345774D02*
X347171D01*
X352124D02*
X353521D01*
X355045D02*
X356569D01*
X361395D02*
X362919D01*
X455248D02*
X461598D01*
X469218D02*
X475695D01*
X295609Y176511D02*
X302086D01*
X303610D02*
X306023D01*
X309579D02*
X313516D01*
X320374D02*
X322660D01*
X326343D02*
X330280D01*
X332058D02*
X334598D01*
X337773D02*
X340313D01*
X345647D02*
X347044D01*
X351997D02*
X353394D01*
X355045D02*
X356442D01*
X361395D02*
X362792D01*
X455248D02*
X461598D01*
X469218D02*
X475695D01*
X295609Y176638D02*
X301959D01*
X303610D02*
X306023D01*
X309579D02*
X313516D01*
X320374D02*
X322660D01*
X326343D02*
X330280D01*
X332058D02*
X334598D01*
X337773D02*
X340313D01*
X345647D02*
X347044D01*
X351997D02*
X353394D01*
X354918D02*
X356442D01*
X361268D02*
X362792D01*
X455248D02*
X461598D01*
X469218D02*
X475695D01*
X295609Y176765D02*
X301959D01*
X303610D02*
X306023D01*
X309579D02*
X313389D01*
X320374D02*
X322660D01*
X326343D02*
X330153D01*
X331931D02*
X334598D01*
X337900D02*
X340440D01*
X345520D02*
X347044D01*
X351870D02*
X353394D01*
X354918D02*
X356315D01*
X361268D02*
X362665D01*
X455248D02*
X461598D01*
X469218D02*
X475695D01*
X295609Y176892D02*
X301832D01*
X303610D02*
X306023D01*
X309706D02*
X313389D01*
X320374D02*
X322660D01*
X326470D02*
X330153D01*
X331931D02*
X334471D01*
X337900D02*
X340440D01*
X345520D02*
X346917D01*
X351870D02*
X353267D01*
X354918D02*
X356315D01*
X361141D02*
X362665D01*
X455248D02*
X461598D01*
X469218D02*
X475695D01*
X295609Y177019D02*
X301832D01*
X303610D02*
X306023D01*
X309706D02*
X313389D01*
X320374D02*
X322660D01*
X326470D02*
X330026D01*
X331931D02*
X334471D01*
X337900D02*
X340567D01*
X345393D02*
X346917D01*
X351743D02*
X353267D01*
X354791D02*
X356188D01*
X361141D02*
X362538D01*
X455248D02*
X461598D01*
X469218D02*
X475695D01*
X295609Y177146D02*
X301705D01*
X303610D02*
X306023D01*
X309706D02*
X313262D01*
X320374D02*
X322660D01*
X326470D02*
X330026D01*
X331804D02*
X334344D01*
X338027D02*
X340567D01*
X345393D02*
X346790D01*
X351743D02*
X353140D01*
X354791D02*
X356188D01*
X361014D02*
X362538D01*
X455248D02*
X461598D01*
X469218D02*
X475695D01*
X295609Y177273D02*
X301578D01*
X303610D02*
X306023D01*
X309833D02*
X313262D01*
X320374D02*
X322660D01*
X326597D02*
X330026D01*
X331804D02*
X334344D01*
X338027D02*
X340567D01*
X345393D02*
X346790D01*
X351616D02*
X353140D01*
X354664D02*
X356061D01*
X361014D02*
X362411D01*
X455248D02*
X461598D01*
X469218D02*
X475695D01*
X295609Y177400D02*
X301578D01*
X303610D02*
X306023D01*
X309833D02*
X313262D01*
X320374D02*
X322660D01*
X326597D02*
X329899D01*
X331804D02*
X334344D01*
X338154D02*
X340694D01*
X345266D02*
X346663D01*
X351616D02*
X353013D01*
X354664D02*
X356061D01*
X361014D02*
X362411D01*
X455248D02*
X461598D01*
X469218D02*
X475695D01*
X295609Y177527D02*
X301451D01*
X303610D02*
X306023D01*
X309960D02*
X313135D01*
X320374D02*
X322660D01*
X326597D02*
X329899D01*
X331677D02*
X334217D01*
X338154D02*
X340694D01*
X345266D02*
X346663D01*
X351489D02*
X353013D01*
X354664D02*
X356061D01*
X360887D02*
X362284D01*
X455248D02*
X461598D01*
X469218D02*
X475695D01*
X295736Y177654D02*
X301324D01*
X303610D02*
X305896D01*
X309960D02*
X313135D01*
X320374D02*
X322660D01*
X326724D02*
X329899D01*
X331677D02*
X334217D01*
X338154D02*
X340694D01*
X345266D02*
X346536D01*
X351489D02*
X352886D01*
X354664D02*
X355934D01*
X360887D02*
X362284D01*
X455248D02*
X461598D01*
X469218D02*
X475695D01*
X295736Y177781D02*
X301197D01*
X303610D02*
X305896D01*
X309960D02*
X313008D01*
X320374D02*
X322660D01*
X326724D02*
X329772D01*
X331677D02*
X334217D01*
X338281D02*
X340694D01*
X345266D02*
X346536D01*
X351362D02*
X352886D01*
X354537D02*
X355934D01*
X360760D02*
X362157D01*
X455248D02*
X461598D01*
X469218D02*
X475822D01*
X295863Y177908D02*
X300943D01*
X303737D02*
X305896D01*
X310087D02*
X313008D01*
X320374D02*
X322660D01*
X326851D02*
X329645D01*
X331677D02*
X334090D01*
X338281D02*
X340694D01*
X345139D02*
X346536D01*
X351362D02*
X352759D01*
X354537D02*
X355934D01*
X360760D02*
X362157D01*
X455248D02*
X461598D01*
X469218D02*
X475695D01*
X296117Y178035D02*
X300816D01*
X303737D02*
X305896D01*
X310214D02*
X312881D01*
X320501D02*
X322533D01*
X326978D02*
X329645D01*
X331677D02*
X334090D01*
X338281D02*
X340694D01*
X345139D02*
X346536D01*
X351362D02*
X352759D01*
X354537D02*
X355807D01*
X360633D02*
X362030D01*
X455248D02*
X461598D01*
X469218D02*
X475568D01*
X296244Y178162D02*
X300562D01*
X303864D02*
X305769D01*
X310341D02*
X312754D01*
X320628D02*
X322533D01*
X326978D02*
X329518D01*
X331677D02*
X333963D01*
X338408D02*
X340694D01*
X345139D02*
X346409D01*
X351235D02*
X352632D01*
X354537D02*
X355807D01*
X360633D02*
X362030D01*
X455375D02*
X456137D01*
X469345D02*
X470107D01*
X296498Y178289D02*
X300308D01*
X303991D02*
X305642D01*
X310468D02*
X312627D01*
X320628D02*
X322406D01*
X327105D02*
X329391D01*
X331677D02*
X333963D01*
X338408D02*
X340694D01*
X345139D02*
X346409D01*
X351235D02*
X352632D01*
X354537D02*
X355807D01*
X360506D02*
X362030D01*
X296879Y178416D02*
X300054D01*
X304118D02*
X305515D01*
X310595D02*
X312500D01*
X320882D02*
X322279D01*
X327359D02*
X329137D01*
X331804D02*
X333963D01*
X338535D02*
X340694D01*
X345139D02*
X346409D01*
X351108D02*
X352505D01*
X354537D02*
X355807D01*
X360506D02*
X361903D01*
X297387Y178543D02*
X299546D01*
X304372D02*
X305261D01*
X310849D02*
X312246D01*
X321136D02*
X322025D01*
X327613D02*
X329010D01*
X331804D02*
X333836D01*
X338535D02*
X340567D01*
X345139D02*
X346409D01*
X351108D02*
X352505D01*
X354537D02*
X355807D01*
X360379D02*
X361903D01*
X311230Y178670D02*
X311738D01*
X327994D02*
X328502D01*
X331931D02*
X333709D01*
X338662D02*
X340440D01*
X345139D02*
X346409D01*
X350981D02*
X352378D01*
X354537D02*
X355807D01*
X360379D02*
X361776D01*
X332058Y178797D02*
X333582D01*
X338789D02*
X340313D01*
X345139D02*
X346409D01*
X350981D02*
X352378D01*
X354537D02*
X355807D01*
X360252D02*
X361776D01*
X332312Y178924D02*
X333455D01*
X338916D02*
X340186D01*
X345139D02*
X346409D01*
X350854D02*
X352378D01*
X354537D02*
X355807D01*
X360252D02*
X361649D01*
X332693Y179051D02*
X333074D01*
X339297D02*
X339678D01*
X345139D02*
X346409D01*
X350854D02*
X352251D01*
X354537D02*
X355807D01*
X360125D02*
X361649D01*
X345139Y179178D02*
X346409D01*
X350727D02*
X352251D01*
X354537D02*
X355807D01*
X360125D02*
X361522D01*
X345139Y179305D02*
X346536D01*
X350600D02*
X352124D01*
X354537D02*
X355807D01*
X359998D02*
X361522D01*
X345139Y179432D02*
X346536D01*
X350600D02*
X352124D01*
X354537D02*
X355934D01*
X359871D02*
X361395D01*
X345266Y179559D02*
X346536D01*
X350473D02*
X351997D01*
X354537D02*
X355934D01*
X359871D02*
X361395D01*
X345266Y179686D02*
X346663D01*
X350346D02*
X351997D01*
X354664D02*
X355934D01*
X359744D02*
X361268D01*
X345266Y179813D02*
X346663D01*
X350346D02*
X351870D01*
X354664D02*
X356061D01*
X359617D02*
X361268D01*
X345393Y179940D02*
X346790D01*
X350219D02*
X351743D01*
X354664D02*
X356188D01*
X359617D02*
X361141D01*
X345393Y180067D02*
X346917D01*
X350092D02*
X351743D01*
X354791D02*
X356188D01*
X359490D02*
X361014D01*
X345393Y180194D02*
X347044D01*
X349965D02*
X351616D01*
X354791D02*
X356315D01*
X359363D02*
X361014D01*
X345520Y180321D02*
X347171D01*
X349838D02*
X351616D01*
X354918D02*
X356442D01*
X359236D02*
X360887D01*
X345520Y180448D02*
X347298D01*
X349711D02*
X351489D01*
X354918D02*
X356696D01*
X358982D02*
X360887D01*
X345647Y180575D02*
X347552D01*
X349457D02*
X351362D01*
X355045D02*
X356823D01*
X358855D02*
X360760D01*
X345774Y180702D02*
X347806D01*
X349203D02*
X351235D01*
X355045D02*
X357204D01*
X358601D02*
X360633D01*
X345774Y180829D02*
X348314D01*
X348695D02*
X351235D01*
X355172D02*
X357712D01*
X358093D02*
X360506D01*
X345901Y180956D02*
X351108D01*
X355299D02*
X360379D01*
X346028Y181083D02*
X350981D01*
X355426D02*
X360252D01*
X346155Y181210D02*
X350854D01*
X355553D02*
X360125D01*
X346282Y181337D02*
X350727D01*
X355680D02*
X359998D01*
X346536Y181464D02*
X350473D01*
X355807D02*
X359871D01*
X346663Y181591D02*
X350346D01*
X356061D02*
X359744D01*
X346917Y181718D02*
X350092D01*
X356188D02*
X359490D01*
X347171Y181845D02*
X349838D01*
X356569D02*
X359236D01*
X347552Y181972D02*
X349584D01*
X356823D02*
X358855D01*
D52*
X884000Y481000D02*
Y559000D01*
X761000Y481000D02*
Y559000D01*
X884000D01*
X761000Y481000D02*
X884000D01*
D53*
X480461Y392032D02*
X482961Y394531D01*
X487959D01*
X490458Y392032D01*
Y382035D01*
X487959Y379536D01*
X482961D01*
X480461Y382035D01*
Y387034D01*
X485460D01*
X475463Y389533D02*
Y379536D01*
Y384534D01*
X472964Y387034D01*
X470465Y389533D01*
X467965D01*
X452970Y379536D02*
X457969D01*
X460468Y382035D01*
Y387034D01*
X457969Y389533D01*
X452970D01*
X450471Y387034D01*
Y384534D01*
X460468D01*
X440474Y374538D02*
X437975D01*
X435476Y377037D01*
Y389533D01*
X442974D01*
X445473Y387034D01*
Y382035D01*
X442974Y379536D01*
X435476D01*
X427978D02*
X422980D01*
X420481Y382035D01*
Y387034D01*
X422980Y389533D01*
X427978D01*
X430477Y387034D01*
Y382035D01*
X427978Y379536D01*
X415482Y389533D02*
Y379536D01*
Y384534D01*
X412983Y387034D01*
X410484Y389533D01*
X407985D01*
X400487D02*
Y382035D01*
X397988Y379536D01*
X390490D01*
Y377037D01*
X392990Y374538D01*
X395489D01*
X390490Y379536D02*
Y389533D01*
X360500Y392032D02*
X362999Y394531D01*
X367998D01*
X370497Y392032D01*
Y382035D01*
X367998Y379536D01*
X362999D01*
X360500Y382035D01*
Y387034D01*
X365499D01*
X348004Y379536D02*
X353003D01*
X355502Y382035D01*
Y387034D01*
X353003Y389533D01*
X348004D01*
X345505Y387034D01*
Y384534D01*
X355502D01*
X340507Y389533D02*
Y379536D01*
Y384534D01*
X338008Y387034D01*
X335508Y389533D01*
X333009D01*
X323012D02*
X318014D01*
X315515Y387034D01*
Y379536D01*
X323012D01*
X325512Y382035D01*
X323012Y384534D01*
X315515D01*
X300520Y389533D02*
X308017D01*
X310516Y387034D01*
Y382035D01*
X308017Y379536D01*
X300520D01*
X295521D02*
X290523D01*
X293022D01*
Y389533D01*
X295521D01*
X561685Y364339D02*
Y349343D01*
Y356841D01*
X551688D01*
Y364339D01*
Y349343D01*
X546690Y359340D02*
Y351843D01*
X544191Y349343D01*
X536693D01*
Y346844D01*
X539192Y344345D01*
X541692D01*
X536693Y349343D02*
Y359340D01*
X531695Y344345D02*
Y359340D01*
X524197D01*
X521698Y356841D01*
Y351843D01*
X524197Y349343D01*
X531695D01*
X516700D02*
Y359340D01*
X509202D01*
X506703Y356841D01*
Y349343D01*
X499205D02*
X494207D01*
X491708Y351843D01*
Y356841D01*
X494207Y359340D01*
X499205D01*
X501704Y356841D01*
Y351843D01*
X499205Y349343D01*
X486709D02*
X479212D01*
X476713Y351843D01*
X479212Y354342D01*
X484210D01*
X486709Y356841D01*
X484210Y359340D01*
X476713D01*
X471714Y349343D02*
X466716D01*
X469215D01*
Y359340D01*
X471714D01*
X456719D02*
X451721D01*
X449221Y356841D01*
Y349343D01*
X456719D01*
X459218Y351843D01*
X456719Y354342D01*
X449221D01*
X419231Y361839D02*
X421730Y364339D01*
X426729D01*
X429228Y361839D01*
Y351843D01*
X426729Y349343D01*
X421730D01*
X419231Y351843D01*
X411734Y349343D02*
X406735D01*
X404236Y351843D01*
Y356841D01*
X406735Y359340D01*
X411734D01*
X414233Y356841D01*
Y351843D01*
X411734Y349343D01*
X399238D02*
Y359340D01*
X391740D01*
X389241Y356841D01*
Y349343D01*
X381743Y361839D02*
Y359340D01*
X384243D01*
X379244D01*
X381743D01*
Y351843D01*
X379244Y349343D01*
X371746Y359340D02*
Y349343D01*
Y354342D01*
X369247Y356841D01*
X366748Y359340D01*
X364249D01*
X354252Y349343D02*
X349254D01*
X346755Y351843D01*
Y356841D01*
X349254Y359340D01*
X354252D01*
X356751Y356841D01*
Y351843D01*
X354252Y349343D01*
X341756D02*
X336758D01*
X339257D01*
Y364339D01*
X341756D01*
X329260Y349343D02*
X324262D01*
X326761D01*
Y364339D01*
X329260D01*
X309267Y349343D02*
X314265D01*
X316764Y351843D01*
Y356841D01*
X314265Y359340D01*
X309267D01*
X306768Y356841D01*
Y354342D01*
X316764D01*
X301769Y359340D02*
Y349343D01*
Y354342D01*
X299270Y356841D01*
X296771Y359340D01*
X294272D01*
X271779Y364339D02*
Y354342D01*
X266780Y349343D01*
X261782Y354342D01*
Y364339D01*
X246787Y349343D02*
X256784D01*
X246787Y359340D01*
Y361839D01*
X249286Y364339D01*
X254285D01*
X256784Y361839D01*
X241789Y349343D02*
Y351843D01*
X239289D01*
Y349343D01*
X241789D01*
X229293Y361839D02*
X226793Y364339D01*
X221795D01*
X219296Y361839D01*
Y351843D01*
X221795Y349343D01*
X226793D01*
X229293Y351843D01*
Y361839D01*
X497956Y334146D02*
Y319151D01*
X490458D01*
X487959Y321650D01*
Y324149D01*
X490458Y326648D01*
X497956D01*
X490458D01*
X487959Y329148D01*
Y331647D01*
X490458Y334146D01*
X497956D01*
X480461Y329148D02*
X475463D01*
X472964Y326648D01*
Y319151D01*
X480461D01*
X482961Y321650D01*
X480461Y324149D01*
X472964D01*
X457969Y329148D02*
X465466D01*
X467965Y326648D01*
Y321650D01*
X465466Y319151D01*
X457969D01*
X452970Y334146D02*
Y319151D01*
Y326648D01*
X450471Y329148D01*
X445473D01*
X442974Y326648D01*
Y319151D01*
X430477D02*
X435476D01*
X437975Y321650D01*
Y326648D01*
X435476Y329148D01*
X430477D01*
X427978Y326648D01*
Y324149D01*
X437975D01*
X422980Y319151D02*
X417981D01*
X420481D01*
Y334146D01*
X422980D01*
X407985Y319151D02*
X402986D01*
X400487Y321650D01*
Y326648D01*
X402986Y329148D01*
X407985D01*
X410484Y326648D01*
Y321650D01*
X407985Y319151D01*
X395489Y329148D02*
Y319151D01*
Y324149D01*
X392990Y326648D01*
X390490Y329148D01*
X387991D01*
X365499Y334146D02*
X355502D01*
X360500D01*
Y319151D01*
X350503Y334146D02*
Y319151D01*
Y326648D01*
X348004Y329148D01*
X343006D01*
X340507Y326648D01*
Y319151D01*
X328011D02*
X333009D01*
X335508Y321650D01*
Y326648D01*
X333009Y329148D01*
X328011D01*
X325512Y326648D01*
Y324149D01*
X335508D01*
X320513Y319151D02*
X313015D01*
X310516Y321650D01*
X313015Y324149D01*
X318014D01*
X320513Y326648D01*
X318014Y329148D01*
X310516D01*
X305518Y319151D02*
X300520D01*
X303019D01*
Y329148D01*
X305518D01*
X293022Y319151D02*
X285524D01*
X283025Y321650D01*
X285524Y324149D01*
X290523D01*
X293022Y326648D01*
X290523Y329148D01*
X283025D01*
X490458Y306453D02*
X487959Y308952D01*
X482961D01*
X480461Y306453D01*
Y296456D01*
X482961Y293957D01*
X487959D01*
X490458Y296456D01*
Y306453D01*
X475463Y308952D02*
X465466D01*
Y306453D01*
X475463Y296456D01*
Y293957D01*
X460468D02*
Y296456D01*
X457969D01*
Y293957D01*
X460468D01*
X447972Y306453D02*
X445473Y308952D01*
X440474D01*
X437975Y306453D01*
Y296456D01*
X440474Y293957D01*
X445473D01*
X447972Y296456D01*
Y306453D01*
X432977Y308952D02*
X422980D01*
Y306453D01*
X432977Y296456D01*
Y293957D01*
X417981D02*
Y296456D01*
X415482D01*
Y293957D01*
X417981D01*
X395489D02*
X405486D01*
X395489Y303953D01*
Y306453D01*
X397988Y308952D01*
X402986D01*
X405486Y306453D01*
X390490D02*
X387991Y308952D01*
X382993D01*
X380494Y306453D01*
Y296456D01*
X382993Y293957D01*
X387991D01*
X390490Y296456D01*
Y306453D01*
X365499Y293957D02*
X375495D01*
X365499Y303953D01*
Y306453D01*
X367998Y308952D01*
X372996D01*
X375495Y306453D01*
X360500D02*
X358001Y308952D01*
X353003D01*
X350503Y306453D01*
Y296456D01*
X353003Y293957D01*
X358001D01*
X360500Y296456D01*
Y306453D01*
X330510Y293957D02*
Y303953D01*
X325512Y308952D01*
X320513Y303953D01*
Y293957D01*
Y301454D01*
X330510D01*
X315515Y293957D02*
Y308952D01*
X308017D01*
X305518Y306453D01*
Y301454D01*
X308017Y298955D01*
X315515D01*
X310516D02*
X305518Y293957D01*
X290523Y306453D02*
X293022Y308952D01*
X298020D01*
X300520Y306453D01*
Y296456D01*
X298020Y293957D01*
X293022D01*
X290523Y296456D01*
M02*
