G04*
G04 #@! TF.GenerationSoftware,Altium Limited,Altium Designer,19.0.10 (269)*
G04*
G04 Layer_Physical_Order=2*
G04 Layer_Color=16711680*
%FSLAX44Y44*%
%MOMM*%
G71*
G01*
G75*
%ADD12C,0.2000*%
%ADD14C,1.4000*%
%ADD16C,1.5000*%
%ADD17C,2.4511*%
%ADD18C,1.0668*%
%ADD19C,0.8000*%
%ADD20C,0.6000*%
%ADD21C,0.5000*%
%ADD22C,0.7500*%
%ADD23C,0.2500*%
%ADD24C,0.8800*%
%ADD25O,1.2000X2.0000*%
%ADD26C,1.0160*%
%ADD27P,5.4120X8X22.5*%
%ADD28C,0.6000*%
G04:AMPARAMS|DCode=29|XSize=0.75mm|YSize=0.9mm|CornerRadius=0.0938mm|HoleSize=0mm|Usage=FLASHONLY|Rotation=180.000|XOffset=0mm|YOffset=0mm|HoleType=Round|Shape=RoundedRectangle|*
%AMROUNDEDRECTD29*
21,1,0.7500,0.7125,0,0,180.0*
21,1,0.5625,0.9000,0,0,180.0*
1,1,0.1875,-0.2813,0.3563*
1,1,0.1875,0.2813,0.3563*
1,1,0.1875,0.2813,-0.3563*
1,1,0.1875,-0.2813,-0.3563*
%
%ADD29ROUNDEDRECTD29*%
G04:AMPARAMS|DCode=30|XSize=1.3mm|YSize=3.7mm|CornerRadius=0.1625mm|HoleSize=0mm|Usage=FLASHONLY|Rotation=180.000|XOffset=0mm|YOffset=0mm|HoleType=Round|Shape=RoundedRectangle|*
%AMROUNDEDRECTD30*
21,1,1.3000,3.3750,0,0,180.0*
21,1,0.9750,3.7000,0,0,180.0*
1,1,0.3250,-0.4875,1.6875*
1,1,0.3250,0.4875,1.6875*
1,1,0.3250,0.4875,-1.6875*
1,1,0.3250,-0.4875,-1.6875*
%
%ADD30ROUNDEDRECTD30*%
%ADD31C,1.0000*%
G04:AMPARAMS|DCode=32|XSize=0.3mm|YSize=1.8mm|CornerRadius=0.0375mm|HoleSize=0mm|Usage=FLASHONLY|Rotation=90.000|XOffset=0mm|YOffset=0mm|HoleType=Round|Shape=RoundedRectangle|*
%AMROUNDEDRECTD32*
21,1,0.3000,1.7250,0,0,90.0*
21,1,0.2250,1.8000,0,0,90.0*
1,1,0.0750,0.8625,0.1125*
1,1,0.0750,0.8625,-0.1125*
1,1,0.0750,-0.8625,-0.1125*
1,1,0.0750,-0.8625,0.1125*
%
%ADD32ROUNDEDRECTD32*%
G04:AMPARAMS|DCode=33|XSize=0.3mm|YSize=1.8mm|CornerRadius=0.0375mm|HoleSize=0mm|Usage=FLASHONLY|Rotation=0.000|XOffset=0mm|YOffset=0mm|HoleType=Round|Shape=RoundedRectangle|*
%AMROUNDEDRECTD33*
21,1,0.3000,1.7250,0,0,0.0*
21,1,0.2250,1.8000,0,0,0.0*
1,1,0.0750,0.1125,-0.8625*
1,1,0.0750,-0.1125,-0.8625*
1,1,0.0750,-0.1125,0.8625*
1,1,0.0750,0.1125,0.8625*
%
%ADD33ROUNDEDRECTD33*%
G04:AMPARAMS|DCode=34|XSize=0.3mm|YSize=1mm|CornerRadius=0.075mm|HoleSize=0mm|Usage=FLASHONLY|Rotation=180.000|XOffset=0mm|YOffset=0mm|HoleType=Round|Shape=RoundedRectangle|*
%AMROUNDEDRECTD34*
21,1,0.3000,0.8500,0,0,180.0*
21,1,0.1500,1.0000,0,0,180.0*
1,1,0.1500,-0.0750,0.4250*
1,1,0.1500,0.0750,0.4250*
1,1,0.1500,0.0750,-0.4250*
1,1,0.1500,-0.0750,-0.4250*
%
%ADD34ROUNDEDRECTD34*%
%ADD35R,0.5000X1.0000*%
G04:AMPARAMS|DCode=36|XSize=0.8mm|YSize=1mm|CornerRadius=0.2mm|HoleSize=0mm|Usage=FLASHONLY|Rotation=270.000|XOffset=0mm|YOffset=0mm|HoleType=Round|Shape=RoundedRectangle|*
%AMROUNDEDRECTD36*
21,1,0.8000,0.6000,0,0,270.0*
21,1,0.4000,1.0000,0,0,270.0*
1,1,0.4000,-0.3000,-0.2000*
1,1,0.4000,-0.3000,0.2000*
1,1,0.4000,0.3000,0.2000*
1,1,0.4000,0.3000,-0.2000*
%
%ADD36ROUNDEDRECTD36*%
G04:AMPARAMS|DCode=37|XSize=0.8mm|YSize=1mm|CornerRadius=0.1mm|HoleSize=0mm|Usage=FLASHONLY|Rotation=270.000|XOffset=0mm|YOffset=0mm|HoleType=Round|Shape=RoundedRectangle|*
%AMROUNDEDRECTD37*
21,1,0.8000,0.8000,0,0,270.0*
21,1,0.6000,1.0000,0,0,270.0*
1,1,0.2000,-0.4000,-0.3000*
1,1,0.2000,-0.4000,0.3000*
1,1,0.2000,0.4000,0.3000*
1,1,0.2000,0.4000,-0.3000*
%
%ADD37ROUNDEDRECTD37*%
G04:AMPARAMS|DCode=38|XSize=0.75mm|YSize=0.9mm|CornerRadius=0.0938mm|HoleSize=0mm|Usage=FLASHONLY|Rotation=270.000|XOffset=0mm|YOffset=0mm|HoleType=Round|Shape=RoundedRectangle|*
%AMROUNDEDRECTD38*
21,1,0.7500,0.7125,0,0,270.0*
21,1,0.5625,0.9000,0,0,270.0*
1,1,0.1875,-0.3563,-0.2813*
1,1,0.1875,-0.3563,0.2813*
1,1,0.1875,0.3563,0.2813*
1,1,0.1875,0.3563,-0.2813*
%
%ADD38ROUNDEDRECTD38*%
%ADD39C,0.8636*%
G04:AMPARAMS|DCode=40|XSize=0.8mm|YSize=1.7mm|CornerRadius=0.1mm|HoleSize=0mm|Usage=FLASHONLY|Rotation=90.000|XOffset=0mm|YOffset=0mm|HoleType=Round|Shape=RoundedRectangle|*
%AMROUNDEDRECTD40*
21,1,0.8000,1.5000,0,0,90.0*
21,1,0.6000,1.7000,0,0,90.0*
1,1,0.2000,0.7500,0.3000*
1,1,0.2000,0.7500,-0.3000*
1,1,0.2000,-0.7500,-0.3000*
1,1,0.2000,-0.7500,0.3000*
%
%ADD40ROUNDEDRECTD40*%
G04:AMPARAMS|DCode=41|XSize=2.92mm|YSize=1.27mm|CornerRadius=0.1588mm|HoleSize=0mm|Usage=FLASHONLY|Rotation=270.000|XOffset=0mm|YOffset=0mm|HoleType=Round|Shape=RoundedRectangle|*
%AMROUNDEDRECTD41*
21,1,2.9200,0.9525,0,0,270.0*
21,1,2.6025,1.2700,0,0,270.0*
1,1,0.3175,-0.4763,-1.3013*
1,1,0.3175,-0.4763,1.3013*
1,1,0.3175,0.4763,1.3013*
1,1,0.3175,0.4763,-1.3013*
%
%ADD41ROUNDEDRECTD41*%
G04:AMPARAMS|DCode=42|XSize=3.43mm|YSize=1.65mm|CornerRadius=0.2063mm|HoleSize=0mm|Usage=FLASHONLY|Rotation=0.000|XOffset=0mm|YOffset=0mm|HoleType=Round|Shape=RoundedRectangle|*
%AMROUNDEDRECTD42*
21,1,3.4300,1.2375,0,0,0.0*
21,1,3.0175,1.6500,0,0,0.0*
1,1,0.4125,1.5088,-0.6188*
1,1,0.4125,-1.5088,-0.6188*
1,1,0.4125,-1.5088,0.6188*
1,1,0.4125,1.5088,0.6188*
%
%ADD42ROUNDEDRECTD42*%
G04:AMPARAMS|DCode=43|XSize=0.6mm|YSize=0.5mm|CornerRadius=0.0625mm|HoleSize=0mm|Usage=FLASHONLY|Rotation=270.000|XOffset=0mm|YOffset=0mm|HoleType=Round|Shape=RoundedRectangle|*
%AMROUNDEDRECTD43*
21,1,0.6000,0.3750,0,0,270.0*
21,1,0.4750,0.5000,0,0,270.0*
1,1,0.1250,-0.1875,-0.2375*
1,1,0.1250,-0.1875,0.2375*
1,1,0.1250,0.1875,0.2375*
1,1,0.1250,0.1875,-0.2375*
%
%ADD43ROUNDEDRECTD43*%
G04:AMPARAMS|DCode=44|XSize=1.75mm|YSize=2.5mm|CornerRadius=0.2188mm|HoleSize=0mm|Usage=FLASHONLY|Rotation=90.000|XOffset=0mm|YOffset=0mm|HoleType=Round|Shape=RoundedRectangle|*
%AMROUNDEDRECTD44*
21,1,1.7500,2.0625,0,0,90.0*
21,1,1.3125,2.5000,0,0,90.0*
1,1,0.4375,1.0313,0.6563*
1,1,0.4375,1.0313,-0.6563*
1,1,0.4375,-1.0313,-0.6563*
1,1,0.4375,-1.0313,0.6563*
%
%ADD44ROUNDEDRECTD44*%
G04:AMPARAMS|DCode=45|XSize=1.35mm|YSize=0.4mm|CornerRadius=0.05mm|HoleSize=0mm|Usage=FLASHONLY|Rotation=270.000|XOffset=0mm|YOffset=0mm|HoleType=Round|Shape=RoundedRectangle|*
%AMROUNDEDRECTD45*
21,1,1.3500,0.3000,0,0,270.0*
21,1,1.2500,0.4000,0,0,270.0*
1,1,0.1000,-0.1500,-0.6250*
1,1,0.1000,-0.1500,0.6250*
1,1,0.1000,0.1500,0.6250*
1,1,0.1000,0.1500,-0.6250*
%
%ADD45ROUNDEDRECTD45*%
G04:AMPARAMS|DCode=46|XSize=0.6mm|YSize=1.45mm|CornerRadius=0.075mm|HoleSize=0mm|Usage=FLASHONLY|Rotation=90.000|XOffset=0mm|YOffset=0mm|HoleType=Round|Shape=RoundedRectangle|*
%AMROUNDEDRECTD46*
21,1,0.6000,1.3000,0,0,90.0*
21,1,0.4500,1.4500,0,0,90.0*
1,1,0.1500,0.6500,0.2250*
1,1,0.1500,0.6500,-0.2250*
1,1,0.1500,-0.6500,-0.2250*
1,1,0.1500,-0.6500,0.2250*
%
%ADD46ROUNDEDRECTD46*%
G04:AMPARAMS|DCode=47|XSize=0.95mm|YSize=0.85mm|CornerRadius=0.1063mm|HoleSize=0mm|Usage=FLASHONLY|Rotation=90.000|XOffset=0mm|YOffset=0mm|HoleType=Round|Shape=RoundedRectangle|*
%AMROUNDEDRECTD47*
21,1,0.9500,0.6375,0,0,90.0*
21,1,0.7375,0.8500,0,0,90.0*
1,1,0.2125,0.3188,0.3688*
1,1,0.2125,0.3188,-0.3688*
1,1,0.2125,-0.3188,-0.3688*
1,1,0.2125,-0.3188,0.3688*
%
%ADD47ROUNDEDRECTD47*%
%ADD48C,0.4000*%
G36*
X741250Y545460D02*
X747500D01*
X748866Y545732D01*
X750023Y546506D01*
X750797Y547663D01*
X751069Y549029D01*
Y550000D01*
X759910D01*
X760667Y548980D01*
X760458Y548293D01*
X760173Y545400D01*
X760458Y542507D01*
X761302Y539726D01*
X762672Y537163D01*
X764516Y534916D01*
X766763Y533072D01*
X769326Y531702D01*
X772107Y530858D01*
X775000Y530573D01*
X777893Y530858D01*
X780674Y531702D01*
X783029Y532961D01*
X783719Y531889D01*
X782837Y531213D01*
X781745Y529788D01*
X781058Y528130D01*
X780902Y526947D01*
X779623Y526340D01*
X779606Y526340D01*
X778951Y526843D01*
X777045Y527632D01*
X775000Y527902D01*
X772955Y527632D01*
X771049Y526843D01*
X769413Y525587D01*
X768157Y523951D01*
X767368Y522045D01*
X767098Y520000D01*
X767368Y517955D01*
X768157Y516049D01*
X769413Y514413D01*
X771049Y513157D01*
X772955Y512368D01*
X775000Y512098D01*
X777045Y512368D01*
X778951Y513157D01*
X779606Y513660D01*
X779623Y513660D01*
X780902Y513053D01*
X781058Y511870D01*
X781745Y510212D01*
X782837Y508787D01*
X783042Y508630D01*
X783022Y508483D01*
X781645Y507779D01*
X780674Y508298D01*
X777893Y509142D01*
X775000Y509427D01*
X772107Y509142D01*
X769326Y508298D01*
X766763Y506928D01*
X764516Y505084D01*
X762672Y502837D01*
X761302Y500274D01*
X760458Y497493D01*
X760173Y494600D01*
X760458Y491707D01*
X761302Y488926D01*
X762672Y486363D01*
X764516Y484116D01*
X766763Y482272D01*
X769326Y480902D01*
X772107Y480058D01*
X775000Y479773D01*
X777893Y480058D01*
X780674Y480902D01*
X783237Y482272D01*
X785484Y484116D01*
X787328Y486363D01*
X788698Y488926D01*
X789542Y491707D01*
X789827Y494600D01*
X789542Y497493D01*
X788775Y500022D01*
X789459Y500603D01*
X789829Y500764D01*
X882554Y408039D01*
X881893Y406903D01*
X881125Y407056D01*
X878875D01*
X877753Y406833D01*
X877500Y406664D01*
X877247Y406833D01*
X876125Y407056D01*
X873875D01*
X872753Y406833D01*
X872500Y406664D01*
X872247Y406833D01*
X871125Y407056D01*
X868875D01*
X867753Y406833D01*
X867500Y406664D01*
X867247Y406833D01*
X866125Y407056D01*
X863875D01*
X862753Y406833D01*
X862500Y406664D01*
X862247Y406833D01*
X861125Y407056D01*
X858875D01*
X857753Y406833D01*
X857500Y406664D01*
X857247Y406833D01*
X856125Y407056D01*
X853875D01*
X853276Y406937D01*
X852182Y407754D01*
X852092Y407898D01*
X852053Y408167D01*
X853181Y409854D01*
X853608Y412000D01*
X853181Y414146D01*
X851965Y415965D01*
X851823Y416060D01*
Y418000D01*
X851532Y419463D01*
X850704Y420704D01*
X820704Y450704D01*
X819463Y451532D01*
X818000Y451823D01*
X817060D01*
X816965Y451965D01*
X815146Y453181D01*
X813000Y453608D01*
X810854Y453181D01*
X809035Y451965D01*
X808940Y451823D01*
X791584D01*
X743823Y499584D01*
Y511460D01*
X747500D01*
X748866Y511732D01*
X750023Y512506D01*
X750797Y513663D01*
X751069Y515029D01*
Y521029D01*
X750797Y522394D01*
X750023Y523552D01*
X748866Y524326D01*
X747500Y524598D01*
X732500D01*
X731134Y524326D01*
X729977Y523552D01*
X729203Y522394D01*
X728932Y521029D01*
Y515029D01*
X729203Y513663D01*
X729977Y512506D01*
X731134Y511732D01*
X732500Y511460D01*
X736177D01*
Y498000D01*
X736468Y496537D01*
X737297Y495296D01*
X787296Y445296D01*
X787600Y445093D01*
X787215Y443823D01*
X737584D01*
X720223Y461184D01*
X720678Y462525D01*
X721958Y462693D01*
X723782Y463449D01*
X725349Y464651D01*
X726551Y466218D01*
X727307Y468042D01*
X727565Y470000D01*
X727307Y471958D01*
X726551Y473782D01*
X725349Y475349D01*
X723782Y476551D01*
X721958Y477307D01*
X720000Y477565D01*
X718042Y477307D01*
X716218Y476551D01*
X714651Y475349D01*
X713449Y473782D01*
X712693Y471958D01*
X712525Y470678D01*
X711184Y470223D01*
X688704Y492704D01*
X687463Y493532D01*
X686000Y493823D01*
X606584D01*
X600824Y499584D01*
Y550000D01*
X618497D01*
X619589Y549548D01*
X621390Y549310D01*
X623191Y549548D01*
X624283Y550000D01*
X728932D01*
Y549029D01*
X729203Y547663D01*
X729977Y546506D01*
X731134Y545732D01*
X732500Y545460D01*
X738750D01*
Y552029D01*
X741250D01*
Y545460D01*
D02*
G37*
G36*
X891177Y534416D02*
Y501000D01*
X891468Y499537D01*
X892296Y498296D01*
X892297Y498296D01*
X930456Y460137D01*
X930164Y459563D01*
X929707Y459090D01*
X928562Y459317D01*
X926250D01*
Y454250D01*
X932067D01*
Y455812D01*
X931840Y456957D01*
X932314Y457414D01*
X932887Y457706D01*
X951177Y439416D01*
Y384623D01*
X950215Y383839D01*
X949125Y384056D01*
X931875D01*
X930753Y383833D01*
X929802Y383198D01*
X929167Y382247D01*
X928944Y381125D01*
Y378875D01*
X929167Y377753D01*
X929336Y377500D01*
X929167Y377247D01*
X928944Y376125D01*
Y373875D01*
X929167Y372753D01*
X929336Y372500D01*
X929167Y372247D01*
X928944Y371125D01*
Y368875D01*
X929167Y367753D01*
X929336Y367500D01*
X929167Y367247D01*
X928944Y366125D01*
Y363875D01*
X929167Y362753D01*
X929336Y362500D01*
X929167Y362247D01*
X928944Y361125D01*
Y358875D01*
X929167Y357753D01*
X929336Y357500D01*
X929167Y357247D01*
X928944Y356125D01*
Y353875D01*
X929167Y352753D01*
X929336Y352500D01*
X929167Y352247D01*
X928944Y351125D01*
Y348875D01*
X929167Y347753D01*
X929336Y347500D01*
X929167Y347247D01*
X928944Y346125D01*
Y343875D01*
X929167Y342753D01*
X929336Y342500D01*
X929167Y342247D01*
X928944Y341125D01*
Y338875D01*
X929167Y337753D01*
X929336Y337500D01*
X929167Y337247D01*
X928944Y336125D01*
Y333875D01*
X929167Y332753D01*
X929336Y332500D01*
X929167Y332247D01*
X928944Y331125D01*
Y328875D01*
X929167Y327753D01*
X929336Y327500D01*
X929167Y327247D01*
X928944Y326125D01*
Y323875D01*
X929167Y322753D01*
X929336Y322500D01*
X929167Y322247D01*
X928944Y321125D01*
Y318875D01*
X929167Y317753D01*
X929336Y317500D01*
X929167Y317247D01*
X928944Y316125D01*
Y313875D01*
X929167Y312753D01*
X929336Y312500D01*
X929167Y312247D01*
X928944Y311125D01*
Y308875D01*
X929167Y307753D01*
X929336Y307500D01*
X929167Y307247D01*
X928944Y306125D01*
Y303875D01*
X929167Y302753D01*
X929336Y302500D01*
X929167Y302247D01*
X928944Y301125D01*
Y298875D01*
X929167Y297753D01*
X929336Y297500D01*
X929167Y297247D01*
X928944Y296125D01*
Y293875D01*
X929167Y292753D01*
X929336Y292500D01*
X929167Y292247D01*
X928969Y291250D01*
X930628D01*
X930753Y291166D01*
X931875Y290943D01*
X940500D01*
Y289057D01*
X931875D01*
X930753Y288834D01*
X930628Y288750D01*
X928969D01*
X929167Y287753D01*
X929336Y287500D01*
X929167Y287247D01*
X928944Y286125D01*
Y283875D01*
X929167Y282753D01*
X929336Y282500D01*
X929167Y282247D01*
X928944Y281125D01*
Y278875D01*
X929167Y277753D01*
X929336Y277500D01*
X929167Y277247D01*
X928944Y276125D01*
Y273875D01*
X929167Y272753D01*
X929336Y272500D01*
X929167Y272247D01*
X928944Y271125D01*
Y268875D01*
X929167Y267753D01*
X929336Y267500D01*
X929167Y267247D01*
X928944Y266125D01*
Y263875D01*
X928901Y263824D01*
X904140D01*
X902677Y263532D01*
X901436Y262704D01*
X897296Y258564D01*
X896468Y257323D01*
X896229Y256126D01*
X896125Y256056D01*
X893875D01*
X892753Y255833D01*
X892500Y255664D01*
X892247Y255833D01*
X891125Y256056D01*
X888875D01*
X887753Y255833D01*
X887500Y255664D01*
X887247Y255833D01*
X886125Y256056D01*
X883875D01*
X882753Y255833D01*
X882500Y255664D01*
X882247Y255833D01*
X881125Y256056D01*
X878875D01*
X877753Y255833D01*
X877500Y255664D01*
X877247Y255833D01*
X876125Y256056D01*
X873875D01*
X872753Y255833D01*
X872500Y255664D01*
X872247Y255833D01*
X871125Y256056D01*
X868875D01*
X867753Y255833D01*
X867500Y255664D01*
X867247Y255833D01*
X866125Y256056D01*
X863875D01*
X862753Y255833D01*
X862500Y255664D01*
X862247Y255833D01*
X861125Y256056D01*
X858875D01*
X857753Y255833D01*
X857500Y255664D01*
X857247Y255833D01*
X856125Y256056D01*
X853875D01*
X852753Y255833D01*
X852500Y255664D01*
X852247Y255833D01*
X851125Y256056D01*
X848875D01*
X847753Y255833D01*
X847500Y255664D01*
X847247Y255833D01*
X846125Y256056D01*
X843875D01*
X842753Y255833D01*
X842500Y255664D01*
X842247Y255833D01*
X841125Y256056D01*
X838875D01*
X837753Y255833D01*
X837500Y255664D01*
X837247Y255833D01*
X836125Y256056D01*
X833875D01*
X832753Y255833D01*
X832500Y255664D01*
X832247Y255833D01*
X831250Y256031D01*
Y254372D01*
X831166Y254247D01*
X830943Y253125D01*
Y244500D01*
X829057D01*
Y253125D01*
X828834Y254247D01*
X828750Y254372D01*
Y256031D01*
X827753Y255833D01*
X827500Y255664D01*
X827247Y255833D01*
X826125Y256056D01*
X823875D01*
X822753Y255833D01*
X822500Y255664D01*
X822247Y255833D01*
X821125Y256056D01*
X818875D01*
X817753Y255833D01*
X817500Y255664D01*
X817247Y255833D01*
X816125Y256056D01*
X813875D01*
X812753Y255833D01*
X812500Y255664D01*
X812247Y255833D01*
X811125Y256056D01*
X808875D01*
X807753Y255833D01*
X807500Y255664D01*
X807247Y255833D01*
X806125Y256056D01*
X803875D01*
X802753Y255833D01*
X801802Y255198D01*
X801167Y254247D01*
X800944Y253125D01*
Y235875D01*
X801031Y235438D01*
X799416Y233823D01*
X791000D01*
X789537Y233532D01*
X788296Y232703D01*
X780614Y225021D01*
X779441Y225507D01*
Y254964D01*
X780711Y255976D01*
X780875Y255944D01*
X798125D01*
X799247Y256167D01*
X800198Y256802D01*
X800833Y257753D01*
X801056Y258875D01*
Y261125D01*
X800833Y262247D01*
X800664Y262500D01*
X800833Y262753D01*
X801031Y263750D01*
X799372D01*
X799247Y263834D01*
X798125Y264057D01*
X789500D01*
Y265943D01*
X798125D01*
X799247Y266166D01*
X799372Y266250D01*
X801031D01*
X800833Y267247D01*
X800664Y267500D01*
X800833Y267753D01*
X801056Y268875D01*
Y271125D01*
X800833Y272247D01*
X800664Y272500D01*
X800833Y272753D01*
X801056Y273875D01*
Y276125D01*
X800833Y277247D01*
X800664Y277500D01*
X800833Y277753D01*
X801056Y278875D01*
Y281125D01*
X800833Y282247D01*
X800664Y282500D01*
X800833Y282753D01*
X801056Y283875D01*
Y286125D01*
X800833Y287247D01*
X800664Y287500D01*
X800833Y287753D01*
X801056Y288875D01*
Y291125D01*
X800833Y292247D01*
X800664Y292500D01*
X800833Y292753D01*
X801056Y293875D01*
Y296125D01*
X800833Y297247D01*
X800664Y297500D01*
X800833Y297753D01*
X801056Y298875D01*
Y301125D01*
X800833Y302247D01*
X800664Y302500D01*
X800833Y302753D01*
X801056Y303875D01*
Y306125D01*
X800833Y307247D01*
X800664Y307500D01*
X800833Y307753D01*
X801056Y308875D01*
Y311125D01*
X800833Y312247D01*
X800664Y312500D01*
X800833Y312753D01*
X801056Y313875D01*
Y316125D01*
X800833Y317247D01*
X800664Y317500D01*
X800833Y317753D01*
X801056Y318875D01*
Y321125D01*
X800833Y322247D01*
X800664Y322500D01*
X800833Y322753D01*
X801056Y323875D01*
Y326125D01*
X800833Y327247D01*
X800664Y327500D01*
X800833Y327753D01*
X801056Y328875D01*
Y331125D01*
X800833Y332247D01*
X800664Y332500D01*
X800833Y332753D01*
X801056Y333875D01*
Y336125D01*
X800833Y337247D01*
X800664Y337500D01*
X800833Y337753D01*
X801056Y338875D01*
Y341125D01*
X800833Y342247D01*
X800664Y342500D01*
X800833Y342753D01*
X801056Y343875D01*
Y346125D01*
X800833Y347247D01*
X800664Y347500D01*
X800833Y347753D01*
X801056Y348875D01*
Y351125D01*
X800833Y352247D01*
X800664Y352500D01*
X800833Y352753D01*
X801056Y353875D01*
Y356125D01*
X800833Y357247D01*
X800664Y357500D01*
X800833Y357753D01*
X801056Y358875D01*
Y361125D01*
X800833Y362247D01*
X800664Y362500D01*
X800833Y362753D01*
X801056Y363875D01*
Y366125D01*
X800833Y367247D01*
X800664Y367500D01*
X800833Y367753D01*
X801056Y368875D01*
Y371125D01*
X800833Y372247D01*
X800664Y372500D01*
X800833Y372753D01*
X801031Y373750D01*
X799372D01*
X799247Y373834D01*
X798125Y374057D01*
X789500D01*
Y375943D01*
X798125D01*
X799247Y376166D01*
X799372Y376250D01*
X801031D01*
X800833Y377247D01*
X800664Y377500D01*
X800833Y377753D01*
X801056Y378875D01*
Y381125D01*
X800833Y382247D01*
X800198Y383198D01*
X799247Y383833D01*
X798125Y384056D01*
X780875D01*
X779753Y383833D01*
X779739Y383823D01*
X768049D01*
X765169Y386704D01*
X763929Y387532D01*
X762466Y387823D01*
X759060D01*
X758965Y387965D01*
X757146Y389181D01*
X755000Y389608D01*
X753747Y389358D01*
X753291Y390041D01*
X752154Y390801D01*
X750813Y391067D01*
X745188D01*
X743846Y390801D01*
X742709Y390041D01*
X741949Y388904D01*
X741683Y387562D01*
Y380438D01*
X741949Y379096D01*
X742709Y377959D01*
X743846Y377200D01*
X745188Y376933D01*
X750813D01*
X752154Y377200D01*
X753291Y377959D01*
X753747Y378642D01*
X755000Y378392D01*
X757146Y378819D01*
X758965Y380035D01*
X759060Y380177D01*
X760882D01*
X763762Y377296D01*
X765002Y376468D01*
X766466Y376176D01*
X777901D01*
X777944Y376125D01*
Y373875D01*
X777901Y373824D01*
X160584D01*
X118823Y415584D01*
Y550000D01*
X138497D01*
X139589Y549548D01*
X141390Y549310D01*
X143191Y549548D01*
X144283Y550000D01*
X537512D01*
X538072Y548649D01*
X539595Y546665D01*
X541579Y545142D01*
X543890Y544185D01*
X546370Y543858D01*
X548850Y544185D01*
X551161Y545142D01*
X553145Y546665D01*
X554668Y548649D01*
X555228Y550000D01*
X560841D01*
X561789Y549608D01*
X563590Y549370D01*
X565391Y549608D01*
X566339Y550000D01*
X581177D01*
Y493903D01*
X579907Y493228D01*
X578000Y493608D01*
X575854Y493181D01*
X574035Y491965D01*
X573635Y491367D01*
X572365D01*
X571965Y491965D01*
X570146Y493181D01*
X568000Y493608D01*
X565854Y493181D01*
X564035Y491965D01*
X562819Y490146D01*
X562392Y488000D01*
X562819Y485854D01*
X564035Y484035D01*
X564190Y483931D01*
X564468Y482537D01*
X565296Y481296D01*
X566596Y479997D01*
X566110Y478824D01*
X503164D01*
X494575Y487413D01*
X494608Y487580D01*
X494181Y489726D01*
X492965Y491546D01*
X491146Y492761D01*
X489000Y493188D01*
X486854Y492761D01*
X485035Y491546D01*
X483819Y489726D01*
X483392Y487580D01*
X483819Y485434D01*
X485035Y483615D01*
X486854Y482400D01*
X489000Y481973D01*
X489167Y482006D01*
X498877Y472296D01*
X500117Y471468D01*
X501581Y471177D01*
X568416D01*
X577296Y462296D01*
X578537Y461468D01*
X580000Y461177D01*
X674416D01*
X676246Y459347D01*
X675760Y458173D01*
X632650D01*
X631187Y457882D01*
X629946Y457053D01*
X621559Y448666D01*
X620518Y449361D01*
X619250Y449614D01*
X606250D01*
X604982Y449361D01*
X603907Y448643D01*
X603189Y447568D01*
X602936Y446300D01*
Y441800D01*
X603189Y440532D01*
X603907Y439457D01*
X604982Y438739D01*
X606250Y438486D01*
X619250D01*
X620518Y438739D01*
X621593Y439457D01*
X622107Y440227D01*
X622350D01*
X623813Y440518D01*
X625054Y441346D01*
X634234Y450527D01*
X658332D01*
X658550Y450266D01*
X658407Y448643D01*
X657689Y447568D01*
X657436Y446300D01*
Y441800D01*
X657689Y440532D01*
X658407Y439457D01*
X659482Y438739D01*
X660750Y438486D01*
X673750D01*
X675018Y438739D01*
X675263Y438902D01*
X676730D01*
X676854Y438819D01*
X679000Y438392D01*
X681146Y438819D01*
X682965Y440035D01*
X684181Y441854D01*
X684342Y442666D01*
X685558Y443035D01*
X721296Y407296D01*
X722537Y406468D01*
X724000Y406177D01*
X800377D01*
X801163Y405230D01*
X800944Y404125D01*
Y386875D01*
X801167Y385753D01*
X801802Y384802D01*
X802753Y384167D01*
X803875Y383944D01*
X806125D01*
X807247Y384167D01*
X807500Y384336D01*
X807753Y384167D01*
X808875Y383944D01*
X811125D01*
X812247Y384167D01*
X812500Y384336D01*
X812753Y384167D01*
X813875Y383944D01*
X816125D01*
X817247Y384167D01*
X817500Y384336D01*
X817753Y384167D01*
X818875Y383944D01*
X821125D01*
X822247Y384167D01*
X822500Y384336D01*
X822753Y384167D01*
X823875Y383944D01*
X826125D01*
X827247Y384167D01*
X827500Y384336D01*
X827753Y384167D01*
X828875Y383944D01*
X831125D01*
X832247Y384167D01*
X832500Y384336D01*
X832753Y384167D01*
X833875Y383944D01*
X836125D01*
X837247Y384167D01*
X837500Y384336D01*
X837753Y384167D01*
X838875Y383944D01*
X841125D01*
X842247Y384167D01*
X842500Y384336D01*
X842753Y384167D01*
X843875Y383944D01*
X846125D01*
X847247Y384167D01*
X847500Y384336D01*
X847753Y384167D01*
X848875Y383944D01*
X851125D01*
X852247Y384167D01*
X852500Y384336D01*
X852753Y384167D01*
X853875Y383944D01*
X856125D01*
X857247Y384167D01*
X857500Y384336D01*
X857753Y384167D01*
X858875Y383944D01*
X861125D01*
X862247Y384167D01*
X862500Y384336D01*
X862753Y384167D01*
X863875Y383944D01*
X866125D01*
X867247Y384167D01*
X867500Y384336D01*
X867753Y384167D01*
X868875Y383944D01*
X871125D01*
X872247Y384167D01*
X872500Y384336D01*
X872753Y384167D01*
X873875Y383944D01*
X876125D01*
X877247Y384167D01*
X877500Y384336D01*
X877753Y384167D01*
X878875Y383944D01*
X881125D01*
X882247Y384167D01*
X882500Y384336D01*
X882753Y384167D01*
X883875Y383944D01*
X886125D01*
X887247Y384167D01*
X887500Y384336D01*
X887753Y384167D01*
X888875Y383944D01*
X891125D01*
X892247Y384167D01*
X892500Y384336D01*
X892753Y384167D01*
X893875Y383944D01*
X896125D01*
X897247Y384167D01*
X897500Y384336D01*
X897753Y384167D01*
X898875Y383944D01*
X901125D01*
X902247Y384167D01*
X902500Y384336D01*
X902753Y384167D01*
X903875Y383944D01*
X906125D01*
X907247Y384167D01*
X907500Y384336D01*
X907753Y384167D01*
X908875Y383944D01*
X911125D01*
X912247Y384167D01*
X912500Y384336D01*
X912753Y384167D01*
X913875Y383944D01*
X916125D01*
X917247Y384167D01*
X917500Y384336D01*
X917753Y384167D01*
X918750Y383969D01*
Y385628D01*
X918834Y385753D01*
X919057Y386875D01*
Y395500D01*
X920943D01*
Y386875D01*
X921166Y385753D01*
X921250Y385628D01*
Y383969D01*
X922247Y384167D01*
X922500Y384336D01*
X922753Y384167D01*
X923875Y383944D01*
X926125D01*
X927247Y384167D01*
X928198Y384802D01*
X928833Y385753D01*
X929056Y386875D01*
Y404125D01*
X928833Y405247D01*
X928823Y405261D01*
Y425940D01*
X928965Y426035D01*
X930181Y427854D01*
X930608Y430000D01*
X930358Y431253D01*
X931041Y431709D01*
X931801Y432846D01*
X932067Y434188D01*
Y439813D01*
X931801Y441154D01*
X931041Y442291D01*
X929904Y443050D01*
X928562Y443317D01*
X921438D01*
X920096Y443050D01*
X918959Y442291D01*
X918830Y442098D01*
X917170D01*
X917041Y442291D01*
X915904Y443050D01*
X914563Y443317D01*
X907438D01*
X906096Y443050D01*
X904959Y442291D01*
X904200Y441154D01*
X903933Y439813D01*
Y434188D01*
X904200Y432846D01*
X904959Y431709D01*
X906096Y430950D01*
X907438Y430683D01*
X914563D01*
X915904Y430950D01*
X917041Y431709D01*
X917170Y431902D01*
X918664D01*
X919580Y430942D01*
X919392Y430000D01*
X919819Y427854D01*
X921035Y426035D01*
X921177Y425940D01*
Y407099D01*
X921125Y407056D01*
X918875D01*
X917753Y406833D01*
X917500Y406664D01*
X917247Y406833D01*
X916125Y407057D01*
X913875D01*
X913823Y407099D01*
Y418000D01*
X913532Y419463D01*
X912704Y420704D01*
X878575Y454833D01*
X878608Y455000D01*
X878181Y457146D01*
X876965Y458965D01*
X875146Y460181D01*
X873000Y460608D01*
X870854Y460181D01*
X869035Y458965D01*
X867819Y457146D01*
X867392Y455000D01*
X867819Y452854D01*
X869035Y451035D01*
X870854Y449819D01*
X873000Y449392D01*
X873167Y449426D01*
X885862Y436731D01*
X885236Y435561D01*
X885000Y435608D01*
X882854Y435181D01*
X881035Y433965D01*
X879819Y432146D01*
X879527Y430676D01*
X878149Y430258D01*
X814783Y493624D01*
X814983Y494283D01*
X815289Y494915D01*
X816965Y496035D01*
X818181Y497854D01*
X818608Y500000D01*
X818181Y502146D01*
X816965Y503965D01*
X816823Y504060D01*
Y507913D01*
X817963Y508787D01*
X818678Y509719D01*
X818870Y509800D01*
X820030D01*
X820222Y509719D01*
X820937Y508787D01*
X822362Y507695D01*
X824020Y507007D01*
X824550Y506938D01*
Y513650D01*
X827050D01*
Y506938D01*
X827580Y507007D01*
X829238Y507695D01*
X830663Y508787D01*
X831378Y509719D01*
X831570Y509800D01*
X832730D01*
X832922Y509719D01*
X833637Y508787D01*
X835062Y507695D01*
X836720Y507007D01*
X838500Y506773D01*
X840280Y507007D01*
X841938Y507695D01*
X843363Y508787D01*
X844078Y509719D01*
X844270Y509800D01*
X845430D01*
X845622Y509719D01*
X846337Y508787D01*
X847762Y507695D01*
X848083Y507561D01*
X848300Y506097D01*
X847066Y505084D01*
X845222Y502837D01*
X843852Y500274D01*
X843008Y497493D01*
X842723Y494600D01*
X843008Y491707D01*
X843852Y488926D01*
X845222Y486363D01*
X847066Y484116D01*
X849313Y482272D01*
X851876Y480902D01*
X854657Y480058D01*
X857550Y479773D01*
X860443Y480058D01*
X863224Y480902D01*
X865787Y482272D01*
X868034Y484116D01*
X869878Y486363D01*
X871248Y488926D01*
X872092Y491707D01*
X872377Y494600D01*
X872092Y497493D01*
X871248Y500274D01*
X869878Y502837D01*
X868034Y505084D01*
X866800Y506097D01*
X866991Y507386D01*
X867939Y507798D01*
X869187Y507276D01*
X869757Y505899D01*
X871013Y504263D01*
X872649Y503007D01*
X874555Y502218D01*
X876600Y501948D01*
X878645Y502218D01*
X880551Y503007D01*
X882187Y504263D01*
X883443Y505899D01*
X884232Y507805D01*
X884502Y509850D01*
X884232Y511895D01*
X883443Y513801D01*
X882187Y515437D01*
X880551Y516693D01*
X878645Y517482D01*
X876600Y517752D01*
X874555Y517482D01*
X872649Y516693D01*
X871697Y515962D01*
X870171Y516326D01*
X869855Y517088D01*
X868763Y518513D01*
X867831Y519228D01*
X867750Y519420D01*
Y520580D01*
X867831Y520772D01*
X868763Y521487D01*
X869855Y522912D01*
X870171Y523674D01*
X871697Y524038D01*
X872649Y523307D01*
X874555Y522518D01*
X876600Y522248D01*
X878645Y522518D01*
X880551Y523307D01*
X882187Y524563D01*
X883443Y526199D01*
X884232Y528105D01*
X884502Y530150D01*
X884232Y532195D01*
X883443Y534101D01*
X882187Y535737D01*
X880551Y536993D01*
X878645Y537782D01*
X876600Y538052D01*
X874555Y537782D01*
X872649Y536993D01*
X871013Y535737D01*
X869757Y534101D01*
X869187Y532724D01*
X867939Y532202D01*
X866991Y532614D01*
X866800Y533903D01*
X868034Y534916D01*
X869878Y537163D01*
X871248Y539726D01*
X872092Y542507D01*
X872377Y545400D01*
X872092Y548293D01*
X871883Y548980D01*
X872640Y550000D01*
X875593D01*
X891177Y534416D01*
D02*
G37*
G36*
X437146Y310003D02*
X414596Y287454D01*
X413768Y286213D01*
X413477Y284750D01*
Y283941D01*
X412425D01*
X410816Y283621D01*
X409451Y282709D01*
X408539Y281345D01*
X408219Y279735D01*
Y245985D01*
X408539Y244375D01*
X409451Y243011D01*
X410816Y242099D01*
X412425Y241779D01*
X422175D01*
X423784Y242099D01*
X425149Y243011D01*
X426061Y244375D01*
X426381Y245985D01*
Y279735D01*
X426061Y281345D01*
X425149Y282709D01*
X423784Y283621D01*
X423442Y283689D01*
X423024Y285067D01*
X444134Y306177D01*
X456810D01*
X457296Y305003D01*
X439996Y287704D01*
X439168Y286463D01*
X438876Y285000D01*
Y283941D01*
X437825D01*
X436216Y283621D01*
X434851Y282709D01*
X433939Y281345D01*
X433619Y279735D01*
Y245985D01*
X433939Y244376D01*
X434851Y243011D01*
X436216Y242099D01*
X437825Y241779D01*
X447575D01*
X449184Y242099D01*
X450549Y243011D01*
X451461Y244376D01*
X451781Y245985D01*
Y279735D01*
X451461Y281345D01*
X450549Y282709D01*
X449184Y283621D01*
X448634Y283730D01*
X448216Y285109D01*
X464284Y301176D01*
X477760D01*
X478246Y300003D01*
X465396Y287154D01*
X464568Y285913D01*
X464277Y284450D01*
Y283941D01*
X463225D01*
X461615Y283621D01*
X460251Y282709D01*
X459339Y281345D01*
X459019Y279735D01*
Y245985D01*
X459339Y244375D01*
X460251Y243011D01*
X461615Y242099D01*
X463225Y241779D01*
X472975D01*
X473406Y241865D01*
X474677Y240823D01*
Y239177D01*
X473406Y238135D01*
X472975Y238221D01*
X463225D01*
X461615Y237901D01*
X460251Y236989D01*
X459339Y235625D01*
X459019Y234015D01*
Y200265D01*
X459339Y198655D01*
X460251Y197291D01*
X461615Y196379D01*
X463225Y196059D01*
X472975D01*
X474585Y196379D01*
X475949Y197291D01*
X476861Y198655D01*
X477181Y200265D01*
Y213543D01*
X477503Y213608D01*
X478744Y214436D01*
X481204Y216896D01*
X482032Y218137D01*
X482323Y219600D01*
Y284416D01*
X489084Y291177D01*
X725640Y291177D01*
X726319Y289907D01*
X725949Y289354D01*
X725683Y288013D01*
Y285700D01*
X738317D01*
Y288013D01*
X738051Y289354D01*
X737681Y289907D01*
X738360Y291177D01*
X741640D01*
X742319Y289907D01*
X741949Y289354D01*
X741683Y288013D01*
Y280888D01*
X741949Y279546D01*
X742709Y278409D01*
X742902Y278280D01*
Y276170D01*
X742709Y276041D01*
X741949Y274904D01*
X741683Y273563D01*
Y266437D01*
X741949Y265096D01*
X742709Y263959D01*
X743846Y263200D01*
X745188Y262933D01*
X750813D01*
X752154Y263200D01*
X753291Y263959D01*
X753747Y264642D01*
X755000Y264392D01*
X757146Y264819D01*
X758965Y266035D01*
X759060Y266177D01*
X777901D01*
X777944Y266125D01*
Y263875D01*
X777895Y263803D01*
X776537Y263532D01*
X775296Y262704D01*
X772914Y260321D01*
X772085Y259081D01*
X771794Y257617D01*
Y223201D01*
X735416Y186824D01*
X695903D01*
X695229Y188093D01*
X695359Y188750D01*
X684641D01*
X684771Y188093D01*
X684097Y186824D01*
X504000D01*
X502537Y186532D01*
X501296Y185704D01*
X460296Y144704D01*
X459468Y143463D01*
X459176Y142000D01*
Y30000D01*
X441503D01*
X440411Y30452D01*
X438610Y30689D01*
X436809Y30452D01*
X435717Y30000D01*
X157686D01*
X156848Y30955D01*
X156959Y31800D01*
X156722Y33601D01*
X156027Y35280D01*
X154921Y36721D01*
X153480Y37827D01*
X151801Y38522D01*
X150000Y38760D01*
X148199Y38522D01*
X146520Y37827D01*
X145079Y36721D01*
X143973Y35280D01*
X143278Y33601D01*
X143041Y31800D01*
X143152Y30955D01*
X142314Y30000D01*
X106824D01*
Y89416D01*
X132704Y115296D01*
X133532Y116537D01*
X133823Y118000D01*
Y233738D01*
X135093Y234312D01*
X136218Y233449D01*
X138042Y232693D01*
X140000Y232435D01*
X141958Y232693D01*
X143782Y233449D01*
X145349Y234651D01*
X146551Y236218D01*
X147307Y238042D01*
X147565Y240000D01*
X147307Y241958D01*
X146551Y243782D01*
X145349Y245349D01*
X143782Y246551D01*
X141958Y247307D01*
X140000Y247565D01*
X138042Y247307D01*
X136218Y246551D01*
X135093Y245689D01*
X133823Y246262D01*
Y284416D01*
X160584Y311177D01*
X436660D01*
X437146Y310003D01*
D02*
G37*
G36*
X956177Y261276D02*
Y189584D01*
X940296Y173704D01*
X939468Y172463D01*
X939177Y171000D01*
Y30000D01*
X921504D01*
X920411Y30452D01*
X918610Y30689D01*
X916809Y30452D01*
X915717Y30000D01*
X522488D01*
X521928Y31351D01*
X520406Y33335D01*
X518421Y34858D01*
X516110Y35815D01*
X513630Y36142D01*
X511150Y35815D01*
X508839Y34858D01*
X506855Y33335D01*
X505332Y31351D01*
X504772Y30000D01*
X499159D01*
X498211Y30392D01*
X496410Y30629D01*
X494609Y30392D01*
X493661Y30000D01*
X478823D01*
Y138416D01*
X490149Y149742D01*
X491527Y149324D01*
X491819Y147854D01*
X493035Y146035D01*
X493177Y145940D01*
Y144150D01*
X493468Y142687D01*
X494296Y141446D01*
X500886Y134856D01*
X502127Y134028D01*
X503590Y133737D01*
X587670D01*
X588156Y132563D01*
X562416Y106823D01*
X498000D01*
X496537Y106532D01*
X495296Y105704D01*
X489296Y99704D01*
X488468Y98463D01*
X488177Y97000D01*
Y96060D01*
X488035Y95965D01*
X486819Y94146D01*
X486392Y92000D01*
X486819Y89854D01*
X488035Y88035D01*
X489854Y86819D01*
X492000Y86392D01*
X494146Y86819D01*
X495965Y88035D01*
X497181Y89854D01*
X497608Y92000D01*
X497181Y94146D01*
X496128Y95721D01*
X499584Y99177D01*
X502085D01*
X502516Y97907D01*
X501779Y97341D01*
X500673Y95900D01*
X499978Y94221D01*
X499740Y92420D01*
X499978Y90619D01*
X500673Y88940D01*
X501779Y87499D01*
X503220Y86393D01*
X504097Y86030D01*
Y84655D01*
X503139Y84258D01*
X501155Y82735D01*
X499632Y80751D01*
X498675Y78440D01*
X498348Y75960D01*
X498390Y75639D01*
X497528Y75155D01*
X497183Y75079D01*
X495830Y76117D01*
X494151Y76812D01*
X492350Y77049D01*
X490549Y76812D01*
X488870Y76117D01*
X487429Y75011D01*
X486323Y73570D01*
X485628Y71891D01*
X485391Y70090D01*
X485628Y68289D01*
X486323Y66610D01*
X487429Y65169D01*
X488870Y64063D01*
X490549Y63368D01*
X492350Y63130D01*
X494151Y63368D01*
X495830Y64063D01*
X497271Y65169D01*
X498377Y66610D01*
X499072Y68289D01*
X499244Y69589D01*
X500559Y69961D01*
X501155Y69184D01*
X503139Y67662D01*
X505450Y66705D01*
X507930Y66378D01*
X510410Y66705D01*
X512721Y67662D01*
X514705Y69184D01*
X516228Y71169D01*
X517186Y73480D01*
X517512Y75960D01*
X517186Y78440D01*
X516228Y80751D01*
X514705Y82735D01*
X512721Y84258D01*
X510533Y85164D01*
X510340Y85817D01*
X510329Y86507D01*
X511621Y87499D01*
X512727Y88940D01*
X513422Y90619D01*
X513660Y92420D01*
X513422Y94221D01*
X512727Y95900D01*
X511621Y97341D01*
X510884Y97907D01*
X511315Y99177D01*
X548685D01*
X549116Y97907D01*
X548379Y97341D01*
X547273Y95900D01*
X546578Y94221D01*
X546340Y92420D01*
X546578Y90619D01*
X547273Y88940D01*
X548379Y87499D01*
X549820Y86393D01*
X551499Y85698D01*
X553300Y85461D01*
X554626Y85635D01*
X555129Y84420D01*
X555045Y84355D01*
X553522Y82371D01*
X552565Y80060D01*
X552238Y77580D01*
X552565Y75100D01*
X553522Y72789D01*
X555045Y70805D01*
X557029Y69282D01*
X559340Y68325D01*
X561820Y67998D01*
X564300Y68325D01*
X566611Y69282D01*
X568596Y70805D01*
X570118Y72789D01*
X571076Y75100D01*
X571402Y77580D01*
X571076Y80060D01*
X570118Y82371D01*
X568596Y84355D01*
X566611Y85878D01*
X564300Y86835D01*
X561820Y87162D01*
X559340Y86835D01*
X559300Y86819D01*
X558500Y87862D01*
X559327Y88940D01*
X560022Y90619D01*
X560260Y92420D01*
X560022Y94221D01*
X559327Y95900D01*
X558221Y97341D01*
X557484Y97907D01*
X557915Y99177D01*
X564000D01*
X565463Y99468D01*
X565906Y99764D01*
X567177Y99085D01*
Y96480D01*
X567035Y96385D01*
X565819Y94565D01*
X565392Y92420D01*
X565819Y90274D01*
X567035Y88454D01*
X568854Y87239D01*
X571000Y86812D01*
X573146Y87239D01*
X574965Y88454D01*
X576181Y90274D01*
X576608Y92420D01*
X576181Y94565D01*
X574965Y96385D01*
X574823Y96480D01*
Y100416D01*
X623442Y149035D01*
X624658Y148666D01*
X624819Y147853D01*
X626035Y146034D01*
X627854Y144819D01*
X630000Y144392D01*
X670749D01*
X671407Y143407D01*
X672482Y142689D01*
X673750Y142436D01*
X675250D01*
X675324Y142451D01*
X679392D01*
Y140000D01*
X679819Y137854D01*
X681035Y136035D01*
X682854Y134819D01*
X685000Y134392D01*
X687079Y134806D01*
X687159Y134751D01*
X687699Y133630D01*
X681035Y126965D01*
X679819Y125146D01*
X679392Y123000D01*
Y122549D01*
X675324D01*
X675250Y122564D01*
X673750D01*
X672482Y122311D01*
X671407Y121593D01*
X670749Y120608D01*
X630000D01*
X627854Y120181D01*
X626035Y118965D01*
X624819Y117146D01*
X624392Y115000D01*
X624819Y112854D01*
X626035Y111035D01*
X627854Y109819D01*
X630000Y109392D01*
X670749D01*
X671407Y108407D01*
X672482Y107689D01*
X673750Y107436D01*
X675250D01*
X675324Y107451D01*
X680500D01*
X680746Y107500D01*
X682254D01*
X682500Y107451D01*
X687500D01*
X687746Y107500D01*
X689253D01*
X689499Y107451D01*
X689500Y107451D01*
X689500Y107451D01*
X694676D01*
X694750Y107436D01*
X696250D01*
X697518Y107689D01*
X698593Y108407D01*
X698730Y108612D01*
X700320Y108749D01*
X748035Y61035D01*
X749854Y59819D01*
X752000Y59392D01*
X765689D01*
X771412Y53670D01*
Y50647D01*
X771000Y50309D01*
X768000D01*
X766830Y50076D01*
X766250Y49689D01*
X765671Y50076D01*
X764500Y50309D01*
X761500D01*
X760330Y50076D01*
X759750Y49689D01*
X759171Y50076D01*
X758000Y50309D01*
X755000D01*
X753829Y50076D01*
X753250Y49689D01*
X752671Y50076D01*
X751500Y50309D01*
X751250D01*
Y41000D01*
Y31691D01*
X751500D01*
X752671Y31924D01*
X753250Y32311D01*
X753829Y31924D01*
X755000Y31691D01*
X758000D01*
X759171Y31924D01*
X759750Y32311D01*
X760330Y31924D01*
X761500Y31691D01*
X764500D01*
X765671Y31924D01*
X766250Y32311D01*
X766830Y31924D01*
X768000Y31691D01*
X771000D01*
X772171Y31924D01*
X772750Y32311D01*
X773329Y31924D01*
X774500Y31691D01*
X777500D01*
X778671Y31924D01*
X779663Y32587D01*
X780326Y33579D01*
X780559Y34750D01*
Y38433D01*
X781829Y38864D01*
X781844Y38844D01*
X783427Y37629D01*
X785271Y36865D01*
X786000Y36769D01*
Y44250D01*
Y51731D01*
X785271Y51635D01*
X783427Y50871D01*
X781858Y49667D01*
X781789Y49676D01*
X780588Y50106D01*
Y53979D01*
X781181Y54866D01*
X781608Y57012D01*
X781181Y59158D01*
X779965Y60978D01*
X771978Y68965D01*
X770158Y70181D01*
X768012Y70608D01*
X754323D01*
X741808Y83122D01*
X742334Y84392D01*
X754432D01*
X754721Y83959D01*
X755858Y83200D01*
X757199Y82933D01*
X762824D01*
X764166Y83200D01*
X765303Y83959D01*
X766062Y85096D01*
X766124Y85406D01*
X767605Y86395D01*
X768425Y87622D01*
X769695Y87237D01*
Y86438D01*
X769961Y85096D01*
X770721Y83959D01*
X771858Y83200D01*
X773199Y82933D01*
X774762D01*
Y90000D01*
Y97067D01*
X773199D01*
X771858Y96800D01*
X770721Y96041D01*
X770368Y95512D01*
X769098Y95897D01*
Y100528D01*
X770368Y101207D01*
X770406Y101181D01*
X771625Y100939D01*
X775375D01*
X776594Y101181D01*
X777628Y101872D01*
X778319Y102906D01*
X778561Y104125D01*
Y108875D01*
X778319Y110094D01*
X778017Y110545D01*
X778728Y111608D01*
X779092Y113438D01*
Y118750D01*
X764000D01*
X748908D01*
Y113438D01*
X749272Y111608D01*
X749983Y110545D01*
X749681Y110094D01*
X749439Y108875D01*
Y106685D01*
X749402Y106500D01*
Y95608D01*
X743323D01*
X729608Y109323D01*
Y134390D01*
X729608Y134390D01*
X729181Y136536D01*
X727965Y138355D01*
X726146Y139571D01*
X724000Y139998D01*
X724000Y139998D01*
X696390D01*
X694244Y139571D01*
X692425Y138355D01*
X691370Y137301D01*
X690249Y137841D01*
X690194Y137921D01*
X690608Y140000D01*
Y142451D01*
X694676D01*
X694750Y142436D01*
X696250D01*
X697518Y142689D01*
X698593Y143407D01*
X699251Y144392D01*
X749402D01*
Y133500D01*
X749439Y133315D01*
Y131125D01*
X749681Y129906D01*
X749983Y129455D01*
X749272Y128391D01*
X748908Y126562D01*
Y121250D01*
X764000D01*
X779092D01*
Y126562D01*
X778728Y128391D01*
X778017Y129455D01*
X778319Y129906D01*
X778561Y131125D01*
Y132250D01*
X773500D01*
Y133500D01*
X772250D01*
Y139061D01*
X771625D01*
X770406Y138819D01*
X770368Y138793D01*
X769098Y139472D01*
Y144103D01*
X770368Y144488D01*
X770721Y143959D01*
X771858Y143200D01*
X773199Y142933D01*
X774762D01*
Y150000D01*
X776012D01*
Y151250D01*
X782329D01*
Y153562D01*
X782063Y154904D01*
X782038Y154941D01*
X782717Y156211D01*
X803035D01*
X804498Y156502D01*
X805738Y157331D01*
X827517Y179110D01*
X828688Y178484D01*
X828641Y178250D01*
X839359D01*
X839181Y179146D01*
X838790Y179731D01*
X839318Y181226D01*
X840041Y181709D01*
X840236Y182002D01*
X841764D01*
X841959Y181709D01*
X843096Y180949D01*
X844438Y180683D01*
X846750D01*
Y187000D01*
X849250D01*
Y180683D01*
X851563D01*
X852904Y180949D01*
X854041Y181709D01*
X854801Y182846D01*
X854977Y183732D01*
X855992Y184306D01*
X856337Y184351D01*
X856537Y184218D01*
X857435Y184039D01*
X857707Y182673D01*
X858494Y181494D01*
X859672Y180707D01*
X861062Y180430D01*
X867438D01*
X868828Y180707D01*
X870000Y181490D01*
X871172Y180707D01*
X872562Y180430D01*
X878938D01*
X880328Y180707D01*
X881506Y181494D01*
X882293Y182673D01*
X882570Y184062D01*
Y191437D01*
X882293Y192827D01*
X881506Y194006D01*
X881161Y194236D01*
Y195764D01*
X881506Y195994D01*
X882293Y197173D01*
X882543Y198427D01*
X883750D01*
X885213Y198718D01*
X885297Y198701D01*
X885959Y197709D01*
X887096Y196950D01*
X888438Y196683D01*
X895563D01*
X896177Y196179D01*
Y193821D01*
X895563Y193317D01*
X893250D01*
Y187000D01*
X892000D01*
Y185750D01*
X884933D01*
Y184188D01*
X885200Y182846D01*
X885959Y181709D01*
X886682Y181227D01*
X887210Y179731D01*
X886819Y179146D01*
X886641Y178250D01*
X892000D01*
Y177000D01*
X893250D01*
Y171641D01*
X893406Y171672D01*
X894032Y170501D01*
X892355Y168824D01*
X851000D01*
X849537Y168533D01*
X848296Y167704D01*
X824296Y143704D01*
X823468Y142464D01*
X823176Y141001D01*
Y139265D01*
X822096Y139051D01*
X820959Y138291D01*
X820763Y137997D01*
X819268D01*
X819159Y138111D01*
X819040Y138290D01*
X818900Y138383D01*
X818550Y138751D01*
X807640D01*
X807641Y138746D01*
X806958Y138290D01*
X806199Y137153D01*
X805932Y135812D01*
Y134249D01*
X812999D01*
Y132999D01*
X814249D01*
Y126682D01*
X816562D01*
X817903Y126949D01*
X819040Y127708D01*
X819236Y128002D01*
X820764D01*
X820959Y127709D01*
X822096Y126950D01*
X823438Y126683D01*
X830562D01*
X831904Y126950D01*
X832311Y127222D01*
X832582Y127181D01*
X833497Y126234D01*
X833450Y125999D01*
X833451Y123544D01*
X832181Y122865D01*
X831904Y123050D01*
X830562Y123317D01*
X823438D01*
X822096Y123050D01*
X820959Y122291D01*
X820763Y121997D01*
X819236D01*
X819040Y122290D01*
X817903Y123050D01*
X816562Y123316D01*
X809437D01*
X808095Y123050D01*
X806958Y122290D01*
X806199Y121153D01*
X805932Y119812D01*
Y114187D01*
X806199Y112845D01*
X806958Y111708D01*
X808095Y110949D01*
X809437Y110682D01*
X816562D01*
X817903Y110949D01*
X819040Y111708D01*
X819236Y112002D01*
X820764D01*
X820959Y111709D01*
X822096Y110949D01*
X823438Y110683D01*
X830562D01*
X831904Y110949D01*
X832950Y111649D01*
X833041Y111709D01*
X834445Y111524D01*
X834477Y111476D01*
X835634Y110703D01*
X837000Y110431D01*
X845000D01*
X846366Y110703D01*
X847523Y111476D01*
X847527Y111482D01*
X848949Y111626D01*
X850244Y110761D01*
X852000Y110411D01*
X858000D01*
X859756Y110761D01*
X861244Y111755D01*
X861342Y111902D01*
X862658D01*
X862756Y111756D01*
X863884Y111001D01*
X864282Y110637D01*
X864668Y109387D01*
X864392Y108000D01*
X864819Y105854D01*
X866035Y104035D01*
X867854Y102819D01*
X870000Y102392D01*
X872146Y102819D01*
X873965Y104035D01*
X875181Y105854D01*
X875608Y108000D01*
X875181Y110146D01*
X875098Y110270D01*
Y111658D01*
X875244Y111756D01*
X875342Y111902D01*
X876658D01*
X876756Y111756D01*
X878244Y110761D01*
X880000Y110412D01*
X886000D01*
X887756Y110761D01*
X889244Y111756D01*
X889342Y111902D01*
X890658D01*
X890756Y111756D01*
X892244Y110761D01*
X894000Y110412D01*
X900000D01*
X901756Y110761D01*
X903244Y111756D01*
X904239Y113244D01*
X904588Y115000D01*
Y119000D01*
X904549Y119197D01*
Y125999D01*
X904355Y126975D01*
X904338Y127000D01*
X904355Y127024D01*
X904355Y127025D01*
X904355Y127025D01*
X904455Y127526D01*
X904549Y128000D01*
Y130803D01*
X904588Y131000D01*
Y135000D01*
X904516Y135364D01*
X905221Y136419D01*
X905463Y136468D01*
X906704Y137296D01*
X927704Y158296D01*
X928532Y159537D01*
X928823Y161000D01*
Y172667D01*
X929516Y172877D01*
X930093Y172995D01*
X931854Y171819D01*
X932750Y171641D01*
Y177000D01*
X934000D01*
Y178250D01*
X939359D01*
X939181Y179146D01*
X938790Y179731D01*
X939318Y181226D01*
X940041Y181709D01*
X940800Y182846D01*
X941067Y184188D01*
Y185750D01*
X934000D01*
Y187000D01*
X932750D01*
Y193317D01*
X930437D01*
X930094Y193249D01*
X928823Y194279D01*
Y195721D01*
X930094Y196751D01*
X930437Y196683D01*
X937562D01*
X938904Y196950D01*
X940041Y197709D01*
X940800Y198846D01*
X941067Y200187D01*
Y205812D01*
X940800Y207154D01*
X940041Y208291D01*
X939358Y208747D01*
X939608Y210000D01*
X939181Y212146D01*
X937965Y213965D01*
X937823Y214060D01*
Y251000D01*
X937532Y252463D01*
X936704Y253704D01*
X935637Y254770D01*
X936123Y255944D01*
X949125D01*
X950247Y256167D01*
X951198Y256802D01*
X951833Y257753D01*
X952056Y258875D01*
Y261125D01*
X951833Y262247D01*
X951709Y262433D01*
X951769Y262657D01*
X951833Y262753D01*
X951944Y263309D01*
X952038Y263661D01*
X953172Y264281D01*
X956177Y261276D01*
D02*
G37*
G36*
X831177Y232901D02*
Y223584D01*
X823296Y215704D01*
X822468Y214463D01*
X822177Y213000D01*
Y184584D01*
X821258Y183666D01*
X820257Y184105D01*
X820067Y184270D01*
Y185750D01*
X814250D01*
Y180683D01*
X816479D01*
X816645Y180494D01*
X817084Y179492D01*
X801451Y163858D01*
X752924D01*
X752438Y165031D01*
X790759Y203352D01*
X791933Y202866D01*
Y200187D01*
X792199Y198846D01*
X792959Y197709D01*
X794096Y196950D01*
X795437Y196683D01*
X802562D01*
X803904Y196950D01*
X805041Y197709D01*
X805236Y198002D01*
X806764D01*
X806959Y197709D01*
X808096Y196950D01*
X809437Y196683D01*
X816562D01*
X817904Y196950D01*
X819041Y197709D01*
X819800Y198846D01*
X820067Y200187D01*
Y205812D01*
X819800Y207154D01*
X819041Y208291D01*
X818358Y208747D01*
X818608Y210000D01*
X818181Y212146D01*
X817529Y213122D01*
X827704Y223296D01*
X828532Y224537D01*
X828823Y226000D01*
Y232901D01*
X828875Y232944D01*
X831125D01*
X831177Y232901D01*
D02*
G37*
G36*
X696000Y145000D02*
X689500D01*
X689500Y146000D01*
X693000Y149499D01*
X693000Y150500D01*
X689500Y154000D01*
X689500Y155000D01*
X696000D01*
Y145000D01*
D02*
G37*
G36*
X687500Y154000D02*
X691000Y150500D01*
Y149500D01*
X687500Y146000D01*
Y145000D01*
X682500D01*
Y146000D01*
X679000Y149500D01*
Y150500D01*
X682500Y154000D01*
Y155000D01*
X687500D01*
X687500Y154000D01*
D02*
G37*
G36*
X680500Y154000D02*
X677000Y150501D01*
X677000Y149500D01*
X680500Y146000D01*
X680500Y145000D01*
X674000D01*
Y155000D01*
X680500D01*
X680500Y154000D01*
D02*
G37*
G36*
X888000Y128000D02*
X887000Y128000D01*
X883000Y124000D01*
X879000Y128000D01*
X878000D01*
Y134000D01*
X888000D01*
Y128000D01*
D02*
G37*
G36*
X902000Y128000D02*
X901000Y128000D01*
X897000Y124000D01*
X893000Y128000D01*
X892000D01*
Y134000D01*
X902000D01*
Y128000D01*
D02*
G37*
G36*
X874000Y128000D02*
X873000Y128000D01*
X869000Y124000D01*
X865000Y128000D01*
X864000D01*
Y134000D01*
X874000D01*
Y128000D01*
D02*
G37*
G36*
X846000Y128000D02*
X845000Y127999D01*
X841000Y124000D01*
X837000Y128000D01*
X836000D01*
Y134000D01*
X846000D01*
Y128000D01*
D02*
G37*
G36*
X860000Y127999D02*
X859000Y127999D01*
X855000Y124000D01*
X851000Y127999D01*
X850000D01*
Y134000D01*
X860000D01*
Y127999D01*
D02*
G37*
G36*
X888000Y116000D02*
X878000Y116000D01*
X877999Y126000D01*
X878500D01*
X882499Y122000D01*
X883500Y122000D01*
X887500Y126000D01*
X888000D01*
Y116000D01*
D02*
G37*
G36*
X902000Y116000D02*
X892000Y116000D01*
X892000Y125999D01*
X892500D01*
X896499Y122000D01*
X897500Y122000D01*
X901500Y125999D01*
X902000D01*
Y116000D01*
D02*
G37*
G36*
X874000Y116000D02*
X864000Y115999D01*
X863999Y125999D01*
X864500D01*
X868499Y122000D01*
X869500Y122000D01*
X873500Y125999D01*
X874000D01*
Y116000D01*
D02*
G37*
G36*
X846000Y115999D02*
X836000Y115999D01*
X836000Y125999D01*
X836500D01*
X840499Y121999D01*
X841500Y122000D01*
X845500Y125999D01*
X846000D01*
Y115999D01*
D02*
G37*
G36*
X860000Y115999D02*
X850000Y115999D01*
X849999Y125999D01*
X850500D01*
X854499Y121999D01*
X855500Y122000D01*
X859500Y125999D01*
X860000D01*
Y115999D01*
D02*
G37*
G36*
X696000Y110000D02*
X689500D01*
X689501Y111000D01*
X693000Y114499D01*
X693000Y115500D01*
X689500Y119000D01*
X689500Y120000D01*
X696000D01*
Y110000D01*
D02*
G37*
G36*
X687500Y119000D02*
X691000Y115500D01*
Y114500D01*
X687500Y111000D01*
Y110000D01*
X682500D01*
Y111000D01*
X679000Y114500D01*
Y115500D01*
X682500Y119000D01*
Y120000D01*
X687500D01*
X687500Y119000D01*
D02*
G37*
G36*
X680500Y119000D02*
X677000Y115501D01*
X677000Y114500D01*
X680500Y111000D01*
X680500Y110000D01*
X674000D01*
Y120000D01*
X680500D01*
X680500Y119000D01*
D02*
G37*
%LPC*%
G36*
X740000Y541585D02*
X738303Y541362D01*
X736722Y540707D01*
X735364Y539665D01*
X734322Y538307D01*
X733667Y536726D01*
X733444Y535029D01*
X733667Y533332D01*
X734322Y531751D01*
X735364Y530393D01*
X736722Y529351D01*
X738303Y528696D01*
X740000Y528473D01*
X741697Y528696D01*
X743278Y529351D01*
X744636Y530393D01*
X745678Y531751D01*
X746333Y533332D01*
X746556Y535029D01*
X746333Y536726D01*
X745678Y538307D01*
X744636Y539665D01*
X743278Y540707D01*
X741697Y541362D01*
X740000Y541585D01*
D02*
G37*
G36*
X624560Y526959D02*
X622759Y526722D01*
X621080Y526027D01*
X619639Y524921D01*
X618533Y523480D01*
X617838Y521801D01*
X617601Y520000D01*
X617838Y518199D01*
X618533Y516520D01*
X619639Y515079D01*
X621080Y513973D01*
X622759Y513278D01*
X624560Y513041D01*
X626361Y513278D01*
X628040Y513973D01*
X629481Y515079D01*
X630587Y516520D01*
X631282Y518199D01*
X631520Y520000D01*
X631282Y521801D01*
X630587Y523480D01*
X629481Y524921D01*
X628040Y526027D01*
X626361Y526722D01*
X624560Y526959D01*
D02*
G37*
G36*
X403937Y545189D02*
X373763D01*
X371982Y544835D01*
X370473Y543827D01*
X369465Y542318D01*
X369111Y540537D01*
Y528162D01*
X369465Y526382D01*
X370473Y524873D01*
X371982Y523865D01*
X373763Y523511D01*
X403937D01*
X405718Y523865D01*
X407227Y524873D01*
X408235Y526382D01*
X408589Y528162D01*
Y540537D01*
X408235Y542318D01*
X407227Y543827D01*
X405718Y544835D01*
X403937Y545189D01*
D02*
G37*
G36*
X206238D02*
X176063D01*
X174282Y544835D01*
X172773Y543827D01*
X171765Y542318D01*
X171411Y540537D01*
Y528162D01*
X171765Y526382D01*
X172773Y524873D01*
X174282Y523865D01*
X176063Y523511D01*
X206238D01*
X208018Y523865D01*
X209527Y524873D01*
X210535Y526382D01*
X210889Y528162D01*
Y540537D01*
X210535Y542318D01*
X209527Y543827D01*
X208018Y544835D01*
X206238Y545189D01*
D02*
G37*
G36*
X530000Y540086D02*
X527389Y539743D01*
X524957Y538735D01*
X522868Y537132D01*
X521265Y535043D01*
X520257Y532611D01*
X519914Y530000D01*
X520257Y527389D01*
X521265Y524957D01*
X522868Y522868D01*
X524957Y521265D01*
X527389Y520257D01*
X530000Y519914D01*
X532611Y520257D01*
X535043Y521265D01*
X537132Y522868D01*
X538735Y524957D01*
X539743Y527389D01*
X540086Y530000D01*
X539743Y532611D01*
X538735Y535043D01*
X537132Y537132D01*
X535043Y538735D01*
X532611Y539743D01*
X530000Y540086D01*
D02*
G37*
G36*
X144560Y526959D02*
X142759Y526722D01*
X141080Y526027D01*
X139639Y524921D01*
X138533Y523480D01*
X137838Y521801D01*
X137600Y520000D01*
X137838Y518199D01*
X138533Y516520D01*
X139639Y515079D01*
X141080Y513973D01*
X142759Y513278D01*
X144560Y513041D01*
X146361Y513278D01*
X148040Y513973D01*
X149481Y515079D01*
X150587Y516520D01*
X151282Y518199D01*
X151519Y520000D01*
X151282Y521801D01*
X150587Y523480D01*
X149481Y524921D01*
X148040Y526027D01*
X146361Y526722D01*
X144560Y526959D01*
D02*
G37*
G36*
X567650Y516870D02*
X565849Y516632D01*
X564170Y515937D01*
X562729Y514831D01*
X561623Y513390D01*
X560928Y511711D01*
X560756Y510411D01*
X559441Y510039D01*
X558845Y510816D01*
X556861Y512338D01*
X554550Y513296D01*
X552070Y513622D01*
X549590Y513296D01*
X547279Y512338D01*
X545295Y510816D01*
X543772Y508831D01*
X542815Y506520D01*
X542488Y504040D01*
X542815Y501560D01*
X543772Y499249D01*
X545295Y497265D01*
X547279Y495742D01*
X549467Y494836D01*
X549660Y494183D01*
X549671Y493493D01*
X548379Y492501D01*
X547273Y491060D01*
X546578Y489381D01*
X546340Y487580D01*
X546578Y485779D01*
X547273Y484100D01*
X548379Y482659D01*
X549820Y481553D01*
X551499Y480858D01*
X553300Y480620D01*
X555101Y480858D01*
X556780Y481553D01*
X558221Y482659D01*
X559327Y484100D01*
X560022Y485779D01*
X560260Y487580D01*
X560022Y489381D01*
X559327Y491060D01*
X558221Y492501D01*
X556780Y493607D01*
X555903Y493970D01*
Y495345D01*
X556861Y495742D01*
X558845Y497265D01*
X560368Y499249D01*
X561325Y501560D01*
X561652Y504040D01*
X561610Y504361D01*
X562472Y504845D01*
X562817Y504921D01*
X564170Y503883D01*
X565849Y503188D01*
X567650Y502951D01*
X569451Y503188D01*
X571130Y503883D01*
X572571Y504989D01*
X573677Y506430D01*
X574372Y508109D01*
X574609Y509910D01*
X574372Y511711D01*
X573677Y513390D01*
X572571Y514831D01*
X571130Y515937D01*
X569451Y516632D01*
X567650Y516870D01*
D02*
G37*
G36*
X234762Y496830D02*
X231250D01*
Y480900D01*
X238930D01*
Y492663D01*
X238613Y494257D01*
X237709Y495609D01*
X236357Y496513D01*
X234762Y496830D01*
D02*
G37*
G36*
X228750D02*
X225238D01*
X223643Y496513D01*
X222291Y495609D01*
X221387Y494257D01*
X221070Y492663D01*
Y480900D01*
X228750D01*
Y496830D01*
D02*
G37*
G36*
X498180Y512002D02*
X495700Y511675D01*
X493389Y510718D01*
X491405Y509196D01*
X489882Y507211D01*
X488924Y504900D01*
X488598Y502420D01*
X488924Y499940D01*
X489882Y497629D01*
X491405Y495645D01*
X493389Y494122D01*
X495700Y493164D01*
X498180Y492838D01*
X500660Y493164D01*
X500700Y493181D01*
X501500Y492138D01*
X500673Y491060D01*
X499978Y489381D01*
X499740Y487580D01*
X499978Y485779D01*
X500673Y484100D01*
X501779Y482659D01*
X503220Y481553D01*
X504899Y480858D01*
X506700Y480620D01*
X508501Y480858D01*
X510180Y481553D01*
X511621Y482659D01*
X512727Y484100D01*
X513422Y485779D01*
X513660Y487580D01*
X513422Y489381D01*
X512727Y491060D01*
X511621Y492501D01*
X510180Y493607D01*
X508501Y494302D01*
X506700Y494539D01*
X505374Y494365D01*
X504871Y495580D01*
X504955Y495645D01*
X506478Y497629D01*
X507435Y499940D01*
X507762Y502420D01*
X507435Y504900D01*
X506478Y507211D01*
X504955Y509196D01*
X502971Y510718D01*
X500660Y511675D01*
X498180Y512002D01*
D02*
G37*
G36*
X891250Y483359D02*
Y479250D01*
X895359D01*
X895181Y480146D01*
X893965Y481965D01*
X892146Y483181D01*
X891250Y483359D01*
D02*
G37*
G36*
X888750D02*
X887854Y483181D01*
X886035Y481965D01*
X884819Y480146D01*
X884641Y479250D01*
X888750D01*
Y483359D01*
D02*
G37*
G36*
X895359Y476750D02*
X891250D01*
Y472641D01*
X892146Y472819D01*
X893965Y474035D01*
X895181Y475854D01*
X895359Y476750D01*
D02*
G37*
G36*
X888750D02*
X884641D01*
X884819Y475854D01*
X886035Y474035D01*
X887854Y472819D01*
X888750Y472641D01*
Y476750D01*
D02*
G37*
G36*
X238930Y478400D02*
X231250D01*
Y462470D01*
X234762D01*
X236357Y462787D01*
X237709Y463691D01*
X238613Y465043D01*
X238930Y466637D01*
Y478400D01*
D02*
G37*
G36*
X228750D02*
X221070D01*
Y466637D01*
X221387Y465043D01*
X222291Y463691D01*
X223643Y462787D01*
X225238Y462470D01*
X228750D01*
Y478400D01*
D02*
G37*
G36*
X140000Y477565D02*
X138042Y477307D01*
X136218Y476551D01*
X134651Y475349D01*
X133449Y473782D01*
X132693Y471958D01*
X132435Y470000D01*
X132693Y468042D01*
X133449Y466218D01*
X134651Y464651D01*
X136218Y463449D01*
X138042Y462693D01*
X140000Y462435D01*
X141958Y462693D01*
X143782Y463449D01*
X145349Y464651D01*
X146551Y466218D01*
X147307Y468042D01*
X147565Y470000D01*
X147307Y471958D01*
X146551Y473782D01*
X145349Y475349D01*
X143782Y476551D01*
X141958Y477307D01*
X140000Y477565D01*
D02*
G37*
G36*
X912250Y466359D02*
Y462250D01*
X916359D01*
X916181Y463146D01*
X914965Y464965D01*
X913146Y466181D01*
X912250Y466359D01*
D02*
G37*
G36*
X909750D02*
X908854Y466181D01*
X907035Y464965D01*
X905819Y463146D01*
X905641Y462250D01*
X909750D01*
Y466359D01*
D02*
G37*
G36*
X294762Y496830D02*
X285238D01*
X283643Y496513D01*
X282291Y495609D01*
X281387Y494257D01*
X281070Y492663D01*
Y466637D01*
X281387Y465043D01*
X282291Y463691D01*
X283643Y462787D01*
X284706Y462576D01*
X284392Y461000D01*
X284819Y458854D01*
X286035Y457035D01*
X287854Y455819D01*
X290000Y455392D01*
X292146Y455819D01*
X293965Y457035D01*
X295181Y458854D01*
X295608Y461000D01*
X295294Y462576D01*
X296357Y462787D01*
X297709Y463691D01*
X298613Y465043D01*
X298930Y466637D01*
Y492663D01*
X298613Y494257D01*
X297709Y495609D01*
X296357Y496513D01*
X294762Y496830D01*
D02*
G37*
G36*
X324762D02*
X315238D01*
X313643Y496513D01*
X312291Y495609D01*
X311387Y494257D01*
X311070Y492663D01*
Y466637D01*
X311387Y465043D01*
X312291Y463691D01*
X313643Y462787D01*
X314902Y462537D01*
Y448921D01*
X313959Y448291D01*
X313916Y448227D01*
X312000Y448608D01*
X309854Y448181D01*
X308035Y446965D01*
X306819Y445146D01*
X306392Y443000D01*
X306819Y440854D01*
X308035Y439035D01*
X309854Y437819D01*
X312000Y437392D01*
X313916Y437773D01*
X313959Y437709D01*
X315096Y436950D01*
X316437Y436683D01*
X323563D01*
X324904Y436950D01*
X326041Y437709D01*
X326800Y438846D01*
X327067Y440187D01*
Y445812D01*
X326800Y447154D01*
X326041Y448291D01*
X325098Y448921D01*
Y462537D01*
X326357Y462787D01*
X327709Y463691D01*
X328613Y465043D01*
X328930Y466637D01*
Y492663D01*
X328613Y494257D01*
X327709Y495609D01*
X326357Y496513D01*
X324762Y496830D01*
D02*
G37*
G36*
X932067Y451750D02*
X926250D01*
Y446683D01*
X928562D01*
X929904Y446950D01*
X931041Y447709D01*
X931801Y448846D01*
X932067Y450187D01*
Y451750D01*
D02*
G37*
G36*
X916359Y459750D02*
X905641D01*
X905817Y458864D01*
X904959Y458291D01*
X904200Y457154D01*
X903933Y455812D01*
Y454250D01*
X911000D01*
Y453000D01*
X912250D01*
Y446683D01*
X914563D01*
X915904Y446950D01*
X917041Y447709D01*
X917236Y448002D01*
X918764D01*
X918959Y447709D01*
X920096Y446950D01*
X921438Y446683D01*
X923750D01*
Y453000D01*
Y459317D01*
X921438D01*
X920096Y459050D01*
X918959Y458291D01*
X918764Y457998D01*
X917236D01*
X917041Y458291D01*
X916183Y458864D01*
X916359Y459750D01*
D02*
G37*
G36*
X909750Y451750D02*
X903933D01*
Y450187D01*
X904200Y448846D01*
X904959Y447709D01*
X906096Y446950D01*
X907438Y446683D01*
X909750D01*
Y451750D01*
D02*
G37*
G36*
X264762Y496830D02*
X255238D01*
X253643Y496513D01*
X252291Y495609D01*
X251387Y494257D01*
X251070Y492663D01*
Y466637D01*
X251387Y465043D01*
X252291Y463691D01*
X253643Y462787D01*
X254902Y462537D01*
Y454270D01*
X254819Y454146D01*
X254392Y452000D01*
X254819Y449854D01*
X256035Y448035D01*
X257854Y446819D01*
X260000Y446392D01*
X262146Y446819D01*
X263965Y448035D01*
X265181Y449854D01*
X265608Y452000D01*
X265181Y454146D01*
X265098Y454270D01*
Y462537D01*
X266357Y462787D01*
X267709Y463691D01*
X268613Y465043D01*
X268930Y466637D01*
Y492663D01*
X268613Y494257D01*
X267709Y495609D01*
X266357Y496513D01*
X264762Y496830D01*
D02*
G37*
G36*
X354762D02*
X345238D01*
X343643Y496513D01*
X342291Y495609D01*
X341387Y494257D01*
X341070Y492663D01*
Y466637D01*
X341387Y465043D01*
X342291Y463691D01*
X343643Y462787D01*
X344902Y462537D01*
Y448921D01*
X343959Y448291D01*
X343200Y447154D01*
X342933Y445812D01*
Y440187D01*
X343200Y438846D01*
X343959Y437709D01*
X345096Y436950D01*
X346437Y436683D01*
X353563D01*
X354904Y436950D01*
X355572Y437396D01*
X356711Y436629D01*
Y436601D01*
X356392Y435000D01*
X356717Y433366D01*
X355578Y432600D01*
X354904Y433050D01*
X353563Y433317D01*
X351250D01*
Y428250D01*
X357067D01*
Y429813D01*
X356959Y430359D01*
X357751Y430857D01*
X358132Y430970D01*
X359854Y429819D01*
X362000Y429392D01*
X364146Y429819D01*
X365965Y431035D01*
X367181Y432854D01*
X367608Y435000D01*
X367181Y437146D01*
X366907Y437556D01*
Y439191D01*
X366519Y441142D01*
X365414Y442796D01*
X361605Y446605D01*
X359951Y447710D01*
X358000Y448098D01*
X356170D01*
X356041Y448291D01*
X355098Y448921D01*
Y462537D01*
X356357Y462787D01*
X357709Y463691D01*
X358613Y465043D01*
X358930Y466637D01*
Y492663D01*
X358613Y494257D01*
X357709Y495609D01*
X356357Y496513D01*
X354762Y496830D01*
D02*
G37*
G36*
X673750Y436914D02*
X668500D01*
Y432600D01*
X677064D01*
Y433600D01*
X676811Y434868D01*
X676093Y435943D01*
X675018Y436661D01*
X673750Y436914D01*
D02*
G37*
G36*
X666000D02*
X660750D01*
X659482Y436661D01*
X658407Y435943D01*
X657689Y434868D01*
X657436Y433600D01*
Y432600D01*
X666000D01*
Y436914D01*
D02*
G37*
G36*
X323563Y433317D02*
X321250D01*
Y428250D01*
X327067D01*
Y429813D01*
X326800Y431154D01*
X326041Y432291D01*
X324904Y433050D01*
X323563Y433317D01*
D02*
G37*
G36*
X318750D02*
X316437D01*
X315096Y433050D01*
X313959Y432291D01*
X313200Y431154D01*
X312933Y429813D01*
Y428250D01*
X318750D01*
Y433317D01*
D02*
G37*
G36*
X348750D02*
X346437D01*
X345096Y433050D01*
X343959Y432291D01*
X343200Y431154D01*
X342933Y429813D01*
Y428250D01*
X348750D01*
Y433317D01*
D02*
G37*
G36*
X231250Y430359D02*
Y426250D01*
X235359D01*
X235181Y427146D01*
X233965Y428965D01*
X232146Y430181D01*
X231250Y430359D01*
D02*
G37*
G36*
X228750D02*
X227854Y430181D01*
X226035Y428965D01*
X224819Y427146D01*
X224641Y426250D01*
X228750D01*
Y430359D01*
D02*
G37*
G36*
X677064Y430100D02*
X668500D01*
Y425786D01*
X673750D01*
X675018Y426039D01*
X676093Y426757D01*
X676811Y427832D01*
X677064Y429100D01*
Y430100D01*
D02*
G37*
G36*
X666000D02*
X657436D01*
Y429100D01*
X657689Y427832D01*
X658407Y426757D01*
X659482Y426039D01*
X660750Y425786D01*
X666000D01*
Y430100D01*
D02*
G37*
G36*
X583563Y439317D02*
X576437D01*
X575096Y439050D01*
X573959Y438291D01*
X573200Y437154D01*
X572933Y435812D01*
Y430187D01*
X573200Y428846D01*
X573959Y427709D01*
X575096Y426950D01*
X576437Y426683D01*
X583563D01*
X584904Y426950D01*
X586041Y427709D01*
X586170Y427902D01*
X595455D01*
X596035Y427035D01*
X597854Y425819D01*
X598717Y425647D01*
Y424353D01*
X597854Y424181D01*
X596035Y422965D01*
X595455Y422098D01*
X586170D01*
X586041Y422291D01*
X584904Y423050D01*
X583563Y423317D01*
X576437D01*
X575096Y423050D01*
X573959Y422291D01*
X573200Y421154D01*
X572933Y419813D01*
Y414188D01*
X573200Y412846D01*
X573959Y411709D01*
X575096Y410949D01*
X576437Y410683D01*
X583563D01*
X584904Y410949D01*
X586041Y411709D01*
X586170Y411902D01*
X598000D01*
X599951Y412290D01*
X601605Y413395D01*
X601748Y413538D01*
X604683D01*
X604982Y413339D01*
X606250Y413086D01*
X619250D01*
X620518Y413339D01*
X621593Y414057D01*
X622311Y415132D01*
X622564Y416400D01*
Y420900D01*
X622311Y422168D01*
X621593Y423243D01*
X620518Y423961D01*
X619250Y424214D01*
X606250D01*
X604982Y423961D01*
X604641Y423734D01*
X602815D01*
X602146Y424181D01*
X602054Y424199D01*
X601828Y425539D01*
X602447Y425902D01*
X605668D01*
X606250Y425786D01*
X619250D01*
X620518Y426039D01*
X621593Y426757D01*
X622311Y427832D01*
X622564Y429100D01*
Y433600D01*
X622311Y434868D01*
X621593Y435943D01*
X620518Y436661D01*
X619250Y436914D01*
X606250D01*
X604982Y436661D01*
X604139Y436098D01*
X602270D01*
X602146Y436181D01*
X601662Y436277D01*
X601334Y436605D01*
X599680Y437710D01*
X597729Y438098D01*
X586170D01*
X586041Y438291D01*
X584904Y439050D01*
X583563Y439317D01*
D02*
G37*
G36*
X548200Y436959D02*
X546399Y436722D01*
X544720Y436027D01*
X543279Y434921D01*
X542173Y433480D01*
X541478Y431801D01*
X541241Y430000D01*
X541478Y428199D01*
X542173Y426520D01*
X543279Y425079D01*
X544720Y423973D01*
X546399Y423278D01*
X548200Y423041D01*
X550001Y423278D01*
X551680Y423973D01*
X553121Y425079D01*
X554227Y426520D01*
X554922Y428199D01*
X555159Y430000D01*
X554922Y431801D01*
X554227Y433480D01*
X553121Y434921D01*
X551680Y436027D01*
X550001Y436722D01*
X548200Y436959D01*
D02*
G37*
G36*
X511800D02*
X509999Y436722D01*
X508320Y436027D01*
X506879Y434921D01*
X505773Y433480D01*
X505078Y431801D01*
X504841Y430000D01*
X505078Y428199D01*
X505773Y426520D01*
X506879Y425079D01*
X508320Y423973D01*
X509999Y423278D01*
X511800Y423041D01*
X513601Y423278D01*
X515280Y423973D01*
X516721Y425079D01*
X517827Y426520D01*
X518522Y428199D01*
X518759Y430000D01*
X518522Y431801D01*
X517827Y433480D01*
X516721Y434921D01*
X515280Y436027D01*
X513601Y436722D01*
X511800Y436959D01*
D02*
G37*
G36*
X357067Y425750D02*
X351250D01*
Y420683D01*
X353563D01*
X354904Y420950D01*
X356041Y421709D01*
X356800Y422846D01*
X357067Y424188D01*
Y425750D01*
D02*
G37*
G36*
X348750D02*
X342933D01*
Y424188D01*
X343200Y422846D01*
X343959Y421709D01*
X345096Y420950D01*
X346437Y420683D01*
X348750D01*
Y425750D01*
D02*
G37*
G36*
X327067Y425750D02*
X321250D01*
Y420683D01*
X323563D01*
X324904Y420950D01*
X326041Y421709D01*
X326800Y422846D01*
X327067Y424188D01*
Y425750D01*
D02*
G37*
G36*
X318750D02*
X312933D01*
Y424188D01*
X313200Y422846D01*
X313959Y421709D01*
X315096Y420950D01*
X316437Y420683D01*
X318750D01*
Y425750D01*
D02*
G37*
G36*
X235359Y423750D02*
X231250D01*
Y419641D01*
X232146Y419819D01*
X233965Y421035D01*
X235181Y422854D01*
X235359Y423750D01*
D02*
G37*
G36*
X228750D02*
X224641D01*
X224819Y422854D01*
X226035Y421035D01*
X227854Y419819D01*
X228750Y419641D01*
Y423750D01*
D02*
G37*
G36*
X673750Y424214D02*
X660750D01*
X659482Y423961D01*
X659118Y423718D01*
X655750D01*
X653799Y423330D01*
X652145Y422225D01*
X648395Y418475D01*
X647290Y416821D01*
X646902Y414870D01*
Y400970D01*
X647290Y399019D01*
X648395Y397365D01*
X650776Y394985D01*
X650436Y393528D01*
X649709Y393043D01*
X648950Y391906D01*
X648683Y390564D01*
Y388252D01*
X661317D01*
Y390564D01*
X661253Y390890D01*
X662058Y391872D01*
X663942D01*
X664747Y390890D01*
X664683Y390564D01*
Y383439D01*
X664949Y382098D01*
X665709Y380961D01*
X666846Y380201D01*
X668187Y379935D01*
X673812D01*
X675154Y380201D01*
X676291Y380961D01*
X676863Y381817D01*
X679000Y381392D01*
X681146Y381819D01*
X682965Y383035D01*
X684181Y384854D01*
X684608Y387000D01*
X684181Y389146D01*
X682965Y390965D01*
X681146Y392181D01*
X679000Y392608D01*
X676865Y392183D01*
X676291Y393043D01*
X676093Y393175D01*
Y394062D01*
X675705Y396013D01*
X674600Y397667D01*
X673054Y399213D01*
X673540Y400386D01*
X673750D01*
X675018Y400639D01*
X675412Y400902D01*
X676730D01*
X676854Y400819D01*
X679000Y400392D01*
X681146Y400819D01*
X682965Y402035D01*
X684181Y403854D01*
X684608Y406000D01*
X684181Y408146D01*
X682965Y409965D01*
X681146Y411181D01*
X679000Y411608D01*
X676854Y411181D01*
X676730Y411098D01*
X675263D01*
X675018Y411261D01*
X673750Y411514D01*
X660750D01*
X659482Y411261D01*
X658407Y410543D01*
X658368Y410485D01*
X657098Y410870D01*
Y412758D01*
X657862Y413522D01*
X659207D01*
X659482Y413339D01*
X660750Y413086D01*
X673750D01*
X675018Y413339D01*
X676093Y414057D01*
X676811Y415132D01*
X677064Y416400D01*
Y420900D01*
X676811Y422168D01*
X676093Y423243D01*
X675018Y423961D01*
X673750Y424214D01*
D02*
G37*
G36*
X619250Y411514D02*
X606250D01*
X604982Y411261D01*
X603907Y410543D01*
X603189Y409468D01*
X602936Y408200D01*
Y403700D01*
X603189Y402432D01*
X603907Y401357D01*
X604982Y400639D01*
X606250Y400386D01*
X606531D01*
X607017Y399213D01*
X605395Y397591D01*
X604290Y395937D01*
X603902Y393986D01*
Y393156D01*
X603709Y393027D01*
X603090Y392100D01*
X601204D01*
X600986Y392261D01*
X600284Y393370D01*
X600608Y395000D01*
X600181Y397146D01*
X598965Y398965D01*
X597146Y400181D01*
X595000Y400608D01*
X592854Y400181D01*
X591035Y398965D01*
X589819Y397146D01*
X589392Y395000D01*
X589819Y392854D01*
X589902Y392730D01*
Y389560D01*
X590290Y387609D01*
X591395Y385955D01*
X593953Y383397D01*
X595607Y382292D01*
X597558Y381904D01*
X603069D01*
X603709Y380945D01*
X604846Y380185D01*
X606188Y379919D01*
X611813D01*
X613154Y380185D01*
X614291Y380945D01*
X615051Y382082D01*
X615317Y383424D01*
Y390548D01*
X615301Y390632D01*
X616343Y391902D01*
X617657D01*
X618699Y390632D01*
X618683Y390548D01*
Y388236D01*
X625000D01*
Y386986D01*
D01*
Y388236D01*
X631317D01*
Y390548D01*
X631050Y391890D01*
X630291Y393027D01*
X630136Y393130D01*
X629975Y394765D01*
X631605Y396395D01*
X632710Y398049D01*
X633098Y400000D01*
Y403000D01*
X632710Y404951D01*
X631605Y406605D01*
X628619Y409591D01*
X626965Y410696D01*
X625014Y411084D01*
X620784D01*
X620518Y411261D01*
X619250Y411514D01*
D02*
G37*
G36*
X730750Y391067D02*
X729187D01*
X727846Y390801D01*
X726709Y390041D01*
X726253Y389358D01*
X726250Y389359D01*
Y384000D01*
Y378641D01*
X726253Y378642D01*
X726709Y377959D01*
X727846Y377200D01*
X729187Y376933D01*
X730750D01*
Y384000D01*
Y391067D01*
D02*
G37*
G36*
X641250Y392361D02*
Y388252D01*
X645359D01*
X645181Y389148D01*
X643965Y390967D01*
X642146Y392183D01*
X641250Y392361D01*
D02*
G37*
G36*
X638750D02*
X637854Y392183D01*
X636035Y390967D01*
X634819Y389148D01*
X634641Y388252D01*
X638750D01*
Y392361D01*
D02*
G37*
G36*
X734812Y391067D02*
X733250D01*
Y385250D01*
X738317D01*
Y387562D01*
X738051Y388904D01*
X737291Y390041D01*
X736154Y390801D01*
X734812Y391067D01*
D02*
G37*
G36*
X723750Y389359D02*
X722854Y389181D01*
X721035Y387965D01*
X719819Y386146D01*
X719641Y385250D01*
X723750D01*
Y389359D01*
D02*
G37*
G36*
X645359Y385752D02*
X641250D01*
Y381643D01*
X642146Y381821D01*
X643965Y383037D01*
X645181Y384856D01*
X645359Y385752D01*
D02*
G37*
G36*
X638750D02*
X634641D01*
X634819Y384856D01*
X636035Y383037D01*
X637854Y381821D01*
X638750Y381643D01*
Y385752D01*
D02*
G37*
G36*
X661317D02*
X656250D01*
Y379935D01*
X657812D01*
X659154Y380201D01*
X660291Y380961D01*
X661050Y382098D01*
X661317Y383439D01*
Y385752D01*
D02*
G37*
G36*
X653750D02*
X648683D01*
Y383439D01*
X648950Y382098D01*
X649709Y380961D01*
X650846Y380201D01*
X652188Y379935D01*
X653750D01*
Y385752D01*
D02*
G37*
G36*
X631317Y385736D02*
X626250D01*
Y379919D01*
X627812D01*
X629154Y380185D01*
X630291Y380945D01*
X631050Y382082D01*
X631317Y383424D01*
Y385736D01*
D02*
G37*
G36*
X623750D02*
X618683D01*
Y383424D01*
X618950Y382082D01*
X619709Y380945D01*
X620846Y380185D01*
X622188Y379919D01*
X623750D01*
Y385736D01*
D02*
G37*
G36*
X723750Y382750D02*
X719641D01*
X719819Y381854D01*
X721035Y380035D01*
X722854Y378819D01*
X723750Y378641D01*
Y382750D01*
D02*
G37*
G36*
X738317D02*
X733250D01*
Y376933D01*
X734812D01*
X736154Y377200D01*
X737291Y377959D01*
X738051Y379096D01*
X738317Y380438D01*
Y382750D01*
D02*
G37*
G36*
X286317Y291750D02*
X281250D01*
Y285933D01*
X282812D01*
X284154Y286199D01*
X285291Y286959D01*
X286051Y288096D01*
X286317Y289438D01*
Y291750D01*
D02*
G37*
G36*
X278750D02*
X273683D01*
Y289438D01*
X273950Y288096D01*
X274709Y286959D01*
X275846Y286199D01*
X277188Y285933D01*
X278750D01*
Y291750D01*
D02*
G37*
G36*
X738317Y283200D02*
X725683D01*
Y280888D01*
X725949Y279546D01*
X726709Y278409D01*
X727426Y277931D01*
X727446Y277877D01*
Y276573D01*
X727426Y276519D01*
X726709Y276041D01*
X726253Y275358D01*
X726250Y275359D01*
Y270000D01*
Y264641D01*
X726253Y264642D01*
X726709Y263959D01*
X727846Y263200D01*
X729187Y262933D01*
X730750D01*
Y270000D01*
X732000D01*
Y271250D01*
X738317D01*
Y273563D01*
X738051Y274904D01*
X737291Y276041D01*
X736574Y276519D01*
X736554Y276573D01*
Y277877D01*
X736574Y277931D01*
X737291Y278409D01*
X738051Y279546D01*
X738317Y280888D01*
Y283200D01*
D02*
G37*
G36*
X723750Y275359D02*
X722854Y275181D01*
X721035Y273965D01*
X719819Y272146D01*
X719641Y271250D01*
X723750D01*
Y275359D01*
D02*
G37*
G36*
Y268750D02*
X719641D01*
X719819Y267854D01*
X721035Y266035D01*
X722854Y264819D01*
X723750Y264641D01*
Y268750D01*
D02*
G37*
G36*
X498375Y283941D02*
X494750D01*
Y264110D01*
X502581D01*
Y279735D01*
X502261Y281345D01*
X501349Y282709D01*
X499985Y283621D01*
X498375Y283941D01*
D02*
G37*
G36*
X676175D02*
X672550D01*
Y264110D01*
X680381D01*
Y279735D01*
X680061Y281345D01*
X679149Y282709D01*
X677785Y283621D01*
X676175Y283941D01*
D02*
G37*
G36*
X492250D02*
X488625D01*
X487015Y283621D01*
X485651Y282709D01*
X484739Y281345D01*
X484419Y279735D01*
Y264110D01*
X492250D01*
Y283941D01*
D02*
G37*
G36*
X670050D02*
X666425D01*
X664816Y283621D01*
X663451Y282709D01*
X662539Y281345D01*
X662219Y279735D01*
Y264110D01*
X670050D01*
Y283941D01*
D02*
G37*
G36*
X295175Y283941D02*
X291550D01*
Y264110D01*
X299381D01*
Y279735D01*
X299061Y281345D01*
X298149Y282709D01*
X296784Y283621D01*
X295175Y283941D01*
D02*
G37*
G36*
X289050D02*
X285425D01*
X283815Y283621D01*
X282451Y282709D01*
X281539Y281345D01*
X281219Y279735D01*
Y264110D01*
X289050D01*
Y283941D01*
D02*
G37*
G36*
X738317Y268750D02*
X733250D01*
Y262933D01*
X734812D01*
X736154Y263200D01*
X737291Y263959D01*
X738051Y265096D01*
X738317Y266437D01*
Y268750D01*
D02*
G37*
G36*
X650775Y283941D02*
X641025D01*
X639416Y283621D01*
X638051Y282709D01*
X637139Y281345D01*
X636819Y279735D01*
Y245985D01*
X637139Y244376D01*
X638051Y243011D01*
X639416Y242099D01*
X641025Y241779D01*
X650775D01*
X652384Y242099D01*
X653749Y243011D01*
X654661Y244376D01*
X654981Y245985D01*
Y279735D01*
X654661Y281345D01*
X653749Y282709D01*
X652384Y283621D01*
X650775Y283941D01*
D02*
G37*
G36*
X625375D02*
X615625D01*
X614016Y283621D01*
X612651Y282709D01*
X611739Y281345D01*
X611419Y279735D01*
Y245985D01*
X611739Y244376D01*
X612651Y243011D01*
X614016Y242099D01*
X615625Y241779D01*
X625375D01*
X626984Y242099D01*
X628349Y243011D01*
X629261Y244376D01*
X629581Y245985D01*
Y279735D01*
X629261Y281345D01*
X628349Y282709D01*
X626984Y283621D01*
X625375Y283941D01*
D02*
G37*
G36*
X574575D02*
X564825D01*
X563216Y283621D01*
X561851Y282709D01*
X560939Y281345D01*
X560619Y279735D01*
Y245985D01*
X560939Y244376D01*
X561851Y243011D01*
X563216Y242099D01*
X564825Y241779D01*
X574575D01*
X576185Y242099D01*
X577549Y243011D01*
X578461Y244376D01*
X578781Y245985D01*
Y279735D01*
X578461Y281345D01*
X577549Y282709D01*
X576185Y283621D01*
X574575Y283941D01*
D02*
G37*
G36*
X373000Y308098D02*
X207550D01*
X205599Y307710D01*
X203945Y306605D01*
X185092Y287752D01*
X183987Y286098D01*
X183599Y284147D01*
Y283896D01*
X182215Y283621D01*
X180851Y282709D01*
X179939Y281344D01*
X179619Y279735D01*
Y245985D01*
X179939Y244375D01*
X180851Y243011D01*
X182215Y242099D01*
X183825Y241779D01*
X193575D01*
X195184Y242099D01*
X196549Y243011D01*
X197461Y244375D01*
X197781Y245985D01*
Y279735D01*
X197461Y281344D01*
X196549Y282709D01*
X196134Y282986D01*
X196010Y284250D01*
X209662Y297902D01*
X249325D01*
X249812Y296632D01*
X248819Y295146D01*
X248392Y293000D01*
X248819Y290854D01*
X250035Y289035D01*
X251854Y287819D01*
X254000Y287392D01*
X256146Y287819D01*
X256270Y287902D01*
X258079D01*
X258709Y286959D01*
X259846Y286199D01*
X261187Y285933D01*
X266812D01*
X268154Y286199D01*
X269291Y286959D01*
X270051Y288096D01*
X270317Y289438D01*
Y296562D01*
X270246Y296920D01*
X271052Y297902D01*
X272948D01*
X273754Y296920D01*
X273683Y296562D01*
Y294250D01*
X280000D01*
X286317D01*
Y296562D01*
X286246Y296920D01*
X287052Y297902D01*
X370888D01*
X384560Y284230D01*
X384436Y282966D01*
X384051Y282709D01*
X383139Y281345D01*
X382819Y279735D01*
Y245985D01*
X383139Y244376D01*
X384051Y243011D01*
X385416Y242099D01*
X387025Y241779D01*
X396775D01*
X398385Y242099D01*
X399749Y243011D01*
X400661Y244376D01*
X400981Y245985D01*
Y279735D01*
X400661Y281345D01*
X399749Y282709D01*
X398385Y283621D01*
X396998Y283897D01*
Y284100D01*
X396610Y286051D01*
X395505Y287705D01*
X376605Y306605D01*
X374951Y307710D01*
X373000Y308098D01*
D02*
G37*
G36*
X680381Y261610D02*
X672550D01*
Y241779D01*
X676175D01*
X677785Y242099D01*
X679149Y243011D01*
X680061Y244375D01*
X680381Y245985D01*
Y261610D01*
D02*
G37*
G36*
X670050D02*
X662219D01*
Y245985D01*
X662539Y244375D01*
X663451Y243011D01*
X664816Y242099D01*
X666425Y241779D01*
X670050D01*
Y261610D01*
D02*
G37*
G36*
X599975Y283941D02*
X590225D01*
X588615Y283621D01*
X587251Y282709D01*
X586339Y281345D01*
X586019Y279735D01*
Y245985D01*
X586339Y244375D01*
X587251Y243011D01*
X588615Y242099D01*
X590225Y241779D01*
X599975D01*
X601585Y242099D01*
X602949Y243011D01*
X603861Y244375D01*
X604181Y245985D01*
Y279735D01*
X603861Y281345D01*
X602949Y282709D01*
X601585Y283621D01*
X599975Y283941D01*
D02*
G37*
G36*
X523775D02*
X514025D01*
X512416Y283621D01*
X511051Y282709D01*
X510139Y281345D01*
X509819Y279735D01*
Y245985D01*
X510139Y244375D01*
X511051Y243011D01*
X512416Y242099D01*
X514025Y241779D01*
X523775D01*
X525384Y242099D01*
X526749Y243011D01*
X527661Y244375D01*
X527981Y245985D01*
Y279735D01*
X527661Y281345D01*
X526749Y282709D01*
X525384Y283621D01*
X523775Y283941D01*
D02*
G37*
G36*
X502581Y261610D02*
X494750D01*
Y241779D01*
X498375D01*
X499985Y242099D01*
X501349Y243011D01*
X502261Y244375D01*
X502581Y245985D01*
Y261610D01*
D02*
G37*
G36*
X492250D02*
X484419D01*
Y245985D01*
X484739Y244375D01*
X485651Y243011D01*
X487015Y242099D01*
X488625Y241779D01*
X492250D01*
Y261610D01*
D02*
G37*
G36*
X345975Y283941D02*
X336225D01*
X334616Y283621D01*
X333251Y282709D01*
X332339Y281345D01*
X332019Y279735D01*
Y245985D01*
X332339Y244375D01*
X333251Y243011D01*
X334616Y242099D01*
X336225Y241779D01*
X345975D01*
X347584Y242099D01*
X348949Y243011D01*
X349861Y244375D01*
X350181Y245985D01*
Y279735D01*
X349861Y281345D01*
X348949Y282709D01*
X347584Y283621D01*
X345975Y283941D01*
D02*
G37*
G36*
X549175Y283941D02*
X539425D01*
X537816Y283621D01*
X536451Y282709D01*
X535539Y281345D01*
X535219Y279735D01*
Y245985D01*
X535539Y244375D01*
X536451Y243011D01*
X537816Y242099D01*
X539425Y241779D01*
X549175D01*
X550784Y242099D01*
X552149Y243011D01*
X553061Y244375D01*
X553381Y245985D01*
Y279735D01*
X553061Y281345D01*
X552149Y282709D01*
X550784Y283621D01*
X549175Y283941D01*
D02*
G37*
G36*
X371375D02*
X361625D01*
X360015Y283621D01*
X358651Y282709D01*
X357739Y281345D01*
X357419Y279735D01*
Y245985D01*
X357739Y244375D01*
X358651Y243011D01*
X360015Y242099D01*
X361625Y241779D01*
X371375D01*
X372985Y242099D01*
X374349Y243011D01*
X375261Y244375D01*
X375581Y245985D01*
Y279735D01*
X375261Y281345D01*
X374349Y282709D01*
X372985Y283621D01*
X371375Y283941D01*
D02*
G37*
G36*
X320575D02*
X310825D01*
X309216Y283621D01*
X307851Y282709D01*
X306939Y281345D01*
X306619Y279735D01*
Y245985D01*
X306939Y244375D01*
X307851Y243011D01*
X309216Y242099D01*
X310825Y241779D01*
X320575D01*
X322184Y242099D01*
X323549Y243011D01*
X324461Y244375D01*
X324781Y245985D01*
Y279735D01*
X324461Y281345D01*
X323549Y282709D01*
X322184Y283621D01*
X320575Y283941D01*
D02*
G37*
G36*
X299381Y261610D02*
X291550D01*
Y241779D01*
X295175D01*
X296784Y242099D01*
X298149Y243011D01*
X299061Y244375D01*
X299381Y245985D01*
Y261610D01*
D02*
G37*
G36*
X289050D02*
X281219D01*
Y245985D01*
X281539Y244375D01*
X282451Y243011D01*
X283815Y242099D01*
X285425Y241779D01*
X289050D01*
Y261610D01*
D02*
G37*
G36*
X269775Y283941D02*
X260025D01*
X258416Y283621D01*
X257051Y282709D01*
X256139Y281345D01*
X255819Y279735D01*
Y245985D01*
X256139Y244375D01*
X257051Y243011D01*
X258416Y242099D01*
X260025Y241779D01*
X269775D01*
X271385Y242099D01*
X272749Y243011D01*
X273661Y244375D01*
X273981Y245985D01*
Y279735D01*
X273661Y281345D01*
X272749Y282709D01*
X271385Y283621D01*
X269775Y283941D01*
D02*
G37*
G36*
X244375D02*
X234625D01*
X233016Y283621D01*
X231651Y282709D01*
X230739Y281345D01*
X230419Y279735D01*
Y245985D01*
X230739Y244375D01*
X231651Y243011D01*
X233016Y242099D01*
X234625Y241779D01*
X244375D01*
X245984Y242099D01*
X247349Y243011D01*
X248261Y244375D01*
X248581Y245985D01*
Y279735D01*
X248261Y281345D01*
X247349Y282709D01*
X245984Y283621D01*
X244375Y283941D01*
D02*
G37*
G36*
X218975Y283941D02*
X209225D01*
X207616Y283621D01*
X206251Y282709D01*
X205339Y281344D01*
X205019Y279735D01*
Y245985D01*
X205339Y244375D01*
X206251Y243011D01*
X207616Y242099D01*
X209225Y241779D01*
X218975D01*
X220585Y242099D01*
X221949Y243011D01*
X222861Y244375D01*
X223181Y245985D01*
Y279735D01*
X222861Y281344D01*
X221949Y282709D01*
X220585Y283621D01*
X218975Y283941D01*
D02*
G37*
G36*
X720000Y247565D02*
X718042Y247307D01*
X716218Y246551D01*
X714651Y245349D01*
X713449Y243782D01*
X712693Y241958D01*
X712435Y240000D01*
X712693Y238042D01*
X713449Y236218D01*
X714651Y234651D01*
X716218Y233449D01*
X718042Y232693D01*
X720000Y232435D01*
X721958Y232693D01*
X723782Y233449D01*
X725349Y234651D01*
X726551Y236218D01*
X727307Y238042D01*
X727565Y240000D01*
X727307Y241958D01*
X726551Y243782D01*
X725349Y245349D01*
X723782Y246551D01*
X721958Y247307D01*
X720000Y247565D01*
D02*
G37*
G36*
X599975Y238221D02*
X596350D01*
Y218390D01*
X604181D01*
Y234015D01*
X603861Y235625D01*
X602949Y236989D01*
X601585Y237901D01*
X599975Y238221D01*
D02*
G37*
G36*
X422175D02*
X418550D01*
Y218390D01*
X426381D01*
Y234015D01*
X426061Y235625D01*
X425149Y236989D01*
X423784Y237901D01*
X422175Y238221D01*
D02*
G37*
G36*
X416050D02*
X412425D01*
X410816Y237901D01*
X409451Y236989D01*
X408539Y235625D01*
X408219Y234015D01*
Y218390D01*
X416050D01*
Y238221D01*
D02*
G37*
G36*
X593850D02*
X590225D01*
X588615Y237901D01*
X587251Y236989D01*
X586339Y235625D01*
X586019Y234015D01*
Y218390D01*
X593850D01*
Y238221D01*
D02*
G37*
G36*
X549175Y238221D02*
X545550D01*
Y218390D01*
X553381D01*
Y234015D01*
X553061Y235625D01*
X552149Y236989D01*
X550784Y237901D01*
X549175Y238221D01*
D02*
G37*
G36*
X345975Y238221D02*
X342350D01*
Y218390D01*
X350181D01*
Y234015D01*
X349861Y235625D01*
X348949Y236989D01*
X347584Y237901D01*
X345975Y238221D01*
D02*
G37*
G36*
X339850D02*
X336225D01*
X334616Y237901D01*
X333251Y236989D01*
X332339Y235625D01*
X332019Y234015D01*
Y218390D01*
X339850D01*
Y238221D01*
D02*
G37*
G36*
X244375D02*
X240750D01*
Y218390D01*
X248581D01*
Y234015D01*
X248261Y235625D01*
X247349Y236989D01*
X245984Y237901D01*
X244375Y238221D01*
D02*
G37*
G36*
X238250D02*
X234625D01*
X233016Y237901D01*
X231651Y236989D01*
X230739Y235625D01*
X230419Y234015D01*
Y218390D01*
X238250D01*
Y238221D01*
D02*
G37*
G36*
X543050Y238221D02*
X539425D01*
X537816Y237901D01*
X536451Y236989D01*
X535539Y235625D01*
X535219Y234015D01*
Y218390D01*
X543050D01*
Y238221D01*
D02*
G37*
G36*
X595100Y217140D02*
D01*
D01*
D01*
D02*
G37*
G36*
X371375Y238221D02*
X361625D01*
X360016Y237901D01*
X358651Y236989D01*
X357739Y235625D01*
X357419Y234015D01*
Y200265D01*
X357739Y198656D01*
X358651Y197291D01*
X360016Y196379D01*
X361625Y196059D01*
X371375D01*
X372985Y196379D01*
X374349Y197291D01*
X375261Y198656D01*
X375581Y200265D01*
Y234015D01*
X375261Y235625D01*
X374349Y236989D01*
X372985Y237901D01*
X371375Y238221D01*
D02*
G37*
G36*
X625375Y238221D02*
X615625D01*
X614016Y237901D01*
X612651Y236989D01*
X611739Y235625D01*
X611419Y234015D01*
Y200265D01*
X611739Y198656D01*
X612651Y197291D01*
X614016Y196379D01*
X615625Y196059D01*
X625375D01*
X626984Y196379D01*
X628349Y197291D01*
X629261Y198656D01*
X629581Y200265D01*
Y234015D01*
X629261Y235625D01*
X628349Y236989D01*
X626984Y237901D01*
X625375Y238221D01*
D02*
G37*
G36*
X574575D02*
X564825D01*
X563215Y237901D01*
X561851Y236989D01*
X560939Y235625D01*
X560619Y234015D01*
Y200265D01*
X560939Y198656D01*
X561851Y197291D01*
X563215Y196379D01*
X564825Y196059D01*
X574575D01*
X576185Y196379D01*
X577549Y197291D01*
X578461Y198656D01*
X578781Y200265D01*
Y234015D01*
X578461Y235625D01*
X577549Y236989D01*
X576185Y237901D01*
X574575Y238221D01*
D02*
G37*
G36*
X553381Y215890D02*
X545550D01*
Y196059D01*
X549175D01*
X550784Y196379D01*
X552149Y197291D01*
X553061Y198656D01*
X553381Y200265D01*
Y215890D01*
D02*
G37*
G36*
X543050D02*
X535219D01*
Y200265D01*
X535539Y198656D01*
X536451Y197291D01*
X537816Y196379D01*
X539425Y196059D01*
X543050D01*
Y215890D01*
D02*
G37*
G36*
X320575Y238221D02*
X310825D01*
X309216Y237901D01*
X307851Y236989D01*
X306939Y235625D01*
X306619Y234015D01*
Y200265D01*
X306939Y198656D01*
X307851Y197291D01*
X309216Y196379D01*
X310825Y196059D01*
X320575D01*
X322184Y196379D01*
X323549Y197291D01*
X324461Y198656D01*
X324781Y200265D01*
Y234015D01*
X324461Y235625D01*
X323549Y236989D01*
X322184Y237901D01*
X320575Y238221D01*
D02*
G37*
G36*
X650775Y238221D02*
X641025D01*
X639416Y237901D01*
X638051Y236989D01*
X637139Y235625D01*
X636819Y234015D01*
Y200265D01*
X637139Y198655D01*
X638051Y197291D01*
X639416Y196379D01*
X641025Y196059D01*
X650775D01*
X652384Y196379D01*
X653749Y197291D01*
X654661Y198655D01*
X654981Y200265D01*
Y234015D01*
X654661Y235625D01*
X653749Y236989D01*
X652384Y237901D01*
X650775Y238221D01*
D02*
G37*
G36*
X604181Y215890D02*
X596350D01*
Y196059D01*
X599975D01*
X601585Y196379D01*
X602949Y197291D01*
X603861Y198655D01*
X604181Y200265D01*
Y215890D01*
D02*
G37*
G36*
X593850D02*
X586019D01*
Y200265D01*
X586339Y198655D01*
X587251Y197291D01*
X588615Y196379D01*
X590225Y196059D01*
X593850D01*
Y215890D01*
D02*
G37*
G36*
X523775Y238221D02*
X514025D01*
X512416Y237901D01*
X511051Y236989D01*
X510139Y235625D01*
X509819Y234015D01*
Y200265D01*
X510139Y198655D01*
X511051Y197291D01*
X512416Y196379D01*
X514025Y196059D01*
X523775D01*
X525384Y196379D01*
X526749Y197291D01*
X527661Y198655D01*
X527981Y200265D01*
Y234015D01*
X527661Y235625D01*
X526749Y236989D01*
X525384Y237901D01*
X523775Y238221D01*
D02*
G37*
G36*
X498375D02*
X488625D01*
X487015Y237901D01*
X485651Y236989D01*
X484739Y235625D01*
X484419Y234015D01*
Y200265D01*
X484739Y198655D01*
X485651Y197291D01*
X487015Y196379D01*
X488625Y196059D01*
X498375D01*
X499985Y196379D01*
X501349Y197291D01*
X502261Y198655D01*
X502581Y200265D01*
Y234015D01*
X502261Y235625D01*
X501349Y236989D01*
X499985Y237901D01*
X498375Y238221D01*
D02*
G37*
G36*
X447575D02*
X437825D01*
X436216Y237901D01*
X434851Y236989D01*
X433939Y235625D01*
X433619Y234015D01*
Y200265D01*
X433939Y198655D01*
X434851Y197291D01*
X436216Y196379D01*
X437825Y196059D01*
X447575D01*
X449184Y196379D01*
X450549Y197291D01*
X451461Y198655D01*
X451781Y200265D01*
Y234015D01*
X451461Y235625D01*
X450549Y236989D01*
X449184Y237901D01*
X447575Y238221D01*
D02*
G37*
G36*
X426381Y215890D02*
X418550D01*
Y196059D01*
X422175D01*
X423784Y196379D01*
X425149Y197291D01*
X426061Y198655D01*
X426381Y200265D01*
Y215890D01*
D02*
G37*
G36*
X416050D02*
X408219D01*
Y200265D01*
X408539Y198655D01*
X409451Y197291D01*
X410816Y196379D01*
X412425Y196059D01*
X416050D01*
Y215890D01*
D02*
G37*
G36*
X396775Y238221D02*
X387025D01*
X385415Y237901D01*
X384051Y236989D01*
X383139Y235625D01*
X382819Y234015D01*
Y200265D01*
X383139Y198655D01*
X384051Y197291D01*
X385415Y196379D01*
X387025Y196059D01*
X396775D01*
X398385Y196379D01*
X399749Y197291D01*
X400661Y198655D01*
X400981Y200265D01*
Y234015D01*
X400661Y235625D01*
X399749Y236989D01*
X398385Y237901D01*
X396775Y238221D01*
D02*
G37*
G36*
X295175D02*
X285425D01*
X283815Y237901D01*
X282451Y236989D01*
X281539Y235625D01*
X281219Y234015D01*
Y200265D01*
X281539Y198655D01*
X282451Y197291D01*
X283815Y196379D01*
X285425Y196059D01*
X295175D01*
X296784Y196379D01*
X298149Y197291D01*
X299061Y198655D01*
X299381Y200265D01*
Y234015D01*
X299061Y235625D01*
X298149Y236989D01*
X296784Y237901D01*
X295175Y238221D01*
D02*
G37*
G36*
X269775D02*
X260025D01*
X258416Y237901D01*
X257051Y236989D01*
X256139Y235625D01*
X255819Y234015D01*
Y200265D01*
X256139Y198655D01*
X257051Y197291D01*
X258416Y196379D01*
X260025Y196059D01*
X269775D01*
X271385Y196379D01*
X272749Y197291D01*
X273661Y198655D01*
X273981Y200265D01*
Y234015D01*
X273661Y235625D01*
X272749Y236989D01*
X271385Y237901D01*
X269775Y238221D01*
D02*
G37*
G36*
X350181Y215890D02*
X342350D01*
Y196059D01*
X345975D01*
X347584Y196379D01*
X348949Y197291D01*
X349861Y198655D01*
X350181Y200265D01*
Y215890D01*
D02*
G37*
G36*
X339850D02*
X332019D01*
Y200265D01*
X332339Y198655D01*
X333251Y197291D01*
X334616Y196379D01*
X336225Y196059D01*
X339850D01*
Y215890D01*
D02*
G37*
G36*
X248581D02*
X240750D01*
Y196059D01*
X244375D01*
X245984Y196379D01*
X247349Y197291D01*
X248261Y198655D01*
X248581Y200265D01*
Y215890D01*
D02*
G37*
G36*
X238250D02*
X230419D01*
Y200265D01*
X230739Y198655D01*
X231651Y197291D01*
X233016Y196379D01*
X234625Y196059D01*
X238250D01*
Y215890D01*
D02*
G37*
G36*
X676175Y238221D02*
X666425D01*
X664816Y237901D01*
X663451Y236989D01*
X662539Y235625D01*
X662219Y234015D01*
Y200265D01*
X662539Y198655D01*
X663451Y197291D01*
X664816Y196379D01*
X666425Y196059D01*
X676175D01*
X677785Y196379D01*
X679149Y197291D01*
X680061Y198655D01*
X680381Y200265D01*
Y234015D01*
X680061Y235625D01*
X679149Y236989D01*
X677785Y237901D01*
X676175Y238221D01*
D02*
G37*
G36*
X691250Y195359D02*
Y191250D01*
X695359D01*
X695181Y192146D01*
X693965Y193965D01*
X692146Y195181D01*
X691250Y195359D01*
D02*
G37*
G36*
X688750D02*
X687854Y195181D01*
X686035Y193965D01*
X684819Y192146D01*
X684641Y191250D01*
X688750D01*
Y195359D01*
D02*
G37*
G36*
X218975Y238221D02*
X209225D01*
X207616Y237901D01*
X206251Y236989D01*
X205339Y235625D01*
X205019Y234015D01*
Y200265D01*
X205339Y198656D01*
X206251Y197291D01*
X207616Y196379D01*
X208492Y196205D01*
Y188000D01*
Y182716D01*
X208420Y182608D01*
X207073D01*
X194615Y195065D01*
X194738Y196291D01*
X195184Y196379D01*
X196549Y197291D01*
X197461Y198655D01*
X197781Y200265D01*
Y234015D01*
X197461Y235625D01*
X196549Y236989D01*
X195184Y237901D01*
X193575Y238221D01*
X183825D01*
X182215Y237901D01*
X180851Y236989D01*
X179939Y235625D01*
X179619Y234015D01*
Y200265D01*
X179939Y198655D01*
X180851Y197291D01*
X182215Y196379D01*
X183389Y196146D01*
Y192753D01*
X183816Y190607D01*
X185032Y188788D01*
X200785Y173035D01*
X202604Y171819D01*
X204750Y171392D01*
X208420D01*
X208709Y170959D01*
X209846Y170200D01*
X211187Y169933D01*
X216812D01*
X218154Y170200D01*
X219291Y170959D01*
X220051Y172096D01*
X220317Y173438D01*
Y180562D01*
X220051Y181904D01*
X219708Y182417D01*
Y188000D01*
Y196205D01*
X220584Y196379D01*
X221949Y197291D01*
X222861Y198656D01*
X223181Y200265D01*
Y234015D01*
X222861Y235625D01*
X221949Y236989D01*
X220584Y237901D01*
X218975Y238221D01*
D02*
G37*
G36*
X232812Y184067D02*
X231250D01*
Y178250D01*
X236317D01*
Y180562D01*
X236050Y181904D01*
X235291Y183041D01*
X234154Y183801D01*
X232812Y184067D01*
D02*
G37*
G36*
X228750D02*
X227188D01*
X225846Y183801D01*
X224709Y183041D01*
X223950Y181904D01*
X223683Y180562D01*
Y178250D01*
X228750D01*
Y184067D01*
D02*
G37*
G36*
X236317Y175750D02*
X231250D01*
Y169933D01*
X232812D01*
X234154Y170200D01*
X235291Y170959D01*
X236050Y172096D01*
X236317Y173438D01*
Y175750D01*
D02*
G37*
G36*
X228750D02*
X223683D01*
Y173438D01*
X223950Y172096D01*
X224709Y170959D01*
X225846Y170200D01*
X227188Y169933D01*
X228750D01*
Y175750D01*
D02*
G37*
G36*
Y159317D02*
X226437D01*
X225096Y159051D01*
X223959Y158291D01*
X223200Y157154D01*
X222933Y155813D01*
Y154250D01*
X228750D01*
Y159317D01*
D02*
G37*
G36*
X263563D02*
X261250D01*
Y154250D01*
X267067D01*
Y155813D01*
X266800Y157154D01*
X266041Y158291D01*
X264904Y159051D01*
X263563Y159317D01*
D02*
G37*
G36*
X244250Y158359D02*
Y154250D01*
X248359D01*
X248181Y155146D01*
X246965Y156965D01*
X245146Y158181D01*
X244250Y158359D01*
D02*
G37*
G36*
X258750Y159317D02*
X256437D01*
X255096Y159051D01*
X253959Y158291D01*
X253200Y157154D01*
X252933Y155813D01*
Y154250D01*
X258750D01*
Y159317D01*
D02*
G37*
G36*
X248359Y151750D02*
X244250D01*
Y147641D01*
X245146Y147819D01*
X246965Y149035D01*
X248181Y150854D01*
X248359Y151750D01*
D02*
G37*
G36*
X233563Y159317D02*
X231250D01*
Y153000D01*
Y146683D01*
X233563D01*
X234904Y146950D01*
X236041Y147709D01*
X236800Y148846D01*
X236992Y149807D01*
X238076Y150133D01*
X238309Y150120D01*
X239035Y149035D01*
X240854Y147819D01*
X241750Y147641D01*
Y153000D01*
Y158359D01*
X240854Y158181D01*
X239035Y156965D01*
X238309Y155880D01*
X238076Y155867D01*
X236992Y156193D01*
X236800Y157154D01*
X236041Y158291D01*
X234904Y159051D01*
X233563Y159317D01*
D02*
G37*
G36*
X267067Y151750D02*
X261250D01*
Y146683D01*
X263563D01*
X264904Y146950D01*
X266041Y147709D01*
X266800Y148846D01*
X267067Y150188D01*
Y151750D01*
D02*
G37*
G36*
X258750D02*
X252933D01*
Y150188D01*
X253200Y148846D01*
X253959Y147709D01*
X255096Y146950D01*
X256437Y146683D01*
X258750D01*
Y151750D01*
D02*
G37*
G36*
X228750Y151750D02*
X222933D01*
Y150188D01*
X223200Y148846D01*
X223959Y147709D01*
X225096Y146950D01*
X226437Y146683D01*
X228750D01*
Y151750D01*
D02*
G37*
G36*
X263563Y143317D02*
X256437D01*
X255096Y143050D01*
X253959Y142291D01*
X253146Y142181D01*
X251000Y142608D01*
X248854Y142181D01*
X247035Y140965D01*
X245819Y139146D01*
X245392Y137000D01*
X245819Y134854D01*
X247035Y133035D01*
X248854Y131819D01*
X251000Y131392D01*
X253146Y131819D01*
X253959Y131709D01*
X254902Y131079D01*
Y117463D01*
X253643Y117213D01*
X252291Y116309D01*
X251387Y114957D01*
X251070Y113363D01*
Y87338D01*
X251387Y85743D01*
X252291Y84391D01*
X253643Y83487D01*
X255238Y83170D01*
X264762D01*
X266357Y83487D01*
X267709Y84391D01*
X268613Y85743D01*
X268930Y87338D01*
Y113363D01*
X268613Y114957D01*
X267709Y116309D01*
X266357Y117213D01*
X265098Y117463D01*
Y131079D01*
X266041Y131709D01*
X266800Y132846D01*
X267067Y134187D01*
Y139812D01*
X266800Y141154D01*
X266041Y142291D01*
X264904Y143050D01*
X263563Y143317D01*
D02*
G37*
G36*
X354762Y117530D02*
X351250D01*
Y101600D01*
X358930D01*
Y113363D01*
X358613Y114957D01*
X357709Y116309D01*
X356357Y117213D01*
X354762Y117530D01*
D02*
G37*
G36*
X348750D02*
X345238D01*
X343643Y117213D01*
X342291Y116309D01*
X341387Y114957D01*
X341070Y113363D01*
Y101600D01*
X348750D01*
Y117530D01*
D02*
G37*
G36*
X358930Y99100D02*
X351250D01*
Y83170D01*
X354762D01*
X356357Y83487D01*
X357709Y84391D01*
X358613Y85743D01*
X358930Y87338D01*
Y99100D01*
D02*
G37*
G36*
X348750D02*
X341070D01*
Y87338D01*
X341387Y85743D01*
X342291Y84391D01*
X343643Y83487D01*
X345238Y83170D01*
X348750D01*
Y99100D01*
D02*
G37*
G36*
X320000Y125608D02*
X317854Y125181D01*
X316035Y123965D01*
X314819Y122146D01*
X314392Y120000D01*
X314819Y117854D01*
X313746Y117233D01*
X313643Y117213D01*
X312291Y116309D01*
X311387Y114957D01*
X311070Y113363D01*
Y87338D01*
X311387Y85743D01*
X312291Y84391D01*
X313643Y83487D01*
X315238Y83170D01*
X324762D01*
X326357Y83487D01*
X327709Y84391D01*
X328613Y85743D01*
X328930Y87338D01*
Y113363D01*
X328613Y114957D01*
X327709Y116309D01*
X326357Y117213D01*
X326254Y117233D01*
X325181Y117854D01*
X325608Y120000D01*
X325181Y122146D01*
X323965Y123965D01*
X322146Y125181D01*
X320000Y125608D01*
D02*
G37*
G36*
X290000D02*
X287854Y125181D01*
X286035Y123965D01*
X284819Y122146D01*
X284392Y120000D01*
X284819Y117854D01*
X283746Y117233D01*
X283643Y117213D01*
X282291Y116309D01*
X281387Y114957D01*
X281070Y113363D01*
Y87338D01*
X281387Y85743D01*
X282291Y84391D01*
X283643Y83487D01*
X285238Y83170D01*
X294762D01*
X296357Y83487D01*
X297709Y84391D01*
X298613Y85743D01*
X298930Y87338D01*
Y113363D01*
X298613Y114957D01*
X297709Y116309D01*
X296357Y117213D01*
X296254Y117233D01*
X295181Y117854D01*
X295608Y120000D01*
X295181Y122146D01*
X293965Y123965D01*
X292146Y125181D01*
X290000Y125608D01*
D02*
G37*
G36*
X204000Y152608D02*
X201854Y152181D01*
X200035Y150965D01*
X198819Y149146D01*
X198392Y147000D01*
X198819Y144854D01*
X200035Y143035D01*
X201854Y141819D01*
X202000Y141790D01*
X210395Y133395D01*
X212049Y132290D01*
X214000Y131902D01*
X223830D01*
X223959Y131709D01*
X224902Y131079D01*
Y117463D01*
X223643Y117213D01*
X222291Y116309D01*
X221387Y114957D01*
X221070Y113363D01*
Y87338D01*
X221387Y85743D01*
X222291Y84391D01*
X223643Y83487D01*
X225238Y83170D01*
X234762D01*
X236357Y83487D01*
X237709Y84391D01*
X238613Y85743D01*
X238930Y87338D01*
Y113363D01*
X238613Y114957D01*
X237709Y116309D01*
X236357Y117213D01*
X235098Y117463D01*
Y131079D01*
X236041Y131709D01*
X236800Y132846D01*
X237067Y134187D01*
Y139812D01*
X236800Y141154D01*
X236041Y142291D01*
X234904Y143050D01*
X233563Y143317D01*
X226437D01*
X225096Y143050D01*
X223959Y142291D01*
X223830Y142098D01*
X216112D01*
X209210Y149000D01*
X209181Y149146D01*
X207965Y150965D01*
X206146Y152181D01*
X204000Y152608D01*
D02*
G37*
G36*
X150000Y75160D02*
X148199Y74922D01*
X146520Y74227D01*
X145079Y73121D01*
X143973Y71680D01*
X143278Y70001D01*
X143041Y68200D01*
X143278Y66399D01*
X143973Y64720D01*
X145079Y63279D01*
X146520Y62173D01*
X148199Y61478D01*
X150000Y61241D01*
X151801Y61478D01*
X153480Y62173D01*
X154921Y63279D01*
X156027Y64720D01*
X156722Y66399D01*
X156959Y68200D01*
X156722Y70001D01*
X156027Y71680D01*
X154921Y73121D01*
X153480Y74227D01*
X151801Y74922D01*
X150000Y75160D01*
D02*
G37*
G36*
X435440Y66960D02*
X433639Y66722D01*
X431960Y66027D01*
X430519Y64921D01*
X429413Y63480D01*
X428718Y61801D01*
X428480Y60000D01*
X428718Y58199D01*
X429413Y56520D01*
X430519Y55079D01*
X431960Y53973D01*
X433639Y53278D01*
X435440Y53040D01*
X437241Y53278D01*
X438920Y53973D01*
X440361Y55079D01*
X441467Y56520D01*
X442162Y58199D01*
X442399Y60000D01*
X442162Y61801D01*
X441467Y63480D01*
X440361Y64921D01*
X438920Y66027D01*
X437241Y66722D01*
X435440Y66960D01*
D02*
G37*
G36*
X403937Y56489D02*
X373763D01*
X371982Y56135D01*
X370473Y55127D01*
X369465Y53618D01*
X369111Y51838D01*
Y39462D01*
X369465Y37682D01*
X370473Y36173D01*
X371982Y35165D01*
X373763Y34811D01*
X403937D01*
X405718Y35165D01*
X407227Y36173D01*
X408235Y37682D01*
X408589Y39462D01*
Y51838D01*
X408235Y53618D01*
X407227Y55127D01*
X405718Y56135D01*
X403937Y56489D01*
D02*
G37*
G36*
X206238D02*
X176063D01*
X174282Y56135D01*
X172773Y55127D01*
X171765Y53618D01*
X171411Y51838D01*
Y39462D01*
X171765Y37682D01*
X172773Y36173D01*
X174282Y35165D01*
X176063Y34811D01*
X206238D01*
X208018Y35165D01*
X209527Y36173D01*
X210535Y37682D01*
X210889Y39462D01*
Y51838D01*
X210535Y53618D01*
X209527Y55127D01*
X208018Y56135D01*
X206238Y56489D01*
D02*
G37*
G36*
X937562Y193317D02*
X935250D01*
Y188250D01*
X941067D01*
Y189813D01*
X940800Y191154D01*
X940041Y192291D01*
X938904Y193050D01*
X937562Y193317D01*
D02*
G37*
G36*
X890750D02*
X888438D01*
X887096Y193050D01*
X885959Y192291D01*
X885200Y191154D01*
X884933Y189813D01*
Y188250D01*
X890750D01*
Y193317D01*
D02*
G37*
G36*
X939359Y175750D02*
X935250D01*
Y171641D01*
X936146Y171819D01*
X937965Y173035D01*
X939181Y174854D01*
X939359Y175750D01*
D02*
G37*
G36*
X890750Y175750D02*
X886641D01*
X886819Y174854D01*
X888035Y173035D01*
X889854Y171819D01*
X890750Y171641D01*
Y175750D01*
D02*
G37*
G36*
X839359D02*
X835250D01*
Y171641D01*
X836146Y171819D01*
X837965Y173035D01*
X839181Y174854D01*
X839359Y175750D01*
D02*
G37*
G36*
X832750D02*
X828641D01*
X828819Y174854D01*
X830035Y173035D01*
X831854Y171819D01*
X832750Y171641D01*
Y175750D01*
D02*
G37*
G36*
X782329Y148750D02*
X777262D01*
Y142933D01*
X778824D01*
X780166Y143200D01*
X781303Y143959D01*
X782063Y145096D01*
X782329Y146438D01*
Y148750D01*
D02*
G37*
G36*
X814249Y145360D02*
Y141251D01*
X818358D01*
X818180Y142147D01*
X816964Y143966D01*
X815145Y145182D01*
X814249Y145360D01*
D02*
G37*
G36*
X811749D02*
X810853Y145182D01*
X809034Y143966D01*
X807818Y142147D01*
X807640Y141251D01*
X811749D01*
Y145360D01*
D02*
G37*
G36*
X775375Y139061D02*
X774750D01*
Y134750D01*
X778561D01*
Y135875D01*
X778319Y137094D01*
X777628Y138128D01*
X776594Y138819D01*
X775375Y139061D01*
D02*
G37*
G36*
X811749Y131749D02*
X805932D01*
Y130187D01*
X806199Y128846D01*
X806958Y127708D01*
X808095Y126949D01*
X809437Y126682D01*
X811749D01*
Y131749D01*
D02*
G37*
G36*
X742250Y125359D02*
Y121250D01*
X746359D01*
X746181Y122146D01*
X744965Y123965D01*
X743146Y125181D01*
X742250Y125359D01*
D02*
G37*
G36*
X739750D02*
X738854Y125181D01*
X737035Y123965D01*
X735819Y122146D01*
X735641Y121250D01*
X739750D01*
Y125359D01*
D02*
G37*
G36*
X746359Y118750D02*
X742250D01*
Y114641D01*
X743146Y114819D01*
X744965Y116035D01*
X746181Y117854D01*
X746359Y118750D01*
D02*
G37*
G36*
X739750D02*
X735641D01*
X735819Y117854D01*
X737035Y116035D01*
X738854Y114819D01*
X739750Y114641D01*
Y118750D01*
D02*
G37*
G36*
X778824Y97067D02*
X777262D01*
Y91250D01*
X782329D01*
Y93562D01*
X782063Y94904D01*
X781303Y96041D01*
X780166Y96800D01*
X778824Y97067D01*
D02*
G37*
G36*
X782329Y88750D02*
X777262D01*
Y82933D01*
X778824D01*
X780166Y83200D01*
X781303Y83959D01*
X782063Y85096D01*
X782329Y86438D01*
Y88750D01*
D02*
G37*
G36*
X915440Y66960D02*
X913639Y66722D01*
X911960Y66027D01*
X910519Y64921D01*
X909413Y63480D01*
X908718Y61801D01*
X908481Y60000D01*
X908718Y58199D01*
X909413Y56520D01*
X910519Y55079D01*
X911960Y53973D01*
X913639Y53278D01*
X915440Y53040D01*
X917241Y53278D01*
X918920Y53973D01*
X920361Y55079D01*
X921467Y56520D01*
X922162Y58199D01*
X922400Y60000D01*
X922162Y61801D01*
X921467Y63480D01*
X920361Y64921D01*
X918920Y66027D01*
X917241Y66722D01*
X915440Y66960D01*
D02*
G37*
G36*
X788500Y51731D02*
Y45500D01*
X794731D01*
X794635Y46229D01*
X793871Y48073D01*
X792656Y49656D01*
X791073Y50871D01*
X789229Y51635D01*
X788500Y51731D01*
D02*
G37*
G36*
X737500D02*
X736771Y51635D01*
X734927Y50871D01*
X733344Y49656D01*
X732129Y48073D01*
X731365Y46229D01*
X731269Y45500D01*
X737500D01*
Y51731D01*
D02*
G37*
G36*
X530000Y60086D02*
X527389Y59743D01*
X524957Y58735D01*
X522868Y57132D01*
X521265Y55043D01*
X520257Y52611D01*
X519914Y50000D01*
X520257Y47389D01*
X521265Y44957D01*
X522868Y42868D01*
X524957Y41265D01*
X527389Y40257D01*
X530000Y39914D01*
X532611Y40257D01*
X535043Y41265D01*
X537132Y42868D01*
X538735Y44957D01*
X539743Y47389D01*
X540086Y50000D01*
X539743Y52611D01*
X538735Y55043D01*
X537132Y57132D01*
X535043Y58735D01*
X532611Y59743D01*
X530000Y60086D01*
D02*
G37*
G36*
X794731Y43000D02*
X788500D01*
Y36769D01*
X789229Y36865D01*
X791073Y37629D01*
X792656Y38844D01*
X793871Y40427D01*
X794635Y42271D01*
X794731Y43000D01*
D02*
G37*
G36*
X737500D02*
X731269D01*
X731365Y42271D01*
X732129Y40427D01*
X733344Y38844D01*
X734927Y37629D01*
X736771Y36865D01*
X737500Y36769D01*
Y43000D01*
D02*
G37*
G36*
X740000Y51731D02*
Y44250D01*
Y36769D01*
X740729Y36865D01*
X742573Y37629D01*
X744156Y38844D01*
X744171Y38864D01*
X745441Y38433D01*
Y34750D01*
X745674Y33579D01*
X746337Y32587D01*
X747329Y31924D01*
X748500Y31691D01*
X748750D01*
Y41000D01*
Y50309D01*
X748500D01*
X747329Y50076D01*
X746337Y49413D01*
X746154Y49139D01*
X744607Y49069D01*
X744156Y49656D01*
X742573Y50871D01*
X740729Y51635D01*
X740000Y51731D01*
D02*
G37*
G36*
X811750Y193317D02*
X809437D01*
X808096Y193050D01*
X806959Y192291D01*
X806764Y191998D01*
X805236D01*
X805041Y192291D01*
X803904Y193050D01*
X802562Y193317D01*
X800250D01*
Y187000D01*
X799000D01*
Y185750D01*
X791933D01*
Y184188D01*
X792199Y182846D01*
X792959Y181709D01*
X793682Y181226D01*
X794210Y179731D01*
X793819Y179146D01*
X793641Y178250D01*
X804359D01*
X804181Y179146D01*
X803790Y179731D01*
X804318Y181226D01*
X805041Y181709D01*
X805236Y182002D01*
X806764D01*
X806959Y181709D01*
X808096Y180949D01*
X809437Y180683D01*
X811750D01*
Y187000D01*
Y193317D01*
D02*
G37*
G36*
X816562D02*
X814250D01*
Y188250D01*
X820067D01*
Y189813D01*
X819800Y191154D01*
X819041Y192291D01*
X817904Y193050D01*
X816562Y193317D01*
D02*
G37*
G36*
X797750D02*
X795437D01*
X794096Y193050D01*
X792959Y192291D01*
X792199Y191154D01*
X791933Y189813D01*
Y188250D01*
X797750D01*
Y193317D01*
D02*
G37*
G36*
X804359Y175750D02*
X800250D01*
Y171641D01*
X801146Y171819D01*
X802965Y173035D01*
X804181Y174854D01*
X804359Y175750D01*
D02*
G37*
G36*
X797750D02*
X793641D01*
X793819Y174854D01*
X795035Y173035D01*
X796854Y171819D01*
X797750Y171641D01*
Y175750D01*
D02*
G37*
%LPD*%
D12*
X50000Y0D02*
X1010000D01*
X1060000Y50000D01*
Y530000D01*
X1010000Y580000D02*
X1060000Y530000D01*
X50000Y580000D02*
X1010000D01*
X0Y50000D02*
Y530000D01*
Y50000D02*
X50000Y0D01*
X0Y530000D02*
X50000Y580000D01*
X720500Y-250D02*
X725500D01*
X800500D02*
X805750D01*
D14*
X993630Y26560D02*
D03*
X1041820Y77580D02*
D03*
X987930Y75960D02*
D03*
X1033440Y513630D02*
D03*
X982420Y561820D02*
D03*
X984040Y507930D02*
D03*
X546370Y553440D02*
D03*
X498180Y502420D02*
D03*
X552070Y504040D02*
D03*
X513630Y26560D02*
D03*
X561820Y77580D02*
D03*
X507930Y75960D02*
D03*
X66370Y553440D02*
D03*
X18180Y502420D02*
D03*
X72070Y504040D02*
D03*
X26560Y66370D02*
D03*
X77580Y18180D02*
D03*
X75960Y72070D02*
D03*
D16*
X1010000Y50000D02*
D03*
Y530000D02*
D03*
X530000D02*
D03*
Y50000D02*
D03*
X50000Y530000D02*
D03*
Y50000D02*
D03*
D17*
X857550Y494600D02*
D03*
Y545400D02*
D03*
X775000D02*
D03*
Y494600D02*
D03*
D18*
X876600Y509850D02*
D03*
Y530150D02*
D03*
X775000Y520000D02*
D03*
D19*
X1000000Y360000D02*
D03*
X1019955Y375000D02*
D03*
X1020000Y345000D02*
D03*
Y330000D02*
D03*
Y360000D02*
D03*
X1000000Y375000D02*
D03*
Y345000D02*
D03*
Y330000D02*
D03*
X740000Y535029D02*
D03*
D20*
X696390Y134390D02*
X724000D01*
X685000Y123000D02*
X696390Y134390D01*
X724000Y107000D02*
X741000Y90000D01*
X724000Y107000D02*
Y134390D01*
X724000Y134390D01*
X696000Y115000D02*
X702000D01*
X752000Y65000D01*
X214100Y177000D02*
Y188000D01*
Y218140D01*
X645000Y115000D02*
X674000D01*
X685000D02*
Y123000D01*
X630000Y115000D02*
X645000D01*
X685000Y140000D02*
Y150000D01*
X696000Y150000D02*
X755012D01*
X645000Y149999D02*
X674000D01*
X630000D02*
X645000D01*
X752000Y65000D02*
X768012D01*
X776000Y57012D01*
X204750Y177000D02*
X214000D01*
X188997Y192753D02*
X204750Y177000D01*
X188997Y192753D02*
Y216843D01*
X214000Y177000D02*
X214100D01*
X741000Y90000D02*
X756012D01*
X834000Y177000D02*
X892000D01*
X756012Y90000D02*
X760012D01*
X188700Y217140D02*
X188997Y216843D01*
D21*
X741012Y105000D02*
Y120000D01*
X655786Y431336D02*
X667612D01*
X625000Y387002D02*
X640000D01*
X290000Y263160D02*
X299040D01*
X670995Y387002D02*
Y394062D01*
X764000Y90000D02*
Y106500D01*
X655750Y418620D02*
X667612D01*
X741012Y105000D02*
X749378Y113366D01*
X911000Y453000D02*
Y461000D01*
X841000Y117000D02*
X869000D01*
X725000Y270000D02*
X732000D01*
X725000Y384000D02*
X732000D01*
X764000Y133500D02*
Y150000D01*
X290000Y461000D02*
Y479650D01*
X787012Y135024D02*
Y145988D01*
X783000Y150000D02*
X787012Y145988D01*
X776012Y150000D02*
X783000D01*
X600000Y418636D02*
X613112D01*
X612776Y431000D02*
X613112Y431336D01*
X600000Y431000D02*
X612776D01*
X580251Y432749D02*
X580502Y433000D01*
X883000Y117000D02*
X897000D01*
X214000Y137000D02*
X230000D01*
X204000Y147000D02*
X214000Y137000D01*
X869000Y117000D02*
X883000D01*
X493500Y262860D02*
X493800Y263160D01*
X188697Y262863D02*
X188700Y262860D01*
X373000Y303000D02*
X391900Y284100D01*
X502840Y263160D02*
X506000Y260000D01*
X264000Y303000D02*
X373000D01*
X302200Y190100D02*
Y260000D01*
X506000Y190000D02*
Y260000D01*
X299040Y263160D02*
X302200Y260000D01*
X188697Y262863D02*
Y284147D01*
X391900Y262860D02*
Y284100D01*
X188697Y284147D02*
X207550Y303000D01*
X493800Y263160D02*
X502840D01*
X207550Y303000D02*
X264000D01*
X870000Y108000D02*
Y116000D01*
X869000Y117000D02*
X870000Y116000D01*
X787012Y45250D02*
Y90000D01*
X320000Y100350D02*
Y120000D01*
X251000Y137000D02*
X260000D01*
X361809Y435191D02*
Y439191D01*
X358000Y443000D02*
X361809Y439191D01*
X350000Y443000D02*
X358000D01*
X756012Y90000D02*
X756012Y90000D01*
X754500Y91512D02*
X756012Y90000D01*
X787250Y14250D02*
X799000D01*
X787250D02*
Y44250D01*
X727000Y14250D02*
X738750D01*
Y44250D01*
Y14250D02*
X750000D01*
X787250D01*
X740000Y552029D02*
Y562000D01*
Y552029D02*
X740000Y552029D01*
X748000Y384000D02*
X755000D01*
X580000Y417000D02*
X598000D01*
X600000Y419000D01*
X580000Y417000D02*
X580000Y417000D01*
X599729Y431000D02*
X600000D01*
X597729Y433000D02*
X599729Y431000D01*
X580502Y433000D02*
X597729D01*
X580000D02*
X580251Y432749D01*
X289919Y291000D02*
Y293000D01*
Y291000D02*
X290000Y290919D01*
Y263160D02*
Y290919D01*
X361809Y435191D02*
X362000Y435000D01*
X799000Y177000D02*
Y187000D01*
X312000Y443000D02*
X320000D01*
X597558Y387002D02*
X608984D01*
X595000Y389560D02*
X597558Y387002D01*
X595000Y389560D02*
Y395000D01*
X934000Y177000D02*
Y187000D01*
X741000Y120000D02*
Y135000D01*
X778622Y113366D02*
X786988Y105000D01*
X764000Y120000D02*
X786988D01*
X787000D01*
X741012D02*
X764000D01*
X741000Y135000D02*
X749366Y126634D01*
X786988Y105000D02*
Y120000D01*
X755012Y150000D02*
X756012Y151000D01*
X754500Y149488D02*
X755012Y150000D01*
X760012D01*
X760012Y150000D01*
X671002Y387000D02*
X679000D01*
X671000Y387002D02*
X671002Y387000D01*
X786988Y135000D02*
X787012Y135024D01*
X786988Y105000D02*
X787012Y104976D01*
Y90000D02*
Y104976D01*
X778622Y126634D02*
X786988Y135000D01*
Y120000D02*
Y135000D01*
X667676Y406000D02*
X679000D01*
X667637Y405961D02*
X667676Y406000D01*
X667876Y444000D02*
X679000D01*
X667762Y443886D02*
X667876Y444000D01*
X812999Y132999D02*
Y140001D01*
X925000Y430000D02*
Y437000D01*
X911000Y453000D02*
X925000D01*
X911000Y437000D02*
X925000D01*
X892000Y177000D02*
X892000Y187000D01*
X892000Y187000D01*
X834000Y177000D02*
X834000Y187000D01*
X934000Y203000D02*
Y210000D01*
X813000Y203000D02*
Y210000D01*
X748000Y270000D02*
X755000D01*
X748000D02*
Y284450D01*
X732000Y270000D02*
Y284450D01*
X260000Y452000D02*
Y479650D01*
X290000Y100350D02*
Y120000D01*
X320000Y443000D02*
Y479650D01*
X260000Y100350D02*
Y137000D01*
X350000Y443000D02*
Y479650D01*
X230000Y100350D02*
Y137000D01*
X625014Y405986D02*
X628000Y403000D01*
X612786Y405986D02*
X625014D01*
X628000Y400000D02*
Y403000D01*
X625000Y397000D02*
X628000Y400000D01*
X612014Y397000D02*
X625000D01*
X609000Y393986D02*
X612014Y397000D01*
X609000Y386986D02*
Y393986D01*
X609000Y386986D02*
X609000Y386986D01*
X612750Y405950D02*
X612786Y405986D01*
X608984Y387002D02*
X609000Y386986D01*
X773500Y129000D02*
Y133500D01*
X754500Y91512D02*
Y106500D01*
Y133500D02*
Y149488D01*
X776012Y90000D02*
X787012D01*
X640000Y387002D02*
Y415550D01*
X655786Y431336D01*
X652000Y400970D02*
Y414870D01*
Y400970D02*
X656000Y396970D01*
X668087D01*
X652000Y414870D02*
X655750Y418620D01*
X640000Y387002D02*
X655000D01*
X668087Y396970D02*
X670995Y394062D01*
X280000Y293000D02*
X289919D01*
X264000D02*
Y303000D01*
X254000Y293000D02*
X264000D01*
D22*
X232000Y427000D02*
X329125D01*
X230000Y153000D02*
X260000D01*
X230000Y425000D02*
X232000Y427000D01*
X329125D02*
X329125Y427000D01*
X230000Y425000D02*
Y479650D01*
X240000Y177000D02*
Y190100D01*
X230000Y177000D02*
X240000D01*
Y190100D02*
X302200D01*
X671300Y262860D02*
X682140D01*
X595100Y190000D02*
X690000D01*
Y255000D01*
X417300Y190000D02*
X506000D01*
X595100D02*
Y217140D01*
X341100Y190100D02*
Y217140D01*
Y190100D02*
X417300D01*
X682140Y262860D02*
X690000Y255000D01*
X544300Y190000D02*
Y217140D01*
X240000Y190100D02*
Y216640D01*
X302200Y190100D02*
X341100D01*
X417300D02*
Y217140D01*
X544300Y190000D02*
X595100D01*
X506000D02*
X544300D01*
X350000Y100350D02*
Y119000D01*
X316000Y153000D02*
X350000Y119000D01*
X260000Y153000D02*
X316000D01*
X243000Y153000D02*
X260000D01*
X260000Y153000D01*
X329125Y427000D02*
X350000D01*
D23*
X991711Y375000D02*
X1000000D01*
X961000Y340000D02*
X989000Y368000D01*
Y372289D02*
X991711Y375000D01*
X989000Y368000D02*
Y372289D01*
X995000Y367000D02*
X1011955D01*
X963000Y335000D02*
X995000Y367000D01*
X940500Y335000D02*
X963000D01*
X940500Y340000D02*
X961000D01*
X1011955Y367000D02*
X1019955Y375000D01*
X1012000Y352000D02*
X1020000Y360000D01*
X995000Y352000D02*
X1012000D01*
X968000Y325000D02*
X995000Y352000D01*
X1012247Y322247D02*
X1020000Y330000D01*
X994247Y322247D02*
X1012247D01*
X977000Y305000D02*
X994247Y322247D01*
X1012000Y337000D02*
X1020000Y345000D01*
X994250Y337000D02*
X1012000D01*
X972250Y315000D02*
X994250Y337000D01*
X940500Y315000D02*
X972250D01*
X995000Y330000D02*
X1000000D01*
X975000Y310000D02*
X995000Y330000D01*
X940500Y310000D02*
X975000D01*
X969253Y320000D02*
X993201Y343948D01*
X998948D01*
X1000000Y345000D01*
X940500Y320000D02*
X969253D01*
X940500Y325000D02*
X968000D01*
X995000Y360040D02*
X999960D01*
X1000000Y360000D01*
X964960Y330000D02*
X995000Y360040D01*
X940500Y330000D02*
X964960D01*
X998512Y360000D02*
X1000000D01*
X985000Y371000D02*
Y443000D01*
X964000Y350000D02*
X985000Y371000D01*
X940500Y350000D02*
X964000D01*
X980000Y373000D02*
Y465000D01*
X962000Y355000D02*
X980000Y373000D01*
X940500Y355000D02*
X962000D01*
X940500Y305000D02*
X977000D01*
X790000Y448000D02*
X813000D01*
X740000Y498000D02*
X790000Y448000D01*
X740000Y498000D02*
Y518029D01*
X848000Y412000D02*
Y418000D01*
X818000Y448000D02*
X848000Y418000D01*
X813000Y448000D02*
X818000D01*
X735000Y375000D02*
X789500D01*
X732000Y378000D02*
X735000Y375000D01*
X732000Y378000D02*
Y384000D01*
X787700Y508300D02*
Y513650D01*
Y508300D02*
X890000Y406000D01*
X159000Y370000D02*
X789500D01*
X115000Y414000D02*
X159000Y370000D01*
X115000Y414000D02*
Y569000D01*
X157000Y365000D02*
X789500D01*
X109000Y413000D02*
X157000Y365000D01*
X109000Y413000D02*
Y495000D01*
X702182Y360040D02*
X789500D01*
X155000Y360000D02*
X702142D01*
X103000Y412000D02*
X155000Y360000D01*
X103000Y412000D02*
Y569000D01*
X153000Y355000D02*
X789500D01*
X97670Y410330D02*
X153000Y355000D01*
X97670Y410330D02*
Y429330D01*
X151000Y350000D02*
X789500D01*
X91000Y410000D02*
X151000Y350000D01*
X91000Y410000D02*
Y485000D01*
X149000Y345000D02*
X733000D01*
X85000Y409000D02*
X149000Y345000D01*
X85000Y409000D02*
Y473000D01*
X159000Y315000D02*
X789500D01*
X130000Y286000D02*
X159000Y315000D01*
X130000Y118000D02*
Y286000D01*
X157000Y320000D02*
X789500D01*
X125000Y288000D02*
X157000Y320000D01*
X125000Y120000D02*
Y288000D01*
X155000Y325000D02*
X789500D01*
X120000Y290000D02*
X155000Y325000D01*
X120000Y123000D02*
Y290000D01*
X153000Y330000D02*
X789500D01*
X115000Y292000D02*
X153000Y330000D01*
X115000Y127000D02*
Y292000D01*
X151000Y335000D02*
X789500D01*
X110000Y294000D02*
X151000Y335000D01*
X110000Y131000D02*
Y294000D01*
X149000Y340000D02*
X789500D01*
X105000Y296000D02*
X149000Y340000D01*
X105000Y137700D02*
Y296000D01*
X99300Y132000D02*
X105000Y137700D01*
X83000Y104000D02*
X110000Y131000D01*
X86000Y98000D02*
X115000Y127000D01*
X113000Y116000D02*
X120000Y123000D01*
X93000Y88000D02*
X125000Y120000D01*
X103000Y91000D02*
X130000Y118000D01*
X103000Y19581D02*
Y91000D01*
X24000Y98000D02*
X86000D01*
X900000Y171063D02*
Y209938D01*
X891376Y218563D02*
X900000Y209938D01*
X882438Y218563D02*
X891376D01*
X875000Y226000D02*
X882438Y218563D01*
X875000Y226000D02*
Y244500D01*
X865000Y224000D02*
Y244500D01*
X856000Y215000D02*
X865000Y224000D01*
X856000Y203000D02*
Y215000D01*
X775617Y257617D02*
X778000Y260000D01*
X775617Y221617D02*
Y257617D01*
X737000Y183000D02*
X775617Y221617D01*
X778000Y260000D02*
X789500D01*
X626001Y165001D02*
X747001D01*
X622000Y170000D02*
X745000D01*
X510000Y175000D02*
X743000D01*
X507001Y179000D02*
X740000D01*
X504000Y183000D02*
X737000D01*
X97000Y430000D02*
X97670Y429330D01*
X789500Y355000D02*
X789500Y355000D01*
X736000Y440000D02*
X814440D01*
X686000Y490000D02*
X736000Y440000D01*
X605000Y490000D02*
X686000D01*
X733560Y435440D02*
X811560D01*
X684000Y485000D02*
X733560Y435440D01*
X601000Y485000D02*
X684000D01*
X732000Y430000D02*
X810000D01*
X682000Y480000D02*
X732000Y430000D01*
X597350Y480000D02*
X682000D01*
X730000Y425000D02*
X808000D01*
X680000Y475000D02*
X730000Y425000D01*
X591000Y475000D02*
X680000D01*
X728000Y420000D02*
X806000D01*
X678000Y470000D02*
X728000Y420000D01*
X582000Y470000D02*
X678000D01*
X726000Y415000D02*
X804000D01*
X676000Y465000D02*
X726000Y415000D01*
X580000Y465000D02*
X676000D01*
X724000Y410000D02*
X801966D01*
X679650Y454350D02*
X724000Y410000D01*
X632650Y454350D02*
X679650D01*
X290000Y263160D02*
X290300Y262860D01*
X800400Y502600D02*
Y513650D01*
Y502600D02*
X895000Y408000D01*
Y501000D02*
Y536000D01*
Y501000D02*
Y501000D01*
X869000Y133000D02*
X869500Y133500D01*
X868971Y562029D02*
X895000Y536000D01*
Y501000D02*
X955000Y441000D01*
X118000Y572000D02*
X141000D01*
X115000Y569000D02*
X118000Y572000D01*
X100000D02*
X103000Y569000D01*
X83000Y572000D02*
X100000D01*
X88000Y488000D02*
X91000Y485000D01*
X83000Y475000D02*
X85000Y473000D01*
X21580Y475000D02*
X83000D01*
X835000Y222000D02*
Y244500D01*
X826000Y213000D02*
X835000Y222000D01*
X826000Y183000D02*
Y213000D01*
X830000Y224000D02*
Y244500D01*
X821000Y215000D02*
X830000Y224000D01*
X821000Y188750D02*
Y215000D01*
X791000Y230000D02*
X801000D01*
X740000Y179000D02*
X791000Y230000D01*
X793000Y225000D02*
X803000D01*
X743000Y175000D02*
X793000Y225000D01*
X795000Y220000D02*
X805000D01*
X745000Y170000D02*
X795000Y220000D01*
X797000Y215000D02*
X807000D01*
X747001Y165001D02*
X797000Y215000D01*
X589560Y137560D02*
X622000Y170000D01*
X564000Y103000D02*
X626001Y165001D01*
X803035Y160035D02*
X826000Y183000D01*
X629035Y160035D02*
X803035D01*
X571000Y102000D02*
X629035Y160035D01*
X925000Y285000D02*
X930000Y290000D01*
X925000Y270000D02*
Y285000D01*
Y270000D02*
X930000Y265000D01*
X930000Y290000D02*
X940500D01*
X930000Y265000D02*
X940500D01*
X1051950Y439050D02*
Y444050D01*
Y439050D02*
X1052000Y439000D01*
X1046000Y450000D02*
X1051950Y444050D01*
X992000Y450000D02*
X1046000D01*
X985000Y443000D02*
X992000Y450000D01*
X973000Y113000D02*
Y166000D01*
Y113000D02*
X981000Y105000D01*
X973000Y166000D02*
X985066Y178066D01*
Y273243D01*
X967000Y97000D02*
Y167000D01*
Y97000D02*
X972000Y92000D01*
X967000Y167000D02*
X980000Y180000D01*
X961000Y150000D02*
Y167987D01*
X975000Y181987D01*
X1038420Y105000D02*
X1051000Y92420D01*
X981000Y105000D02*
X1038420D01*
X955000Y450299D02*
X960000Y445299D01*
X961000Y486000D02*
X967000Y492000D01*
X961000Y452000D02*
Y486000D01*
Y452000D02*
X965000Y448000D01*
X967000Y452000D02*
Y480000D01*
Y452000D02*
X970000Y449000D01*
X850029Y562029D02*
X868971D01*
X841000Y553000D02*
X850029Y562029D01*
X841000Y536550D02*
Y553000D01*
Y536550D02*
X851200Y526350D01*
X825725Y513725D02*
X825800Y513650D01*
Y526350D02*
Y540000D01*
X813000Y526450D02*
Y540000D01*
Y526450D02*
X813100Y526350D01*
X813000Y500000D02*
Y512000D01*
X813100Y512100D01*
X895000Y395500D02*
Y408000D01*
X890000Y395500D02*
Y406000D01*
X814440Y440000D02*
X835000Y419440D01*
Y397000D02*
Y419440D01*
X830000Y395500D02*
Y417000D01*
X811560Y435440D02*
X830000Y417000D01*
X810000Y430000D02*
X825000Y415000D01*
X808000Y425000D02*
X820000Y413000D01*
X806000Y420000D02*
X815000Y411000D01*
X825000Y395500D02*
Y415000D01*
X820000Y395500D02*
Y413000D01*
X815000Y395500D02*
Y411000D01*
X810000Y395500D02*
Y409000D01*
X804000Y415000D02*
X810000Y409000D01*
X801966Y410000D02*
X805000Y406966D01*
Y395500D02*
Y406966D01*
X951000Y265000D02*
X954931Y261069D01*
X940500Y265000D02*
X951000D01*
X900000Y244500D02*
Y255860D01*
X904140Y260000D01*
X570000Y475000D02*
X580000Y465000D01*
X501581Y475000D02*
X570000D01*
X568000Y484000D02*
X582000Y470000D01*
X568000Y484000D02*
Y488000D01*
X893938Y165001D02*
X900000Y171063D01*
X851000Y165001D02*
X893938D01*
X757617Y261617D02*
X761000Y265000D01*
X734383Y261617D02*
X757617D01*
X732000Y264000D02*
X734383Y261617D01*
X732000Y264000D02*
Y270000D01*
X761000Y265000D02*
X789500D01*
X885000Y430000D02*
X885618Y429382D01*
X891750D01*
X905000Y416132D01*
Y395500D02*
Y416132D01*
X463000Y142000D02*
X504000Y183000D01*
X463000Y11000D02*
Y142000D01*
X469000Y140999D02*
X507001Y179000D01*
X469000Y85000D02*
Y140999D01*
X475000Y140000D02*
X510000Y175000D01*
X475000Y11000D02*
Y140000D01*
X900000Y395500D02*
Y413000D01*
X893000Y420000D02*
X900000Y413000D01*
X578000Y488000D02*
X591000Y475000D01*
X585000Y492350D02*
X597350Y480000D01*
X591000Y495000D02*
X601000Y485000D01*
X597000Y498000D02*
X605000Y490000D01*
X597000Y498000D02*
Y569000D01*
X600000Y572000D01*
X621000D01*
X585000Y492350D02*
Y569000D01*
X827000Y117000D02*
X827000Y117000D01*
X813000Y117000D02*
X827000D01*
X812999Y116999D02*
X813000Y117000D01*
X827000Y133000D02*
Y141001D01*
X925000Y430000D02*
X925000Y430000D01*
X925000Y395500D02*
Y430000D01*
X910000Y395500D02*
Y418000D01*
X904000Y453000D02*
X911000D01*
X902000Y451000D02*
X904000Y453000D01*
X902000Y432250D02*
Y451000D01*
Y432250D02*
X920000Y414250D01*
Y395500D02*
Y414250D01*
X955000Y383000D02*
Y441000D01*
X934000Y210000D02*
Y251000D01*
X813000Y210000D02*
Y214000D01*
X755000Y270000D02*
X789500D01*
X755000Y384000D02*
X762466D01*
X934000Y187000D02*
X941000D01*
X954931Y200931D01*
X869500Y140500D02*
X879000Y150000D01*
X869500Y133500D02*
Y140500D01*
X870499Y155500D02*
X898500D01*
X855000Y140001D02*
X870499Y155500D01*
X855000Y133000D02*
Y140001D01*
X860499Y159500D02*
X895500D01*
X841000Y140001D02*
X860499Y159500D01*
X841000Y133000D02*
Y140001D01*
X827000Y141001D02*
X851000Y165001D01*
X766466Y380000D02*
X789500D01*
X762466Y384000D02*
X766466Y380000D01*
X753000Y295000D02*
X773000Y275000D01*
X487500Y295000D02*
X753000Y295000D01*
X478500Y286000D02*
X487500Y295000D01*
X755000Y300000D02*
X775000Y280000D01*
X483650Y300000D02*
X755000Y300000D01*
X468100Y284450D02*
X483650Y300000D01*
X756000Y305000D02*
X776000Y285000D01*
X462700Y305000D02*
X756000Y305000D01*
X442700Y285000D02*
X462700Y305000D01*
X758000Y310000D02*
X778000Y290000D01*
X442550Y310000D02*
X758000Y310000D01*
X417300Y284750D02*
X442550Y310000D01*
X848000Y225000D02*
X853250D01*
X834000Y211000D02*
X848000Y225000D01*
X834000Y203000D02*
Y211000D01*
X813000Y214000D02*
X825000Y226000D01*
X819250Y187000D02*
X821000Y188750D01*
X813000Y187000D02*
X819250D01*
X853250Y225000D02*
X860000Y231750D01*
Y244500D01*
X799000Y187000D02*
X813000D01*
X834000Y187000D02*
X848000D01*
X799000Y203000D02*
X813000D01*
X825000Y226000D02*
Y244500D01*
X820000Y228000D02*
Y244500D01*
X807000Y215000D02*
X820000Y228000D01*
X815000Y230000D02*
Y244500D01*
X805000Y220000D02*
X815000Y230000D01*
X810000Y232000D02*
Y244500D01*
X803000Y225000D02*
X810000Y232000D01*
X805000Y234000D02*
Y244500D01*
X801000Y230000D02*
X805000Y234000D01*
X870000Y224000D02*
X884000Y210000D01*
X870000Y224000D02*
Y244500D01*
X884000Y202500D02*
X884500Y203000D01*
X892000D01*
X875750Y202250D02*
X883750D01*
X884000Y202500D02*
Y210000D01*
X856000Y189750D02*
Y203000D01*
X848000D02*
X856000D01*
X848000Y203000D02*
X848000Y203000D01*
X858000Y187750D02*
X864250D01*
X856000Y189750D02*
X858000Y187750D01*
X928000Y257000D02*
X934000Y251000D01*
X928000Y257000D02*
Y260000D01*
X940500D01*
X904140D02*
X928000D01*
X954931Y200931D02*
Y261069D01*
X899000Y140000D02*
X904000D01*
X897000Y138000D02*
X899000Y140000D01*
X897000Y133000D02*
Y138000D01*
X925000Y161000D02*
Y244500D01*
X904000Y140000D02*
X925000Y161000D01*
X920000Y163000D02*
Y244500D01*
X902000Y145000D02*
X920000Y163000D01*
X889000Y145000D02*
X902000D01*
X915000Y165001D02*
Y244500D01*
X899999Y150000D02*
X915000Y165001D01*
X879000Y150000D02*
X899999D01*
X910000Y167000D02*
Y244500D01*
X898500Y155500D02*
X910000Y167000D01*
X905000Y169000D02*
Y244500D01*
X895500Y159500D02*
X905000Y169000D01*
X960000Y381000D02*
Y445299D01*
X954000Y375000D02*
X960000Y381000D01*
X940500Y375000D02*
X954000D01*
X965000Y379000D02*
Y448000D01*
X956000Y370000D02*
X965000Y379000D01*
X940500Y370000D02*
X956000D01*
X970000Y377000D02*
Y449000D01*
X958000Y365000D02*
X970000Y377000D01*
X940500Y365000D02*
X958000D01*
X960000Y360000D02*
X975000Y375000D01*
X940500Y300066D02*
X958243D01*
X940500Y295000D02*
X956144D01*
X940500Y285000D02*
X959073D01*
X940500Y280000D02*
X957002D01*
X940500Y275000D02*
X954931D01*
X940500Y270000D02*
X952860D01*
X959073Y285000D02*
X975000Y269073D01*
X958243Y300066D02*
X985066Y273243D01*
X956144Y295000D02*
X980000Y271144D01*
X957002Y280000D02*
X970000Y267002D01*
X954931Y275000D02*
X965000Y264931D01*
X952860Y270000D02*
X960000Y262860D01*
X980000Y180000D02*
Y271144D01*
X975000Y181987D02*
Y269073D01*
X970000Y184000D02*
Y267002D01*
X955000Y169000D02*
X970000Y184000D01*
X965000Y186000D02*
Y264931D01*
X949000Y170000D02*
X965000Y186000D01*
X960000Y188000D02*
Y262860D01*
X943000Y171000D02*
X960000Y188000D01*
X975000Y375000D02*
Y457018D01*
X940500Y360000D02*
X960000D01*
X952000Y380000D02*
X955000Y383000D01*
X940500Y380000D02*
X952000D01*
X778000Y290000D02*
X789500D01*
X776000Y285000D02*
X789500D01*
X775000Y280000D02*
X789500D01*
X773000Y275000D02*
X789500D01*
X1049000Y475000D02*
X1052000Y478000D01*
X973000Y468000D02*
X980000Y475000D01*
X973000Y459018D02*
Y468000D01*
X980000Y475000D02*
X1049000D01*
X973000Y459018D02*
X975000Y457018D01*
X949000Y85000D02*
Y170000D01*
X1052000Y478000D02*
Y497000D01*
X503590Y137560D02*
X589560D01*
X497000Y144150D02*
X503590Y137560D01*
X497000Y144150D02*
Y150000D01*
X498000Y103000D02*
X564000D01*
X492000Y97000D02*
X498000Y103000D01*
X492000Y92000D02*
Y97000D01*
X492000Y92000D02*
X492000Y92000D01*
X571000Y92420D02*
Y102000D01*
X733000Y345000D02*
X789500D01*
X622350Y444050D02*
X632650Y454350D01*
X612750Y444050D02*
X622350D01*
X883000Y133000D02*
Y139000D01*
X889000Y145000D01*
X955000Y450299D02*
Y558420D01*
X955000Y11000D02*
Y169000D01*
X943000Y11000D02*
Y171000D01*
X733000Y345000D02*
X733000Y345000D01*
X702142Y360000D02*
X702182Y360040D01*
X955000Y558420D02*
X967580Y571000D01*
X955000Y11000D02*
X958000Y8000D01*
X977000D01*
X919000D02*
X940000D01*
X943000Y11000D01*
X475000Y11000D02*
X478000Y8000D01*
X497000D01*
X439000D02*
X460000D01*
X463000Y11000D01*
X489000Y487580D02*
X501581Y475000D01*
X563000Y572000D02*
X582000D01*
X585000Y569000D01*
X873000Y455000D02*
X910000Y418000D01*
X19000Y132000D02*
X99300D01*
X442700Y262860D02*
Y285000D01*
X468100Y262860D02*
Y284450D01*
X417300Y262860D02*
Y284750D01*
X478500Y219600D02*
Y286000D01*
X476040Y217140D02*
X478500Y219600D01*
X468100Y217140D02*
X476040D01*
X9000Y487580D02*
X21580Y475000D01*
X667612Y444036D02*
X667762Y443886D01*
X667612Y405936D02*
X667637Y405961D01*
X92420Y9000D02*
X103000Y19581D01*
X9000Y83000D02*
X24000Y98000D01*
X10000Y141000D02*
X19000Y132000D01*
D24*
X915440Y60000D02*
D03*
X918610Y23730D02*
D03*
X972350Y70090D02*
D03*
X976410Y23670D02*
D03*
X986700Y92420D02*
D03*
X991800Y150000D02*
D03*
X1028200D02*
D03*
X1033300Y92420D02*
D03*
X1000000Y435440D02*
D03*
X1036270Y438610D02*
D03*
X989910Y492350D02*
D03*
X1036330Y496410D02*
D03*
X967580Y506700D02*
D03*
X910000Y511800D02*
D03*
Y548200D02*
D03*
X967580Y553300D02*
D03*
X624560Y520000D02*
D03*
X621390Y556270D02*
D03*
X567650Y509910D02*
D03*
X563590Y556330D02*
D03*
X553300Y487580D02*
D03*
X548200Y430000D02*
D03*
X511800D02*
D03*
X506700Y487580D02*
D03*
X435440Y60000D02*
D03*
X438610Y23730D02*
D03*
X492350Y70090D02*
D03*
X496410Y23670D02*
D03*
X506700Y92420D02*
D03*
X511800Y150000D02*
D03*
X548200D02*
D03*
X553300Y92420D02*
D03*
X144560Y520000D02*
D03*
X141390Y556270D02*
D03*
X87650Y509910D02*
D03*
X83590Y556330D02*
D03*
X73300Y487580D02*
D03*
X68200Y430000D02*
D03*
X31800D02*
D03*
X26700Y487580D02*
D03*
X60000Y144560D02*
D03*
X23730Y141390D02*
D03*
X70090Y87650D02*
D03*
X23670Y83590D02*
D03*
X92420Y73300D02*
D03*
X150000Y68200D02*
D03*
Y31800D02*
D03*
X92420Y26700D02*
D03*
D25*
X727000Y14250D02*
D03*
X799000D02*
D03*
D26*
X738750Y44250D02*
D03*
X787250D02*
D03*
D27*
X1020000Y290000D02*
D03*
X50000D02*
D03*
D28*
X724000Y134390D02*
D03*
X911000Y461000D02*
D03*
X890000Y478000D02*
D03*
X725000Y270000D02*
D03*
Y384000D02*
D03*
X630000Y115000D02*
D03*
X741000Y120000D02*
D03*
X685000Y140000D02*
D03*
X290000Y461000D02*
D03*
X230000Y425000D02*
D03*
X113000Y116000D02*
D03*
X645000Y149999D02*
D03*
X630000D02*
D03*
X645000Y115000D02*
D03*
X204000Y147000D02*
D03*
X690000Y190000D02*
D03*
X919000Y8000D02*
D03*
X949000Y85000D02*
D03*
X972000Y92000D02*
D03*
X961000Y150000D02*
D03*
X977000Y8000D02*
D03*
X1051000Y92420D02*
D03*
X870000Y108000D02*
D03*
X109000Y495000D02*
D03*
X97000Y430000D02*
D03*
X967000Y480000D02*
D03*
X320000Y120000D02*
D03*
X251000Y137000D02*
D03*
X740000Y562000D02*
D03*
X825800Y540000D02*
D03*
X813000D02*
D03*
Y500000D02*
D03*
Y448000D02*
D03*
X873000Y455000D02*
D03*
X755000Y384000D02*
D03*
X799000Y177000D02*
D03*
X243000Y153000D02*
D03*
X362000Y435000D02*
D03*
X312000Y443000D02*
D03*
X595000Y395000D02*
D03*
X934000Y177000D02*
D03*
X679000Y387000D02*
D03*
X600000Y431000D02*
D03*
Y419000D02*
D03*
X848000Y412000D02*
D03*
X893000Y420000D02*
D03*
X885000Y430000D02*
D03*
X679000Y406000D02*
D03*
Y444000D02*
D03*
X848000Y225000D02*
D03*
X578000Y488000D02*
D03*
X812999Y140001D02*
D03*
X925000Y430000D02*
D03*
X892000Y177000D02*
D03*
X834000D02*
D03*
X755000Y270000D02*
D03*
X934000Y210000D02*
D03*
X813000D02*
D03*
X1052000Y439000D02*
D03*
X967000Y492000D02*
D03*
X1052000Y497000D02*
D03*
X980000Y465000D02*
D03*
X497000Y150000D02*
D03*
X260000Y452000D02*
D03*
X290000Y120000D02*
D03*
X967580Y571000D02*
D03*
X469000Y85000D02*
D03*
X439000Y8000D02*
D03*
X492000Y92000D02*
D03*
X497000Y8000D02*
D03*
X571000Y92420D02*
D03*
X489000Y487580D02*
D03*
X563000Y572000D02*
D03*
X568000Y488000D02*
D03*
X621000Y572000D02*
D03*
X591000Y495000D02*
D03*
X640000Y387002D02*
D03*
X214100Y188000D02*
D03*
X254000Y293000D02*
D03*
X93000Y88000D02*
D03*
X141000Y572000D02*
D03*
X83000Y104000D02*
D03*
X88000Y488000D02*
D03*
X83000Y572000D02*
D03*
X9000Y487580D02*
D03*
X92420Y9000D02*
D03*
X10000Y141000D02*
D03*
X9000Y83000D02*
D03*
D29*
X280000Y293000D02*
D03*
X264000D02*
D03*
X214000Y177000D02*
D03*
X230000D02*
D03*
X748000Y284450D02*
D03*
X732000D02*
D03*
X748000Y384000D02*
D03*
X732000D02*
D03*
X748000Y270000D02*
D03*
X732000D02*
D03*
X776012Y150000D02*
D03*
X760012D02*
D03*
X776012Y90000D02*
D03*
X760012D02*
D03*
X609000Y386986D02*
D03*
X625000D02*
D03*
X671000Y387002D02*
D03*
X655000D02*
D03*
D30*
X595100Y217140D02*
D03*
X620500Y217140D02*
D03*
X671300Y217140D02*
D03*
X645900Y217140D02*
D03*
X595100Y262860D02*
D03*
X620500Y262860D02*
D03*
X671300Y262860D02*
D03*
X645900Y262860D02*
D03*
X391900Y217140D02*
D03*
X417300D02*
D03*
X366500Y217140D02*
D03*
X341100Y217140D02*
D03*
X264900Y217140D02*
D03*
X290300D02*
D03*
X188700Y217140D02*
D03*
X214100Y217140D02*
D03*
X239500Y217140D02*
D03*
X315700Y217140D02*
D03*
X544300Y262860D02*
D03*
X569700Y262860D02*
D03*
X518900Y262860D02*
D03*
X493500D02*
D03*
X442700Y262860D02*
D03*
X468100Y262860D02*
D03*
X315700Y262860D02*
D03*
X239500D02*
D03*
X214100Y262860D02*
D03*
X188700Y262860D02*
D03*
X290300Y262860D02*
D03*
X264900D02*
D03*
X341100Y262860D02*
D03*
X366500Y262860D02*
D03*
X417300D02*
D03*
X391900Y262860D02*
D03*
X544300Y217140D02*
D03*
X569700D02*
D03*
X518900Y217140D02*
D03*
X493500D02*
D03*
X442700D02*
D03*
X468100Y217140D02*
D03*
D31*
X720000Y470000D02*
D03*
X140000Y470000D02*
D03*
X720000Y240000D02*
D03*
X140000D02*
D03*
D32*
X940500Y260000D02*
D03*
X940500Y265000D02*
D03*
X940500Y270000D02*
D03*
X940500Y275000D02*
D03*
Y280000D02*
D03*
X940500Y285000D02*
D03*
X940500Y290000D02*
D03*
X940500Y295000D02*
D03*
X940500Y300000D02*
D03*
X940500Y305000D02*
D03*
X940500Y310000D02*
D03*
X940500Y315000D02*
D03*
X940500Y320000D02*
D03*
Y325000D02*
D03*
Y330000D02*
D03*
Y335000D02*
D03*
Y340000D02*
D03*
Y345000D02*
D03*
Y350000D02*
D03*
Y355000D02*
D03*
Y360000D02*
D03*
Y365000D02*
D03*
Y370000D02*
D03*
Y375000D02*
D03*
Y380000D02*
D03*
X789500Y380000D02*
D03*
X789500Y375000D02*
D03*
X789500Y370000D02*
D03*
X789500Y365000D02*
D03*
X789500Y360000D02*
D03*
X789500Y355000D02*
D03*
X789500Y350000D02*
D03*
X789500Y345000D02*
D03*
X789500Y340000D02*
D03*
X789500Y335000D02*
D03*
X789500Y330000D02*
D03*
X789500Y325000D02*
D03*
X789500Y320000D02*
D03*
Y315000D02*
D03*
Y310000D02*
D03*
Y305000D02*
D03*
Y300000D02*
D03*
Y295000D02*
D03*
Y290000D02*
D03*
Y285000D02*
D03*
Y280000D02*
D03*
Y275000D02*
D03*
Y270000D02*
D03*
Y265000D02*
D03*
Y260000D02*
D03*
D33*
X925000Y395500D02*
D03*
X920000Y395500D02*
D03*
X915000Y395500D02*
D03*
X910000Y395500D02*
D03*
X905000D02*
D03*
X900000Y395500D02*
D03*
X895000Y395500D02*
D03*
X890000Y395500D02*
D03*
X885000Y395500D02*
D03*
X880000Y395500D02*
D03*
X875000Y395500D02*
D03*
X870000Y395500D02*
D03*
X865000Y395500D02*
D03*
X860000D02*
D03*
X855000D02*
D03*
X850000D02*
D03*
X845000D02*
D03*
X840000D02*
D03*
X835000D02*
D03*
X830000D02*
D03*
X825000D02*
D03*
X820000D02*
D03*
X815000D02*
D03*
X810000D02*
D03*
X805000D02*
D03*
X805000Y244500D02*
D03*
X810000Y244500D02*
D03*
X815000Y244500D02*
D03*
X820000Y244500D02*
D03*
X825000Y244500D02*
D03*
X830000Y244500D02*
D03*
X835000Y244500D02*
D03*
X840000Y244500D02*
D03*
X845000Y244500D02*
D03*
X850000Y244500D02*
D03*
X855000Y244500D02*
D03*
X860000Y244500D02*
D03*
X865000Y244500D02*
D03*
X870000D02*
D03*
X875000D02*
D03*
X880000D02*
D03*
X885000D02*
D03*
X890000D02*
D03*
X895000D02*
D03*
X900000D02*
D03*
X905000D02*
D03*
X910000D02*
D03*
X915000D02*
D03*
X920000D02*
D03*
X925000D02*
D03*
D34*
X695500Y150000D02*
D03*
X674500D02*
D03*
X695500Y115000D02*
D03*
X674500D02*
D03*
D35*
X685000Y150000D02*
D03*
X685000Y115000D02*
D03*
D36*
X897000Y133000D02*
D03*
Y117000D02*
D03*
X841000Y133000D02*
D03*
X855000Y132999D02*
D03*
Y117000D02*
D03*
X869000Y133000D02*
D03*
Y117000D02*
D03*
X883000Y133000D02*
D03*
Y117000D02*
D03*
D37*
X841000Y117000D02*
D03*
D38*
X230000Y153000D02*
D03*
Y137000D02*
D03*
X260000Y153000D02*
D03*
Y137000D02*
D03*
X812999Y116999D02*
D03*
Y132999D02*
D03*
X934000Y203000D02*
D03*
Y187000D02*
D03*
X925000Y437000D02*
D03*
Y453000D02*
D03*
X911000Y437000D02*
D03*
Y453000D02*
D03*
X848000Y187000D02*
D03*
Y203000D02*
D03*
X892000Y187000D02*
D03*
Y203000D02*
D03*
X834000D02*
D03*
Y187000D02*
D03*
X813000Y203000D02*
D03*
Y187000D02*
D03*
X799000Y203000D02*
D03*
Y187000D02*
D03*
X320000Y443000D02*
D03*
Y427000D02*
D03*
X350000Y443000D02*
D03*
Y427000D02*
D03*
X580000Y433000D02*
D03*
Y417000D02*
D03*
X827000Y117000D02*
D03*
Y133000D02*
D03*
D39*
X787700Y513650D02*
D03*
X800400D02*
D03*
X813100D02*
D03*
X825800D02*
D03*
X838500D02*
D03*
X851200D02*
D03*
X863900D02*
D03*
Y526350D02*
D03*
X851200D02*
D03*
X838500D02*
D03*
X825800D02*
D03*
X813100D02*
D03*
X800400D02*
D03*
X787700D02*
D03*
D40*
X740000Y552029D02*
D03*
Y518029D02*
D03*
D41*
X350000Y479650D02*
D03*
X320000D02*
D03*
X290000D02*
D03*
X260000D02*
D03*
X230000D02*
D03*
Y100350D02*
D03*
X260000D02*
D03*
X290000D02*
D03*
X320000D02*
D03*
X350000D02*
D03*
D42*
X388850Y534350D02*
D03*
X191150D02*
D03*
Y45650D02*
D03*
X388850D02*
D03*
D43*
X754500Y133500D02*
D03*
X764000D02*
D03*
X773500D02*
D03*
Y106500D02*
D03*
X764000D02*
D03*
X754500D02*
D03*
D44*
X764000Y120000D02*
D03*
D45*
X763000Y41000D02*
D03*
X756500D02*
D03*
X750000D02*
D03*
X769500D02*
D03*
X776000D02*
D03*
D46*
X667250Y444050D02*
D03*
Y431350D02*
D03*
Y418650D02*
D03*
Y405950D02*
D03*
X612750Y444050D02*
D03*
Y431350D02*
D03*
Y418650D02*
D03*
Y405950D02*
D03*
D47*
X864250Y187750D02*
D03*
X875750Y202250D02*
D03*
Y187750D02*
D03*
X864250Y202250D02*
D03*
D48*
X825725Y513725D02*
X838425Y526425D01*
X749378Y113366D02*
X757402D01*
X890000Y478000D02*
X891000D01*
X847000D02*
X890000D01*
X881000Y520000D02*
X890000Y511000D01*
Y478000D02*
Y511000D01*
X776000Y42000D02*
Y57012D01*
X770598Y126634D02*
X778622D01*
X750000Y14250D02*
Y40500D01*
X825800Y499200D02*
X847000Y478000D01*
X870250Y520000D02*
X881000D01*
X863900Y526350D02*
X870250Y520000D01*
X825800Y499200D02*
Y513650D01*
X749366Y126634D02*
X757390D01*
X770598Y113366D02*
X778622D01*
M02*
