G04*
G04 #@! TF.GenerationSoftware,Altium Limited,Altium Designer,19.0.10 (269)*
G04*
G04 Layer_Physical_Order=1*
G04 Layer_Color=255*
%FSLAX44Y44*%
%MOMM*%
G71*
G01*
G75*
%ADD12C,0.2000*%
%ADD13C,0.2000*%
%ADD14C,1.4000*%
%ADD16C,1.5000*%
%ADD17C,2.4511*%
%ADD18C,1.0668*%
%ADD19C,0.8000*%
%ADD20C,0.6000*%
%ADD21C,0.5000*%
%ADD22C,0.7500*%
%ADD23C,0.2500*%
%ADD24C,0.8800*%
%ADD25O,1.2000X2.0000*%
%ADD26C,1.0160*%
%ADD27P,5.4120X8X22.5*%
%ADD28C,0.6000*%
D12*
X922440Y60000D02*
G03*
X922440Y60000I-7000J0D01*
G01*
X925610Y23730D02*
G03*
X925610Y23730I-7000J0D01*
G01*
X979350Y70090D02*
G03*
X979350Y70090I-7000J0D01*
G01*
X983410Y23670D02*
G03*
X983410Y23670I-7000J0D01*
G01*
X993700Y92420D02*
G03*
X993700Y92420I-7000J0D01*
G01*
X998800Y150000D02*
G03*
X998800Y150000I-7000J0D01*
G01*
X1035200D02*
G03*
X1035200Y150000I-7000J0D01*
G01*
X1040300Y92420D02*
G03*
X1040300Y92420I-7000J0D01*
G01*
X1007000Y435440D02*
G03*
X1007000Y435440I-7000J0D01*
G01*
X1043270Y438610D02*
G03*
X1043270Y438610I-7000J0D01*
G01*
X996910Y492350D02*
G03*
X996910Y492350I-7000J0D01*
G01*
X1043330Y496410D02*
G03*
X1043330Y496410I-7000J0D01*
G01*
X974580Y506700D02*
G03*
X974580Y506700I-7000J0D01*
G01*
X917000Y511800D02*
G03*
X917000Y511800I-7000J0D01*
G01*
Y548200D02*
G03*
X917000Y548200I-7000J0D01*
G01*
X974580Y553300D02*
G03*
X974580Y553300I-7000J0D01*
G01*
X631560Y520000D02*
G03*
X631560Y520000I-7000J0D01*
G01*
X628390Y556270D02*
G03*
X628390Y556270I-7000J0D01*
G01*
X574650Y509910D02*
G03*
X574650Y509910I-7000J0D01*
G01*
X570590Y556330D02*
G03*
X570590Y556330I-7000J0D01*
G01*
X560300Y487580D02*
G03*
X560300Y487580I-7000J0D01*
G01*
X555200Y430000D02*
G03*
X555200Y430000I-7000J0D01*
G01*
X518800D02*
G03*
X518800Y430000I-7000J0D01*
G01*
X513700Y487580D02*
G03*
X513700Y487580I-7000J0D01*
G01*
X442440Y60000D02*
G03*
X442440Y60000I-7000J0D01*
G01*
X445610Y23730D02*
G03*
X445610Y23730I-7000J0D01*
G01*
X499350Y70090D02*
G03*
X499350Y70090I-7000J0D01*
G01*
X503410Y23670D02*
G03*
X503410Y23670I-7000J0D01*
G01*
X513700Y92420D02*
G03*
X513700Y92420I-7000J0D01*
G01*
X518800Y150000D02*
G03*
X518800Y150000I-7000J0D01*
G01*
X555200D02*
G03*
X555200Y150000I-7000J0D01*
G01*
X560300Y92420D02*
G03*
X560300Y92420I-7000J0D01*
G01*
X151560Y520000D02*
G03*
X151560Y520000I-7000J0D01*
G01*
X148390Y556270D02*
G03*
X148390Y556270I-7000J0D01*
G01*
X94650Y509910D02*
G03*
X94650Y509910I-7000J0D01*
G01*
X90590Y556330D02*
G03*
X90590Y556330I-7000J0D01*
G01*
X80300Y487580D02*
G03*
X80300Y487580I-7000J0D01*
G01*
X75200Y430000D02*
G03*
X75200Y430000I-7000J0D01*
G01*
X38800D02*
G03*
X38800Y430000I-7000J0D01*
G01*
X33700Y487580D02*
G03*
X33700Y487580I-7000J0D01*
G01*
X67000Y144560D02*
G03*
X67000Y144560I-7000J0D01*
G01*
X30730Y141390D02*
G03*
X30730Y141390I-7000J0D01*
G01*
X77090Y87650D02*
G03*
X77090Y87650I-7000J0D01*
G01*
X30670Y83590D02*
G03*
X30670Y83590I-7000J0D01*
G01*
X99420Y73300D02*
G03*
X99420Y73300I-7000J0D01*
G01*
X157000Y68200D02*
G03*
X157000Y68200I-7000J0D01*
G01*
Y31800D02*
G03*
X157000Y31800I-7000J0D01*
G01*
X99420Y26700D02*
G03*
X99420Y26700I-7000J0D01*
G01*
X50000Y0D02*
X1010000D01*
X1060000Y50000D01*
Y530000D01*
X1010000Y580000D02*
X1060000Y530000D01*
X50000Y580000D02*
X1010000D01*
X0Y50000D02*
Y530000D01*
Y50000D02*
X50000Y0D01*
X0Y530000D02*
X50000Y580000D01*
X720500Y-250D02*
X725500D01*
X800500D02*
X805750D01*
D13*
X922440Y60000D02*
D03*
X925610Y23730D02*
D03*
X979350Y70090D02*
D03*
X983410Y23670D02*
D03*
X993700Y92420D02*
D03*
X998800Y150000D02*
D03*
X1035200D02*
D03*
X1040300Y92420D02*
D03*
X1000000Y442440D02*
D03*
X1036270Y445610D02*
D03*
X989910Y499350D02*
D03*
X1036330Y503410D02*
D03*
X967580Y513700D02*
D03*
X910000Y518800D02*
D03*
Y555200D02*
D03*
X967580Y560300D02*
D03*
X617560Y520000D02*
D03*
X614390Y556270D02*
D03*
X560650Y509910D02*
D03*
X556590Y556330D02*
D03*
X546300Y487580D02*
D03*
X541200Y430000D02*
D03*
X504800D02*
D03*
X499700Y487580D02*
D03*
X442440Y60000D02*
D03*
X445610Y23730D02*
D03*
X499350Y70090D02*
D03*
X503410Y23670D02*
D03*
X513700Y92420D02*
D03*
X518800Y150000D02*
D03*
X555200D02*
D03*
X560300Y92420D02*
D03*
X137560Y520000D02*
D03*
X134390Y556270D02*
D03*
X80650Y509910D02*
D03*
X76590Y556330D02*
D03*
X66300Y487580D02*
D03*
X61200Y430000D02*
D03*
X24800D02*
D03*
X19700Y487580D02*
D03*
X60000Y137560D02*
D03*
X23730Y134390D02*
D03*
X70090Y80650D02*
D03*
X23670Y76590D02*
D03*
X92420Y66300D02*
D03*
X150000Y61200D02*
D03*
Y24800D02*
D03*
X92420Y19700D02*
D03*
D14*
X993630Y26560D02*
D03*
X1041820Y77580D02*
D03*
X987930Y75960D02*
D03*
X1033440Y513630D02*
D03*
X982420Y561820D02*
D03*
X984040Y507930D02*
D03*
X546370Y553440D02*
D03*
X498180Y502420D02*
D03*
X552070Y504040D02*
D03*
X513630Y26560D02*
D03*
X561820Y77580D02*
D03*
X507930Y75960D02*
D03*
X66370Y553440D02*
D03*
X18180Y502420D02*
D03*
X72070Y504040D02*
D03*
X26560Y66370D02*
D03*
X77580Y18180D02*
D03*
X75960Y72070D02*
D03*
D16*
X1010000Y50000D02*
D03*
Y530000D02*
D03*
X530000D02*
D03*
Y50000D02*
D03*
X50000Y530000D02*
D03*
Y50000D02*
D03*
D17*
X857550Y494600D02*
D03*
Y545400D02*
D03*
X775000D02*
D03*
Y494600D02*
D03*
D18*
X876600Y509850D02*
D03*
Y530150D02*
D03*
X775000Y520000D02*
D03*
D19*
X740000Y535029D02*
D03*
D20*
X874369Y566451D02*
X890000Y550820D01*
X744451Y566451D02*
X874369D01*
X740000Y562000D02*
X744451Y566451D01*
X907000Y461000D02*
X911000D01*
X890000Y478000D02*
X907000Y461000D01*
X799000Y177000D02*
X834000D01*
X799000Y120000D02*
X812999Y133999D01*
X741000Y120000D02*
X799000D01*
X812999Y133999D02*
Y140001D01*
X890000Y478000D02*
Y550820D01*
X946000Y189000D02*
Y426000D01*
X911000Y461000D02*
X946000Y426000D01*
X557945Y187055D02*
X630000Y115000D01*
X214100Y188000D02*
X557945Y187055D01*
X630000Y115000D02*
X645000D01*
X350000Y197000D02*
X582999Y197000D01*
X254000Y293000D02*
X350000Y197000D01*
X812999Y140001D02*
Y176999D01*
X582999Y197000D02*
X630000Y149999D01*
X934000Y177000D02*
X946000Y189000D01*
X892000Y177000D02*
X934000D01*
X892000Y177000D02*
X892000Y177000D01*
X630000Y149999D02*
X645000D01*
D21*
X679000Y387000D02*
X703000Y363000D01*
Y155390D02*
Y363000D01*
Y155390D02*
X724000Y134390D01*
X755000Y267617D02*
X812809Y209809D01*
X813000Y540000D02*
X821000Y532000D01*
Y493000D02*
Y532000D01*
Y493000D02*
X868500Y445500D01*
X909500D01*
X725000Y270000D02*
Y384000D01*
Y251000D02*
Y270000D01*
Y251000D02*
X799000Y177000D01*
X736000Y403000D02*
X755000Y384000D01*
X693030Y403000D02*
X736000D01*
X687000Y396970D02*
X693030Y403000D01*
X674030Y396970D02*
X687000D01*
X665014Y405986D02*
X674030Y396970D01*
X842001Y80001D02*
X870000Y108000D01*
X734999Y80001D02*
X842001D01*
X685000Y130000D02*
X734999Y80001D01*
X685000Y130000D02*
Y140000D01*
X160000Y409000D02*
X212000Y461000D01*
X383000D02*
X429000Y415000D01*
X212000Y461000D02*
X290000D01*
X383000D01*
X225000Y435000D02*
X362000D01*
X188997Y398997D02*
X225000Y435000D01*
X188997Y162003D02*
Y398997D01*
X220000Y443000D02*
X312000D01*
X179000Y402000D02*
X220000Y443000D01*
X179000Y159000D02*
Y402000D01*
X216000Y452000D02*
X260000D01*
X170000Y406000D02*
X216000Y452000D01*
X170000Y154000D02*
Y406000D01*
X160000Y149000D02*
Y409000D01*
X605986Y405986D02*
X665014D01*
X188997Y162003D02*
X204000Y147000D01*
X179000Y159000D02*
X201000Y137000D01*
X170000Y154000D02*
X196000Y128000D01*
X160000Y149000D02*
X189000Y120000D01*
X312000Y128000D02*
X320000Y120000D01*
X196000Y128000D02*
X312000D01*
X201000Y137000D02*
X251000D01*
X909500Y445500D02*
X925000Y430000D01*
X755000Y267617D02*
Y270000D01*
X669002Y387000D02*
X679000D01*
X659002Y397000D02*
X669002Y387000D01*
X612000Y397000D02*
X659002D01*
X599000Y384000D02*
X612000Y397000D01*
X425000Y384000D02*
X599000D01*
X595000Y395000D02*
X605986Y405986D01*
X426000Y395000D02*
X595000D01*
X362000Y435000D02*
X374000D01*
X425000Y384000D01*
X312005Y442995D02*
X378005D01*
X312000Y443000D02*
X312005Y442995D01*
X378005D02*
X426000Y395000D01*
X870000Y108000D02*
Y210000D01*
X934000D01*
X813000D02*
X870000D01*
X428000Y405000D02*
X578650D01*
X381000Y452000D02*
X428000Y405000D01*
X260000Y452000D02*
X381000D01*
X934000Y210000D02*
Y421000D01*
X925000Y430000D02*
X934000Y421000D01*
X588676Y431000D02*
X600000D01*
X572676Y415000D02*
X588676Y431000D01*
X592650Y419000D02*
X600000D01*
X578650Y405000D02*
X592650Y419000D01*
X892965Y419966D02*
X893000Y420000D01*
X692965Y419966D02*
X892965Y419966D01*
X679000Y406000D02*
X692965Y419966D01*
X693000Y430000D02*
X885000Y430000D01*
X679000Y444000D02*
X693000Y430000D01*
X755000Y270000D02*
Y384000D01*
X812809Y209809D02*
X813000Y210000D01*
X189000Y120000D02*
X290000D01*
X429000Y415000D02*
X572676D01*
D22*
X690000Y190000D02*
Y359500D01*
X675500Y374000D02*
X690000Y359500D01*
X640000Y374000D02*
X675500D01*
X722250Y120000D02*
X741000D01*
X690000Y152250D02*
X722250Y120000D01*
X690000Y152250D02*
Y190000D01*
X230000Y425000D02*
X230000D01*
X369000D01*
X420000Y374000D01*
X200000Y395000D02*
X230000Y425000D01*
X200000Y166000D02*
Y395000D01*
X213000Y153000D02*
X243000D01*
X200000Y166000D02*
X213000Y153000D01*
X420000Y374000D02*
X640000D01*
Y387002D01*
D23*
X825800Y540000D02*
X830000Y535800D01*
Y498000D02*
Y535800D01*
Y498000D02*
X873000Y455000D01*
X150000Y75410D02*
Y79000D01*
X113000Y116000D02*
X150000Y79000D01*
X813000Y448000D02*
Y500000D01*
X977000Y8000D02*
Y15947D01*
X961001Y150000D02*
X984590D01*
X1041000Y92420D02*
X1050874D01*
X919000Y8000D02*
Y15963D01*
X1050874Y92420D02*
X1050875Y92420D01*
X972000Y92000D02*
X972420Y92420D01*
X967000Y85000D02*
X972350Y79650D01*
X961000Y150000D02*
X961001Y150000D01*
X972420Y92420D02*
X979550D01*
X972350Y77696D02*
Y79650D01*
X949000Y85000D02*
X967000D01*
X1050875Y92420D02*
X1051000D01*
X93000Y495000D02*
X109000D01*
X97000Y430000D02*
X97000Y430000D01*
X75410Y430000D02*
X97000D01*
X930000Y480000D02*
X967000D01*
X910000Y500000D02*
X930000Y480000D01*
X910000Y500000D02*
Y504040D01*
X568500Y478500D02*
X578000Y488000D01*
X568500Y437500D02*
Y478500D01*
X561000Y430000D02*
X568500Y437500D01*
X848000Y225000D02*
Y412000D01*
X555410Y430000D02*
X561000D01*
X497001Y149999D02*
X504590D01*
X497000Y150000D02*
X497001Y149999D01*
X980000Y490046D02*
X982304Y492350D01*
X980000Y465000D02*
Y490046D01*
X967000Y492000D02*
X967580Y492580D01*
Y499550D01*
X1044037Y439000D02*
X1052000D01*
X1044053Y497000D02*
X1052000D01*
X967580Y561000D02*
Y570874D01*
X967580Y570875D02*
Y571000D01*
X967580Y570874D02*
X967580Y570875D01*
X469000Y85000D02*
X487000D01*
X439000Y8000D02*
Y15963D01*
X497000Y8000D02*
Y15947D01*
X492350Y77696D02*
Y79650D01*
X492420Y92420D02*
X499550D01*
X492000Y92000D02*
X492420Y92420D01*
X561000Y92420D02*
X570874D01*
X487000Y85000D02*
X492350Y79650D01*
X570875Y92420D02*
X571000D01*
X570874Y92420D02*
X570875Y92420D01*
X489125Y487580D02*
X489126Y487580D01*
X489000Y487580D02*
X489125D01*
X567650Y500350D02*
X573000Y495000D01*
X489126Y487580D02*
X499000D01*
X567580Y487580D02*
X568000Y488000D01*
X560450Y487580D02*
X567580D01*
X567650Y500350D02*
Y502304D01*
X563000Y564053D02*
Y572000D01*
X621000Y564037D02*
Y572000D01*
X573000Y495000D02*
X591000D01*
X74997Y104000D02*
X83000D01*
X83000Y104000D01*
X70090Y99093D02*
X74997Y104000D01*
X70090Y95000D02*
Y99093D01*
X93000Y80850D02*
Y88000D01*
X141000Y564037D02*
Y572000D01*
X83000Y564053D02*
Y572000D01*
X87650Y500350D02*
Y502304D01*
X80450Y487580D02*
X87580D01*
X88000Y488000D01*
X9125Y487580D02*
X19000D01*
X92420Y9125D02*
Y19000D01*
X87650Y500350D02*
X93000Y495000D01*
X9000Y487580D02*
X9125D01*
X9125Y487580D01*
X92420Y9125D02*
X92420Y9125D01*
X92420Y9000D02*
Y9125D01*
X10000Y141000D02*
X16000D01*
X9000Y83000D02*
X16000D01*
D24*
X915440Y60000D02*
D03*
X918610Y23730D02*
D03*
X972350Y70090D02*
D03*
X976410Y23670D02*
D03*
X986700Y92420D02*
D03*
X991800Y150000D02*
D03*
X1028200D02*
D03*
X1033300Y92420D02*
D03*
X1000000Y435440D02*
D03*
X1036270Y438610D02*
D03*
X989910Y492350D02*
D03*
X1036330Y496410D02*
D03*
X967580Y506700D02*
D03*
X910000Y511800D02*
D03*
Y548200D02*
D03*
X967580Y553300D02*
D03*
X624560Y520000D02*
D03*
X621390Y556270D02*
D03*
X567650Y509910D02*
D03*
X563590Y556330D02*
D03*
X553300Y487580D02*
D03*
X548200Y430000D02*
D03*
X511800D02*
D03*
X506700Y487580D02*
D03*
X435440Y60000D02*
D03*
X438610Y23730D02*
D03*
X492350Y70090D02*
D03*
X496410Y23670D02*
D03*
X506700Y92420D02*
D03*
X511800Y150000D02*
D03*
X548200D02*
D03*
X553300Y92420D02*
D03*
X144560Y520000D02*
D03*
X141390Y556270D02*
D03*
X87650Y509910D02*
D03*
X83590Y556330D02*
D03*
X73300Y487580D02*
D03*
X68200Y430000D02*
D03*
X31800D02*
D03*
X26700Y487580D02*
D03*
X60000Y144560D02*
D03*
X23730Y141390D02*
D03*
X70090Y87650D02*
D03*
X23670Y83590D02*
D03*
X92420Y73300D02*
D03*
X150000Y68200D02*
D03*
Y31800D02*
D03*
X92420Y26700D02*
D03*
D25*
X727000Y14250D02*
D03*
X799000D02*
D03*
D26*
X738750Y44250D02*
D03*
X787250D02*
D03*
D27*
X1020000Y290000D02*
D03*
X50000D02*
D03*
D28*
X724000Y134390D02*
D03*
X911000Y461000D02*
D03*
X890000Y478000D02*
D03*
X725000Y270000D02*
D03*
Y384000D02*
D03*
X630000Y115000D02*
D03*
X741000Y120000D02*
D03*
X685000Y140000D02*
D03*
X290000Y461000D02*
D03*
X230000Y425000D02*
D03*
X113000Y116000D02*
D03*
X645000Y149999D02*
D03*
X630000D02*
D03*
X645000Y115000D02*
D03*
X204000Y147000D02*
D03*
X690000Y190000D02*
D03*
X919000Y8000D02*
D03*
X949000Y85000D02*
D03*
X972000Y92000D02*
D03*
X961000Y150000D02*
D03*
X977000Y8000D02*
D03*
X1051000Y92420D02*
D03*
X870000Y108000D02*
D03*
X109000Y495000D02*
D03*
X97000Y430000D02*
D03*
X967000Y480000D02*
D03*
X320000Y120000D02*
D03*
X251000Y137000D02*
D03*
X740000Y562000D02*
D03*
X825800Y540000D02*
D03*
X813000D02*
D03*
Y500000D02*
D03*
Y448000D02*
D03*
X873000Y455000D02*
D03*
X755000Y384000D02*
D03*
X799000Y177000D02*
D03*
X243000Y153000D02*
D03*
X362000Y435000D02*
D03*
X312000Y443000D02*
D03*
X595000Y395000D02*
D03*
X934000Y177000D02*
D03*
X679000Y387000D02*
D03*
X600000Y431000D02*
D03*
Y419000D02*
D03*
X848000Y412000D02*
D03*
X893000Y420000D02*
D03*
X885000Y430000D02*
D03*
X679000Y406000D02*
D03*
Y444000D02*
D03*
X848000Y225000D02*
D03*
X578000Y488000D02*
D03*
X812999Y140001D02*
D03*
X925000Y430000D02*
D03*
X892000Y177000D02*
D03*
X834000D02*
D03*
X755000Y270000D02*
D03*
X934000Y210000D02*
D03*
X813000D02*
D03*
X1052000Y439000D02*
D03*
X967000Y492000D02*
D03*
X1052000Y497000D02*
D03*
X980000Y465000D02*
D03*
X497000Y150000D02*
D03*
X260000Y452000D02*
D03*
X290000Y120000D02*
D03*
X967580Y571000D02*
D03*
X469000Y85000D02*
D03*
X439000Y8000D02*
D03*
X492000Y92000D02*
D03*
X497000Y8000D02*
D03*
X571000Y92420D02*
D03*
X489000Y487580D02*
D03*
X563000Y572000D02*
D03*
X568000Y488000D02*
D03*
X621000Y572000D02*
D03*
X591000Y495000D02*
D03*
X640000Y387002D02*
D03*
X214100Y188000D02*
D03*
X254000Y293000D02*
D03*
X93000Y88000D02*
D03*
X141000Y572000D02*
D03*
X83000Y104000D02*
D03*
X88000Y488000D02*
D03*
X83000Y572000D02*
D03*
X9000Y487580D02*
D03*
X92420Y9000D02*
D03*
X10000Y141000D02*
D03*
X9000Y83000D02*
D03*
M02*
