G04*
G04 #@! TF.GenerationSoftware,Altium Limited,Altium Designer,19.0.10 (269)*
G04*
G04 Layer_Color=8388736*
%FSLAX44Y44*%
%MOMM*%
G71*
G01*
G75*
%ADD12C,0.2000*%
%ADD13C,0.2000*%
%ADD14C,1.4000*%
%ADD15C,1.6800*%
%ADD16C,1.5000*%
%ADD17C,2.4511*%
%ADD18C,1.0668*%
%ADD19C,0.8000*%
G36*
X1003009Y560988D02*
X1027067Y546016D01*
X1046849Y504990D01*
X1046052Y429409D01*
X991721Y424584D01*
X979999Y490001D01*
X975477Y495653D01*
X899976Y502623D01*
Y556759D01*
X982640Y569199D01*
X1003009Y560988D01*
D02*
G37*
G36*
X630591Y566052D02*
X635416Y511721D01*
X569999Y499999D01*
X564347Y495477D01*
X557377Y419976D01*
X503241D01*
X490801Y502640D01*
X499012Y523009D01*
X513984Y547067D01*
X555010Y566849D01*
X630591Y566052D01*
D02*
G37*
G36*
X150591D02*
X155416Y511721D01*
X89999Y499999D01*
X84347Y495477D01*
X77377Y419976D01*
X23241D01*
X10801Y502640D01*
X19012Y523009D01*
X33984Y547067D01*
X75010Y566849D01*
X150591Y566052D01*
D02*
G37*
G36*
X1049199Y77360D02*
X1040988Y56991D01*
X1026016Y32933D01*
X984990Y13151D01*
X909409Y13948D01*
X904584Y68279D01*
X970001Y80001D01*
X975653Y84523D01*
X982623Y160024D01*
X1036759D01*
X1049199Y77360D01*
D02*
G37*
G36*
X569199D02*
X560988Y56991D01*
X546016Y32933D01*
X504990Y13151D01*
X429409Y13948D01*
X424584Y68279D01*
X490001Y80001D01*
X495653Y84523D01*
X502623Y160024D01*
X556759D01*
X569199Y77360D01*
D02*
G37*
G36*
X80001Y89999D02*
X84523Y84347D01*
X160024Y77377D01*
Y23241D01*
X77360Y10801D01*
X56991Y19012D01*
X32933Y33984D01*
X13151Y75010D01*
X13948Y150591D01*
X68279Y155416D01*
X80001Y89999D01*
D02*
G37*
D12*
X50000Y0D02*
X1010000D01*
X1060000Y50000D01*
Y530000D01*
X1010000Y580000D02*
X1060000Y530000D01*
X50000Y580000D02*
X1010000D01*
X0Y50000D02*
Y530000D01*
Y50000D02*
X50000Y0D01*
X0Y530000D02*
X50000Y580000D01*
X720500Y-250D02*
X725500D01*
X800500D02*
X805750D01*
D13*
X922440Y60000D02*
D03*
X925610Y23730D02*
D03*
X979350Y70090D02*
D03*
X983410Y23670D02*
D03*
X993700Y92420D02*
D03*
X998800Y150000D02*
D03*
X1035200D02*
D03*
X1040300Y92420D02*
D03*
X1000000Y442440D02*
D03*
X1036270Y445610D02*
D03*
X989910Y499350D02*
D03*
X1036330Y503410D02*
D03*
X967580Y513700D02*
D03*
X910000Y518800D02*
D03*
Y555200D02*
D03*
X967580Y560300D02*
D03*
X617560Y520000D02*
D03*
X614390Y556270D02*
D03*
X560650Y509910D02*
D03*
X556590Y556330D02*
D03*
X546300Y487580D02*
D03*
X541200Y430000D02*
D03*
X504800D02*
D03*
X499700Y487580D02*
D03*
X442440Y60000D02*
D03*
X445610Y23730D02*
D03*
X499350Y70090D02*
D03*
X503410Y23670D02*
D03*
X513700Y92420D02*
D03*
X518800Y150000D02*
D03*
X555200D02*
D03*
X560300Y92420D02*
D03*
X137560Y520000D02*
D03*
X134390Y556270D02*
D03*
X80650Y509910D02*
D03*
X76590Y556330D02*
D03*
X66300Y487580D02*
D03*
X61200Y430000D02*
D03*
X24800D02*
D03*
X19700Y487580D02*
D03*
X60000Y137560D02*
D03*
X23730Y134390D02*
D03*
X70090Y80650D02*
D03*
X23670Y76590D02*
D03*
X92420Y66300D02*
D03*
X150000Y61200D02*
D03*
Y24800D02*
D03*
X92420Y19700D02*
D03*
D14*
X993630Y26560D02*
D03*
X1041820Y77580D02*
D03*
X987930Y75960D02*
D03*
X1033440Y513630D02*
D03*
X982420Y561820D02*
D03*
X984040Y507930D02*
D03*
X546370Y553440D02*
D03*
X498180Y502420D02*
D03*
X552070Y504040D02*
D03*
X513630Y26560D02*
D03*
X561820Y77580D02*
D03*
X507930Y75960D02*
D03*
X66370Y553440D02*
D03*
X18180Y502420D02*
D03*
X72070Y504040D02*
D03*
X26560Y66370D02*
D03*
X77580Y18180D02*
D03*
X75960Y72070D02*
D03*
D15*
X915440Y60000D02*
D03*
X918610Y23730D02*
D03*
X972350Y70090D02*
D03*
X976410Y23670D02*
D03*
X986700Y92420D02*
D03*
X991800Y150000D02*
D03*
X1028200D02*
D03*
X1033300Y92420D02*
D03*
X1000000Y435440D02*
D03*
X1036270Y438610D02*
D03*
X989910Y492350D02*
D03*
X1036330Y496410D02*
D03*
X967580Y506700D02*
D03*
X910000Y511800D02*
D03*
Y548200D02*
D03*
X967580Y553300D02*
D03*
X624560Y520000D02*
D03*
X621390Y556270D02*
D03*
X567650Y509910D02*
D03*
X563590Y556330D02*
D03*
X553300Y487580D02*
D03*
X548200Y430000D02*
D03*
X511800D02*
D03*
X506700Y487580D02*
D03*
X435440Y60000D02*
D03*
X438610Y23730D02*
D03*
X492350Y70090D02*
D03*
X496410Y23670D02*
D03*
X506700Y92420D02*
D03*
X511800Y150000D02*
D03*
X548200D02*
D03*
X553300Y92420D02*
D03*
X144560Y520000D02*
D03*
X141390Y556270D02*
D03*
X87650Y509910D02*
D03*
X83590Y556330D02*
D03*
X73300Y487580D02*
D03*
X68200Y430000D02*
D03*
X31800D02*
D03*
X26700Y487580D02*
D03*
X60000Y144560D02*
D03*
X23730Y141390D02*
D03*
X70090Y87650D02*
D03*
X23670Y83590D02*
D03*
X92420Y73300D02*
D03*
X150000Y68200D02*
D03*
Y31800D02*
D03*
X92420Y26700D02*
D03*
D16*
X1010000Y50000D02*
D03*
Y530000D02*
D03*
X530000D02*
D03*
Y50000D02*
D03*
X50000Y530000D02*
D03*
Y50000D02*
D03*
D17*
X857550Y494600D02*
D03*
Y545400D02*
D03*
X775000D02*
D03*
Y494600D02*
D03*
D18*
X876600Y509850D02*
D03*
Y530150D02*
D03*
X775000Y520000D02*
D03*
D19*
X740000Y535029D02*
D03*
M02*
